<svg preserveAspectRatio="none" overflow="visible" style="display: block;" width="52" height="52" viewBox="0 0 52 52" fill="none" xmlns="http://www.w3.org/2000/svg">
<g id="fi_534528" clip-path="url(#clip0_0_4)">
<path id="Vector" d="M42.3042 3.74652L37.0952 0.762574C36.8673 0.596398 36.623 0.456216 36.3643 0.343369L36.2868 0.299942L36.2835 0.306441C34.8823 -0.263158 33.0724 -0.0575784 31.098 1.08203L15.057 10.3426C10.6467 12.889 7.03711 19.14 7.03711 24.2337V42.7553C7.03711 45.2392 7.90038 47.0007 9.29106 47.8648L9.27765 47.8891L15.0655 51.1688L18.3209 45.5015L31.0984 38.1251C35.5091 35.5783 39.1179 29.3272 39.1179 24.2339V9.29263L42.3042 3.74652Z" fill="#1051AF"/>
<path id="Vector_2" d="M42.3042 3.74549L36.7295 2.43774C36.5012 2.27198 35.3624 2.276 35.1032 2.16233L34.6897 1.99739L33.9459 1.85886C32.5451 1.28926 33.0728 -0.0590227 31.0984 1.08048L15.057 10.3415C10.6467 12.8879 7.03711 19.1389 7.03711 24.2326V42.7542C7.03711 45.238 7.90038 46.9995 9.29106 47.8636L9.27765 47.888L15.0655 51.1677L18.3209 45.5003L31.0984 38.1239C35.5091 35.5771 39.1179 29.3261 39.1179 24.2328V9.2916L42.3042 3.74549Z" fill="#1051AF"/>
<path id="Vector_3" d="M7.34264 21.5664C7.148 22.4732 7.03711 23.371 7.03711 24.2347V42.7563C7.03711 45.2402 7.90038 47.0017 9.29106 47.8658L9.27765 47.8901L15.0655 51.1698L18.3209 45.5025L31.0984 38.126C31.8476 37.6934 32.5719 37.1469 33.2608 36.5234L7.34264 21.5664Z" fill="#0C4597"/>
<path id="Vector_4" d="M20.5702 13.5386C16.1599 16.085 12.5508 22.3365 12.5508 27.4297V45.9517C12.5508 51.045 16.1599 53.1286 20.5702 50.5814L36.6116 41.3209C41.022 38.7745 44.6311 32.5234 44.6311 27.4297V8.90817C44.6311 3.815 41.022 1.73166 36.6116 4.27845L20.5702 13.5386Z" fill="#3271CD"/>
<g id="Group">
<path id="Vector_5" d="M44.6311 8.90817C44.6311 3.815 41.022 1.73166 36.6116 4.27845L20.5702 13.5386C16.1599 16.085 12.5508 22.3365 12.5508 27.4297V45.9517C12.5508 51.045 16.1599 53.1286 20.5702 50.5814" fill="#417FD9"/>
<path id="Vector_6" opacity="0.3" d="M18.7207 51.3954C19.3151 51.2162 19.9338 50.9477 20.5696 50.5804L31.3435 44.3606V33.5664H18.7211V51.3953H18.7207V51.3954Z" fill="#417FD9"/>
</g>
<path id="Vector_7" d="M17.0085 52.0019C14.0997 52.0019 12.2207 49.6282 12.2207 45.9543V27.4324C12.2207 22.2209 15.8925 15.8606 20.4059 13.2549L36.4465 3.99433C37.7469 3.2436 39.0015 2.86328 40.1755 2.86328C43.0834 2.86328 44.9628 5.2374 44.9628 8.91081V27.4328C44.9628 32.6447 41.2911 39.0046 36.7776 41.6103L20.737 50.8708C19.4366 51.6212 18.1825 52.0019 17.0085 52.0019ZM40.176 3.52458C39.1194 3.52458 37.9761 3.87519 36.7781 4.5662L20.7371 13.8276C16.4065 16.3277 12.8826 22.4313 12.8826 27.4323V45.9542C12.8826 49.2766 14.4634 51.3404 17.0081 51.3404H17.0086C18.0652 51.3404 19.208 50.9898 20.406 50.2988L36.4466 41.0374C40.7773 38.5373 44.3011 32.4336 44.3011 27.4327V8.91081C44.3015 5.58842 42.7208 3.52458 40.176 3.52458Z" fill="#2E75DB"/>
<path id="Vector_8" d="M31.3298 24.4609L25.8262 38.2314L29.2347 42.6794L32.1008 33.5704L35.5442 26.8936L31.3298 24.4609Z" fill="#C17F0A"/>
<path id="Vector_9" d="M31.3298 24.4609L25.8262 38.2314L29.2347 42.6794L29.5434 39.0179L32.1008 33.5704L35.5442 26.8936L31.3298 24.4609Z" fill="#8E6E3C"/>
<path id="Vector_10" d="M29.2188 32.957L29.664 41.2198L33.4328 35.3896L29.2188 32.957Z" fill="#E0B812"/>
<path id="Vector_11" d="M29.217 20.7969L33.431 23.2299L27.1219 39.0154L22.9082 36.5819L29.217 20.7969Z" fill="#BA9A13"/>
<path id="Vector_12" d="M29.217 20.7969L33.431 23.2299L28.387 35.8506L22.9082 36.5819L29.217 20.7969Z" fill="#A58913"/>
<path id="Vector_13" d="M29.2442 20.8216L22.9082 36.5836L29.1703 33.0072L27.0675 39.0784L29.1703 37.8641V42.7212L33.431 35.3924L31.2747 36.6404L35.5444 26.8928L31.2747 29.3522L37.6569 15.9648L29.2442 20.8216Z" fill="#F9D332"/>
<g id="Group_2">
<path id="Vector_14" d="M29.1719 37.8641V42.7212L33.4326 35.3924L31.2763 36.6404L35.546 26.8928L31.2763 29.3522L37.6585 15.9648L29.2458 20.8216" fill="#EFC71D"/>
</g>
<path id="Vector_15" d="M29.2458 20.8203L25.0312 18.3881L33.444 13.5312L37.6585 15.9635L29.2458 20.8203Z" fill="#FFF48A"/>
<path id="Vector_16" d="M37.6585 15.9648L29.2458 20.8216L25.0312 18.3894" fill="#FFE471"/>
<path id="Vector_17" d="M25.0314 18.3867L29.2459 20.8189L22.9363 36.6044L18.7227 34.1714L25.0314 18.3867Z" fill="#E0B812"/>
<path id="Vector_18" d="M22.9355 36.6044L29.2452 20.8189L25.0306 18.3867" fill="#BA9A13"/>
</g>
<defs>
<clipPath id="clip0_0_4">
<rect width="52" height="52" fill="white"/>
</clipPath>
</defs>
</svg>
