<svg preserveAspectRatio="none" overflow="visible" style="display: block;" width="84.0026" height="84" viewBox="0 0 84.0026 84" fill="none" xmlns="http://www.w3.org/2000/svg">
<g id="Logo">
<g id="Rectangle 240662565" filter="url(#filter0_i_0_70)">
<path d="M0.685547 26.4065C0.685547 11.8226 12.5081 0 27.092 0H57.5961C72.18 0 84.0026 11.8226 84.0026 26.4065V56.9106C84.0026 71.4945 72.18 83.3171 57.5961 83.3171H27.092C12.5081 83.3171 0.685547 71.4945 0.685547 56.9106V26.4065Z" fill="url(#paint0_linear_0_70)"/>
</g>
<g id="Vector">
<path d="M41.2598 46.9744L18.6381 60.1964L15.3145 56.8403L35.1454 43.3845L41.2598 46.9744Z" fill="url(#paint1_linear_0_70)"/>
<path d="M41.7711 47.8687L19.1206 61.0404L20.3371 65.625L41.7927 55.0106L41.7711 47.8687Z" fill="url(#paint2_linear_0_70)"/>
<path d="M42.6703 47.8686L65.3208 61.0404L64.1043 65.625L42.6487 55.0106L42.6703 47.8686Z" fill="url(#paint3_linear_0_70)"/>
<path d="M43.1816 46.9743L65.8033 60.1964L69.1269 56.8403L49.296 43.3845L43.1816 46.9743Z" fill="url(#paint4_linear_0_70)"/>
<path d="M42.6704 45.9973L42.6416 19.6035L47.1817 18.375L48.8063 42.4452L42.6704 45.9973Z" fill="url(#paint5_linear_0_70)"/>
<path d="M41.6477 45.9973L41.6765 19.6035L37.1364 18.375L35.5118 42.4452L41.6477 45.9973Z" fill="url(#paint6_linear_0_70)"/>
</g>
</g>
<defs>
<filter id="filter0_i_0_70" x="0.685547" y="0" width="83.3171" height="86.2973" filterUnits="userSpaceOnUse" color-interpolation-filters="sRGB">
<feFlood flood-opacity="0" result="BackgroundImageFix"/>
<feBlend mode="normal" in="SourceGraphic" in2="BackgroundImageFix" result="shape"/>
<feColorMatrix in="SourceAlpha" type="matrix" values="0 0 0 0 0 0 0 0 0 0 0 0 0 0 0 0 0 0 127 0" result="hardAlpha"/>
<feOffset dy="2.9802"/>
<feGaussianBlur stdDeviation="1.4901"/>
<feComposite in2="hardAlpha" operator="arithmetic" k2="-1" k3="1"/>
<feColorMatrix type="matrix" values="0 0 0 0 1 0 0 0 0 1 0 0 0 0 1 0 0 0 0.35 0"/>
<feBlend mode="normal" in2="shape" result="effect1_innerShadow_0_70"/>
</filter>
<linearGradient id="paint0_linear_0_70" x1="42.3441" y1="0" x2="42.3441" y2="83.3171" gradientUnits="userSpaceOnUse">
<stop stop-color="#4879FD"/>
<stop offset="1" stop-color="#0D39B1"/>
</linearGradient>
<linearGradient id="paint1_linear_0_70" x1="97.3514" y1="18.375" x2="109.935" y2="114.326" gradientUnits="userSpaceOnUse">
<stop stop-color="white"/>
<stop offset="1" stop-color="white" stop-opacity="0"/>
</linearGradient>
<linearGradient id="paint2_linear_0_70" x1="97.3514" y1="18.375" x2="109.935" y2="114.326" gradientUnits="userSpaceOnUse">
<stop stop-color="white"/>
<stop offset="1" stop-color="white" stop-opacity="0"/>
</linearGradient>
<linearGradient id="paint3_linear_0_70" x1="97.3514" y1="18.375" x2="109.935" y2="114.326" gradientUnits="userSpaceOnUse">
<stop stop-color="white"/>
<stop offset="1" stop-color="white" stop-opacity="0"/>
</linearGradient>
<linearGradient id="paint4_linear_0_70" x1="97.3514" y1="18.375" x2="109.935" y2="114.326" gradientUnits="userSpaceOnUse">
<stop stop-color="white"/>
<stop offset="1" stop-color="white" stop-opacity="0"/>
</linearGradient>
<linearGradient id="paint5_linear_0_70" x1="97.3514" y1="18.375" x2="109.935" y2="114.326" gradientUnits="userSpaceOnUse">
<stop stop-color="white"/>
<stop offset="1" stop-color="white" stop-opacity="0"/>
</linearGradient>
<linearGradient id="paint6_linear_0_70" x1="97.3514" y1="18.375" x2="109.935" y2="114.326" gradientUnits="userSpaceOnUse">
<stop stop-color="white"/>
<stop offset="1" stop-color="white" stop-opacity="0"/>
</linearGradient>
</defs>
</svg>
