<svg preserveAspectRatio="none" width="100%" height="100%" overflow="visible" style="display: block;" viewBox="0 0 98.1178 98.1201" fill="none" xmlns="http://www.w3.org/2000/svg">
<g id="Clip path group">
<mask id="mask0_0_1155" style="mask-type:luminance" maskUnits="userSpaceOnUse" x="0" y="0" width="99" height="99">
<g id="clip-path-dot-color-18">
<path id="Vector" d="M29.7327 2.97512V0.00186741H28.2461C27.8518 0.00186741 27.4737 0.158494 27.1949 0.43729C26.9161 0.716087 26.7595 1.09422 26.7595 1.48849C26.7595 1.88277 26.9161 2.2609 27.1949 2.5397C27.4737 2.81849 27.8518 2.97512 28.2461 2.97512" fill="var(--fill-0, white)"/>
<path id="Vector_2" d="M32.706 0H29.7327V2.97325H32.706V0Z" fill="var(--fill-0, white)"/>
<path id="Vector_3" d="M35.679 0H32.7057V2.97325H35.679V0Z" fill="var(--fill-0, white)"/>
<path id="Vector_4" d="M35.6793 0V2.97325H37.1659C37.5602 2.97325 37.9383 2.81663 38.2171 2.53783C38.4959 2.25903 38.6525 1.8809 38.6525 1.48663C38.6525 1.09235 38.4959 0.714219 38.2171 0.435423C37.9383 0.156626 37.5602 0 37.1659 0" fill="var(--fill-0, white)"/>
<path id="Vector_5" d="M41.6258 2.97512H44.5991V1.48849C44.5991 1.09422 44.4425 0.716085 44.1637 0.437289C43.8849 0.158492 43.5067 0.00186741 43.1125 0.00186741C42.7182 0.00186741 42.34 0.158492 42.0613 0.437289C41.7825 0.716085 41.6258 1.09422 41.6258 1.48849" fill="var(--fill-0, white)"/>
<path id="Vector_6" d="M47.5724 2.97512H50.5456V0.00186741C49.7571 0.00186741 49.0008 0.315118 48.4432 0.87271C47.8856 1.4303 47.5724 2.18656 47.5724 2.97512Z" fill="var(--fill-0, white)"/>
<path id="Vector_7" d="M53.5186 0H50.5454V2.97325H53.5186V0Z" fill="var(--fill-0, white)"/>
<path id="Vector_8" d="M53.5189 0V2.97325H56.4922C56.4922 2.1847 56.1789 1.42844 55.6213 0.870845C55.0637 0.313252 54.3075 0 53.5189 0Z" fill="var(--fill-0, white)"/>
<path id="Vector_9" d="M63.9251 2.97325C64.7461 2.97325 65.4117 2.30767 65.4117 1.48663C65.4117 0.665585 64.7461 0 63.9251 0C63.1041 0 62.4385 0.665585 62.4385 1.48663C62.4385 2.30767 63.1041 2.97325 63.9251 2.97325Z" fill="var(--fill-0, white)"/>
<path id="Vector_10" d="M71.358 2.97512H74.3313V1.48849C74.3313 1.09422 74.1747 0.71609 73.8959 0.437293C73.6171 0.158497 73.2389 0.00186741 72.8447 0.00186741C72.4504 0.00186741 72.0723 0.158497 71.7935 0.437293C71.5147 0.71609 71.358 1.09422 71.358 1.48849" fill="var(--fill-0, white)"/>
<path id="Vector_11" d="M25.2728 5.94837C26.0939 5.94837 26.7594 5.28279 26.7594 4.46175C26.7594 3.6407 26.0939 2.97512 25.2728 2.97512C24.4518 2.97512 23.7862 3.6407 23.7862 4.46175C23.7862 5.28279 24.4518 5.94837 25.2728 5.94837Z" fill="var(--fill-0, white)"/>
<path id="Vector_12" d="M32.7057 2.97512H29.7325V4.46175C29.7325 4.85602 29.8891 5.23415 30.1679 5.51295C30.4467 5.79175 30.8248 5.94837 31.2191 5.94837C31.6134 5.94837 31.9915 5.79175 32.2703 5.51295C32.5491 5.23415 32.7057 4.85602 32.7057 4.46175" fill="var(--fill-0, white)"/>
<path id="Vector_13" d="M44.5988 2.97512H41.6256V4.46175C41.6256 4.85602 41.7822 5.23415 42.061 5.51295C42.3398 5.79175 42.7179 5.94837 43.1122 5.94837C43.5065 5.94837 43.8846 5.79175 44.1634 5.51295C44.4422 5.23415 44.5988 4.85602 44.5988 4.46175" fill="var(--fill-0, white)"/>
<path id="Vector_14" d="M50.5456 2.97512H47.5724V5.94837H50.5456V2.97512Z" fill="var(--fill-0, white)"/>
<path id="Vector_15" d="M56.4919 5.94604V2.97278L53.5187 2.97278C53.5187 3.76134 53.8319 4.5176 54.3895 5.07519C54.9471 5.63278 55.7034 5.94604 56.4919 5.94604Z" fill="var(--fill-0, white)"/>
<path id="Vector_16" d="M59.4652 2.97512H56.4919V5.94837H59.4652V2.97512Z" fill="var(--fill-0, white)"/>
<path id="Vector_17" d="M59.4655 2.97512V5.94837H62.4387C62.4387 5.15982 62.1255 4.40356 61.5679 3.84596C61.0103 3.28837 60.254 2.97512 59.4655 2.97512Z" fill="var(--fill-0, white)"/>
<path id="Vector_18" d="M74.3316 2.97512H71.3583V4.46175C71.3583 4.85602 71.5149 5.23415 71.7937 5.51295C72.0725 5.79174 72.4507 5.94837 72.8449 5.94837C73.2392 5.94837 73.6174 5.79174 73.8962 5.51295C74.1749 5.23415 74.3316 4.85602 74.3316 4.46175" fill="var(--fill-0, white)"/>
<path id="Vector_19" d="M28.2463 8.91929C29.0674 8.91929 29.733 8.2537 29.733 7.43266C29.733 6.61162 29.0674 5.94604 28.2463 5.94604C27.4253 5.94604 26.7597 6.61162 26.7597 7.43266C26.7597 8.2537 27.4253 8.91929 28.2463 8.91929Z" fill="var(--fill-0, white)"/>
<path id="Vector_20" d="M38.6523 8.92116V5.9479H37.1657C36.7714 5.9479 36.3933 6.10453 36.1145 6.38333C35.8357 6.66212 35.679 7.04025 35.679 7.43453C35.679 7.82881 35.8357 8.20694 36.1145 8.48573C36.3933 8.76453 36.7714 8.92116 37.1657 8.92116" fill="var(--fill-0, white)"/>
<path id="Vector_21" d="M38.6523 5.94604V8.91929H41.6255C41.6255 8.13073 41.3123 7.37447 40.7547 6.81688C40.1971 6.25929 39.4408 5.94604 38.6523 5.94604Z" fill="var(--fill-0, white)"/>
<path id="Vector_22" d="M50.5456 5.94604H47.5724V8.91929H50.5456V5.94604Z" fill="var(--fill-0, white)"/>
<path id="Vector_23" d="M59.4655 8.92116V5.9479H56.4922C56.4922 6.73646 56.8055 7.49272 57.3631 8.05031C57.9206 8.6079 58.6769 8.92116 59.4655 8.92116Z" fill="var(--fill-0, white)"/>
<path id="Vector_24" d="M62.4387 5.94604H59.4655V8.91929H62.4387V5.94604Z" fill="var(--fill-0, white)"/>
<path id="Vector_25" d="M65.4117 5.94604H62.4385V8.91929H65.4117V5.94604Z" fill="var(--fill-0, white)"/>
<path id="Vector_26" d="M68.3853 5.94604H65.412V8.91929H68.3853V5.94604Z" fill="var(--fill-0, white)"/>
<path id="Vector_27" d="M68.385 5.94604V8.91929H69.8717C70.2659 8.91929 70.6441 8.76266 70.9229 8.48387C71.2017 8.20507 71.3583 7.82694 71.3583 7.43266C71.3583 7.03838 71.2017 6.66026 70.9229 6.38146C70.6441 6.10266 70.2659 5.94604 69.8717 5.94604" fill="var(--fill-0, white)"/>
<path id="Vector_28" d="M23.7862 11.8921H26.7594V10.4054C26.7594 10.0112 26.6028 9.63304 26.324 9.35424C26.0452 9.07545 25.6671 8.91882 25.2728 8.91882C24.8785 8.91882 24.5004 9.07545 24.2216 9.35424C23.9428 9.63304 23.7862 10.0112 23.7862 10.4054" fill="var(--fill-0, white)"/>
<path id="Vector_29" d="M31.2194 11.8944C32.0404 11.8944 32.706 11.2288 32.706 10.4078C32.706 9.58674 32.0404 8.92116 31.2194 8.92116C30.3983 8.92116 29.7327 9.58674 29.7327 10.4078C29.7327 11.2288 30.3983 11.8944 31.2194 11.8944Z" fill="var(--fill-0, white)"/>
<path id="Vector_30" d="M41.6258 11.8921V8.91882H38.6526C38.6526 9.70738 38.9658 10.4636 39.5234 11.0212C40.081 11.5788 40.8373 11.8921 41.6258 11.8921Z" fill="var(--fill-0, white)"/>
<path id="Vector_31" d="M41.6258 8.92116V11.8944H43.1125C43.5067 11.8944 43.8849 11.7378 44.1637 11.459C44.4425 11.1802 44.5991 10.8021 44.5991 10.4078C44.5991 10.0135 44.4425 9.63538 44.1637 9.35658C43.8849 9.07778 43.5067 8.92116 43.1125 8.92116" fill="var(--fill-0, white)"/>
<path id="Vector_32" d="M50.5456 8.92116H47.5724V11.8944H50.5456V8.92116Z" fill="var(--fill-0, white)"/>
<path id="Vector_33" d="M55.0055 11.8944C55.8266 11.8944 56.4922 11.2288 56.4922 10.4078C56.4922 9.58674 55.8266 8.92116 55.0055 8.92116C54.1845 8.92116 53.5189 9.58674 53.5189 10.4078C53.5189 11.2288 54.1845 11.8944 55.0055 11.8944Z" fill="var(--fill-0, white)"/>
<path id="Vector_34" d="M62.4385 11.8921V8.91882H59.4652C59.4652 9.70738 59.7785 10.4636 60.3361 11.0212C60.8937 11.5788 61.6499 11.8921 62.4385 11.8921Z" fill="var(--fill-0, white)"/>
<path id="Vector_35" d="M65.4117 8.92116H62.4385V11.8944H65.4117V8.92116Z" fill="var(--fill-0, white)"/>
<path id="Vector_36" d="M68.3853 8.92116H65.412V11.8944H68.3853V8.92116Z" fill="var(--fill-0, white)"/>
<path id="Vector_37" d="M26.7597 11.8921H23.7865V13.3787C23.7865 13.773 23.9431 14.1511 24.2219 14.4299C24.5007 14.7087 24.8788 14.8653 25.2731 14.8653C25.6674 14.8653 26.0455 14.7087 26.3243 14.4299C26.6031 14.1511 26.7597 13.773 26.7597 13.3787" fill="var(--fill-0, white)"/>
<path id="Vector_38" d="M35.6793 14.8671V11.8939H34.1926C33.7983 11.8939 33.4202 12.0505 33.1414 12.3293C32.8626 12.6081 32.706 12.9862 32.706 13.3805C32.706 13.7748 32.8626 14.1529 33.1414 14.4317C33.4202 14.7105 33.7983 14.8671 34.1926 14.8671" fill="var(--fill-0, white)"/>
<path id="Vector_39" d="M35.6793 11.8921V14.8653H37.1659C37.5602 14.8653 37.9383 14.7087 38.2171 14.4299C38.4959 14.1511 38.6525 13.773 38.6525 13.3787C38.6525 12.9844 38.4959 12.6063 38.2171 12.3275C37.9383 12.0487 37.5602 11.8921 37.1659 11.8921" fill="var(--fill-0, white)"/>
<path id="Vector_40" d="M47.5723 14.8671V11.8939H46.0856C45.6914 11.8939 45.3132 12.0505 45.0344 12.3293C44.7556 12.6081 44.599 12.9862 44.599 13.3805C44.599 13.7748 44.7556 14.1529 45.0344 14.4317C45.3132 14.7105 45.6914 14.8671 46.0856 14.8671" fill="var(--fill-0, white)"/>
<path id="Vector_41" d="M50.5456 11.8921H47.5724V14.8653H50.5456V11.8921Z" fill="var(--fill-0, white)"/>
<path id="Vector_42" d="M50.5454 11.8921V14.8653H52.032C52.4263 14.8653 52.8044 14.7087 53.0832 14.4299C53.362 14.1511 53.5186 13.773 53.5186 13.3787C53.5186 12.9844 53.362 12.6063 53.0832 12.3275C52.8044 12.0487 52.4263 11.8921 52.032 11.8921" fill="var(--fill-0, white)"/>
<path id="Vector_43" d="M68.3853 11.8921H65.412V14.8653H68.3853V11.8921Z" fill="var(--fill-0, white)"/>
<path id="Vector_44" d="M72.8447 14.8653C73.6657 14.8653 74.3313 14.1997 74.3313 13.3787C74.3313 12.5577 73.6657 11.8921 72.8447 11.8921C72.0236 11.8921 71.358 12.5577 71.358 13.3787C71.358 14.1997 72.0236 14.8653 72.8447 14.8653Z" fill="var(--fill-0, white)"/>
<path id="Vector_45" d="M29.7327 17.8423V14.8691H28.2461C27.8518 14.8691 27.4737 15.0257 27.1949 15.3045C26.9161 15.5833 26.7595 15.9614 26.7595 16.3557C26.7595 16.75 26.9161 17.1281 27.1949 17.4069C27.4737 17.6857 27.8518 17.8423 28.2461 17.8423" fill="var(--fill-0, white)"/>
<path id="Vector_46" d="M29.7327 14.8671V17.8404H32.706C32.706 17.0518 32.3927 16.2956 31.8352 15.738C31.2776 15.1804 30.5213 14.8671 29.7327 14.8671Z" fill="var(--fill-0, white)"/>
<path id="Vector_47" d="M40.1389 17.8404C40.96 17.8404 41.6255 17.1749 41.6255 16.3538C41.6255 15.5328 40.96 14.8672 40.1389 14.8672C39.3179 14.8672 38.6523 15.5328 38.6523 16.3538C38.6523 17.1749 39.3179 17.8404 40.1389 17.8404Z" fill="var(--fill-0, white)"/>
<path id="Vector_48" d="M50.5455 14.8671H47.5723V17.8404H50.5455V14.8671Z" fill="var(--fill-0, white)"/>
<path id="Vector_49" d="M53.5189 17.8423H56.4922V14.8691C55.7036 14.8691 54.9474 15.1823 54.3898 15.7399C53.8322 16.2975 53.5189 17.0538 53.5189 17.8423Z" fill="var(--fill-0, white)"/>
<path id="Vector_50" d="M56.492 14.8671V17.8404H57.9786C58.3729 17.8404 58.751 17.6837 59.0298 17.4049C59.3086 17.1261 59.4653 16.748 59.4653 16.3537C59.4653 15.9595 59.3086 15.5813 59.0298 15.3025C58.751 15.0237 58.3729 14.8671 57.9786 14.8671" fill="var(--fill-0, white)"/>
<path id="Vector_51" d="M68.3853 14.8672H65.412V17.8404H68.3853V14.8672Z" fill="var(--fill-0, white)"/>
<path id="Vector_52" d="M68.385 14.8671V17.8404H69.8716C70.2659 17.8404 70.6441 17.6837 70.9228 17.4049C71.2016 17.1261 71.3583 16.748 71.3583 16.3537C71.3583 15.9595 71.2016 15.5813 70.9228 15.3025C70.6441 15.0237 70.2659 14.8671 69.8716 14.8671" fill="var(--fill-0, white)"/>
<path id="Vector_53" d="M23.7862 20.8132H26.7594V19.3266C26.7594 18.9323 26.6028 18.5542 26.324 18.2754C26.0452 17.9966 25.6671 17.84 25.2728 17.84C24.8785 17.84 24.5004 17.9966 24.2216 18.2754C23.9428 18.5542 23.7862 18.9323 23.7862 19.3266" fill="var(--fill-0, white)"/>
<path id="Vector_54" d="M32.706 17.8423H29.7327V20.8156H32.706V17.8423Z" fill="var(--fill-0, white)"/>
<path id="Vector_55" d="M37.1659 20.8156C37.9869 20.8156 38.6525 20.15 38.6525 19.3289C38.6525 18.5079 37.9869 17.8423 37.1659 17.8423C36.3449 17.8423 35.6793 18.5079 35.6793 19.3289C35.6793 20.15 36.3449 20.8156 37.1659 20.8156Z" fill="var(--fill-0, white)"/>
<path id="Vector_56" d="M43.1125 20.8156C43.9335 20.8156 44.5991 20.15 44.5991 19.3289C44.5991 18.5079 43.9335 17.8423 43.1125 17.8423C42.2914 17.8423 41.6258 18.5079 41.6258 19.3289C41.6258 20.15 42.2914 20.8156 43.1125 20.8156Z" fill="var(--fill-0, white)"/>
<path id="Vector_57" d="M50.5454 17.8423H47.5721V19.3289C47.5721 19.7232 47.7288 20.1013 48.0076 20.3801C48.2863 20.6589 48.6645 20.8156 49.0588 20.8156C49.453 20.8156 49.8312 20.6589 50.11 20.3801C50.3888 20.1013 50.5454 19.7232 50.5454 19.3289" fill="var(--fill-0, white)"/>
<path id="Vector_58" d="M56.4922 17.8423H53.5189V20.8156H56.4922V17.8423Z" fill="var(--fill-0, white)"/>
<path id="Vector_59" d="M60.9521 20.8156C61.7731 20.8156 62.4387 20.15 62.4387 19.3289C62.4387 18.5079 61.7731 17.8423 60.9521 17.8423C60.1311 17.8423 59.4655 18.5079 59.4655 19.3289C59.4655 20.15 60.1311 20.8156 60.9521 20.8156Z" fill="var(--fill-0, white)"/>
<path id="Vector_60" d="M68.385 17.8423H65.4118V19.3289C65.4118 19.7232 65.5684 20.1013 65.8472 20.3801C66.126 20.6589 66.5041 20.8156 66.8984 20.8156C67.2927 20.8156 67.6708 20.6589 67.9496 20.3801C68.2284 20.1013 68.385 19.7232 68.385 19.3289" fill="var(--fill-0, white)"/>
<path id="Vector_61" d="M71.358 20.8132H74.3313V19.3266C74.3313 18.9323 74.1747 18.5542 73.8959 18.2754C73.6171 17.9966 73.2389 17.84 72.8447 17.84C72.4504 17.84 72.0723 17.9966 71.7935 18.2754C71.5147 18.5542 71.358 18.9323 71.358 19.3266" fill="var(--fill-0, white)"/>
<path id="Vector_62" d="M26.7594 20.8132H23.7862V23.7865H26.7594V20.8132Z" fill="var(--fill-0, white)"/>
<path id="Vector_63" d="M29.733 20.8132H26.7597V23.7865H29.733V20.8132Z" fill="var(--fill-0, white)"/>
<path id="Vector_64" d="M32.706 20.8132H29.7327V23.7865H32.706V20.8132Z" fill="var(--fill-0, white)"/>
<path id="Vector_65" d="M44.5988 23.7883H47.5721V22.3017C47.5721 21.9074 47.4155 21.5293 47.1367 21.2505C46.8579 20.9717 46.4797 20.8151 46.0855 20.8151C45.6912 20.8151 45.3131 20.9717 45.0343 21.2505C44.7555 21.5293 44.5988 21.9074 44.5988 22.3017" fill="var(--fill-0, white)"/>
<path id="Vector_66" d="M56.4919 20.8132H53.5187V22.2999C53.5187 22.6941 53.6753 23.0723 53.9541 23.3511C54.2329 23.6299 54.611 23.7865 55.0053 23.7865C55.3996 23.7865 55.7777 23.6299 56.0565 23.3511C56.3353 23.0723 56.4919 22.6941 56.4919 22.2999" fill="var(--fill-0, white)"/>
<path id="Vector_67" d="M68.385 23.7883H71.3583V20.8151C70.5697 20.8151 69.8135 21.1283 69.2559 21.6859C68.6983 22.2435 68.385 22.9998 68.385 23.7883Z" fill="var(--fill-0, white)"/>
<path id="Vector_68" d="M74.3313 20.8132H71.358V23.7865H74.3313V20.8132Z" fill="var(--fill-0, white)"/>
<path id="Vector_69" d="M4.46016 26.7616C5.2812 26.7616 5.94679 26.096 5.94679 25.275C5.94679 24.4539 5.2812 23.7883 4.46016 23.7883C3.63912 23.7883 2.97354 24.4539 2.97354 25.275C2.97354 26.096 3.63912 26.7616 4.46016 26.7616Z" fill="var(--fill-0, white)"/>
<path id="Vector_70" d="M8.92008 26.7593H11.8933V23.786C11.1048 23.786 10.3485 24.0993 9.79093 24.6569C9.23334 25.2145 8.92008 25.9707 8.92008 26.7593Z" fill="var(--fill-0, white)"/>
<path id="Vector_71" d="M14.8663 23.7883H11.8931V26.7616H14.8663V23.7883Z" fill="var(--fill-0, white)"/>
<path id="Vector_72" d="M17.8399 23.7883H14.8666V26.7616H17.8399V23.7883Z" fill="var(--fill-0, white)"/>
<path id="Vector_73" d="M17.8396 23.7883V26.7616H19.3263C19.7205 26.7616 20.0987 26.605 20.3775 26.3262C20.6563 26.0474 20.8129 25.6693 20.8129 25.275C20.8129 24.8807 20.6563 24.5026 20.3775 24.2238C20.0987 23.945 19.7205 23.7883 19.3263 23.7883" fill="var(--fill-0, white)"/>
<path id="Vector_74" d="M26.7594 23.7883H23.7862V26.7616H26.7594V23.7883Z" fill="var(--fill-0, white)"/>
<path id="Vector_75" d="M32.706 23.7883H29.7327V26.7616H32.706V23.7883Z" fill="var(--fill-0, white)"/>
<path id="Vector_76" d="M44.5988 26.7593V23.786H43.1122C42.7179 23.786 42.3398 23.9426 42.061 24.2214C41.7822 24.5002 41.6256 24.8784 41.6256 25.2726C41.6256 25.6669 41.7822 26.045 42.061 26.3238C42.3398 26.6026 42.7179 26.7593 43.1122 26.7593" fill="var(--fill-0, white)"/>
<path id="Vector_77" d="M47.5724 23.7883H44.5991V26.7616C45.3877 26.7616 46.1439 26.4483 46.7015 25.8908C47.2591 25.3332 47.5724 24.5769 47.5724 23.7883Z" fill="var(--fill-0, white)"/>
<path id="Vector_78" d="M50.5454 26.7593H53.5186V25.2726C53.5186 24.8784 53.362 24.5002 53.0832 24.2214C52.8044 23.9426 52.4263 23.786 52.032 23.786C51.6377 23.786 51.2596 23.9426 50.9808 24.2214C50.702 24.5002 50.5454 24.8784 50.5454 25.2726" fill="var(--fill-0, white)"/>
<path id="Vector_79" d="M68.385 26.7593V23.786H66.8984C66.5041 23.786 66.126 23.9426 65.8472 24.2214C65.5684 24.5002 65.4118 24.8784 65.4118 25.2726C65.4118 25.6669 65.5684 26.045 65.8472 26.3238C66.126 26.6026 66.5041 26.7593 66.8984 26.7593" fill="var(--fill-0, white)"/>
<path id="Vector_80" d="M71.3583 23.7883H68.385V26.7616H71.3583V23.7883Z" fill="var(--fill-0, white)"/>
<path id="Vector_81" d="M74.3313 23.7883H71.358V26.7616H74.3313V23.7883Z" fill="var(--fill-0, white)"/>
<path id="Vector_82" d="M77.3048 23.7883H74.3316V26.7616H77.3048V23.7883Z" fill="var(--fill-0, white)"/>
<path id="Vector_83" d="M77.3046 23.7883V26.7616H78.7912C79.1855 26.7616 79.5636 26.605 79.8424 26.3262C80.1212 26.0474 80.2778 25.6693 80.2778 25.275C80.2778 24.8807 80.1212 24.5026 79.8424 24.2238C79.5636 23.945 79.1855 23.7883 78.7912 23.7883" fill="var(--fill-0, white)"/>
<path id="Vector_84" d="M83.2511 26.7593H86.2244V23.786C85.4358 23.786 84.6796 24.0993 84.122 24.6569C83.5644 25.2144 83.2511 25.9707 83.2511 26.7593Z" fill="var(--fill-0, white)"/>
<path id="Vector_85" d="M86.2247 23.7883V26.7616H87.7113C88.1056 26.7616 88.4837 26.605 88.7625 26.3262C89.0413 26.0474 89.1979 25.6693 89.1979 25.275C89.1979 24.8807 89.0413 24.5026 88.7625 24.2238C88.4837 23.945 88.1056 23.7883 87.7113 23.7883" fill="var(--fill-0, white)"/>
<path id="Vector_86" d="M92.1712 26.7593H95.1445V25.2726C95.1445 24.8784 94.9878 24.5002 94.709 24.2214C94.4302 23.9426 94.0521 23.786 93.6578 23.786C93.2636 23.786 92.8854 23.9426 92.6066 24.2214C92.3278 24.5002 92.1712 24.8784 92.1712 25.2726" fill="var(--fill-0, white)"/>
<path id="Vector_87" d="M11.8933 26.7593H8.92008V29.7325H11.8933V26.7593Z" fill="var(--fill-0, white)"/>
<path id="Vector_88" d="M20.8132 29.7344H23.7864V26.7611C22.9979 26.7611 22.2416 27.0744 21.684 27.632C21.1264 28.1896 20.8132 28.9458 20.8132 29.7344Z" fill="var(--fill-0, white)"/>
<path id="Vector_89" d="M26.7594 26.7593H23.7862V29.7325H26.7594V26.7593Z" fill="var(--fill-0, white)"/>
<path id="Vector_90" d="M29.733 26.7593H26.7597V29.7325H29.733V26.7593Z" fill="var(--fill-0, white)"/>
<path id="Vector_91" d="M32.706 26.7593H29.7327V29.7325H32.706V26.7593Z" fill="var(--fill-0, white)"/>
<path id="Vector_92" d="M40.1389 29.7325C40.96 29.7325 41.6255 29.0669 41.6255 28.2459C41.6255 27.4249 40.96 26.7593 40.1389 26.7593C39.3179 26.7593 38.6523 27.4249 38.6523 28.2459C38.6523 29.0669 39.3179 29.7325 40.1389 29.7325Z" fill="var(--fill-0, white)"/>
<path id="Vector_93" d="M53.5189 26.7593H50.5457V28.2459C50.5457 28.6402 50.7023 29.0183 50.9811 29.2971C51.2599 29.5759 51.638 29.7325 52.0323 29.7325C52.4266 29.7325 52.8047 29.5759 53.0835 29.2971C53.3623 29.0183 53.5189 28.6402 53.5189 28.2459" fill="var(--fill-0, white)"/>
<path id="Vector_94" d="M57.9786 29.7325C58.7996 29.7325 59.4652 29.0669 59.4652 28.2459C59.4652 27.4249 58.7996 26.7593 57.9786 26.7593C57.1575 26.7593 56.4919 27.4249 56.4919 28.2459C56.4919 29.0669 57.1575 29.7325 57.9786 29.7325Z" fill="var(--fill-0, white)"/>
<path id="Vector_95" d="M71.3583 26.7593H68.385V29.7325H71.3583V26.7593Z" fill="var(--fill-0, white)"/>
<path id="Vector_96" d="M83.2511 29.7344V26.7611H81.7645C81.3702 26.7611 80.9921 26.9178 80.7133 27.1966C80.4345 27.4754 80.2779 27.8535 80.2779 28.2478C80.2779 28.642 80.4345 29.0202 80.7133 29.299C80.9921 29.5778 81.3702 29.7344 81.7645 29.7344" fill="var(--fill-0, white)"/>
<path id="Vector_97" d="M86.2247 26.7593H83.2514V29.7325C84.04 29.7325 84.7962 29.4193 85.3538 28.8617C85.9114 28.3041 86.2247 27.5478 86.2247 26.7593Z" fill="var(--fill-0, white)"/>
<path id="Vector_98" d="M95.1442 26.7593H92.171V28.2459C92.171 28.6402 92.3276 29.0183 92.6064 29.2971C92.8852 29.5759 93.2633 29.7325 93.6576 29.7325C94.0519 29.7325 94.43 29.5759 94.7088 29.2971C94.9876 29.0183 95.1442 28.6402 95.1442 28.2459" fill="var(--fill-0, white)"/>
<path id="Vector_99" d="M11.8933 29.7344H8.92008V32.7076H11.8933V29.7344Z" fill="var(--fill-0, white)"/>
<path id="Vector_100" d="M11.8931 29.7344V32.7076H13.3797C13.774 32.7076 14.1521 32.551 14.4309 32.2722C14.7097 31.9934 14.8663 31.6153 14.8663 31.221C14.8663 30.8267 14.7097 30.4486 14.4309 30.1698C14.1521 29.891 13.774 29.7344 13.3797 29.7344" fill="var(--fill-0, white)"/>
<path id="Vector_101" d="M20.8132 32.7053V29.732H19.3266C18.9323 29.732 18.5541 29.8887 18.2753 30.1675C17.9966 30.4463 17.8399 30.8244 17.8399 31.2187C17.8399 31.613 17.9966 31.9911 18.2753 32.2699C18.5541 32.5487 18.9323 32.7053 19.3266 32.7053" fill="var(--fill-0, white)"/>
<path id="Vector_102" d="M23.7864 29.7344H20.8132V32.7076H23.7864V29.7344Z" fill="var(--fill-0, white)"/>
<path id="Vector_103" d="M26.7594 29.7344H23.7862V32.7076H26.7594V29.7344Z" fill="var(--fill-0, white)"/>
<path id="Vector_104" d="M32.706 29.7344H29.7327V32.7076H32.706V29.7344Z" fill="var(--fill-0, white)"/>
<path id="Vector_105" d="M32.7057 29.7344V32.7076H35.679C35.679 31.9191 35.3657 31.1628 34.8082 30.6052C34.2506 30.0476 33.4943 29.7344 32.7057 29.7344Z" fill="var(--fill-0, white)"/>
<path id="Vector_106" d="M47.5724 32.7053H50.5456V31.2187C50.5456 30.8244 50.389 30.4463 50.1102 30.1675C49.8314 29.8887 49.4533 29.732 49.059 29.732C48.6647 29.732 48.2866 29.8887 48.0078 30.1675C47.729 30.4463 47.5724 30.8244 47.5724 31.2187" fill="var(--fill-0, white)"/>
<path id="Vector_107" d="M59.4655 32.7053H62.4387V31.2187C62.4387 30.8244 62.2821 30.4463 62.0033 30.1675C61.7245 29.8887 61.3464 29.732 60.9521 29.732C60.5578 29.732 60.1797 29.8887 59.9009 30.1675C59.6221 30.4463 59.4655 30.8244 59.4655 31.2187" fill="var(--fill-0, white)"/>
<path id="Vector_108" d="M71.358 32.7053V29.732H68.3848C68.3848 30.5206 68.698 31.2769 69.2556 31.8345C69.8132 32.392 70.5695 32.7053 71.358 32.7053Z" fill="var(--fill-0, white)"/>
<path id="Vector_109" d="M74.3313 29.7344H71.358V32.7076H74.3313V29.7344Z" fill="var(--fill-0, white)"/>
<path id="Vector_110" d="M77.3048 29.7344H74.3316V32.7076H77.3048V29.7344Z" fill="var(--fill-0, white)"/>
<path id="Vector_111" d="M77.3046 29.7344V32.7076H78.7912C79.1855 32.7076 79.5636 32.551 79.8424 32.2722C80.1212 31.9934 80.2778 31.6153 80.2778 31.221C80.2778 30.8267 80.1212 30.4486 79.8424 30.1698C79.5636 29.891 79.1855 29.7344 78.7912 29.7344" fill="var(--fill-0, white)"/>
<path id="Vector_112" d="M86.2247 32.7053H89.1979V29.732C88.4094 29.732 87.6531 30.0453 87.0955 30.6029C86.5379 31.1605 86.2247 31.9167 86.2247 32.7053Z" fill="var(--fill-0, white)"/>
<path id="Vector_113" d="M89.1977 29.7344V32.7076H92.1709C92.1709 31.9191 91.8577 31.1628 91.3001 30.6052C90.7425 30.0476 89.9862 29.7344 89.1977 29.7344Z" fill="var(--fill-0, white)"/>
<path id="Vector_114" d="M96.6308 32.7076C97.4519 32.7076 98.1175 32.0421 98.1175 31.221C98.1175 30.4 97.4519 29.7344 96.6308 29.7344C95.8098 29.7344 95.1442 30.4 95.1442 31.221C95.1442 32.0421 95.8098 32.7076 96.6308 32.7076Z" fill="var(--fill-0, white)"/>
<path id="Vector_115" d="M8.92008 35.6804V32.7072H7.43346C7.03918 32.7072 6.66105 32.8638 6.38225 33.1426C6.10346 33.4214 5.94683 33.7995 5.94683 34.1938C5.94683 34.5881 6.10346 34.9662 6.38225 35.245C6.66105 35.5238 7.03918 35.6804 7.43346 35.6804" fill="var(--fill-0, white)"/>
<path id="Vector_116" d="M11.8933 32.7053H8.92008V35.6786H11.8933V32.7053Z" fill="var(--fill-0, white)"/>
<path id="Vector_117" d="M26.7594 32.7053H23.7862V35.6786H26.7594V32.7053Z" fill="var(--fill-0, white)"/>
<path id="Vector_118" d="M29.733 32.7053H26.7597V35.6786H29.733V32.7053Z" fill="var(--fill-0, white)"/>
<path id="Vector_119" d="M32.706 32.7053H29.7327V35.6786H32.706V32.7053Z" fill="var(--fill-0, white)"/>
<path id="Vector_120" d="M35.6793 32.7053H32.706V35.6786C33.4946 35.6786 34.2508 35.3653 34.8084 34.8077C35.366 34.2501 35.6793 33.4939 35.6793 32.7053Z" fill="var(--fill-0, white)"/>
<path id="Vector_121" d="M44.5988 35.6804V32.7072H43.1122C42.7179 32.7072 42.3398 32.8638 42.061 33.1426C41.7822 33.4214 41.6256 33.7995 41.6256 34.1938C41.6256 34.5881 41.7822 34.9662 42.061 35.245C42.3398 35.5238 42.7179 35.6804 43.1122 35.6804" fill="var(--fill-0, white)"/>
<path id="Vector_122" d="M47.5721 32.7053H44.5988V35.6786H47.5721V32.7053Z" fill="var(--fill-0, white)"/>
<path id="Vector_123" d="M50.5454 32.7053H47.5721V35.6786C48.3607 35.6786 49.1169 35.3653 49.6745 34.8077C50.2321 34.2501 50.5454 33.4939 50.5454 32.7053Z" fill="var(--fill-0, white)"/>
<path id="Vector_124" d="M56.4919 35.6804V32.7072H55.0053C54.611 32.7072 54.2329 32.8638 53.9541 33.1426C53.6753 33.4214 53.5187 33.7995 53.5187 34.1938C53.5187 34.5881 53.6753 34.9662 53.9541 35.245C54.2329 35.5238 54.611 35.6804 55.0053 35.6804" fill="var(--fill-0, white)"/>
<path id="Vector_125" d="M59.4652 32.7053H56.4919V35.6786H59.4652V32.7053Z" fill="var(--fill-0, white)"/>
<path id="Vector_126" d="M62.4387 32.7053H59.4655V35.6786H62.4387V32.7053Z" fill="var(--fill-0, white)"/>
<path id="Vector_127" d="M74.3313 32.7053H71.358V35.6786H74.3313V32.7053Z" fill="var(--fill-0, white)"/>
<path id="Vector_128" d="M80.2781 35.6804H83.2514V32.7072C82.4628 32.7072 81.7066 33.0204 81.149 33.578C80.5914 34.1356 80.2781 34.8919 80.2781 35.6804Z" fill="var(--fill-0, white)"/>
<path id="Vector_129" d="M86.2244 32.7053H83.2511V35.6786H86.2244V32.7053Z" fill="var(--fill-0, white)"/>
<path id="Vector_130" d="M89.1979 32.7053H86.2247V35.6786H89.1979V32.7053Z" fill="var(--fill-0, white)"/>
<path id="Vector_131" d="M92.1709 32.7053H89.1977V35.6786H92.1709V32.7053Z" fill="var(--fill-0, white)"/>
<path id="Vector_132" d="M92.1712 32.7053V35.6786H95.1445C95.1445 34.89 94.8312 34.1337 94.2736 33.5761C93.716 33.0186 92.9598 32.7053 92.1712 32.7053Z" fill="var(--fill-0, white)"/>
<path id="Vector_133" d="M4.46016 38.6537C5.2812 38.6537 5.94679 37.9881 5.94679 37.167C5.94679 36.346 5.2812 35.6804 4.46016 35.6804C3.63912 35.6804 2.97354 36.346 2.97354 37.167C2.97354 37.9881 3.63912 38.6537 4.46016 38.6537Z" fill="var(--fill-0, white)"/>
<path id="Vector_134" d="M11.8931 35.6804H8.91984V37.167C8.91984 37.5613 9.07647 37.9395 9.35526 38.2182C9.63406 38.497 10.0122 38.6537 10.4065 38.6537C10.8007 38.6537 11.1789 38.497 11.4577 38.2182C11.7365 37.9395 11.8931 37.5613 11.8931 37.167" fill="var(--fill-0, white)"/>
<path id="Vector_135" d="M14.8666 38.6513H17.8399V35.6781C17.0513 35.6781 16.2951 35.9913 15.7375 36.5489C15.1799 37.1065 14.8666 37.8628 14.8666 38.6513Z" fill="var(--fill-0, white)"/>
<path id="Vector_136" d="M20.8129 35.6804H17.8396V38.6537H20.8129V35.6804Z" fill="var(--fill-0, white)"/>
<path id="Vector_137" d="M23.7864 35.6804H20.8132V38.6537H23.7864V35.6804Z" fill="var(--fill-0, white)"/>
<path id="Vector_138" d="M26.7597 35.6804H23.7865V38.6537C24.575 38.6537 25.3313 38.3404 25.8889 37.7828C26.4465 37.2252 26.7597 36.469 26.7597 35.6804Z" fill="var(--fill-0, white)"/>
<path id="Vector_139" d="M35.6793 38.6513H38.6525V37.1647C38.6525 36.7704 38.4959 36.3923 38.2171 36.1135C37.9383 35.8347 37.5602 35.6781 37.1659 35.6781C36.7716 35.6781 36.3935 35.8347 36.1147 36.1135C35.8359 36.3923 35.6793 36.7704 35.6793 37.1647" fill="var(--fill-0, white)"/>
<path id="Vector_140" d="M47.5724 35.6804H44.5991V37.167C44.5991 37.5613 44.7557 37.9395 45.0345 38.2183C45.3133 38.497 45.6915 38.6537 46.0857 38.6537C46.48 38.6537 46.8582 38.497 47.137 38.2183C47.4157 37.9395 47.5724 37.5613 47.5724 37.167" fill="var(--fill-0, white)"/>
<path id="Vector_141" d="M50.5454 38.6513H53.5186V37.1647C53.5186 36.7704 53.362 36.3923 53.0832 36.1135C52.8044 35.8347 52.4263 35.6781 52.032 35.6781C51.6377 35.6781 51.2596 35.8347 50.9808 36.1135C50.702 36.3923 50.5454 36.7704 50.5454 37.1647" fill="var(--fill-0, white)"/>
<path id="Vector_142" d="M59.4652 35.6804H56.4919V38.6537H59.4652V35.6804Z" fill="var(--fill-0, white)"/>
<path id="Vector_143" d="M62.4387 35.6804H59.4655V38.6537H62.4387V35.6804Z" fill="var(--fill-0, white)"/>
<path id="Vector_144" d="M74.3316 35.6804H71.3583V37.167C71.3583 37.5613 71.5149 37.9394 71.7937 38.2182C72.0725 38.497 72.4507 38.6537 72.8449 38.6537C73.2392 38.6537 73.6174 38.497 73.8962 38.2182C74.1749 37.9394 74.3316 37.5613 74.3316 37.167" fill="var(--fill-0, white)"/>
<path id="Vector_145" d="M80.2781 38.6513V35.6781H78.7915C78.3972 35.6781 78.0191 35.8347 77.7403 36.1135C77.4615 36.3923 77.3049 36.7704 77.3049 37.1647C77.3049 37.559 77.4615 37.9371 77.7403 38.2159C78.0191 38.4947 78.3972 38.6513 78.7915 38.6513" fill="var(--fill-0, white)"/>
<path id="Vector_146" d="M83.2514 35.6804H80.2781V38.6537H83.2514V35.6804Z" fill="var(--fill-0, white)"/>
<path id="Vector_147" d="M95.1442 35.6804H92.171V37.167C92.171 37.5613 92.3276 37.9394 92.6064 38.2182C92.8852 38.497 93.2633 38.6537 93.6576 38.6537C94.0519 38.6537 94.43 38.497 94.7088 38.2182C94.9876 37.9394 95.1442 37.5613 95.1442 37.167" fill="var(--fill-0, white)"/>
<path id="Vector_148" d="M0 41.6265H2.97325V40.1398C2.97325 39.7456 2.81663 39.3674 2.53783 39.0886C2.25903 38.8098 1.8809 38.6532 1.48663 38.6532C1.09235 38.6532 0.714218 38.8098 0.435422 39.0886C0.156625 39.3674 0 39.7456 0 40.1398" fill="var(--fill-0, white)"/>
<path id="Vector_149" d="M17.8399 38.6513H14.8666V41.6246H17.8399V38.6513Z" fill="var(--fill-0, white)"/>
<path id="Vector_150" d="M23.7864 38.6513H20.8132V41.6246H23.7864V38.6513Z" fill="var(--fill-0, white)"/>
<path id="Vector_151" d="M26.7597 41.6265H29.733V38.6532C28.9444 38.6532 28.1882 38.9665 27.6306 39.5241C27.073 40.0816 26.7597 40.8379 26.7597 41.6265Z" fill="var(--fill-0, white)"/>
<path id="Vector_152" d="M29.7327 38.6513V41.6246H32.706C32.706 40.836 32.3927 40.0798 31.8351 39.5222C31.2775 38.9646 30.5213 38.6513 29.7327 38.6513Z" fill="var(--fill-0, white)"/>
<path id="Vector_153" d="M38.6523 38.6513H35.679V40.138C35.679 40.5322 35.8357 40.9104 36.1145 41.1892C36.3933 41.468 36.7714 41.6246 37.1657 41.6246C37.5599 41.6246 37.9381 41.468 38.2169 41.1892C38.4957 40.9104 38.6523 40.5322 38.6523 40.138" fill="var(--fill-0, white)"/>
<path id="Vector_154" d="M53.5189 41.6265V38.6532H50.5457C50.5457 39.4418 50.8589 40.198 51.4165 40.7556C51.9741 41.3132 52.7304 41.6265 53.5189 41.6265Z" fill="var(--fill-0, white)"/>
<path id="Vector_155" d="M56.4922 38.6513H53.5189V41.6246H56.4922V38.6513Z" fill="var(--fill-0, white)"/>
<path id="Vector_156" d="M59.4652 38.6513H56.4919V41.6246H59.4652V38.6513Z" fill="var(--fill-0, white)"/>
<path id="Vector_157" d="M62.4385 38.6513H59.4652V41.6246C60.2538 41.6246 61.01 41.3113 61.5676 40.7537C62.1252 40.1962 62.4385 39.4399 62.4385 38.6513Z" fill="var(--fill-0, white)"/>
<path id="Vector_158" d="M69.8717 41.6246C70.6927 41.6246 71.3583 40.959 71.3583 40.138C71.3583 39.3169 70.6927 38.6513 69.8717 38.6513C69.0506 38.6513 68.385 39.3169 68.385 40.138C68.385 40.959 69.0506 41.6246 69.8717 41.6246Z" fill="var(--fill-0, white)"/>
<path id="Vector_159" d="M75.8182 41.6246C76.6392 41.6246 77.3048 40.959 77.3048 40.138C77.3048 39.3169 76.6392 38.6513 75.8182 38.6513C74.9972 38.6513 74.3316 39.3169 74.3316 40.138C74.3316 40.959 74.9972 41.6246 75.8182 41.6246Z" fill="var(--fill-0, white)"/>
<path id="Vector_160" d="M83.2514 38.6513H80.2781V41.6246H83.2514V38.6513Z" fill="var(--fill-0, white)"/>
<path id="Vector_161" d="M89.1978 41.6264V38.6531H87.7112C87.3169 38.6531 86.9388 38.8098 86.66 39.0885C86.3812 39.3673 86.2245 39.7455 86.2245 40.1398C86.2245 40.534 86.3812 40.9122 86.66 41.191C86.9388 41.4698 87.3169 41.6264 87.7112 41.6264" fill="var(--fill-0, white)"/>
<path id="Vector_162" d="M89.1977 38.6513V41.6246H92.1709C92.1709 40.836 91.8577 40.0798 91.3001 39.5222C90.7425 38.9646 89.9862 38.6513 89.1977 38.6513Z" fill="var(--fill-0, white)"/>
<path id="Vector_163" d="M2.97325 41.6265H0V44.5997H2.97325V41.6265Z" fill="var(--fill-0, white)"/>
<path id="Vector_164" d="M2.97348 41.6264V44.5996H4.46011C4.85439 44.5996 5.23252 44.443 5.51131 44.1642C5.79011 43.8854 5.94673 43.5073 5.94673 43.113C5.94673 42.7187 5.79011 42.3406 5.51131 42.0618C5.23252 41.783 4.85439 41.6264 4.46011 41.6264" fill="var(--fill-0, white)"/>
<path id="Vector_165" d="M8.92008 44.6016H11.8933V43.115C11.8933 42.7207 11.7367 42.3425 11.4579 42.0637C11.1791 41.785 10.801 41.6283 10.4067 41.6283C10.0124 41.6283 9.6343 41.785 9.35551 42.0637C9.07671 42.3425 8.92008 42.7207 8.92008 43.115" fill="var(--fill-0, white)"/>
<path id="Vector_166" d="M17.8399 41.6265H14.8666V44.5997H17.8399V41.6265Z" fill="var(--fill-0, white)"/>
<path id="Vector_167" d="M20.813 41.6264H17.8397V44.5996H20.813V41.6264Z" fill="var(--fill-0, white)"/>
<path id="Vector_168" d="M23.7864 41.6265H20.8132V44.5997H23.7864V41.6265Z" fill="var(--fill-0, white)"/>
<path id="Vector_169" d="M26.7595 41.6264H23.7862V44.5996H26.7595V41.6264Z" fill="var(--fill-0, white)"/>
<path id="Vector_170" d="M29.733 41.6265H26.7597V44.5997H29.733V41.6265Z" fill="var(--fill-0, white)"/>
<path id="Vector_171" d="M32.706 41.6264H29.7327V44.5996H32.706V41.6264Z" fill="var(--fill-0, white)"/>
<path id="Vector_172" d="M44.5988 44.6016H47.5721V43.115C47.5721 42.7207 47.4155 42.3425 47.1367 42.0637C46.8579 41.785 46.4797 41.6283 46.0855 41.6283C45.6912 41.6283 45.3131 41.785 45.0343 42.0637C44.7555 42.3425 44.5988 42.7207 44.5988 43.115" fill="var(--fill-0, white)"/>
<path id="Vector_173" d="M59.4653 41.6264H56.492V44.5996H59.4653V41.6264Z" fill="var(--fill-0, white)"/>
<path id="Vector_174" d="M63.9251 44.5996C64.7462 44.5996 65.4118 43.934 65.4118 43.113C65.4118 42.292 64.7462 41.6264 63.9251 41.6264C63.1041 41.6264 62.4385 42.292 62.4385 43.113C62.4385 43.934 63.1041 44.5996 63.9251 44.5996Z" fill="var(--fill-0, white)"/>
<path id="Vector_175" d="M83.2511 41.6265H80.2779V43.1131C80.2779 43.5074 80.4345 43.8855 80.7133 44.1643C80.9921 44.4431 81.3702 44.5997 81.7645 44.5997C82.1588 44.5997 82.5369 44.4431 82.8157 44.1643C83.0945 43.8855 83.2511 43.5074 83.2511 43.1131" fill="var(--fill-0, white)"/>
<path id="Vector_176" d="M92.171 41.6264H89.1978V44.5996H92.171V41.6264Z" fill="var(--fill-0, white)"/>
<path id="Vector_177" d="M2.97354 44.6016H0.000284076V46.0882C0.000284076 46.4825 0.156909 46.8606 0.435706 47.1394C0.714502 47.4182 1.09263 47.5748 1.48691 47.5748C1.88119 47.5748 2.25932 47.4182 2.53811 47.1394C2.81691 46.8606 2.97354 46.4825 2.97354 46.0882" fill="var(--fill-0, white)"/>
<path id="Vector_178" d="M8.92008 47.5725V44.5992H7.43346C7.03918 44.5992 6.66105 44.7559 6.38225 45.0347C6.10346 45.3135 5.94683 45.6916 5.94683 46.0859C5.94683 46.4801 6.10346 46.8583 6.38225 47.1371C6.66105 47.4159 7.03918 47.5725 7.43346 47.5725" fill="var(--fill-0, white)"/>
<path id="Vector_179" d="M11.8933 44.6016H8.92008V47.5748H11.8933V44.6016Z" fill="var(--fill-0, white)"/>
<path id="Vector_180" d="M14.8663 44.6016H11.8931V47.5748H14.8663V44.6016Z" fill="var(--fill-0, white)"/>
<path id="Vector_181" d="M17.8396 44.6016H14.8664V47.5748C15.6549 47.5748 16.4112 47.2616 16.9688 46.704C17.5264 46.1464 17.8396 45.3901 17.8396 44.6016Z" fill="var(--fill-0, white)"/>
<path id="Vector_182" d="M32.706 44.6016H29.7327V47.5748H32.706V44.6016Z" fill="var(--fill-0, white)"/>
<path id="Vector_183" d="M38.6523 47.5725H41.6255V44.5992C40.837 44.5992 40.0807 44.9125 39.5231 45.4701C38.9655 46.0277 38.6523 46.7839 38.6523 47.5725Z" fill="var(--fill-0, white)"/>
<path id="Vector_184" d="M44.5991 44.6016H41.6258V47.5748H44.5991V44.6016Z" fill="var(--fill-0, white)"/>
<path id="Vector_185" d="M47.5721 44.6016H44.5988V47.5748H47.5721V44.6016Z" fill="var(--fill-0, white)"/>
<path id="Vector_186" d="M47.5724 44.6016V47.5748H49.059C49.4533 47.5748 49.8314 47.4182 50.1102 47.1394C50.389 46.8606 50.5456 46.4825 50.5456 46.0882C50.5456 45.6939 50.389 45.3158 50.1102 45.037C49.8314 44.7582 49.4533 44.6016 49.059 44.6016" fill="var(--fill-0, white)"/>
<path id="Vector_187" d="M59.4652 44.6016H56.4919V47.5748H59.4652V44.6016Z" fill="var(--fill-0, white)"/>
<path id="Vector_188" d="M59.4655 44.6016V47.5748H60.9521C61.3464 47.5748 61.7245 47.4182 62.0033 47.1394C62.2821 46.8606 62.4387 46.4825 62.4387 46.0882C62.4387 45.6939 62.2821 45.3158 62.0033 45.037C61.7245 44.7582 61.3464 44.6016 60.9521 44.6016" fill="var(--fill-0, white)"/>
<path id="Vector_189" d="M65.412 47.5725H68.3853V44.5992C67.5967 44.5992 66.8404 44.9125 66.2829 45.4701C65.7253 46.0277 65.412 46.7839 65.412 47.5725Z" fill="var(--fill-0, white)"/>
<path id="Vector_190" d="M71.3583 44.6016H68.385V47.5748H71.3583V44.6016Z" fill="var(--fill-0, white)"/>
<path id="Vector_191" d="M74.3313 44.6016H71.358V47.5748H74.3313V44.6016Z" fill="var(--fill-0, white)"/>
<path id="Vector_192" d="M74.3316 44.6016V47.5748H77.3048C77.3048 46.7863 76.9916 46.03 76.434 45.4724C75.8764 44.9148 75.1201 44.6016 74.3316 44.6016Z" fill="var(--fill-0, white)"/>
<path id="Vector_193" d="M83.2511 47.5725H86.2244V46.0859C86.2244 45.6916 86.0678 45.3135 85.789 45.0347C85.5102 44.7559 85.132 44.5992 84.7378 44.5992C84.3435 44.5992 83.9653 44.7559 83.6866 45.0347C83.4078 45.3135 83.2511 45.6916 83.2511 46.0859" fill="var(--fill-0, white)"/>
<path id="Vector_194" d="M92.1712 44.6016H89.198V46.0882C89.198 46.4825 89.3546 46.8606 89.6334 47.1394C89.9122 47.4182 90.2903 47.5748 90.6846 47.5748C91.0789 47.5748 91.457 47.4182 91.7358 47.1394C92.0146 46.8606 92.1712 46.4825 92.1712 46.0882" fill="var(--fill-0, white)"/>
<path id="Vector_195" d="M95.1442 47.5725H98.1175V46.0859C98.1175 45.6916 97.9608 45.3135 97.682 45.0347C97.4033 44.7559 97.0251 44.5992 96.6308 44.5992C96.2366 44.5992 95.8584 44.7559 95.5796 45.0347C95.3008 45.3135 95.1442 45.6916 95.1442 46.0859" fill="var(--fill-0, white)"/>
<path id="Vector_196" d="M2.97354 50.5476H5.94679V49.061C5.94679 48.6667 5.79016 48.2886 5.51137 48.0098C5.23257 47.731 4.85444 47.5744 4.46016 47.5744C4.06588 47.5744 3.68775 47.731 3.40896 48.0098C3.13016 48.2886 2.97354 48.6667 2.97354 49.061" fill="var(--fill-0, white)"/>
<path id="Vector_197" d="M11.8933 47.5725H8.92008V50.5457H11.8933V47.5725Z" fill="var(--fill-0, white)"/>
<path id="Vector_198" d="M19.3263 50.5457C20.1473 50.5457 20.8129 49.8802 20.8129 49.0591C20.8129 48.2381 20.1473 47.5725 19.3263 47.5725C18.5052 47.5725 17.8396 48.2381 17.8396 49.0591C17.8396 49.8802 18.5052 50.5457 19.3263 50.5457Z" fill="var(--fill-0, white)"/>
<path id="Vector_199" d="M23.7862 50.5476H26.7594V47.5744C25.9709 47.5744 25.2146 47.8876 24.657 48.4452C24.0994 49.0028 23.7862 49.7591 23.7862 50.5476Z" fill="var(--fill-0, white)"/>
<path id="Vector_200" d="M29.733 47.5725H26.7597V50.5457H29.733V47.5725Z" fill="var(--fill-0, white)"/>
<path id="Vector_201" d="M32.7057 47.5725H29.7325V50.5457C30.521 50.5457 31.2773 50.2325 31.8349 49.6749C32.3925 49.1173 32.7057 48.361 32.7057 47.5725Z" fill="var(--fill-0, white)"/>
<path id="Vector_202" d="M38.6523 50.5476V47.5744H37.1657C36.7714 47.5744 36.3933 47.731 36.1145 48.0098C35.8357 48.2886 35.679 48.6667 35.679 49.061C35.679 49.4553 35.8357 49.8334 36.1145 50.1122C36.3933 50.391 36.7714 50.5476 37.1657 50.5476" fill="var(--fill-0, white)"/>
<path id="Vector_203" d="M41.6255 47.5725H38.6523V50.5457H41.6255V47.5725Z" fill="var(--fill-0, white)"/>
<path id="Vector_204" d="M44.5988 47.5725H41.6256V50.5457C42.016 50.5457 42.4027 50.4688 42.7634 50.3194C43.1241 50.17 43.4519 49.951 43.728 49.6749C44.0041 49.3988 44.2231 49.071 44.3725 48.7103C44.5219 48.3496 44.5988 47.9629 44.5988 47.5725Z" fill="var(--fill-0, white)"/>
<path id="Vector_205" d="M56.4919 50.5476V47.5744H55.0053C54.611 47.5744 54.2329 47.731 53.9541 48.0098C53.6753 48.2886 53.5187 48.6667 53.5187 49.061C53.5187 49.4553 53.6753 49.8334 53.9541 50.1122C54.2329 50.391 54.611 50.5476 55.0053 50.5476" fill="var(--fill-0, white)"/>
<path id="Vector_206" d="M59.4652 47.5725H56.4919V50.5457H59.4652V47.5725Z" fill="var(--fill-0, white)"/>
<path id="Vector_207" d="M68.3853 47.5725H65.412V50.5457H68.3853V47.5725Z" fill="var(--fill-0, white)"/>
<path id="Vector_208" d="M71.3583 47.5725H68.385V50.5457H71.3583V47.5725Z" fill="var(--fill-0, white)"/>
<path id="Vector_209" d="M74.3313 47.5725H71.358V50.5457H74.3313V47.5725Z" fill="var(--fill-0, white)"/>
<path id="Vector_210" d="M77.3048 47.5725H74.3316V50.5457H77.3048V47.5725Z" fill="var(--fill-0, white)"/>
<path id="Vector_211" d="M77.3046 47.5725V50.5457H80.2778C80.2778 49.7572 79.9646 49.0009 79.407 48.4433C78.8494 47.8857 78.0931 47.5725 77.3046 47.5725Z" fill="var(--fill-0, white)"/>
<path id="Vector_212" d="M86.2244 47.5725H83.2511V50.5457H86.2244V47.5725Z" fill="var(--fill-0, white)"/>
<path id="Vector_213" d="M98.1175 47.5725H95.1442V50.5457H98.1175V47.5725Z" fill="var(--fill-0, white)"/>
<path id="Vector_214" d="M5.94679 50.5476H2.97354V53.5209H5.94679V50.5476Z" fill="var(--fill-0, white)"/>
<path id="Vector_215" d="M8.9198 50.5476H5.94655V53.5209H8.9198V50.5476Z" fill="var(--fill-0, white)"/>
<path id="Vector_216" d="M11.8931 50.5476H8.91984V53.5209C9.7084 53.5209 10.4647 53.2076 11.0223 52.65C11.5798 52.0924 11.8931 51.3362 11.8931 50.5476Z" fill="var(--fill-0, white)"/>
<path id="Vector_217" d="M16.3533 53.5209C17.1743 53.5209 17.8399 52.8553 17.8399 52.0342C17.8399 51.2132 17.1743 50.5476 16.3533 50.5476C15.5322 50.5476 14.8666 51.2132 14.8666 52.0342C14.8666 52.8553 15.5322 53.5209 16.3533 53.5209Z" fill="var(--fill-0, white)"/>
<path id="Vector_218" d="M20.8132 53.5185H23.7864V50.5453C22.9979 50.5453 22.2416 50.8585 21.684 51.4161C21.1264 51.9737 20.8132 52.73 20.8132 53.5185Z" fill="var(--fill-0, white)"/>
<path id="Vector_219" d="M26.7594 50.5476H23.7862V53.5209H26.7594V50.5476Z" fill="var(--fill-0, white)"/>
<path id="Vector_220" d="M29.733 50.5476H26.7597V53.5209H29.733V50.5476Z" fill="var(--fill-0, white)"/>
<path id="Vector_221" d="M41.6258 50.5476H38.6526V52.0342C38.6526 52.4285 38.8092 52.8066 39.088 53.0854C39.3668 53.3642 39.7449 53.5209 40.1392 53.5209C40.5335 53.5209 40.9116 53.3642 41.1904 53.0854C41.4692 52.8066 41.6258 52.4285 41.6258 52.0342" fill="var(--fill-0, white)"/>
<path id="Vector_222" d="M44.5988 53.5185H47.5721V50.5453C46.7835 50.5453 46.0273 50.8585 45.4697 51.4161C44.9121 51.9737 44.5988 52.73 44.5988 53.5185Z" fill="var(--fill-0, white)"/>
<path id="Vector_223" d="M47.5724 50.5476V53.5209H50.5456C50.5456 52.7323 50.2324 51.976 49.6748 51.4185C49.1172 50.8609 48.3609 50.5476 47.5724 50.5476Z" fill="var(--fill-0, white)"/>
<path id="Vector_224" d="M59.4652 50.5476H56.4919V53.5209H59.4652V50.5476Z" fill="var(--fill-0, white)"/>
<path id="Vector_225" d="M62.4387 50.5476H59.4655V53.5209H62.4387V50.5476Z" fill="var(--fill-0, white)"/>
<path id="Vector_226" d="M65.4117 50.5476H62.4385V53.5209H65.4117V50.5476Z" fill="var(--fill-0, white)"/>
<path id="Vector_227" d="M68.385 50.5476H65.4118V53.5209C66.2003 53.5209 66.9566 53.2076 67.5142 52.65C68.0718 52.0924 68.385 51.3362 68.385 50.5476Z" fill="var(--fill-0, white)"/>
<path id="Vector_228" d="M80.2781 53.5185V50.5453H77.3049C77.3049 51.3338 77.6181 52.0901 78.1757 52.6477C78.7333 53.2053 79.4896 53.5185 80.2781 53.5185Z" fill="var(--fill-0, white)"/>
<path id="Vector_229" d="M83.2514 50.5476H80.2781V53.5209H83.2514V50.5476Z" fill="var(--fill-0, white)"/>
<path id="Vector_230" d="M86.2244 50.5476H83.2511V53.5209H86.2244V50.5476Z" fill="var(--fill-0, white)"/>
<path id="Vector_231" d="M89.1979 50.5476H86.2247V53.5209H89.1979V50.5476Z" fill="var(--fill-0, white)"/>
<path id="Vector_232" d="M92.1709 50.5476H89.1977V53.5209H92.1709V50.5476Z" fill="var(--fill-0, white)"/>
<path id="Vector_233" d="M95.1445 50.5476H92.1712V53.5209H95.1445V50.5476Z" fill="var(--fill-0, white)"/>
<path id="Vector_234" d="M98.1175 50.5476H95.1442V53.5209H98.1175V50.5476Z" fill="var(--fill-0, white)"/>
<path id="Vector_235" d="M5.94679 53.5185H2.97354V56.4918H5.94679V53.5185Z" fill="var(--fill-0, white)"/>
<path id="Vector_236" d="M8.92008 53.5185H5.94683V56.4918C6.73539 56.4918 7.49165 56.1785 8.04924 55.6209C8.60683 55.0633 8.92008 54.3071 8.92008 53.5185Z" fill="var(--fill-0, white)"/>
<path id="Vector_237" d="M20.8132 56.4936V53.5204H19.3266C18.9323 53.5204 18.5541 53.677 18.2753 53.9558C17.9966 54.2346 17.8399 54.6127 17.8399 55.007C17.8399 55.4013 17.9966 55.7794 18.2753 56.0582C18.5541 56.337 18.9323 56.4936 19.3266 56.4936" fill="var(--fill-0, white)"/>
<path id="Vector_238" d="M23.7864 53.5185H20.8132V56.4918H23.7864V53.5185Z" fill="var(--fill-0, white)"/>
<path id="Vector_239" d="M29.7327 56.4936V53.5204H26.7595C26.7595 54.309 27.0727 55.0652 27.6303 55.6228C28.1879 56.1804 28.9442 56.4936 29.7327 56.4936Z" fill="var(--fill-0, white)"/>
<path id="Vector_240" d="M32.706 53.5185H29.7327V56.4918H32.706V53.5185Z" fill="var(--fill-0, white)"/>
<path id="Vector_241" d="M35.679 53.5185H32.7057V56.4918H35.679V53.5185Z" fill="var(--fill-0, white)"/>
<path id="Vector_242" d="M35.6793 53.5185V56.4918H37.1659C37.5602 56.4918 37.9383 56.3352 38.2171 56.0564C38.4959 55.7776 38.6525 55.3994 38.6525 55.0052C38.6525 54.6109 38.4959 54.2327 38.2171 53.954C37.9383 53.6752 37.5602 53.5185 37.1659 53.5185" fill="var(--fill-0, white)"/>
<path id="Vector_243" d="M47.5721 53.5185H44.5988V56.4918H47.5721V53.5185Z" fill="var(--fill-0, white)"/>
<path id="Vector_244" d="M50.5454 53.5185H47.5721V56.4918C48.3607 56.4918 49.1169 56.1785 49.6745 55.6209C50.2321 55.0633 50.5454 54.3071 50.5454 53.5185Z" fill="var(--fill-0, white)"/>
<path id="Vector_245" d="M59.4655 53.5185H56.4922V55.0052C56.4922 55.3994 56.6488 55.7776 56.9276 56.0564C57.2064 56.3352 57.5846 56.4918 57.9788 56.4918C58.3731 56.4918 58.7512 56.3352 59.03 56.0564C59.3088 55.7776 59.4655 55.3994 59.4655 55.0052" fill="var(--fill-0, white)"/>
<path id="Vector_246" d="M65.412 53.5185H62.4388V55.0052C62.4388 55.3994 62.5954 55.7776 62.8742 56.0564C63.153 56.3352 63.5311 56.4918 63.9254 56.4918C64.3197 56.4918 64.6978 56.3352 64.9766 56.0564C65.2554 55.7776 65.412 55.3994 65.412 55.0052" fill="var(--fill-0, white)"/>
<path id="Vector_247" d="M69.8717 56.4918C70.6927 56.4918 71.3583 55.8262 71.3583 55.0052C71.3583 54.1841 70.6927 53.5185 69.8717 53.5185C69.0506 53.5185 68.385 54.1841 68.385 55.0052C68.385 55.8262 69.0506 56.4918 69.8717 56.4918Z" fill="var(--fill-0, white)"/>
<path id="Vector_248" d="M75.8182 56.4918C76.6392 56.4918 77.3048 55.8262 77.3048 55.0052C77.3048 54.1841 76.6392 53.5185 75.8182 53.5185C74.9972 53.5185 74.3316 54.1841 74.3316 55.0052C74.3316 55.8262 74.9972 56.4918 75.8182 56.4918Z" fill="var(--fill-0, white)"/>
<path id="Vector_249" d="M83.2514 53.5185H80.2781V56.4918H83.2514V53.5185Z" fill="var(--fill-0, white)"/>
<path id="Vector_250" d="M92.1709 53.5185H89.1977V56.4918H92.1709V53.5185Z" fill="var(--fill-0, white)"/>
<path id="Vector_251" d="M95.1445 53.5185H92.1712V56.4918H95.1445V53.5185Z" fill="var(--fill-0, white)"/>
<path id="Vector_252" d="M98.1178 53.5185H95.1445V56.4918C95.9331 56.4918 96.6893 56.1785 97.2469 55.6209C97.8045 55.0633 98.1178 54.3071 98.1178 53.5185Z" fill="var(--fill-0, white)"/>
<path id="Vector_253" d="M5.94679 56.4936H2.97354V59.4669H5.94679V56.4936Z" fill="var(--fill-0, white)"/>
<path id="Vector_254" d="M23.7862 59.4646V56.4913H20.8129C20.8129 57.2799 21.1262 58.0361 21.6838 58.5937C22.2414 59.1513 22.9976 59.4646 23.7862 59.4646Z" fill="var(--fill-0, white)"/>
<path id="Vector_255" d="M23.7862 56.4936V59.4669H26.7594C26.7594 58.6783 26.4462 57.9221 25.8886 57.3645C25.331 56.8069 24.5747 56.4936 23.7862 56.4936Z" fill="var(--fill-0, white)"/>
<path id="Vector_256" d="M32.7057 59.4646V56.4913H29.7325C29.7325 57.2799 30.0457 58.0361 30.6033 58.5937C31.1609 59.1513 31.9172 59.4646 32.7057 59.4646Z" fill="var(--fill-0, white)"/>
<path id="Vector_257" d="M35.6793 56.4936H32.706V59.4669C33.4946 59.4669 34.2508 59.1537 34.8084 58.5961C35.366 58.0385 35.6793 57.2822 35.6793 56.4936Z" fill="var(--fill-0, white)"/>
<path id="Vector_258" d="M47.5721 56.4936H44.5988V59.4669H47.5721V56.4936Z" fill="var(--fill-0, white)"/>
<path id="Vector_259" d="M53.5189 59.4646V56.4913H52.0323C51.638 56.4913 51.2599 56.6479 50.9811 56.9267C50.7023 57.2055 50.5457 57.5837 50.5457 57.9779C50.5457 58.3722 50.7023 58.7503 50.9811 59.0291C51.2599 59.3079 51.638 59.4646 52.0323 59.4646" fill="var(--fill-0, white)"/>
<path id="Vector_260" d="M53.5189 56.4936V59.4669H55.0055C55.3998 59.4669 55.778 59.3103 56.0568 59.0315C56.3355 58.7527 56.4922 58.3746 56.4922 57.9803C56.4922 57.586 56.3355 57.2079 56.0568 56.9291C55.778 56.6503 55.3998 56.4936 55.0055 56.4936" fill="var(--fill-0, white)"/>
<path id="Vector_261" d="M59.4655 59.4646H62.4387V57.9779C62.4387 57.5837 62.2821 57.2055 62.0033 56.9267C61.7245 56.6479 61.3464 56.4913 60.9521 56.4913C60.5578 56.4913 60.1797 56.6479 59.9009 56.9267C59.6221 57.2055 59.4655 57.5837 59.4655 57.9779" fill="var(--fill-0, white)"/>
<path id="Vector_262" d="M66.8986 59.4669C67.7197 59.4669 68.3853 58.8013 68.3853 57.9803C68.3853 57.1592 67.7197 56.4936 66.8986 56.4936C66.0776 56.4936 65.412 57.1592 65.412 57.9803C65.412 58.8013 66.0776 59.4669 66.8986 59.4669Z" fill="var(--fill-0, white)"/>
<path id="Vector_263" d="M83.2514 56.4936H80.2781V59.4669H83.2514V56.4936Z" fill="var(--fill-0, white)"/>
<path id="Vector_264" d="M89.1977 59.4646V56.4913H87.7111C87.3168 56.4913 86.9386 56.6479 86.6599 56.9267C86.3811 57.2055 86.2244 57.5837 86.2244 57.9779C86.2244 58.3722 86.3811 58.7503 86.6599 59.0291C86.9386 59.3079 87.3168 59.4646 87.7111 59.4646" fill="var(--fill-0, white)"/>
<path id="Vector_265" d="M92.1712 56.4936H89.198V59.4669C89.9865 59.4669 90.7428 59.1537 91.3004 58.5961C91.858 58.0385 92.1712 57.2822 92.1712 56.4936Z" fill="var(--fill-0, white)"/>
<path id="Vector_266" d="M5.94679 59.4646H2.97354V62.4378H5.94679V59.4646Z" fill="var(--fill-0, white)"/>
<path id="Vector_267" d="M14.8666 62.4397V59.4664H13.38C12.9857 59.4664 12.6076 59.6231 12.3288 59.9019C12.05 60.1807 11.8934 60.5588 11.8934 60.9531C11.8934 61.3473 12.05 61.7255 12.3288 62.0043C12.6076 62.2831 12.9857 62.4397 13.38 62.4397" fill="var(--fill-0, white)"/>
<path id="Vector_268" d="M17.8399 59.4646H14.8666V62.4378H17.8399V59.4646Z" fill="var(--fill-0, white)"/>
<path id="Vector_269" d="M17.8396 59.4646V62.4378H19.3263C19.7205 62.4378 20.0987 62.2812 20.3775 62.0024C20.6563 61.7236 20.8129 61.3455 20.8129 60.9512C20.8129 60.5569 20.6563 60.1788 20.3775 59.9C20.0987 59.6212 19.7205 59.4646 19.3263 59.4646" fill="var(--fill-0, white)"/>
<path id="Vector_270" d="M26.7597 59.4646H23.7865V60.9512C23.7865 61.3455 23.9431 61.7236 24.2219 62.0024C24.5007 62.2812 24.8788 62.4378 25.2731 62.4378C25.6674 62.4378 26.0455 62.2812 26.3243 62.0024C26.6031 61.7236 26.7597 61.3455 26.7597 60.9512" fill="var(--fill-0, white)"/>
<path id="Vector_271" d="M35.6793 62.4397H38.6525V60.9531C38.6525 60.5588 38.4959 60.1807 38.2171 59.9019C37.9383 59.6231 37.5602 59.4664 37.1659 59.4664C36.7716 59.4664 36.3935 59.6231 36.1147 59.9019C35.8359 60.1807 35.6793 60.5588 35.6793 60.9531" fill="var(--fill-0, white)"/>
<path id="Vector_272" d="M44.5988 62.4397V59.4664H43.1122C42.7179 59.4664 42.3398 59.6231 42.061 59.9019C41.7822 60.1807 41.6256 60.5588 41.6256 60.9531C41.6256 61.3473 41.7822 61.7255 42.061 62.0043C42.3398 62.2831 42.7179 62.4397 43.1122 62.4397" fill="var(--fill-0, white)"/>
<path id="Vector_273" d="M47.5721 59.4646H44.5988V62.4378H47.5721V59.4646Z" fill="var(--fill-0, white)"/>
<path id="Vector_274" d="M47.5724 59.4646V62.4378H49.059C49.4533 62.4378 49.8314 62.2812 50.1102 62.0024C50.389 61.7236 50.5456 61.3455 50.5456 60.9512C50.5456 60.5569 50.389 60.1788 50.1102 59.9C49.8314 59.6212 49.4533 59.4646 49.059 59.4646" fill="var(--fill-0, white)"/>
<path id="Vector_275" d="M62.4385 59.4646H59.4652V60.9512C59.4652 61.3455 59.6218 61.7236 59.9006 62.0024C60.1794 62.2812 60.5576 62.4378 60.9519 62.4378C61.3461 62.4378 61.7243 62.2812 62.0031 62.0024C62.2819 61.7236 62.4385 61.3455 62.4385 60.9512" fill="var(--fill-0, white)"/>
<path id="Vector_276" d="M83.2514 59.4646H80.2781V62.4378H83.2514V59.4646Z" fill="var(--fill-0, white)"/>
<path id="Vector_277" d="M92.1712 62.4397H95.1445V60.9531C95.1445 60.5588 94.9878 60.1807 94.709 59.9019C94.4302 59.6231 94.0521 59.4664 93.6578 59.4664C93.2636 59.4664 92.8854 59.6231 92.6066 59.9019C92.3278 60.1807 92.1712 60.5588 92.1712 60.9531" fill="var(--fill-0, white)"/>
<path id="Vector_278" d="M0 65.4106H2.97325V62.4373C2.5828 62.4373 2.19617 62.5143 1.83544 62.6637C1.47471 62.8131 1.14694 63.0321 0.870843 63.3082C0.594751 63.5843 0.375744 63.9121 0.226324 64.2728C0.076904 64.6335 0 65.0201 0 65.4106Z" fill="var(--fill-0, white)"/>
<path id="Vector_279" d="M5.94679 62.4397H2.97354V65.4129H5.94679V62.4397Z" fill="var(--fill-0, white)"/>
<path id="Vector_280" d="M5.94655 62.4397V65.4129H8.9198C8.9198 64.6244 8.60655 63.8681 8.04895 63.3105C7.49136 62.7529 6.7351 62.4397 5.94655 62.4397Z" fill="var(--fill-0, white)"/>
<path id="Vector_281" d="M29.7327 65.4106H32.706V63.924C32.706 63.5297 32.5494 63.1516 32.2706 62.8728C31.9918 62.594 31.6136 62.4373 31.2194 62.4373C30.8251 62.4373 30.447 62.594 30.1682 62.8728C29.8894 63.1516 29.7327 63.5297 29.7327 63.924" fill="var(--fill-0, white)"/>
<path id="Vector_282" d="M38.6523 62.4397H35.679V63.9263C35.679 64.3206 35.8357 64.6987 36.1145 64.9775C36.3933 65.2563 36.7714 65.4129 37.1657 65.4129C37.5599 65.4129 37.9381 65.2563 38.2169 64.9775C38.4957 64.6987 38.6523 64.3206 38.6523 63.9263" fill="var(--fill-0, white)"/>
<path id="Vector_283" d="M52.032 65.4129C52.8531 65.4129 53.5186 64.7474 53.5186 63.9263C53.5186 63.1053 52.8531 62.4397 52.032 62.4397C51.211 62.4397 50.5454 63.1053 50.5454 63.9263C50.5454 64.7474 51.211 65.4129 52.032 65.4129Z" fill="var(--fill-0, white)"/>
<path id="Vector_284" d="M57.9786 65.4129C58.7996 65.4129 59.4652 64.7474 59.4652 63.9263C59.4652 63.1053 58.7996 62.4397 57.9786 62.4397C57.1575 62.4397 56.4919 63.1053 56.4919 63.9263C56.4919 64.7474 57.1575 65.4129 57.9786 65.4129Z" fill="var(--fill-0, white)"/>
<path id="Vector_285" d="M63.9251 65.4129C64.7461 65.4129 65.4117 64.7474 65.4117 63.9263C65.4117 63.1053 64.7461 62.4397 63.9251 62.4397C63.1041 62.4397 62.4385 63.1053 62.4385 63.9263C62.4385 64.7474 63.1041 65.4129 63.9251 65.4129Z" fill="var(--fill-0, white)"/>
<path id="Vector_286" d="M68.385 65.4106H71.3583V62.4373C70.5697 62.4373 69.8135 62.7506 69.2559 63.3082C68.6983 63.8658 68.385 64.622 68.385 65.4106Z" fill="var(--fill-0, white)"/>
<path id="Vector_287" d="M74.3313 62.4397H71.358V65.4129H74.3313V62.4397Z" fill="var(--fill-0, white)"/>
<path id="Vector_288" d="M74.3316 62.4397V65.4129H75.8182C76.2125 65.4129 76.5906 65.2563 76.8694 64.9775C77.1482 64.6987 77.3048 64.3206 77.3048 63.9263C77.3048 63.532 77.1482 63.1539 76.8694 62.8751C76.5906 62.5963 76.2125 62.4397 75.8182 62.4397" fill="var(--fill-0, white)"/>
<path id="Vector_289" d="M83.2514 62.4397H80.2781V65.4129H83.2514V62.4397Z" fill="var(--fill-0, white)"/>
<path id="Vector_290" d="M83.2511 62.4397V65.4129H84.7378C85.132 65.4129 85.5102 65.2563 85.789 64.9775C86.0678 64.6987 86.2244 64.3206 86.2244 63.9263C86.2244 63.532 86.0678 63.1539 85.789 62.8751C85.5102 62.5963 85.132 62.4397 84.7378 62.4397" fill="var(--fill-0, white)"/>
<path id="Vector_291" d="M95.1442 62.4397H92.171V63.9263C92.171 64.3206 92.3276 64.6987 92.6064 64.9775C92.8852 65.2563 93.2633 65.4129 93.6576 65.4129C94.0519 65.4129 94.43 65.2563 94.7088 64.9775C94.9876 64.6987 95.1442 64.3206 95.1442 63.9263" fill="var(--fill-0, white)"/>
<path id="Vector_292" d="M2.97325 65.4106H0V68.3839H2.97325V65.4106Z" fill="var(--fill-0, white)"/>
<path id="Vector_293" d="M8.91999 68.3856V65.4124H5.94673C5.94673 66.2009 6.25999 66.9572 6.81758 67.5148C7.37517 68.0724 8.13143 68.3856 8.91999 68.3856Z" fill="var(--fill-0, white)"/>
<path id="Vector_294" d="M8.92008 65.4106V68.3839H11.8933C11.8933 67.5953 11.5801 66.839 11.0225 66.2814C10.4649 65.7238 9.70864 65.4106 8.92008 65.4106Z" fill="var(--fill-0, white)"/>
<path id="Vector_295" d="M17.8397 68.3856V65.4124H16.3531C15.9588 65.4124 15.5807 65.569 15.3019 65.8478C15.0231 66.1266 14.8665 66.5047 14.8665 66.899C14.8665 67.2933 15.0231 67.6714 15.3019 67.9502C15.5807 68.229 15.9588 68.3856 16.3531 68.3856" fill="var(--fill-0, white)"/>
<path id="Vector_296" d="M20.8129 65.4106H17.8396V68.3839H20.8129V65.4106Z" fill="var(--fill-0, white)"/>
<path id="Vector_297" d="M23.7864 65.4106H20.8132V68.3839H23.7864V65.4106Z" fill="var(--fill-0, white)"/>
<path id="Vector_298" d="M26.7594 65.4106H23.7862V68.3839H26.7594V65.4106Z" fill="var(--fill-0, white)"/>
<path id="Vector_299" d="M29.733 65.4106H26.7597V68.3839H29.733V65.4106Z" fill="var(--fill-0, white)"/>
<path id="Vector_300" d="M32.706 65.4106H29.7327V68.3839H32.706V65.4106Z" fill="var(--fill-0, white)"/>
<path id="Vector_301" d="M32.7057 65.4106V68.3839H35.679C35.679 67.5953 35.3657 66.839 34.8082 66.2814C34.2506 65.7238 33.4943 65.4106 32.7057 65.4106Z" fill="var(--fill-0, white)"/>
<path id="Vector_302" d="M40.1389 68.3839C40.96 68.3839 41.6255 67.7183 41.6255 66.8972C41.6255 66.0762 40.96 65.4106 40.1389 65.4106C39.3179 65.4106 38.6523 66.0762 38.6523 66.8972C38.6523 67.7183 39.3179 68.3839 40.1389 68.3839Z" fill="var(--fill-0, white)"/>
<path id="Vector_303" d="M53.5189 68.3857H56.4922V66.8991C56.4922 66.5048 56.3355 66.1267 56.0568 65.8479C55.778 65.5691 55.3998 65.4125 55.0055 65.4125C54.6113 65.4125 54.2331 65.5691 53.9543 65.8479C53.6755 66.1267 53.5189 66.5048 53.5189 66.8991" fill="var(--fill-0, white)"/>
<path id="Vector_304" d="M71.3583 65.4106H68.385V68.3839H71.3583V65.4106Z" fill="var(--fill-0, white)"/>
<path id="Vector_305" d="M74.3313 65.4106H71.358V68.3839H74.3313V65.4106Z" fill="var(--fill-0, white)"/>
<path id="Vector_306" d="M83.2511 65.4106H80.2779V66.8972C80.2779 67.2915 80.4345 67.6696 80.7133 67.9484C80.9921 68.2272 81.3702 68.3839 81.7645 68.3839C82.1588 68.3839 82.5369 68.2272 82.8157 67.9484C83.0945 67.6696 83.2511 67.2915 83.2511 66.8972" fill="var(--fill-0, white)"/>
<path id="Vector_307" d="M89.1978 68.3856H92.171V66.899C92.171 66.5047 92.0144 66.1266 91.7356 65.8478C91.4568 65.569 91.0787 65.4124 90.6844 65.4124C90.2901 65.4124 89.912 65.569 89.6332 65.8478C89.3544 66.1266 89.1978 66.5047 89.1978 66.899" fill="var(--fill-0, white)"/>
<path id="Vector_308" d="M95.1443 68.3856H98.1175V66.899C98.1175 66.5047 97.9609 66.1266 97.6821 65.8478C97.4033 65.569 97.0252 65.4124 96.6309 65.4124C96.2366 65.4124 95.8585 65.569 95.5797 65.8478C95.3009 66.1266 95.1443 66.5047 95.1443 66.899" fill="var(--fill-0, white)"/>
<path id="Vector_309" d="M2.97325 68.3857H0V71.359H2.97325V68.3857Z" fill="var(--fill-0, white)"/>
<path id="Vector_310" d="M11.8931 71.3608V68.3876H8.91984C8.91984 69.1761 9.23309 69.9324 9.79069 70.49C10.3483 71.0476 11.1045 71.3608 11.8931 71.3608Z" fill="var(--fill-0, white)"/>
<path id="Vector_311" d="M11.8931 68.3857V71.359H14.8663C14.8663 70.5704 14.5531 69.8142 13.9955 69.2566C13.4379 68.699 12.6816 68.3857 11.8931 68.3857Z" fill="var(--fill-0, white)"/>
<path id="Vector_312" d="M23.7862 68.3856H20.813V69.8723C20.813 70.2665 20.9696 70.6447 21.2484 70.9235C21.5272 71.2023 21.9053 71.3589 22.2996 71.3589C22.6939 71.3589 23.072 71.2023 23.3508 70.9235C23.6296 70.6447 23.7862 70.2665 23.7862 69.8723" fill="var(--fill-0, white)"/>
<path id="Vector_313" d="M35.679 68.3857H32.7057V71.359H35.679V68.3857Z" fill="var(--fill-0, white)"/>
<path id="Vector_314" d="M44.5988 71.3608V68.3876H43.1122C42.7179 68.3876 42.3398 68.5442 42.061 68.823C41.7822 69.1018 41.6256 69.4799 41.6256 69.8742C41.6256 70.2685 41.7822 70.6466 42.061 70.9254C42.3398 71.2042 42.7179 71.3608 43.1122 71.3608" fill="var(--fill-0, white)"/>
<path id="Vector_315" d="M47.5721 68.3857H44.5988V71.359H47.5721V68.3857Z" fill="var(--fill-0, white)"/>
<path id="Vector_316" d="M47.5723 68.3856V71.3589H50.5455C50.5455 70.5703 50.2323 69.8141 49.6747 69.2565C49.1171 68.6989 48.3608 68.3856 47.5723 68.3856Z" fill="var(--fill-0, white)"/>
<path id="Vector_317" d="M56.492 68.3856H53.5188V69.8723C53.5188 70.2665 53.6754 70.6447 53.9542 70.9235C54.233 71.2023 54.6111 71.3589 55.0054 71.3589C55.3997 71.3589 55.7778 71.2023 56.0566 70.9235C56.3354 70.6447 56.492 70.2665 56.492 69.8723" fill="var(--fill-0, white)"/>
<path id="Vector_318" d="M59.4655 71.3608H62.4387V69.8742C62.4387 69.4799 62.2821 69.1018 62.0033 68.823C61.7245 68.5442 61.3464 68.3876 60.9521 68.3876C60.5578 68.3876 60.1797 68.5442 59.9009 68.823C59.6221 69.1018 59.4655 69.4799 59.4655 69.8742" fill="var(--fill-0, white)"/>
<path id="Vector_319" d="M68.385 71.3608V68.3876H66.8984C66.5041 68.3876 66.126 68.5442 65.8472 68.823C65.5684 69.1018 65.4118 69.4799 65.4118 69.8742C65.4118 70.2685 65.5684 70.6466 65.8472 70.9254C66.126 71.2042 66.5041 71.3608 66.8984 71.3608" fill="var(--fill-0, white)"/>
<path id="Vector_320" d="M71.3583 68.3856H68.385V71.3589H71.3583V68.3856Z" fill="var(--fill-0, white)"/>
<path id="Vector_321" d="M74.3313 68.3857H71.358V71.359H74.3313V68.3857Z" fill="var(--fill-0, white)"/>
<path id="Vector_322" d="M89.1977 71.3608V68.3876H87.7111C87.3168 68.3876 86.9386 68.5442 86.6599 68.823C86.3811 69.1018 86.2244 69.4799 86.2244 69.8742C86.2244 70.2685 86.3811 70.6466 86.6599 70.9254C86.9386 71.2042 87.3168 71.3608 87.7111 71.3608" fill="var(--fill-0, white)"/>
<path id="Vector_323" d="M92.171 68.3856H89.1978V71.3589H92.171V68.3856Z" fill="var(--fill-0, white)"/>
<path id="Vector_324" d="M95.1445 68.3857H92.1712V71.359H95.1445V68.3857Z" fill="var(--fill-0, white)"/>
<path id="Vector_325" d="M98.1178 68.3857H95.1445V71.359C95.9331 71.359 96.6893 71.0457 97.2469 70.4881C97.8045 69.9305 98.1178 69.1743 98.1178 68.3857Z" fill="var(--fill-0, white)"/>
<path id="Vector_326" d="M2.97354 74.3318L2.97354 71.3585H0.000284076C0.000284076 71.749 0.0771892 72.1356 0.226609 72.4963C0.376029 72.8571 0.595037 73.1848 0.871129 73.4609C1.14722 73.737 1.47499 73.956 1.83572 74.1054C2.19645 74.2549 2.58308 74.3318 2.97354 74.3318Z" fill="var(--fill-0, white)"/>
<path id="Vector_327" d="M5.94679 71.3608H2.97354V74.3341H5.94679V71.3608Z" fill="var(--fill-0, white)"/>
<path id="Vector_328" d="M5.94655 71.3608V74.3341H7.43317C7.82745 74.3341 8.20558 74.1775 8.48438 73.8987C8.76317 73.6199 8.9198 73.2417 8.9198 72.8475C8.9198 72.4532 8.76317 72.0751 8.48438 71.7963C8.20558 71.5175 7.82745 71.3608 7.43317 71.3608" fill="var(--fill-0, white)"/>
<path id="Vector_329" d="M14.8666 74.3318V71.3585H11.8934C11.8934 72.1471 12.2066 72.9033 12.7642 73.4609C13.3218 74.0185 14.0781 74.3318 14.8666 74.3318Z" fill="var(--fill-0, white)"/>
<path id="Vector_330" d="M17.8399 71.3608H14.8666V74.3341H17.8399V71.3608Z" fill="var(--fill-0, white)"/>
<path id="Vector_331" d="M17.8396 71.3608V74.3341H19.3263C19.7205 74.3341 20.0987 74.1775 20.3775 73.8987C20.6563 73.6199 20.8129 73.2417 20.8129 72.8475C20.8129 72.4532 20.6563 72.0751 20.3775 71.7963C20.0987 71.5175 19.7205 71.3608 19.3263 71.3608" fill="var(--fill-0, white)"/>
<path id="Vector_332" d="M23.7862 74.3318H26.7594V71.3585C25.9709 71.3585 25.2146 71.6718 24.657 72.2293C24.0994 72.7869 23.7862 73.5432 23.7862 74.3318Z" fill="var(--fill-0, white)"/>
<path id="Vector_333" d="M26.7597 71.3608V74.3341H29.733C29.733 73.5455 29.4197 72.7893 28.8621 72.2317C28.3045 71.6741 27.5483 71.3608 26.7597 71.3608Z" fill="var(--fill-0, white)"/>
<path id="Vector_334" d="M35.679 71.3608H32.7057V74.3341H35.679V71.3608Z" fill="var(--fill-0, white)"/>
<path id="Vector_335" d="M40.1389 74.3341C40.96 74.3341 41.6255 73.6685 41.6255 72.8475C41.6255 72.0264 40.96 71.3608 40.1389 71.3608C39.3179 71.3608 38.6523 72.0264 38.6523 72.8475C38.6523 73.6685 39.3179 74.3341 40.1389 74.3341Z" fill="var(--fill-0, white)"/>
<path id="Vector_336" d="M47.5721 71.3608H44.5988V74.3341H47.5721V71.3608Z" fill="var(--fill-0, white)"/>
<path id="Vector_337" d="M50.5456 71.3608H47.5724V74.3341H50.5456V71.3608Z" fill="var(--fill-0, white)"/>
<path id="Vector_338" d="M50.5454 71.3608V74.3341H53.5186C53.5186 73.5455 53.2054 72.7893 52.6478 72.2317C52.0902 71.6741 51.3339 71.3608 50.5454 71.3608Z" fill="var(--fill-0, white)"/>
<path id="Vector_339" d="M59.4655 74.3318V71.3585H57.9788C57.5846 71.3585 57.2064 71.5151 56.9276 71.7939C56.6488 72.0727 56.4922 72.4509 56.4922 72.8451C56.4922 73.2394 56.6488 73.6175 56.9276 73.8963C57.2064 74.1751 57.5846 74.3318 57.9788 74.3318" fill="var(--fill-0, white)"/>
<path id="Vector_340" d="M62.4385 71.3608H59.4652V74.3341C60.2538 74.3341 61.01 74.0208 61.5676 73.4632C62.1252 72.9057 62.4385 72.1494 62.4385 71.3608Z" fill="var(--fill-0, white)"/>
<path id="Vector_341" d="M71.3583 71.3608H68.385V74.3341H71.3583V71.3608Z" fill="var(--fill-0, white)"/>
<path id="Vector_342" d="M74.3313 71.3608H71.358V74.3341H74.3313V71.3608Z" fill="var(--fill-0, white)"/>
<path id="Vector_343" d="M77.3048 71.3608H74.3316V74.3341H77.3048V71.3608Z" fill="var(--fill-0, white)"/>
<path id="Vector_344" d="M80.2778 71.3608H77.3046V74.3341H80.2778V71.3608Z" fill="var(--fill-0, white)"/>
<path id="Vector_345" d="M83.2514 71.3608H80.2781V74.3341H83.2514V71.3608Z" fill="var(--fill-0, white)"/>
<path id="Vector_346" d="M83.2511 71.3608V74.3341H86.2244C86.2244 73.5455 85.9111 72.7893 85.3535 72.2317C84.7959 71.6741 84.0397 71.3608 83.2511 71.3608Z" fill="var(--fill-0, white)"/>
<path id="Vector_347" d="M95.1442 71.3608H92.171V72.8475C92.171 73.2417 92.3276 73.6199 92.6064 73.8987C92.8852 74.1775 93.2633 74.3341 93.6576 74.3341C94.0519 74.3341 94.43 74.1775 94.7088 73.8987C94.9876 73.6199 95.1442 73.2417 95.1442 72.8475" fill="var(--fill-0, white)"/>
<path id="Vector_348" d="M26.7597 77.3069V74.3336H23.7865C23.7865 75.1222 24.0997 75.8784 24.6573 76.436C25.2149 76.9936 25.9712 77.3069 26.7597 77.3069Z" fill="var(--fill-0, white)"/>
<path id="Vector_349" d="M29.733 74.3318H26.7597V77.305H29.733V74.3318Z" fill="var(--fill-0, white)"/>
<path id="Vector_350" d="M32.706 74.3318H29.7327V77.305H32.706V74.3318Z" fill="var(--fill-0, white)"/>
<path id="Vector_351" d="M35.679 74.3318H32.7057V77.305H35.679V74.3318Z" fill="var(--fill-0, white)"/>
<path id="Vector_352" d="M44.5988 77.3069V74.3336H43.1122C42.7179 74.3336 42.3398 74.4903 42.061 74.7691C41.7822 75.0479 41.6256 75.426 41.6256 75.8203C41.6256 76.2145 41.7822 76.5927 42.061 76.8715C42.3398 77.1503 42.7179 77.3069 43.1122 77.3069" fill="var(--fill-0, white)"/>
<path id="Vector_353" d="M47.5721 74.3318H44.5988V77.305H47.5721V74.3318Z" fill="var(--fill-0, white)"/>
<path id="Vector_354" d="M53.5186 74.3318H50.5454V77.305H53.5186V74.3318Z" fill="var(--fill-0, white)"/>
<path id="Vector_355" d="M62.4385 77.3069H65.4117V75.8203C65.4117 75.426 65.2551 75.0479 64.9763 74.7691C64.6975 74.4903 64.3194 74.3336 63.9251 74.3336C63.5308 74.3336 63.1527 74.4903 62.8739 74.7691C62.5951 75.0479 62.4385 75.426 62.4385 75.8203" fill="var(--fill-0, white)"/>
<path id="Vector_356" d="M71.3583 74.3318H68.385V77.305H71.3583V74.3318Z" fill="var(--fill-0, white)"/>
<path id="Vector_357" d="M74.3313 74.3318H71.358V77.305H74.3313V74.3318Z" fill="var(--fill-0, white)"/>
<path id="Vector_358" d="M86.2244 74.3318H83.2511V77.305H86.2244V74.3318Z" fill="var(--fill-0, white)"/>
<path id="Vector_359" d="M89.1979 74.3318H86.2247V77.305H89.1979V74.3318Z" fill="var(--fill-0, white)"/>
<path id="Vector_360" d="M89.1977 74.3318V77.305H90.6843C91.0786 77.305 91.4567 77.1484 91.7355 76.8696C92.0143 76.5908 92.1709 76.2127 92.1709 75.8184C92.1709 75.4241 92.0143 75.046 91.7355 74.7672C91.4567 74.4884 91.0786 74.3318 90.6843 74.3318" fill="var(--fill-0, white)"/>
<path id="Vector_361" d="M35.679 77.3069H32.7057V80.2801H35.679V77.3069Z" fill="var(--fill-0, white)"/>
<path id="Vector_362" d="M38.6523 80.2778H41.6255V78.7912C41.6255 78.3969 41.4689 78.0188 41.1901 77.74C40.9113 77.4612 40.5332 77.3045 40.1389 77.3045C39.7446 77.3045 39.3665 77.4612 39.0877 77.74C38.8089 78.0188 38.6523 78.3969 38.6523 78.7912" fill="var(--fill-0, white)"/>
<path id="Vector_363" d="M47.5721 77.3069H44.5988V80.2801H47.5721V77.3069Z" fill="var(--fill-0, white)"/>
<path id="Vector_364" d="M50.5456 77.3069H47.5724V80.2801H50.5456V77.3069Z" fill="var(--fill-0, white)"/>
<path id="Vector_365" d="M53.5186 77.3069H50.5454V80.2801H53.5186V77.3069Z" fill="var(--fill-0, white)"/>
<path id="Vector_366" d="M56.4922 77.3069H53.5189V80.2801H56.4922V77.3069Z" fill="var(--fill-0, white)"/>
<path id="Vector_367" d="M56.4919 77.3069V80.2801H59.4652C59.4652 79.4916 59.1519 78.7353 58.5943 78.1777C58.0367 77.6201 57.2805 77.3069 56.4919 77.3069Z" fill="var(--fill-0, white)"/>
<path id="Vector_368" d="M65.412 80.2778V77.3045H62.4388C62.4388 78.0931 62.752 78.8494 63.3096 79.407C63.8672 79.9645 64.6235 80.2778 65.412 80.2778Z" fill="var(--fill-0, white)"/>
<path id="Vector_369" d="M68.3853 77.3069H65.412V80.2801H68.3853V77.3069Z" fill="var(--fill-0, white)"/>
<path id="Vector_370" d="M71.3583 77.3069H68.385V80.2801H71.3583V77.3069Z" fill="var(--fill-0, white)"/>
<path id="Vector_371" d="M74.3313 77.3069H71.358V80.2801H74.3313V77.3069Z" fill="var(--fill-0, white)"/>
<path id="Vector_372" d="M78.7912 80.2801C79.6122 80.2801 80.2778 79.6146 80.2778 78.7935C80.2778 77.9725 79.6122 77.3069 78.7912 77.3069C77.9702 77.3069 77.3046 77.9725 77.3046 78.7935C77.3046 79.6146 77.9702 80.2801 78.7912 80.2801Z" fill="var(--fill-0, white)"/>
<path id="Vector_373" d="M86.2244 77.3069H83.2511V80.2801H86.2244V77.3069Z" fill="var(--fill-0, white)"/>
<path id="Vector_374" d="M23.7862 83.2529H26.7594V81.7663C26.7594 81.372 26.6028 80.9939 26.324 80.7151C26.0452 80.4363 25.6671 80.2797 25.2728 80.2797C24.8785 80.2797 24.5004 80.4363 24.2216 80.7151C23.9428 80.9939 23.7862 81.372 23.7862 81.7663" fill="var(--fill-0, white)"/>
<path id="Vector_375" d="M35.6793 83.2529V80.2797H32.706C32.706 81.0682 33.0193 81.8245 33.5769 82.3821C34.1345 82.9397 34.8907 83.2529 35.6793 83.2529Z" fill="var(--fill-0, white)"/>
<path id="Vector_376" d="M38.6525 80.2778H35.6793V83.251H38.6525V80.2778Z" fill="var(--fill-0, white)"/>
<path id="Vector_377" d="M41.6258 80.2778H38.6526V83.251C39.4411 83.251 40.1974 82.9378 40.755 82.3802C41.3126 81.8226 41.6258 81.0663 41.6258 80.2778Z" fill="var(--fill-0, white)"/>
<path id="Vector_378" d="M47.5721 80.2778H44.5988V83.251H47.5721V80.2778Z" fill="var(--fill-0, white)"/>
<path id="Vector_379" d="M50.5456 80.2778H47.5724V83.251H50.5456V80.2778Z" fill="var(--fill-0, white)"/>
<path id="Vector_380" d="M53.5186 80.2778H50.5454V83.251H53.5186V80.2778Z" fill="var(--fill-0, white)"/>
<path id="Vector_381" d="M56.4922 80.2778H53.5189V83.251H56.4922V80.2778Z" fill="var(--fill-0, white)"/>
<path id="Vector_382" d="M59.4655 80.2778H56.4922V83.251C57.2808 83.251 58.037 82.9378 58.5946 82.3802C59.1522 81.8226 59.4655 81.0663 59.4655 80.2778Z" fill="var(--fill-0, white)"/>
<path id="Vector_383" d="M68.3853 80.2778H65.412V83.251H68.3853V80.2778Z" fill="var(--fill-0, white)"/>
<path id="Vector_384" d="M71.3583 80.2778H68.385V83.251H71.3583V80.2778Z" fill="var(--fill-0, white)"/>
<path id="Vector_385" d="M74.3313 80.2778H71.358V83.251H74.3313V80.2778Z" fill="var(--fill-0, white)"/>
<path id="Vector_386" d="M86.2244 80.2778H83.2511V83.251H86.2244V80.2778Z" fill="var(--fill-0, white)"/>
<path id="Vector_387" d="M92.1712 83.2529V80.2797H90.6846C90.2903 80.2797 89.9122 80.4363 89.6334 80.7151C89.3546 80.9939 89.198 81.372 89.198 81.7663C89.198 82.1606 89.3546 82.5387 89.6334 82.8175C89.9122 83.0963 90.2903 83.2529 90.6846 83.2529" fill="var(--fill-0, white)"/>
<path id="Vector_388" d="M95.1445 80.2778H92.1712V83.251H95.1445V80.2778Z" fill="var(--fill-0, white)"/>
<path id="Vector_389" d="M95.1442 80.2778V83.251H96.6308C97.0251 83.251 97.4032 83.0944 97.682 82.8156C97.9608 82.5368 98.1175 82.1587 98.1175 81.7644C98.1175 81.3701 97.9608 80.992 97.682 80.7132C97.4032 80.4344 97.0251 80.2778 96.6308 80.2778" fill="var(--fill-0, white)"/>
<path id="Vector_390" d="M26.7594 83.2529H23.7862V86.2262H26.7594V83.2529Z" fill="var(--fill-0, white)"/>
<path id="Vector_391" d="M26.7597 83.2529V86.2262H28.2463C28.6406 86.2262 29.0188 86.0695 29.2976 85.7907C29.5764 85.5119 29.733 85.1338 29.733 84.7395C29.733 84.3453 29.5764 83.9671 29.2976 83.6883C29.0188 83.4095 28.6406 83.2529 28.2463 83.2529" fill="var(--fill-0, white)"/>
<path id="Vector_392" d="M38.6525 83.2529H35.6793V86.2262H38.6525V83.2529Z" fill="var(--fill-0, white)"/>
<path id="Vector_393" d="M47.5721 83.2529H44.5988V86.2262H47.5721V83.2529Z" fill="var(--fill-0, white)"/>
<path id="Vector_394" d="M68.385 86.2238V83.2506H65.4118C65.4118 84.0391 65.725 84.7954 66.2826 85.353C66.8402 85.9106 67.5965 86.2238 68.385 86.2238Z" fill="var(--fill-0, white)"/>
<path id="Vector_395" d="M71.3583 83.2529H68.385V86.2262H71.3583V83.2529Z" fill="var(--fill-0, white)"/>
<path id="Vector_396" d="M74.3313 83.2529H71.358V86.2262H74.3313V83.2529Z" fill="var(--fill-0, white)"/>
<path id="Vector_397" d="M77.3048 83.2529H74.3316V86.2262H77.3048V83.2529Z" fill="var(--fill-0, white)"/>
<path id="Vector_398" d="M80.2778 83.2529H77.3046V86.2262H80.2778V83.2529Z" fill="var(--fill-0, white)"/>
<path id="Vector_399" d="M83.2514 83.2529H80.2781V86.2262H83.2514V83.2529Z" fill="var(--fill-0, white)"/>
<path id="Vector_400" d="M86.2247 83.2529H83.2514V86.2262C84.04 86.2262 84.7962 85.9129 85.3538 85.3553C85.9114 84.7977 86.2247 84.0415 86.2247 83.2529Z" fill="var(--fill-0, white)"/>
<path id="Vector_401" d="M26.7597 86.2238H23.7865V87.7105C23.7865 88.1047 23.9431 88.4829 24.2219 88.7617C24.5007 89.0405 24.8788 89.1971 25.2731 89.1971C25.6674 89.1971 26.0455 89.0405 26.3243 88.7617C26.6031 88.4829 26.7597 88.1047 26.7597 87.7105" fill="var(--fill-0, white)"/>
<path id="Vector_402" d="M31.2194 89.1971C32.0404 89.1971 32.706 88.5315 32.706 87.7105C32.706 86.8894 32.0404 86.2238 31.2194 86.2238C30.3983 86.2238 29.7327 86.8894 29.7327 87.7105C29.7327 88.5315 30.3983 89.1971 31.2194 89.1971Z" fill="var(--fill-0, white)"/>
<path id="Vector_403" d="M38.6525 86.2238H35.6793V89.1971H38.6525V86.2238Z" fill="var(--fill-0, white)"/>
<path id="Vector_404" d="M41.6255 86.2238H38.6523V89.1971H41.6255V86.2238Z" fill="var(--fill-0, white)"/>
<path id="Vector_405" d="M44.5991 86.2238H41.6258V89.1971H44.5991V86.2238Z" fill="var(--fill-0, white)"/>
<path id="Vector_406" d="M47.5724 86.2238H44.5991V89.1971C45.3877 89.1971 46.1439 88.8838 46.7015 88.3262C47.2591 87.7686 47.5724 87.0124 47.5724 86.2238Z" fill="var(--fill-0, white)"/>
<path id="Vector_407" d="M56.4919 89.199H59.4652V86.2257C58.6766 86.2257 57.9204 86.5389 57.3628 87.0965C56.8052 87.6541 56.4919 88.4104 56.4919 89.199Z" fill="var(--fill-0, white)"/>
<path id="Vector_408" d="M62.4387 86.2238H59.4655V89.1971H62.4387V86.2238Z" fill="var(--fill-0, white)"/>
<path id="Vector_409" d="M62.4385 86.2238V89.1971H63.9251C64.3194 89.1971 64.6975 89.0405 64.9763 88.7617C65.2551 88.4829 65.4117 88.1047 65.4117 87.7105C65.4117 87.3162 65.2551 86.9381 64.9763 86.6593C64.6975 86.3805 64.3194 86.2238 63.9251 86.2238" fill="var(--fill-0, white)"/>
<path id="Vector_410" d="M71.3583 86.2238H68.385V89.1971H71.3583V86.2238Z" fill="var(--fill-0, white)"/>
<path id="Vector_411" d="M77.3046 86.2238H74.3313V87.7105C74.3313 88.1047 74.488 88.4829 74.7668 88.7617C75.0456 89.0405 75.4237 89.1971 75.818 89.1971C76.2122 89.1971 76.5904 89.0405 76.8692 88.7617C77.148 88.4829 77.3046 88.1047 77.3046 87.7105" fill="var(--fill-0, white)"/>
<path id="Vector_412" d="M89.1977 89.199H92.1709V87.7123C92.1709 87.318 92.0143 86.9399 91.7355 86.6611C91.4567 86.3823 91.0786 86.2257 90.6843 86.2257C90.29 86.2257 89.9119 86.3823 89.6331 86.6611C89.3543 86.9399 89.1977 87.318 89.1977 87.7123" fill="var(--fill-0, white)"/>
<path id="Vector_413" d="M95.1442 89.199H98.1175V87.7123C98.1175 87.318 97.9608 86.9399 97.682 86.6611C97.4032 86.3823 97.0251 86.2257 96.6308 86.2257C96.2366 86.2257 95.8584 86.3823 95.5796 86.6611C95.3008 86.9399 95.1442 87.318 95.1442 87.7123" fill="var(--fill-0, white)"/>
<path id="Vector_414" d="M26.7597 92.1699H29.733V90.6832C29.733 90.289 29.5763 89.9108 29.2975 89.632C29.0188 89.3532 28.6406 89.1966 28.2463 89.1966C27.8521 89.1966 27.4739 89.3532 27.1951 89.632C26.9164 89.9108 26.7597 90.289 26.7597 90.6832" fill="var(--fill-0, white)"/>
<path id="Vector_415" d="M32.7057 92.1699H35.679V89.1966C34.8904 89.1966 34.1342 89.5099 33.5766 90.0675C33.019 90.6251 32.7057 91.3813 32.7057 92.1699Z" fill="var(--fill-0, white)"/>
<path id="Vector_416" d="M38.6525 89.199H35.6793V92.1722H38.6525V89.199Z" fill="var(--fill-0, white)"/>
<path id="Vector_417" d="M41.6255 89.199H38.6523V92.1722H41.6255V89.199Z" fill="var(--fill-0, white)"/>
<path id="Vector_418" d="M44.5991 89.199H41.6258V92.1722H44.5991V89.199Z" fill="var(--fill-0, white)"/>
<path id="Vector_419" d="M47.5724 92.1699H50.5456V90.6832C50.5456 90.289 50.389 89.9108 50.1102 89.632C49.8314 89.3532 49.4533 89.1966 49.059 89.1966C48.6647 89.1966 48.2866 89.3532 48.0078 89.632C47.729 89.9108 47.5724 90.289 47.5724 90.6832" fill="var(--fill-0, white)"/>
<path id="Vector_420" d="M56.4919 92.1699V89.1966H55.0053C54.611 89.1966 54.2329 89.3532 53.9541 89.632C53.6753 89.9108 53.5187 90.289 53.5187 90.6832C53.5187 91.0775 53.6753 91.4556 53.9541 91.7344C54.2329 92.0132 54.611 92.1699 55.0053 92.1699" fill="var(--fill-0, white)"/>
<path id="Vector_421" d="M59.4652 89.199H56.4919V92.1722H59.4652V89.199Z" fill="var(--fill-0, white)"/>
<path id="Vector_422" d="M65.412 92.1699H68.3853V89.1966C67.5967 89.1966 66.8404 89.5099 66.2829 90.0675C65.7253 90.6251 65.412 91.3813 65.412 92.1699Z" fill="var(--fill-0, white)"/>
<path id="Vector_423" d="M71.3583 89.199H68.385V92.1722H71.3583V89.199Z" fill="var(--fill-0, white)"/>
<path id="Vector_424" d="M71.358 89.199V92.1722H72.8447C73.2389 92.1722 73.6171 92.0156 73.8959 91.7368C74.1747 91.458 74.3313 91.0799 74.3313 90.6856C74.3313 90.2913 74.1747 89.9132 73.8959 89.6344C73.6171 89.3556 73.2389 89.199 72.8447 89.199" fill="var(--fill-0, white)"/>
<path id="Vector_425" d="M84.7378 92.1722C85.5588 92.1722 86.2244 91.5066 86.2244 90.6856C86.2244 89.8645 85.5588 89.199 84.7378 89.199C83.9167 89.199 83.2511 89.8645 83.2511 90.6856C83.2511 91.5066 83.9167 92.1722 84.7378 92.1722Z" fill="var(--fill-0, white)"/>
<path id="Vector_426" d="M92.1709 89.199H89.1977V92.1722H92.1709V89.199Z" fill="var(--fill-0, white)"/>
<path id="Vector_427" d="M95.1445 89.199H92.1712V92.1722H95.1445V89.199Z" fill="var(--fill-0, white)"/>
<path id="Vector_428" d="M98.1175 89.199H95.1442V92.1722H98.1175V89.199Z" fill="var(--fill-0, white)"/>
<path id="Vector_429" d="M26.7597 95.145V92.1717H25.2731C24.8788 92.1717 24.5007 92.3284 24.2219 92.6072C23.9431 92.886 23.7865 93.2641 23.7865 93.6584C23.7865 94.0526 23.9431 94.4308 24.2219 94.7096C24.5007 94.9884 24.8788 95.145 25.2731 95.145" fill="var(--fill-0, white)"/>
<path id="Vector_430" d="M29.733 92.1699H26.7597V95.1431H29.733V92.1699Z" fill="var(--fill-0, white)"/>
<path id="Vector_431" d="M32.706 92.1699H29.7327V95.1431H32.706V92.1699Z" fill="var(--fill-0, white)"/>
<path id="Vector_432" d="M35.679 92.1699H32.7057V95.1431H35.679V92.1699Z" fill="var(--fill-0, white)"/>
<path id="Vector_433" d="M41.6255 92.1699H38.6523V95.1431H41.6255V92.1699Z" fill="var(--fill-0, white)"/>
<path id="Vector_434" d="M44.5991 92.1699H41.6258V95.1431H44.5991V92.1699Z" fill="var(--fill-0, white)"/>
<path id="Vector_435" d="M47.5721 92.1699H44.5988V95.1431H47.5721V92.1699Z" fill="var(--fill-0, white)"/>
<path id="Vector_436" d="M50.5456 92.1699H47.5724V95.1431H50.5456V92.1699Z" fill="var(--fill-0, white)"/>
<path id="Vector_437" d="M50.5454 92.1699V95.1431H52.032C52.4263 95.1431 52.8044 94.9865 53.0832 94.7077C53.362 94.4289 53.5186 94.0508 53.5186 93.6565C53.5186 93.2622 53.362 92.8841 53.0832 92.6053C52.8044 92.3265 52.4263 92.1699 52.032 92.1699" fill="var(--fill-0, white)"/>
<path id="Vector_438" d="M59.4652 92.1699H56.4919V95.1431H59.4652V92.1699Z" fill="var(--fill-0, white)"/>
<path id="Vector_439" d="M68.385 95.1449V92.1717H65.4118C65.4118 92.9602 65.725 93.7165 66.2826 94.2741C66.8402 94.8317 67.5965 95.1449 68.385 95.1449Z" fill="var(--fill-0, white)"/>
<path id="Vector_440" d="M71.358 92.1699H68.3848V95.1431C69.1733 95.1431 69.9296 94.8299 70.4872 94.2723C71.0448 93.7147 71.358 92.9584 71.358 92.1699Z" fill="var(--fill-0, white)"/>
<path id="Vector_441" d="M77.3046 95.145V92.1717H75.818C75.4237 92.1717 75.0456 92.3284 74.7668 92.6072C74.488 92.886 74.3313 93.2641 74.3313 93.6584C74.3313 94.0526 74.488 94.4308 74.7668 94.7096C75.0456 94.9884 75.4237 95.145 75.818 95.145" fill="var(--fill-0, white)"/>
<path id="Vector_442" d="M80.2778 92.1699H77.3046V95.1431H80.2778V92.1699Z" fill="var(--fill-0, white)"/>
<path id="Vector_443" d="M80.2781 92.1699V95.1431H83.2514C83.2514 94.3546 82.9381 93.5983 82.3805 93.0407C81.8229 92.4831 81.0667 92.1699 80.2781 92.1699Z" fill="var(--fill-0, white)"/>
<path id="Vector_444" d="M92.1712 95.145V92.1717H89.198C89.198 92.9603 89.5112 93.7166 90.0688 94.2741C90.6264 94.8317 91.3827 95.145 92.1712 95.145Z" fill="var(--fill-0, white)"/>
<path id="Vector_445" d="M95.1445 92.1699H92.1712V95.1431H95.1445V92.1699Z" fill="var(--fill-0, white)"/>
<path id="Vector_446" d="M98.1178 92.1699H95.1445V95.1431C95.9331 95.1431 96.6893 94.8299 97.2469 94.2723C97.8045 93.7147 98.1178 92.9584 98.1178 92.1699Z" fill="var(--fill-0, white)"/>
<path id="Vector_447" d="M29.7327 98.1201V95.1469H26.7595C26.7595 95.9354 27.0727 96.6917 27.6303 97.2493C28.1879 97.8069 28.9442 98.1201 29.7327 98.1201Z" fill="var(--fill-0, white)"/>
<path id="Vector_448" d="M32.706 95.1449H29.7327V98.1182H32.706V95.1449Z" fill="var(--fill-0, white)"/>
<path id="Vector_449" d="M35.679 95.145H32.7057V98.1182H35.679V95.145Z" fill="var(--fill-0, white)"/>
<path id="Vector_450" d="M38.6525 95.1449H35.6793V98.1182H38.6525V95.1449Z" fill="var(--fill-0, white)"/>
<path id="Vector_451" d="M41.6255 95.145H38.6523V98.1182H41.6255V95.145Z" fill="var(--fill-0, white)"/>
<path id="Vector_452" d="M44.5988 95.145H41.6256V98.1182C42.016 98.1182 42.4027 98.0413 42.7634 97.8919C43.1241 97.7425 43.4519 97.5235 43.728 97.2474C44.0041 96.9713 44.2231 96.6435 44.3725 96.2828C44.5219 95.9221 44.5988 95.5354 44.5988 95.145Z" fill="var(--fill-0, white)"/>
<path id="Vector_453" d="M59.4655 95.145H56.4922V96.6316C56.4922 97.0259 56.6488 97.404 56.9276 97.6828C57.2064 97.9616 57.5846 98.1182 57.9788 98.1182C58.3731 98.1182 58.7512 97.9616 59.03 97.6828C59.3088 97.404 59.4655 97.0259 59.4655 96.6316" fill="var(--fill-0, white)"/>
<path id="Vector_454" d="M72.8447 98.1182C73.6657 98.1182 74.3313 97.4527 74.3313 96.6316C74.3313 95.8106 73.6657 95.145 72.8447 95.145C72.0236 95.145 71.358 95.8106 71.358 96.6316C71.358 97.4527 72.0236 98.1182 72.8447 98.1182Z" fill="var(--fill-0, white)"/>
<path id="Vector_455" d="M80.2781 98.1201V95.1469H77.3049C77.3049 95.9354 77.6181 96.6917 78.1757 97.2493C78.7333 97.8069 79.4896 98.1201 80.2781 98.1201Z" fill="var(--fill-0, white)"/>
<path id="Vector_456" d="M83.2513 95.1449H80.278V98.1182H83.2513V95.1449Z" fill="var(--fill-0, white)"/>
<path id="Vector_457" d="M86.2244 95.145H83.2511V98.1182H86.2244V95.145Z" fill="var(--fill-0, white)"/>
<path id="Vector_458" d="M86.2247 95.145V98.1182H87.7113C88.1056 98.1182 88.4837 97.9616 88.7625 97.6828C89.0413 97.404 89.1979 97.0259 89.1979 96.6316C89.1979 96.2373 89.0413 95.8592 88.7625 95.5804C88.4837 95.3016 88.1056 95.145 87.7113 95.145" fill="var(--fill-0, white)"/>
</g>
</mask>
<g mask="url(#mask0_0_1155)">
<path id="Vector_459" d="M102.875 -4.15592H-4.16179V102.881H102.875V-4.15592Z" fill="var(--fill-0, white)"/>
</g>
</g>
</svg>
