<svg width="17" height="22" viewBox="0 0 17 22" fill="none" xmlns="http://www.w3.org/2000/svg">
<path d="M14.1989 11.6478C14.1751 9.07403 16.3603 7.82189 16.4603 7.76359C15.2227 6.00436 13.3045 5.764 12.6304 5.74483C11.0194 5.57953 9.45667 6.68474 8.636 6.68474C7.79894 6.68474 6.53517 5.7608 5.17311 5.78795C3.42037 5.81431 1.78066 6.80372 0.881362 8.34015C-0.974575 11.4729 0.409597 16.0766 2.18773 18.6088C3.0772 19.849 4.11656 21.2337 5.47698 21.185C6.80791 21.1315 7.30507 20.3577 8.9112 20.3577C10.5026 20.3577 10.9694 21.185 12.3569 21.1539C13.7853 21.1315 14.6846 19.9081 15.5429 18.6568C16.5708 17.2353 16.9836 15.8354 17 15.7636C16.9664 15.7524 14.2259 14.7326 14.1989 11.6478Z" fill="white"/>
<path d="M11.578 4.07903C12.2938 3.20621 12.7836 2.01875 12.6476 0.813721C11.6116 0.85844 10.3158 1.51246 9.5697 2.36612C8.90956 3.11837 8.31985 4.35134 8.47219 5.51085C9.63604 5.5955 10.831 4.93829 11.578 4.07903Z" fill="white"/>
</svg>
