<svg width="181" height="52" viewBox="0 0 181 52" fill="none" xmlns="http://www.w3.org/2000/svg">
<path d="M179.624 46.0024C179.624 48.7735 177.333 51.0182 174.498 51.0182H6.75645C3.92352 51.0182 1.62402 48.7735 1.62402 46.0024V6.00284C1.62402 3.23301 3.92352 0.980469 6.75645 0.980469H174.497C177.333 0.980469 179.623 3.23301 179.623 6.00284L179.624 46.0024Z" fill="black"/>
<path d="M173.957 1.04162C177.044 1.04162 179.556 3.4905 179.556 6.5V45.5C179.556 48.5095 177.044 50.9584 173.957 50.9584H7.29069C4.20402 50.9584 1.69236 48.5095 1.69236 45.5V6.5C1.69236 3.4905 4.20402 1.04162 7.29069 1.04162H173.957ZM173.957 2.74817e-06H7.29069C3.62569 2.74817e-06 0.624023 2.92663 0.624023 6.5V45.5C0.624023 49.0734 3.62569 52 7.29069 52H173.957C177.622 52 180.624 49.0734 180.624 45.5V6.5C180.624 2.92663 177.622 2.74817e-06 173.957 2.74817e-06Z" fill="#A6A6A6"/>
<path d="M40.7955 25.7192C40.7568 21.5293 44.3141 19.4909 44.4768 19.396C42.4621 16.5321 39.3395 16.1408 38.2421 16.1096C35.6195 15.8405 33.0755 17.6397 31.7395 17.6397C30.3768 17.6397 28.3195 16.1356 26.1021 16.1798C23.2488 16.2227 20.5795 17.8334 19.1155 20.3346C16.0941 25.4345 18.3475 32.929 21.2421 37.0513C22.6901 39.0702 24.3821 41.3244 26.5968 41.2451C28.7635 41.158 29.5728 39.8983 32.1875 39.8983C34.7781 39.8983 35.5381 41.2451 37.7968 41.1944C40.1221 41.158 41.5861 39.1664 42.9835 37.1293C44.6568 34.8153 45.3288 32.5364 45.3555 32.4194C45.3008 32.4012 40.8395 30.7411 40.7955 25.7192Z" fill="white"/>
<path d="M36.5288 13.3978C37.6941 11.9769 38.4915 10.0438 38.2701 8.08208C36.5835 8.15488 34.4741 9.21958 33.2595 10.6093C32.1848 11.8339 31.2248 13.8411 31.4728 15.7287C33.3675 15.8665 35.3128 14.7966 36.5288 13.3978Z" fill="white"/>
<path d="M72.1507 40.9547H69.1227L67.464 35.873H61.6987L60.1187 40.9547H57.1707L62.8827 23.6543H66.4107L72.1507 40.9547ZM66.964 33.741L65.464 29.2235C65.3053 28.762 65.008 27.6752 64.5693 25.9644H64.516C64.3413 26.7002 64.06 27.787 63.6733 29.2235L62.2 33.741H66.964Z" fill="white"/>
<path d="M86.8396 34.5628C86.8396 36.6844 86.2516 38.3614 85.0756 39.5925C84.0223 40.6884 82.7143 41.2357 81.153 41.2357C79.4676 41.2357 78.257 40.6455 77.5196 39.4651H77.4663V46.0366H74.6236V32.5855C74.6236 31.2517 74.5876 29.8828 74.5183 28.4788H77.0183L77.177 30.4561H77.2303C78.1783 28.9663 79.617 28.2227 81.5476 28.2227C83.057 28.2227 84.317 28.8038 85.325 29.9673C86.3356 31.1321 86.8396 32.6635 86.8396 34.5628ZM83.9436 34.6642C83.9436 33.45 83.6636 32.449 83.101 31.6612C82.4863 30.8396 81.661 30.4288 80.6263 30.4288C79.925 30.4288 79.2876 30.6576 78.7183 31.1087C78.1476 31.5637 77.7743 32.1578 77.5996 32.8936C77.5116 33.2368 77.4676 33.5176 77.4676 33.7386V35.8186C77.4676 36.726 77.753 37.4917 78.3236 38.117C78.8943 38.7423 79.6356 39.0543 80.5476 39.0543C81.6183 39.0543 82.4516 38.6513 83.0476 37.8479C83.645 37.0432 83.9436 35.9824 83.9436 34.6642Z" fill="white"/>
<path d="M101.555 34.5628C101.555 36.6844 100.967 38.3614 99.7898 39.5925C98.7378 40.6884 97.4298 41.2357 95.8684 41.2357C94.1831 41.2357 92.9724 40.6455 92.2364 39.4651H92.1831V46.0366H89.3404V32.5855C89.3404 31.2517 89.3044 29.8828 89.2351 28.4788H91.7351L91.8938 30.4561H91.9471C92.8938 28.9663 94.3324 28.2227 96.2644 28.2227C97.7724 28.2227 99.0324 28.8038 100.043 29.9673C101.05 31.1321 101.555 32.6635 101.555 34.5628ZM98.6591 34.6642C98.6591 33.45 98.3778 32.449 97.8151 31.6612C97.2004 30.8396 96.3778 30.4288 95.3418 30.4288C94.6391 30.4288 94.0031 30.6576 93.4324 31.1087C92.8618 31.5637 92.4898 32.1578 92.3151 32.8936C92.2284 33.2368 92.1831 33.5176 92.1831 33.7386V35.8186C92.1831 36.726 92.4684 37.4917 93.0364 38.117C93.6071 38.741 94.3484 39.0543 95.2631 39.0543C96.3338 39.0543 97.1671 38.6513 97.7631 37.8479C98.3604 37.0432 98.6591 35.9824 98.6591 34.6642Z" fill="white"/>
<path d="M118.009 36.1027C118.009 37.5743 117.485 38.7716 116.433 39.6959C115.277 40.706 113.667 41.2104 111.599 41.2104C109.69 41.2104 108.159 40.8516 107.001 40.1327L107.659 37.8226C108.907 38.5584 110.277 38.9276 111.769 38.9276C112.839 38.9276 113.673 38.691 114.271 38.2204C114.867 37.7498 115.165 37.118 115.165 36.3302C115.165 35.6282 114.919 35.0367 114.427 34.557C113.938 34.0773 113.121 33.6314 111.979 33.2193C108.873 32.0896 107.321 30.4347 107.321 28.2585C107.321 26.8363 107.865 25.6702 108.954 24.7628C110.039 23.8541 111.487 23.4004 113.298 23.4004C114.913 23.4004 116.254 23.6747 117.325 24.222L116.614 26.4814C115.614 25.951 114.483 25.6858 113.218 25.6858C112.218 25.6858 111.437 25.9263 110.877 26.4047C110.403 26.8324 110.166 27.3537 110.166 27.9712C110.166 28.655 110.437 29.2205 110.981 29.6651C111.454 30.0759 112.314 30.5205 113.562 31.0002C115.089 31.5995 116.21 32.3002 116.931 33.1036C117.65 33.9044 118.009 34.9067 118.009 36.1027Z" fill="white"/>
<path d="M127.408 30.5595H124.275V36.6162C124.275 38.1567 124.827 38.9263 125.933 38.9263C126.441 38.9263 126.863 38.8834 127.196 38.7976L127.275 40.9023C126.715 41.1064 125.977 41.2091 125.064 41.2091C123.941 41.2091 123.064 40.875 122.431 40.2081C121.8 39.5399 121.483 38.4193 121.483 36.845V30.5569H119.616V28.4769H121.483V26.1928L124.275 25.3712V28.4769H127.408V30.5595Z" fill="white"/>
<path d="M141.544 34.6142C141.544 36.5317 140.982 38.106 139.859 39.3371C138.682 40.6046 137.119 41.2364 135.171 41.2364C133.294 41.2364 131.799 40.6293 130.684 39.4151C129.57 38.2009 129.012 36.6682 129.012 34.8209C129.012 32.8878 129.586 31.3044 130.736 30.0733C131.884 28.8409 133.434 28.2247 135.382 28.2247C137.259 28.2247 138.77 28.8318 139.91 30.0473C141 31.2264 141.544 32.7487 141.544 34.6142ZM138.595 34.7039C138.595 33.5534 138.343 32.5667 137.832 31.7438C137.236 30.748 136.384 30.2514 135.28 30.2514C134.138 30.2514 133.27 30.7493 132.674 31.7438C132.163 32.568 131.911 33.5703 131.911 34.7559C131.911 35.9064 132.163 36.8931 132.674 37.7147C133.288 38.7105 134.147 39.2071 135.255 39.2071C136.34 39.2071 137.192 38.7001 137.807 37.6887C138.331 36.8502 138.595 35.8531 138.595 34.7039Z" fill="white"/>
<path d="M150.785 30.9163C150.504 30.8656 150.204 30.8396 149.889 30.8396C148.889 30.8396 148.116 31.2075 147.572 31.9446C147.099 32.5946 146.861 33.4162 146.861 34.4081V40.9536H144.02L144.047 32.4074C144.047 30.9696 144.011 29.6605 143.94 28.4801H146.416L146.52 30.8669H146.599C146.899 30.0466 147.372 29.3862 148.02 28.8909C148.653 28.445 149.337 28.2227 150.075 28.2227C150.337 28.2227 150.575 28.2409 150.785 28.2734V30.9163Z" fill="white"/>
<path d="M163.498 34.1259C163.498 34.6225 163.465 35.0411 163.394 35.383H154.866C154.9 36.6154 155.312 37.5579 156.104 38.2079C156.822 38.789 157.752 39.0802 158.893 39.0802C160.156 39.0802 161.308 38.8839 162.344 38.49L162.789 40.414C161.578 40.9288 160.149 41.1849 158.5 41.1849C156.516 41.1849 154.958 40.6155 153.825 39.478C152.694 38.3405 152.128 36.813 152.128 34.8968C152.128 33.0157 152.654 31.4492 153.709 30.1999C154.813 28.8661 156.305 28.1992 158.182 28.1992C160.026 28.1992 161.422 28.8661 162.37 30.1999C163.121 31.2594 163.498 32.5698 163.498 34.1259ZM160.788 33.407C160.806 32.5854 160.621 31.8756 160.236 31.2763C159.744 30.5054 158.988 30.1206 157.97 30.1206C157.041 30.1206 156.285 30.4963 155.708 31.2503C155.234 31.8496 154.953 32.5685 154.866 33.4057H160.788V33.407Z" fill="white"/>
<path d="M66.0237 13.0124C66.0237 14.5425 65.5531 15.6943 64.6131 16.4678C63.7424 17.1815 62.5051 17.539 60.9024 17.539C60.1077 17.539 59.4277 17.5052 58.8584 17.4376V9.07725C59.6011 8.96025 60.4011 8.90045 61.2651 8.90045C62.7917 8.90045 63.9424 9.22415 64.7184 9.87155C65.5877 10.6035 66.0237 11.65 66.0237 13.0124ZM64.5504 13.0501C64.5504 12.0582 64.2811 11.2977 63.7424 10.7673C63.2037 10.2382 62.4171 9.97295 61.3811 9.97295C60.9411 9.97295 60.5664 10.0016 60.2557 10.0614V16.4171C60.4277 16.4431 60.7424 16.4548 61.1997 16.4548C62.2691 16.4548 63.0944 16.1649 63.6757 15.5851C64.2571 15.0053 64.5504 14.1603 64.5504 13.0501Z" fill="white"/>
<path d="M73.8367 14.3491C73.8367 15.2916 73.5607 16.0638 73.0087 16.6696C72.43 17.2923 71.6633 17.603 70.706 17.603C69.7833 17.603 69.0487 17.3053 68.5007 16.7073C67.954 16.1106 67.6807 15.3579 67.6807 14.4505C67.6807 13.5015 67.962 12.7228 68.5273 12.1183C69.0927 11.5138 69.8527 11.2109 70.81 11.2109C71.7327 11.2109 72.474 11.5086 73.0353 12.1053C73.5687 12.6851 73.8367 13.4339 73.8367 14.3491ZM72.3873 14.3933C72.3873 13.8278 72.262 13.3429 72.0127 12.9386C71.7193 12.4498 71.302 12.2054 70.7593 12.2054C70.198 12.2054 69.7713 12.4498 69.478 12.9386C69.2273 13.3429 69.1033 13.8356 69.1033 14.418C69.1033 14.9835 69.2287 15.4684 69.478 15.8727C69.7807 16.3615 70.202 16.6059 70.746 16.6059C71.2793 16.6059 71.698 16.3576 71.9993 15.8597C72.258 15.4476 72.3873 14.9588 72.3873 14.3933Z" fill="white"/>
<path d="M84.3108 11.3359L82.3441 17.4641H81.0641L80.2494 14.803C80.0428 14.1387 79.8748 13.4783 79.7441 12.8231H79.7188C79.5974 13.4965 79.4294 14.1556 79.2134 14.803L78.3481 17.4641H77.0534L75.2041 11.3359H76.6401L77.3508 14.2492C77.5228 14.9382 77.6641 15.5947 77.7774 16.2161H77.8028C77.9068 15.7039 78.0788 15.0513 78.3214 14.2622L79.2134 11.3372H80.3521L81.2068 14.1998C81.4134 14.8979 81.5814 15.57 81.7108 16.2174H81.7494C81.8441 15.5869 81.9868 14.9148 82.1761 14.1998L82.9388 11.3372H84.3108V11.3359Z" fill="white"/>
<path d="M91.5552 17.4639H90.1579V13.9539C90.1579 12.8723 89.7366 12.3315 88.8912 12.3315C88.4766 12.3315 88.1419 12.4797 87.8819 12.7774C87.6246 13.0751 87.4939 13.4261 87.4939 13.8278V17.4626H86.0966V13.0868C86.0966 12.5486 86.0792 11.9649 86.0459 11.3331H87.2739L87.3392 12.2912H87.3779C87.5406 11.9935 87.7832 11.7478 88.1019 11.5515C88.4806 11.3227 88.9046 11.207 89.3686 11.207C89.9552 11.207 90.4432 11.3916 90.8312 11.7621C91.3139 12.2158 91.5552 12.8931 91.5552 13.7927V17.4639Z" fill="white"/>
<path d="M95.4087 17.4635H94.0127V8.52344H95.4087V17.4635Z" fill="white"/>
<path d="M103.634 14.3491C103.634 15.2916 103.358 16.0638 102.806 16.6696C102.227 17.2923 101.459 17.603 100.503 17.603C99.5789 17.603 98.8442 17.3053 98.2975 16.7073C97.7509 16.1106 97.4775 15.3579 97.4775 14.4505C97.4775 13.5015 97.7589 12.7228 98.3242 12.1183C98.8895 11.5138 99.6495 11.2109 100.606 11.2109C101.53 11.2109 102.27 11.5086 102.832 12.1053C103.366 12.6851 103.634 13.4339 103.634 14.3491ZM102.183 14.3933C102.183 13.8278 102.058 13.3429 101.808 12.9386C101.516 12.4498 101.098 12.2054 100.556 12.2054C99.9935 12.2054 99.5669 12.4498 99.2749 12.9386C99.0242 13.3429 98.9002 13.8356 98.9002 14.418C98.9002 14.9835 99.0255 15.4684 99.2749 15.8727C99.5775 16.3615 99.9989 16.6059 100.543 16.6059C101.076 16.6059 101.494 16.3576 101.795 15.8597C102.055 15.4476 102.183 14.9588 102.183 14.3933Z" fill="white"/>
<path d="M110.397 17.4639H109.142L109.038 16.758H109C108.57 17.3209 107.958 17.603 107.164 17.603C106.57 17.603 106.09 17.4171 105.729 17.0479C105.401 16.7125 105.237 16.2952 105.237 15.7999C105.237 15.0511 105.557 14.4804 106.201 14.0852C106.844 13.69 107.748 13.4963 108.912 13.5054V13.391C108.912 12.5837 108.477 12.1807 107.606 12.1807C106.986 12.1807 106.44 12.3328 105.968 12.6344L105.684 11.74C106.268 11.3877 106.989 11.2109 107.84 11.2109C109.482 11.2109 110.306 12.0559 110.306 13.7459V16.0027C110.306 16.615 110.337 17.1025 110.397 17.4639ZM108.946 15.3579V14.4128C107.405 14.3868 106.634 14.7989 106.634 15.6478C106.634 15.9676 106.722 16.2068 106.902 16.3667C107.082 16.5266 107.312 16.6059 107.585 16.6059C107.892 16.6059 108.178 16.511 108.44 16.3225C108.702 16.1327 108.864 15.8922 108.924 15.5971C108.938 15.5308 108.946 15.4502 108.946 15.3579Z" fill="white"/>
<path d="M118.337 17.4635H117.097L117.032 16.4794H116.993C116.597 17.2282 115.922 17.6026 114.974 17.6026C114.217 17.6026 113.586 17.3127 113.086 16.7329C112.586 16.1531 112.337 15.4004 112.337 14.4761C112.337 13.4842 112.608 12.6808 113.152 12.0672C113.678 11.4952 114.324 11.2092 115.092 11.2092C115.936 11.2092 116.526 11.4861 116.862 12.0412H116.889V8.52344H118.288V15.8125C118.288 16.4092 118.304 16.9591 118.337 17.4635ZM116.889 14.8791V13.8573C116.889 13.6805 116.876 13.5375 116.85 13.4283C116.772 13.1007 116.602 12.8251 116.345 12.6028C116.085 12.3805 115.772 12.2687 115.41 12.2687C114.889 12.2687 114.481 12.4702 114.181 12.8745C113.884 13.2788 113.733 13.7949 113.733 14.4254C113.733 15.0312 113.876 15.5226 114.162 15.9009C114.465 16.3039 114.873 16.5054 115.384 16.5054C115.842 16.5054 116.209 16.3377 116.488 16.001C116.757 15.6903 116.889 15.3159 116.889 14.8791Z" fill="white"/>
<path d="M130.288 14.3491C130.288 15.2916 130.012 16.0638 129.46 16.6696C128.881 17.2923 128.116 17.603 127.157 17.603C126.236 17.603 125.501 17.3053 124.952 16.7073C124.405 16.1106 124.132 15.3579 124.132 14.4505C124.132 13.5015 124.413 12.7228 124.979 12.1183C125.544 11.5138 126.304 11.2109 127.262 11.2109C128.184 11.2109 128.927 11.5086 129.487 12.1053C130.02 12.6851 130.288 13.4339 130.288 14.3491ZM128.84 14.3933C128.84 13.8278 128.714 13.3429 128.465 12.9386C128.17 12.4498 127.755 12.2054 127.211 12.2054C126.651 12.2054 126.224 12.4498 125.929 12.9386C125.679 13.3429 125.555 13.8356 125.555 14.418C125.555 14.9835 125.68 15.4684 125.929 15.8727C126.232 16.3615 126.653 16.6059 127.197 16.6059C127.731 16.6059 128.151 16.3576 128.452 15.8597C128.709 15.4476 128.84 14.9588 128.84 14.3933Z" fill="white"/>
<path d="M137.802 17.4639H136.406V13.9539C136.406 12.8723 135.985 12.3315 135.138 12.3315C134.723 12.3315 134.389 12.4797 134.13 12.7774C133.871 13.0751 133.742 13.4261 133.742 13.8278V17.4626H132.343V13.0868C132.343 12.5486 132.327 11.9649 132.294 11.3331H133.521L133.586 12.2912H133.625C133.789 11.9935 134.031 11.7478 134.349 11.5515C134.729 11.3227 135.151 11.207 135.617 11.207C136.202 11.207 136.69 11.3916 137.078 11.7621C137.562 12.2158 137.802 12.8931 137.802 13.7927V17.4639Z" fill="white"/>
<path d="M147.206 12.3553H145.667V15.3323C145.667 16.0889 145.941 16.4672 146.482 16.4672C146.733 16.4672 146.941 16.4464 147.105 16.4035L147.141 17.437C146.865 17.5384 146.502 17.5891 146.055 17.5891C145.503 17.5891 145.074 17.4253 144.763 17.0977C144.451 16.7701 144.297 16.2189 144.297 15.4454V12.3553H143.378V11.3348H144.297V10.2116L145.666 9.80859V11.3335H147.205V12.3553H147.206Z" fill="white"/>
<path d="M154.602 17.4635H153.204V13.9795C153.204 12.881 152.782 12.3311 151.938 12.3311C151.29 12.3311 150.848 12.6496 150.605 13.2866C150.564 13.4205 150.54 13.5843 150.54 13.7767V17.4622H149.144V8.52344H150.54V12.2167H150.566C151.006 11.5446 151.637 11.2092 152.454 11.2092C153.033 11.2092 153.512 11.3938 153.892 11.7643C154.365 12.2258 154.602 12.9122 154.602 13.8196V17.4635Z" fill="white"/>
<path d="M162.234 14.1099C162.234 14.3543 162.215 14.5597 162.182 14.7274H157.991C158.01 15.3332 158.21 15.7947 158.598 16.1145C158.952 16.4005 159.41 16.5435 159.97 16.5435C160.59 16.5435 161.155 16.4473 161.664 16.2536L161.883 17.2C161.287 17.4522 160.586 17.5783 159.774 17.5783C158.8 17.5783 158.034 17.2988 157.479 16.7398C156.922 16.1808 156.646 15.4307 156.646 14.4895C156.646 13.5652 156.903 12.7956 157.422 12.182C157.963 11.5268 158.695 11.1992 159.619 11.1992C160.523 11.1992 161.21 11.5268 161.674 12.182C162.048 12.702 162.234 13.3455 162.234 14.1099ZM160.9 13.7576C160.911 13.3533 160.819 13.0049 160.63 12.7111C160.387 12.3328 160.018 12.143 159.518 12.143C159.062 12.143 158.69 12.3276 158.406 12.6981C158.174 12.9932 158.036 13.3455 157.991 13.7576H160.9Z" fill="white"/>
</svg>
