<svg width="24" height="24" viewBox="0 0 24 24" fill="none" xmlns="http://www.w3.org/2000/svg">
<path d="M11.9998 5.00005C12.001 4.60008 11.9222 4.20391 11.768 3.83485C11.6139 3.46579 11.3874 3.13128 11.1021 2.851C10.8168 2.57072 10.4783 2.35032 10.1065 2.20278C9.73472 2.05524 9.33721 1.98353 8.93733 1.99186C8.53744 2.0002 8.14326 2.08841 7.77797 2.25132C7.41268 2.41422 7.08365 2.64853 6.81023 2.94045C6.53682 3.23238 6.32454 3.57604 6.18588 3.9512C6.04722 4.32637 5.98499 4.72548 6.00283 5.12505M11.9998 5.00005V18M11.9998 5.00005C11.9987 4.60008 12.0774 4.20391 12.2316 3.83485C12.3857 3.46579 12.6122 3.13128 12.8975 2.851C13.1828 2.57072 13.5213 2.35032 13.8931 2.20278C14.2649 2.05524 14.6624 1.98353 15.0623 1.99186C15.4622 2.0002 15.8563 2.08841 16.2216 2.25132C16.5869 2.41422 16.916 2.64853 17.1894 2.94045C17.4628 3.23238 17.6751 3.57604 17.8137 3.9512C17.9524 4.32637 18.0146 4.72548 17.9968 5.12505C18.5846 5.27619 19.1303 5.5591 19.5925 5.95236C20.0548 6.34562 20.4215 6.83892 20.6649 7.3949C20.9083 7.95087 21.022 8.55494 20.9974 9.16136C20.9728 9.76778 20.8105 10.3606 20.5228 10.8951M6.00283 5.12505C5.41503 5.27619 4.86933 5.5591 4.40706 5.95236C3.94479 6.34562 3.57807 6.83892 3.33467 7.3949C3.09128 7.95087 2.97759 8.55494 3.00222 9.16136C3.02685 9.76778 3.18915 10.3606 3.47683 10.8951M6.00283 5.12505C6.02261 5.60878 6.15901 6.0805 6.40069 6.5M3.47683 10.8951C2.97101 11.306 2.57326 11.8343 2.31817 12.434C2.06308 13.0337 1.95839 13.6866 2.01319 14.336C2.068 14.9854 2.28065 15.6116 2.63264 16.1601C2.98462 16.7085 3.46529 17.1627 4.03283 17.4831M3.47683 10.8951C3.65977 10.7461 3.85551 10.6145 4.06181 10.5M4.03283 17.4831C3.96275 18.0253 4.00457 18.5761 4.15572 19.1016C4.30686 19.627 4.56413 20.1159 4.91161 20.538C5.2591 20.9601 5.68944 21.3065 6.17605 21.5558C6.66266 21.8051 7.19521 21.952 7.74081 21.9874C8.28641 22.0228 8.83347 21.946 9.34822 21.7617C9.86296 21.5774 10.3345 21.2895 10.7336 20.9158C11.1327 20.5421 11.451 20.0906 11.6688 19.5891C11.8866 19.0876 11.9992 18.5468 11.9998 18M4.03283 17.4831C4.6331 17.8216 5.31054 18.0002 5.99971 17.9999M11.9998 18C12.0004 18.5468 12.113 19.0876 12.3308 19.5891C12.5486 20.0906 12.8669 20.5421 13.266 20.9158C13.6651 21.2895 14.1366 21.5774 14.6514 21.7617C15.1661 21.946 15.7132 22.0228 16.2588 21.9874C16.8044 21.952 17.3369 21.8051 17.8235 21.5558C18.3102 21.3065 18.7405 20.9601 19.088 20.538C19.4355 20.1159 19.6927 19.627 19.8439 19.1016C19.995 18.5761 20.0369 18.0253 19.9668 17.4831M20.5228 10.8951C21.0286 11.306 21.4263 11.8343 21.6814 12.434C21.9365 13.0337 22.0412 13.6866 21.9864 14.336C21.9316 14.9854 21.719 15.6116 21.367 16.1601C21.015 16.7085 20.5343 17.1627 19.9668 17.4831M20.5228 10.8951C20.3398 10.7461 20.144 10.6145 19.9377 10.5M19.9668 17.4831C19.3665 17.8216 18.6889 18.0002 17.9998 17.9999M14.9998 13C14.1602 12.7047 13.4271 12.167 12.8931 11.455C12.3591 10.743 12.0482 9.88867 11.9998 9C11.9513 9.88867 11.6404 10.743 11.1064 11.455C10.5724 12.167 9.83931 12.7047 8.99976 13M17.5989 6.5C17.8409 6.08059 17.9778 5.60882 17.9979 5.125" stroke="#4879FD" stroke-width="2" stroke-linecap="round" stroke-linejoin="round"/>
</svg>
