<svg width="571" height="358" viewBox="0 0 571 358" fill="none" xmlns="http://www.w3.org/2000/svg">
<g filter="url(#filter0_d_3_2052)" transform="scale(1.25 1.3)">
<mask id="path-1-outside-1_3_2052" maskUnits="userSpaceOnUse" x="21" y="17" width="411" height="256" fill="black">
<rect fill="white" x="21" y="17" width="411" height="256"/>
<path d="M411 18C422.046 18 431 26.9543 431 38V226C431 237.046 422.046 246 411 246H244.321C243.606 246 242.946 246.381 242.589 247L228.732 271C227.962 272.333 226.038 272.333 225.268 271L211.411 247C211.054 246.381 210.394 246 209.679 246H42C30.9543 246 22 237.046 22 226V38C22 26.9543 30.9543 18 42 18H411Z"/>
</mask>
<path d="M411 18C422.046 18 431 26.9543 431 38V226C431 237.046 422.046 246 411 246H244.321C243.606 246 242.946 246.381 242.589 247L228.732 271C227.962 272.333 226.038 272.333 225.268 271L211.411 247C211.054 246.381 210.394 246 209.679 246H42C30.9543 246 22 237.046 22 226V38C22 26.9543 30.9543 18 42 18H411Z" fill="url(#paint0_linear_3_2052)" shape-rendering="crispEdges"/>
<path d="M411 18V17V18ZM431 38H432H431ZM431 226H432H431ZM42 246V247V246ZM22 226H21H22ZM22 38H21H22ZM211.411 247L210.545 247.5L211.411 247ZM228.732 271L229.598 271.5L228.732 271ZM225.268 271L224.402 271.5L225.268 271ZM242.589 247L243.455 247.5L242.589 247ZM411 18V19C421.493 19 430 27.5066 430 38H431H432C432 26.402 422.598 17 411 17V18ZM431 38H430V226H431H432V38H431ZM431 226H430C430 236.493 421.493 245 411 245V246V247C422.598 247 432 237.598 432 226H431ZM411 246V245H244.321V246V247H411V246ZM242.589 247L241.723 246.5L227.866 270.5L228.732 271L229.598 271.5L243.455 247.5L242.589 247ZM225.268 271L226.134 270.5L212.277 246.5L211.411 247L210.545 247.5L224.402 271.5L225.268 271ZM209.679 246V245H42V246V247H209.679V246ZM42 246V245C31.5066 245 23 236.493 23 226H22H21C21 237.598 30.402 247 42 247V246ZM22 226H23V38H22H21V226H22ZM22 38H23C23 27.5066 31.5066 19 42 19V18V17C30.402 17 21 26.402 21 38H22ZM42 18V19H411V18V17H42V18ZM211.411 247L212.277 246.5C211.741 245.572 210.751 245 209.679 245V246V247C210.037 247 210.367 247.191 210.545 247.5L211.411 247ZM228.732 271L227.866 270.5C227.481 271.167 226.519 271.167 226.134 270.5L225.268 271L224.402 271.5C225.557 273.5 228.443 273.5 229.598 271.5L228.732 271ZM244.321 246V245C243.249 245 242.259 245.572 241.723 246.5L242.589 247L243.455 247.5C243.633 247.191 243.963 247 244.321 247V246Z" fill="url(#paint1_linear_3_2052)" mask="url(#path-1-outside-1_3_2052)"/>
</g>
<defs>
<filter id="filter0_d_3_2052" x="0.9" y="0.9" width="451.2" height="296.2" filterUnits="userSpaceOnUse" color-interpolation-filters="sRGB">
<feFlood flood-opacity="0" result="BackgroundImageFix"/>
<feColorMatrix in="SourceAlpha" type="matrix" values="0 0 0 0 0 0 0 0 0 0 0 0 0 0 0 0 0 0 127 0" result="hardAlpha"/>
<feOffset dy="4"/>
<feGaussianBlur stdDeviation="10.05"/>
<feComposite in2="hardAlpha" operator="out"/>
<feColorMatrix type="matrix" values="0 0 0 0 0.13125 0 0 0 0 0.333397 0 0 0 0 0.875 0 0 0 0.28 0"/>
<feBlend mode="normal" in2="BackgroundImageFix" result="effect1_dropShadow_3_2052"/>
<feBlend mode="normal" in="SourceGraphic" in2="effect1_dropShadow_3_2052" result="shape"/>
</filter>
<linearGradient id="paint0_linear_3_2052" x1="226.5" y1="18" x2="226.5" y2="272" gradientUnits="userSpaceOnUse">
<stop stop-color="#061B3A"/>
<stop offset="1" stop-color="#061B3A" stop-opacity="0"/>
</linearGradient>
<linearGradient id="paint1_linear_3_2052" x1="14.9656" y1="153.176" x2="431" y2="152.25" gradientUnits="userSpaceOnUse">
<stop stop-color="#133182"/>
<stop offset="0.519999" stop-color="#2155DF"/>
<stop offset="1" stop-color="#122E79"/>
</linearGradient>
</defs>
</svg>
