<svg preserveAspectRatio="none" width="100%" height="100%" overflow="visible" style="display: block;" viewBox="0 0 16 16" fill="none" xmlns="http://www.w3.org/2000/svg">
<g id="Frame">
<path id="Vector" fill-rule="evenodd" clip-rule="evenodd" d="M12.6641 13.5042C12.6641 14.5167 11.8432 15.3375 10.8307 15.3375L5.16406 15.3375C4.15153 15.3375 3.33073 14.5167 3.33073 13.5042L3.33073 2.50417C3.33073 1.49163 4.15153 0.670833 5.16406 0.670833L10.8307 0.670833C11.8432 0.670833 12.6641 1.49163 12.6641 2.50417L12.6641 13.5042ZM9.4974 3.67083C9.77354 3.67083 9.9974 3.44697 9.9974 3.17083C9.9974 2.8947 9.77354 2.67083 9.4974 2.67083H6.4974C6.22126 2.67083 5.9974 2.8947 5.9974 3.17083C5.9974 3.44697 6.22126 3.67083 6.4974 3.67083H9.4974Z" fill="#2662FF"/>
</g>
</svg>
