<svg width="19" height="19" viewBox="0 0 19 19" fill="none" xmlns="http://www.w3.org/2000/svg">
<g clip-path="url(#clip0_2084_266)">
<path fill-rule="evenodd" clip-rule="evenodd" d="M14.907 0H4.09327C2.01919 0.00555013 0.339076 1.68552 0.333496 3.75977L0.333568 14.5737C0.339082 16.6477 2.01909 18.3278 4.09327 18.3333L14.9072 18.3333C16.9813 18.3278 18.6613 16.6477 18.6668 14.5735V3.75962C18.6613 1.68552 16.9813 0.00555013 14.907 0ZM11.1393 4.75321C11.9693 4.89366 12.7772 5.14209 13.5427 5.49216C14.8608 7.4195 15.5158 9.5933 15.274 12.1014C14.3832 12.7599 13.3856 13.2602 12.325 13.5802C12.0863 13.2597 11.8751 12.9194 11.6937 12.5633C12.0392 12.4343 12.3725 12.2751 12.69 12.0874C12.6076 12.0316 12.526 11.9693 12.4463 11.9042C11.5251 12.337 10.5186 12.5626 9.50016 12.5626C8.48175 12.5626 7.47518 12.337 6.55401 11.9043C6.47523 11.9648 6.3937 12.027 6.31034 12.0875C6.62714 12.2748 6.95993 12.4336 7.30478 12.5621C7.12403 12.9175 6.91115 13.259 6.6735 13.5798C5.61379 13.2587 4.61695 12.7584 3.72627 12.1005C3.52017 9.93774 3.93238 7.74377 5.45344 5.49363C6.21931 5.14381 7.02734 4.89489 7.85729 4.75309C7.97062 4.95541 8.07505 5.16584 8.16496 5.37808C8.60519 5.31255 9.05306 5.27868 9.49879 5.27868C9.9452 5.27884 10.391 5.31235 10.8325 5.37894C10.9238 5.16517 11.0263 4.95631 11.1393 4.75321ZM15.274 12.1014C15.2739 12.1015 15.2741 12.1013 15.274 12.1014V12.1014ZM6.51656 9.60797C6.51656 10.2492 6.99107 10.7705 7.56542 10.7705C8.15083 10.7705 8.60328 10.2492 8.61336 9.60797C8.62345 8.96676 8.15266 8.4409 7.5636 8.4409C6.97457 8.4409 6.51656 8.96676 6.51656 9.60797ZM10.3869 9.60797C10.3869 10.2492 10.8596 10.7705 11.4349 10.7705C12.0202 10.7705 12.4718 10.2492 12.4819 9.60797C12.4919 8.96676 12.0247 8.4409 11.4349 8.4409C10.8448 8.4409 10.3869 8.96676 10.3869 9.60797Z" fill="white"/>
</g>
<defs>
<clipPath id="clip0_2084_266">
<rect width="18.3333" height="18.3333" fill="white" transform="translate(0.333496)"/>
</clipPath>
</defs>
</svg>
