<svg width="25" height="24" viewBox="0 0 25 24" fill="none" xmlns="http://www.w3.org/2000/svg">
<path d="M12.5 12H12.51M16.5 6V4C16.5 3.46957 16.2893 2.96086 15.9142 2.58579C15.5391 2.21071 15.0304 2 14.5 2H10.5C9.96957 2 9.46086 2.21071 9.08579 2.58579C8.71071 2.96086 8.5 3.46957 8.5 4V6M22.5 13C19.5328 14.959 16.0555 16.0033 12.5 16.0033C8.94445 16.0033 5.46721 14.959 2.5 13M4.5 6H20.5C21.6046 6 22.5 6.89543 22.5 8V18C22.5 19.1046 21.6046 20 20.5 20H4.5C3.39543 20 2.5 19.1046 2.5 18V8C2.5 6.89543 3.39543 6 4.5 6Z" stroke="#4879FD" stroke-width="2" stroke-linecap="round" stroke-linejoin="round"/>
</svg>
