<svg width="19" height="19" viewBox="0 0 19 19" fill="none" xmlns="http://www.w3.org/2000/svg">
<g clip-path="url(#clip0_2084_255)">
<path d="M6.61272 14.742C6.48526 14.7657 6.42957 14.8256 6.44554 14.921C6.46143 15.0164 6.53304 15.0483 6.66034 15.0164C6.7878 14.9846 6.84345 14.9288 6.82744 14.8493C6.81163 14.7618 6.74002 14.726 6.61272 14.742Z" fill="white"/>
<path d="M5.93218 14.8391C5.80484 14.8391 5.74121 14.8827 5.74121 14.9704C5.74121 15.0738 5.80889 15.1174 5.94409 15.1016C6.07143 15.1016 6.13515 15.0578 6.13515 14.9704C6.13515 14.8671 6.06746 14.8231 5.93218 14.8391Z" fill="white"/>
<path d="M5.00125 14.8033C4.96948 14.8909 5.02124 14.9504 5.15639 14.9824C5.27575 15.0299 5.35138 15.0061 5.38315 14.9107C5.40706 14.8233 5.35531 14.7598 5.22801 14.7198C5.10861 14.688 5.03307 14.7155 5.00125 14.8033Z" fill="white"/>
<path d="M17.3247 1.01239C16.6523 0.340108 15.8429 0.00390625 14.8958 0.00390625H3.43748C2.49066 0.00390625 1.68093 0.340108 1.00848 1.01239C0.336202 1.68479 0 2.49453 0 3.44139V14.8998C0 15.8467 0.336202 16.6564 1.00848 17.3287C1.68088 18.0011 2.49066 18.3373 3.43748 18.3373H6.11108C6.286 18.3373 6.41739 18.3313 6.50489 18.3196C6.59235 18.3075 6.67981 18.2558 6.76739 18.1642C6.85502 18.0727 6.89866 17.9394 6.89866 17.7644C6.89866 17.7407 6.89657 17.4699 6.89264 16.9527C6.88859 16.4353 6.88662 16.0256 6.88662 15.7232L6.61208 15.7709C6.43704 15.8027 6.21622 15.8167 5.94963 15.8127C5.68316 15.8087 5.40657 15.7809 5.12016 15.7292C4.83358 15.6774 4.56711 15.5581 4.32042 15.3712C4.07385 15.1841 3.89881 14.9395 3.79534 14.6372L3.67594 14.3625C3.59638 14.1797 3.47113 13.9766 3.30002 13.754C3.12891 13.5311 2.95588 13.3799 2.78084 13.3004L2.69727 13.2407C2.64162 13.2009 2.58991 13.1529 2.54212 13.0973C2.49442 13.0415 2.45864 12.9857 2.43477 12.9302C2.4109 12.8744 2.43071 12.8286 2.49442 12.7927C2.55814 12.757 2.67339 12.7392 2.84058 12.7392L3.0792 12.775C3.2384 12.8068 3.43522 12.9022 3.67009 13.0614C3.90478 13.2205 4.09772 13.4274 4.24893 13.6819C4.43204 14.0083 4.65265 14.2567 4.91138 14.4279C5.16991 14.5991 5.43057 14.6847 5.69311 14.6847C5.95565 14.6847 6.1824 14.6648 6.37346 14.6251C6.5643 14.5853 6.74335 14.5254 6.91053 14.4459C6.98215 13.9128 7.17713 13.5028 7.49531 13.2164C7.0418 13.1686 6.63403 13.0971 6.27187 13.0015C5.90991 12.9059 5.53588 12.7509 5.15001 12.5359C4.76398 12.3211 4.44374 12.0547 4.1891 11.7362C3.93451 11.4177 3.72556 11 3.56256 10.4829C3.39948 9.96559 3.31791 9.36873 3.31791 8.69244C3.31791 7.72969 3.63234 6.90997 4.26093 6.23368C3.96645 5.5096 3.99425 4.69807 4.34441 3.79882C4.57518 3.72717 4.9174 3.78093 5.37091 3.95999C5.8245 4.13916 6.15661 4.29238 6.36756 4.41951C6.57851 4.54669 6.74753 4.65421 6.87487 4.74184C7.61505 4.53494 8.37888 4.43151 9.16658 4.43151C9.95424 4.43151 10.7182 4.53494 11.4584 4.74184L11.912 4.45538C12.2224 4.26433 12.5884 4.08929 13.0102 3.93022C13.4319 3.77111 13.7541 3.72729 13.977 3.79895C14.3349 4.69819 14.367 5.50973 14.0723 6.23376C14.7009 6.91013 15.0154 7.72982 15.0154 8.69256C15.0154 9.36898 14.9338 9.96785 14.7707 10.4889C14.6078 11.0101 14.397 11.428 14.1382 11.7423C13.8797 12.0566 13.5574 12.321 13.1715 12.536C12.7855 12.7508 12.4115 12.9061 12.0494 13.0014C11.6873 13.097 11.2796 13.1688 10.8261 13.2166C11.2396 13.5745 11.4464 14.1393 11.4464 14.9113V17.764C11.4464 17.8994 11.4662 18.0087 11.5059 18.0923C11.546 18.1758 11.6095 18.2333 11.697 18.2654C11.7849 18.2971 11.8621 18.317 11.9299 18.3249C11.9978 18.3329 12.095 18.3369 12.2224 18.3369H14.896C15.8428 18.3369 16.6526 18.0007 17.3247 17.3283C17.9971 16.6559 18.3333 15.8461 18.3333 14.8993V3.44139C18.3332 2.49453 17.997 1.68467 17.3247 1.01239Z" fill="white"/>
<path d="M3.62831 13.3491C3.57267 13.3887 3.58061 13.4524 3.65222 13.5399C3.7319 13.6194 3.79549 13.6314 3.84327 13.5757C3.89892 13.536 3.89098 13.4724 3.81924 13.3847C3.73972 13.3132 3.67609 13.3012 3.62831 13.3491Z" fill="white"/>
<path d="M3.23432 13.0492C3.21049 13.105 3.23833 13.1528 3.31789 13.1924C3.38147 13.2323 3.43335 13.2245 3.47303 13.1687C3.49686 13.1129 3.46901 13.0651 3.38946 13.0251C3.3099 13.0012 3.25819 13.0093 3.23432 13.0492Z" fill="white"/>
<path d="M3.9986 13.8145C3.9269 13.8541 3.9269 13.926 3.9986 14.0293C4.07021 14.1328 4.13773 14.1606 4.20148 14.1128C4.27314 14.057 4.27314 13.9814 4.20148 13.8859C4.13789 13.7827 4.07021 13.7586 3.9986 13.8145Z" fill="white"/>
<path d="M4.41657 14.3506C4.34491 14.4144 4.36071 14.4897 4.46431 14.5775C4.55967 14.6728 4.63927 14.6848 4.70294 14.613C4.76665 14.5495 4.75072 14.474 4.65519 14.3865C4.55983 14.2911 4.48024 14.2791 4.41657 14.3506Z" fill="white"/>
</g>
<defs>
<clipPath id="clip0_2084_255">
<rect width="18.3333" height="18.3333" fill="white"/>
</clipPath>
</defs>
</svg>
