<svg width="1126" height="1126" viewBox="0 0 1126 1126" fill="none" xmlns="http://www.w3.org/2000/svg">
<g opacity="0.5" filter="url(#filter0_f_3_2244)">
<circle cx="510.926" cy="510.926" r="510.926" transform="matrix(-1 0 0 1 1073.63 52.1953)" fill="url(#paint0_radial_3_2244)"/>
</g>
<g opacity="0.5" filter="url(#filter1_f_3_2244)">
<circle cx="132.6" cy="132.6" r="132.6" transform="matrix(-1 0 0 1 806.111 514.211)" fill="url(#paint1_radial_3_2244)"/>
</g>
<g opacity="0.5" filter="url(#filter2_f_3_2244)">
<circle cx="132.6" cy="132.6" r="132.6" transform="matrix(-1 0 0 1 417.586 459.73)" fill="url(#paint2_radial_3_2244)"/>
</g>
<path d="M520.386 877.933C646.854 811.785 930.964 642.231 934.006 642.231M463.741 845.239C590.209 779.09 874.32 609.537 877.361 609.537M407.096 812.545C533.565 746.396 817.675 576.842 820.716 576.842M350.452 779.851C476.92 713.702 761.03 544.148 764.072 544.148M293.807 747.156C420.275 681.008 704.386 511.454 707.427 511.454M237.162 714.462C363.631 648.313 647.741 478.76 650.782 478.76M180.518 681.768C306.986 615.619 591.096 446.065 594.138 446.065M123.873 649.074C250.341 582.925 534.452 413.371 537.493 413.371M537.493 877.933C411.025 811.785 126.914 642.231 123.873 642.231M594.138 845.239C467.669 779.09 183.559 609.537 180.518 609.537M650.782 812.545C524.314 746.396 240.204 576.842 237.162 576.842M707.427 779.851C580.959 713.702 296.848 544.148 293.807 544.148M764.072 747.156C637.603 681.008 353.493 511.454 350.452 511.454M820.716 714.462C694.248 648.313 410.138 478.76 407.096 478.76M877.361 681.768C750.893 615.619 466.782 446.065 463.741 446.065M934.006 649.074C807.537 582.925 523.427 413.371 520.386 413.371" stroke="url(#paint3_radial_3_2244)" stroke-opacity="0.6" stroke-width="0.380165" stroke-linecap="round"/>
<g filter="url(#filter3_f_3_2244)">
<path d="M601.255 691.228C592.269 691.228 583.278 689.244 576.434 685.275L444.727 608.962C437.892 604.998 434.125 599.653 434.125 593.909C434.125 588.166 437.892 582.821 444.727 578.856L576.43 502.543C590.121 494.611 612.39 494.611 626.076 502.543L757.78 578.856C764.615 582.821 768.381 588.166 768.381 593.909C768.381 599.653 764.615 604.998 757.784 608.958L626.081 685.271C619.237 689.244 610.246 691.228 601.255 691.228ZM601.251 498.887C592.678 498.887 584.113 500.777 577.585 504.558L445.881 580.871C439.784 584.403 436.43 589.034 436.43 593.918C436.43 598.802 439.784 603.433 445.881 606.965L577.589 683.278C590.632 690.839 611.878 690.839 624.922 683.278L756.625 606.965C762.718 603.437 766.076 598.806 766.076 593.922C766.076 589.034 762.718 584.403 756.621 580.871L624.917 504.558C618.398 500.777 609.825 498.887 601.251 498.887Z" fill="url(#paint4_linear_3_2244)"/>
</g>
<path d="M601.255 691.228C592.269 691.228 583.278 689.244 576.434 685.275L444.727 608.962C437.892 604.998 434.125 599.653 434.125 593.909C434.125 588.166 437.892 582.821 444.727 578.856L576.43 502.543C590.121 494.611 612.39 494.611 626.076 502.543L757.78 578.856C764.615 582.821 768.381 588.166 768.381 593.909C768.381 599.653 764.615 604.998 757.784 608.958L626.081 685.271C619.237 689.244 610.246 691.228 601.255 691.228ZM601.251 498.887C592.678 498.887 584.113 500.777 577.585 504.558L445.881 580.871C439.784 584.403 436.43 589.034 436.43 593.918C436.43 598.802 439.784 603.433 445.881 606.965L577.589 683.278C590.632 690.839 611.878 690.839 624.922 683.278L756.625 606.965C762.718 603.437 766.076 598.806 766.076 593.922C766.076 589.034 762.718 584.403 756.621 580.871L624.917 504.558C618.398 500.777 609.825 498.887 601.251 498.887Z" fill="url(#paint5_linear_3_2244)"/>
<g filter="url(#filter4_f_3_2244)">
<path d="M393.803 537.528C390.96 537.528 388.116 536.901 385.951 535.645L344.289 511.506C342.127 510.252 340.936 508.561 340.936 506.744C340.936 504.927 342.127 503.237 344.289 501.983L385.95 477.843C390.281 475.334 397.325 475.334 401.654 477.843L443.315 501.983C445.477 503.237 446.669 504.927 446.669 506.744C446.669 508.561 445.477 510.252 443.316 511.504L401.656 535.644C399.491 536.901 396.647 537.528 393.803 537.528ZM393.801 476.686C391.09 476.686 388.38 477.284 386.315 478.48L344.654 502.62C342.726 503.737 341.665 505.202 341.665 506.747C341.665 508.292 342.726 509.757 344.654 510.874L386.317 535.014C390.443 537.405 397.163 537.405 401.289 535.014L442.95 510.874C444.877 509.758 445.94 508.293 445.94 506.748C445.94 505.202 444.877 503.737 442.949 502.62L401.288 478.48C399.225 477.284 396.513 476.686 393.801 476.686Z" fill="#03FFCF"/>
<path d="M393.803 537.528C390.96 537.528 388.116 536.901 385.951 535.645L344.289 511.506C342.127 510.252 340.936 508.561 340.936 506.744C340.936 504.927 342.127 503.237 344.289 501.983L385.95 477.843C390.281 475.334 397.325 475.334 401.654 477.843L443.315 501.983C445.477 503.237 446.669 504.927 446.669 506.744C446.669 508.561 445.477 510.252 443.316 511.504L401.656 535.644C399.491 536.901 396.647 537.528 393.803 537.528ZM393.801 476.686C391.09 476.686 388.38 477.284 386.315 478.48L344.654 502.62C342.726 503.737 341.665 505.202 341.665 506.747C341.665 508.292 342.726 509.757 344.654 510.874L386.317 535.014C390.443 537.405 397.163 537.405 401.289 535.014L442.95 510.874C444.877 509.758 445.94 508.293 445.94 506.748C445.94 505.202 444.877 503.737 442.949 502.62L401.288 478.48C399.225 477.284 396.513 476.686 393.801 476.686Z" fill="url(#paint6_linear_3_2244)"/>
</g>
<path d="M393.803 537.528C390.96 537.528 388.116 536.901 385.951 535.645L344.289 511.506C342.127 510.252 340.936 508.561 340.936 506.744C340.936 504.927 342.127 503.237 344.289 501.983L385.95 477.843C390.281 475.334 397.325 475.334 401.654 477.843L443.315 501.983C445.477 503.237 446.669 504.927 446.669 506.744C446.669 508.561 445.477 510.252 443.316 511.504L401.656 535.644C399.491 536.901 396.647 537.528 393.803 537.528ZM393.801 476.686C391.09 476.686 388.38 477.284 386.315 478.48L344.654 502.62C342.726 503.737 341.665 505.202 341.665 506.747C341.665 508.292 342.726 509.757 344.654 510.874L386.317 535.014C390.443 537.405 397.163 537.405 401.289 535.014L442.95 510.874C444.877 509.758 445.94 508.293 445.94 506.748C445.94 505.202 444.877 503.737 442.949 502.62L401.288 478.48C399.225 477.284 396.513 476.686 393.801 476.686Z" fill="#03FFCF"/>
<path d="M393.803 537.528C390.96 537.528 388.116 536.901 385.951 535.645L344.289 511.506C342.127 510.252 340.936 508.561 340.936 506.744C340.936 504.927 342.127 503.237 344.289 501.983L385.95 477.843C390.281 475.334 397.325 475.334 401.654 477.843L443.315 501.983C445.477 503.237 446.669 504.927 446.669 506.744C446.669 508.561 445.477 510.252 443.316 511.504L401.656 535.644C399.491 536.901 396.647 537.528 393.803 537.528ZM393.801 476.686C391.09 476.686 388.38 477.284 386.315 478.48L344.654 502.62C342.726 503.737 341.665 505.202 341.665 506.747C341.665 508.292 342.726 509.757 344.654 510.874L386.317 535.014C390.443 537.405 397.163 537.405 401.289 535.014L442.95 510.874C444.877 509.758 445.94 508.293 445.94 506.748C445.94 505.202 444.877 503.737 442.949 502.62L401.288 478.48C399.225 477.284 396.513 476.686 393.801 476.686Z" fill="url(#paint7_linear_3_2244)"/>
<g filter="url(#filter5_f_3_2244)">
<path d="M694.224 644.488L733.715 666.276C740.015 669.752 740.128 678.768 733.916 682.4L638.588 738.143" stroke="black" stroke-width="2.31817"/>
<path d="M694.224 644.488L733.715 666.276C740.015 669.752 740.128 678.768 733.916 682.4L638.588 738.143" stroke="url(#paint8_linear_3_2244)" stroke-width="2.31817"/>
</g>
<path d="M694.224 644.488L737.287 668.247C742.013 670.854 742.097 677.616 737.438 680.34L638.588 738.143" stroke="black" stroke-width="2.31817"/>
<path d="M694.224 644.488L737.287 668.247C742.013 670.854 742.097 677.616 737.438 680.34L638.588 738.143" stroke="url(#paint9_linear_3_2244)" stroke-width="2.31817"/>
<g filter="url(#filter6_f_3_2244)">
<path d="M601.511 805.044C598.668 805.044 595.824 804.416 593.659 803.161L551.997 779.021C549.835 777.767 548.644 776.077 548.644 774.26C548.644 772.443 549.835 770.752 551.997 769.498L593.658 745.359C597.989 742.849 605.033 742.849 609.362 745.359L651.023 769.498C653.185 770.752 654.377 772.443 654.377 774.26C654.377 776.077 653.185 777.767 651.025 779.02L609.364 803.16C607.199 804.416 604.355 805.044 601.511 805.044ZM601.509 744.202C598.798 744.202 596.088 744.8 594.023 745.996L552.362 770.135C550.434 771.253 549.373 772.718 549.373 774.263C549.373 775.807 550.434 777.272 552.362 778.39L594.025 802.529C598.151 804.921 604.871 804.921 608.997 802.529L650.658 778.39C652.585 777.274 653.648 775.809 653.648 774.264C653.648 772.718 652.585 771.253 650.657 770.135L608.996 745.996C606.933 744.8 604.221 744.202 601.509 744.202Z" fill="#03FFCF"/>
<path d="M601.511 805.044C598.668 805.044 595.824 804.416 593.659 803.161L551.997 779.021C549.835 777.767 548.644 776.077 548.644 774.26C548.644 772.443 549.835 770.752 551.997 769.498L593.658 745.359C597.989 742.849 605.033 742.849 609.362 745.359L651.023 769.498C653.185 770.752 654.377 772.443 654.377 774.26C654.377 776.077 653.185 777.767 651.025 779.02L609.364 803.16C607.199 804.416 604.355 805.044 601.511 805.044ZM601.509 744.202C598.798 744.202 596.088 744.8 594.023 745.996L552.362 770.135C550.434 771.253 549.373 772.718 549.373 774.263C549.373 775.807 550.434 777.272 552.362 778.39L594.025 802.529C598.151 804.921 604.871 804.921 608.997 802.529L650.658 778.39C652.585 777.274 653.648 775.809 653.648 774.264C653.648 772.718 652.585 771.253 650.657 770.135L608.996 745.996C606.933 744.8 604.221 744.202 601.509 744.202Z" fill="url(#paint10_linear_3_2244)"/>
</g>
<path d="M601.511 805.044C598.668 805.044 595.824 804.416 593.659 803.161L551.997 779.021C549.835 777.767 548.644 776.077 548.644 774.26C548.644 772.443 549.835 770.752 551.997 769.498L593.658 745.359C597.989 742.849 605.033 742.849 609.362 745.359L651.023 769.498C653.185 770.752 654.377 772.443 654.377 774.26C654.377 776.077 653.185 777.767 651.025 779.02L609.364 803.16C607.199 804.416 604.355 805.044 601.511 805.044ZM601.509 744.202C598.798 744.202 596.088 744.8 594.023 745.996L552.362 770.135C550.434 771.253 549.373 772.718 549.373 774.263C549.373 775.807 550.434 777.272 552.362 778.39L594.025 802.529C598.151 804.921 604.871 804.921 608.997 802.529L650.658 778.39C652.585 777.274 653.648 775.809 653.648 774.264C653.648 772.718 652.585 771.253 650.657 770.135L608.996 745.996C606.933 744.8 604.221 744.202 601.509 744.202Z" fill="#03FFCF"/>
<path d="M601.511 805.044C598.668 805.044 595.824 804.416 593.659 803.161L551.997 779.021C549.835 777.767 548.644 776.077 548.644 774.26C548.644 772.443 549.835 770.752 551.997 769.498L593.658 745.359C597.989 742.849 605.033 742.849 609.362 745.359L651.023 769.498C653.185 770.752 654.377 772.443 654.377 774.26C654.377 776.077 653.185 777.767 651.025 779.02L609.364 803.16C607.199 804.416 604.355 805.044 601.511 805.044ZM601.509 744.202C598.798 744.202 596.088 744.8 594.023 745.996L552.362 770.135C550.434 771.253 549.373 772.718 549.373 774.263C549.373 775.807 550.434 777.272 552.362 778.39L594.025 802.529C598.151 804.921 604.871 804.921 608.997 802.529L650.658 778.39C652.585 777.274 653.648 775.809 653.648 774.264C653.648 772.718 652.585 771.253 650.657 770.135L608.996 745.996C606.933 744.8 604.221 744.202 601.509 744.202Z" fill="url(#paint11_linear_3_2244)"/>
<path d="M649.976 745.879C656.676 749.831 656.676 756.015 650.148 759.966L613.728 781.097C607.028 785.048 596.205 785.048 589.333 781.097L552.741 759.966C546.041 756.015 546.041 749.831 552.741 745.879L589.161 724.749C595.861 720.797 606.684 720.797 613.384 724.749L649.976 745.879Z" fill="#BCD0F1"/>
<path d="M655.169 732.153V753.002C655.169 755.526 653.486 758.072 650.242 759.95L613.821 781.081C610.492 783.044 606.089 784.029 601.68 784.029C597.27 784.029 592.867 783.044 589.538 781.081H589.537L552.945 759.95L552.943 759.949L552.628 759.771C549.425 757.911 547.847 755.446 547.847 753.002V732.153H655.169Z" fill="#10305D"/>
<path d="M655.169 732.153V753.002C655.169 755.526 653.486 758.072 650.242 759.95L613.821 781.081C610.492 783.044 606.089 784.029 601.68 784.029C597.27 784.029 592.867 783.044 589.538 781.081H589.537L552.945 759.95L552.943 759.949L552.628 759.771C549.425 757.911 547.847 755.446 547.847 753.002V732.153H655.169Z" fill="url(#paint12_linear_3_2244)"/>
<path d="M655.169 732.153V753.002C655.169 755.526 653.486 758.072 650.242 759.95L613.821 781.081C610.492 783.044 606.089 784.029 601.68 784.029C597.27 784.029 592.867 783.044 589.538 781.081H589.537L552.945 759.95L552.943 759.949L552.628 759.771C549.425 757.911 547.847 755.446 547.847 753.002V732.153H655.169Z" stroke="#244C85" stroke-width="0.220417"/>
<path d="M649.976 724.918C656.676 728.87 656.676 735.054 650.148 739.005L613.728 760.136C607.028 764.087 596.205 764.087 589.333 760.136L552.741 739.005C546.041 735.054 546.041 728.87 552.741 724.918L589.161 703.788C595.861 699.836 606.684 699.836 613.384 703.788L649.976 724.918Z" fill="url(#paint13_linear_3_2244)"/>
<path d="M601.187 700.867V701.726C605.653 701.726 609.776 702.757 612.869 704.475L649.461 725.606C652.381 727.323 654.099 729.557 654.099 731.962C654.099 734.367 652.553 736.6 649.461 738.147L613.212 759.449C610.12 761.339 605.997 762.198 601.53 762.198C597.064 762.198 592.941 761.167 589.848 759.449L553.256 738.318C550.336 736.6 548.618 734.367 548.618 731.962C548.618 729.557 550.164 727.323 553.256 725.606L589.677 704.475C592.769 702.585 596.892 701.726 601.359 701.726V700.867M601.187 700.867C596.72 700.867 592.425 701.898 588.989 703.788L552.741 724.918C546.041 728.87 546.041 735.054 552.741 739.006L589.333 760.136C592.769 762.026 597.064 763.057 601.53 763.057C605.997 763.057 610.292 762.026 613.728 760.136L650.148 739.006C656.848 735.054 656.848 728.87 649.976 724.918L613.384 703.788C610.12 701.898 605.653 700.867 601.187 700.867Z" fill="#244C85"/>
<path d="M558.78 753.867L560.005 753.167C560.179 752.992 560.354 752.642 560.354 752.292C560.354 751.417 559.655 750.368 558.955 749.843C558.605 749.668 558.255 749.668 557.905 749.668L556.548 750.611L558.78 753.867Z" fill="url(#paint14_linear_3_2244)"/>
<path d="M558.632 753.793C559.126 753.51 559.105 752.546 558.586 751.641C558.066 750.736 557.245 750.231 556.751 750.515C556.258 750.798 556.278 751.761 556.798 752.667C557.317 753.572 558.138 754.076 558.632 753.793Z" fill="#2185F8"/>
<path d="M558.289 753.19C558.618 753.001 558.617 752.381 558.287 751.805C557.956 751.229 557.421 750.915 557.092 751.104C556.763 751.292 556.764 751.913 557.094 752.489C557.425 753.065 557.96 753.379 558.289 753.19Z" fill="#0CFFFC"/>
<g filter="url(#filter7_f_3_2244)">
<path d="M468.899 623.163L420.009 651.823C417.006 653.583 413.271 653.513 410.335 651.642L353.775 615.585C347.917 611.85 348.094 603.239 354.1 599.749L437.394 551.338C443.116 548.013 443.612 539.934 438.339 535.934L422.535 523.945" stroke="black" stroke-width="2.31817"/>
<path d="M468.899 623.163L420.009 651.823C417.006 653.583 413.271 653.513 410.335 651.642L353.775 615.585C347.917 611.85 348.094 603.239 354.1 599.749L437.394 551.338C443.116 548.013 443.612 539.934 438.339 535.934L422.535 523.945" stroke="url(#paint15_linear_3_2244)" stroke-width="2.31817"/>
</g>
<path d="M468.899 623.163L422.455 650.389C417.951 653.029 412.347 652.925 407.944 650.118L350.565 613.538C346.172 610.738 346.304 604.279 350.809 601.661L440.402 549.59C444.694 547.096 445.065 541.037 441.11 538.037L422.535 523.945" stroke="black" stroke-width="2.31817"/>
<path d="M468.899 623.163L422.455 650.389C417.951 653.029 412.347 652.925 407.944 650.118L350.565 613.538C346.172 610.738 346.304 604.279 350.809 601.661L440.402 549.59C444.694 547.096 445.065 541.037 441.11 538.037L422.535 523.945" stroke="url(#paint16_linear_3_2244)" stroke-width="2.31817"/>
<path opacity="0.5" d="M298.228 655.135L260.475 633.295C257.757 631.723 258.097 628.977 261.236 627.161C264.374 625.347 269.12 625.149 271.837 626.721L309.59 648.561C312.308 650.133 311.967 652.879 308.829 654.694C305.691 656.509 300.944 656.706 298.228 655.135Z" fill="#07152C"/>
<g filter="url(#filter8_f_3_2244)">
<path d="M263.669 623.756C265.839 623.666 267.9 624.06 269.362 624.906L313.465 650.44C314.914 651.278 315.425 652.343 315.301 653.345C315.171 654.392 314.325 655.594 312.575 656.608C310.837 657.613 308.629 658.182 306.465 658.272C304.295 658.362 302.235 657.969 300.772 657.122L256.669 631.588C255.22 630.749 254.708 629.685 254.833 628.683C254.963 627.636 255.809 626.434 257.558 625.421C259.296 624.415 261.504 623.846 263.669 623.756Z" stroke="url(#paint17_linear_3_2244)" stroke-width="1.15909"/>
</g>
<g filter="url(#filter9_f_3_2244)">
<path d="M381.735 633.363L300.42 681.471C295.969 684.105 290.425 684.051 286.025 681.333L261.479 666.163C257.083 663.447 257.08 657.056 261.472 654.335L278.112 644.027" stroke="black" stroke-width="2.31817"/>
<path d="M381.735 633.363L300.42 681.471C295.969 684.105 290.425 684.051 286.025 681.333L261.479 666.163C257.083 663.447 257.08 657.056 261.472 654.335L278.112 644.027" stroke="url(#paint18_linear_3_2244)" stroke-width="2.31817"/>
</g>
<path d="M381.735 633.363L300.42 681.471C295.969 684.105 290.425 684.051 286.025 681.333L261.479 666.163C257.083 663.447 257.08 657.056 261.472 654.335L278.112 644.027" stroke="black" stroke-width="2.31817"/>
<path d="M381.735 633.363L300.42 681.471C295.969 684.105 290.425 684.051 286.025 681.333L261.479 666.163C257.083 663.447 257.08 657.056 261.472 654.335L278.112 644.027" stroke="url(#paint19_linear_3_2244)" stroke-width="2.31817"/>
<path d="M263.669 623.756C265.839 623.666 267.9 624.06 269.362 624.906L313.465 650.44C314.914 651.278 315.425 652.343 315.301 653.345C315.171 654.392 314.325 655.594 312.575 656.608C310.837 657.613 308.629 658.182 306.465 658.272C304.295 658.362 302.235 657.969 300.772 657.122L256.669 631.588C255.22 630.749 254.708 629.685 254.833 628.683C254.963 627.636 255.809 626.434 257.558 625.421C259.296 624.415 261.504 623.846 263.669 623.756Z" stroke="url(#paint20_linear_3_2244)" stroke-width="1.15909"/>
<path d="M258.645 573.367V618.894L258.647 618.895C258.659 619.881 259.258 620.823 260.477 621.527L298.23 643.367C300.946 644.939 305.693 644.741 308.831 642.927C310.59 641.908 311.47 640.598 311.423 639.366V593.829L258.645 573.367Z" fill="url(#paint21_linear_3_2244)"/>
<path opacity="0.3" d="M301.06 644.286C303.601 644.673 306.613 644.217 308.83 642.934C310.589 641.915 311.469 640.605 311.422 639.373V593.836L301.244 589.891H301.059V644.286H301.06Z" fill="#1F1E40"/>
<path d="M298.228 597.85L260.475 576.01C257.757 574.438 258.097 571.692 261.236 569.877C264.374 568.062 269.12 567.865 271.837 569.436L309.59 591.276C312.308 592.848 311.967 595.594 308.829 597.41C305.691 599.224 300.944 599.422 298.228 597.85Z" fill="url(#paint22_linear_3_2244)"/>
<path d="M301.999 594.917C300.198 594.917 298.736 593.453 298.736 591.647V571.42C298.736 564.521 293.699 555.779 287.735 552.329L279.072 547.318C276.783 545.994 274.716 545.671 273.402 546.431C272.088 547.192 271.334 549.146 271.334 551.794V572.022C271.334 573.828 269.874 575.291 268.071 575.291C266.269 575.291 264.808 573.828 264.808 572.022V551.793C264.808 546.672 266.702 542.758 270.139 540.769C273.577 538.78 277.908 539.095 282.334 541.655L290.997 546.667C298.994 551.294 305.26 562.166 305.26 571.42V591.647C305.262 593.453 303.802 594.917 301.999 594.917Z" fill="url(#paint23_linear_3_2244)"/>
<path d="M544.023 575.317L544.281 468.341C544.288 465.922 545.874 463.507 549.042 461.666C555.421 457.958 565.842 457.961 572.264 461.669L572.005 568.644C565.584 564.937 555.163 564.934 548.784 568.642C545.616 570.483 544.03 572.898 544.023 575.317Z" fill="#DDE2EF"/>
<path d="M544.023 575.317L544.281 468.341C544.288 465.922 545.874 463.507 549.042 461.666C555.421 457.958 565.842 457.961 572.264 461.669L572.005 568.644C565.584 564.937 555.163 564.934 548.784 568.642C545.616 570.483 544.03 572.898 544.023 575.317Z" fill="url(#paint24_linear_3_2244)"/>
<path d="M663.609 514.406L663.351 621.382L572.006 568.644L572.264 461.668L663.609 514.406Z" fill="#DDE2EF"/>
<path d="M663.609 514.406L663.351 621.382L572.006 568.644L572.264 461.668L663.609 514.406Z" fill="url(#paint25_linear_3_2244)"/>
<path d="M676.221 548.464L676.158 570.573C676.158 570.062 675.823 569.544 675.145 569.153L663.508 562.437L663.572 540.328L675.208 547.052C675.886 547.443 676.221 547.953 676.221 548.464Z" fill="#A7BBEB"/>
<path d="M676.221 548.464L676.158 570.573C676.158 570.062 675.823 569.544 675.145 569.153L663.508 562.437L663.572 540.328L675.208 547.052C675.886 547.443 676.221 547.953 676.221 548.464Z" fill="url(#paint26_linear_3_2244)"/>
<path d="M674.293 508.191L674.035 615.167L663.35 621.377L663.608 514.401L674.293 508.191Z" fill="#D1D8E9"/>
<path d="M674.293 508.191L674.035 615.167L663.35 621.377L663.608 514.401L674.293 508.191Z" fill="url(#paint27_linear_3_2244)"/>
<path d="M556.998 577.339C553.332 575.222 550.365 570.092 550.377 565.879L550.581 475.361C550.593 471.148 553.579 469.455 557.245 471.572L641.312 520.107C644.982 522.226 647.945 527.354 647.933 531.567L647.729 622.085C647.717 626.298 644.735 627.993 641.065 625.874L556.998 577.339Z" fill="url(#paint28_linear_3_2244)"/>
<path d="M552.529 471.118C553.735 470.401 555.396 470.499 557.252 471.574L641.32 520.097C644.968 522.214 647.932 527.36 647.932 531.562L647.737 622.077C647.737 624.161 646.988 625.627 645.782 626.344L654.533 620.96C655.739 620.275 656.488 618.777 656.488 616.693L656.683 526.177C656.683 521.975 653.719 516.829 650.071 514.712L566.003 466.189C564.146 465.114 562.485 465.017 561.28 465.733L552.529 471.118Z" fill="url(#paint29_linear_3_2244)"/>
<path d="M629.786 534.063L629.515 641.025L538.178 588.298C531.964 584.709 528.857 579.973 528.887 575.267L529.129 468.305C529.129 473.01 532.235 477.746 538.449 481.336L629.786 534.063Z" fill="#DDE2EF"/>
<path d="M629.786 534.063L629.515 641.025L538.178 588.298C531.964 584.709 528.857 579.973 528.887 575.267L529.129 468.305C529.129 473.01 532.235 477.746 538.449 481.336L629.786 534.063Z" fill="url(#paint30_linear_3_2244)"/>
<path d="M640.465 527.859L640.207 634.835L629.527 641.042L629.785 534.066L640.465 527.859Z" fill="#D1D8E9"/>
<path d="M640.465 527.859L640.207 634.835L629.527 641.042L629.785 534.066L640.465 527.859Z" fill="url(#paint31_linear_3_2244)"/>
<path d="M674.296 508.202L663.611 514.411L572.266 461.673C565.845 457.966 555.424 457.963 549.044 461.67C542.664 465.378 542.704 471.414 549.125 475.121L640.47 527.859L629.79 534.066L538.445 481.328C526.091 474.195 526.025 462.594 538.294 455.464C550.563 448.334 571.695 448.965 584.049 456.098L674.296 508.202Z" fill="#E9EDF6"/>
<path d="M674.296 508.202L663.611 514.411L572.266 461.673C565.845 457.966 555.424 457.963 549.044 461.67C542.664 465.378 542.704 471.414 549.125 475.121L640.47 527.859L629.79 534.066L538.445 481.328C526.091 474.195 526.025 462.594 538.294 455.464C550.563 448.334 571.695 448.965 584.049 456.098L674.296 508.202Z" fill="url(#paint32_linear_3_2244)"/>
<path d="M678.582 545.094C681.8 546.952 681.817 549.975 678.62 551.833L636.365 576.389C633.167 578.247 627.949 578.247 624.731 576.389L601.988 563.259L605.363 561.297L628.105 574.428C629.455 575.207 631.627 575.207 632.968 574.428L675.223 549.872C676.559 549.096 676.557 547.834 675.207 547.055L674.201 546.474L674.21 542.57L678.582 545.094Z" fill="#C8D4F1"/>
<path d="M678.582 545.094C681.8 546.952 681.817 549.975 678.62 551.833L636.365 576.389C633.167 578.247 627.949 578.247 624.731 576.389L601.988 563.259L605.363 561.297L628.105 574.428C629.455 575.207 631.627 575.207 632.968 574.428L675.223 549.872C676.559 549.096 676.557 547.834 675.207 547.055L674.201 546.474L674.21 542.57L678.582 545.094Z" fill="url(#paint33_linear_3_2244)"/>
<path d="M681.007 548.488L680.945 575.571C680.941 576.784 680.146 577.994 678.558 578.917L678.62 551.834C680.209 550.911 681.004 549.701 681.007 548.488Z" fill="url(#paint34_linear_3_2244)"/>
<path d="M624.731 576.39L624.668 603.473L601.926 590.343L601.988 563.26L624.731 576.39Z" fill="url(#paint35_linear_3_2244)"/>
<path d="M636.365 576.39L636.302 603.473C633.105 605.331 627.887 605.331 624.669 603.473L624.731 576.39C627.95 578.248 633.168 578.248 636.365 576.39Z" fill="url(#paint36_linear_3_2244)"/>
<path d="M678.62 551.834L678.558 578.917L636.303 603.473L636.365 576.39L678.62 551.834Z" fill="url(#paint37_linear_3_2244)"/>
<path d="M606.62 576.729C607.823 576.023 609.523 576.127 611.38 577.2C615.093 579.344 618.075 584.523 618.075 588.786C618.075 590.05 617.702 591.503 616.898 592.395C616.715 592.604 616.506 592.761 616.297 592.918C616.245 592.997 616.192 593.049 616.114 593.075L617.055 592.526L617.683 592.186C619.115 591.274 619.645 589.542 619.645 587.844C619.685 581.163 612.505 573.334 608.189 575.813L606.62 576.729Z" fill="white"/>
<path d="M611.385 577.205C607.681 575.067 604.67 576.783 604.658 581.039C604.646 585.291 607.637 590.476 611.342 592.615C615.042 594.751 618.053 593.032 618.065 588.779C618.077 584.523 615.086 579.342 611.385 577.205Z" fill="#DDE2EF"/>
<path d="M611.385 577.205C607.681 575.067 604.67 576.783 604.658 581.039C604.646 585.291 607.637 590.476 611.342 592.615C615.042 594.751 618.053 593.032 618.065 588.779C618.077 584.523 615.086 579.342 611.385 577.205Z" fill="url(#paint38_linear_3_2244)"/>
<path d="M442.119 481.388V488.996C442.119 491.209 440.645 493.471 437.743 495.154L404.839 514.283L404.838 514.284C401.859 516.044 397.909 516.932 393.945 516.932C389.982 516.932 386.032 516.044 383.054 514.284L383.052 514.283L349.993 495.154L349.988 495.151C346.933 493.468 345.462 491.206 345.462 488.996V481.388H442.119Z" fill="#10305D"/>
<path d="M442.119 481.388V488.996C442.119 491.209 440.645 493.471 437.743 495.154L404.839 514.283L404.838 514.284C401.859 516.044 397.909 516.932 393.945 516.932C389.982 516.932 386.032 516.044 383.054 514.284L383.052 514.283L349.993 495.154L349.988 495.151C346.933 493.468 345.462 491.206 345.462 488.996V481.388H442.119Z" fill="url(#paint39_linear_3_2244)"/>
<path d="M442.119 481.388V488.996C442.119 491.209 440.645 493.471 437.743 495.154L404.839 514.283L404.838 514.284C401.859 516.044 397.909 516.932 393.945 516.932C389.982 516.932 386.032 516.044 383.054 514.284L383.052 514.283L349.993 495.154L349.988 495.151C346.933 493.468 345.462 491.206 345.462 488.996V481.388H442.119Z" stroke="#244C85" stroke-width="0.502438"/>
<path d="M437.58 473.815C443.633 477.392 443.633 482.99 437.735 486.567L404.831 505.696C398.778 509.273 389 509.273 382.792 505.696L349.733 486.567C343.68 482.99 343.68 477.392 349.733 473.815L382.637 454.687C388.69 451.11 398.468 451.11 404.521 454.687L437.58 473.815Z" fill="#052046"/>
<g filter="url(#filter10_d_3_2244)">
<path d="M426.484 475.395C431.01 478.054 431.01 482.215 426.6 484.874L401.999 499.091C397.473 501.75 390.162 501.75 385.52 499.091L360.803 484.874C356.277 482.215 356.277 478.054 360.803 475.395L385.404 461.178C389.93 458.519 397.241 458.519 401.766 461.178L426.484 475.395Z" fill="#052046"/>
<path d="M393.585 462.533C396.101 462.533 398.439 463.107 400.07 464.065L400.083 464.073L400.097 464.081L424.798 478.289C426.463 479.27 426.542 480.059 426.543 480.163C426.544 480.264 426.48 481.029 424.885 481.995L400.322 496.191L400.312 496.197L400.302 496.203C398.672 497.16 396.334 497.735 393.803 497.735C391.277 497.735 388.896 497.163 387.19 496.188L362.479 481.974C360.82 480.993 360.758 480.217 360.758 480.135C360.758 480.054 360.818 479.271 362.499 478.283L362.498 478.282L387.08 464.078L387.091 464.071L387.101 464.065C388.731 463.107 391.069 462.533 393.585 462.533Z" stroke="#15D7AC" stroke-width="6.69918"/>
</g>
<path d="M393.501 452.047V452.824C397.537 452.824 401.262 453.758 404.055 455.313L437.114 474.441C439.753 475.996 441.305 478.018 441.305 480.195C441.305 482.372 439.908 484.394 437.114 485.794L404.366 505.078C401.572 506.788 397.847 507.566 393.812 507.566C389.776 507.566 386.051 506.633 383.258 505.078L350.199 485.949C347.56 484.394 346.008 482.372 346.008 480.195C346.008 478.018 347.405 475.996 350.199 474.441L383.103 455.313C385.896 453.602 389.621 452.824 393.657 452.824V452.047M393.501 452.047C389.466 452.047 385.586 452.98 382.482 454.691L349.733 473.819C343.68 477.396 343.68 482.995 349.733 486.571L382.792 505.7C385.896 507.411 389.776 508.344 393.812 508.344C397.847 508.344 401.727 507.411 404.831 505.7L437.735 486.571C443.788 482.995 443.788 477.396 437.58 473.819L404.521 454.691C401.572 452.98 397.537 452.047 393.501 452.047Z" fill="#244C85"/>
<path fill-rule="evenodd" clip-rule="evenodd" d="M345.326 444.292L393.915 424.402V507.74C389.967 507.719 386.031 506.824 383.041 505.058L349.982 485.929C346.878 484.219 345.326 481.886 345.326 479.553V444.292Z" fill="url(#paint40_linear_3_2244)" fill-opacity="0.46"/>
<path d="M405.081 505.058L437.984 485.929C440.933 484.219 442.485 481.886 442.485 479.553V444.292L393.915 424.402V507.74C397.96 507.762 402.017 506.868 405.081 505.058Z" fill="url(#paint41_linear_3_2244)" fill-opacity="0.46"/>
<path d="M393.854 467.066L393.966 467.123L394.079 467.066L442.119 442.837V453.746C442.119 455.821 440.823 457.939 438.271 459.583L437.743 459.905L404.839 479.034L404.838 479.035C401.859 480.795 397.909 481.683 393.945 481.683C389.982 481.683 386.032 480.795 383.054 479.035L383.052 479.033L349.993 459.905L349.988 459.902C346.933 458.219 345.462 455.956 345.462 453.746V442.835L393.854 467.066Z" fill="#10305D"/>
<path d="M393.854 467.066L393.966 467.123L394.079 467.066L442.119 442.837V453.746C442.119 455.821 440.823 457.939 438.271 459.583L437.743 459.905L404.839 479.034L404.838 479.035C401.859 480.795 397.909 481.683 393.945 481.683C389.982 481.683 386.032 480.795 383.054 479.035L383.052 479.033L349.993 459.905L349.988 459.902C346.933 458.219 345.462 455.956 345.462 453.746V442.835L393.854 467.066Z" fill="url(#paint42_linear_3_2244)"/>
<path d="M393.854 467.066L393.966 467.123L394.079 467.066L442.119 442.837V453.746C442.119 455.821 440.823 457.939 438.271 459.583L437.743 459.905L404.839 479.034L404.838 479.035C401.859 480.795 397.909 481.683 393.945 481.683C389.982 481.683 386.032 480.795 383.054 479.035L383.052 479.033L349.993 459.905L349.988 459.902C346.933 458.219 345.462 455.956 345.462 453.746V442.835L393.854 467.066Z" stroke="#244C85" stroke-width="0.502438"/>
<path d="M349.876 446.624L345.466 441.561C345.503 439.515 346.796 437.435 349.312 435.815L349.839 435.493L382.743 416.364H382.744C385.723 414.604 389.673 413.716 393.637 413.716C397.6 413.716 401.55 414.604 404.528 416.364L404.53 416.365L437.589 435.493L437.594 435.496C440.597 437.151 442.069 439.366 442.118 441.54L435.192 447.614C435.134 447.581 435.059 447.538 434.97 447.486C434.723 447.345 434.361 447.137 433.898 446.872C432.974 446.342 431.649 445.582 430.047 444.666C426.844 442.834 422.534 440.377 418.11 437.874C413.687 435.371 409.147 432.821 405.484 430.805C401.831 428.794 399.029 427.302 398.094 426.928C396.51 426.293 395.108 425.98 393.697 425.985C392.287 425.991 390.881 426.313 389.292 426.926C388.974 427.048 388.156 427.479 386.993 428.12C385.821 428.767 384.278 429.64 382.494 430.66C378.926 432.702 374.393 435.338 369.935 437.944C365.476 440.551 361.092 443.129 357.823 445.056C356.189 446.019 354.833 446.818 353.886 447.378C353.412 447.658 353.04 447.878 352.787 448.027C352.678 448.092 352.592 448.144 352.528 448.182L349.876 446.624Z" fill="#10305D" stroke="#244C85" stroke-width="0.502438"/>
<path d="M382.665 416.316C388.701 412.749 398.453 412.749 404.489 416.316L437.458 435.392C443.495 438.959 443.495 444.543 437.613 448.11L404.799 467.186C398.762 470.753 389.012 470.753 382.82 467.186L349.852 448.11C343.815 444.543 343.815 438.959 349.852 435.392L382.665 416.316ZM401.951 422.292C397.293 419.549 389.769 419.549 385.11 422.292L359.788 436.964C355.13 439.708 355.13 444.002 359.788 446.746L385.23 461.417C390.007 464.161 397.532 464.161 402.19 461.417L427.512 446.746C432.05 444.002 432.05 439.708 427.393 436.964L401.951 422.292Z" fill="#052046"/>
<path d="M382.637 416.241C388.69 412.664 398.468 412.664 404.521 416.241L437.58 435.37C443.633 438.947 443.633 444.545 437.736 448.122L404.831 467.25C398.778 470.827 389.001 470.827 382.792 467.25L349.733 448.122C343.68 444.545 343.68 438.947 349.733 435.37L382.637 416.241ZM401.977 422.235C397.306 419.484 389.76 419.484 385.089 422.235L359.699 436.947C355.028 439.698 355.028 444.005 359.699 446.756L385.209 461.468C390 464.219 397.545 464.219 402.216 461.468L427.608 446.756C432.159 444.005 432.159 439.698 427.488 436.947L401.977 422.235Z" fill="#052046"/>
<path d="M382.637 416.241C388.69 412.664 398.468 412.664 404.521 416.241L437.58 435.37C443.633 438.947 443.633 444.545 437.736 448.122L404.831 467.25C398.778 470.827 389.001 470.827 382.792 467.25L349.733 448.122C343.68 444.545 343.68 438.947 349.733 435.37L382.637 416.241ZM401.977 422.235C397.306 419.484 389.76 419.484 385.089 422.235L359.699 436.947C355.028 439.698 355.028 444.005 359.699 446.756L385.209 461.468C390 464.219 397.545 464.219 402.216 461.468L427.608 446.756C432.159 444.005 432.159 439.698 427.488 436.947L401.977 422.235Z" fill="url(#paint43_linear_3_2244)"/>
<path d="M393.501 413.598V414.375C397.537 414.375 401.262 415.308 404.055 416.863L437.114 435.992C439.753 437.547 441.305 439.569 441.305 441.746C441.305 443.923 439.908 445.945 437.114 447.345L404.366 466.629C401.572 468.339 397.847 469.117 393.812 469.117C389.776 469.117 386.051 468.184 383.258 466.629L350.199 447.5C347.56 445.945 346.008 443.923 346.008 441.746C346.008 439.569 347.405 437.547 350.199 435.992L383.103 416.863C385.896 415.153 389.621 414.375 393.657 414.375V413.598M393.501 413.598C389.466 413.598 385.586 414.531 382.482 416.241L349.733 435.37C343.68 438.947 343.68 444.545 349.733 448.122L382.792 467.251C385.896 468.961 389.776 469.894 393.812 469.894C397.847 469.894 401.727 468.961 404.831 467.251L437.735 448.122C443.788 444.545 443.788 438.947 437.58 435.37L404.521 416.241C401.572 414.531 397.537 413.598 393.501 413.598Z" fill="#244C85"/>
<path opacity="0.5" d="M431.739 353.852H392.853H355.828V441.573C355.828 443.391 357.041 445.208 359.466 446.541L385.295 461.445C390.025 464.232 397.785 464.232 402.515 461.445L428.222 446.541C430.526 445.208 431.739 443.391 431.739 441.573V353.852Z" fill="url(#paint44_linear_3_2244)"/>
<defs>
<filter id="filter0_f_3_2244" x="0.313866" y="0.731834" width="1124.78" height="1124.78" filterUnits="userSpaceOnUse" color-interpolation-filters="sRGB">
<feFlood flood-opacity="0" result="BackgroundImageFix"/>
<feBlend mode="normal" in="SourceGraphic" in2="BackgroundImageFix" result="shape"/>
<feGaussianBlur stdDeviation="25.7317" result="effect1_foregroundBlur_3_2244"/>
</filter>
<filter id="filter1_f_3_2244" x="489.449" y="462.747" width="368.126" height="368.126" filterUnits="userSpaceOnUse" color-interpolation-filters="sRGB">
<feFlood flood-opacity="0" result="BackgroundImageFix"/>
<feBlend mode="normal" in="SourceGraphic" in2="BackgroundImageFix" result="shape"/>
<feGaussianBlur stdDeviation="25.7317" result="effect1_foregroundBlur_3_2244"/>
</filter>
<filter id="filter2_f_3_2244" x="100.923" y="408.267" width="368.126" height="368.126" filterUnits="userSpaceOnUse" color-interpolation-filters="sRGB">
<feFlood flood-opacity="0" result="BackgroundImageFix"/>
<feBlend mode="normal" in="SourceGraphic" in2="BackgroundImageFix" result="shape"/>
<feGaussianBlur stdDeviation="25.7317" result="effect1_foregroundBlur_3_2244"/>
</filter>
<filter id="filter3_f_3_2244" x="426.266" y="488.735" width="349.974" height="210.352" filterUnits="userSpaceOnUse" color-interpolation-filters="sRGB">
<feFlood flood-opacity="0" result="BackgroundImageFix"/>
<feBlend mode="normal" in="SourceGraphic" in2="BackgroundImageFix" result="shape"/>
<feGaussianBlur stdDeviation="3.92931" result="effect1_foregroundBlur_3_2244"/>
</filter>
<filter id="filter4_f_3_2244" x="334.004" y="469.03" width="119.596" height="75.4301" filterUnits="userSpaceOnUse" color-interpolation-filters="sRGB">
<feFlood flood-opacity="0" result="BackgroundImageFix"/>
<feBlend mode="normal" in="SourceGraphic" in2="BackgroundImageFix" result="shape"/>
<feGaussianBlur stdDeviation="3.46567" result="effect1_foregroundBlur_3_2244"/>
</filter>
<filter id="filter5_f_3_2244" x="630.793" y="636.264" width="116.084" height="110.089" filterUnits="userSpaceOnUse" color-interpolation-filters="sRGB">
<feFlood flood-opacity="0" result="BackgroundImageFix"/>
<feBlend mode="normal" in="SourceGraphic" in2="BackgroundImageFix" result="shape"/>
<feGaussianBlur stdDeviation="3.60476" result="effect1_foregroundBlur_3_2244"/>
</filter>
<filter id="filter6_f_3_2244" x="540.924" y="735.757" width="121.172" height="77.0065" filterUnits="userSpaceOnUse" color-interpolation-filters="sRGB">
<feFlood flood-opacity="0" result="BackgroundImageFix"/>
<feBlend mode="normal" in="SourceGraphic" in2="BackgroundImageFix" result="shape"/>
<feGaussianBlur stdDeviation="3.85976" result="effect1_foregroundBlur_3_2244"/>
</filter>
<filter id="filter7_f_3_2244" x="340.144" y="514.839" width="137.524" height="147.599" filterUnits="userSpaceOnUse" color-interpolation-filters="sRGB">
<feFlood flood-opacity="0" result="BackgroundImageFix"/>
<feBlend mode="normal" in="SourceGraphic" in2="BackgroundImageFix" result="shape"/>
<feGaussianBlur stdDeviation="4.09158" result="effect1_foregroundBlur_3_2244"/>
</filter>
<filter id="filter8_f_3_2244" x="246.585" y="615.514" width="76.9635" height="50.9998" filterUnits="userSpaceOnUse" color-interpolation-filters="sRGB">
<feFlood flood-opacity="0" result="BackgroundImageFix"/>
<feBlend mode="normal" in="SourceGraphic" in2="BackgroundImageFix" result="shape"/>
<feGaussianBlur stdDeviation="3.82499" result="effect1_foregroundBlur_3_2244"/>
</filter>
<filter id="filter9_f_3_2244" x="249.371" y="624.716" width="140.604" height="67.5027" filterUnits="userSpaceOnUse" color-interpolation-filters="sRGB">
<feFlood flood-opacity="0" result="BackgroundImageFix"/>
<feBlend mode="normal" in="SourceGraphic" in2="BackgroundImageFix" result="shape"/>
<feGaussianBlur stdDeviation="3.82499" result="effect1_foregroundBlur_3_2244"/>
</filter>
<filter id="filter10_d_3_2244" x="340.962" y="444.077" width="105.378" height="74.7945" filterUnits="userSpaceOnUse" color-interpolation-filters="sRGB">
<feFlood flood-opacity="0" result="BackgroundImageFix"/>
<feColorMatrix in="SourceAlpha" type="matrix" values="0 0 0 0 0 0 0 0 0 0 0 0 0 0 0 0 0 0 127 0" result="hardAlpha"/>
<feOffset dy="1.33984"/>
<feGaussianBlur stdDeviation="8.22324"/>
<feComposite in2="hardAlpha" operator="out"/>
<feColorMatrix type="matrix" values="0 0 0 0 0.0117647 0 0 0 0 1 0 0 0 0 0.811765 0 0 0 0.39 0"/>
<feBlend mode="normal" in2="BackgroundImageFix" result="effect1_dropShadow_3_2244"/>
<feBlend mode="normal" in="SourceGraphic" in2="effect1_dropShadow_3_2244" result="shape"/>
</filter>
<radialGradient id="paint0_radial_3_2244" cx="0" cy="0" r="1" gradientUnits="userSpaceOnUse" gradientTransform="translate(510.926 510.926) rotate(90) scale(510.926)">
<stop stop-color="#0439C7"/>
<stop offset="1" stop-color="#02122B" stop-opacity="0"/>
</radialGradient>
<radialGradient id="paint1_radial_3_2244" cx="0" cy="0" r="1" gradientUnits="userSpaceOnUse" gradientTransform="translate(132.6 132.6) rotate(90) scale(132.6)">
<stop stop-color="#0439C7"/>
<stop offset="1" stop-color="#02122B" stop-opacity="0"/>
</radialGradient>
<radialGradient id="paint2_radial_3_2244" cx="0" cy="0" r="1" gradientUnits="userSpaceOnUse" gradientTransform="translate(132.6 132.6) rotate(90) scale(132.6)">
<stop stop-color="#0439C7"/>
<stop offset="1" stop-color="#02122B" stop-opacity="0"/>
</radialGradient>
<radialGradient id="paint3_radial_3_2244" cx="0" cy="0" r="1" gradientUnits="userSpaceOnUse" gradientTransform="translate(528.939 645.652) rotate(90) scale(261.026 298.381)">
<stop stop-color="#4C78B7"/>
<stop offset="1" stop-color="white" stop-opacity="0"/>
</radialGradient>
<linearGradient id="paint4_linear_3_2244" x1="762.913" y1="298.47" x2="447.346" y2="566.454" gradientUnits="userSpaceOnUse">
<stop stop-color="#0E284D"/>
<stop offset="0.333333" stop-color="#294772"/>
<stop offset="0.666667" stop-color="#377CDD"/>
<stop offset="1" stop-color="#34E6BF"/>
</linearGradient>
<linearGradient id="paint5_linear_3_2244" x1="762.913" y1="298.47" x2="447.346" y2="566.454" gradientUnits="userSpaceOnUse">
<stop stop-color="#0E284D"/>
<stop offset="0.333333" stop-color="#294772"/>
<stop offset="0.666667" stop-color="#377CDD"/>
<stop offset="1" stop-color="#34E6BF"/>
</linearGradient>
<linearGradient id="paint6_linear_3_2244" x1="444.939" y1="413.29" x2="345.118" y2="498.059" gradientUnits="userSpaceOnUse">
<stop stop-color="#0E284D"/>
<stop offset="0.333333" stop-color="#294772"/>
<stop offset="0.666667" stop-color="#377CDD"/>
<stop offset="1" stop-color="#34E6BF"/>
</linearGradient>
<linearGradient id="paint7_linear_3_2244" x1="444.939" y1="413.29" x2="345.118" y2="498.059" gradientUnits="userSpaceOnUse">
<stop stop-color="#0E284D"/>
<stop offset="0.333333" stop-color="#294772"/>
<stop offset="0.666667" stop-color="#377CDD"/>
<stop offset="1" stop-color="#34E6BF"/>
</linearGradient>
<linearGradient id="paint8_linear_3_2244" x1="746.226" y1="551.494" x2="615.43" y2="627.99" gradientUnits="userSpaceOnUse">
<stop stop-color="#0E284D"/>
<stop offset="0.333333" stop-color="#294772"/>
<stop offset="0.666667" stop-color="#377CDD"/>
<stop offset="1" stop-color="#34E6BF"/>
</linearGradient>
<linearGradient id="paint9_linear_3_2244" x1="746.226" y1="551.494" x2="615.43" y2="627.99" gradientUnits="userSpaceOnUse">
<stop stop-color="#0E284D"/>
<stop offset="0.333333" stop-color="#294772"/>
<stop offset="0.666667" stop-color="#377CDD"/>
<stop offset="1" stop-color="#34E6BF"/>
</linearGradient>
<linearGradient id="paint10_linear_3_2244" x1="652.647" y1="680.805" x2="552.826" y2="765.575" gradientUnits="userSpaceOnUse">
<stop stop-color="#0E284D"/>
<stop offset="0.333333" stop-color="#294772"/>
<stop offset="0.666667" stop-color="#377CDD"/>
<stop offset="1" stop-color="#34E6BF"/>
</linearGradient>
<linearGradient id="paint11_linear_3_2244" x1="652.647" y1="680.805" x2="552.826" y2="765.575" gradientUnits="userSpaceOnUse">
<stop stop-color="#0E284D"/>
<stop offset="0.333333" stop-color="#294772"/>
<stop offset="0.666667" stop-color="#377CDD"/>
<stop offset="1" stop-color="#34E6BF"/>
</linearGradient>
<linearGradient id="paint12_linear_3_2244" x1="653.508" y1="678.996" x2="523.207" y2="770.234" gradientUnits="userSpaceOnUse">
<stop stop-color="#0E284D"/>
<stop offset="0.333333" stop-color="#294772"/>
<stop offset="0.666667" stop-color="#377CDD"/>
<stop offset="1" stop-color="#34E6BF"/>
</linearGradient>
<linearGradient id="paint13_linear_3_2244" x1="653.267" y1="637.433" x2="552.244" y2="723.51" gradientUnits="userSpaceOnUse">
<stop stop-color="#0E284D"/>
<stop offset="0.333333" stop-color="#294772"/>
<stop offset="0.666667" stop-color="#377CDD"/>
<stop offset="1" stop-color="#34E6BF"/>
</linearGradient>
<linearGradient id="paint14_linear_3_2244" x1="559.858" y1="753.194" x2="557.917" y2="749.831" gradientUnits="userSpaceOnUse">
<stop stop-color="#103DB5"/>
<stop offset="0.6426" stop-color="#6BABFD"/>
</linearGradient>
<linearGradient id="paint15_linear_3_2244" x1="233.361" y1="623.174" x2="363.138" y2="736.226" gradientUnits="userSpaceOnUse">
<stop stop-color="#0E284D"/>
<stop offset="0.333333" stop-color="#294772"/>
<stop offset="0.666667" stop-color="#377CDD"/>
<stop offset="1" stop-color="#34E6BF"/>
</linearGradient>
<linearGradient id="paint16_linear_3_2244" x1="233.361" y1="623.174" x2="363.138" y2="736.226" gradientUnits="userSpaceOnUse">
<stop stop-color="#0E284D"/>
<stop offset="0.333333" stop-color="#294772"/>
<stop offset="0.666667" stop-color="#377CDD"/>
<stop offset="1" stop-color="#34E6BF"/>
</linearGradient>
<linearGradient id="paint17_linear_3_2244" x1="314.89" y1="586.824" x2="256.955" y2="636.307" gradientUnits="userSpaceOnUse">
<stop stop-color="#0E284D"/>
<stop offset="0.333333" stop-color="#294772"/>
<stop offset="0.666667" stop-color="#377CDD"/>
<stop offset="1" stop-color="#34E6BF"/>
</linearGradient>
<linearGradient id="paint18_linear_3_2244" x1="142.779" y1="673.128" x2="227.197" y2="848.499" gradientUnits="userSpaceOnUse">
<stop stop-color="#34E6BF"/>
<stop offset="0.333333" stop-color="#377CDD"/>
<stop offset="0.666667" stop-color="#294772"/>
<stop offset="1" stop-color="#0E284D"/>
</linearGradient>
<linearGradient id="paint19_linear_3_2244" x1="142.779" y1="673.128" x2="227.197" y2="848.499" gradientUnits="userSpaceOnUse">
<stop stop-color="#34E6BF"/>
<stop offset="0.333333" stop-color="#377CDD"/>
<stop offset="0.666667" stop-color="#294772"/>
<stop offset="1" stop-color="#0E284D"/>
</linearGradient>
<linearGradient id="paint20_linear_3_2244" x1="314.89" y1="586.824" x2="256.955" y2="636.307" gradientUnits="userSpaceOnUse">
<stop stop-color="#0E284D"/>
<stop offset="0.333333" stop-color="#294772"/>
<stop offset="0.666667" stop-color="#377CDD"/>
<stop offset="1" stop-color="#34E6BF"/>
</linearGradient>
<linearGradient id="paint21_linear_3_2244" x1="320.247" y1="618.127" x2="254.234" y2="601.828" gradientUnits="userSpaceOnUse">
<stop stop-color="#0E284D"/>
<stop offset="0.333333" stop-color="#294772"/>
<stop offset="0.666667" stop-color="#377CDD"/>
<stop offset="1" stop-color="#34E6BF"/>
</linearGradient>
<linearGradient id="paint22_linear_3_2244" x1="269.416" y1="552.887" x2="371.512" y2="674.85" gradientUnits="userSpaceOnUse">
<stop stop-color="#34E6BF"/>
<stop offset="0.333333" stop-color="#377CDD"/>
<stop offset="0.666667" stop-color="#294772"/>
<stop offset="1" stop-color="#0E284D"/>
</linearGradient>
<linearGradient id="paint23_linear_3_2244" x1="230.36" y1="554.27" x2="382.65" y2="556.611" gradientUnits="userSpaceOnUse">
<stop stop-color="#34E6BF"/>
<stop offset="0.333333" stop-color="#377CDD"/>
<stop offset="0.666667" stop-color="#294772"/>
<stop offset="1" stop-color="#0E284D"/>
</linearGradient>
<linearGradient id="paint24_linear_3_2244" x1="673.811" y1="548.317" x2="501.218" y2="513.954" gradientUnits="userSpaceOnUse">
<stop stop-color="#0E284D"/>
<stop offset="0.333333" stop-color="#294772"/>
<stop offset="0.666667" stop-color="#377CDD"/>
<stop offset="1" stop-color="#34E6BF"/>
</linearGradient>
<linearGradient id="paint25_linear_3_2244" x1="676.975" y1="522.762" x2="527.005" y2="535.896" gradientUnits="userSpaceOnUse">
<stop stop-color="#0E284D"/>
<stop offset="0.333333" stop-color="#294772"/>
<stop offset="0.666667" stop-color="#377CDD"/>
<stop offset="1" stop-color="#34E6BF"/>
</linearGradient>
<linearGradient id="paint26_linear_3_2244" x1="680.773" y1="547.197" x2="663.386" y2="537.683" gradientUnits="userSpaceOnUse">
<stop stop-color="#0E284D"/>
<stop offset="0.333333" stop-color="#294772"/>
<stop offset="0.666667" stop-color="#377CDD"/>
<stop offset="1" stop-color="#34E6BF"/>
</linearGradient>
<linearGradient id="paint27_linear_3_2244" x1="731.091" y1="511.834" x2="613.542" y2="460.017" gradientUnits="userSpaceOnUse">
<stop stop-color="#0E284D"/>
<stop offset="0.333333" stop-color="#294772"/>
<stop offset="0.666667" stop-color="#377CDD"/>
<stop offset="1" stop-color="#34E6BF"/>
</linearGradient>
<linearGradient id="paint28_linear_3_2244" x1="550.377" y1="548.723" x2="647.933" y2="548.723" gradientUnits="userSpaceOnUse">
<stop offset="1.1e-07" stop-color="#0CDDE9"/>
<stop offset="1" stop-color="#0FF0B4"/>
</linearGradient>
<linearGradient id="paint29_linear_3_2244" x1="656.683" y1="545.809" x2="552.529" y2="545.809" gradientUnits="userSpaceOnUse">
<stop offset="1.1e-07" stop-color="#0CDDE9"/>
<stop offset="1" stop-color="#0FF0B4"/>
</linearGradient>
<linearGradient id="paint30_linear_3_2244" x1="748.122" y1="454.842" x2="488.301" y2="528.842" gradientUnits="userSpaceOnUse">
<stop stop-color="#0E284D"/>
<stop offset="0.333333" stop-color="#294772"/>
<stop offset="0.666667" stop-color="#377CDD"/>
<stop offset="1" stop-color="#34E6BF"/>
</linearGradient>
<linearGradient id="paint31_linear_3_2244" x1="697.237" y1="531.502" x2="579.726" y2="479.724" gradientUnits="userSpaceOnUse">
<stop stop-color="#0E284D"/>
<stop offset="0.333333" stop-color="#294772"/>
<stop offset="0.666667" stop-color="#377CDD"/>
<stop offset="1" stop-color="#34E6BF"/>
</linearGradient>
<linearGradient id="paint32_linear_3_2244" x1="785.96" y1="457.341" x2="554.09" y2="554.987" gradientUnits="userSpaceOnUse">
<stop stop-color="#0E284D"/>
<stop offset="0.333333" stop-color="#294772"/>
<stop offset="0.666667" stop-color="#377CDD"/>
<stop offset="1" stop-color="#34E6BF"/>
</linearGradient>
<linearGradient id="paint33_linear_3_2244" x1="752.745" y1="562.705" x2="738.83" y2="513.702" gradientUnits="userSpaceOnUse">
<stop stop-color="#0E284D"/>
<stop offset="0.333333" stop-color="#294772"/>
<stop offset="0.666667" stop-color="#377CDD"/>
<stop offset="1" stop-color="#34E6BF"/>
</linearGradient>
<linearGradient id="paint34_linear_3_2244" x1="709.321" y1="561.293" x2="676.896" y2="502.085" gradientUnits="userSpaceOnUse">
<stop stop-color="#0E284D"/>
<stop offset="0.333333" stop-color="#294772"/>
<stop offset="0.666667" stop-color="#377CDD"/>
<stop offset="1" stop-color="#34E6BF"/>
</linearGradient>
<linearGradient id="paint35_linear_3_2244" x1="709.321" y1="561.293" x2="676.896" y2="502.085" gradientUnits="userSpaceOnUse">
<stop stop-color="#0E284D"/>
<stop offset="0.333333" stop-color="#294772"/>
<stop offset="0.666667" stop-color="#377CDD"/>
<stop offset="1" stop-color="#34E6BF"/>
</linearGradient>
<linearGradient id="paint36_linear_3_2244" x1="709.321" y1="561.293" x2="676.896" y2="502.085" gradientUnits="userSpaceOnUse">
<stop stop-color="#0E284D"/>
<stop offset="0.333333" stop-color="#294772"/>
<stop offset="0.666667" stop-color="#377CDD"/>
<stop offset="1" stop-color="#34E6BF"/>
</linearGradient>
<linearGradient id="paint37_linear_3_2244" x1="709.321" y1="561.293" x2="676.896" y2="502.085" gradientUnits="userSpaceOnUse">
<stop stop-color="#0E284D"/>
<stop offset="0.333333" stop-color="#294772"/>
<stop offset="0.666667" stop-color="#377CDD"/>
<stop offset="1" stop-color="#34E6BF"/>
</linearGradient>
<linearGradient id="paint38_linear_3_2244" x1="849.607" y1="534.76" x2="827.919" y2="482.936" gradientUnits="userSpaceOnUse">
<stop stop-color="#0E284D"/>
<stop offset="0.333333" stop-color="#294772"/>
<stop offset="0.666667" stop-color="#377CDD"/>
<stop offset="1" stop-color="#34E6BF"/>
</linearGradient>
<linearGradient id="paint39_linear_3_2244" x1="440.774" y1="444.438" x2="359.901" y2="534.84" gradientUnits="userSpaceOnUse">
<stop stop-color="#0E284D"/>
<stop offset="0.333333" stop-color="#294772"/>
<stop offset="0.666667" stop-color="#377CDD"/>
<stop offset="1" stop-color="#34E6BF"/>
</linearGradient>
<linearGradient id="paint40_linear_3_2244" x1="358.071" y1="453.869" x2="394.005" y2="507.674" gradientUnits="userSpaceOnUse">
<stop stop-color="#03FFCF"/>
<stop offset="1" stop-color="#2CFFFC"/>
</linearGradient>
<linearGradient id="paint41_linear_3_2244" x1="396.039" y1="437.506" x2="440.986" y2="465.118" gradientUnits="userSpaceOnUse">
<stop stop-color="#02E6BA"/>
<stop offset="1" stop-color="#2CFFFC"/>
</linearGradient>
<linearGradient id="paint42_linear_3_2244" x1="440.774" y1="386.76" x2="335.614" y2="476.609" gradientUnits="userSpaceOnUse">
<stop stop-color="#0E284D"/>
<stop offset="0.333333" stop-color="#294772"/>
<stop offset="0.666667" stop-color="#377CDD"/>
<stop offset="1" stop-color="#34E6BF"/>
</linearGradient>
<linearGradient id="paint43_linear_3_2244" x1="533.667" y1="355.023" x2="319.051" y2="402.001" gradientUnits="userSpaceOnUse">
<stop stop-color="#0E284D"/>
<stop offset="0.333333" stop-color="#294772"/>
<stop offset="0.666667" stop-color="#377CDD"/>
<stop offset="0.890329" stop-color="#34E6BF"/>
</linearGradient>
<linearGradient id="paint44_linear_3_2244" x1="393.783" y1="463.536" x2="393.783" y2="353.852" gradientUnits="userSpaceOnUse">
<stop stop-color="#03FFCF"/>
<stop offset="0.26" stop-color="#235F87"/>
<stop offset="0.4587" stop-color="#1C3F72"/>
<stop offset="0.715" stop-color="#162561" stop-opacity="0"/>
<stop offset="1" stop-color="#02122A" stop-opacity="0"/>
</linearGradient>
</defs>
</svg>
