<svg width="611" height="386" viewBox="0 0 611 386" fill="none" xmlns="http://www.w3.org/2000/svg">
<path d="M391.574 564.434C516.238 499.229 796.295 332.094 799.293 332.094M335.738 532.206C460.401 467.001 740.458 299.867 743.456 299.867M279.901 499.978C404.565 434.773 684.622 267.639 687.62 267.639M224.065 467.751C348.729 402.546 628.785 235.411 631.783 235.411M168.228 435.523C292.892 370.318 572.949 203.183 575.947 203.183M112.392 403.295C237.056 338.09 517.112 170.956 520.11 170.956M56.5552 371.067C181.219 305.862 461.276 138.728 464.274 138.728M0.71875 338.84C125.383 273.635 405.439 106.5 408.437 106.5M408.437 564.434C283.773 499.229 3.71668 332.094 0.71875 332.094M464.274 532.206C339.61 467.001 59.5531 299.867 56.5552 299.867M520.11 499.978C395.446 434.773 115.39 267.639 112.392 267.639M575.947 467.751C451.283 402.546 171.226 235.411 168.228 235.411M631.783 435.523C507.119 370.318 227.063 203.183 224.065 203.183M687.62 403.295C562.956 338.09 282.899 170.956 279.901 170.956M743.456 371.067C618.792 305.862 338.735 138.728 335.738 138.728M799.293 338.84C674.629 273.635 394.572 106.5 391.574 106.5" stroke="url(#paint0_radial_3_2897)" stroke-opacity="0.6" stroke-width="0.374741" stroke-linecap="round"/>
<g opacity="0.5" filter="url(#filter0_f_3_2897)">
<circle cx="88.5" cy="88.5" r="88.5" transform="matrix(-1 0 0 1 501 10.4375)" fill="url(#paint1_radial_3_2897)"/>
</g>
<g opacity="0.5" filter="url(#filter1_f_3_2897)">
<circle cx="130.708" cy="130.708" r="130.708" transform="matrix(-1 0 0 1 618.236 277.309)" fill="url(#paint2_radial_3_2897)"/>
</g>
<path d="M263.377 185.633C261.029 185.633 258.681 185.114 256.893 184.078L222.485 164.141C220.699 163.106 219.715 161.709 219.715 160.209C219.715 158.708 220.699 157.312 222.485 156.276L256.892 136.339C260.468 134.267 266.286 134.267 269.862 136.339L304.269 156.276C306.054 157.312 307.038 158.708 307.038 160.209C307.038 161.709 306.054 163.106 304.27 164.14L269.863 184.077C268.075 185.114 265.726 185.633 263.377 185.633ZM263.376 135.384C261.136 135.384 258.899 135.878 257.193 136.866L222.786 156.802C221.193 157.725 220.317 158.935 220.317 160.211C220.317 161.487 221.193 162.697 222.786 163.619L257.194 183.556C260.602 185.531 266.152 185.531 269.56 183.556L303.967 163.619C305.559 162.698 306.436 161.488 306.436 160.212C306.436 158.935 305.559 157.725 303.966 156.802L269.559 136.866C267.856 135.878 265.616 135.384 263.376 135.384Z" fill="url(#paint3_linear_3_2897)"/>
<g filter="url(#filter2_f_3_2897)">
<path d="M285.871 174.678C285.545 174.487 285.125 174.597 284.934 174.923C284.742 175.25 284.853 175.67 285.179 175.861L285.871 174.678ZM285.525 175.27L285.179 175.861L325.626 199.512L325.972 198.92L326.318 198.329L285.871 174.678L285.525 175.27Z" fill="url(#paint4_linear_3_2897)"/>
</g>
<path d="M285.871 174.678C285.545 174.487 285.125 174.597 284.934 174.923C284.742 175.25 284.853 175.67 285.179 175.861L285.871 174.678ZM285.525 175.27L285.179 175.861L325.626 199.512L325.972 198.92L326.318 198.329L285.871 174.678L285.525 175.27Z" fill="url(#paint5_linear_3_2897)"/>
<path d="M306.788 131.42V138.233C306.788 140.088 305.63 141.986 303.34 143.46L302.867 143.749L273.301 160.938L273.299 160.938C270.627 162.517 267.082 163.314 263.523 163.314C259.965 163.314 256.419 162.518 253.747 160.938L253.745 160.938L224.039 143.749L224.035 143.746L223.538 143.457C221.135 141.982 219.979 140.085 219.979 138.233V131.42H306.788Z" fill="#10305D"/>
<path d="M306.788 131.42V138.233C306.788 140.088 305.63 141.986 303.34 143.46L302.867 143.749L273.301 160.938L273.299 160.938C270.627 162.517 267.082 163.314 263.523 163.314C259.965 163.314 256.419 162.518 253.747 160.938L253.745 160.938L224.039 143.749L224.035 143.746L223.538 143.457C221.135 141.982 219.979 140.085 219.979 138.233V131.42H306.788Z" fill="url(#paint6_linear_3_2897)"/>
<path d="M306.788 131.42V138.233C306.788 140.088 305.63 141.986 303.34 143.46L302.867 143.749L273.301 160.938L273.299 160.938C270.627 162.517 267.082 163.314 263.523 163.314C259.965 163.314 256.419 162.518 253.747 160.938L253.745 160.938L224.039 143.749L224.035 143.746L223.538 143.457C221.135 141.982 219.979 140.085 219.979 138.233V131.42H306.788Z" stroke="#244C85" stroke-width="0.49527"/>
<path d="M302.732 124.595C308.171 127.809 308.171 132.84 302.871 136.054L273.305 153.242C267.866 156.456 259.08 156.456 253.501 153.242L223.795 136.054C218.356 132.84 218.356 127.809 223.795 124.595L253.362 107.407C258.801 104.193 267.587 104.193 273.026 107.407L302.732 124.595Z" fill="#052046"/>
<g filter="url(#filter3_d_3_2897)">
<path d="M292.76 126.02C296.827 128.409 296.827 132.149 292.864 134.537L270.758 147.313C266.691 149.702 260.122 149.702 255.951 147.313L233.74 134.537C229.674 132.149 229.674 128.409 233.74 126.02L255.847 113.245C259.913 110.856 266.483 110.856 270.549 113.245L292.76 126.02Z" fill="#052046"/>
<path d="M263.198 114.755C265.42 114.755 267.467 115.263 268.877 116.092L268.89 116.1L268.903 116.106L291.113 128.883C291.8 129.29 292.168 129.668 292.35 129.925C292.52 130.167 292.521 130.29 292.521 130.307C292.522 130.322 292.525 130.439 292.364 130.674C292.193 130.924 291.839 131.296 291.173 131.7L269.105 144.454L269.086 144.466C267.677 145.294 265.63 145.803 263.394 145.803C261.164 145.803 259.077 145.297 257.598 144.451L235.412 131.69H235.413C234.709 131.277 234.336 130.893 234.155 130.637C233.99 130.402 233.992 130.288 233.992 130.279C233.992 130.275 233.987 130.16 234.155 129.921C234.336 129.664 234.709 129.281 235.413 128.867L235.412 128.866L257.499 116.104L257.509 116.098L257.52 116.092C258.93 115.263 260.976 114.755 263.198 114.755Z" stroke="#15D7AC" stroke-width="6.6036"/>
</g>
<path d="M263.124 105.031V105.73C266.75 105.73 270.097 106.568 272.608 107.966L302.313 125.154C304.684 126.552 306.079 128.368 306.079 130.325C306.079 132.281 304.824 134.098 302.313 135.355L272.887 152.683C270.376 154.221 267.029 154.919 263.403 154.919C259.777 154.919 256.43 154.081 253.919 152.683L224.214 135.495C221.843 134.098 220.448 132.281 220.448 130.325C220.448 128.368 221.703 126.552 224.214 125.154L253.78 107.966C256.29 106.429 259.637 105.73 263.263 105.73V105.031M263.124 105.031C259.498 105.031 256.011 105.87 253.222 107.407L223.795 124.595C218.356 127.809 218.356 132.84 223.795 136.054L253.501 153.242C256.29 154.779 259.777 155.618 263.403 155.618C267.029 155.618 270.516 154.779 273.305 153.242L302.871 136.054C308.31 132.84 308.31 127.809 302.732 124.595L273.026 107.407C270.376 105.87 266.75 105.031 263.124 105.031Z" fill="#244C85"/>
<path fill-rule="evenodd" clip-rule="evenodd" d="M219.834 98.0676L263.494 80.1953V155.08C259.947 155.061 256.41 154.258 253.724 152.67L224.018 135.482C221.229 133.945 219.834 131.848 219.834 129.752V98.0676Z" fill="url(#paint7_linear_3_2897)" fill-opacity="0.46"/>
<path d="M273.528 152.67L303.094 135.482C305.744 133.945 307.139 131.848 307.139 129.752V98.0676L263.494 80.1953V155.08C267.129 155.1 270.775 154.297 273.528 152.67Z" fill="url(#paint8_linear_3_2897)" fill-opacity="0.46"/>
<path d="M306.787 106.564C306.787 108.419 305.629 110.316 303.339 111.79L302.866 112.079L273.3 129.268L273.298 129.269C270.626 130.848 267.081 131.644 263.522 131.645C259.964 131.645 256.418 130.848 253.746 129.269L253.744 129.268L224.038 112.079L224.034 112.077L223.537 111.787C221.134 110.313 219.979 108.416 219.979 106.564V96.7959L263.43 118.553L263.541 118.608L263.651 118.553L306.787 96.7959V106.564Z" fill="#10305D"/>
<path d="M306.787 106.564C306.787 108.419 305.629 110.316 303.339 111.79L302.866 112.079L273.3 129.268L273.298 129.269C270.626 130.848 267.081 131.644 263.522 131.645C259.964 131.645 256.418 130.848 253.746 129.269L253.744 129.268L224.038 112.079L224.034 112.077L223.537 111.787C221.134 110.313 219.979 108.416 219.979 106.564V96.7959L263.43 118.553L263.541 118.608L263.651 118.553L306.787 96.7959V106.564Z" fill="url(#paint9_linear_3_2897)"/>
<path d="M306.787 106.564C306.787 108.419 305.629 110.316 303.339 111.79L302.866 112.079L273.3 129.268L273.298 129.269C270.626 130.848 267.081 131.644 263.522 131.645C259.964 131.645 256.418 130.848 253.746 129.269L253.744 129.268L224.038 112.079L224.034 112.077L223.537 111.787C221.134 110.313 219.979 108.416 219.979 106.564V96.7959L263.43 118.553L263.541 118.608L263.651 118.553L306.787 96.7959V106.564Z" stroke="#244C85" stroke-width="0.49527"/>
<path d="M223.938 100.143L219.981 95.6025C220.02 93.653 221.336 91.6643 223.9 90.1768V90.1758L253.467 72.9883L253.469 72.9873C256.141 71.4083 259.685 70.6114 263.244 70.6113C266.803 70.6113 270.348 71.4082 273.021 72.9873L273.022 72.9883L302.729 90.1768L302.732 90.1787L303.229 90.4678C305.586 91.9136 306.742 93.7655 306.786 95.583L300.583 101.022C300.533 100.994 300.47 100.957 300.396 100.915C300.175 100.788 299.849 100.602 299.434 100.363C298.603 99.8867 297.412 99.2038 295.973 98.3809C293.094 96.735 289.222 94.5269 285.247 92.2773C281.272 90.0278 277.193 87.7363 273.901 85.9248C270.619 84.1184 268.099 82.7778 267.258 82.4404C265.832 81.8692 264.57 81.5879 263.299 81.5928C262.028 81.5976 260.763 81.8874 259.333 82.4385C259.046 82.5493 258.309 82.9367 257.265 83.5127C256.211 84.0937 254.824 84.8786 253.221 85.7959C250.015 87.6305 245.941 89.9986 241.936 92.3408C237.929 94.6832 233.99 96.9995 231.053 98.7305C229.584 99.5959 228.366 100.316 227.515 100.818C227.089 101.07 226.755 101.267 226.527 101.401C226.436 101.456 226.362 101.5 226.306 101.533L223.938 100.143Z" fill="#10305D" stroke="#244C85" stroke-width="0.49527"/>
<path d="M253.388 72.9273C258.812 69.7221 267.574 69.7222 272.998 72.9273L302.623 90.0689C308.047 93.2742 308.047 98.2913 302.762 101.497L273.276 118.638C267.852 121.843 259.09 121.843 253.526 118.638L223.902 101.497C218.478 98.2913 218.478 93.2742 223.902 90.0689L253.388 72.9273ZM270.719 78.2984C266.533 75.8331 259.772 75.8332 255.586 78.2984L232.832 91.482C228.647 93.9471 228.647 97.8058 232.832 100.271L255.693 113.456C259.986 115.921 266.748 115.921 270.934 113.456L293.687 100.271C297.765 97.8057 297.765 93.9472 293.579 91.482L270.719 78.2984Z" fill="#052046"/>
<path d="M253.36 72.8632C258.8 69.6491 267.586 69.6491 273.025 72.8632L302.731 90.0517C308.17 93.2657 308.17 98.2966 302.87 101.511L273.304 118.699C267.865 121.913 259.079 121.913 253.5 118.699L223.794 101.511C218.355 98.2966 218.355 93.2657 223.794 90.0517L253.36 72.8632ZM270.738 78.2489C266.541 75.7769 259.762 75.777 255.565 78.2489L232.748 91.4687C228.551 93.9407 228.551 97.8102 232.748 100.282L255.672 113.502C259.977 115.974 266.757 115.974 270.954 113.502L293.77 100.282C297.859 97.8102 297.859 93.9407 293.662 91.4687L270.738 78.2489Z" fill="#052046"/>
<path d="M253.36 72.8632C258.8 69.6491 267.586 69.6491 273.025 72.8632L302.731 90.0517C308.17 93.2657 308.17 98.2966 302.87 101.511L273.304 118.699C267.865 121.913 259.079 121.913 253.5 118.699L223.794 101.511C218.355 98.2966 218.355 93.2657 223.794 90.0517L253.36 72.8632ZM270.738 78.2489C266.541 75.7769 259.762 75.777 255.565 78.2489L232.748 91.4687C228.551 93.9407 228.551 97.8102 232.748 100.282L255.672 113.502C259.977 115.974 266.757 115.974 270.954 113.502L293.77 100.282C297.859 97.8102 297.859 93.9407 293.662 91.4687L270.738 78.2489Z" fill="url(#paint10_linear_3_2897)"/>
<path d="M263.123 70.4883V71.187C266.749 71.187 270.096 72.0255 272.607 73.4229L302.312 90.6112C304.683 92.0086 306.078 93.8252 306.078 95.7816C306.078 97.738 304.823 99.5547 302.312 100.812L272.886 118.14C270.375 119.678 267.028 120.376 263.402 120.376C259.776 120.376 256.429 119.538 253.918 118.14L224.213 100.952C221.842 99.5547 220.447 97.738 220.447 95.7816C220.447 93.8252 221.702 92.0086 224.213 90.6112L253.779 73.4229C256.289 71.8857 259.636 71.187 263.263 71.187V70.4883M263.123 70.4883C259.497 70.4883 256.01 71.3268 253.221 72.8639L223.794 90.0522C218.355 93.2663 218.355 98.297 223.794 101.511L253.5 118.699C256.289 120.237 259.776 121.075 263.402 121.075C267.028 121.075 270.515 120.237 273.304 118.699L302.87 101.511C308.309 98.297 308.309 93.2663 302.731 90.0522L273.025 72.8639C270.375 71.3268 266.749 70.4883 263.123 70.4883Z" fill="#244C85"/>
<path opacity="0.5" d="M297.483 16.8008H262.541H229.271V95.6249C229.271 97.2581 230.361 98.8913 232.54 100.089L255.75 113.481C259.999 115.986 266.973 115.986 271.222 113.481L294.323 100.089C296.393 98.8913 297.483 97.2581 297.483 95.6249V16.8008Z" fill="url(#paint11_linear_3_2897)"/>
<g filter="url(#filter4_f_3_2897)">
<path d="M483.845 155.356C490.666 154.609 497.617 155.831 502.754 158.784L598.732 213.961C602.991 216.409 604.954 219.473 604.954 222.388C604.954 225.303 602.991 228.366 598.732 230.814L346.323 375.92C343.442 377.576 339.896 378.692 336.175 379.159L336.161 379.161C329.169 380.189 321.24 379.15 315.623 375.921V375.92L219.645 320.744C215.479 318.349 213.546 315.265 213.546 312.317C213.546 309.37 215.478 306.284 219.645 303.89L472.053 158.784C475.414 156.852 479.608 155.732 483.831 155.358L483.845 155.356Z" stroke="#03FFCF" stroke-width="1.37106"/>
<path d="M483.845 155.356C490.666 154.609 497.617 155.831 502.754 158.784L598.732 213.961C602.991 216.409 604.954 219.473 604.954 222.388C604.954 225.303 602.991 228.366 598.732 230.814L346.323 375.92C343.442 377.576 339.896 378.692 336.175 379.159L336.161 379.161C329.169 380.189 321.24 379.15 315.623 375.921V375.92L219.645 320.744C215.479 318.349 213.546 315.265 213.546 312.317C213.546 309.37 215.478 306.284 219.645 303.89L472.053 158.784C475.414 156.852 479.608 155.732 483.831 155.358L483.845 155.356Z" stroke="url(#paint12_linear_3_2897)" stroke-width="1.37106"/>
</g>
<path d="M483.845 155.356C490.666 154.609 497.617 155.831 502.754 158.784L598.732 213.961C602.991 216.409 604.954 219.473 604.954 222.388C604.954 225.303 602.991 228.366 598.732 230.814L346.323 375.92C343.442 377.576 339.896 378.692 336.175 379.159L336.161 379.161C329.169 380.189 321.24 379.15 315.623 375.921V375.92L219.645 320.744C215.479 318.349 213.546 315.265 213.546 312.317C213.546 309.37 215.478 306.284 219.645 303.89L472.053 158.784C475.414 156.852 479.608 155.732 483.831 155.358L483.845 155.356Z" stroke="#03FFCF" stroke-width="1.37106"/>
<path d="M483.845 155.356C490.666 154.609 497.617 155.831 502.754 158.784L598.732 213.961C602.991 216.409 604.954 219.473 604.954 222.388C604.954 225.303 602.991 228.366 598.732 230.814L346.323 375.92C343.442 377.576 339.896 378.692 336.175 379.159L336.161 379.161C329.169 380.189 321.24 379.15 315.623 375.921V375.92L219.645 320.744C215.479 318.349 213.546 315.265 213.546 312.317C213.546 309.37 215.478 306.284 219.645 303.89L472.053 158.784C475.414 156.852 479.608 155.732 483.831 155.358L483.845 155.356Z" stroke="url(#paint13_linear_3_2897)" stroke-width="1.37106"/>
<path d="M480.927 108.405C486.464 108.169 491.817 109.163 495.732 111.461L495.735 111.462L600.058 171.622C603.466 173.669 605.255 176.344 605.255 178.938C605.255 182.217 602.781 185.936 597.805 188.683L597.801 188.686L594.147 190.771L594.145 190.772L353.158 330.045C348.612 332.618 342.937 334.082 337.404 334.319C331.866 334.556 326.513 333.563 322.597 331.266L322.418 331.572L322.448 331.52L322.597 331.265L322.595 331.264L224.184 274.581L218.275 271.104C214.878 269.065 213.25 266.392 213.25 263.786C213.25 260.498 215.559 256.78 220.532 253.862L220.533 253.863L465.169 112.681C469.716 110.107 475.392 108.642 480.927 108.405Z" fill="#1E4780"/>
<path d="M480.927 108.405C486.464 108.169 491.817 109.163 495.732 111.461L495.735 111.462L600.058 171.622C603.466 173.669 605.255 176.344 605.255 178.938C605.255 182.217 602.781 185.936 597.805 188.683L597.801 188.686L594.147 190.771L594.145 190.772L353.158 330.045C348.612 332.618 342.937 334.082 337.404 334.319C331.866 334.556 326.513 333.563 322.597 331.266L322.418 331.572L322.448 331.52L322.597 331.265L322.595 331.264L224.184 274.581L218.275 271.104C214.878 269.065 213.25 266.392 213.25 263.786C213.25 260.498 215.559 256.78 220.532 253.862L220.533 253.863L465.169 112.681C469.716 110.107 475.392 108.642 480.927 108.405Z" fill="url(#paint14_linear_3_2897)"/>
<path d="M480.927 108.405C486.464 108.169 491.817 109.163 495.732 111.461L495.735 111.462L600.058 171.622C603.466 173.669 605.255 176.344 605.255 178.938C605.255 182.217 602.781 185.936 597.805 188.683L597.801 188.686L594.147 190.771L594.145 190.772L353.158 330.045C348.612 332.618 342.937 334.082 337.404 334.319C331.866 334.556 326.513 333.563 322.597 331.266L322.418 331.572L322.448 331.52L322.597 331.265L322.595 331.264L224.184 274.581L218.275 271.104C214.878 269.065 213.25 266.392 213.25 263.786C213.25 260.498 215.559 256.78 220.532 253.862L220.533 253.863L465.169 112.681C469.716 110.107 475.392 108.642 480.927 108.405Z" stroke="#4C78B7" stroke-width="0.773188"/>
<path d="M322.493 326.266L227.465 271.402C219.558 266.837 220.549 258.863 229.679 253.591L465.022 117.716C474.153 112.445 487.965 111.872 495.872 116.438L590.9 171.302C598.807 175.867 597.816 183.842 588.685 189.113L353.343 324.988C344.213 330.26 330.4 330.832 322.493 326.266Z" fill="#162D55"/>
<path d="M582.203 188.48L352.125 321.315C349.416 322.879 346.101 323.922 342.641 324.359C336.164 325.315 328.787 324.358 323.517 321.315L236.031 270.805C228.201 266.284 228.2 258.808 236.031 254.288L466.108 121.452C469.269 119.627 473.186 118.583 477.1 118.235C483.424 117.539 489.898 118.671 494.716 121.452L582.203 171.963C590.182 176.571 590.183 183.872 582.203 188.48Z" fill="#162D55"/>
<path d="M570.605 165.259L564.584 168.735C560.82 170.909 554.795 170.909 551.182 168.823L500.286 139.438C496.522 137.265 496.523 133.787 500.287 131.613L506.308 128.137L570.605 165.259Z" fill="#1E4780"/>
<g opacity="0.05">
<path d="M476.95 249.245L384.799 302.449L384.645 168.483L466.105 121.451C469.267 119.626 473.183 118.582 477.098 118.234L476.95 249.245Z" fill="white" fill-opacity="0.5"/>
<path d="M367.783 312.268L352.122 321.309C349.413 322.874 346.099 323.917 342.638 324.353L342.483 192.819L367.778 178.215L367.783 312.268Z" fill="white" fill-opacity="0.5"/>
</g>
<path d="M605.639 178.938V202.41C605.639 205.887 603.03 209.539 597.989 212.494L353.349 353.678C348.827 356.461 342.917 357.851 337.353 358.025C331.79 358.373 326.399 357.331 322.399 355.069L218.075 294.735C214.599 292.649 212.859 289.866 212.859 287.086V263.786C212.859 266.568 214.599 269.351 218.075 271.437L223.987 274.915L322.399 331.598C326.398 333.856 331.789 334.901 337.352 334.552C342.916 334.378 348.827 332.986 353.348 330.379L594.336 191.107L597.988 189.021C603.03 186.239 605.639 182.414 605.639 178.938Z" fill="#1E4780"/>
<path d="M605.639 178.938V202.41C605.639 205.887 603.03 209.539 597.989 212.494L353.349 353.678C348.827 356.461 342.917 357.851 337.353 358.025C331.79 358.373 326.399 357.331 322.399 355.069L218.075 294.735C214.599 292.649 212.859 289.866 212.859 287.086V263.786C212.859 266.568 214.599 269.351 218.075 271.437L223.987 274.915L322.399 331.598C326.398 333.856 331.789 334.901 337.352 334.552C342.916 334.378 348.827 332.986 353.348 330.379L594.336 191.107L597.988 189.021C603.03 186.239 605.639 182.414 605.639 178.938Z" fill="url(#paint15_linear_3_2897)"/>
<path fill-rule="evenodd" clip-rule="evenodd" d="M565.021 218.738C564.597 218 563.656 217.746 562.918 218.17L541 230.936C540.262 231.36 540.008 232.302 540.432 233.039C540.856 233.777 541.798 234.031 542.536 233.607L564.453 220.841C565.191 220.418 565.445 219.476 565.021 218.738Z" fill="#2CFFFC"/>
<path fill-rule="evenodd" clip-rule="evenodd" d="M536.167 235.66C535.743 234.922 534.801 234.668 534.063 235.092L512.146 247.858C511.408 248.282 511.154 249.223 511.578 249.961C512.002 250.699 512.943 250.953 513.681 250.529L535.599 237.763C536.337 237.339 536.591 236.398 536.167 235.66Z" fill="#2CFFFC"/>
<path d="M298.589 231.6C298.259 231.6 297.948 231.664 297.721 231.795L287.542 237.671C287.446 237.728 287.286 237.844 287.286 238.002C287.286 238.167 287.445 238.356 287.711 238.509L292.123 241.056C292.722 241.405 293.659 241.448 294.173 241.155L304.35 235.279C304.446 235.223 304.607 235.106 304.607 234.947C304.607 234.783 304.448 234.594 304.182 234.44L299.77 231.893C299.436 231.7 298.998 231.6 298.589 231.6ZM293.3 241.945C292.787 241.945 292.252 241.819 291.825 241.573L287.413 239.026C286.954 238.76 286.691 238.388 286.689 238.002C286.689 237.664 286.888 237.362 287.245 237.156L297.424 231.28C298.118 230.88 299.28 230.921 300.067 231.376L304.479 233.923C304.939 234.189 305.202 234.561 305.203 234.947C305.203 235.288 305.005 235.588 304.647 235.794L294.469 241.672C294.15 241.855 293.734 241.945 293.3 241.945Z" fill="#15D7AC"/>
<path d="M309.9 238.221C309.571 238.221 309.259 238.285 309.034 238.416L298.855 244.292C298.759 244.348 298.598 244.464 298.598 244.623C298.598 244.786 298.757 244.977 299.025 245.13L303.435 247.677C304.038 248.026 304.973 248.069 305.484 247.775L315.663 241.899C315.759 241.843 315.919 241.727 315.919 241.568C315.919 241.405 315.76 241.214 315.494 241.059L311.082 238.512C310.749 238.32 310.31 238.221 309.9 238.221ZM304.611 248.566C304.099 248.566 303.564 248.44 303.138 248.192L298.726 245.647C298.266 245.38 298.002 245.007 298.002 244.623C298.002 244.283 298.2 243.983 298.558 243.776L308.735 237.899C309.427 237.5 310.59 237.541 311.38 237.996L315.792 240.544C316.251 240.808 316.516 241.184 316.516 241.568C316.516 241.908 316.317 242.208 315.96 242.415L305.783 248.292C305.463 248.475 305.045 248.566 304.611 248.566Z" fill="#15D7AC"/>
<path d="M321.213 244.818C320.884 244.818 320.573 244.883 320.346 245.014L310.167 250.89C310.071 250.946 309.911 251.061 309.911 251.22C309.911 251.384 310.07 251.575 310.336 251.73L314.748 254.277C315.349 254.623 316.287 254.668 316.796 254.374L326.975 248.496C327.071 248.441 327.232 248.325 327.232 248.167C327.232 248.002 327.073 247.811 326.807 247.658L322.395 245.111C322.06 244.919 321.623 244.818 321.213 244.818ZM315.924 255.164C315.413 255.164 314.877 255.039 314.45 254.793L310.038 252.246C309.579 251.979 309.314 251.606 309.314 251.22C309.314 250.881 309.511 250.581 309.87 250.373L320.049 244.497C320.74 244.099 321.902 244.138 322.692 244.595L327.104 247.142C327.564 247.409 327.828 247.781 327.828 248.167C327.828 248.505 327.63 248.806 327.272 249.013L317.094 254.889C316.775 255.072 316.359 255.164 315.924 255.164Z" fill="#15D7AC"/>
<path d="M328.109 260.987L338.288 255.111C338.384 255.055 338.543 254.94 338.543 254.781C338.543 254.617 338.385 254.426 338.118 254.272L333.707 251.725C333.107 251.379 332.166 251.336 331.659 251.627L321.48 257.505C321.384 257.56 321.223 257.676 321.223 257.834C321.223 257.999 321.382 258.19 321.648 258.343L326.06 260.89C326.661 261.237 327.6 261.28 328.109 260.987ZM327.236 261.777C326.724 261.777 326.189 261.653 325.763 261.406L321.351 258.859C320.891 258.592 320.627 258.22 320.627 257.834C320.627 257.496 320.824 257.194 321.181 256.988L331.36 251.112C332.052 250.712 333.216 250.751 334.005 251.208L338.417 253.755C338.876 254.022 339.139 254.395 339.139 254.781C339.139 255.12 338.942 255.42 338.585 255.628L328.406 261.504C328.088 261.687 327.67 261.777 327.236 261.777Z" fill="#15D7AC"/>
<path d="M343.838 258.041C343.509 258.041 343.199 258.106 342.972 258.236L332.794 264.113C332.698 264.168 332.538 264.284 332.538 264.443C332.538 264.607 332.697 264.798 332.963 264.952L337.375 267.499C337.977 267.845 338.916 267.891 339.423 267.595L349.601 261.719C349.697 261.663 349.859 261.548 349.859 261.389C349.859 261.225 349.7 261.034 349.432 260.881L345.022 258.334C344.687 258.14 344.248 258.041 343.838 258.041ZM338.551 268.387C338.039 268.387 337.504 268.262 337.076 268.016L332.665 265.467C332.206 265.202 331.941 264.828 331.941 264.443C331.941 264.104 332.138 263.803 332.497 263.596L342.674 257.72C343.368 257.322 344.531 257.364 345.319 257.819L349.731 260.364C350.191 260.632 350.455 261.004 350.455 261.389C350.454 261.728 350.257 262.028 349.899 262.236L339.721 268.112C339.402 268.295 338.985 268.387 338.551 268.387Z" fill="#15D7AC"/>
<path d="M355.152 264.652C354.823 264.652 354.511 264.715 354.284 264.846L344.107 270.722C344.011 270.778 343.85 270.895 343.85 271.054C343.85 271.218 344.009 271.407 344.275 271.562L348.687 274.109C349.288 274.455 350.227 274.501 350.736 274.206L360.915 268.33C361.009 268.273 361.17 268.157 361.17 267.999C361.17 267.834 361.011 267.645 360.745 267.492L356.333 264.945C355.999 264.751 355.562 264.652 355.152 264.652ZM349.863 274.996C349.351 274.996 348.816 274.871 348.39 274.625L343.978 272.078C343.518 271.812 343.254 271.44 343.254 271.054C343.254 270.713 343.451 270.413 343.808 270.207L353.987 264.329C354.684 263.93 355.845 263.973 356.63 264.428L361.042 266.975C361.503 267.241 361.766 267.613 361.766 267.999C361.766 268.337 361.569 268.639 361.212 268.845L351.033 274.721C350.715 274.904 350.297 274.996 349.863 274.996Z" fill="#15D7AC"/>
<path d="M366.462 271.261C366.135 271.261 365.822 271.326 365.595 271.457L355.416 277.333C355.32 277.389 355.16 277.504 355.16 277.663C355.16 277.829 355.319 278.018 355.586 278.171L359.998 280.719C360.601 281.066 361.539 281.108 362.047 280.816L372.224 274.939C372.32 274.884 372.481 274.768 372.481 274.609C372.481 274.445 372.322 274.256 372.056 274.101L367.644 271.554C367.31 271.36 366.873 271.261 366.462 271.261ZM361.174 281.605C360.662 281.605 360.127 281.481 359.699 281.235L355.287 278.688C354.828 278.422 354.565 278.049 354.563 277.663C354.563 277.324 354.762 277.024 355.119 276.816L365.298 270.94C365.995 270.541 367.156 270.584 367.943 271.038L372.353 273.586C372.813 273.85 373.077 274.223 373.077 274.609C373.077 274.948 372.88 275.249 372.521 275.456L362.344 281.332C362.026 281.515 361.608 281.605 361.174 281.605Z" fill="#15D7AC"/>
<path d="M377.776 277.873C377.447 277.873 377.136 277.938 376.909 278.068L366.732 283.945C366.636 284 366.475 284.116 366.475 284.277C366.475 284.44 366.634 284.63 366.9 284.784L371.311 287.331C371.913 287.678 372.853 287.722 373.361 287.427L383.538 281.551C383.634 281.495 383.795 281.38 383.795 281.222C383.795 281.057 383.636 280.868 383.37 280.714L378.958 278.166C378.624 277.972 378.186 277.873 377.776 277.873ZM372.488 288.219C371.976 288.219 371.44 288.094 371.013 287.848L366.603 285.299C366.142 285.035 365.879 284.663 365.879 284.277C365.879 283.936 366.076 283.635 366.433 283.428L376.612 277.552C377.307 277.154 378.47 277.196 379.255 277.651L383.667 280.198C384.128 280.464 384.391 280.836 384.391 281.224C384.391 281.561 384.193 281.862 383.835 282.068L373.658 287.944C373.34 288.127 372.922 288.219 372.488 288.219Z" fill="#15D7AC"/>
<path d="M280.672 242.951C280.343 242.951 280.031 243.016 279.804 243.147L269.625 249.023C269.529 249.078 269.37 249.194 269.37 249.353C269.37 249.517 269.527 249.706 269.795 249.861L274.207 252.408C274.807 252.758 275.745 252.801 276.255 252.505L286.433 246.629C286.529 246.574 286.689 246.458 286.689 246.299C286.689 246.134 286.53 245.944 286.264 245.791L281.852 243.243C281.519 243.05 281.082 242.951 280.672 242.951ZM275.383 253.297C274.871 253.297 274.334 253.171 273.908 252.924L269.496 250.376C269.036 250.112 268.773 249.739 268.773 249.353C268.773 249.014 268.97 248.714 269.328 248.506L279.506 242.63C280.199 242.232 281.361 242.271 282.151 242.728L286.562 245.274C287.021 245.54 287.286 245.913 287.286 246.299C287.286 246.638 287.089 246.938 286.731 247.146L276.553 253.022C276.234 253.205 275.817 253.297 275.383 253.297Z" fill="#15D7AC"/>
<path d="M291.985 249.568C291.655 249.568 291.344 249.633 291.117 249.764L280.94 255.64C280.844 255.696 280.683 255.813 280.683 255.97C280.683 256.134 280.842 256.325 281.108 256.48L285.519 259.025C286.121 259.375 287.057 259.418 287.569 259.124L297.746 253.248C297.842 253.192 298.003 253.075 298.003 252.917C298.003 252.754 297.844 252.563 297.578 252.408L293.166 249.861C292.832 249.669 292.395 249.568 291.985 249.568ZM286.696 259.914C286.184 259.914 285.648 259.788 285.221 259.542L280.811 256.996C280.351 256.729 280.087 256.356 280.087 255.97C280.087 255.633 280.284 255.331 280.641 255.125L290.82 249.249C291.512 248.849 292.675 248.89 293.463 249.345L297.875 251.892C298.336 252.159 298.599 252.531 298.599 252.917C298.599 253.255 298.402 253.557 298.043 253.763L287.866 259.639C287.548 259.824 287.13 259.914 286.696 259.914Z" fill="#15D7AC"/>
<path d="M303.295 256.172C302.968 256.172 302.655 256.236 302.428 256.367L292.249 262.243C292.153 262.299 291.993 262.414 291.993 262.572C291.993 262.737 292.152 262.928 292.419 263.081L296.831 265.63C297.432 265.975 298.371 266.02 298.878 265.726L309.057 259.849C309.153 259.794 309.314 259.678 309.314 259.519C309.314 259.355 309.155 259.165 308.889 259.01L304.477 256.463C304.143 256.271 303.706 256.172 303.295 256.172ZM298.006 266.516C297.495 266.516 296.96 266.391 296.532 266.145L292.12 263.598C291.661 263.33 291.396 262.958 291.396 262.572C291.396 262.234 291.595 261.934 291.952 261.727L302.131 255.85C302.823 255.451 303.984 255.491 304.774 255.946L309.186 258.495C309.646 258.761 309.91 259.133 309.91 259.519C309.91 259.858 309.713 260.159 309.354 260.366L299.177 266.242C298.859 266.426 298.441 266.516 298.006 266.516Z" fill="#15D7AC"/>
<path d="M314.611 262.779C314.28 262.779 313.97 262.844 313.743 262.975L303.565 268.851C303.469 268.907 303.307 269.022 303.307 269.181C303.307 269.345 303.466 269.536 303.732 269.69L308.144 272.237C308.747 272.583 309.685 272.628 310.194 272.334L320.372 266.457C320.468 266.402 320.628 266.286 320.628 266.128C320.628 265.963 320.469 265.772 320.203 265.619L315.791 263.071C315.458 262.88 315.019 262.779 314.611 262.779ZM309.322 273.125C308.81 273.125 308.273 273 307.847 272.754L303.435 270.206C302.975 269.94 302.711 269.567 302.711 269.181C302.712 268.842 302.909 268.542 303.267 268.334L313.445 262.458C314.138 262.059 315.3 262.099 316.089 262.556L320.501 265.103C320.96 265.37 321.225 265.742 321.225 266.128C321.225 266.466 321.026 266.767 320.669 266.974L310.492 272.85C310.173 273.033 309.756 273.125 309.322 273.125Z" fill="#15D7AC"/>
<path d="M325.922 269.394C325.593 269.394 325.281 269.457 325.055 269.588L314.876 275.464C314.78 275.521 314.62 275.637 314.62 275.795C314.62 275.96 314.779 276.151 315.046 276.304L319.457 278.851C320.059 279.199 320.998 279.241 321.505 278.948L331.684 273.072C331.78 273.016 331.941 272.899 331.941 272.742C331.941 272.578 331.782 272.387 331.516 272.232L327.104 269.686C326.77 269.493 326.332 269.394 325.922 269.394ZM320.633 279.738C320.121 279.738 319.586 279.614 319.159 279.367L314.747 276.82C314.288 276.553 314.023 276.181 314.023 275.795C314.023 275.457 314.222 275.155 314.579 274.949L324.756 269.073C325.45 268.673 326.613 268.712 327.401 269.169L331.813 271.716C332.273 271.983 332.537 272.356 332.537 272.742C332.537 273.081 332.339 273.381 331.981 273.587L321.804 279.465C321.486 279.648 321.067 279.738 320.633 279.738Z" fill="#15D7AC"/>
<path d="M337.234 276.004C336.905 276.004 336.595 276.067 336.368 276.197L326.189 282.074C326.093 282.129 325.932 282.245 325.932 282.404C325.932 282.568 326.091 282.758 326.357 282.912L330.769 285.46C331.37 285.807 332.31 285.851 332.818 285.556L342.997 279.68C343.093 279.624 343.253 279.509 343.253 279.349C343.253 279.186 343.094 278.995 342.828 278.842L338.416 276.295C338.081 276.101 337.644 276.004 337.234 276.004ZM331.945 286.348C331.435 286.348 330.898 286.223 330.472 285.975L326.06 283.428C325.6 283.161 325.336 282.789 325.336 282.404C325.336 282.065 325.533 281.764 325.892 281.557L336.07 275.681C336.766 275.28 337.927 275.325 338.714 275.778L343.126 278.325C343.585 278.591 343.85 278.965 343.85 279.349C343.85 279.689 343.651 279.989 343.294 280.196L333.115 286.073C332.797 286.256 332.381 286.348 331.945 286.348Z" fill="#15D7AC"/>
<path d="M348.547 282.615C348.218 282.615 347.906 282.68 347.68 282.811L337.501 288.687C337.405 288.743 337.245 288.858 337.245 289.019C337.245 289.183 337.404 289.372 337.67 289.526L342.082 292.073C342.684 292.422 343.623 292.465 344.13 292.171L354.309 286.293C354.405 286.238 354.564 286.122 354.564 285.964C354.564 285.799 354.407 285.61 354.139 285.457L349.729 282.91C349.395 282.716 348.957 282.615 348.547 282.615ZM343.258 292.961C342.746 292.961 342.211 292.836 341.784 292.59L337.372 290.043C336.913 289.777 336.648 289.405 336.648 289.019C336.648 288.678 336.845 288.378 337.204 288.17L347.381 282.294C348.078 281.896 349.241 281.938 350.026 282.393L354.438 284.94C354.898 285.206 355.161 285.578 355.161 285.964C355.161 286.302 354.964 286.604 354.606 286.81L344.428 292.686C344.111 292.869 343.692 292.961 343.258 292.961Z" fill="#15D7AC"/>
<path d="M359.858 289.226C359.53 289.226 359.218 289.291 358.991 289.421L348.814 295.298C348.718 295.353 348.557 295.469 348.557 295.628C348.557 295.793 348.716 295.983 348.982 296.136L353.394 298.683C353.996 299.031 354.935 299.075 355.443 298.78L365.622 292.904C365.718 292.848 365.878 292.733 365.878 292.574C365.878 292.41 365.719 292.221 365.452 292.066L361.04 289.519C360.706 289.325 360.269 289.226 359.858 289.226ZM354.57 299.57C354.058 299.57 353.523 299.446 353.095 299.199L348.685 296.652C348.225 296.387 347.961 296.014 347.961 295.628C347.961 295.289 348.158 294.988 348.517 294.781L358.694 288.905C359.391 288.505 360.552 288.547 361.339 289.002L365.751 291.549C366.21 291.815 366.475 292.188 366.475 292.575C366.475 292.915 366.276 293.215 365.919 293.421L355.74 299.297C355.422 299.48 355.004 299.57 354.57 299.57Z" fill="#15D7AC"/>
<path d="M271.149 256.172C270.821 256.172 270.508 256.236 270.281 256.367L260.104 262.243C260.008 262.299 259.847 262.414 259.847 262.572C259.847 262.737 260.006 262.928 260.272 263.081L264.684 265.63C265.285 265.976 266.225 266.02 266.733 265.726L276.91 259.849C277.006 259.794 277.168 259.678 277.168 259.519C277.168 259.355 277.009 259.165 276.743 259.01L272.331 256.463C271.998 256.271 271.559 256.172 271.149 256.172ZM265.86 266.516C265.348 266.516 264.813 266.391 264.387 266.145L259.975 263.598C259.514 263.33 259.251 262.958 259.251 262.572C259.251 262.234 259.449 261.934 259.807 261.727L269.984 255.85C270.678 255.451 271.839 255.491 272.629 255.946L277.041 258.495C277.5 258.759 277.763 259.133 277.763 259.519C277.763 259.858 277.566 260.159 277.209 260.366L267.03 266.242C266.712 266.426 266.294 266.516 265.86 266.516Z" fill="#15D7AC"/>
<path d="M282.461 262.779C282.132 262.779 281.82 262.844 281.594 262.975L271.415 268.851C271.319 268.907 271.159 269.022 271.159 269.181C271.159 269.345 271.318 269.536 271.584 269.69L275.996 272.237C276.597 272.583 277.535 272.629 278.044 272.334L288.223 266.457C288.319 266.402 288.48 266.286 288.48 266.128C288.48 265.963 288.321 265.772 288.053 265.619L283.641 263.071C283.308 262.88 282.871 262.779 282.461 262.779ZM277.172 273.125C276.66 273.125 276.125 273 275.698 272.754L271.286 270.206C270.827 269.94 270.562 269.567 270.562 269.181C270.562 268.842 270.759 268.542 271.118 268.334L281.296 262.458C281.988 262.062 283.149 262.099 283.94 262.556L288.352 265.103C288.812 265.37 289.076 265.742 289.076 266.128C289.076 266.466 288.878 266.767 288.52 266.974L278.342 272.85C278.023 273.033 277.606 273.125 277.172 273.125Z" fill="#15D7AC"/>
<path d="M293.775 269.394C293.446 269.394 293.133 269.457 292.907 269.588L282.729 275.464C282.633 275.521 282.472 275.637 282.472 275.794C282.472 275.96 282.632 276.15 282.897 276.304L287.31 278.85C287.91 279.197 288.849 279.241 289.358 278.948L299.535 273.072C299.631 273.016 299.792 272.899 299.792 272.741C299.792 272.578 299.633 272.387 299.367 272.232L294.957 269.685C294.622 269.493 294.185 269.394 293.775 269.394ZM288.485 279.738C287.973 279.738 287.439 279.613 287.012 279.367L282.6 276.82C282.139 276.553 281.876 276.18 281.876 275.794C281.876 275.457 282.073 275.155 282.43 274.949L292.609 269.073C293.302 268.673 294.464 268.712 295.254 269.169L299.665 271.716C300.124 271.983 300.388 272.355 300.388 272.741C300.388 273.081 300.192 273.381 299.834 273.587L289.655 279.465C289.337 279.648 288.919 279.738 288.485 279.738Z" fill="#15D7AC"/>
<path d="M305.086 276.002C304.757 276.002 304.447 276.067 304.22 276.197L294.042 282.074C293.946 282.129 293.786 282.245 293.786 282.404C293.786 282.568 293.945 282.758 294.211 282.912L298.623 285.46C299.223 285.807 300.162 285.851 300.671 285.556L310.849 279.68C310.945 279.624 311.105 279.509 311.105 279.349C311.105 279.186 310.948 278.995 310.68 278.842L306.268 276.295C305.935 276.101 305.498 276.002 305.086 276.002ZM299.799 286.348C299.287 286.348 298.75 286.223 298.324 285.975L293.913 283.428C293.454 283.161 293.189 282.789 293.189 282.404C293.189 282.065 293.386 281.764 293.744 281.557L303.922 275.681C304.619 275.281 305.782 275.325 306.567 275.778L310.979 278.325C311.439 278.591 311.702 278.965 311.702 279.349C311.702 279.689 311.505 279.989 311.146 280.196L300.969 286.073C300.65 286.256 300.233 286.348 299.799 286.348Z" fill="#15D7AC"/>
<path d="M316.399 282.617C316.071 282.617 315.759 282.68 315.532 282.811L305.353 288.687C305.257 288.743 305.098 288.858 305.098 289.019C305.098 289.183 305.256 289.372 305.523 289.526L309.935 292.073C310.538 292.42 311.475 292.465 311.982 292.171L322.161 286.293C322.257 286.238 322.418 286.122 322.418 285.964C322.418 285.799 322.259 285.61 321.993 285.457L317.581 282.91C317.247 282.716 316.81 282.617 316.399 282.617ZM311.11 292.961C310.599 292.961 310.064 292.836 309.636 292.59L305.224 290.043C304.765 289.777 304.502 289.405 304.502 289.019C304.502 288.678 304.699 288.378 305.056 288.17L315.235 282.294C315.932 281.895 317.093 281.938 317.878 282.393L322.29 284.94C322.75 285.206 323.014 285.578 323.014 285.964C323.014 286.302 322.817 286.604 322.46 286.81L312.281 292.686C311.963 292.869 311.545 292.961 311.11 292.961Z" fill="#15D7AC"/>
<path d="M327.711 289.226C327.382 289.226 327.071 289.291 326.844 289.421L316.666 295.298C316.569 295.353 316.409 295.469 316.409 295.628C316.409 295.793 316.568 295.983 316.834 296.136L321.246 298.683C321.848 299.031 322.787 299.075 323.296 298.78L333.473 292.904C333.569 292.848 333.73 292.733 333.73 292.574C333.73 292.41 333.571 292.221 333.305 292.066L328.893 289.519C328.559 289.325 328.122 289.226 327.711 289.226ZM322.423 299.57C321.911 299.57 321.375 299.446 320.948 299.199L316.536 296.652C316.077 296.387 315.814 296.014 315.812 295.628C315.812 295.289 316.011 294.988 316.368 294.781L326.547 288.905C327.242 288.505 328.406 288.547 329.19 289.002L333.602 291.549C334.062 291.815 334.326 292.188 334.326 292.575C334.326 292.915 334.129 293.215 333.771 293.421L323.593 299.297C323.275 299.48 322.857 299.57 322.423 299.57Z" fill="#15D7AC"/>
<path d="M339.025 295.836C338.696 295.836 338.384 295.899 338.157 296.031L327.978 301.906C327.882 301.961 327.721 302.077 327.721 302.238C327.721 302.401 327.88 302.59 328.148 302.745L332.558 305.292C333.162 305.639 334.101 305.684 334.607 305.388L344.786 299.512C344.882 299.456 345.042 299.341 345.042 299.182C345.042 299.018 344.883 298.829 344.617 298.675L340.205 296.127C339.872 295.933 339.435 295.836 339.025 295.836ZM333.734 306.18C333.224 306.18 332.687 306.055 332.261 305.809L327.849 303.26C327.389 302.996 327.127 302.622 327.125 302.238C327.125 301.897 327.323 301.596 327.681 301.389L337.858 295.514C338.553 295.113 339.716 295.155 340.503 295.612L344.915 298.159C345.374 298.425 345.639 298.797 345.639 299.183C345.639 299.522 345.44 299.823 345.082 300.029L334.906 305.905C334.587 306.088 334.168 306.18 333.734 306.18Z" fill="#15D7AC"/>
<mask id="mask0_3_2897" style="mask-type:luminance" maskUnits="userSpaceOnUse" x="460" y="129" width="25" height="15">
<path d="M476.444 143.531C474.887 143.531 473.4 143.217 472.29 142.575L462.222 136.763C459.771 135.348 460.078 132.876 462.909 131.241C464.458 130.347 466.441 129.889 468.321 129.889C469.877 129.889 471.365 130.203 472.475 130.844L482.543 136.657C484.994 138.073 484.687 140.545 481.856 142.18C480.307 143.073 478.325 143.531 476.444 143.531Z" fill="white"/>
</mask>
<g mask="url(#mask0_3_2897)">
<rect x="458.878" y="129.137" width="26.9931" height="15.18" fill="#33E6BF"/>
</g>
<mask id="mask1_3_2897" style="mask-type:luminance" maskUnits="userSpaceOnUse" x="541" y="178" width="25" height="15">
<path d="M557.424 192.074C555.866 192.074 554.38 191.76 553.27 191.118L543.202 185.306C540.751 183.891 541.058 181.419 543.889 179.784C545.437 178.89 547.42 178.432 549.3 178.432C550.857 178.432 552.344 178.746 553.455 179.387L563.522 185.2C565.974 186.616 565.666 189.088 562.835 190.723C561.287 191.616 559.304 192.074 557.424 192.074Z" fill="white"/>
</mask>
<g mask="url(#mask1_3_2897)">
<rect x="539.859" y="177.676" width="26.9931" height="15.18" fill="#33E6BF"/>
</g>
<path d="M468.466 127.317C466.64 127.317 464.712 127.75 463.208 128.594C461.798 129.385 460.988 130.42 460.988 131.435C460.988 132.259 461.536 133.02 462.529 133.577L472.488 139.165C474.857 140.494 479.015 140.324 481.759 138.784C483.171 137.993 483.98 136.957 483.98 135.944C483.98 135.118 483.433 134.357 482.439 133.8L472.479 128.211C471.407 127.611 469.972 127.317 468.466 127.317ZM476.501 140.43C474.924 140.431 473.419 140.12 472.296 139.49L462.335 133.902C461.217 133.275 460.602 132.398 460.602 131.435C460.602 130.283 461.481 129.129 463.015 128.268C465.864 126.669 470.197 126.498 472.672 127.887L482.632 133.474C483.75 134.102 484.367 134.979 484.367 135.944C484.367 137.095 483.486 138.249 481.952 139.109C480.396 139.982 478.397 140.43 476.501 140.43Z" fill="#15D7AC"/>
<path d="M549.322 175.762C547.495 175.762 545.567 176.195 544.063 177.039C542.653 177.83 541.844 178.866 541.844 179.88C541.844 180.705 542.391 181.466 543.384 182.022L553.344 187.611C555.713 188.939 559.87 188.769 562.615 187.229C564.026 186.438 564.835 185.403 564.835 184.389C564.835 183.564 564.288 182.803 563.295 182.245L553.334 176.657C552.263 176.057 550.827 175.762 549.322 175.762ZM557.357 188.875C555.78 188.876 554.274 188.566 553.151 187.935L543.191 182.348C542.073 181.72 541.457 180.844 541.457 179.88C541.457 178.729 542.336 177.574 543.87 176.714C546.719 175.114 551.052 174.944 553.527 176.332L563.487 181.92C564.606 182.547 565.222 183.425 565.222 184.389C565.222 185.541 564.342 186.694 562.808 187.555C561.251 188.427 559.253 188.875 557.357 188.875Z" fill="#15D7AC"/>
<path d="M408.256 130.327C417.162 128.904 425.239 116.702 427.031 101.079C428.763 85.9906 424.062 72.6831 416.214 68.7264C407.308 70.1487 399.231 82.3508 397.438 97.9738C395.707 113.062 400.408 126.37 408.256 130.327Z" fill="#DB3754"/>
<path d="M390.77 96.9213C388.781 114.26 395.285 129.247 405.298 130.395C406.289 130.509 407.278 130.483 408.256 130.327C400.408 126.37 395.707 113.062 397.438 97.9738C399.231 82.3508 407.308 70.1487 416.214 68.7264C415.316 68.2739 414.377 67.9436 413.403 67.7471L412.503 67.6051C402.49 66.4569 392.76 79.5822 390.77 96.9213Z" fill="#DB3754"/>
<path fill-rule="evenodd" clip-rule="evenodd" d="M412.503 67.6051L413.403 67.7471C413.106 67.6873 412.806 67.6398 412.503 67.6051ZM411.966 131.448C411.663 131.413 411.364 131.366 411.067 131.306L411.966 131.448Z" fill="#D9D9D9"/>
<path d="M411.966 131.448C421.98 132.596 431.71 119.471 433.7 102.132C435.689 84.7927 429.185 69.8058 419.171 68.6576C418.18 68.544 417.192 68.5701 416.214 68.7264C424.062 72.6831 428.763 85.9906 427.031 101.079C425.239 116.702 417.162 128.904 408.256 130.327C409.153 130.779 410.092 131.109 411.067 131.306L411.966 131.448Z" fill="#EF5371"/>
<path d="M411.067 131.306C410.092 131.109 409.153 130.779 408.256 130.327C407.278 130.483 406.289 130.509 405.298 130.395L411.067 131.306Z" fill="#EF5371"/>
<path d="M416.214 68.7264C417.192 68.5701 418.18 68.544 419.171 68.6576L413.403 67.7471C414.377 67.9436 415.316 68.2739 416.214 68.7264Z" fill="#EF5371"/>
<g filter="url(#filter5_f_3_2897)">
<path d="M470.162 305.414L563.366 359.498C566.312 361.207 566.42 365.423 563.566 367.281L525.919 391.791" stroke="url(#paint16_linear_3_2897)" stroke-width="1.37106"/>
</g>
<path d="M470.162 305.414L563.366 359.498C566.312 361.207 566.42 365.423 563.566 367.281L525.919 391.791" stroke="url(#paint17_linear_3_2897)" stroke-width="1.37106"/>
<path d="M532.04 394.979C537.457 398.179 537.457 403.189 532.179 406.39L502.735 423.507C497.318 426.708 488.568 426.708 483.013 423.507L453.43 406.39C448.013 403.189 448.013 398.179 453.43 394.979L482.874 377.862C488.291 374.661 497.04 374.661 502.457 377.862L532.04 394.979Z" fill="#052046"/>
<g filter="url(#filter6_d_3_2897)">
<path d="M522.11 396.398C526.16 398.777 526.16 402.5 522.214 404.879L500.199 417.602C496.149 419.981 489.607 419.981 485.453 417.602L463.335 404.879C459.285 402.5 459.285 398.777 463.335 396.398L485.349 383.675C489.399 381.296 495.941 381.296 499.991 383.675L522.11 396.398Z" fill="#052046"/>
<path d="M492.67 385.179C494.883 385.179 496.921 385.685 498.325 386.51L498.339 386.518L498.352 386.525L520.454 399.238C521.149 399.648 521.52 400.028 521.701 400.286C521.872 400.529 521.872 400.652 521.872 400.667C521.872 400.684 521.873 400.8 521.715 401.032C521.545 401.282 521.193 401.652 520.53 402.054L498.554 414.755L498.543 414.761L498.533 414.767C497.13 415.591 495.093 416.099 492.865 416.099C490.645 416.099 488.566 415.594 487.093 414.752L464.999 402.044H465C464.299 401.632 463.927 401.251 463.747 400.995C463.581 400.759 463.585 400.645 463.585 400.639C463.585 400.634 463.58 400.521 463.747 400.282C463.927 400.027 464.299 399.644 465 399.232L464.999 399.231L486.994 386.521L487.005 386.516L487.015 386.51C488.419 385.685 490.458 385.179 492.67 385.179Z" stroke="#15D7AC" stroke-width="6.57628"/>
</g>
<path d="M492.596 375.496V376.192C496.207 376.192 499.54 377.027 502.04 378.419L531.623 395.536C533.985 396.927 535.373 398.737 535.373 400.685C535.373 402.633 534.123 404.442 531.623 405.695L502.318 422.951C499.818 424.482 496.485 425.178 492.874 425.178C489.263 425.178 485.93 424.343 483.43 422.951L453.847 405.834C451.485 404.442 450.097 402.633 450.097 400.685C450.097 398.737 451.347 396.927 453.847 395.536L483.291 378.419C485.791 376.888 489.124 376.192 492.735 376.192V375.496M492.596 375.496C488.985 375.496 485.513 376.331 482.735 377.862L453.43 394.979C448.013 398.18 448.013 403.19 453.43 406.391L483.013 423.508C485.791 425.039 489.263 425.874 492.874 425.874C496.485 425.874 499.957 425.039 502.735 423.508L532.179 406.391C537.596 403.19 537.596 398.18 532.04 394.979L502.457 377.862C499.818 376.331 496.207 375.496 492.596 375.496Z" fill="#244C85"/>
<path fill-rule="evenodd" clip-rule="evenodd" d="M449.486 368.559H492.958L492.966 425.335C489.434 425.316 485.911 424.516 483.236 422.935L453.653 405.818C450.875 404.287 449.486 402.2 449.486 400.112V368.559Z" fill="url(#paint18_linear_3_2897)" fill-opacity="0.46"/>
<path d="M502.958 422.935L532.402 405.818C535.041 404.287 536.43 402.2 536.43 400.112V368.559H492.958L492.966 425.335C496.586 425.355 500.217 424.555 502.958 422.935Z" fill="url(#paint19_linear_3_2897)" fill-opacity="0.46"/>
<path d="M536.081 367.136V377.017C536.081 378.863 534.927 380.753 532.646 382.222L532.176 382.51L502.731 399.627L502.729 399.628C500.068 401.2 496.538 401.994 492.994 401.994C489.45 401.994 485.92 401.2 483.259 399.628L483.257 399.627L453.674 382.51L453.67 382.507L453.174 382.219C450.781 380.75 449.631 378.861 449.631 377.017V367.136H536.081Z" fill="#10305D"/>
<path d="M536.081 367.136V377.017C536.081 378.863 534.927 380.753 532.646 382.222L532.176 382.51L502.731 399.627L502.729 399.628C500.068 401.2 496.538 401.994 492.994 401.994C489.45 401.994 485.92 401.2 483.259 399.628L483.257 399.627L453.674 382.51L453.67 382.507L453.174 382.219C450.781 380.75 449.631 378.861 449.631 377.017V367.136H536.081Z" fill="url(#paint20_linear_3_2897)"/>
<path d="M536.081 367.136V377.017C536.081 378.863 534.927 380.753 532.646 382.222L532.176 382.51L502.731 399.627L502.729 399.628C500.068 401.2 496.538 401.994 492.994 401.994C489.45 401.994 485.92 401.2 483.259 399.628L483.257 399.627L453.674 382.51L453.67 382.507L453.174 382.219C450.781 380.75 449.631 378.861 449.631 377.017V367.136H536.081Z" stroke="#244C85" stroke-width="0.493221"/>
<path d="M532.04 360.576C537.457 363.777 537.457 368.787 532.179 371.988L502.735 389.105C497.318 392.306 488.568 392.306 483.013 389.105L453.43 371.988C448.013 368.787 448.013 363.777 453.43 360.576L482.874 343.459C488.291 340.258 497.04 340.258 502.457 343.459L532.04 360.576Z" fill="#052046"/>
<path d="M532.04 360.576C537.457 363.777 537.457 368.787 532.179 371.988L502.735 389.105C497.318 392.306 488.568 392.306 483.013 389.105L453.43 371.988C448.013 368.787 448.013 363.777 453.43 360.576L482.874 343.459C488.291 340.258 497.04 340.258 502.457 343.459L532.04 360.576Z" fill="url(#paint21_linear_3_2897)"/>
<path d="M492.596 341.094V341.79C496.207 341.79 499.54 342.625 502.04 344.016L531.623 361.133C533.984 362.525 535.373 364.334 535.373 366.282C535.373 368.231 534.123 370.04 531.623 371.292L502.318 388.549C499.818 390.08 496.485 390.775 492.874 390.775C489.263 390.775 485.929 389.94 483.429 388.549L453.846 371.432C451.485 370.04 450.096 368.231 450.096 366.282C450.096 364.334 451.346 362.525 453.846 361.133L483.29 344.016C485.79 342.485 489.124 341.79 492.735 341.79V341.094M492.596 341.094C488.985 341.094 485.513 341.929 482.735 343.46L453.43 360.577C448.013 363.778 448.013 368.787 453.43 371.988L483.013 389.105C485.79 390.636 489.263 391.471 492.874 391.471C496.485 391.471 499.957 390.636 502.735 389.105L532.179 371.988C537.595 368.787 537.595 363.778 532.04 360.577L502.457 343.46C499.818 341.929 496.207 341.094 492.596 341.094Z" fill="#244C85"/>
<ellipse cx="530.664" cy="365.855" rx="1.37796" ry="0.851219" transform="rotate(0.480098 530.664 365.855)" fill="#15D7AC"/>
<ellipse cx="527.893" cy="367.535" rx="1.37796" ry="0.851219" transform="rotate(0.480098 527.893 367.535)" fill="#15D7AC" fill-opacity="0.47"/>
<ellipse cx="525.124" cy="369.21" rx="1.37796" ry="0.851219" transform="rotate(0.480098 525.124 369.21)" fill="#15D7AC" fill-opacity="0.22"/>
<g opacity="0.5" filter="url(#filter7_f_3_2897)">
<ellipse cx="94.8316" cy="75.1798" rx="94.8316" ry="75.1798" transform="matrix(-1 0 0 1 505.58 142.258)" fill="url(#paint22_radial_3_2897)"/>
</g>
<path opacity="0.8" d="M413.034 192.417C423.067 192.417 432.136 195.341 438.688 200.05C445.239 204.759 449.253 211.235 449.253 218.353C449.253 225.471 445.24 231.947 438.688 236.656C432.136 241.365 423.067 244.289 413.034 244.289C403.002 244.289 393.934 241.365 387.382 236.656C380.829 231.947 376.815 225.471 376.815 218.353C376.816 211.234 380.83 204.759 387.382 200.05C393.934 195.341 403.002 192.417 413.034 192.417Z" stroke="url(#paint23_linear_3_2897)" stroke-width="0.68553"/>
<path opacity="0.6" d="M413.034 183.05C426.663 183.05 438.988 187.022 447.896 193.426C456.806 199.831 462.277 208.649 462.277 218.354C462.277 228.06 456.806 236.878 447.896 243.283C438.988 249.688 426.663 253.659 413.034 253.659C399.405 253.659 387.08 249.688 378.171 243.283C369.261 236.878 363.79 228.06 363.79 218.354C363.79 208.649 369.262 199.831 378.171 193.426C387.08 187.021 399.405 183.05 413.034 183.05Z" stroke="url(#paint24_linear_3_2897)" stroke-width="0.68553"/>
<path opacity="0.3" d="M413.035 172.995C430.577 172.995 446.444 178.092 457.917 186.316C469.39 194.541 476.447 205.873 476.447 218.354C476.447 230.836 469.39 242.167 457.917 250.392C446.444 258.616 430.577 263.714 413.035 263.714C395.494 263.714 379.627 258.616 368.154 250.392C356.681 242.167 349.624 230.836 349.624 218.354C349.624 205.873 356.681 194.541 368.154 186.316C379.627 178.092 395.494 172.995 413.035 172.995Z" stroke="url(#paint25_linear_3_2897)" stroke-width="0.68553"/>
<mask id="mask2_3_2897" style="mask-type:alpha" maskUnits="userSpaceOnUse" x="379" y="157" width="82" height="77">
<path d="M440.3 233.568L379.104 199.025L380.683 157.293L433.462 163.43L460.114 208.143L440.3 233.568Z" fill="#D9D9D9"/>
</mask>
<g mask="url(#mask2_3_2897)">
<path d="M428.774 237.428C435.2 230.253 434.066 215.35 425.575 202.104C417.374 189.311 405.013 182.281 396.026 184.594C389.6 191.769 390.734 206.673 399.225 219.918C407.426 232.711 419.787 239.742 428.774 237.428Z" fill="#DB3754"/>
<path d="M393.063 223.661C402.487 238.362 417.404 245.453 426.382 239.501C427.271 238.911 428.068 238.216 428.774 237.428C419.787 239.742 407.426 232.711 399.225 219.918C390.734 206.673 389.6 191.769 396.026 184.594C394.998 184.859 394.015 185.245 393.086 185.76L392.255 186.264C383.277 192.217 383.639 208.96 393.063 223.661Z" fill="#DB3754"/>
<path fill-rule="evenodd" clip-rule="evenodd" d="M392.255 186.264L393.086 185.76C392.804 185.916 392.527 186.084 392.255 186.264ZM432.545 235.758C432.273 235.938 431.996 236.106 431.714 236.263L432.545 235.758Z" fill="#D9D9D9"/>
<path d="M432.545 235.758C441.523 229.805 441.161 213.062 431.737 198.361C422.313 183.66 407.396 176.569 398.418 182.522C397.529 183.111 396.732 183.806 396.026 184.594C405.013 182.281 417.374 189.311 425.575 202.104C434.066 215.35 435.2 230.253 428.774 237.428C429.802 237.164 430.785 236.777 431.714 236.263L432.545 235.758Z" fill="#EF5371"/>
<path d="M431.714 236.263C430.785 236.777 429.802 237.164 428.774 237.428C428.068 238.216 427.271 238.911 426.382 239.501L431.714 236.263Z" fill="#EF5371"/>
<path d="M396.026 184.594C396.732 183.806 397.529 183.111 398.418 182.522L393.086 185.76C394.015 185.245 394.998 184.859 396.026 184.594Z" fill="#EF5371"/>
</g>
<g opacity="0.3">
<mask id="mask3_3_2897" style="mask-type:alpha" maskUnits="userSpaceOnUse" x="362" y="200" width="82" height="77">
<path d="M382.65 200.611L443.827 235.186L442.228 276.917L389.452 270.753L362.822 226.026L382.65 200.611Z" fill="#D9D9D9"/>
</mask>
<g mask="url(#mask3_3_2897)">
<path d="M428.597 237.428C435.023 230.253 433.89 215.35 425.398 202.104C417.197 189.311 404.836 182.281 395.849 184.594C389.423 191.769 390.557 206.673 399.048 219.918C407.249 232.711 419.61 239.742 428.597 237.428Z" fill="#DB3754"/>
<path d="M392.886 223.661C402.31 238.362 417.228 245.453 426.206 239.501C427.094 238.911 427.891 238.216 428.597 237.428C419.61 239.742 407.249 232.711 399.048 219.918C390.557 206.673 389.423 191.769 395.849 184.594C394.822 184.859 393.838 185.245 392.91 185.76L392.078 186.264C383.1 192.217 383.462 208.96 392.886 223.661Z" fill="#DB3754"/>
<path fill-rule="evenodd" clip-rule="evenodd" d="M392.078 186.264L392.91 185.76C392.627 185.916 392.35 186.084 392.078 186.264ZM432.368 235.758C432.096 235.938 431.819 236.106 431.537 236.263L432.368 235.758Z" fill="#D9D9D9"/>
<path d="M432.368 235.758C441.346 229.805 440.985 213.062 431.561 198.361C422.137 183.66 407.219 176.569 398.241 182.522C397.352 183.111 396.555 183.806 395.849 184.594C404.836 182.281 417.197 189.311 425.398 202.104C433.89 215.35 435.023 230.253 428.597 237.428C429.625 237.164 430.609 236.777 431.537 236.263L432.368 235.758Z" fill="#EF5371"/>
<path d="M431.537 236.263C430.609 236.777 429.625 237.164 428.597 237.428C427.891 238.216 427.094 238.911 426.206 239.501L431.537 236.263Z" fill="#EF5371"/>
<path d="M395.849 184.594C396.555 183.806 397.352 183.111 398.241 182.522L392.91 185.76C393.838 185.245 394.822 184.859 395.849 184.594Z" fill="#EF5371"/>
</g>
</g>
<path d="M480.994 195.552C487.146 188.141 485.451 173.29 476.467 160.373C467.791 147.898 455.174 141.338 446.28 143.988C440.129 151.4 441.823 166.251 450.807 179.167C459.483 191.642 472.101 198.202 480.994 195.552Z" fill="#DB3754"/>
<path d="M444.79 183.139C454.76 197.475 469.935 204 478.682 197.713C479.548 197.091 480.318 196.366 480.994 195.552C472.101 198.202 459.483 191.642 450.807 179.167C441.823 166.251 440.129 151.4 446.28 143.988C445.263 144.291 444.295 144.715 443.386 145.264L442.575 145.8C433.827 152.086 434.819 168.804 444.79 183.139Z" fill="#DB3754"/>
<path fill-rule="evenodd" clip-rule="evenodd" d="M442.575 145.8L443.386 145.264C443.11 145.431 442.84 145.609 442.575 145.8ZM484.699 193.741C484.435 193.931 484.164 194.11 483.888 194.277L484.699 193.741Z" fill="#D9D9D9"/>
<path d="M484.699 193.741C493.447 187.454 492.455 170.737 482.485 156.401C472.514 142.066 457.34 135.541 448.592 141.828C447.726 142.45 446.956 143.174 446.28 143.988C455.174 141.338 467.791 147.898 476.467 160.373C485.451 173.29 487.146 188.141 480.994 195.552C482.011 195.249 482.979 194.826 483.888 194.277L484.699 193.741Z" fill="#EF5371"/>
<path d="M483.888 194.277C482.979 194.826 482.011 195.249 480.994 195.552C480.318 196.366 479.548 197.091 478.682 197.713L483.888 194.277Z" fill="#EF5371"/>
<path d="M446.28 143.988C446.956 143.174 447.726 142.45 448.592 141.828L443.386 145.264C444.295 144.715 445.263 144.291 446.28 143.988Z" fill="#EF5371"/>
<defs>
<filter id="filter0_f_3_2897" x="312" y="-1.5625" width="201" height="201" filterUnits="userSpaceOnUse" color-interpolation-filters="sRGB">
<feFlood flood-opacity="0" result="BackgroundImageFix"/>
<feBlend mode="normal" in="SourceGraphic" in2="BackgroundImageFix" result="shape"/>
<feGaussianBlur stdDeviation="6" result="effect1_foregroundBlur_3_2897"/>
</filter>
<filter id="filter1_f_3_2897" x="306.092" y="226.579" width="362.874" height="362.874" filterUnits="userSpaceOnUse" color-interpolation-filters="sRGB">
<feFlood flood-opacity="0" result="BackgroundImageFix"/>
<feBlend mode="normal" in="SourceGraphic" in2="BackgroundImageFix" result="shape"/>
<feGaussianBlur stdDeviation="25.3646" result="effect1_foregroundBlur_3_2897"/>
</filter>
<filter id="filter2_f_3_2897" x="279.813" y="169.557" width="51.5322" height="34.9827" filterUnits="userSpaceOnUse" color-interpolation-filters="sRGB">
<feFlood flood-opacity="0" result="BackgroundImageFix"/>
<feBlend mode="normal" in="SourceGraphic" in2="BackgroundImageFix" result="shape"/>
<feGaussianBlur stdDeviation="2.51361" result="effect1_foregroundBlur_3_2897"/>
</filter>
<filter id="filter3_d_3_2897" x="214.479" y="96.562" width="97.5565" height="70.0753" filterUnits="userSpaceOnUse" color-interpolation-filters="sRGB">
<feFlood flood-opacity="0" result="BackgroundImageFix"/>
<feColorMatrix in="SourceAlpha" type="matrix" values="0 0 0 0 0 0 0 0 0 0 0 0 0 0 0 0 0 0 127 0" result="hardAlpha"/>
<feOffset dy="1.32072"/>
<feGaussianBlur stdDeviation="8.10591"/>
<feComposite in2="hardAlpha" operator="out"/>
<feColorMatrix type="matrix" values="0 0 0 0 0.0117647 0 0 0 0 1 0 0 0 0 0.811765 0 0 0 0.39 0"/>
<feBlend mode="normal" in2="BackgroundImageFix" result="effect1_dropShadow_3_2897"/>
<feBlend mode="normal" in="SourceGraphic" in2="effect1_dropShadow_3_2897" result="shape"/>
</filter>
<filter id="filter4_f_3_2897" x="207.833" y="149.43" width="402.834" height="235.825" filterUnits="userSpaceOnUse" color-interpolation-filters="sRGB">
<feFlood flood-opacity="0" result="BackgroundImageFix"/>
<feBlend mode="normal" in="SourceGraphic" in2="BackgroundImageFix" result="shape"/>
<feGaussianBlur stdDeviation="2.51361" result="effect1_foregroundBlur_3_2897"/>
</filter>
<filter id="filter5_f_3_2897" x="464.791" y="299.794" width="106.564" height="97.5986" filterUnits="userSpaceOnUse" color-interpolation-filters="sRGB">
<feFlood flood-opacity="0" result="BackgroundImageFix"/>
<feBlend mode="normal" in="SourceGraphic" in2="BackgroundImageFix" result="shape"/>
<feGaussianBlur stdDeviation="2.51361" result="effect1_foregroundBlur_3_2897"/>
</filter>
<filter id="filter6_d_3_2897" x="444.152" y="367.061" width="97.1528" height="69.7854" filterUnits="userSpaceOnUse" color-interpolation-filters="sRGB">
<feFlood flood-opacity="0" result="BackgroundImageFix"/>
<feColorMatrix in="SourceAlpha" type="matrix" values="0 0 0 0 0 0 0 0 0 0 0 0 0 0 0 0 0 0 127 0" result="hardAlpha"/>
<feOffset dy="1.31526"/>
<feGaussianBlur stdDeviation="8.07239"/>
<feComposite in2="hardAlpha" operator="out"/>
<feColorMatrix type="matrix" values="0 0 0 0 0.0117647 0 0 0 0 1 0 0 0 0 0.811765 0 0 0 0.39 0"/>
<feBlend mode="normal" in2="BackgroundImageFix" result="effect1_dropShadow_3_2897"/>
<feBlend mode="normal" in="SourceGraphic" in2="effect1_dropShadow_3_2897" result="shape"/>
</filter>
<filter id="filter7_f_3_2897" x="265.188" y="91.5286" width="291.122" height="251.818" filterUnits="userSpaceOnUse" color-interpolation-filters="sRGB">
<feFlood flood-opacity="0" result="BackgroundImageFix"/>
<feBlend mode="normal" in="SourceGraphic" in2="BackgroundImageFix" result="shape"/>
<feGaussianBlur stdDeviation="25.3646" result="effect1_foregroundBlur_3_2897"/>
</filter>
<radialGradient id="paint0_radial_3_2897" cx="0" cy="0" r="1" gradientUnits="userSpaceOnUse" gradientTransform="translate(400.006 335.467) rotate(90) scale(196.739 224.894)">
<stop stop-color="#4C78B7"/>
<stop offset="1" stop-color="white" stop-opacity="0"/>
</radialGradient>
<radialGradient id="paint1_radial_3_2897" cx="0" cy="0" r="1" gradientUnits="userSpaceOnUse" gradientTransform="translate(88.5 88.5) rotate(90) scale(88.5)">
<stop stop-color="#C70433"/>
<stop offset="1" stop-color="#02122B" stop-opacity="0"/>
</radialGradient>
<radialGradient id="paint2_radial_3_2897" cx="0" cy="0" r="1" gradientUnits="userSpaceOnUse" gradientTransform="translate(130.708 130.708) rotate(90) scale(130.708)">
<stop stop-color="#0439C7"/>
<stop offset="1" stop-color="#02122B" stop-opacity="0"/>
</radialGradient>
<linearGradient id="paint3_linear_3_2897" x1="305.61" y1="83.026" x2="223.169" y2="153.036" gradientUnits="userSpaceOnUse">
<stop stop-color="#0E284D"/>
<stop offset="0.333333" stop-color="#294772"/>
<stop offset="0.666667" stop-color="#377CDD"/>
<stop offset="1" stop-color="#34E6BF"/>
</linearGradient>
<linearGradient id="paint4_linear_3_2897" x1="300.83" y1="153.165" x2="203.121" y2="173.686" gradientUnits="userSpaceOnUse">
<stop stop-color="#34E6BF"/>
<stop offset="0.333333" stop-color="#377CDD"/>
<stop offset="0.666667" stop-color="#294772"/>
<stop offset="1" stop-color="#0E284D"/>
</linearGradient>
<linearGradient id="paint5_linear_3_2897" x1="300.83" y1="153.165" x2="203.121" y2="173.686" gradientUnits="userSpaceOnUse">
<stop stop-color="#34E6BF"/>
<stop offset="0.333333" stop-color="#377CDD"/>
<stop offset="0.666667" stop-color="#294772"/>
<stop offset="1" stop-color="#0E284D"/>
</linearGradient>
<linearGradient id="paint6_linear_3_2897" x1="305.602" y1="98.1957" x2="232.932" y2="179.428" gradientUnits="userSpaceOnUse">
<stop stop-color="#0E284D"/>
<stop offset="0.333333" stop-color="#294772"/>
<stop offset="0.666667" stop-color="#377CDD"/>
<stop offset="1" stop-color="#34E6BF"/>
</linearGradient>
<linearGradient id="paint7_linear_3_2897" x1="231.286" y1="106.674" x2="263.575" y2="155.021" gradientUnits="userSpaceOnUse">
<stop stop-color="#03FFCF"/>
<stop offset="1" stop-color="#2CFFFC"/>
</linearGradient>
<linearGradient id="paint8_linear_3_2897" x1="265.403" y1="91.9702" x2="305.791" y2="116.781" gradientUnits="userSpaceOnUse">
<stop stop-color="#02E6BA"/>
<stop offset="1" stop-color="#2CFFFC"/>
</linearGradient>
<linearGradient id="paint9_linear_3_2897" x1="305.601" y1="46.372" x2="211.107" y2="127.108" gradientUnits="userSpaceOnUse">
<stop stop-color="#0E284D"/>
<stop offset="0.333333" stop-color="#294772"/>
<stop offset="0.666667" stop-color="#377CDD"/>
<stop offset="1" stop-color="#34E6BF"/>
</linearGradient>
<linearGradient id="paint10_linear_3_2897" x1="389.071" y1="17.8529" x2="196.224" y2="60.0651" gradientUnits="userSpaceOnUse">
<stop stop-color="#0E284D"/>
<stop offset="0.333333" stop-color="#294772"/>
<stop offset="0.666667" stop-color="#377CDD"/>
<stop offset="0.890329" stop-color="#34E6BF"/>
</linearGradient>
<linearGradient id="paint11_linear_3_2897" x1="263.377" y1="115.36" x2="263.377" y2="16.8008" gradientUnits="userSpaceOnUse">
<stop stop-color="#03FFCF"/>
<stop offset="0.26" stop-color="#235F87"/>
<stop offset="0.4587" stop-color="#1C3F72"/>
<stop offset="0.715" stop-color="#162561" stop-opacity="0"/>
<stop offset="1" stop-color="#02122A" stop-opacity="0"/>
</linearGradient>
<linearGradient id="paint12_linear_3_2897" x1="685.991" y1="14.9989" x2="-681.913" y2="83.9476" gradientUnits="userSpaceOnUse">
<stop stop-color="#34E6BF"/>
<stop offset="0.333333" stop-color="#377CDD"/>
<stop offset="0.666667" stop-color="#294772"/>
<stop offset="1" stop-color="#0E284D"/>
</linearGradient>
<linearGradient id="paint13_linear_3_2897" x1="685.991" y1="14.9989" x2="-681.913" y2="83.9476" gradientUnits="userSpaceOnUse">
<stop stop-color="#34E6BF"/>
<stop offset="0.333333" stop-color="#377CDD"/>
<stop offset="0.666667" stop-color="#294772"/>
<stop offset="1" stop-color="#0E284D"/>
</linearGradient>
<linearGradient id="paint14_linear_3_2897" x1="776.026" y1="118.342" x2="274.214" y2="358.833" gradientUnits="userSpaceOnUse">
<stop stop-color="#0E284D"/>
<stop offset="0.333333" stop-color="#294772"/>
<stop offset="0.666667" stop-color="#377CDD"/>
<stop offset="1" stop-color="#34E6BF"/>
</linearGradient>
<linearGradient id="paint15_linear_3_2897" x1="662.948" y1="247.462" x2="273.542" y2="416.1" gradientUnits="userSpaceOnUse">
<stop stop-color="#0E284D"/>
<stop offset="0.333333" stop-color="#294772"/>
<stop offset="0.666667" stop-color="#377CDD"/>
<stop offset="1" stop-color="#34E6BF"/>
</linearGradient>
<linearGradient id="paint16_linear_3_2897" x1="505.584" y1="240.53" x2="242.913" y2="290.783" gradientUnits="userSpaceOnUse">
<stop stop-color="#34E6BF"/>
<stop offset="0.333333" stop-color="#377CDD"/>
<stop offset="0.666667" stop-color="#294772"/>
<stop offset="1" stop-color="#0E284D"/>
</linearGradient>
<linearGradient id="paint17_linear_3_2897" x1="505.584" y1="240.53" x2="242.913" y2="290.783" gradientUnits="userSpaceOnUse">
<stop stop-color="#34E6BF"/>
<stop offset="0.333333" stop-color="#377CDD"/>
<stop offset="0.666667" stop-color="#294772"/>
<stop offset="1" stop-color="#0E284D"/>
</linearGradient>
<linearGradient id="paint18_linear_3_2897" x1="460.891" y1="377.129" x2="493.047" y2="425.277" gradientUnits="userSpaceOnUse">
<stop stop-color="#03FFCF"/>
<stop offset="1" stop-color="#2CFFFC"/>
</linearGradient>
<linearGradient id="paint19_linear_3_2897" x1="494.867" y1="377.486" x2="528.421" y2="404.561" gradientUnits="userSpaceOnUse">
<stop stop-color="#02E6BA"/>
<stop offset="1" stop-color="#2CFFFC"/>
</linearGradient>
<linearGradient id="paint20_linear_3_2897" x1="534.899" y1="317.074" x2="440.796" y2="397.476" gradientUnits="userSpaceOnUse">
<stop stop-color="#0E284D"/>
<stop offset="0.333333" stop-color="#294772"/>
<stop offset="0.666667" stop-color="#377CDD"/>
<stop offset="1" stop-color="#34E6BF"/>
</linearGradient>
<linearGradient id="paint21_linear_3_2897" x1="626.231" y1="287.119" x2="433.523" y2="341.64" gradientUnits="userSpaceOnUse">
<stop stop-color="#0E284D"/>
<stop offset="0.333333" stop-color="#294772"/>
<stop offset="0.666667" stop-color="#377CDD"/>
<stop offset="1" stop-color="#34E6BF"/>
</linearGradient>
<radialGradient id="paint22_radial_3_2897" cx="0" cy="0" r="1" gradientUnits="userSpaceOnUse" gradientTransform="translate(94.8316 75.1798) rotate(90) scale(75.1798 94.8316)">
<stop stop-color="#FF033F"/>
<stop offset="1" stop-color="#02122B" stop-opacity="0"/>
</radialGradient>
<linearGradient id="paint23_linear_3_2897" x1="501.395" y1="136.219" x2="360.268" y2="189.541" gradientUnits="userSpaceOnUse">
<stop stop-color="#4D0E19"/>
<stop offset="0.333333" stop-color="#722936"/>
<stop offset="0.666667" stop-color="#DD375F"/>
<stop offset="1" stop-color="#E6347F"/>
</linearGradient>
<linearGradient id="paint24_linear_3_2897" x1="532.873" y1="106.938" x2="341.46" y2="179.246" gradientUnits="userSpaceOnUse">
<stop stop-color="#4D0E19"/>
<stop offset="0.333333" stop-color="#722936"/>
<stop offset="0.666667" stop-color="#DD375F"/>
<stop offset="1" stop-color="#E6347F"/>
</linearGradient>
<linearGradient id="paint25_linear_3_2897" x1="567.115" y1="75.5129" x2="321.188" y2="168.679" gradientUnits="userSpaceOnUse">
<stop stop-color="#4D0E19"/>
<stop offset="0.333333" stop-color="#722936"/>
<stop offset="0.666667" stop-color="#DD375F"/>
<stop offset="1" stop-color="#E6347F"/>
</linearGradient>
</defs>
</svg>
