<svg width="528" height="398" viewBox="0 0 528 398" fill="none" xmlns="http://www.w3.org/2000/svg">
<path d="M391.574 646.434C516.238 581.229 796.295 414.094 799.293 414.094M335.738 614.206C460.402 549.001 740.459 381.867 743.457 381.867M279.902 581.978C404.565 516.773 684.622 349.639 687.62 349.639M224.065 549.751C348.729 484.546 628.786 317.411 631.784 317.411M168.229 517.523C292.893 452.318 572.949 285.183 575.947 285.183M112.392 485.295C237.056 420.09 517.113 252.956 520.111 252.956M56.5557 453.067C181.22 387.862 461.276 220.728 464.274 220.728M0.719238 420.84C125.383 355.635 405.44 188.5 408.438 188.5M408.438 646.434C283.774 581.229 3.71717 414.094 0.719238 414.094M464.274 614.206C339.61 549.001 59.5536 381.867 56.5557 381.867M520.111 581.978C395.447 516.773 115.39 349.639 112.392 349.639M575.947 549.751C451.283 484.546 171.227 317.411 168.229 317.411M631.784 517.523C507.12 452.318 227.063 285.183 224.065 285.183M687.62 485.295C562.956 420.09 282.899 252.956 279.902 252.956M743.457 453.067C618.793 387.862 338.736 220.728 335.738 220.728M799.293 420.84C674.629 355.635 394.572 188.5 391.574 188.5" stroke="url(#paint0_radial_3_2360)" stroke-opacity="0.6" stroke-width="0.374741" stroke-linecap="round"/>
<g filter="url(#filter0_f_3_2360)">
<path d="M376.799 309.341C381.593 306.407 387.627 306.409 392.418 309.347L530.431 393.959C540.159 399.924 539.89 414.149 529.941 419.74H529.94L429.451 476.354C427.194 477.622 423.494 478.294 419.729 478.298C415.962 478.302 412.27 477.638 410.025 476.355L273.919 398.277L273.918 398.276C264.047 392.635 263.834 378.477 273.531 372.542L376.799 309.341Z" stroke="#33E6BF" stroke-width="1.07355"/>
</g>
<path d="M376.799 309.341C381.593 306.407 387.627 306.409 392.418 309.347L530.431 393.959C540.159 399.924 539.89 414.149 529.941 419.74H529.94L429.451 476.354C427.194 477.622 423.494 478.294 419.729 478.298C415.962 478.302 412.27 477.638 410.025 476.355L273.919 398.277L273.918 398.276C264.047 392.635 263.834 378.477 273.531 372.542L376.799 309.341Z" stroke="#33E6BF" stroke-width="1.07355"/>
<path d="M376.942 297.95C381.908 294.91 388.159 294.913 393.123 297.956L537.365 382.191C539.152 388.446 542.13 402.445 530.628 409.275L430.733 465.888C425.986 468.556 414.015 468.589 409.287 465.888L274.076 387.809C263.85 381.966 262.824 360.34 272.869 354.192L376.942 297.95Z" fill="#2155DF"/>
<path d="M376.942 297.95C381.908 294.91 388.159 294.913 393.123 297.956L537.365 382.191C539.152 388.446 542.13 402.445 530.628 409.275L430.733 465.888C425.986 468.556 414.015 468.589 409.287 465.888L274.076 387.809C263.85 381.966 262.824 360.34 272.869 354.192L376.942 297.95Z" fill="black" fill-opacity="0.2"/>
<path d="M376.942 297.95C381.908 294.91 388.159 294.913 393.123 297.956L537.365 382.191C539.152 388.446 542.13 402.445 530.628 409.275L430.733 465.888C425.986 468.556 414.015 468.589 409.287 465.888L274.076 387.809C263.85 381.966 262.824 360.34 272.869 354.192L376.942 297.95Z" fill="url(#paint1_linear_3_2360)"/>
<path d="M377.096 289.864C381.966 286.883 388.097 286.886 392.965 289.87L530.978 374.482C540.862 380.542 540.588 394.994 530.481 400.675L429.99 457.288C427.682 458.586 423.934 459.259 420.151 459.264C416.367 459.268 412.625 458.602 410.327 457.289L274.222 379.211C264.193 373.48 263.976 359.094 273.828 353.064L377.096 289.864Z" fill="#2155DF"/>
<path d="M377.096 289.864C381.966 286.883 388.097 286.886 392.965 289.87L530.978 374.482C540.862 380.542 540.588 394.994 530.481 400.675L429.99 457.288C427.682 458.586 423.934 459.259 420.151 459.264C416.367 459.268 412.625 458.602 410.327 457.289L274.222 379.211C264.193 373.48 263.976 359.094 273.828 353.064L377.096 289.864Z" fill="url(#paint2_linear_3_2360)"/>
<path d="M377.096 289.864C381.966 286.883 388.097 286.886 392.965 289.87L530.978 374.482C540.862 380.542 540.588 394.994 530.481 400.675L429.99 457.288C427.682 458.586 423.934 459.259 420.151 459.264C416.367 459.268 412.625 458.602 410.327 457.289L274.222 379.211C264.193 373.48 263.976 359.094 273.828 353.064L377.096 289.864Z" stroke="#77A3E1" stroke-width="0.59571"/>
<path d="M380.069 297.645C384.434 294.971 389.928 294.973 394.291 297.65L515.593 372.104C524.451 377.541 524.205 390.508 515.147 395.605L426.825 445.421C422.653 447.769 413.44 447.798 409.284 445.421L289.657 376.716C280.669 371.574 280.475 358.668 289.305 353.258L380.069 297.645Z" fill="black" fill-opacity="0.2"/>
<path d="M376.564 266.223C381.53 263.184 387.781 263.186 392.745 266.229L536.987 350.464C538.774 356.719 541.753 370.718 530.25 377.548L430.355 434.161C425.608 436.829 413.637 436.863 408.909 434.161L273.698 356.083C263.472 350.239 262.446 328.614 272.492 322.466L376.564 266.223Z" fill="#1E4780"/>
<path d="M376.719 258.134C381.589 255.153 387.72 255.155 392.588 258.14L530.601 342.752C540.485 348.812 540.21 363.264 530.104 368.944L429.613 425.558C427.305 426.855 423.557 427.529 419.773 427.533C415.99 427.537 412.248 426.872 409.95 425.559L273.845 347.48C263.815 341.749 263.599 327.364 273.451 321.334L376.719 258.134Z" fill="#1E4780" stroke="#4C78B7" stroke-width="0.59571"/>
<mask id="mask0_3_2360" style="mask-type:alpha" maskUnits="userSpaceOnUse" x="272" y="261" width="262" height="161">
<path d="M378.519 263.64C383.188 260.811 389.052 260.846 393.698 263.731L525.177 344.36C534.392 351.401 540.024 356.247 520.117 366.465L423.537 420.175C419.075 422.656 414.415 421.31 409.989 418.747L282.505 346.22C268.174 339.841 271.165 328.209 281.438 322.47L378.519 263.64Z" fill="#162D55"/>
</mask>
<g mask="url(#mask0_3_2360)">
<path d="M378.519 263.64C383.188 260.811 389.052 260.846 393.698 263.731L525.177 344.36C534.392 351.401 540.024 356.247 520.117 366.465L423.537 420.175C419.075 422.656 414.415 421.31 409.989 418.747L282.505 346.22C268.174 339.841 271.165 328.209 281.438 322.47L378.519 263.64Z" fill="#162D55"/>
<g opacity="0.2">
<path d="M417.609 380.344C419.311 379.367 419.311 376.911 417.609 375.934L411.274 372.297C410.49 371.847 409.526 371.847 408.742 372.297L402.407 375.934C400.704 376.911 400.704 379.367 402.407 380.344L408.742 383.981C409.526 384.431 410.49 384.431 411.274 383.981L417.609 380.344Z" fill="black" fill-opacity="0.2"/>
<path d="M394.098 373.047C393.311 372.593 392.827 371.754 392.827 370.845L392.827 352.607L409.893 361.613L409.893 382.166L394.098 373.047Z" fill="#BD1F3C"/>
<path fill-rule="evenodd" clip-rule="evenodd" d="M411.164 343.488C410.377 343.034 409.408 343.034 408.621 343.488L392.827 352.607L409.893 361.613L426.959 352.607L411.164 343.488Z" fill="#C42A46"/>
<path d="M426.959 370.845C426.959 371.754 426.474 372.593 425.688 373.047L409.893 382.166L409.893 361.613L426.959 352.607L426.959 370.845Z" fill="#BD1F3C"/>
<path d="M393.056 352.926L408.833 361.012C409.569 361.389 410.443 361.384 411.176 360.999L426.535 352.926" stroke="#340B12" stroke-width="0.847582" stroke-linecap="round"/>
<path d="M395.996 394.754C397.698 393.777 397.698 391.321 395.996 390.344L389.661 386.707C388.877 386.257 387.913 386.257 387.129 386.707L380.794 390.344C379.091 391.321 379.091 393.777 380.794 394.754L387.129 398.391C387.913 398.841 388.877 398.841 389.661 398.391L395.996 394.754Z" fill="black" fill-opacity="0.2"/>
<path d="M372.485 387.458C371.698 387.003 371.213 386.164 371.213 385.255L371.213 367.017L388.28 376.023L388.28 396.577L372.485 387.458Z" fill="#BD1F3C"/>
<path fill-rule="evenodd" clip-rule="evenodd" d="M389.551 357.898C388.764 357.444 387.795 357.444 387.008 357.898L371.213 367.017L388.28 376.023L405.346 367.017L389.551 357.898Z" fill="#C42A46"/>
<path d="M405.346 385.255C405.346 386.164 404.861 387.003 404.074 387.458L388.28 396.577L388.28 376.023L405.346 367.017L405.346 385.255Z" fill="#BD1F3C"/>
<path d="M371.442 367.336L387.219 375.422C387.956 375.799 388.83 375.795 389.562 375.41L404.922 367.336" stroke="#340B12" stroke-width="0.847582" stroke-linecap="round"/>
<path d="M350.872 401.864C350.085 401.41 349.6 400.57 349.6 399.662L349.6 381.423L366.667 390.429L366.667 410.983L350.872 401.864Z" fill="#BD1F3C"/>
<path fill-rule="evenodd" clip-rule="evenodd" d="M367.938 372.304C367.151 371.85 366.182 371.85 365.395 372.304L349.6 381.423L366.667 390.429L383.733 381.423L367.938 372.304Z" fill="#C42A46"/>
<path d="M383.733 399.662C383.733 400.57 383.248 401.41 382.461 401.864L366.667 410.983L366.667 390.429L383.733 381.423L383.733 399.662Z" fill="#BD1F3C"/>
<path d="M349.829 381.742L365.606 389.828C366.343 390.205 367.217 390.201 367.949 389.816L383.309 381.742" stroke="#340B12" stroke-width="0.847582" stroke-linecap="round"/>
<path d="M437.951 394.754C439.653 393.777 439.653 391.321 437.951 390.344L431.616 386.707C430.832 386.257 429.868 386.257 429.084 386.707L422.749 390.344C421.046 391.321 421.046 393.777 422.749 394.754L429.084 398.391C429.868 398.841 430.832 398.841 431.616 398.391L437.951 394.754Z" fill="black" fill-opacity="0.2"/>
<path d="M414.44 387.458C413.653 387.003 413.169 386.164 413.169 385.255L413.169 367.017L430.235 376.023L430.235 396.577L414.44 387.458Z" fill="#BD1F3C"/>
<path fill-rule="evenodd" clip-rule="evenodd" d="M431.506 357.898C430.719 357.444 429.75 357.444 428.963 357.898L413.169 367.017L430.235 376.023L447.301 367.017L431.506 357.898Z" fill="#C42A46"/>
<path d="M447.301 385.255C447.301 386.164 446.816 387.003 446.029 387.458L430.235 396.577L430.235 376.023L447.301 367.017L447.301 385.255Z" fill="#BD1F3C"/>
<path d="M413.397 367.336L429.175 375.422C429.911 375.799 430.785 375.795 431.517 375.41L446.877 367.336" stroke="#340B12" stroke-width="0.847582" stroke-linecap="round"/>
<path d="M394.098 400.594C393.311 400.14 392.827 399.301 392.827 398.392L392.827 380.154L409.893 389.159L409.893 409.713L394.098 400.594Z" fill="#BD1F3C"/>
<path fill-rule="evenodd" clip-rule="evenodd" d="M411.164 371.035C410.377 370.581 409.408 370.581 408.621 371.035L392.827 380.154L409.893 389.159L426.959 380.154L411.164 371.035Z" fill="#C42A46"/>
<path d="M426.959 398.392C426.959 399.301 426.474 400.14 425.688 400.594L409.893 409.713L409.893 389.159L426.959 380.154L426.959 398.392Z" fill="#BD1F3C"/>
<path d="M393.056 380.473L408.833 388.558C409.569 388.936 410.443 388.931 411.176 388.546L426.535 380.473" stroke="#340B12" stroke-width="0.847582" stroke-linecap="round"/>
<path d="M372.062 413.727C371.275 413.273 370.791 412.433 370.791 411.525L370.791 393.287L387.857 402.292L387.857 422.846L372.062 413.727Z" fill="#BD1F3C"/>
<path fill-rule="evenodd" clip-rule="evenodd" d="M389.128 384.168C388.341 383.713 387.372 383.713 386.585 384.168L370.791 393.287L387.857 402.292L404.923 393.287L389.128 384.168Z" fill="#C42A46"/>
<path d="M404.923 411.525C404.923 412.433 404.438 413.273 403.651 413.727L387.857 422.846L387.857 402.292L404.923 393.287L404.923 411.525Z" fill="#BD1F3C"/>
<path d="M371.02 393.605L386.797 401.691C387.533 402.069 388.407 402.064 389.139 401.679L404.499 393.605" stroke="#340B12" stroke-width="0.847582" stroke-linecap="round"/>
<path d="M436.053 401.864C435.266 401.41 434.782 400.57 434.782 399.662L434.782 381.423L451.848 390.429L451.848 410.983L436.053 401.864Z" fill="#BD1F3C"/>
<path fill-rule="evenodd" clip-rule="evenodd" d="M453.119 372.304C452.333 371.85 451.363 371.85 450.577 372.304L434.782 381.423L451.848 390.429L468.914 381.423L453.119 372.304Z" fill="#C42A46"/>
<path d="M468.914 399.662C468.914 400.57 468.429 401.41 467.643 401.864L451.848 410.983L451.848 390.429L468.914 381.423L468.914 399.662Z" fill="#BD1F3C"/>
<path d="M435.011 381.742L450.788 389.828C451.524 390.205 452.398 390.201 453.131 389.816L468.49 381.742" stroke="#340B12" stroke-width="0.847582" stroke-linecap="round"/>
<path d="M415.289 415.004C414.502 414.55 414.017 413.711 414.017 412.802L414.017 394.564L431.083 403.57L431.083 424.124L415.289 415.004Z" fill="#BD1F3C"/>
<path fill-rule="evenodd" clip-rule="evenodd" d="M432.355 385.445C431.568 384.991 430.599 384.991 429.812 385.445L414.017 394.564L431.083 403.57L448.149 394.564L432.355 385.445Z" fill="#C42A46"/>
<path d="M448.149 412.802C448.149 413.711 447.665 414.55 446.878 415.004L431.083 424.124L431.083 403.57L448.149 394.564L448.149 412.802Z" fill="#BD1F3C"/>
<path d="M414.246 394.883L430.023 402.969C430.76 403.346 431.634 403.341 432.366 402.956L447.726 394.883" stroke="#340B12" stroke-width="0.847582" stroke-linecap="round"/>
<path d="M417.609 352.797C419.311 351.82 419.311 349.364 417.609 348.387L411.274 344.75C410.49 344.3 409.526 344.3 408.742 344.75L402.407 348.387C400.704 349.364 400.704 351.82 402.407 352.797L408.742 356.434C409.526 356.884 410.49 356.884 411.274 356.434L417.609 352.797Z" fill="black" fill-opacity="0.2"/>
<path d="M394.098 345.5C393.311 345.046 392.827 344.207 392.827 343.298L392.827 325.06L409.893 334.066L409.893 354.62L394.098 345.5Z" fill="#BD1F3C"/>
<path fill-rule="evenodd" clip-rule="evenodd" d="M411.164 315.941C410.377 315.487 409.408 315.487 408.621 315.941L392.827 325.06L409.893 334.066L426.959 325.06L411.164 315.941Z" fill="#C42A46"/>
<path d="M426.959 343.298C426.959 344.207 426.474 345.046 425.688 345.5L409.893 354.62L409.893 334.066L426.959 325.06L426.959 343.298Z" fill="#BD1F3C"/>
<path d="M393.056 325.379L408.833 333.465C409.569 333.842 410.443 333.838 411.176 333.453L426.535 325.379" stroke="#340B12" stroke-width="0.847582" stroke-linecap="round"/>
<path d="M395.996 367.204C397.698 366.226 397.698 363.771 395.996 362.793L389.661 359.156C388.877 358.706 387.913 358.706 387.129 359.156L380.794 362.793C379.091 363.771 379.091 366.226 380.794 367.204L387.129 370.84C387.913 371.291 388.877 371.291 389.661 370.84L395.996 367.204Z" fill="black" fill-opacity="0.2"/>
<path d="M372.485 359.907C371.698 359.453 371.214 358.613 371.214 357.705L371.214 339.466L388.28 348.472L388.28 369.026L372.485 359.907Z" fill="#BD1F3C"/>
<path fill-rule="evenodd" clip-rule="evenodd" d="M389.551 330.347C388.764 329.893 387.795 329.893 387.008 330.347L371.214 339.466L388.28 348.472L405.346 339.466L389.551 330.347Z" fill="#C42A46"/>
<path d="M405.346 357.705C405.346 358.613 404.861 359.453 404.075 359.907L388.28 369.026L388.28 348.472L405.346 339.466L405.346 357.705Z" fill="#BD1F3C"/>
<path d="M371.443 339.785L387.22 347.871C387.956 348.248 388.83 348.244 389.563 347.859L404.922 339.785" stroke="#340B12" stroke-width="0.847582" stroke-linecap="round"/>
<path d="M374.382 381.614C376.085 380.637 376.085 378.181 374.382 377.203L368.047 373.567C367.263 373.117 366.299 373.117 365.515 373.567L359.18 377.203C357.478 378.181 357.478 380.637 359.18 381.614L365.515 385.251C366.299 385.701 367.263 385.701 368.047 385.251L374.382 381.614Z" fill="black" fill-opacity="0.2"/>
<path d="M350.872 374.317C350.085 373.863 349.6 373.023 349.6 372.115L349.6 353.877L366.666 362.882L366.666 383.436L350.872 374.317Z" fill="#BD1F3C"/>
<path fill-rule="evenodd" clip-rule="evenodd" d="M367.938 344.757C367.151 344.303 366.182 344.303 365.395 344.757L349.6 353.877L366.666 362.882L383.732 353.877L367.938 344.757Z" fill="#C42A46"/>
<path d="M383.732 372.115C383.732 373.023 383.248 373.863 382.461 374.317L366.666 383.436L366.666 362.882L383.732 353.877L383.732 372.115Z" fill="#BD1F3C"/>
<path d="M349.829 354.195L365.606 362.281C366.343 362.658 367.217 362.654 367.949 362.269L383.309 354.195" stroke="#340B12" stroke-width="0.847582" stroke-linecap="round"/>
<path d="M437.951 367.204C439.653 366.226 439.653 363.771 437.951 362.793L431.616 359.156C430.832 358.706 429.868 358.706 429.084 359.156L422.749 362.793C421.046 363.771 421.046 366.226 422.749 367.204L429.084 370.84C429.868 371.291 430.832 371.291 431.616 370.84L437.951 367.204Z" fill="black" fill-opacity="0.2"/>
<path d="M414.44 359.907C413.653 359.453 413.169 358.613 413.169 357.705L413.169 339.466L430.235 348.472L430.235 369.026L414.44 359.907Z" fill="#BD1F3C"/>
<path fill-rule="evenodd" clip-rule="evenodd" d="M431.506 330.347C430.719 329.893 429.75 329.893 428.963 330.347L413.169 339.466L430.235 348.472L447.301 339.466L431.506 330.347Z" fill="#C42A46"/>
<path d="M447.301 357.705C447.301 358.613 446.816 359.453 446.029 359.907L430.235 369.026L430.235 348.472L447.301 339.466L447.301 357.705Z" fill="#BD1F3C"/>
<path d="M413.397 339.785L429.175 347.871C429.911 348.248 430.785 348.244 431.517 347.859L446.877 339.785" stroke="#340B12" stroke-width="0.847582" stroke-linecap="round"/>
<path d="M417.609 380.344C419.311 379.367 419.311 376.911 417.609 375.934L411.274 372.297C410.49 371.847 409.526 371.847 408.742 372.297L402.407 375.934C400.704 376.911 400.704 379.367 402.407 380.344L408.742 383.981C409.526 384.431 410.49 384.431 411.274 383.981L417.609 380.344Z" fill="black" fill-opacity="0.2"/>
<path d="M394.098 373.047C393.311 372.593 392.827 371.754 392.827 370.845L392.827 352.607L409.893 361.613L409.893 382.166L394.098 373.047Z" fill="#BD1F3C"/>
<path fill-rule="evenodd" clip-rule="evenodd" d="M411.164 343.488C410.377 343.034 409.408 343.034 408.621 343.488L392.827 352.607L409.893 361.613L426.959 352.607L411.164 343.488Z" fill="#C42A46"/>
<path d="M426.959 370.845C426.959 371.754 426.474 372.593 425.688 373.047L409.893 382.166L409.893 361.613L426.959 352.607L426.959 370.845Z" fill="#BD1F3C"/>
<path d="M393.056 352.926L408.833 361.012C409.569 361.389 410.443 361.384 411.176 360.999L426.535 352.926" stroke="#340B12" stroke-width="0.847582" stroke-linecap="round"/>
<path d="M395.573 393.481C397.275 392.504 397.275 390.048 395.573 389.071L389.238 385.434C388.454 384.984 387.49 384.984 386.706 385.434L380.371 389.071C378.668 390.048 378.668 392.504 380.371 393.481L386.706 397.118C387.49 397.568 388.454 397.568 389.238 397.118L395.573 393.481Z" fill="black" fill-opacity="0.2"/>
<path d="M372.062 386.184C371.275 385.73 370.791 384.89 370.791 383.982L370.791 365.744L387.857 374.749L387.857 395.303L372.062 386.184Z" fill="#BD1F3C"/>
<path fill-rule="evenodd" clip-rule="evenodd" d="M389.128 356.625C388.341 356.17 387.372 356.17 386.585 356.625L370.791 365.744L387.857 374.749L404.923 365.744L389.128 356.625Z" fill="#C42A46"/>
<path d="M404.923 383.982C404.923 384.89 404.438 385.73 403.651 386.184L387.857 395.303L387.857 374.749L404.923 365.744L404.923 383.982Z" fill="#BD1F3C"/>
<path d="M371.02 366.063L386.797 374.148C387.533 374.526 388.407 374.521 389.139 374.136L404.499 366.062" stroke="#340B12" stroke-width="0.847582" stroke-linecap="round"/>
<path d="M459.564 381.614C461.266 380.637 461.266 378.181 459.564 377.203L453.229 373.567C452.445 373.117 451.481 373.117 450.697 373.567L444.362 377.203C442.659 378.181 442.659 380.637 444.362 381.614L450.697 385.251C451.481 385.701 452.445 385.701 453.229 385.251L459.564 381.614Z" fill="black" fill-opacity="0.2"/>
<path d="M436.053 374.317C435.266 373.863 434.782 373.023 434.782 372.115L434.782 353.877L451.848 362.882L451.848 383.436L436.053 374.317Z" fill="#BD1F3C"/>
<path fill-rule="evenodd" clip-rule="evenodd" d="M453.119 344.757C452.333 344.303 451.363 344.303 450.577 344.757L434.782 353.877L451.848 362.882L468.914 353.877L453.119 344.757Z" fill="#C42A46"/>
<path d="M468.914 372.115C468.914 373.023 468.429 373.863 467.643 374.317L451.848 383.436L451.848 362.882L468.914 353.877L468.914 372.115Z" fill="#BD1F3C"/>
<path d="M435.011 354.195L450.788 362.281C451.524 362.658 452.398 362.654 453.131 362.269L468.49 354.195" stroke="#340B12" stroke-width="0.847582" stroke-linecap="round"/>
<path d="M438.799 394.754C440.502 393.777 440.502 391.321 438.799 390.344L432.464 386.707C431.68 386.257 430.716 386.257 429.932 386.707L423.597 390.344C421.895 391.321 421.895 393.777 423.597 394.754L429.932 398.391C430.716 398.841 431.68 398.841 432.464 398.391L438.799 394.754Z" fill="black" fill-opacity="0.2"/>
<path d="M415.289 387.458C414.502 387.003 414.017 386.164 414.017 385.255L414.017 367.017L431.083 376.023L431.083 396.577L415.289 387.458Z" fill="#BD1F3C"/>
<path fill-rule="evenodd" clip-rule="evenodd" d="M432.355 357.898C431.568 357.444 430.599 357.444 429.812 357.898L414.017 367.017L431.083 376.023L448.149 367.017L432.355 357.898Z" fill="#C42A46"/>
<path d="M448.149 385.255C448.149 386.164 447.665 387.003 446.878 387.458L431.083 396.577L431.083 376.023L448.149 367.017L448.149 385.255Z" fill="#BD1F3C"/>
<path d="M414.246 367.336L430.023 375.422C430.76 375.799 431.634 375.795 432.366 375.41L447.726 367.336" stroke="#340B12" stroke-width="0.847582" stroke-linecap="round"/>
<path d="M394.098 400.594C393.311 400.14 392.827 399.301 392.827 398.392L392.827 380.154L409.893 389.159L409.893 409.713L394.098 400.594Z" fill="#BD1F3C"/>
<path fill-rule="evenodd" clip-rule="evenodd" d="M411.164 371.035C410.377 370.581 409.408 370.581 408.621 371.035L392.827 380.154L409.893 389.159L426.959 380.154L411.164 371.035Z" fill="#C42A46"/>
<path d="M426.959 398.392C426.959 399.301 426.474 400.14 425.688 400.594L409.893 409.713L409.893 389.159L426.959 380.154L426.959 398.392Z" fill="#BD1F3C"/>
<path d="M393.056 380.473L408.833 388.558C409.569 388.936 410.443 388.931 411.176 388.546L426.535 380.473" stroke="#340B12" stroke-width="0.847582" stroke-linecap="round"/>
<path d="M417.609 325.251C419.311 324.273 419.311 321.817 417.609 320.84L411.274 317.203C410.49 316.753 409.526 316.753 408.742 317.203L402.407 320.84C400.704 321.817 400.704 324.273 402.407 325.251L408.742 328.887C409.526 329.337 410.49 329.337 411.274 328.887L417.609 325.251Z" fill="black" fill-opacity="0.2"/>
<path d="M394.098 317.954C393.311 317.499 392.827 316.66 392.827 315.752L392.827 297.513L409.893 306.519L409.893 327.073L394.098 317.954Z" fill="#BD1F3C"/>
<path fill-rule="evenodd" clip-rule="evenodd" d="M411.164 288.394C410.377 287.94 409.408 287.94 408.621 288.394L392.827 297.513L409.893 306.519L426.959 297.513L411.164 288.394Z" fill="#C42A46"/>
<path d="M426.959 315.752C426.959 316.66 426.474 317.499 425.688 317.954L409.893 327.073L409.893 306.519L426.959 297.513L426.959 315.752Z" fill="#BD1F3C"/>
<path d="M393.056 297.832L408.833 305.918C409.569 306.295 410.443 306.291 411.176 305.906L426.535 297.832" stroke="#340B12" stroke-width="0.847582" stroke-linecap="round"/>
<path d="M395.996 339.657C397.698 338.679 397.698 336.224 395.996 335.246L389.661 331.61C388.877 331.16 387.913 331.16 387.129 331.61L380.794 335.246C379.091 336.224 379.091 338.679 380.794 339.657L387.129 343.294C387.913 343.744 388.877 343.744 389.661 343.294L395.996 339.657Z" fill="black" fill-opacity="0.2"/>
<path d="M372.485 332.36C371.698 331.906 371.213 331.066 371.213 330.158L371.213 311.92L388.28 320.925L388.28 341.479L372.485 332.36Z" fill="#BD1F3C"/>
<path fill-rule="evenodd" clip-rule="evenodd" d="M389.551 302.8C388.764 302.346 387.795 302.346 387.008 302.8L371.213 311.92L388.28 320.925L405.346 311.92L389.551 302.8Z" fill="#C42A46"/>
<path d="M405.346 330.158C405.346 331.066 404.861 331.906 404.074 332.36L388.28 341.479L388.28 320.925L405.346 311.92L405.346 330.158Z" fill="#BD1F3C"/>
<path d="M371.442 312.238L387.219 320.324C387.956 320.701 388.83 320.697 389.562 320.312L404.922 312.238" stroke="#340B12" stroke-width="0.847582" stroke-linecap="round"/>
<path d="M374.382 354.071C376.085 353.094 376.085 350.638 374.382 349.66L368.047 346.024C367.263 345.574 366.299 345.574 365.515 346.024L359.18 349.66C357.478 350.638 357.478 353.094 359.18 354.071L365.515 357.708C366.299 358.158 367.263 358.158 368.047 357.708L374.382 354.071Z" fill="black" fill-opacity="0.2"/>
<path d="M350.872 346.774C350.085 346.32 349.6 345.48 349.6 344.572L349.6 326.334L366.666 335.339L366.666 355.893L350.872 346.774Z" fill="#BD1F3C"/>
<path fill-rule="evenodd" clip-rule="evenodd" d="M367.938 317.214C367.151 316.76 366.182 316.76 365.395 317.214L349.6 326.334L366.666 335.339L383.732 326.334L367.938 317.214Z" fill="#C42A46"/>
<path d="M383.732 344.572C383.732 345.48 383.248 346.32 382.461 346.774L366.666 355.893L366.666 335.339L383.732 326.334L383.732 344.572Z" fill="#BD1F3C"/>
<path d="M349.829 326.652L365.606 334.738C366.343 335.116 367.217 335.111 367.949 334.726L383.309 326.652" stroke="#340B12" stroke-width="0.847582" stroke-linecap="round"/>
<path d="M437.951 339.657C439.653 338.679 439.653 336.224 437.951 335.246L431.616 331.61C430.832 331.16 429.868 331.16 429.084 331.61L422.749 335.246C421.046 336.224 421.046 338.679 422.749 339.657L429.084 343.294C429.868 343.744 430.832 343.744 431.616 343.294L437.951 339.657Z" fill="black" fill-opacity="0.2"/>
<path d="M414.44 332.36C413.653 331.906 413.169 331.066 413.169 330.158L413.169 311.92L430.235 320.925L430.235 341.479L414.44 332.36Z" fill="#BD1F3C"/>
<path fill-rule="evenodd" clip-rule="evenodd" d="M431.506 302.8C430.719 302.346 429.75 302.346 428.963 302.8L413.169 311.92L430.235 320.925L447.301 311.92L431.506 302.8Z" fill="#C42A46"/>
<path d="M447.301 330.158C447.301 331.066 446.816 331.906 446.029 332.36L430.235 341.479L430.235 320.925L447.301 311.92L447.301 330.158Z" fill="#BD1F3C"/>
<path d="M413.397 312.238L429.175 320.324C429.911 320.701 430.785 320.697 431.517 320.312L446.877 312.238" stroke="#340B12" stroke-width="0.847582" stroke-linecap="round"/>
<path d="M459.564 354.071C461.266 353.094 461.266 350.638 459.564 349.66L453.229 346.024C452.445 345.574 451.481 345.574 450.697 346.024L444.362 349.66C442.659 350.638 442.659 353.094 444.362 354.071L450.697 357.708C451.481 358.158 452.445 358.158 453.229 357.708L459.564 354.071Z" fill="black" fill-opacity="0.2"/>
<path d="M436.053 346.774C435.266 346.32 434.782 345.48 434.782 344.572L434.782 326.334L451.848 335.339L451.848 355.893L436.053 346.774Z" fill="#BD1F3C"/>
<path fill-rule="evenodd" clip-rule="evenodd" d="M453.119 317.214C452.333 316.76 451.363 316.76 450.577 317.214L434.782 326.334L451.848 335.339L468.914 326.334L453.119 317.214Z" fill="#C42A46"/>
<path d="M468.914 344.572C468.914 345.48 468.429 346.32 467.643 346.774L451.848 355.893L451.848 335.339L468.914 326.334L468.914 344.572Z" fill="#BD1F3C"/>
<path d="M435.011 326.652L450.788 334.738C451.524 335.116 452.398 335.111 453.131 334.726L468.49 326.652" stroke="#340B12" stroke-width="0.847582" stroke-linecap="round"/>
</g>
</g>
<path d="M386.002 126.818C386.825 115.133 399.856 108.608 409.686 114.957L409.688 114.958L548.144 202.831V202.83C552.627 205.727 553.173 210.354 552.99 215.863L544.959 334.662V334.682C544.959 342.535 542.856 347.915 539.566 350.578C536.405 353.137 532.056 353.254 527.188 350.485L526.716 350.209L384.786 263.538L384.784 263.537C379.831 260.55 376.968 255.033 377.375 249.257L386.002 126.818Z" fill="#1E4780" stroke="#4C78B7" stroke-width="0.59571"/>
<mask id="mask1_3_2360" style="mask-type:alpha" maskUnits="userSpaceOnUse" x="381" y="119" width="166" height="233">
<path d="M381.462 252.43C381.077 257.875 383.786 263.076 388.474 265.892L520.242 346.046C535.521 355.459 537.335 352.136 538.997 331.53L546.309 215.872C546.479 210.769 545.624 207.339 541.323 204.572L412.784 124.274C397.083 113.175 391.168 121.484 391.168 134.17L381.462 252.43Z" fill="#162D55"/>
</mask>
<g mask="url(#mask1_3_2360)">
<path d="M381.462 252.43C381.077 257.875 383.786 263.076 388.474 265.892L520.242 346.046C535.521 355.459 537.335 352.136 538.997 331.53L546.309 215.872C546.479 210.769 545.624 207.339 541.323 204.572L412.784 124.274C397.083 113.175 391.168 121.484 391.168 134.17L381.462 252.43Z" fill="#162D55"/>
<g opacity="0.1">
<path d="M501.609 267.012C499.907 266.035 499.907 263.579 501.609 262.602L507.944 258.965C508.728 258.515 509.692 258.515 510.476 258.965L516.811 262.602C518.513 263.579 518.513 266.035 516.811 267.012L510.476 270.649C509.692 271.099 508.728 271.099 507.944 270.649L501.609 267.012Z" fill="black" fill-opacity="0.2"/>
<path d="M525.119 259.715C525.905 259.261 526.39 258.422 526.39 257.513V239.275L509.324 248.281V268.834L525.119 259.715Z" fill="#BD1F3C"/>
<path fill-rule="evenodd" clip-rule="evenodd" d="M508.053 230.156C508.839 229.702 509.809 229.702 510.595 230.156L526.39 239.275L509.324 248.281L492.258 239.275L508.053 230.156Z" fill="#E33D5C"/>
<path d="M492.258 257.513C492.258 258.422 492.742 259.261 493.529 259.715L509.324 268.834V248.281L492.258 239.275V257.513Z" fill="#BD1F3C"/>
<path d="M526.161 239.594L510.384 247.68C509.648 248.057 508.774 248.052 508.041 247.667L492.682 239.594" stroke="#62101F" stroke-width="0.847582" stroke-linecap="round"/>
<path d="M523.222 281.422C521.52 280.445 521.52 277.989 523.222 277.012L529.557 273.375C530.341 272.925 531.305 272.925 532.089 273.375L538.424 277.012C540.127 277.989 540.127 280.445 538.424 281.422L532.089 285.059C531.305 285.509 530.341 285.509 529.557 285.059L523.222 281.422Z" fill="black" fill-opacity="0.2"/>
<path d="M546.732 274.125C547.519 273.671 548.003 272.832 548.003 271.923V253.685L530.937 262.691V283.245L546.732 274.125Z" fill="#BD1F3C"/>
<path fill-rule="evenodd" clip-rule="evenodd" d="M529.666 244.566C530.453 244.112 531.422 244.112 532.209 244.566L548.003 253.685L530.937 262.691L513.871 253.685L529.666 244.566Z" fill="#E33D5C"/>
<path d="M513.871 271.923C513.871 272.832 514.356 273.671 515.142 274.125L530.937 283.245V262.691L513.871 253.685V271.923Z" fill="#BD1F3C"/>
<path d="M547.774 254.004L531.997 262.09C531.261 262.467 530.387 262.463 529.655 262.078L514.295 254.004" stroke="#62101F" stroke-width="0.847582" stroke-linecap="round"/>
<path d="M481.267 281.422C479.565 280.445 479.565 277.989 481.267 277.012L487.602 273.375C488.386 272.925 489.35 272.925 490.134 273.375L496.469 277.012C498.172 277.989 498.172 280.445 496.469 281.422L490.134 285.059C489.35 285.509 488.386 285.509 487.602 285.059L481.267 281.422Z" fill="black" fill-opacity="0.2"/>
<path d="M504.777 274.125C505.564 273.671 506.048 272.832 506.048 271.923V253.685L488.982 262.691V283.245L504.777 274.125Z" fill="#BD1F3C"/>
<path fill-rule="evenodd" clip-rule="evenodd" d="M487.711 244.566C488.498 244.112 489.467 244.112 490.254 244.566L506.048 253.685L488.982 262.691L471.916 253.685L487.711 244.566Z" fill="#E33D5C"/>
<path d="M471.916 271.923C471.916 272.832 472.401 273.671 473.187 274.125L488.982 283.245V262.691L471.916 253.685V271.923Z" fill="#BD1F3C"/>
<path d="M505.819 254.004L490.042 262.09C489.306 262.467 488.432 262.463 487.699 262.078L472.34 254.004" stroke="#62101F" stroke-width="0.847582" stroke-linecap="round"/>
<path d="M501.609 294.559C499.907 293.582 499.907 291.126 501.609 290.149L507.944 286.512C508.728 286.062 509.692 286.062 510.476 286.512L516.811 290.149C518.513 291.126 518.513 293.582 516.811 294.559L510.476 298.196C509.692 298.646 508.728 298.646 507.944 298.196L501.609 294.559Z" fill="black" fill-opacity="0.2"/>
<path d="M525.119 287.262C525.905 286.808 526.39 285.969 526.39 285.06V266.822L509.324 275.827V296.381L525.119 287.262Z" fill="#BD1F3C"/>
<path fill-rule="evenodd" clip-rule="evenodd" d="M508.053 257.703C508.839 257.249 509.809 257.249 510.595 257.703L526.39 266.822L509.324 275.827L492.258 266.822L508.053 257.703Z" fill="#E33D5C"/>
<path d="M492.258 285.06C492.258 285.969 492.742 286.808 493.529 287.262L509.324 296.381V275.827L492.258 266.822V285.06Z" fill="#BD1F3C"/>
<path d="M526.161 267.141L510.384 275.226C509.648 275.604 508.774 275.599 508.041 275.214L492.682 267.141" stroke="#62101F" stroke-width="0.847582" stroke-linecap="round"/>
<path d="M523.646 307.696C521.944 306.719 521.944 304.263 523.646 303.285L529.981 299.649C530.765 299.199 531.729 299.199 532.513 299.649L538.848 303.285C540.55 304.263 540.55 306.719 538.848 307.696L532.513 311.333C531.729 311.783 530.765 311.783 529.981 311.333L523.646 307.696Z" fill="black" fill-opacity="0.2"/>
<path d="M547.156 300.399C547.943 299.945 548.427 299.105 548.427 298.197V279.959L531.361 288.964V309.518L547.156 300.399Z" fill="#BD1F3C"/>
<path fill-rule="evenodd" clip-rule="evenodd" d="M530.09 270.839C530.876 270.385 531.846 270.385 532.632 270.839L548.427 279.959L531.361 288.964L514.295 279.959L530.09 270.839Z" fill="#E33D5C"/>
<path d="M514.295 298.197C514.295 299.105 514.78 299.945 515.566 300.399L531.361 309.518V288.964L514.295 279.959V298.197Z" fill="#BD1F3C"/>
<path d="M548.198 280.277L532.421 288.363C531.685 288.741 530.811 288.736 530.078 288.351L514.719 280.277" stroke="#62101F" stroke-width="0.847582" stroke-linecap="round"/>
<path d="M459.654 295.833C457.951 294.855 457.951 292.399 459.654 291.422L465.989 287.785C466.773 287.335 467.737 287.335 468.521 287.785L474.856 291.422C476.558 292.399 476.558 294.855 474.856 295.833L468.521 299.469C467.737 299.919 466.773 299.919 465.989 299.469L459.654 295.833Z" fill="black" fill-opacity="0.2"/>
<path d="M483.164 288.536C483.95 288.081 484.435 287.242 484.435 286.334V268.095L467.369 277.101V297.655L483.164 288.536Z" fill="#BD1F3C"/>
<path fill-rule="evenodd" clip-rule="evenodd" d="M466.098 258.976C466.884 258.522 467.854 258.522 468.64 258.976L484.435 268.095L467.369 277.101L450.303 268.095L466.098 258.976Z" fill="#E33D5C"/>
<path d="M450.303 286.334C450.303 287.242 450.787 288.081 451.574 288.536L467.369 297.655V277.101L450.303 268.095V286.334Z" fill="#BD1F3C"/>
<path d="M484.206 268.414L468.429 276.5C467.693 276.877 466.819 276.873 466.086 276.488L450.727 268.414" stroke="#62101F" stroke-width="0.847582" stroke-linecap="round"/>
<path d="M480.419 308.969C478.717 307.992 478.717 305.536 480.419 304.559L486.755 300.922C487.538 300.472 488.502 300.472 489.286 300.922L495.622 304.559C497.324 305.536 497.324 307.992 495.622 308.969L489.286 312.606C488.502 313.056 487.539 313.056 486.755 312.606L480.419 308.969Z" fill="black" fill-opacity="0.2"/>
<path d="M503.929 301.672C504.716 301.218 505.201 300.379 505.201 299.47V281.232L488.134 290.238V310.791L503.929 301.672Z" fill="#BD1F3C"/>
<path fill-rule="evenodd" clip-rule="evenodd" d="M486.863 272.113C487.65 271.659 488.619 271.659 489.406 272.113L505.201 281.232L488.134 290.238L471.068 281.232L486.863 272.113Z" fill="#E33D5C"/>
<path d="M471.068 299.47C471.068 300.379 471.553 301.218 472.34 301.672L488.134 310.791V290.238L471.068 281.232V299.47Z" fill="#BD1F3C"/>
<path d="M504.972 281.551L489.195 289.637C488.458 290.014 487.584 290.009 486.852 289.624L471.492 281.551" stroke="#62101F" stroke-width="0.847582" stroke-linecap="round"/>
<path d="M501.609 322.106C499.907 321.129 499.907 318.673 501.609 317.696L507.944 314.059C508.728 313.609 509.692 313.609 510.476 314.059L516.811 317.696C518.513 318.673 518.513 321.129 516.811 322.106L510.476 325.743C509.692 326.193 508.728 326.193 507.944 325.743L501.609 322.106Z" fill="black" fill-opacity="0.2"/>
<path d="M525.119 314.809C525.905 314.355 526.39 313.515 526.39 312.607V294.369L509.324 303.374V323.928L525.119 314.809Z" fill="#BD1F3C"/>
<path fill-rule="evenodd" clip-rule="evenodd" d="M508.053 285.25C508.839 284.795 509.809 284.795 510.595 285.25L526.39 294.369L509.324 303.374L492.258 294.369L508.053 285.25Z" fill="#E33D5C"/>
<path d="M492.258 312.607C492.258 313.515 492.742 314.355 493.529 314.809L509.324 323.928V303.374L492.258 294.369V312.607Z" fill="#BD1F3C"/>
<path d="M526.161 294.688L510.384 302.773C509.648 303.151 508.774 303.146 508.041 302.761L492.682 294.688" stroke="#62101F" stroke-width="0.847582" stroke-linecap="round"/>
<path d="M501.608 239.469C499.906 238.492 499.906 236.036 501.608 235.059L507.943 231.422C508.727 230.972 509.691 230.972 510.475 231.422L516.81 235.059C518.512 236.036 518.512 238.492 516.81 239.469L510.475 243.106C509.691 243.556 508.727 243.556 507.943 243.106L501.608 239.469Z" fill="black" fill-opacity="0.2"/>
<path d="M525.119 232.172C525.905 231.718 526.39 230.879 526.39 229.97V211.732L509.324 220.738V241.291L525.119 232.172Z" fill="#BD1F3C"/>
<path fill-rule="evenodd" clip-rule="evenodd" d="M508.053 202.613C508.839 202.159 509.809 202.159 510.595 202.613L526.39 211.732L509.324 220.738L492.258 211.732L508.053 202.613Z" fill="#E33D5C"/>
<path d="M492.258 229.97C492.258 230.879 492.742 231.718 493.529 232.172L509.324 241.291V220.738L492.258 211.732V229.97Z" fill="#BD1F3C"/>
<path d="M526.161 212.051L510.384 220.137C509.648 220.514 508.774 220.509 508.041 220.124L492.682 212.051" stroke="#62101F" stroke-width="0.847582" stroke-linecap="round"/>
<path d="M523.222 253.876C521.52 252.898 521.52 250.442 523.222 249.465L529.557 245.828C530.341 245.378 531.305 245.378 532.089 245.828L538.424 249.465C540.127 250.442 540.127 252.898 538.424 253.876L532.089 257.512C531.305 257.962 530.341 257.962 529.557 257.512L523.222 253.876Z" fill="black" fill-opacity="0.2"/>
<path d="M546.732 246.579C547.519 246.124 548.003 245.285 548.003 244.377V226.138L530.937 235.144V255.698L546.732 246.579Z" fill="#BD1F3C"/>
<path fill-rule="evenodd" clip-rule="evenodd" d="M529.666 217.019C530.453 216.565 531.422 216.565 532.209 217.019L548.003 226.138L530.937 235.144L513.871 226.138L529.666 217.019Z" fill="#E33D5C"/>
<path d="M513.871 244.377C513.871 245.285 514.356 246.124 515.142 246.579L530.937 255.698V235.144L513.871 226.138V244.377Z" fill="#BD1F3C"/>
<path d="M547.774 226.457L531.997 234.543C531.261 234.92 530.387 234.916 529.655 234.531L514.295 226.457" stroke="#62101F" stroke-width="0.847582" stroke-linecap="round"/>
<path d="M481.267 253.876C479.565 252.898 479.565 250.442 481.267 249.465L487.602 245.828C488.386 245.378 489.35 245.378 490.134 245.828L496.469 249.465C498.172 250.442 498.172 252.898 496.469 253.876L490.134 257.512C489.35 257.962 488.386 257.962 487.602 257.512L481.267 253.876Z" fill="black" fill-opacity="0.2"/>
<path d="M504.778 246.579C505.565 246.124 506.049 245.285 506.049 244.377V226.138L488.983 235.144V255.698L504.778 246.579Z" fill="#BD1F3C"/>
<path fill-rule="evenodd" clip-rule="evenodd" d="M487.712 217.019C488.498 216.565 489.468 216.565 490.255 217.019L506.049 226.138L488.983 235.144L471.917 226.138L487.712 217.019Z" fill="#E33D5C"/>
<path d="M471.917 244.377C471.917 245.285 472.402 246.124 473.188 246.579L488.983 255.698V235.144L471.917 226.138V244.377Z" fill="#BD1F3C"/>
<path d="M505.82 226.457L490.043 234.543C489.307 234.92 488.433 234.916 487.7 234.531L472.341 226.457" stroke="#62101F" stroke-width="0.847582" stroke-linecap="round"/>
<path d="M501.609 267.012C499.907 266.035 499.907 263.579 501.609 262.602L507.944 258.965C508.728 258.515 509.692 258.515 510.476 258.965L516.811 262.602C518.513 263.579 518.513 266.035 516.811 267.012L510.476 270.649C509.692 271.099 508.728 271.099 507.944 270.649L501.609 267.012Z" fill="black" fill-opacity="0.2"/>
<path d="M525.119 259.715C525.905 259.261 526.39 258.422 526.39 257.513V239.275L509.324 248.281V268.834L525.119 259.715Z" fill="#BD1F3C"/>
<path fill-rule="evenodd" clip-rule="evenodd" d="M508.053 230.156C508.839 229.702 509.809 229.702 510.595 230.156L526.39 239.275L509.324 248.281L492.258 239.275L508.053 230.156Z" fill="#E33D5C"/>
<path d="M492.258 257.513C492.258 258.422 492.742 259.261 493.529 259.715L509.324 268.834V248.281L492.258 239.275V257.513Z" fill="#BD1F3C"/>
<path d="M526.161 239.594L510.384 247.68C509.648 248.057 508.774 248.052 508.041 247.667L492.682 239.594" stroke="#62101F" stroke-width="0.847582" stroke-linecap="round"/>
<path d="M523.646 280.153C521.944 279.176 521.944 276.72 523.646 275.742L529.981 272.106C530.765 271.656 531.729 271.656 532.513 272.106L538.848 275.742C540.55 276.72 540.55 279.176 538.848 280.153L532.513 283.79C531.729 284.24 530.765 284.24 529.981 283.79L523.646 280.153Z" fill="black" fill-opacity="0.2"/>
<path d="M547.156 272.856C547.943 272.402 548.427 271.562 548.427 270.654V252.416L531.361 261.421V281.975L547.156 272.856Z" fill="#BD1F3C"/>
<path fill-rule="evenodd" clip-rule="evenodd" d="M530.09 243.297C530.876 242.842 531.846 242.842 532.632 243.297L548.427 252.416L531.361 261.421L514.295 252.416L530.09 243.297Z" fill="#E33D5C"/>
<path d="M514.295 270.654C514.295 271.562 514.78 272.402 515.566 272.856L531.361 281.975V261.421L514.295 252.416V270.654Z" fill="#BD1F3C"/>
<path d="M548.198 252.734L532.421 260.82C531.685 261.198 530.811 261.193 530.078 260.808L514.719 252.734" stroke="#62101F" stroke-width="0.847582" stroke-linecap="round"/>
<path d="M459.654 268.286C457.951 267.308 457.951 264.853 459.654 263.875L465.989 260.238C466.773 259.788 467.737 259.788 468.521 260.238L474.856 263.875C476.558 264.853 476.558 267.308 474.856 268.286L468.521 271.922C467.737 272.373 466.773 272.373 465.989 271.922L459.654 268.286Z" fill="black" fill-opacity="0.2"/>
<path d="M483.164 260.989C483.95 260.535 484.435 259.695 484.435 258.787V240.548L467.369 249.554V270.108L483.164 260.989Z" fill="#BD1F3C"/>
<path fill-rule="evenodd" clip-rule="evenodd" d="M466.098 231.429C466.884 230.975 467.854 230.975 468.64 231.429L484.435 240.548L467.369 249.554L450.303 240.548L466.098 231.429Z" fill="#E33D5C"/>
<path d="M450.303 258.787C450.303 259.695 450.787 260.535 451.574 260.989L467.369 270.108V249.554L450.303 240.548V258.787Z" fill="#BD1F3C"/>
<path d="M484.206 240.867L468.429 248.953C467.693 249.33 466.819 249.326 466.086 248.941L450.727 240.867" stroke="#62101F" stroke-width="0.847582" stroke-linecap="round"/>
<path d="M480.419 281.422C478.717 280.445 478.717 277.989 480.419 277.012L486.755 273.375C487.538 272.925 488.502 272.925 489.286 273.375L495.622 277.012C497.324 277.989 497.324 280.445 495.622 281.422L489.286 285.059C488.502 285.509 487.539 285.509 486.755 285.059L480.419 281.422Z" fill="black" fill-opacity="0.2"/>
<path d="M503.929 274.125C504.716 273.671 505.201 272.832 505.201 271.923V253.685L488.134 262.691V283.245L503.929 274.125Z" fill="#BD1F3C"/>
<path fill-rule="evenodd" clip-rule="evenodd" d="M486.863 244.566C487.65 244.112 488.619 244.112 489.406 244.566L505.201 253.685L488.134 262.691L471.068 253.685L486.863 244.566Z" fill="#E33D5C"/>
<path d="M471.068 271.923C471.068 272.832 471.553 273.671 472.34 274.125L488.134 283.245V262.691L471.068 253.685V271.923Z" fill="#BD1F3C"/>
<path d="M504.972 254.004L489.195 262.09C488.458 262.467 487.584 262.463 486.852 262.078L471.492 254.004" stroke="#62101F" stroke-width="0.847582" stroke-linecap="round"/>
<path d="M501.609 294.559C499.907 293.582 499.907 291.126 501.609 290.149L507.944 286.512C508.728 286.062 509.692 286.062 510.476 286.512L516.811 290.149C518.513 291.126 518.513 293.582 516.811 294.559L510.476 298.196C509.692 298.646 508.728 298.646 507.944 298.196L501.609 294.559Z" fill="black" fill-opacity="0.2"/>
<path d="M525.119 287.262C525.905 286.808 526.39 285.969 526.39 285.06V266.822L509.324 275.827V296.381L525.119 287.262Z" fill="#BD1F3C"/>
<path fill-rule="evenodd" clip-rule="evenodd" d="M508.053 257.703C508.839 257.249 509.809 257.249 510.595 257.703L526.39 266.822L509.324 275.827L492.258 266.822L508.053 257.703Z" fill="#E33D5C"/>
<path d="M492.258 285.06C492.258 285.969 492.742 286.808 493.529 287.262L509.324 296.381V275.827L492.258 266.822V285.06Z" fill="#BD1F3C"/>
<path d="M526.161 267.141L510.384 275.226C509.648 275.604 508.774 275.599 508.041 275.214L492.682 267.141" stroke="#62101F" stroke-width="0.847582" stroke-linecap="round"/>
<path d="M501.609 211.922C499.907 210.945 499.907 208.489 501.609 207.512L507.944 203.875C508.728 203.425 509.692 203.425 510.476 203.875L516.811 207.512C518.513 208.489 518.513 210.945 516.811 211.922L510.476 215.559C509.692 216.009 508.728 216.009 507.944 215.559L501.609 211.922Z" fill="black" fill-opacity="0.2"/>
<path d="M525.119 204.625C525.905 204.171 526.39 203.332 526.39 202.423V184.185L509.324 193.191V213.745L525.119 204.625Z" fill="#BD1F3C"/>
<path fill-rule="evenodd" clip-rule="evenodd" d="M508.053 175.066C508.839 174.612 509.809 174.612 510.595 175.066L526.39 184.185L509.324 193.191L492.258 184.185L508.053 175.066Z" fill="#E33D5C"/>
<path d="M492.258 202.423C492.258 203.332 492.742 204.171 493.529 204.625L509.324 213.745V193.191L492.258 184.185V202.423Z" fill="#BD1F3C"/>
<path d="M526.161 184.504L510.384 192.59C509.648 192.967 508.774 192.963 508.041 192.578L492.682 184.504" stroke="#62101F" stroke-width="0.847582" stroke-linecap="round"/>
<path d="M523.222 226.329C521.52 225.351 521.52 222.896 523.222 221.918L529.557 218.281C530.341 217.831 531.305 217.831 532.089 218.281L538.424 221.918C540.127 222.896 540.127 225.351 538.424 226.329L532.089 229.965C531.305 230.416 530.341 230.416 529.557 229.965L523.222 226.329Z" fill="black" fill-opacity="0.2"/>
<path d="M546.732 219.032C547.519 218.578 548.003 217.738 548.003 216.83V198.591L530.937 207.597V228.151L546.732 219.032Z" fill="#BD1F3C"/>
<path fill-rule="evenodd" clip-rule="evenodd" d="M529.666 189.472C530.453 189.018 531.422 189.018 532.209 189.472L548.003 198.591L530.937 207.597L513.871 198.591L529.666 189.472Z" fill="#E33D5C"/>
<path d="M513.871 216.83C513.871 217.738 514.356 218.578 515.142 219.032L530.937 228.151V207.597L513.871 198.591V216.83Z" fill="#BD1F3C"/>
<path d="M547.774 198.91L531.997 206.996C531.261 207.373 530.387 207.369 529.655 206.984L514.295 198.91" stroke="#62101F" stroke-width="0.847582" stroke-linecap="round"/>
<path d="M481.267 226.329C479.565 225.351 479.565 222.896 481.267 221.918L487.602 218.281C488.386 217.831 489.35 217.831 490.134 218.281L496.469 221.918C498.172 222.896 498.172 225.351 496.469 226.329L490.134 229.965C489.35 230.416 488.386 230.416 487.602 229.965L481.267 226.329Z" fill="black" fill-opacity="0.2"/>
<path d="M504.777 219.032C505.564 218.578 506.048 217.738 506.048 216.83V198.591L488.982 207.597V228.151L504.777 219.032Z" fill="#BD1F3C"/>
<path fill-rule="evenodd" clip-rule="evenodd" d="M487.711 189.472C488.498 189.018 489.467 189.018 490.254 189.472L506.048 198.591L488.982 207.597L471.916 198.591L487.711 189.472Z" fill="#E33D5C"/>
<path d="M471.916 216.83C471.916 217.738 472.401 218.578 473.187 219.032L488.982 228.151V207.597L471.916 198.591V216.83Z" fill="#BD1F3C"/>
<path d="M505.819 198.91L490.042 206.996C489.306 207.373 488.432 207.369 487.699 206.984L472.34 198.91" stroke="#62101F" stroke-width="0.847582" stroke-linecap="round"/>
<path d="M459.654 240.739C457.951 239.762 457.951 237.306 459.654 236.328L465.989 232.692C466.773 232.242 467.737 232.242 468.521 232.692L474.856 236.328C476.558 237.306 476.558 239.762 474.856 240.739L468.521 244.376C467.737 244.826 466.773 244.826 465.989 244.376L459.654 240.739Z" fill="black" fill-opacity="0.2"/>
<path d="M483.164 233.442C483.95 232.988 484.435 232.148 484.435 231.24V213.002L467.369 222.007V242.561L483.164 233.442Z" fill="#BD1F3C"/>
<path fill-rule="evenodd" clip-rule="evenodd" d="M466.098 203.882C466.884 203.428 467.854 203.428 468.64 203.882L484.435 213.002L467.369 222.007L450.303 213.002L466.098 203.882Z" fill="#E33D5C"/>
<path d="M450.303 231.24C450.303 232.148 450.787 232.988 451.574 233.442L467.369 242.561V222.007L450.303 213.002V231.24Z" fill="#BD1F3C"/>
<path d="M484.206 213.32L468.429 221.406C467.693 221.783 466.819 221.779 466.086 221.394L450.727 213.32" stroke="#62101F" stroke-width="0.847582" stroke-linecap="round"/>
</g>
</g>
<g filter="url(#filter1_f_3_2360)">
<path d="M408.239 294.808C408.87 294.445 409.646 294.445 410.276 294.808L492.419 342.059C493.785 342.844 493.785 344.815 492.419 345.601L410.276 392.852C409.646 393.214 408.87 393.214 408.239 392.852L326.097 345.601C324.731 344.815 324.731 342.844 326.097 342.059L408.239 294.808Z" stroke="#BD1F3C"/>
</g>
<path d="M408.169 294.684C408.843 294.296 409.673 294.296 410.348 294.684L492.49 341.936C493.951 342.776 493.951 344.883 492.49 345.724L410.348 392.976C409.673 393.363 408.843 393.363 408.169 392.976L326.025 345.724C324.565 344.883 324.565 342.776 326.025 341.936L408.169 294.684Z" stroke="#BD1F3C" stroke-width="0.715699"/>
<path d="M512.375 208.869C512.375 207.444 513.381 206.365 514.535 206.364C515.689 206.364 516.696 207.444 516.696 208.869C516.696 210.295 515.689 211.375 514.535 211.375C513.381 211.375 512.375 210.294 512.375 208.869Z" stroke="#33E6BF" stroke-width="0.664703"/>
<path d="M518.506 212.221C518.506 210.795 519.512 209.716 520.666 209.716C521.82 209.716 522.827 210.795 522.827 212.221C522.827 213.646 521.82 214.727 520.666 214.727C519.512 214.726 518.506 213.646 518.506 212.221Z" stroke="#33E6BF" stroke-width="0.664703"/>
<path d="M524.639 215.568C524.639 214.143 525.645 213.064 526.799 213.063C527.953 213.063 528.96 214.143 528.96 215.568C528.96 216.994 527.953 218.074 526.799 218.074C525.645 218.074 524.639 216.994 524.639 215.568Z" fill="#33E6BF" stroke="#33E6BF" stroke-width="0.664703"/>
<path d="M411.056 142.086L434.866 157.288L434.866 158.784L411.056 143.582L411.056 142.086Z" fill="#33E6BF"/>
<path d="M437.609 158.707L444.241 162.942L444.241 164.437L437.609 160.203L437.609 158.707Z" fill="#33E6BF"/>
<path d="M401.904 325.172C400.201 324.195 400.201 321.739 401.904 320.762L408.239 317.125C409.023 316.675 409.987 316.675 410.771 317.125L417.106 320.762C418.808 321.739 418.808 324.195 417.106 325.172L410.771 328.809C409.987 329.259 409.023 329.259 408.239 328.809L401.904 325.172Z" fill="black" fill-opacity="0.2"/>
<path d="M425.414 317.875C426.2 317.421 426.685 316.582 426.685 315.673V297.435L409.619 306.441V326.995L425.414 317.875Z" fill="#BD1F3C"/>
<path fill-rule="evenodd" clip-rule="evenodd" d="M408.348 288.316C409.134 287.862 410.104 287.862 410.89 288.316L426.685 297.435L409.619 306.441L392.553 297.435L408.348 288.316Z" fill="#DD3755"/>
<path d="M392.553 315.673C392.553 316.582 393.037 317.421 393.824 317.875L409.619 326.995V306.441L392.553 297.435V315.673Z" fill="#DD3755"/>
<path d="M426.456 297.754L410.679 305.84C409.943 306.217 409.069 306.213 408.336 305.828L392.977 297.754" stroke="#852453" stroke-width="0.847582" stroke-linecap="round"/>
<path d="M423.517 339.583C421.815 338.605 421.815 336.149 423.517 335.172L429.852 331.535C430.636 331.085 431.6 331.085 432.384 331.535L438.719 335.172C440.422 336.149 440.422 338.605 438.719 339.583L432.384 343.219C431.6 343.669 430.636 343.669 429.852 343.219L423.517 339.583Z" fill="black" fill-opacity="0.2"/>
<path d="M447.027 332.286C447.814 331.831 448.298 330.992 448.298 330.084V311.845L431.232 320.851V341.405L447.027 332.286Z" fill="#BD1F3C"/>
<path fill-rule="evenodd" clip-rule="evenodd" d="M429.961 302.726C430.748 302.272 431.717 302.272 432.504 302.726L448.298 311.845L431.232 320.851L414.166 311.845L429.961 302.726Z" fill="#DD3755"/>
<path d="M414.166 330.084C414.166 330.992 414.651 331.831 415.437 332.286L431.232 341.405V320.851L414.166 311.845V330.084Z" fill="#DD3755"/>
<path d="M448.069 312.164L432.292 320.25C431.556 320.627 430.682 320.623 429.949 320.238L414.59 312.164" stroke="#852453" stroke-width="0.847582" stroke-linecap="round"/>
<path d="M445.13 353.989C443.428 353.012 443.428 350.556 445.13 349.578L451.465 345.942C452.249 345.492 453.213 345.492 453.997 345.942L460.332 349.578C462.035 350.556 462.035 353.012 460.332 353.989L453.997 357.626C453.213 358.076 452.249 358.076 451.465 357.626L445.13 353.989Z" fill="black" fill-opacity="0.2"/>
<path d="M468.64 346.692C469.427 346.238 469.912 345.398 469.912 344.49V326.252L452.845 335.257V355.811L468.64 346.692Z" fill="#BD1F3C"/>
<path fill-rule="evenodd" clip-rule="evenodd" d="M451.574 317.132C452.361 316.678 453.33 316.678 454.117 317.132L469.912 326.252L452.845 335.257L435.779 326.252L451.574 317.132Z" fill="#DD3755"/>
<path d="M435.779 344.49C435.779 345.398 436.264 346.238 437.051 346.692L452.845 355.811V335.257L435.779 326.252V344.49Z" fill="#DD3755"/>
<path d="M469.683 326.57L453.906 334.656C453.169 335.033 452.295 335.029 451.563 334.644L436.203 326.57" stroke="#852453" stroke-width="0.847582" stroke-linecap="round"/>
<path d="M381.562 339.583C379.86 338.605 379.86 336.149 381.562 335.172L387.897 331.535C388.681 331.085 389.645 331.085 390.429 331.535L396.764 335.172C398.466 336.149 398.466 338.605 396.764 339.583L390.429 343.219C389.645 343.669 388.681 343.669 387.897 343.219L381.562 339.583Z" fill="black" fill-opacity="0.2"/>
<path d="M405.072 332.286C405.859 331.831 406.343 330.992 406.343 330.084V311.845L389.277 320.851V341.405L405.072 332.286Z" fill="#BD1F3C"/>
<path fill-rule="evenodd" clip-rule="evenodd" d="M388.006 302.726C388.792 302.272 389.762 302.272 390.548 302.726L406.343 311.845L389.277 320.851L372.211 311.845L388.006 302.726Z" fill="#DD3755"/>
<path d="M372.211 330.084C372.211 330.992 372.696 331.831 373.482 332.286L389.277 341.405V320.851L372.211 311.845V330.084Z" fill="#DD3755"/>
<path d="M406.114 312.164L390.337 320.25C389.601 320.627 388.727 320.623 387.994 320.238L372.635 312.164" stroke="#852453" stroke-width="0.847582" stroke-linecap="round"/>
<path d="M401.904 352.719C400.201 351.742 400.201 349.286 401.904 348.309L408.239 344.672C409.023 344.222 409.987 344.222 410.771 344.672L417.106 348.309C418.808 349.286 418.808 351.742 417.106 352.719L410.771 356.356C409.987 356.806 409.023 356.806 408.239 356.356L401.904 352.719Z" fill="black" fill-opacity="0.2"/>
<path d="M425.414 345.422C426.2 344.968 426.685 344.129 426.685 343.22V324.982L409.619 333.988V354.541L425.414 345.422Z" fill="#BD1F3C"/>
<path fill-rule="evenodd" clip-rule="evenodd" d="M408.348 315.863C409.134 315.409 410.104 315.409 410.89 315.863L426.685 324.982L409.619 333.988L392.553 324.982L408.348 315.863Z" fill="#DD3755"/>
<path d="M392.553 343.22C392.553 344.129 393.037 344.968 393.824 345.422L409.619 354.541V333.988L392.553 324.982V343.22Z" fill="#DD3755"/>
<path d="M426.456 325.301L410.679 333.387C409.943 333.764 409.069 333.759 408.336 333.374L392.977 325.301" stroke="#852453" stroke-width="0.847582" stroke-linecap="round"/>
<path d="M423.941 365.852C422.239 364.875 422.239 362.419 423.941 361.442L430.276 357.805C431.06 357.355 432.024 357.355 432.808 357.805L439.143 361.442C440.845 362.419 440.845 364.875 439.143 365.852L432.808 369.489C432.024 369.939 431.06 369.939 430.276 369.489L423.941 365.852Z" fill="black" fill-opacity="0.2"/>
<path d="M447.451 358.555C448.237 358.101 448.722 357.262 448.722 356.353V338.115L431.656 347.12V367.674L447.451 358.555Z" fill="#BD1F3C"/>
<path fill-rule="evenodd" clip-rule="evenodd" d="M430.385 328.996C431.171 328.542 432.141 328.542 432.927 328.996L448.722 338.115L431.656 347.12L414.59 338.115L430.385 328.996Z" fill="#DD3755"/>
<path d="M414.59 356.353C414.59 357.262 415.074 358.101 415.861 358.555L431.656 367.674V347.12L414.59 338.115V356.353Z" fill="#DD3755"/>
<path d="M448.493 338.434L432.716 346.519C431.98 346.897 431.106 346.892 430.373 346.507L415.014 338.434" stroke="#852453" stroke-width="0.847582" stroke-linecap="round"/>
<path d="M359.947 353.989C358.244 353.012 358.244 350.556 359.947 349.578L366.282 345.942C367.066 345.492 368.03 345.492 368.814 345.942L375.149 349.578C376.851 350.556 376.851 353.012 375.149 353.989L368.814 357.626C368.03 358.076 367.066 358.076 366.282 357.626L359.947 353.989Z" fill="black" fill-opacity="0.2"/>
<path d="M383.458 346.692C384.244 346.238 384.729 345.398 384.729 344.49V326.252L367.663 335.257V355.811L383.458 346.692Z" fill="#BD1F3C"/>
<path fill-rule="evenodd" clip-rule="evenodd" d="M366.391 317.132C367.178 316.678 368.147 316.678 368.934 317.132L384.729 326.252L367.663 335.257L350.597 326.252L366.391 317.132Z" fill="#DD3755"/>
<path d="M350.597 344.49C350.597 345.398 351.081 346.238 351.868 346.692L367.663 355.811V335.257L350.597 326.252V344.49Z" fill="#DD3755"/>
<path d="M384.5 326.57L368.723 334.656C367.987 335.033 367.113 335.029 366.38 334.644L351.021 326.57" stroke="#852453" stroke-width="0.847582" stroke-linecap="round"/>
<path d="M380.713 367.129C379.011 366.152 379.011 363.696 380.713 362.719L387.048 359.082C387.832 358.632 388.796 358.632 389.58 359.082L395.915 362.719C397.618 363.696 397.618 366.152 395.915 367.129L389.58 370.766C388.796 371.216 387.832 371.216 387.048 370.766L380.713 367.129Z" fill="black" fill-opacity="0.2"/>
<path d="M404.224 359.833C405.011 359.378 405.496 358.539 405.496 357.63V339.392L388.429 348.398V368.952L404.224 359.833Z" fill="#BD1F3C"/>
<path fill-rule="evenodd" clip-rule="evenodd" d="M387.158 330.273C387.945 329.819 388.914 329.819 389.701 330.273L405.496 339.392L388.429 348.398L371.363 339.392L387.158 330.273Z" fill="#DD3755"/>
<path d="M371.363 357.63C371.363 358.539 371.848 359.378 372.635 359.833L388.429 368.952V348.398L371.363 339.392V357.63Z" fill="#DD3755"/>
<path d="M405.267 339.711L389.49 347.797C388.753 348.174 387.879 348.17 387.147 347.785L371.787 339.711" stroke="#852453" stroke-width="0.847582" stroke-linecap="round"/>
<path d="M401.904 380.262C400.201 379.285 400.201 376.829 401.904 375.852L408.239 372.215C409.023 371.765 409.987 371.765 410.771 372.215L417.106 375.852C418.808 376.829 418.808 379.285 417.106 380.262L410.771 383.899C409.987 384.349 409.023 384.349 408.239 383.899L401.904 380.262Z" fill="black" fill-opacity="0.2"/>
<path d="M425.414 372.965C426.2 372.511 426.685 371.672 426.685 370.763V352.525L409.619 361.531V382.084L425.414 372.965Z" fill="#BD1F3C"/>
<path fill-rule="evenodd" clip-rule="evenodd" d="M408.348 343.406C409.134 342.952 410.104 342.952 410.89 343.406L426.685 352.525L409.619 361.531L392.553 352.525L408.348 343.406Z" fill="#DD3755"/>
<path d="M392.553 370.763C392.553 371.672 393.037 372.511 393.824 372.965L409.619 382.084V361.531L392.553 352.525V370.763Z" fill="#DD3755"/>
<path d="M426.456 352.844L410.679 360.93C409.943 361.307 409.069 361.302 408.336 360.917L392.977 352.844" stroke="#852453" stroke-width="0.847582" stroke-linecap="round"/>
<path d="M401.904 297.626C400.201 296.648 400.201 294.192 401.904 293.215L408.239 289.578C409.023 289.128 409.987 289.128 410.771 289.578L417.106 293.215C418.808 294.192 418.808 296.648 417.106 297.626L410.771 301.262C409.987 301.712 409.023 301.712 408.239 301.262L401.904 297.626Z" fill="black" fill-opacity="0.2"/>
<path d="M425.414 290.329C426.2 289.874 426.685 289.035 426.685 288.127V269.888L409.619 278.894V299.448L425.414 290.329Z" fill="#BD1F3C"/>
<path fill-rule="evenodd" clip-rule="evenodd" d="M408.348 260.769C409.134 260.315 410.104 260.315 410.89 260.769L426.685 269.888L409.619 278.894L392.553 269.888L408.348 260.769Z" fill="#DD3755"/>
<path d="M392.553 288.127C392.553 289.035 393.037 289.874 393.824 290.329L409.619 299.448V278.894L392.553 269.888V288.127Z" fill="#DD3755"/>
<path d="M426.456 270.207L410.679 278.293C409.943 278.67 409.069 278.666 408.336 278.281L392.977 270.207" stroke="#852453" stroke-width="0.847582" stroke-linecap="round"/>
<path d="M423.517 312.032C421.815 311.054 421.815 308.599 423.517 307.621L429.852 303.985C430.636 303.535 431.6 303.535 432.384 303.985L438.719 307.621C440.422 308.599 440.422 311.054 438.719 312.032L432.384 315.669C431.6 316.119 430.636 316.119 429.852 315.669L423.517 312.032Z" fill="black" fill-opacity="0.2"/>
<path d="M447.027 304.735C447.814 304.281 448.298 303.441 448.298 302.533V284.295L431.232 293.3V313.854L447.027 304.735Z" fill="#BD1F3C"/>
<path fill-rule="evenodd" clip-rule="evenodd" d="M429.961 275.175C430.748 274.721 431.717 274.721 432.504 275.175L448.298 284.295L431.232 293.3L414.166 284.295L429.961 275.175Z" fill="#DD3755"/>
<path d="M414.166 302.533C414.166 303.441 414.651 304.281 415.437 304.735L431.232 313.854V293.3L414.166 284.295V302.533Z" fill="#DD3755"/>
<path d="M448.069 284.613L432.292 292.699C431.556 293.076 430.682 293.072 429.949 292.687L414.59 284.613" stroke="#852453" stroke-width="0.847582" stroke-linecap="round"/>
<path d="M445.13 326.442C443.428 325.465 443.428 323.009 445.13 322.032L451.465 318.395C452.249 317.945 453.213 317.945 453.997 318.395L460.332 322.032C462.035 323.009 462.035 325.465 460.332 326.442L453.997 330.079C453.213 330.529 452.249 330.529 451.465 330.079L445.13 326.442Z" fill="black" fill-opacity="0.2"/>
<path d="M468.64 319.145C469.427 318.691 469.912 317.851 469.912 316.943V298.705L452.845 307.71V328.264L468.64 319.145Z" fill="#BD1F3C"/>
<path fill-rule="evenodd" clip-rule="evenodd" d="M451.574 289.586C452.361 289.131 453.33 289.131 454.117 289.586L469.912 298.705L452.845 307.71L435.779 298.705L451.574 289.586Z" fill="#DD3755"/>
<path d="M435.779 316.943C435.779 317.851 436.264 318.691 437.051 319.145L452.845 328.264V307.71L435.779 298.705V316.943Z" fill="#DD3755"/>
<path d="M469.683 299.023L453.906 307.109C453.169 307.487 452.295 307.482 451.563 307.097L436.203 299.023" stroke="#852453" stroke-width="0.847582" stroke-linecap="round"/>
<path d="M381.562 312.032C379.86 311.054 379.86 308.599 381.562 307.621L387.897 303.985C388.681 303.535 389.645 303.535 390.429 303.985L396.764 307.621C398.466 308.599 398.466 311.054 396.764 312.032L390.429 315.669C389.645 316.119 388.681 316.119 387.897 315.669L381.562 312.032Z" fill="black" fill-opacity="0.2"/>
<path d="M405.072 304.735C405.859 304.281 406.343 303.441 406.343 302.533V284.295L389.277 293.3V313.854L405.072 304.735Z" fill="#BD1F3C"/>
<path fill-rule="evenodd" clip-rule="evenodd" d="M388.006 275.175C388.792 274.721 389.762 274.721 390.548 275.175L406.343 284.295L389.277 293.3L372.211 284.295L388.006 275.175Z" fill="#DD3755"/>
<path d="M372.211 302.533C372.211 303.441 372.696 304.281 373.482 304.735L389.277 313.854V293.3L372.211 284.295V302.533Z" fill="#DD3755"/>
<path d="M406.114 284.613L390.337 292.699C389.601 293.076 388.727 293.072 387.994 292.687L372.635 284.613" stroke="#852453" stroke-width="0.847582" stroke-linecap="round"/>
<path d="M401.904 325.172C400.201 324.195 400.201 321.739 401.904 320.762L408.239 317.125C409.023 316.675 409.987 316.675 410.771 317.125L417.106 320.762C418.808 321.739 418.808 324.195 417.106 325.172L410.771 328.809C409.987 329.259 409.023 329.259 408.239 328.809L401.904 325.172Z" fill="black" fill-opacity="0.2"/>
<path d="M425.414 317.875C426.2 317.421 426.685 316.582 426.685 315.673V297.435L409.619 306.441V326.995L425.414 317.875Z" fill="#BD1F3C"/>
<path fill-rule="evenodd" clip-rule="evenodd" d="M408.348 288.316C409.134 287.862 410.104 287.862 410.89 288.316L426.685 297.435L409.619 306.441L392.553 297.435L408.348 288.316Z" fill="#DD3755"/>
<path d="M392.553 315.673C392.553 316.582 393.037 317.421 393.824 317.875L409.619 326.995V306.441L392.553 297.435V315.673Z" fill="#DD3755"/>
<path d="M426.456 297.754L410.679 305.84C409.943 306.217 409.069 306.213 408.336 305.828L392.977 297.754" stroke="#852453" stroke-width="0.847582" stroke-linecap="round"/>
<path d="M423.941 338.305C422.239 337.328 422.239 334.872 423.941 333.895L430.276 330.258C431.06 329.808 432.024 329.808 432.808 330.258L439.143 333.895C440.845 334.872 440.845 337.328 439.143 338.305L432.808 341.942C432.024 342.392 431.06 342.392 430.276 341.942L423.941 338.305Z" fill="black" fill-opacity="0.2"/>
<path d="M447.451 331.008C448.237 330.554 448.722 329.715 448.722 328.806V310.568L431.656 319.574V340.127L447.451 331.008Z" fill="#BD1F3C"/>
<path fill-rule="evenodd" clip-rule="evenodd" d="M430.385 301.449C431.171 300.995 432.141 300.995 432.927 301.449L448.722 310.568L431.656 319.574L414.59 310.568L430.385 301.449Z" fill="#DD3755"/>
<path d="M414.59 328.806C414.59 329.715 415.074 330.554 415.861 331.008L431.656 340.127V319.574L414.59 310.568V328.806Z" fill="#DD3755"/>
<path d="M448.493 310.887L432.716 318.972C431.98 319.35 431.106 319.345 430.373 318.96L415.014 310.887" stroke="#852453" stroke-width="0.847582" stroke-linecap="round"/>
<path d="M359.947 326.442C358.244 325.465 358.244 323.009 359.947 322.032L366.282 318.395C367.066 317.945 368.03 317.945 368.814 318.395L375.149 322.032C376.851 323.009 376.851 325.465 375.149 326.442L368.814 330.079C368.03 330.529 367.066 330.529 366.282 330.079L359.947 326.442Z" fill="black" fill-opacity="0.2"/>
<path d="M383.458 319.145C384.244 318.691 384.729 317.851 384.729 316.943V298.705L367.663 307.71V328.264L383.458 319.145Z" fill="#BD1F3C"/>
<path fill-rule="evenodd" clip-rule="evenodd" d="M366.391 289.586C367.178 289.131 368.147 289.131 368.934 289.586L384.729 298.705L367.663 307.71L350.597 298.705L366.391 289.586Z" fill="#DD3755"/>
<path d="M350.597 316.943C350.597 317.851 351.081 318.691 351.868 319.145L367.663 328.264V307.71L350.597 298.705V316.943Z" fill="#DD3755"/>
<path d="M384.5 299.023L368.723 307.109C367.987 307.487 367.113 307.482 366.38 307.097L351.021 299.023" stroke="#852453" stroke-width="0.847582" stroke-linecap="round"/>
<path d="M380.712 339.583C379.01 338.605 379.01 336.149 380.712 335.172L387.048 331.535C387.831 331.085 388.795 331.085 389.579 331.535L395.914 335.172C397.617 336.149 397.617 338.605 395.914 339.583L389.579 343.219C388.795 343.669 387.831 343.669 387.048 343.219L380.712 339.583Z" fill="black" fill-opacity="0.2"/>
<path d="M404.223 332.286C405.01 331.831 405.495 330.992 405.495 330.084V311.845L388.428 320.851V341.405L404.223 332.286Z" fill="#BD1F3C"/>
<path fill-rule="evenodd" clip-rule="evenodd" d="M387.157 302.726C387.944 302.272 388.913 302.272 389.7 302.726L405.495 311.845L388.428 320.851L371.362 311.845L387.157 302.726Z" fill="#DD3755"/>
<path d="M371.362 330.084C371.362 330.992 371.847 331.831 372.634 332.286L388.428 341.405V320.851L371.362 311.845V330.084Z" fill="#DD3755"/>
<path d="M405.265 312.164L389.488 320.25C388.751 320.627 387.877 320.623 387.145 320.238L371.785 312.164" stroke="#852453" stroke-width="0.847582" stroke-linecap="round"/>
<path d="M401.904 352.719C400.201 351.742 400.201 349.286 401.904 348.309L408.239 344.672C409.023 344.222 409.987 344.222 410.771 344.672L417.106 348.309C418.808 349.286 418.808 351.742 417.106 352.719L410.771 356.356C409.987 356.806 409.023 356.806 408.239 356.356L401.904 352.719Z" fill="black" fill-opacity="0.2"/>
<path d="M425.414 345.422C426.2 344.968 426.685 344.129 426.685 343.22V324.982L409.619 333.988V354.541L425.414 345.422Z" fill="#BD1F3C"/>
<path fill-rule="evenodd" clip-rule="evenodd" d="M408.348 315.863C409.134 315.409 410.104 315.409 410.89 315.863L426.685 324.982L409.619 333.988L392.553 324.982L408.348 315.863Z" fill="#DD3755"/>
<path d="M392.553 343.22C392.553 344.129 393.037 344.968 393.824 345.422L409.619 354.541V333.988L392.553 324.982V343.22Z" fill="#DD3755"/>
<path d="M426.456 325.301L410.679 333.387C409.943 333.764 409.069 333.759 408.336 333.374L392.977 325.301" stroke="#852453" stroke-width="0.847582" stroke-linecap="round"/>
<path d="M401.904 270.079C400.201 269.101 400.201 266.646 401.904 265.668L408.239 262.031C409.023 261.581 409.987 261.581 410.771 262.031L417.106 265.668C418.808 266.646 418.808 269.101 417.106 270.079L410.771 273.715C409.987 274.166 409.023 274.166 408.239 273.715L401.904 270.079Z" fill="black" fill-opacity="0.2"/>
<path d="M425.414 262.782C426.2 262.328 426.685 261.488 426.685 260.58V242.341L409.619 251.347V271.901L425.414 262.782Z" fill="#BD1F3C"/>
<path fill-rule="evenodd" clip-rule="evenodd" d="M408.348 233.222C409.134 232.768 410.104 232.768 410.89 233.222L426.685 242.341L409.619 251.347L392.553 242.341L408.348 233.222Z" fill="#DD3755"/>
<path d="M392.553 260.58C392.553 261.488 393.037 262.328 393.824 262.782L409.619 271.901V251.347L392.553 242.341V260.58Z" fill="#DD3755"/>
<path d="M426.456 242.66L410.679 250.746C409.943 251.123 409.069 251.119 408.336 250.734L392.977 242.66" stroke="#852453" stroke-width="0.847582" stroke-linecap="round"/>
<path d="M423.517 284.485C421.815 283.508 421.815 281.052 423.517 280.074L429.852 276.438C430.636 275.988 431.6 275.988 432.384 276.438L438.719 280.074C440.422 281.052 440.422 283.508 438.719 284.485L432.384 288.122C431.6 288.572 430.636 288.572 429.852 288.122L423.517 284.485Z" fill="black" fill-opacity="0.2"/>
<path d="M447.027 277.188C447.814 276.734 448.298 275.894 448.298 274.986V256.748L431.232 265.753V286.307L447.027 277.188Z" fill="#BD1F3C"/>
<path fill-rule="evenodd" clip-rule="evenodd" d="M429.961 247.629C430.748 247.174 431.717 247.174 432.504 247.629L448.298 256.748L431.232 265.753L414.166 256.748L429.961 247.629Z" fill="#DD3755"/>
<path d="M414.166 274.986C414.166 275.894 414.651 276.734 415.437 277.188L431.232 286.307V265.753L414.166 256.748V274.986Z" fill="#DD3755"/>
<path d="M448.069 257.066L432.292 265.152C431.556 265.53 430.682 265.525 429.949 265.14L414.59 257.066" stroke="#852453" stroke-width="0.847582" stroke-linecap="round"/>
<path d="M445.13 298.899C443.428 297.922 443.428 295.466 445.13 294.489L451.465 290.852C452.249 290.402 453.213 290.402 453.997 290.852L460.332 294.489C462.035 295.466 462.035 297.922 460.332 298.899L453.997 302.536C453.213 302.986 452.249 302.986 451.465 302.536L445.13 298.899Z" fill="black" fill-opacity="0.2"/>
<path d="M468.64 291.602C469.427 291.148 469.912 290.308 469.912 289.4V271.162L452.845 280.167V300.721L468.64 291.602Z" fill="#BD1F3C"/>
<path fill-rule="evenodd" clip-rule="evenodd" d="M451.574 262.043C452.361 261.588 453.33 261.588 454.117 262.043L469.912 271.162L452.845 280.167L435.779 271.162L451.574 262.043Z" fill="#DD3755"/>
<path d="M435.779 289.4C435.779 290.308 436.264 291.148 437.051 291.602L452.845 300.721V280.167L435.779 271.162V289.4Z" fill="#DD3755"/>
<path d="M469.683 271.48L453.906 279.566C453.169 279.944 452.295 279.939 451.563 279.554L436.203 271.48" stroke="#852453" stroke-width="0.847582" stroke-linecap="round"/>
<path d="M381.562 284.485C379.86 283.508 379.86 281.052 381.562 280.074L387.897 276.438C388.681 275.988 389.645 275.988 390.429 276.438L396.764 280.074C398.466 281.052 398.466 283.508 396.764 284.485L390.429 288.122C389.645 288.572 388.681 288.572 387.897 288.122L381.562 284.485Z" fill="black" fill-opacity="0.2"/>
<path d="M405.072 277.188C405.859 276.734 406.343 275.894 406.343 274.986V256.748L389.277 265.753V286.307L405.072 277.188Z" fill="#BD1F3C"/>
<path fill-rule="evenodd" clip-rule="evenodd" d="M388.006 247.629C388.792 247.174 389.762 247.174 390.548 247.629L406.343 256.748L389.277 265.753L372.211 256.748L388.006 247.629Z" fill="#DD3755"/>
<path d="M372.211 274.986C372.211 275.894 372.696 276.734 373.482 277.188L389.277 286.307V265.753L372.211 256.748V274.986Z" fill="#DD3755"/>
<path d="M406.114 257.066L390.337 265.152C389.601 265.53 388.727 265.525 387.994 265.14L372.635 257.066" stroke="#852453" stroke-width="0.847582" stroke-linecap="round"/>
<path d="M359.947 298.899C358.244 297.922 358.244 295.466 359.947 294.489L366.282 290.852C367.066 290.402 368.03 290.402 368.814 290.852L375.149 294.489C376.851 295.466 376.851 297.922 375.149 298.899L368.814 302.536C368.03 302.986 367.066 302.986 366.282 302.536L359.947 298.899Z" fill="black" fill-opacity="0.2"/>
<path d="M383.458 291.602C384.244 291.148 384.729 290.308 384.729 289.4V271.162L367.663 280.167V300.721L383.458 291.602Z" fill="#BD1F3C"/>
<path fill-rule="evenodd" clip-rule="evenodd" d="M366.391 262.043C367.178 261.588 368.147 261.588 368.934 262.043L384.729 271.162L367.663 280.167L350.597 271.162L366.391 262.043Z" fill="#DD3755"/>
<path d="M350.597 289.4C350.597 290.308 351.081 291.148 351.868 291.602L367.663 300.721V280.167L350.597 271.162V289.4Z" fill="#DD3755"/>
<path d="M384.5 271.48L368.723 279.566C367.987 279.944 367.113 279.939 366.38 279.554L351.021 271.48" stroke="#852453" stroke-width="0.847582" stroke-linecap="round"/>
<g filter="url(#filter2_f_3_2360)">
<path d="M225.775 297.453C223.591 297.453 221.406 296.968 219.743 295.998L187.735 277.337C186.074 276.368 185.158 275.06 185.158 273.656C185.158 272.252 186.074 270.944 187.735 269.975L219.741 251.314C223.069 249.374 228.481 249.374 231.807 251.314L263.814 269.975C265.475 270.944 266.39 272.252 266.39 273.656C266.39 275.06 265.475 276.368 263.815 277.336L231.808 295.997C230.145 296.968 227.96 297.453 225.775 297.453ZM225.774 250.42C223.69 250.42 221.609 250.882 220.022 251.807L188.015 270.468C186.533 271.331 185.718 272.464 185.718 273.658C185.718 274.852 186.533 275.985 188.015 276.849L220.023 295.509C223.193 297.358 228.356 297.358 231.526 295.509L263.533 276.849C265.014 275.986 265.83 274.853 265.83 273.659C265.83 272.464 265.014 271.331 263.532 270.468L231.525 251.807C229.941 250.882 227.857 250.42 225.774 250.42Z" fill="#03FFCF"/>
</g>
<path d="M225.775 297.453C223.591 297.453 221.406 296.968 219.743 295.998L187.735 277.337C186.074 276.368 185.158 275.06 185.158 273.656C185.158 272.252 186.074 270.944 187.735 269.975L219.741 251.314C223.069 249.374 228.481 249.374 231.807 251.314L263.814 269.975C265.475 270.944 266.39 272.252 266.39 273.656C266.39 275.06 265.475 276.368 263.815 277.336L231.808 295.997C230.145 296.968 227.96 297.453 225.775 297.453ZM225.774 250.42C223.69 250.42 221.609 250.882 220.022 251.807L188.015 270.468C186.533 271.331 185.718 272.464 185.718 273.658C185.718 274.852 186.533 275.985 188.015 276.849L220.023 295.509C223.193 297.358 228.356 297.358 231.526 295.509L263.533 276.849C265.014 275.986 265.83 274.853 265.83 273.659C265.83 272.464 265.014 271.331 263.532 270.468L231.525 251.807C229.941 250.882 227.857 250.42 225.774 250.42Z" fill="#03FFCF"/>
<path d="M262.045 257.608C267.083 260.579 267.083 265.229 262.175 268.2L234.791 284.087C229.754 287.058 221.616 287.058 216.449 284.087L188.937 268.2C183.899 265.229 183.899 260.579 188.937 257.608L216.32 241.72C221.358 238.749 229.495 238.749 234.533 241.72L262.045 257.608Z" fill="#BCD0F1"/>
<path d="M265.904 247.207H185.174V262.965C185.174 264.903 186.466 266.84 189.049 268.261L216.562 284.149C221.599 287.12 229.866 287.12 234.904 284.149L262.287 268.261C264.741 266.84 266.033 264.903 266.033 262.965V247.207H265.904Z" fill="#10305D"/>
<path d="M265.904 247.207H185.174V262.965C185.174 264.903 186.466 266.84 189.049 268.261L216.562 284.149C221.599 287.12 229.866 287.12 234.904 284.149L262.287 268.261C264.741 266.84 266.033 264.903 266.033 262.965V247.207H265.904Z" fill="url(#paint3_linear_3_2360)"/>
<path d="M262.045 241.85C267.083 244.821 267.083 249.471 262.175 252.442L234.791 268.329C229.754 271.3 221.616 271.3 216.449 268.329L188.937 252.442C183.899 249.471 183.899 244.821 188.937 241.85L216.32 225.963C221.358 222.992 229.495 222.992 234.533 225.963L262.045 241.85Z" fill="#071D40"/>
<path d="M262.045 241.85C267.083 244.821 267.083 249.471 262.175 252.442L234.791 268.329C229.754 271.3 221.616 271.3 216.449 268.329L188.937 252.442C183.899 249.471 183.899 244.821 188.937 241.85L216.32 225.963C221.358 222.992 229.495 222.992 234.533 225.963L262.045 241.85Z" fill="url(#paint4_linear_3_2360)"/>
<path d="M225.362 223.766V224.411C228.72 224.411 231.82 225.186 234.145 226.478L261.658 242.366C263.854 243.657 265.145 245.337 265.145 247.145C265.145 248.953 263.983 250.632 261.658 251.795L234.404 267.812C232.079 269.232 228.979 269.878 225.62 269.878C222.262 269.878 219.162 269.103 216.837 267.812L189.324 251.924C187.128 250.632 185.837 248.953 185.837 247.145C185.837 245.337 186.999 243.657 189.324 242.366L216.708 226.478C219.033 225.057 222.133 224.411 225.491 224.411V223.766M225.362 223.766C222.004 223.766 218.774 224.541 216.191 225.961L188.937 241.849C183.899 244.82 183.899 249.47 188.937 252.441L216.449 268.328C219.033 269.749 222.262 270.524 225.62 270.524C228.979 270.524 232.208 269.749 234.791 268.328L262.175 252.441C267.212 249.47 267.212 244.82 262.045 241.849L234.533 225.961C232.079 224.541 228.72 223.766 225.362 223.766Z" fill="#244C85"/>
<g opacity="0.5">
<path d="M225.49 229.704C228.074 229.704 230.399 230.22 232.207 231.383L253.003 243.395C254.811 244.429 255.715 245.72 255.715 247.141C255.715 248.562 254.811 249.854 253.003 250.887L232.336 262.9C230.528 263.933 228.203 264.579 225.619 264.579C223.036 264.579 220.711 264.062 218.903 262.9L198.107 250.887C196.298 249.854 195.394 248.562 195.394 247.141C195.394 245.72 196.298 244.429 198.107 243.395L218.774 231.383C220.582 230.349 222.907 229.704 225.49 229.704ZM225.49 229.445C223.036 229.445 220.453 229.962 218.644 231.124L197.978 243.137C194.103 245.333 194.232 248.95 197.978 251.145L218.774 263.158C220.711 264.32 223.165 264.837 225.749 264.837C228.203 264.837 230.786 264.32 232.724 263.158L253.39 251.145C257.136 248.95 257.136 245.333 253.39 243.137L232.594 231.124C230.399 229.962 227.944 229.445 225.49 229.445Z" fill="#244C85"/>
</g>
<path d="M237.504 271.687C236.858 272.074 236.47 272.849 236.47 273.624V277.241C236.47 277.887 236.987 278.274 237.633 277.887L258.429 265.874C259.074 265.487 259.462 264.712 259.462 263.937V260.32C259.462 259.674 258.945 259.287 258.299 259.674L237.504 271.687Z" fill="#15D7AC"/>
<path d="M236.6 277.111L257.396 265.098C258.042 264.711 258.429 263.936 258.429 263.161V259.544C258.946 259.286 259.462 259.544 259.462 260.19V263.807C259.462 264.453 258.946 265.357 258.429 265.744L237.633 277.757C236.987 278.144 236.471 277.886 236.6 277.111C236.471 277.111 236.471 277.111 236.6 277.111Z" fill="#1964BA"/>
<path d="M193.589 266.139L194.493 265.622C194.622 265.493 194.751 265.235 194.751 264.977C194.751 264.331 194.234 263.556 193.718 263.168C193.459 263.039 193.201 263.039 192.943 263.039L192.039 263.556L193.589 266.139Z" fill="url(#paint5_linear_3_2360)"/>
<path d="M193.47 266.122C193.842 265.909 193.826 265.185 193.436 264.504C193.045 263.824 192.428 263.444 192.057 263.657C191.685 263.87 191.701 264.595 192.091 265.275C192.482 265.956 193.099 266.335 193.47 266.122Z" fill="#2185F8"/>
<path d="M193.213 265.679C193.461 265.537 193.46 265.071 193.211 264.637C192.963 264.204 192.561 263.968 192.313 264.11C192.066 264.252 192.067 264.718 192.315 265.151C192.563 265.585 192.966 265.821 193.213 265.679Z" fill="#FFE100"/>
<path d="M197.85 268.592L198.754 268.076C198.883 267.946 199.013 267.688 199.013 267.43C199.013 266.784 198.496 266.009 197.979 265.621C197.721 265.492 197.463 265.492 197.204 265.492L196.3 266.009L197.85 268.592Z" fill="url(#paint6_linear_3_2360)"/>
<path d="M197.743 268.564C198.114 268.351 198.098 267.626 197.708 266.946C197.318 266.265 196.7 265.886 196.329 266.099C195.958 266.312 195.973 267.036 196.364 267.717C196.754 268.397 197.371 268.777 197.743 268.564Z" fill="#2185F8"/>
<path d="M197.486 268.116C197.733 267.974 197.732 267.508 197.484 267.075C197.235 266.642 196.833 266.406 196.586 266.548C196.338 266.69 196.339 267.156 196.588 267.589C196.836 268.022 197.238 268.258 197.486 268.116Z" fill="#FFE100"/>
<path d="M236.471 273.493C236.471 272.847 236.988 271.943 237.504 271.556L258.3 259.543C258.559 259.414 258.817 259.414 258.946 259.414L264.113 261.093C264.371 261.222 264.5 261.481 264.5 261.868V266.389C264.5 267.164 263.984 268.197 263.209 268.585L240.217 282.406C239.7 282.664 239.183 282.406 239.054 282.147C238.021 280.856 236.6 277.627 236.6 277.627C236.6 277.627 236.342 277.497 236.342 276.981L236.471 273.493Z" fill="url(#paint7_linear_3_2360)"/>
<defs>
<filter id="filter0_f_3_2360" x="257.975" y="298.733" width="288.002" height="187.975" filterUnits="userSpaceOnUse" color-interpolation-filters="sRGB">
<feFlood flood-opacity="0" result="BackgroundImageFix"/>
<feBlend mode="normal" in="SourceGraphic" in2="BackgroundImageFix" result="shape"/>
<feGaussianBlur stdDeviation="3.93634" result="effect1_foregroundBlur_3_2360"/>
</filter>
<filter id="filter1_f_3_2360" x="321.572" y="291.035" width="175.371" height="105.589" filterUnits="userSpaceOnUse" color-interpolation-filters="sRGB">
<feFlood flood-opacity="0" result="BackgroundImageFix"/>
<feBlend mode="normal" in="SourceGraphic" in2="BackgroundImageFix" result="shape"/>
<feGaussianBlur stdDeviation="1.5" result="effect1_foregroundBlur_3_2360"/>
</filter>
<filter id="filter2_f_3_2360" x="180.864" y="245.565" width="89.8201" height="56.1824" filterUnits="userSpaceOnUse" color-interpolation-filters="sRGB">
<feFlood flood-opacity="0" result="BackgroundImageFix"/>
<feBlend mode="normal" in="SourceGraphic" in2="BackgroundImageFix" result="shape"/>
<feGaussianBlur stdDeviation="2.1471" result="effect1_foregroundBlur_3_2360"/>
</filter>
<radialGradient id="paint0_radial_3_2360" cx="0" cy="0" r="1" gradientUnits="userSpaceOnUse" gradientTransform="translate(400.006 417.467) rotate(90) scale(196.739 224.894)">
<stop stop-color="#4C78B7"/>
<stop offset="1" stop-color="white" stop-opacity="0"/>
</radialGradient>
<linearGradient id="paint1_linear_3_2360" x1="679.947" y1="319.493" x2="175.446" y2="486.104" gradientUnits="userSpaceOnUse">
<stop stop-color="#0E284D"/>
<stop offset="0.333333" stop-color="#294772"/>
<stop offset="0.666667" stop-color="#377CDD"/>
<stop offset="1" stop-color="#34E6BF"/>
</linearGradient>
<linearGradient id="paint2_linear_3_2360" x1="861.793" y1="253.56" x2="319.805" y2="498.896" gradientUnits="userSpaceOnUse">
<stop stop-color="#0E284D"/>
<stop offset="0.333333" stop-color="#294772"/>
<stop offset="0.666667" stop-color="#377CDD"/>
<stop offset="1" stop-color="#34E6BF"/>
</linearGradient>
<linearGradient id="paint3_linear_3_2360" x1="271.191" y1="258.089" x2="175.723" y2="283.969" gradientUnits="userSpaceOnUse">
<stop stop-color="#34E6BF"/>
<stop offset="0.333333" stop-color="#377CDD"/>
<stop offset="0.666667" stop-color="#294772"/>
<stop offset="1" stop-color="#0E284D"/>
</linearGradient>
<linearGradient id="paint4_linear_3_2360" x1="275.502" y1="240.811" x2="101.708" y2="291.107" gradientUnits="userSpaceOnUse">
<stop stop-color="#34E6BF"/>
<stop offset="0.333333" stop-color="#377CDD"/>
<stop offset="0.666667" stop-color="#294772"/>
<stop offset="1" stop-color="#0E284D"/>
</linearGradient>
<linearGradient id="paint5_linear_3_2360" x1="194.411" y1="265.672" x2="192.977" y2="263.189" gradientUnits="userSpaceOnUse">
<stop stop-color="#103DB5"/>
<stop offset="0.6426" stop-color="#6BABFD"/>
</linearGradient>
<linearGradient id="paint6_linear_3_2360" x1="198.646" y1="268.096" x2="197.213" y2="265.613" gradientUnits="userSpaceOnUse">
<stop stop-color="#103DB5"/>
<stop offset="0.6426" stop-color="#6BABFD"/>
</linearGradient>
<linearGradient id="paint7_linear_3_2360" x1="246.052" y1="264.848" x2="253.164" y2="273.601" gradientUnits="userSpaceOnUse">
<stop stop-color="#0CFFFC" stop-opacity="0.6"/>
<stop offset="1" stop-color="white" stop-opacity="0"/>
</linearGradient>
</defs>
</svg>
