<svg width="956" height="956" viewBox="0 0 956 956" fill="none" xmlns="http://www.w3.org/2000/svg">
<g opacity="0.5" filter="url(#filter0_f_3_1873)">
<circle cx="433.925" cy="433.925" r="433.925" transform="matrix(-1 0 0 1 912.169 44.4023)" fill="url(#paint0_radial_3_1873)"/>
</g>
<g opacity="0.5" filter="url(#filter1_f_3_1873)">
<circle cx="112.616" cy="112.616" r="112.616" transform="matrix(-1 0 0 1 684.969 436.785)" fill="url(#paint1_radial_3_1873)"/>
</g>
<g opacity="0.5" filter="url(#filter2_f_3_1873)">
<circle cx="112.616" cy="112.616" r="112.616" transform="matrix(-1 0 0 1 354.997 390.52)" fill="url(#paint2_radial_3_1873)"/>
</g>
<path d="M442.304 745.689C549.713 689.51 791.005 545.509 793.588 545.509M394.197 717.922C501.605 661.743 742.897 517.742 745.48 517.742M346.089 690.155C453.497 633.976 694.79 489.975 697.373 489.975M297.981 662.388C405.389 606.209 646.682 462.208 649.265 462.208M249.873 634.621C357.282 578.442 598.574 434.441 601.157 434.441M201.765 606.855C309.174 550.675 550.466 406.674 553.049 406.674M153.658 579.088C261.066 522.908 502.358 378.908 504.941 378.908M105.55 551.321C212.958 495.141 454.251 351.141 456.834 351.141M456.834 745.689C349.425 689.51 108.133 545.509 105.55 545.509M504.941 717.922C397.533 661.743 156.241 517.742 153.658 517.742M553.049 690.155C445.641 633.976 204.348 489.975 201.765 489.975M601.157 662.388C493.749 606.209 252.456 462.208 249.873 462.208M649.265 634.621C541.856 578.442 300.564 434.441 297.981 434.441M697.373 606.855C589.964 550.675 348.672 406.674 346.089 406.674M745.48 579.088C638.072 522.908 396.78 378.908 394.197 378.908M793.588 551.321C686.18 495.141 444.887 351.141 442.304 351.141" stroke="url(#paint3_radial_3_1873)" stroke-opacity="0.6" stroke-width="0.322871" stroke-linecap="round"/>
<g filter="url(#filter3_f_3_1873)">
<path d="M510.987 587.122C503.354 587.122 495.718 585.436 489.906 582.066L378.048 517.254C372.244 513.887 369.044 509.347 369.044 504.47C369.044 499.592 372.244 495.052 378.048 491.685L489.903 426.873C501.53 420.136 520.443 420.136 532.067 426.873L643.921 491.685C649.726 495.052 652.925 499.592 652.925 504.47C652.925 509.347 649.726 513.887 643.925 517.25L532.071 582.062C526.259 585.436 518.623 587.122 510.987 587.122ZM510.983 423.768C503.702 423.768 496.428 425.373 490.883 428.584L379.029 493.396C373.85 496.396 371.002 500.329 371.002 504.477C371.002 508.625 373.85 512.558 379.029 515.558L490.887 580.37C501.965 586.791 520.009 586.791 531.086 580.37L642.941 515.558C648.116 512.562 650.968 508.628 650.968 504.481C650.968 500.329 648.116 496.396 642.937 493.396L531.083 428.584C525.546 425.373 518.264 423.768 510.983 423.768Z" fill="url(#paint4_linear_3_1873)"/>
</g>
<path d="M510.987 587.122C503.354 587.122 495.718 585.436 489.906 582.066L378.048 517.254C372.244 513.887 369.044 509.347 369.044 504.47C369.044 499.592 372.244 495.052 378.048 491.685L489.903 426.873C501.53 420.136 520.443 420.136 532.067 426.873L643.921 491.685C649.726 495.052 652.925 499.592 652.925 504.47C652.925 509.347 649.726 513.887 643.925 517.25L532.071 582.062C526.259 585.436 518.623 587.122 510.987 587.122ZM510.983 423.768C503.702 423.768 496.428 425.373 490.883 428.584L379.029 493.396C373.85 496.396 371.002 500.329 371.002 504.477C371.002 508.625 373.85 512.558 379.029 515.558L490.887 580.37C501.965 586.791 520.009 586.791 531.086 580.37L642.941 515.558C648.116 512.562 650.968 508.628 650.968 504.481C650.968 500.329 648.116 496.396 642.937 493.396L531.083 428.584C525.546 425.373 518.264 423.768 510.983 423.768Z" fill="url(#paint5_linear_3_1873)"/>
<path d="M511.811 494.238C509.397 494.238 506.982 493.705 505.143 492.639L469.76 472.137C467.924 471.072 466.912 469.636 466.912 468.093C466.912 466.55 467.924 465.114 469.76 464.049L505.142 443.548C508.82 441.416 514.803 441.416 518.48 443.548L553.862 464.049C555.698 465.114 556.71 466.55 556.71 468.093C556.71 469.636 555.698 471.072 553.863 472.136L518.481 492.638C516.642 493.705 514.227 494.238 511.811 494.238ZM511.81 442.565C509.507 442.565 507.206 443.073 505.452 444.089L470.07 464.59C468.432 465.539 467.531 466.783 467.531 468.095C467.531 469.407 468.432 470.652 470.07 471.601L505.453 492.102C508.957 494.133 514.665 494.133 518.169 492.102L553.551 471.601C555.188 470.653 556.091 469.409 556.091 468.097C556.091 466.783 555.188 465.539 553.55 464.59L518.168 444.089C516.417 443.073 514.113 442.565 511.81 442.565Z" fill="#03FFCF"/>
<path d="M556.453 438.497V445.504C556.453 447.538 555.097 449.623 552.42 451.176H552.419L522.015 468.852L522.014 468.853C519.266 470.476 515.621 471.296 511.961 471.296C508.302 471.296 504.656 470.476 501.908 468.853L501.906 468.851L471.358 451.176L471.354 451.173L470.842 450.876C468.371 449.36 467.183 447.408 467.183 445.504V438.497H556.453Z" fill="#10305D" stroke="#244C85" stroke-width="0.509305"/>
<path d="M552.28 431.475C557.874 434.78 557.874 439.953 552.424 443.258L522.019 460.934C516.426 464.239 507.391 464.239 501.654 460.934L471.107 443.258C465.513 439.953 465.513 434.78 471.107 431.475L501.511 413.799C507.104 410.494 516.139 410.494 521.733 413.799L552.28 431.475Z" fill="#052046"/>
<g filter="url(#filter4_d_3_1873)">
<path d="M542.026 432.937C546.208 435.394 546.208 439.239 542.133 441.696L519.4 454.833C515.218 457.29 508.463 457.29 504.174 454.833L481.334 441.696C477.152 439.239 477.152 435.394 481.334 432.937L504.067 419.8C508.248 417.343 515.004 417.343 519.186 419.8L542.026 432.937Z" fill="#052046"/>
<path d="M511.626 421.353C513.911 421.353 516.016 421.876 517.466 422.728L517.493 422.743L540.306 435.863V435.864C541.029 436.289 541.416 436.685 541.604 436.952C541.779 437.2 541.78 437.327 541.78 437.345C541.78 437.36 541.783 437.48 541.618 437.723C541.442 437.981 541.078 438.364 540.391 438.78L517.701 451.894L517.691 451.899L517.681 451.905C516.231 452.757 514.127 453.28 511.827 453.28C509.675 453.28 507.651 452.821 506.153 452.046L505.861 451.887L483.054 438.768C482.33 438.342 481.945 437.949 481.76 437.685C481.588 437.44 481.593 437.322 481.593 437.316C481.593 437.312 481.587 437.194 481.76 436.948C481.922 436.717 482.237 436.386 482.798 436.022L483.054 435.864L505.766 422.739L505.775 422.733L505.786 422.728C507.236 421.876 509.341 421.353 511.626 421.353Z" stroke="#15D7AC" stroke-width="6.79074"/>
</g>
<path d="M511.55 411.352V412.07C515.279 412.07 518.721 412.932 521.302 414.369L551.85 432.045C554.288 433.482 555.722 435.35 555.722 437.362C555.722 439.374 554.432 441.242 551.85 442.535L521.589 460.354C519.008 461.935 515.566 462.653 511.837 462.653C508.108 462.653 504.666 461.791 502.085 460.354L471.537 442.679C469.099 441.242 467.665 439.374 467.665 437.362C467.665 435.35 468.955 433.482 471.537 432.045L501.941 414.369C504.523 412.789 507.965 412.07 511.693 412.07V411.352M511.55 411.352C507.821 411.352 504.236 412.214 501.367 413.795L471.107 431.47C465.513 434.775 465.513 439.948 471.107 443.254L501.654 460.929C504.523 462.51 508.108 463.372 511.837 463.372C515.566 463.372 519.151 462.51 522.019 460.929L552.424 443.254C558.017 439.948 558.017 434.775 552.28 431.47L521.733 413.795C519.008 412.214 515.279 411.352 511.55 411.352Z" fill="#244C85"/>
<path fill-rule="evenodd" clip-rule="evenodd" d="M467.034 404.187L511.932 385.809V462.816C508.284 462.796 504.647 461.97 501.884 460.337L471.337 442.662C468.468 441.081 467.034 438.926 467.034 436.77V404.187Z" fill="url(#paint6_linear_3_1873)" fill-opacity="0.46"/>
<path d="M522.25 460.337L552.654 442.662C555.379 441.081 556.813 438.926 556.813 436.77V404.187L511.932 385.809V462.816C515.67 462.836 519.419 462.01 522.25 460.337Z" fill="url(#paint7_linear_3_1873)" fill-opacity="0.46"/>
<path d="M511.866 425.255L511.98 425.312L512.094 425.255L556.453 402.882V412.926C556.453 414.96 555.097 417.045 552.42 418.598H552.419L522.015 436.273L522.014 436.274C519.266 437.898 515.621 438.718 511.961 438.718C508.302 438.718 504.656 437.898 501.908 436.274L501.906 436.273L471.358 418.598L471.354 418.595L470.842 418.298C468.371 416.781 467.183 414.83 467.183 412.926V402.881L511.866 425.255Z" fill="#10305D"/>
<path d="M511.866 425.255L511.98 425.312L512.094 425.255L556.453 402.882V412.926C556.453 414.96 555.097 417.045 552.42 418.598H552.419L522.015 436.273L522.014 436.274C519.266 437.898 515.621 438.718 511.961 438.718C508.302 438.718 504.656 437.898 501.908 436.274L501.906 436.273L471.358 418.598L471.354 418.595L470.842 418.298C468.371 416.781 467.183 414.83 467.183 412.926V402.881L511.866 425.255Z" fill="url(#paint8_linear_3_1873)"/>
<path d="M511.866 425.255L511.98 425.312L512.094 425.255L556.453 402.882V412.926C556.453 414.96 555.097 417.045 552.42 418.598H552.419L522.015 436.273L522.014 436.274C519.266 437.898 515.621 438.718 511.961 438.718C508.302 438.718 504.656 437.898 501.908 436.274L501.906 436.273L471.358 418.598L471.354 418.595L470.842 418.298C468.371 416.781 467.183 414.83 467.183 412.926V402.881L511.866 425.255Z" stroke="#244C85" stroke-width="0.509305"/>
<path d="M471.252 406.325L467.184 401.655C467.225 399.651 468.578 397.606 471.214 396.077H471.215L501.62 378.401L501.621 378.4C504.368 376.776 508.014 375.957 511.673 375.957C515.333 375.957 518.979 376.776 521.727 378.4L521.729 378.401L552.277 396.077L552.281 396.079L552.792 396.377C555.215 397.863 556.404 399.767 556.45 401.636L550.07 407.23C550.018 407.201 549.954 407.163 549.878 407.12C549.651 406.989 549.316 406.797 548.889 406.552C548.035 406.062 546.81 405.36 545.33 404.514C542.37 402.821 538.388 400.55 534.3 398.237C530.213 395.924 526.018 393.568 522.633 391.705C519.258 389.847 516.667 388.468 515.801 388.121C514.336 387.534 513.038 387.245 511.73 387.25C510.423 387.255 509.122 387.553 507.652 388.12C507.356 388.234 506.599 388.632 505.525 389.224C504.441 389.822 503.015 390.628 501.367 391.571C498.07 393.458 493.881 395.894 489.761 398.303C485.642 400.711 481.591 403.094 478.57 404.874C477.06 405.764 475.806 406.503 474.931 407.02C474.494 407.279 474.15 407.482 473.917 407.62C473.822 407.676 473.746 407.722 473.688 407.756L471.252 406.325Z" fill="#10305D" stroke="#244C85" stroke-width="0.509305"/>
<path d="M501.538 378.335C507.116 375.039 516.127 375.039 521.704 378.335L552.169 395.963C557.747 399.259 557.747 404.418 552.312 407.714L521.991 425.341C516.413 428.637 507.402 428.637 501.681 425.341L471.217 407.714C465.639 404.418 465.639 399.259 471.217 395.963L501.538 378.335ZM519.36 383.859C515.055 381.323 508.102 381.323 503.797 383.859L480.4 397.416C476.095 399.951 476.095 403.919 480.4 406.454L503.908 420.012C508.322 422.547 515.276 422.547 519.58 420.012L542.978 406.454C547.172 403.919 547.172 399.951 542.868 397.416L519.36 383.859Z" fill="#052046"/>
<path d="M501.511 378.28C507.105 374.975 516.14 374.975 521.733 378.28L552.281 395.955C557.874 399.26 557.874 404.434 552.424 407.739L522.02 425.414C516.427 428.719 507.392 428.719 501.655 425.414L471.107 407.739C465.514 404.434 465.514 399.26 471.107 395.955L501.511 378.28ZM519.382 383.821C515.066 381.279 508.094 381.279 503.778 383.821L480.316 397.415C476 399.957 476 403.936 480.316 406.478L503.888 420.073C508.315 422.615 515.288 422.615 519.604 420.073L543.066 406.478C547.271 403.936 547.272 399.957 542.956 397.415L519.382 383.821Z" fill="#052046"/>
<path d="M501.511 378.28C507.105 374.975 516.14 374.975 521.733 378.28L552.281 395.955C557.874 399.26 557.874 404.434 552.424 407.739L522.02 425.414C516.427 428.719 507.392 428.719 501.655 425.414L471.107 407.739C465.514 404.434 465.514 399.26 471.107 395.955L501.511 378.28ZM519.382 383.821C515.066 381.279 508.094 381.279 503.778 383.821L480.316 397.415C476 399.957 476 403.936 480.316 406.478L503.888 420.073C508.315 422.615 515.288 422.615 519.604 420.073L543.066 406.478C547.271 403.936 547.272 399.957 542.956 397.415L519.382 383.821Z" fill="url(#paint9_linear_3_1873)"/>
<path d="M511.551 375.836V376.554C515.279 376.554 518.721 377.417 521.303 378.854L551.851 396.529C554.289 397.966 555.723 399.834 555.723 401.846C555.723 403.858 554.432 405.726 551.851 407.019L521.59 424.838C519.008 426.419 515.566 427.138 511.837 427.138C508.108 427.138 504.667 426.276 502.085 424.838L471.537 407.163C469.099 405.726 467.665 403.858 467.665 401.846C467.665 399.834 468.956 397.966 471.537 396.529L501.942 378.854C504.523 377.273 507.965 376.554 511.694 376.554V375.836M511.551 375.836C507.822 375.836 504.236 376.698 501.368 378.279L471.107 395.954C465.514 399.259 465.514 404.433 471.107 407.738L501.655 425.413C504.523 426.994 508.108 427.856 511.837 427.856C515.566 427.856 519.152 426.994 522.02 425.413L552.424 407.738C558.017 404.433 558.017 399.259 552.281 395.954L521.733 378.279C519.008 376.698 515.279 375.836 511.551 375.836Z" fill="#244C85"/>
<path opacity="0.5" d="M546.883 320.621H510.951H476.738V401.679C476.738 403.359 477.859 405.038 480.1 406.27L503.967 420.041C508.337 422.617 515.508 422.617 519.878 420.041L543.633 406.27C545.762 405.038 546.883 403.359 546.883 401.679V320.621Z" fill="url(#paint10_linear_3_1873)"/>
<path d="M579.556 530.582C577.142 530.582 574.726 530.049 572.888 528.982L537.504 508.481C535.668 507.416 534.656 505.98 534.656 504.437C534.656 502.894 535.668 501.458 537.504 500.393L572.887 479.891C576.565 477.76 582.547 477.76 586.224 479.891L621.606 500.393C623.442 501.458 624.454 502.894 624.454 504.437C624.454 505.98 623.443 507.416 621.607 508.48L586.225 528.981C584.387 530.049 581.971 530.582 579.556 530.582ZM579.555 478.909C577.252 478.909 574.951 479.417 573.197 480.432L537.815 500.934C536.176 501.883 535.276 503.127 535.276 504.439C535.276 505.751 536.176 506.995 537.815 507.944L573.198 528.446C576.702 530.477 582.41 530.477 585.914 528.446L621.296 507.944C622.933 506.997 623.835 505.752 623.835 504.44C623.835 503.127 622.933 501.883 621.295 500.934L585.913 480.432C584.161 479.417 581.858 478.909 579.555 478.909Z" fill="#03FFCF"/>
<path d="M579.556 530.582C577.142 530.582 574.726 530.049 572.888 528.982L537.504 508.481C535.668 507.416 534.656 505.98 534.656 504.437C534.656 502.894 535.668 501.458 537.504 500.393L572.887 479.891C576.565 477.76 582.547 477.76 586.224 479.891L621.606 500.393C623.442 501.458 624.454 502.894 624.454 504.437C624.454 505.98 623.443 507.416 621.607 508.48L586.225 528.981C584.387 530.049 581.971 530.582 579.556 530.582ZM579.555 478.909C577.252 478.909 574.951 479.417 573.197 480.432L537.815 500.934C536.176 501.883 535.276 503.127 535.276 504.439C535.276 505.751 536.176 506.995 537.815 507.944L573.198 528.446C576.702 530.477 582.41 530.477 585.914 528.446L621.296 507.944C622.933 506.997 623.835 505.752 623.835 504.44C623.835 503.127 622.933 501.883 621.295 500.934L585.913 480.432C584.161 479.417 581.858 478.909 579.555 478.909Z" fill="url(#paint11_linear_3_1873)"/>
<path d="M624.197 474.845V481.852C624.197 483.885 622.842 485.97 620.165 487.523H620.164L589.759 505.199L589.758 505.2C587.01 506.824 583.365 507.643 579.706 507.644C576.046 507.644 572.4 506.824 569.652 505.2L569.65 505.198L539.102 487.523L539.098 487.521L538.586 487.224C536.115 485.707 534.927 483.756 534.927 481.852V474.845H624.197Z" fill="#10305D"/>
<path d="M624.197 474.845V481.852C624.197 483.885 622.842 485.97 620.165 487.523H620.164L589.759 505.199L589.758 505.2C587.01 506.824 583.365 507.643 579.706 507.644C576.046 507.644 572.4 506.824 569.652 505.2L569.65 505.198L539.102 487.523L539.098 487.521L538.586 487.224C536.115 485.707 534.927 483.756 534.927 481.852V474.845H624.197Z" fill="url(#paint12_linear_3_1873)"/>
<path d="M624.197 474.845V481.852C624.197 483.885 622.842 485.97 620.165 487.523H620.164L589.759 505.199L589.758 505.2C587.01 506.824 583.365 507.643 579.706 507.644C576.046 507.644 572.4 506.824 569.652 505.2L569.65 505.198L539.102 487.523L539.098 487.521L538.586 487.224C536.115 485.707 534.927 483.756 534.927 481.852V474.845H624.197Z" stroke="#244C85" stroke-width="0.509305"/>
<path d="M620.024 467.822C625.618 471.127 625.618 476.301 620.168 479.606L589.764 497.281C584.17 500.586 575.135 500.586 569.398 497.281L538.851 479.606C533.257 476.301 533.257 471.127 538.851 467.822L569.255 450.147C574.848 446.842 583.883 446.842 589.477 450.147L620.024 467.822Z" fill="#052046"/>
<g filter="url(#filter5_d_3_1873)">
<path d="M609.771 469.285C613.952 471.741 613.952 475.587 609.878 478.043L587.145 491.181C582.963 493.637 576.208 493.637 571.918 491.181L549.078 478.043C544.896 475.587 544.896 471.741 549.078 469.285L571.811 456.147C575.993 453.691 582.749 453.691 586.931 456.147L609.771 469.285Z" fill="#052046"/>
<path d="M579.371 457.7C581.656 457.7 583.76 458.223 585.21 459.075L585.238 459.091L608.05 472.211V472.212C608.774 472.637 609.161 473.032 609.349 473.3C609.524 473.548 609.525 473.675 609.525 473.692C609.525 473.708 609.528 473.828 609.363 474.07C609.187 474.328 608.823 474.712 608.135 475.128L585.446 488.241L585.436 488.247L585.425 488.253C583.976 489.104 581.872 489.628 579.572 489.628C577.419 489.628 575.396 489.169 573.898 488.394L573.606 488.234L550.798 475.115C550.074 474.69 549.69 474.296 549.504 474.032C549.332 473.787 549.337 473.67 549.337 473.664C549.337 473.66 549.332 473.542 549.504 473.296C549.667 473.065 549.981 472.734 550.542 472.37L550.798 472.212L573.51 459.087L573.52 459.081L573.531 459.075C574.981 458.223 577.086 457.7 579.371 457.7Z" stroke="#15D7AC" stroke-width="6.79074"/>
</g>
<path d="M579.294 447.707V448.425C583.023 448.425 586.465 449.288 589.046 450.725L619.594 468.4C622.032 469.837 623.466 471.705 623.466 473.717C623.466 475.729 622.176 477.597 619.594 478.89L589.333 496.709C586.752 498.29 583.31 499.009 579.581 499.009C575.852 499.009 572.41 498.146 569.829 496.709L539.281 479.034C536.843 477.597 535.409 475.729 535.409 473.717C535.409 471.705 536.699 469.837 539.281 468.4L569.685 450.725C572.267 449.144 575.709 448.425 579.438 448.425V447.707M579.294 447.707C575.565 447.707 571.98 448.569 569.112 450.15L538.851 467.825C533.257 471.13 533.257 476.304 538.851 479.609L569.398 497.284C572.267 498.865 575.852 499.727 579.581 499.727C583.31 499.727 586.895 498.865 589.764 497.284L620.168 479.609C625.761 476.304 625.761 471.13 620.024 467.825L589.477 450.15C586.752 448.569 583.023 447.707 579.294 447.707Z" fill="#244C85"/>
<path fill-rule="evenodd" clip-rule="evenodd" d="M534.779 440.535L579.677 422.156V499.163C576.029 499.144 572.392 498.317 569.629 496.685L539.081 479.01C536.213 477.429 534.779 475.273 534.779 473.118V440.535Z" fill="url(#paint13_linear_3_1873)" fill-opacity="0.46"/>
<path d="M589.994 496.685L620.398 479.01C623.123 477.429 624.558 475.273 624.558 473.118V440.535L579.677 422.156V499.163C583.414 499.184 587.163 498.358 589.994 496.685Z" fill="url(#paint14_linear_3_1873)" fill-opacity="0.46"/>
<path d="M579.61 461.603L579.725 461.66L579.839 461.603L624.197 439.229V449.273C624.197 451.307 622.842 453.392 620.165 454.945H620.164L589.76 472.621L589.759 472.622C587.011 474.246 583.366 475.065 579.706 475.065C576.046 475.065 572.4 474.246 569.652 472.622L569.65 472.621L539.103 454.945L539.099 454.942L538.587 454.646C536.116 453.129 534.928 451.178 534.928 449.273V439.229L579.61 461.603Z" fill="#10305D"/>
<path d="M579.61 461.603L579.725 461.66L579.839 461.603L624.197 439.229V449.273C624.197 451.307 622.842 453.392 620.165 454.945H620.164L589.76 472.621L589.759 472.622C587.011 474.246 583.366 475.065 579.706 475.065C576.046 475.065 572.4 474.246 569.652 472.622L569.65 472.621L539.103 454.945L539.099 454.942L538.587 454.646C536.116 453.129 534.928 451.178 534.928 449.273V439.229L579.61 461.603Z" fill="url(#paint15_linear_3_1873)"/>
<path d="M579.61 461.603L579.725 461.66L579.839 461.603L624.197 439.229V449.273C624.197 451.307 622.842 453.392 620.165 454.945H620.164L589.76 472.621L589.759 472.622C587.011 474.246 583.366 475.065 579.706 475.065C576.046 475.065 572.4 474.246 569.652 472.622L569.65 472.621L539.103 454.945L539.099 454.942L538.587 454.646C536.116 453.129 534.928 451.178 534.928 449.273V439.229L579.61 461.603Z" stroke="#244C85" stroke-width="0.509305"/>
<path d="M538.998 442.673L534.929 438.003C534.97 435.999 536.323 433.954 538.959 432.425H538.96L569.365 414.749L569.366 414.748C572.114 413.124 575.759 412.305 579.418 412.305C583.078 412.305 586.724 413.124 589.472 414.748L589.474 414.749L620.022 432.425L620.026 432.427L620.538 432.724C622.96 434.211 624.149 436.115 624.195 437.983L617.815 443.578C617.763 443.548 617.699 443.511 617.624 443.468C617.396 443.337 617.061 443.144 616.634 442.899C615.78 442.409 614.555 441.707 613.075 440.861C610.115 439.169 606.133 436.898 602.045 434.585C597.958 432.272 593.763 429.915 590.378 428.053C587.003 426.195 584.412 424.816 583.546 424.469C582.081 423.881 580.783 423.593 579.475 423.598C578.168 423.603 576.867 423.901 575.397 424.468C575.101 424.582 574.344 424.98 573.27 425.572C572.187 426.17 570.76 426.976 569.112 427.919C565.815 429.805 561.626 432.242 557.506 434.65C553.387 437.059 549.336 439.442 546.315 441.222C544.805 442.112 543.552 442.851 542.676 443.368C542.239 443.626 541.895 443.829 541.662 443.968C541.567 444.023 541.491 444.069 541.433 444.103L538.998 442.673Z" fill="#10305D" stroke="#244C85" stroke-width="0.509305"/>
<path d="M569.283 414.683C574.86 411.387 583.871 411.387 589.449 414.683L619.913 432.311C625.491 435.607 625.491 440.766 620.056 444.062L589.735 461.689C584.157 464.985 575.146 464.985 569.425 461.689L538.961 444.062C533.383 440.766 533.383 435.607 538.961 432.311L569.283 414.683ZM587.104 420.206C582.799 417.671 575.847 417.671 571.542 420.206L548.144 433.764C543.84 436.299 543.84 440.267 548.144 442.802L571.653 456.36C576.067 458.895 583.02 458.895 587.325 456.36L610.723 442.802C614.917 440.267 614.917 436.299 610.613 433.764L587.104 420.206Z" fill="#052046"/>
<path d="M569.255 414.616C574.848 411.311 583.883 411.311 589.477 414.616L620.024 432.291C625.618 435.596 625.618 440.77 620.168 444.075L589.764 461.75C584.17 465.055 575.135 465.055 569.399 461.75L538.851 444.075C533.257 440.77 533.257 435.596 538.851 432.291L569.255 414.616ZM587.126 420.157C582.81 417.615 575.838 417.615 571.522 420.157L548.06 433.751C543.743 436.293 543.743 440.272 548.06 442.814L571.632 456.409C576.059 458.951 583.032 458.951 587.348 456.409L610.81 442.814C615.015 440.272 615.015 436.293 610.699 433.751L587.126 420.157Z" fill="#052046"/>
<path d="M569.255 414.616C574.848 411.311 583.883 411.311 589.477 414.616L620.024 432.291C625.618 435.596 625.618 440.77 620.168 444.075L589.764 461.75C584.17 465.055 575.135 465.055 569.399 461.75L538.851 444.075C533.257 440.77 533.257 435.596 538.851 432.291L569.255 414.616ZM587.126 420.157C582.81 417.615 575.838 417.615 571.522 420.157L548.06 433.751C543.743 436.293 543.743 440.272 548.06 442.814L571.632 456.409C576.059 458.951 583.032 458.951 587.348 456.409L610.81 442.814C615.015 440.272 615.015 436.293 610.699 433.751L587.126 420.157Z" fill="url(#paint16_linear_3_1873)"/>
<path d="M579.294 412.18V412.898C583.023 412.898 586.465 413.76 589.046 415.197L619.594 432.873C622.032 434.31 623.466 436.178 623.466 438.19C623.466 440.202 622.176 442.07 619.594 443.363L589.333 461.182C586.752 462.763 583.31 463.481 579.581 463.481C575.852 463.481 572.41 462.619 569.829 461.182L539.281 443.507C536.843 442.07 535.409 440.202 535.409 438.19C535.409 436.178 536.699 434.31 539.281 432.873L569.685 415.197C572.267 413.617 575.709 412.898 579.438 412.898V412.18M579.294 412.18C575.565 412.18 571.98 413.042 569.112 414.623L538.851 432.298C533.257 435.603 533.257 440.776 538.851 444.082L569.398 461.757C572.267 463.338 575.852 464.2 579.581 464.2C583.31 464.2 586.895 463.338 589.764 461.757L620.168 444.082C625.761 440.776 625.761 435.603 620.024 432.298L589.477 414.623C586.752 413.042 583.023 412.18 579.294 412.18Z" fill="#244C85"/>
<path opacity="0.5" d="M612.124 357.051H578.741H546.956V437.985C546.956 439.662 547.997 441.338 550.079 442.568L572.253 456.319C576.313 458.89 582.975 458.89 587.035 456.319L609.105 442.568C611.082 441.338 612.124 439.662 612.124 437.985V357.051Z" fill="url(#paint17_linear_3_1873)"/>
<path d="M444.067 530.582C441.653 530.582 439.237 530.049 437.399 528.982L402.016 508.481C400.179 507.416 399.167 505.98 399.167 504.437C399.167 502.894 400.179 501.458 402.016 500.393L437.398 479.891C441.076 477.76 447.058 477.76 450.735 479.891L486.118 500.393C487.954 501.458 488.966 502.894 488.966 504.437C488.966 505.98 487.954 507.416 486.119 508.48L450.737 528.981C448.898 530.049 446.483 530.582 444.067 530.582ZM444.066 478.909C441.763 478.909 439.462 479.417 437.708 480.432L402.326 500.934C400.688 501.883 399.787 503.127 399.787 504.439C399.787 505.751 400.688 506.995 402.326 507.944L437.709 528.446C441.213 530.477 446.921 530.477 450.425 528.446L485.807 507.944C487.444 506.997 488.346 505.752 488.346 504.44C488.346 503.127 487.444 501.883 485.806 500.934L450.424 480.432C448.673 479.417 446.369 478.909 444.066 478.909Z" fill="#03FFCF"/>
<path d="M444.067 530.582C441.653 530.582 439.237 530.049 437.399 528.982L402.016 508.481C400.179 507.416 399.167 505.98 399.167 504.437C399.167 502.894 400.179 501.458 402.016 500.393L437.398 479.891C441.076 477.76 447.058 477.76 450.735 479.891L486.118 500.393C487.954 501.458 488.966 502.894 488.966 504.437C488.966 505.98 487.954 507.416 486.119 508.48L450.737 528.981C448.898 530.049 446.483 530.582 444.067 530.582ZM444.066 478.909C441.763 478.909 439.462 479.417 437.708 480.432L402.326 500.934C400.688 501.883 399.787 503.127 399.787 504.439C399.787 505.751 400.688 506.995 402.326 507.944L437.709 528.446C441.213 530.477 446.921 530.477 450.425 528.446L485.807 507.944C487.444 506.997 488.346 505.752 488.346 504.44C488.346 503.127 487.444 501.883 485.806 500.934L450.424 480.432C448.673 479.417 446.369 478.909 444.066 478.909Z" fill="url(#paint18_linear_3_1873)"/>
<path d="M488.708 474.845V481.852C488.708 483.885 487.353 485.97 484.676 487.523H484.675L454.271 505.199L454.27 505.2C451.522 506.824 447.876 507.643 444.217 507.644C440.557 507.644 436.911 506.824 434.163 505.2L434.161 505.198L403.613 487.523L403.609 487.521L403.098 487.224C400.626 485.707 399.438 483.756 399.438 481.852V474.845H488.708Z" fill="#10305D"/>
<path d="M488.708 474.845V481.852C488.708 483.885 487.353 485.97 484.676 487.523H484.675L454.271 505.199L454.27 505.2C451.522 506.824 447.876 507.643 444.217 507.644C440.557 507.644 436.911 506.824 434.163 505.2L434.161 505.198L403.613 487.523L403.609 487.521L403.098 487.224C400.626 485.707 399.438 483.756 399.438 481.852V474.845H488.708Z" fill="url(#paint19_linear_3_1873)"/>
<path d="M488.708 474.845V481.852C488.708 483.885 487.353 485.97 484.676 487.523H484.675L454.271 505.199L454.27 505.2C451.522 506.824 447.876 507.643 444.217 507.644C440.557 507.644 436.911 506.824 434.163 505.2L434.161 505.198L403.613 487.523L403.609 487.521L403.098 487.224C400.626 485.707 399.438 483.756 399.438 481.852V474.845H488.708Z" stroke="#244C85" stroke-width="0.509305"/>
<path d="M484.536 467.822C490.129 471.127 490.129 476.301 484.679 479.606L454.275 497.281C448.682 500.586 439.646 500.586 433.91 497.281L403.362 479.606C397.769 476.301 397.769 471.127 403.362 467.822L433.766 450.147C439.359 446.842 448.395 446.842 453.988 450.147L484.536 467.822Z" fill="#052046"/>
<g filter="url(#filter6_d_3_1873)">
<path d="M474.281 469.285C478.463 471.741 478.463 475.587 474.389 478.043L451.656 491.181C447.474 493.637 440.718 493.637 436.429 491.181L413.589 478.043C409.407 475.587 409.407 471.741 413.589 469.285L436.322 456.147C440.504 453.691 447.259 453.691 451.441 456.147L474.281 469.285Z" fill="#052046"/>
<path d="M443.881 457.7C446.166 457.7 448.271 458.223 449.721 459.075L449.749 459.091L472.561 472.211V472.212C473.284 472.637 473.671 473.032 473.86 473.3C474.035 473.548 474.036 473.675 474.036 473.692C474.036 473.708 474.039 473.828 473.874 474.07C473.698 474.328 473.333 474.712 472.646 475.128L449.957 488.241L449.947 488.247L449.936 488.253C448.487 489.104 446.382 489.628 444.083 489.628C441.93 489.628 439.907 489.169 438.409 488.394L438.117 488.234L415.309 475.115C414.585 474.69 414.201 474.296 414.015 474.032C413.843 473.787 413.848 473.67 413.848 473.664C413.848 473.66 413.842 473.542 414.015 473.296C414.177 473.065 414.492 472.734 415.053 472.37L415.309 472.212L438.021 459.087L438.031 459.081L438.042 459.075C439.492 458.223 441.596 457.7 443.881 457.7Z" stroke="#15D7AC" stroke-width="6.79074"/>
</g>
<path d="M443.805 447.707V448.425C447.534 448.425 450.976 449.288 453.557 450.725L484.105 468.4C486.543 469.837 487.977 471.705 487.977 473.717C487.977 475.729 486.686 477.597 484.105 478.89L453.844 496.709C451.263 498.29 447.821 499.009 444.092 499.009C440.363 499.009 436.921 498.146 434.339 496.709L403.792 479.034C401.354 477.597 399.919 475.729 399.919 473.717C399.919 471.705 401.21 469.837 403.792 468.4L434.196 450.725C436.777 449.144 440.219 448.425 443.948 448.425V447.707M443.805 447.707C440.076 447.707 436.491 448.569 433.622 450.15L403.361 467.825C397.768 471.13 397.768 476.304 403.361 479.609L433.909 497.284C436.777 498.865 440.363 499.727 444.092 499.727C447.821 499.727 451.406 498.865 454.274 497.284L484.679 479.609C490.272 476.304 490.272 471.13 484.535 467.825L453.987 450.15C451.263 448.569 447.534 447.707 443.805 447.707Z" fill="#244C85"/>
<path fill-rule="evenodd" clip-rule="evenodd" d="M399.29 440.535L444.188 422.156V499.163C440.54 499.144 436.903 498.317 434.14 496.685L403.593 479.01C400.724 477.429 399.29 475.273 399.29 473.118V440.535Z" fill="url(#paint20_linear_3_1873)" fill-opacity="0.46"/>
<path d="M454.505 496.685L484.91 479.01C487.635 477.429 489.069 475.273 489.069 473.118V440.535L444.188 422.156V499.163C447.926 499.184 451.675 498.358 454.505 496.685Z" fill="url(#paint21_linear_3_1873)" fill-opacity="0.46"/>
<path d="M444.121 461.603L444.235 461.66L444.35 461.603L488.708 439.229V449.273C488.708 451.307 487.353 453.392 484.676 454.945H484.675L454.271 472.621L454.27 472.622C451.522 474.246 447.876 475.065 444.217 475.065C440.557 475.065 436.911 474.246 434.163 472.622L434.161 472.621L403.613 454.945L403.609 454.942L403.098 454.646C400.626 453.129 399.438 451.178 399.438 449.273V439.229L444.121 461.603Z" fill="#10305D"/>
<path d="M444.121 461.603L444.235 461.66L444.35 461.603L488.708 439.229V449.273C488.708 451.307 487.353 453.392 484.676 454.945H484.675L454.271 472.621L454.27 472.622C451.522 474.246 447.876 475.065 444.217 475.065C440.557 475.065 436.911 474.246 434.163 472.622L434.161 472.621L403.613 454.945L403.609 454.942L403.098 454.646C400.626 453.129 399.438 451.178 399.438 449.273V439.229L444.121 461.603Z" fill="url(#paint22_linear_3_1873)"/>
<path d="M444.121 461.603L444.235 461.66L444.35 461.603L488.708 439.229V449.273C488.708 451.307 487.353 453.392 484.676 454.945H484.675L454.271 472.621L454.27 472.622C451.522 474.246 447.876 475.065 444.217 475.065C440.557 475.065 436.911 474.246 434.163 472.622L434.161 472.621L403.613 454.945L403.609 454.942L403.098 454.646C400.626 453.129 399.438 451.178 399.438 449.273V439.229L444.121 461.603Z" stroke="#244C85" stroke-width="0.509305"/>
<path d="M403.509 442.673L399.44 438.003C399.481 435.999 400.835 433.954 403.471 432.425H403.472L433.876 414.749L433.877 414.748C436.625 413.124 440.27 412.305 443.93 412.305C447.589 412.305 451.235 413.124 453.983 414.748L453.985 414.749L484.533 432.425L484.537 432.427L485.049 432.724C487.471 434.211 488.66 436.115 488.706 437.983L482.326 443.578C482.275 443.548 482.211 443.511 482.135 443.468C481.907 443.337 481.573 443.144 481.146 442.899C480.291 442.409 479.066 441.707 477.586 440.861C474.626 439.169 470.644 436.898 466.557 434.585C462.469 432.272 458.274 429.915 454.89 428.053C451.514 426.195 448.923 424.816 448.058 424.469C446.592 423.881 445.294 423.593 443.986 423.598C442.679 423.603 441.379 423.901 439.908 424.468C439.613 424.582 438.855 424.98 437.781 425.572C436.698 426.17 435.271 426.976 433.623 427.919C430.326 429.805 426.137 432.242 422.018 434.65C417.898 437.059 413.847 439.442 410.826 441.222C409.316 442.112 408.063 442.851 407.188 443.368C406.75 443.626 406.407 443.829 406.173 443.968C406.078 444.023 406.002 444.069 405.944 444.103L403.509 442.673Z" fill="#10305D" stroke="#244C85" stroke-width="0.509305"/>
<path d="M433.794 414.683C439.372 411.387 448.382 411.387 453.96 414.683L484.425 432.311C490.003 435.607 490.003 440.766 484.568 444.062L454.246 461.689C448.668 464.985 439.658 464.985 433.937 461.689L403.473 444.062C397.895 440.766 397.895 435.607 403.473 432.311L433.794 414.683ZM451.616 420.206C447.311 417.671 440.358 417.671 436.054 420.206L412.656 433.764C408.352 436.299 408.352 440.267 412.656 442.802L436.164 456.36C440.579 458.895 447.532 458.895 451.836 456.36L475.235 442.802C479.429 440.267 479.429 436.299 475.124 433.764L451.616 420.206Z" fill="#052046"/>
<path d="M433.766 414.615C439.359 411.31 448.395 411.31 453.988 414.615L484.536 432.291C490.129 435.596 490.128 440.769 484.678 444.074L454.274 461.75C448.681 465.055 439.645 465.055 433.909 461.75L403.362 444.074C397.769 440.769 397.769 435.596 403.362 432.291L433.766 414.615ZM451.637 420.156C447.321 417.614 440.349 417.614 436.033 420.156L412.57 433.751C408.254 436.293 408.254 440.272 412.57 442.814L436.143 456.409C440.57 458.951 447.542 458.951 451.858 456.409L475.32 442.814C479.525 440.272 479.526 436.293 475.21 433.751L451.637 420.156Z" fill="#052046"/>
<path d="M433.766 414.615C439.359 411.31 448.395 411.31 453.988 414.615L484.536 432.291C490.129 435.596 490.128 440.769 484.678 444.074L454.274 461.75C448.681 465.055 439.645 465.055 433.909 461.75L403.362 444.074C397.769 440.769 397.769 435.596 403.362 432.291L433.766 414.615ZM451.637 420.156C447.321 417.614 440.349 417.614 436.033 420.156L412.57 433.751C408.254 436.293 408.254 440.272 412.57 442.814L436.143 456.409C440.57 458.951 447.542 458.951 451.858 456.409L475.32 442.814C479.525 440.272 479.526 436.293 475.21 433.751L451.637 420.156Z" fill="url(#paint23_linear_3_1873)"/>
<path d="M443.805 412.18V412.898C447.534 412.898 450.976 413.76 453.557 415.197L484.105 432.873C486.543 434.31 487.977 436.178 487.977 438.19C487.977 440.202 486.686 442.07 484.105 443.363L453.844 461.182C451.263 462.763 447.821 463.481 444.092 463.481C440.363 463.481 436.921 462.619 434.339 461.182L403.792 443.507C401.354 442.07 399.919 440.202 399.919 438.19C399.919 436.178 401.21 434.31 403.792 432.873L434.196 415.197C436.777 413.617 440.219 412.898 443.948 412.898V412.18M443.805 412.18C440.076 412.18 436.491 413.042 433.622 414.623L403.361 432.298C397.768 435.603 397.768 440.776 403.361 444.082L433.909 461.757C436.777 463.338 440.363 464.2 444.092 464.2C447.821 464.2 451.406 463.338 454.274 461.757L484.679 444.082C490.272 440.776 490.272 435.603 484.535 432.298L453.987 414.623C451.263 413.042 447.534 412.18 443.805 412.18Z" fill="#244C85"/>
<path opacity="0.5" d="M477.457 357.051H443.268H410.715V437.985C410.715 439.662 411.781 441.338 413.913 442.568L436.623 456.319C440.781 458.89 447.604 458.89 451.763 456.319L474.365 442.568C476.391 441.338 477.457 439.662 477.457 437.985V357.051Z" fill="url(#paint24_linear_3_1873)"/>
<path d="M511.811 575.468C509.397 575.468 506.982 574.935 505.143 573.869L469.76 553.368C467.924 552.303 466.912 550.867 466.912 549.324C466.912 547.781 467.924 546.345 469.76 545.28L505.142 524.778C508.82 522.647 514.803 522.647 518.48 524.778L553.862 545.28C555.698 546.345 556.71 547.781 556.71 549.324C556.71 550.867 555.698 552.303 553.863 553.366L518.481 573.868C516.642 574.935 514.227 575.468 511.811 575.468ZM511.81 523.796C509.507 523.796 507.206 524.304 505.452 525.319L470.07 545.821C468.432 546.77 467.531 548.014 467.531 549.326C467.531 550.638 468.432 551.882 470.07 552.831L505.453 573.333C508.957 575.364 514.665 575.364 518.169 573.333L553.551 552.831C555.188 551.883 556.091 550.639 556.091 549.327C556.091 548.014 555.188 546.77 553.55 545.821L518.168 525.319C516.417 524.304 514.113 523.796 511.81 523.796Z" fill="#03FFCF"/>
<path d="M511.811 575.468C509.397 575.468 506.982 574.935 505.143 573.869L469.76 553.368C467.924 552.303 466.912 550.867 466.912 549.324C466.912 547.781 467.924 546.345 469.76 545.28L505.142 524.778C508.82 522.647 514.803 522.647 518.48 524.778L553.862 545.28C555.698 546.345 556.71 547.781 556.71 549.324C556.71 550.867 555.698 552.303 553.863 553.366L518.481 573.868C516.642 574.935 514.227 575.468 511.811 575.468ZM511.81 523.796C509.507 523.796 507.206 524.304 505.452 525.319L470.07 545.821C468.432 546.77 467.531 548.014 467.531 549.326C467.531 550.638 468.432 551.882 470.07 552.831L505.453 573.333C508.957 575.364 514.665 575.364 518.169 573.333L553.551 552.831C555.188 551.883 556.091 550.639 556.091 549.327C556.091 548.014 555.188 546.77 553.55 545.821L518.168 525.319C516.417 524.304 514.113 523.796 511.81 523.796Z" fill="url(#paint25_linear_3_1873)"/>
<path d="M556.453 519.728V526.734C556.453 528.768 555.097 530.853 552.42 532.406H552.419L522.015 550.082L522.014 550.083C519.266 551.707 515.621 552.526 511.961 552.526C508.302 552.526 504.656 551.707 501.908 550.083L501.906 550.081L471.358 532.406L471.354 532.403L470.842 532.106C468.371 530.59 467.183 528.639 467.183 526.734V519.728H556.453Z" fill="#10305D"/>
<path d="M556.453 519.728V526.734C556.453 528.768 555.097 530.853 552.42 532.406H552.419L522.015 550.082L522.014 550.083C519.266 551.707 515.621 552.526 511.961 552.526C508.302 552.526 504.656 551.707 501.908 550.083L501.906 550.081L471.358 532.406L471.354 532.403L470.842 532.106C468.371 530.59 467.183 528.639 467.183 526.734V519.728H556.453Z" fill="url(#paint26_linear_3_1873)"/>
<path d="M556.453 519.728V526.734C556.453 528.768 555.097 530.853 552.42 532.406H552.419L522.015 550.082L522.014 550.083C519.266 551.707 515.621 552.526 511.961 552.526C508.302 552.526 504.656 551.707 501.908 550.083L501.906 550.081L471.358 532.406L471.354 532.403L470.842 532.106C468.371 530.59 467.183 528.639 467.183 526.734V519.728H556.453Z" stroke="#244C85" stroke-width="0.509305"/>
<path d="M552.28 512.705C557.874 516.01 557.874 521.183 552.424 524.489L522.019 542.164C516.426 545.469 507.391 545.469 501.654 542.164L471.107 524.489C465.513 521.183 465.513 516.01 471.107 512.705L501.511 495.03C507.104 491.724 516.139 491.724 521.733 495.03L552.28 512.705Z" fill="#052046"/>
<g filter="url(#filter7_d_3_1873)">
<path d="M542.026 514.168C546.208 516.624 546.208 520.469 542.133 522.926L519.4 536.064C515.218 538.52 508.463 538.52 504.174 536.064L481.334 522.926C477.152 520.469 477.152 516.624 481.334 514.168L504.067 501.03C508.248 498.573 515.004 498.573 519.186 501.03L542.026 514.168Z" fill="#052046"/>
<path d="M511.626 502.583C513.911 502.583 516.016 503.106 517.466 503.958L517.493 503.974L540.306 517.094V517.095C541.029 517.52 541.416 517.915 541.604 518.183C541.779 518.431 541.78 518.558 541.78 518.575C541.78 518.59 541.783 518.711 541.618 518.953C541.442 519.211 541.078 519.595 540.391 520.011L517.701 533.124L517.691 533.13L517.681 533.136C516.231 533.987 514.127 534.511 511.827 534.511C509.675 534.511 507.651 534.052 506.153 533.276L505.861 533.117L483.054 519.998C482.33 519.573 481.945 519.179 481.76 518.915C481.588 518.67 481.593 518.553 481.593 518.547C481.593 518.542 481.587 518.425 481.76 518.179C481.922 517.948 482.237 517.617 482.798 517.253L483.054 517.095L505.766 503.97L505.775 503.964L505.786 503.958C507.236 503.106 509.341 502.583 511.626 502.583Z" stroke="#15D7AC" stroke-width="6.79074"/>
</g>
<path d="M511.55 492.582V493.301C515.279 493.301 518.721 494.163 521.302 495.6L551.85 513.275C554.288 514.712 555.722 516.58 555.722 518.592C555.722 520.604 554.432 522.472 551.85 523.765L521.589 541.585C519.008 543.165 515.566 543.884 511.837 543.884C508.108 543.884 504.666 543.022 502.085 541.585L471.537 523.909C469.099 522.472 467.665 520.604 467.665 518.592C467.665 516.58 468.955 514.712 471.537 513.275L501.941 495.6C504.523 494.019 507.965 493.301 511.693 493.301V492.582M511.55 492.582C507.821 492.582 504.236 493.444 501.367 495.025L471.107 512.7C465.513 516.006 465.513 521.179 471.107 524.484L501.654 542.159C504.523 543.74 508.108 544.602 511.837 544.602C515.566 544.602 519.151 543.74 522.019 542.159L552.424 524.484C558.017 521.179 558.017 516.006 552.28 512.7L521.733 495.025C519.008 493.444 515.279 492.582 511.55 492.582Z" fill="#244C85"/>
<path fill-rule="evenodd" clip-rule="evenodd" d="M467.034 485.418L511.932 467.039V544.046C508.284 544.026 504.647 543.2 501.884 541.568L471.337 523.892C468.468 522.312 467.034 520.156 467.034 518.001V485.418Z" fill="url(#paint27_linear_3_1873)" fill-opacity="0.46"/>
<path d="M522.25 541.568L552.654 523.892C555.379 522.312 556.813 520.156 556.813 518.001V485.418L511.932 467.039V544.046C515.67 544.067 519.419 543.24 522.25 541.568Z" fill="url(#paint28_linear_3_1873)" fill-opacity="0.46"/>
<path d="M511.866 506.485L511.98 506.543L512.094 506.485L556.453 484.112V494.156C556.453 496.19 555.097 498.275 552.42 499.828H552.419L522.015 517.504L522.014 517.505C519.266 519.129 515.621 519.948 511.961 519.948C508.302 519.948 504.656 519.129 501.908 517.505L501.906 517.504L471.358 499.828L471.354 499.825L470.842 499.528C468.371 498.012 467.183 496.061 467.183 494.156V484.111L511.866 506.485Z" fill="#10305D"/>
<path d="M511.866 506.485L511.98 506.543L512.094 506.485L556.453 484.112V494.156C556.453 496.19 555.097 498.275 552.42 499.828H552.419L522.015 517.504L522.014 517.505C519.266 519.129 515.621 519.948 511.961 519.948C508.302 519.948 504.656 519.129 501.908 517.505L501.906 517.504L471.358 499.828L471.354 499.825L470.842 499.528C468.371 498.012 467.183 496.061 467.183 494.156V484.111L511.866 506.485Z" fill="url(#paint29_linear_3_1873)"/>
<path d="M511.866 506.485L511.98 506.543L512.094 506.485L556.453 484.112V494.156C556.453 496.19 555.097 498.275 552.42 499.828H552.419L522.015 517.504L522.014 517.505C519.266 519.129 515.621 519.948 511.961 519.948C508.302 519.948 504.656 519.129 501.908 517.505L501.906 517.504L471.358 499.828L471.354 499.825L470.842 499.528C468.371 498.012 467.183 496.061 467.183 494.156V484.111L511.866 506.485Z" stroke="#244C85" stroke-width="0.509305"/>
<path d="M471.252 487.556L467.184 482.886C467.225 480.881 468.578 478.837 471.214 477.307H471.215L501.62 459.632L501.621 459.631C504.368 458.007 508.014 457.187 511.673 457.187C515.333 457.187 518.979 458.007 521.727 459.631L521.729 459.632L552.277 477.307L552.281 477.309L552.792 477.607C555.215 479.094 556.404 480.998 556.45 482.866L550.07 488.461C550.018 488.431 549.954 488.394 549.878 488.35C549.651 488.22 549.316 488.027 548.889 487.782C548.035 487.292 546.81 486.59 545.33 485.744C542.37 484.052 538.388 481.781 534.3 479.468C530.213 477.154 526.018 474.798 522.633 472.935C519.258 471.078 516.667 469.698 515.801 469.351C514.336 468.764 513.038 468.475 511.73 468.48C510.423 468.485 509.122 468.784 507.652 469.35C507.356 469.464 506.599 469.863 505.525 470.455C504.441 471.052 503.015 471.858 501.367 472.802C498.07 474.688 493.881 477.124 489.761 479.533C485.642 481.942 481.591 484.324 478.57 486.104C477.06 486.994 475.806 487.734 474.931 488.251C474.494 488.509 474.15 488.712 473.917 488.85C473.822 488.906 473.746 488.952 473.688 488.986L471.252 487.556Z" fill="#10305D" stroke="#244C85" stroke-width="0.509305"/>
<path d="M501.538 459.57C507.116 456.274 516.127 456.274 521.704 459.57L552.169 477.197C557.747 480.494 557.747 485.652 552.312 488.948L521.991 506.575C516.413 509.871 507.402 509.872 501.681 506.575L471.217 488.948C465.639 485.652 465.639 480.494 471.217 477.197L501.538 459.57ZM519.361 465.093C515.056 462.558 508.103 462.558 503.798 465.093L480.401 478.651C476.096 481.186 476.096 485.154 480.401 487.689L503.909 501.246C508.323 503.781 515.277 503.781 519.581 501.246L542.979 487.689C547.173 485.154 547.173 481.186 542.868 478.651L519.361 465.093Z" fill="#052046"/>
<path d="M501.511 459.514C507.105 456.209 516.14 456.209 521.733 459.514L552.281 477.189C557.874 480.494 557.874 485.668 552.424 488.973L522.02 506.648C516.427 509.953 507.392 509.953 501.655 506.648L471.107 488.973C465.514 485.668 465.514 480.494 471.107 477.189L501.511 459.514ZM519.382 465.055C515.066 462.513 508.094 462.513 503.778 465.055L480.316 478.649C476 481.191 476 485.171 480.316 487.713L503.888 501.307C508.315 503.849 515.288 503.849 519.604 501.307L543.066 487.713C547.271 485.171 547.272 481.191 542.956 478.649L519.382 465.055Z" fill="#052046"/>
<path d="M501.511 459.514C507.105 456.209 516.14 456.209 521.733 459.514L552.281 477.189C557.874 480.494 557.874 485.668 552.424 488.973L522.02 506.648C516.427 509.953 507.392 509.953 501.655 506.648L471.107 488.973C465.514 485.668 465.514 480.494 471.107 477.189L501.511 459.514ZM519.382 465.055C515.066 462.513 508.094 462.513 503.778 465.055L480.316 478.649C476 481.191 476 485.171 480.316 487.713L503.888 501.307C508.315 503.849 515.288 503.849 519.604 501.307L543.066 487.713C547.271 485.171 547.272 481.191 542.956 478.649L519.382 465.055Z" fill="url(#paint30_linear_3_1873)"/>
<path d="M511.551 457.07V457.789C515.279 457.789 518.721 458.651 521.303 460.088L551.851 477.763C554.289 479.201 555.723 481.069 555.723 483.08C555.723 485.092 554.432 486.96 551.851 488.254L521.59 506.073C519.008 507.654 515.566 508.372 511.837 508.372C508.108 508.372 504.667 507.51 502.085 506.073L471.537 488.397C469.099 486.96 467.665 485.092 467.665 483.08C467.665 481.069 468.956 479.201 471.537 477.763L501.942 460.088C504.523 458.507 507.965 457.789 511.694 457.789V457.07M511.551 457.07C507.822 457.07 504.236 457.933 501.368 459.513L471.107 477.189C465.514 480.494 465.514 485.667 471.107 488.972L501.655 506.648C504.523 508.228 508.108 509.091 511.837 509.091C515.566 509.091 519.152 508.228 522.02 506.648L552.424 488.972C558.017 485.667 558.017 480.494 552.281 477.189L521.733 459.513C519.008 457.933 515.279 457.07 511.551 457.07Z" fill="#244C85"/>
<path opacity="0.5" d="M546.883 401.852H510.951H476.738V482.91C476.738 484.589 477.859 486.268 480.1 487.5L503.967 501.272C508.337 503.847 515.508 503.847 519.878 501.272L543.633 487.5C545.762 486.268 546.883 484.589 546.883 482.91V401.852Z" fill="url(#paint31_linear_3_1873)"/>
<g filter="url(#filter8_f_3_1873)">
<path d="M334.798 456.589C332.384 456.589 329.968 456.056 328.13 454.99L292.747 434.489C290.91 433.424 289.898 431.988 289.898 430.445C289.898 428.902 290.91 427.466 292.747 426.401L328.129 405.899C331.807 403.768 337.789 403.768 341.466 405.899L376.848 426.401C378.685 427.466 379.697 428.902 379.697 430.445C379.697 431.988 378.685 433.424 376.85 434.488L341.467 454.989C339.629 456.056 337.214 456.589 334.798 456.589ZM334.797 404.917C332.494 404.917 330.193 405.425 328.439 406.44L293.057 426.942C291.419 427.891 290.518 429.135 290.518 430.447C290.518 431.759 291.419 433.003 293.057 433.952L328.44 454.454C331.944 456.485 337.652 456.485 341.156 454.454L376.538 433.952C378.175 433.004 379.077 431.76 379.077 430.448C379.077 429.135 378.175 427.891 376.537 426.942L341.155 406.44C339.403 405.425 337.1 404.917 334.797 404.917Z" fill="#03FFCF"/>
<path d="M334.798 456.589C332.384 456.589 329.968 456.056 328.13 454.99L292.747 434.489C290.91 433.424 289.898 431.988 289.898 430.445C289.898 428.902 290.91 427.466 292.747 426.401L328.129 405.899C331.807 403.768 337.789 403.768 341.466 405.899L376.848 426.401C378.685 427.466 379.697 428.902 379.697 430.445C379.697 431.988 378.685 433.424 376.85 434.488L341.467 454.989C339.629 456.056 337.214 456.589 334.798 456.589ZM334.797 404.917C332.494 404.917 330.193 405.425 328.439 406.44L293.057 426.942C291.419 427.891 290.518 429.135 290.518 430.447C290.518 431.759 291.419 433.003 293.057 433.952L328.44 454.454C331.944 456.485 337.652 456.485 341.156 454.454L376.538 433.952C378.175 433.004 379.077 431.76 379.077 430.448C379.077 429.135 378.175 427.891 376.537 426.942L341.155 406.44C339.403 405.425 337.1 404.917 334.797 404.917Z" fill="url(#paint32_linear_3_1873)"/>
</g>
<path d="M334.798 456.589C332.384 456.589 329.968 456.056 328.13 454.99L292.747 434.489C290.91 433.424 289.898 431.988 289.898 430.445C289.898 428.902 290.91 427.466 292.747 426.401L328.129 405.899C331.807 403.768 337.789 403.768 341.466 405.899L376.848 426.401C378.685 427.466 379.697 428.902 379.697 430.445C379.697 431.988 378.685 433.424 376.85 434.488L341.467 454.989C339.629 456.056 337.214 456.589 334.798 456.589ZM334.797 404.917C332.494 404.917 330.193 405.425 328.439 406.44L293.057 426.942C291.419 427.891 290.518 429.135 290.518 430.447C290.518 431.759 291.419 433.003 293.057 433.952L328.44 454.454C331.944 456.485 337.652 456.485 341.156 454.454L376.538 433.952C378.175 433.004 379.077 431.76 379.077 430.448C379.077 429.135 378.175 427.891 376.537 426.942L341.155 406.44C339.403 405.425 337.1 404.917 334.797 404.917Z" fill="#03FFCF"/>
<path d="M334.798 456.589C332.384 456.589 329.968 456.056 328.13 454.99L292.747 434.489C290.91 433.424 289.898 431.988 289.898 430.445C289.898 428.902 290.91 427.466 292.747 426.401L328.129 405.899C331.807 403.768 337.789 403.768 341.466 405.899L376.848 426.401C378.685 427.466 379.697 428.902 379.697 430.445C379.697 431.988 378.685 433.424 376.85 434.488L341.467 454.989C339.629 456.056 337.214 456.589 334.798 456.589ZM334.797 404.917C332.494 404.917 330.193 405.425 328.439 406.44L293.057 426.942C291.419 427.891 290.518 429.135 290.518 430.447C290.518 431.759 291.419 433.003 293.057 433.952L328.44 454.454C331.944 456.485 337.652 456.485 341.156 454.454L376.538 433.952C378.175 433.004 379.077 431.76 379.077 430.448C379.077 429.135 378.175 427.891 376.537 426.942L341.155 406.44C339.403 405.425 337.1 404.917 334.797 404.917Z" fill="url(#paint33_linear_3_1873)"/>
<path d="M375.172 404.178C380.862 407.534 380.862 412.786 375.318 416.142L344.387 434.088C338.696 437.444 329.504 437.444 323.668 434.088L292.591 416.142C286.901 412.786 286.901 407.534 292.591 404.178L323.522 386.232C329.213 382.876 338.405 382.876 344.095 386.232L375.172 404.178Z" fill="#BCD0F1"/>
<path d="M379.583 392.52V410.226C379.583 412.369 378.152 414.532 375.398 416.127L344.466 434.073H344.465C341.638 435.741 337.899 436.577 334.154 436.577C330.409 436.577 326.67 435.741 323.842 434.073H323.841L292.764 416.127L292.762 416.126C289.862 414.531 288.434 412.368 288.434 410.226V392.52H379.583Z" fill="#10305D"/>
<path d="M379.583 392.52V410.226C379.583 412.369 378.152 414.532 375.398 416.127L344.466 434.073H344.465C341.638 435.741 337.899 436.577 334.154 436.577C330.409 436.577 326.67 435.741 323.842 434.073H323.841L292.764 416.127L292.762 416.126C289.862 414.531 288.434 412.368 288.434 410.226V392.52H379.583Z" fill="url(#paint34_linear_3_1873)"/>
<path d="M379.583 392.52V410.226C379.583 412.369 378.152 414.532 375.398 416.127L344.466 434.073H344.465C341.638 435.741 337.899 436.577 334.154 436.577C330.409 436.577 326.67 435.741 323.842 434.073H323.841L292.764 416.127L292.762 416.126C289.862 414.531 288.434 412.368 288.434 410.226V392.52H379.583Z" stroke="#244C85" stroke-width="0.187198"/>
<path d="M375.172 386.373C380.862 389.729 380.862 394.981 375.318 398.337L344.387 416.283C338.696 419.639 329.504 419.639 323.668 416.283L292.591 398.337C286.901 394.981 286.901 389.729 292.591 386.373L323.522 368.427C329.213 365.071 338.405 365.071 344.095 368.427L375.172 386.373Z" fill="#052046"/>
<path d="M375.172 386.373C380.862 389.729 380.862 394.981 375.318 398.337L344.387 416.283C338.696 419.639 329.504 419.639 323.668 416.283L292.591 398.337C286.901 394.981 286.901 389.729 292.591 386.373L323.522 368.427C329.213 365.071 338.405 365.071 344.095 368.427L375.172 386.373Z" fill="url(#paint35_linear_3_1873)"/>
<path d="M333.736 365.945V366.675C337.529 366.675 341.031 367.55 343.657 369.009L374.734 386.955C377.215 388.414 378.674 390.311 378.674 392.354C378.674 394.396 377.361 396.293 374.734 397.606L343.949 415.698C341.323 417.303 337.821 418.033 334.027 418.033C330.234 418.033 326.732 417.157 324.106 415.698L293.029 397.752C290.548 396.293 289.089 394.396 289.089 392.354C289.089 390.311 290.402 388.414 293.029 386.955L323.96 369.009C326.586 367.404 330.088 366.675 333.882 366.675V365.945M333.736 365.945C329.942 365.945 326.295 366.821 323.376 368.426L292.591 386.372C286.901 389.728 286.901 394.98 292.591 398.336L323.668 416.282C326.586 417.887 330.234 418.762 334.027 418.762C337.821 418.762 341.468 417.887 344.387 416.282L375.318 398.336C381.008 394.98 381.008 389.728 375.172 386.372L344.095 368.426C341.323 366.821 337.529 365.945 333.736 365.945Z" fill="#244C85"/>
<path d="M297.72 410.953L298.76 410.358C298.908 410.21 299.057 409.913 299.057 409.615C299.057 408.873 298.463 407.981 297.868 407.535C297.571 407.387 297.274 407.387 296.977 407.387L295.824 408.187L297.72 410.953Z" fill="url(#paint36_linear_3_1873)"/>
<path d="M297.594 410.888C298.014 410.647 297.996 409.829 297.555 409.06C297.114 408.291 296.417 407.863 295.998 408.103C295.578 408.344 295.596 409.162 296.037 409.931C296.478 410.7 297.175 411.128 297.594 410.888Z" fill="#2185F8"/>
<path d="M297.304 410.384C297.583 410.223 297.582 409.697 297.302 409.208C297.021 408.718 296.567 408.452 296.287 408.612C296.008 408.772 296.009 409.299 296.289 409.788C296.57 410.278 297.024 410.544 297.304 410.384Z" fill="#0CFFFC"/>
<g filter="url(#filter9_f_3_1873)">
<path d="M589.945 547.434L623.484 565.938C628.834 568.89 628.93 576.547 623.655 579.632L542.693 626.973" stroke="black" stroke-width="1.96881"/>
<path d="M589.945 547.434L623.484 565.938C628.834 568.89 628.93 576.547 623.655 579.632L542.693 626.973" stroke="url(#paint37_linear_3_1873)" stroke-width="1.96881"/>
</g>
<path d="M589.945 547.434L626.518 567.612C630.531 569.826 630.603 575.569 626.646 577.882L542.693 626.973" stroke="black" stroke-width="1.96881"/>
<path d="M589.945 547.434L626.518 567.612C630.531 569.826 630.603 575.569 626.646 577.882L542.693 626.973" stroke="url(#paint38_linear_3_1873)" stroke-width="1.96881"/>
<g filter="url(#filter10_f_3_1873)">
<path d="M511.203 683.789C508.789 683.789 506.373 683.256 504.535 682.189L469.151 661.688C467.315 660.623 466.303 659.187 466.303 657.644C466.303 656.101 467.315 654.665 469.151 653.6L504.534 633.098C508.212 630.967 514.194 630.967 517.871 633.098L553.253 653.6C555.089 654.665 556.101 656.101 556.101 657.644C556.101 659.187 555.089 660.623 553.254 661.687L517.872 682.188C516.034 683.256 513.618 683.789 511.203 683.789ZM511.202 632.116C508.899 632.116 506.598 632.624 504.844 633.639L469.462 654.141C467.823 655.09 466.923 656.334 466.923 657.646C466.923 658.958 467.823 660.202 469.462 661.151L504.845 681.653C508.349 683.684 514.057 683.684 517.561 681.653L552.943 661.151C554.58 660.204 555.482 658.959 555.482 657.647C555.482 656.334 554.58 655.09 552.942 654.141L517.56 633.639C515.808 632.624 513.505 632.116 511.202 632.116Z" fill="#03FFCF"/>
<path d="M511.203 683.789C508.789 683.789 506.373 683.256 504.535 682.189L469.151 661.688C467.315 660.623 466.303 659.187 466.303 657.644C466.303 656.101 467.315 654.665 469.151 653.6L504.534 633.098C508.212 630.967 514.194 630.967 517.871 633.098L553.253 653.6C555.089 654.665 556.101 656.101 556.101 657.644C556.101 659.187 555.089 660.623 553.254 661.687L517.872 682.188C516.034 683.256 513.618 683.789 511.203 683.789ZM511.202 632.116C508.899 632.116 506.598 632.624 504.844 633.639L469.462 654.141C467.823 655.09 466.923 656.334 466.923 657.646C466.923 658.958 467.823 660.202 469.462 661.151L504.845 681.653C508.349 683.684 514.057 683.684 517.561 681.653L552.943 661.151C554.58 660.204 555.482 658.959 555.482 657.647C555.482 656.334 554.58 655.09 552.942 654.141L517.56 633.639C515.808 632.624 513.505 632.116 511.202 632.116Z" fill="url(#paint39_linear_3_1873)"/>
</g>
<path d="M511.203 683.789C508.789 683.789 506.373 683.256 504.535 682.189L469.151 661.688C467.315 660.623 466.303 659.187 466.303 657.644C466.303 656.101 467.315 654.665 469.151 653.6L504.534 633.098C508.212 630.967 514.194 630.967 517.871 633.098L553.253 653.6C555.089 654.665 556.101 656.101 556.101 657.644C556.101 659.187 555.089 660.623 553.254 661.687L517.872 682.188C516.034 683.256 513.618 683.789 511.203 683.789ZM511.202 632.116C508.899 632.116 506.598 632.624 504.844 633.639L469.462 654.141C467.823 655.09 466.923 656.334 466.923 657.646C466.923 658.958 467.823 660.202 469.462 661.151L504.845 681.653C508.349 683.684 514.057 683.684 517.561 681.653L552.943 661.151C554.58 660.204 555.482 658.959 555.482 657.647C555.482 656.334 554.58 655.09 552.942 654.141L517.56 633.639C515.808 632.624 513.505 632.116 511.202 632.116Z" fill="#03FFCF"/>
<path d="M511.203 683.789C508.789 683.789 506.373 683.256 504.535 682.189L469.151 661.688C467.315 660.623 466.303 659.187 466.303 657.644C466.303 656.101 467.315 654.665 469.151 653.6L504.534 633.098C508.212 630.967 514.194 630.967 517.871 633.098L553.253 653.6C555.089 654.665 556.101 656.101 556.101 657.644C556.101 659.187 555.089 660.623 553.254 661.687L517.872 682.188C516.034 683.256 513.618 683.789 511.203 683.789ZM511.202 632.116C508.899 632.116 506.598 632.624 504.844 633.639L469.462 654.141C467.823 655.09 466.923 656.334 466.923 657.646C466.923 658.958 467.823 660.202 469.462 661.151L504.845 681.653C508.349 683.684 514.057 683.684 517.561 681.653L552.943 661.151C554.58 660.204 555.482 658.959 555.482 657.647C555.482 656.334 554.58 655.09 552.942 654.141L517.56 633.639C515.808 632.624 513.505 632.116 511.202 632.116Z" fill="url(#paint40_linear_3_1873)"/>
<path d="M552.365 633.537C558.055 636.893 558.055 642.145 552.51 645.501L521.579 663.447C515.889 666.803 506.697 666.803 500.861 663.447L469.783 645.501C464.093 642.145 464.093 636.893 469.783 633.537L500.715 615.591C506.405 612.235 515.597 612.235 521.287 615.591L552.365 633.537Z" fill="#BCD0F1"/>
<path d="M556.775 621.887V639.593C556.775 641.736 555.345 643.899 552.59 645.494L521.659 663.44H521.658C518.83 665.108 515.091 665.944 511.346 665.944C507.601 665.944 503.862 665.108 501.035 663.44H501.034L469.957 645.494L469.955 645.493C467.055 643.898 465.626 641.736 465.626 639.593V621.887H556.775Z" fill="#10305D"/>
<path d="M556.775 621.887V639.593C556.775 641.736 555.345 643.899 552.59 645.494L521.659 663.44H521.658C518.83 665.108 515.091 665.944 511.346 665.944C507.601 665.944 503.862 665.108 501.035 663.44H501.034L469.957 645.494L469.955 645.493C467.055 643.898 465.626 641.736 465.626 639.593V621.887H556.775Z" fill="url(#paint41_linear_3_1873)"/>
<path d="M556.775 621.887V639.593C556.775 641.736 555.345 643.899 552.59 645.494L521.659 663.44H521.658C518.83 665.108 515.091 665.944 511.346 665.944C507.601 665.944 503.862 665.108 501.035 663.44H501.034L469.957 645.494L469.955 645.493C467.055 643.898 465.626 641.736 465.626 639.593V621.887H556.775Z" stroke="#244C85" stroke-width="0.187198"/>
<path d="M552.365 615.74C558.055 619.096 558.055 624.349 552.51 627.704L521.579 645.65C515.889 649.006 506.697 649.006 500.861 645.65L469.783 627.704C464.093 624.349 464.093 619.096 469.783 615.74L500.715 597.794C506.405 594.438 515.597 594.438 521.287 597.794L552.365 615.74Z" fill="url(#paint42_linear_3_1873)"/>
<path d="M510.928 595.316V596.046C514.722 596.046 518.223 596.921 520.849 598.38L551.927 616.326C554.407 617.786 555.866 619.682 555.866 621.725C555.866 623.768 554.553 625.664 551.927 626.977L521.141 645.069C518.515 646.674 515.013 647.404 511.22 647.404C507.426 647.404 503.925 646.528 501.298 645.069L470.221 627.123C467.741 625.664 466.282 623.768 466.282 621.725C466.282 619.682 467.595 617.786 470.221 616.326L501.152 598.38C503.779 596.775 507.28 596.046 511.074 596.046V595.316M510.928 595.316C507.135 595.316 503.487 596.192 500.569 597.797L469.783 615.743C464.093 619.099 464.093 624.351 469.783 627.707L500.861 645.653C503.779 647.258 507.426 648.133 511.22 648.133C515.013 648.133 518.661 647.258 521.579 645.653L552.51 627.707C558.201 624.351 558.201 619.099 552.365 615.743L521.287 597.797C518.515 596.192 514.722 595.316 510.928 595.316Z" fill="#244C85"/>
<path d="M474.911 640.324L475.951 639.729C476.1 639.581 476.248 639.284 476.248 638.987C476.248 638.244 475.654 637.352 475.06 636.906C474.763 636.758 474.465 636.758 474.168 636.758L473.016 637.559L474.911 640.324Z" fill="url(#paint43_linear_3_1873)"/>
<path d="M474.786 640.259C475.205 640.018 475.188 639.2 474.747 638.431C474.306 637.662 473.608 637.234 473.189 637.475C472.77 637.715 472.787 638.533 473.228 639.302C473.669 640.071 474.367 640.499 474.786 640.259Z" fill="#2185F8"/>
<path d="M474.495 639.755C474.775 639.595 474.774 639.068 474.493 638.579C474.213 638.089 473.758 637.823 473.479 637.983C473.199 638.143 473.2 638.67 473.481 639.159C473.761 639.649 474.216 639.915 474.495 639.755Z" fill="#0CFFFC"/>
<g filter="url(#filter11_f_3_1873)">
<path d="M398.576 529.32L357.055 553.66C354.505 555.155 351.332 555.095 348.839 553.506L300.803 522.883C295.828 519.712 295.978 512.398 301.079 509.434L371.819 468.319C376.68 465.495 377.1 458.634 372.622 455.237L359.2 445.055" stroke="black" stroke-width="1.96881"/>
<path d="M398.576 529.32L357.055 553.66C354.505 555.155 351.332 555.095 348.839 553.506L300.803 522.883C295.828 519.712 295.978 512.398 301.079 509.434L371.819 468.319C376.68 465.495 377.1 458.634 372.622 455.237L359.2 445.055" stroke="url(#paint44_linear_3_1873)" stroke-width="1.96881"/>
</g>
<path d="M398.576 529.32L359.133 552.442C355.307 554.684 350.548 554.596 346.809 552.212L298.077 521.145C294.346 518.767 294.458 513.282 298.284 511.058L374.374 466.835C378.019 464.716 378.335 459.571 374.976 457.022L359.2 445.055" stroke="black" stroke-width="1.96881"/>
<path d="M398.576 529.32L359.133 552.442C355.307 554.684 350.548 554.596 346.809 552.212L298.077 521.145C294.346 518.767 294.458 513.282 298.284 511.058L374.374 466.835C378.019 464.716 378.335 459.571 374.976 457.022L359.2 445.055" stroke="url(#paint45_linear_3_1873)" stroke-width="1.96881"/>
<path opacity="0.5" d="M253.628 556.47L221.565 537.922C219.256 536.587 219.546 534.255 222.212 532.713C224.876 531.171 228.908 531.004 231.215 532.339L263.278 550.887C265.587 552.222 265.297 554.554 262.632 556.096C259.967 557.637 255.935 557.805 253.628 556.47Z" fill="#07152C"/>
<g filter="url(#filter12_f_3_1873)">
<path d="M224.277 529.819C226.12 529.743 227.87 530.077 229.112 530.796L266.568 552.481C267.799 553.194 268.234 554.098 268.128 554.949C268.017 555.838 267.3 556.859 265.813 557.72C264.338 558.574 262.462 559.056 260.624 559.133C258.781 559.209 257.031 558.875 255.789 558.156L218.333 536.471C217.102 535.758 216.668 534.855 216.773 534.004C216.884 533.115 217.602 532.094 219.088 531.233C220.564 530.379 222.439 529.896 224.277 529.819Z" stroke="url(#paint46_linear_3_1873)" stroke-width="0.984403"/>
</g>
<g filter="url(#filter13_f_3_1873)">
<path d="M324.55 537.977L255.49 578.834C251.71 581.071 247.001 581.025 243.265 578.716L222.418 565.833C218.685 563.526 218.682 558.098 222.412 555.788L236.544 547.033" stroke="black" stroke-width="1.96881"/>
<path d="M324.55 537.977L255.49 578.834C251.71 581.071 247.001 581.025 243.265 578.716L222.418 565.833C218.685 563.526 218.682 558.098 222.412 555.788L236.544 547.033" stroke="url(#paint47_linear_3_1873)" stroke-width="1.96881"/>
</g>
<path d="M324.55 537.977L255.49 578.834C251.71 581.071 247.001 581.025 243.265 578.716L222.418 565.833C218.685 563.526 218.682 558.098 222.412 555.788L236.544 547.033" stroke="black" stroke-width="1.96881"/>
<path d="M324.55 537.977L255.49 578.834C251.71 581.071 247.001 581.025 243.265 578.716L222.418 565.833C218.685 563.526 218.682 558.098 222.412 555.788L236.544 547.033" stroke="url(#paint48_linear_3_1873)" stroke-width="1.96881"/>
<path d="M224.277 529.819C226.12 529.743 227.87 530.077 229.112 530.796L266.568 552.481C267.799 553.194 268.234 554.098 268.128 554.949C268.017 555.838 267.3 556.859 265.813 557.72C264.338 558.574 262.462 559.056 260.624 559.133C258.781 559.209 257.031 558.875 255.789 558.156L218.333 536.471C217.102 535.758 216.668 534.855 216.773 534.004C216.884 533.115 217.602 532.094 219.088 531.233C220.564 530.379 222.439 529.896 224.277 529.819Z" stroke="url(#paint49_linear_3_1873)" stroke-width="0.984403"/>
<path d="M220.011 487.027V525.692L220.013 525.694C220.023 526.531 220.532 527.331 221.567 527.929L253.63 546.477C255.937 547.812 259.969 547.645 262.634 546.103C264.128 545.239 264.875 544.126 264.835 543.08V504.405L220.011 487.027Z" fill="url(#paint50_linear_3_1873)"/>
<path opacity="0.3" d="M256.033 547.256C258.191 547.585 260.749 547.198 262.632 546.108C264.126 545.243 264.873 544.13 264.833 543.084V504.409L256.19 501.059H256.032V547.256H256.033Z" fill="#1F1E40"/>
<path d="M253.628 507.818L221.565 489.269C219.256 487.934 219.546 485.602 222.212 484.06C224.876 482.519 228.908 482.351 231.215 483.686L263.278 502.235C265.587 503.57 265.297 505.901 262.632 507.444C259.967 508.985 255.935 509.153 253.628 507.818Z" fill="url(#paint51_linear_3_1873)"/>
<path d="M256.831 505.327C255.301 505.327 254.06 504.084 254.06 502.55V485.371C254.06 479.512 249.782 472.088 244.717 469.158L237.359 464.902C235.416 463.777 233.66 463.503 232.544 464.149C231.428 464.795 230.788 466.454 230.788 468.704V485.882C230.788 487.416 229.547 488.659 228.016 488.659C226.485 488.659 225.245 487.416 225.245 485.882V468.702C225.245 464.353 226.853 461.029 229.773 459.34C232.693 457.651 236.371 457.918 240.129 460.093L247.487 464.349C254.279 468.278 259.6 477.512 259.6 485.371V502.55C259.602 504.084 258.362 505.327 256.831 505.327Z" fill="url(#paint52_linear_3_1873)"/>
<defs>
<filter id="filter0_f_3_1873" x="0.611866" y="0.694874" width="955.265" height="955.264" filterUnits="userSpaceOnUse" color-interpolation-filters="sRGB">
<feFlood flood-opacity="0" result="BackgroundImageFix"/>
<feBlend mode="normal" in="SourceGraphic" in2="BackgroundImageFix" result="shape"/>
<feGaussianBlur stdDeviation="21.8537" result="effect1_foregroundBlur_3_1873"/>
</filter>
<filter id="filter1_f_3_1873" x="416.03" y="393.078" width="312.646" height="312.646" filterUnits="userSpaceOnUse" color-interpolation-filters="sRGB">
<feFlood flood-opacity="0" result="BackgroundImageFix"/>
<feBlend mode="normal" in="SourceGraphic" in2="BackgroundImageFix" result="shape"/>
<feGaussianBlur stdDeviation="21.8537" result="effect1_foregroundBlur_3_1873"/>
</filter>
<filter id="filter2_f_3_1873" x="86.0582" y="346.812" width="312.646" height="312.646" filterUnits="userSpaceOnUse" color-interpolation-filters="sRGB">
<feFlood flood-opacity="0" result="BackgroundImageFix"/>
<feBlend mode="normal" in="SourceGraphic" in2="BackgroundImageFix" result="shape"/>
<feGaussianBlur stdDeviation="21.8537" result="effect1_foregroundBlur_3_1873"/>
</filter>
<filter id="filter3_f_3_1873" x="362.37" y="415.146" width="297.229" height="178.65" filterUnits="userSpaceOnUse" color-interpolation-filters="sRGB">
<feFlood flood-opacity="0" result="BackgroundImageFix"/>
<feBlend mode="normal" in="SourceGraphic" in2="BackgroundImageFix" result="shape"/>
<feGaussianBlur stdDeviation="3.33712" result="effect1_foregroundBlur_3_1873"/>
</filter>
<filter id="filter4_d_3_1873" x="461.526" y="402.644" width="100.321" height="72.0612" filterUnits="userSpaceOnUse" color-interpolation-filters="sRGB">
<feFlood flood-opacity="0" result="BackgroundImageFix"/>
<feColorMatrix in="SourceAlpha" type="matrix" values="0 0 0 0 0 0 0 0 0 0 0 0 0 0 0 0 0 0 127 0" result="hardAlpha"/>
<feOffset dy="1.35815"/>
<feGaussianBlur stdDeviation="8.33563"/>
<feComposite in2="hardAlpha" operator="out"/>
<feColorMatrix type="matrix" values="0 0 0 0 0.0117647 0 0 0 0 1 0 0 0 0 0.811765 0 0 0 0.39 0"/>
<feBlend mode="normal" in2="BackgroundImageFix" result="effect1_dropShadow_3_1873"/>
<feBlend mode="normal" in="SourceGraphic" in2="effect1_dropShadow_3_1873" result="shape"/>
</filter>
<filter id="filter5_d_3_1873" x="529.271" y="438.992" width="100.321" height="72.0612" filterUnits="userSpaceOnUse" color-interpolation-filters="sRGB">
<feFlood flood-opacity="0" result="BackgroundImageFix"/>
<feColorMatrix in="SourceAlpha" type="matrix" values="0 0 0 0 0 0 0 0 0 0 0 0 0 0 0 0 0 0 127 0" result="hardAlpha"/>
<feOffset dy="1.35815"/>
<feGaussianBlur stdDeviation="8.33563"/>
<feComposite in2="hardAlpha" operator="out"/>
<feColorMatrix type="matrix" values="0 0 0 0 0.0117647 0 0 0 0 1 0 0 0 0 0.811765 0 0 0 0.39 0"/>
<feBlend mode="normal" in2="BackgroundImageFix" result="effect1_dropShadow_3_1873"/>
<feBlend mode="normal" in="SourceGraphic" in2="effect1_dropShadow_3_1873" result="shape"/>
</filter>
<filter id="filter6_d_3_1873" x="393.781" y="438.992" width="100.321" height="72.0612" filterUnits="userSpaceOnUse" color-interpolation-filters="sRGB">
<feFlood flood-opacity="0" result="BackgroundImageFix"/>
<feColorMatrix in="SourceAlpha" type="matrix" values="0 0 0 0 0 0 0 0 0 0 0 0 0 0 0 0 0 0 127 0" result="hardAlpha"/>
<feOffset dy="1.35815"/>
<feGaussianBlur stdDeviation="8.33563"/>
<feComposite in2="hardAlpha" operator="out"/>
<feColorMatrix type="matrix" values="0 0 0 0 0.0117647 0 0 0 0 1 0 0 0 0 0.811765 0 0 0 0.39 0"/>
<feBlend mode="normal" in2="BackgroundImageFix" result="effect1_dropShadow_3_1873"/>
<feBlend mode="normal" in="SourceGraphic" in2="effect1_dropShadow_3_1873" result="shape"/>
</filter>
<filter id="filter7_d_3_1873" x="461.526" y="483.874" width="100.321" height="72.0612" filterUnits="userSpaceOnUse" color-interpolation-filters="sRGB">
<feFlood flood-opacity="0" result="BackgroundImageFix"/>
<feColorMatrix in="SourceAlpha" type="matrix" values="0 0 0 0 0 0 0 0 0 0 0 0 0 0 0 0 0 0 127 0" result="hardAlpha"/>
<feOffset dy="1.35815"/>
<feGaussianBlur stdDeviation="8.33563"/>
<feComposite in2="hardAlpha" operator="out"/>
<feColorMatrix type="matrix" values="0 0 0 0 0.0117647 0 0 0 0 1 0 0 0 0 0.811765 0 0 0 0.39 0"/>
<feBlend mode="normal" in2="BackgroundImageFix" result="effect1_dropShadow_3_1873"/>
<feBlend mode="normal" in="SourceGraphic" in2="effect1_dropShadow_3_1873" result="shape"/>
</filter>
<filter id="filter8_f_3_1873" x="284.012" y="398.414" width="101.572" height="64.0622" filterUnits="userSpaceOnUse" color-interpolation-filters="sRGB">
<feFlood flood-opacity="0" result="BackgroundImageFix"/>
<feBlend mode="normal" in="SourceGraphic" in2="BackgroundImageFix" result="shape"/>
<feGaussianBlur stdDeviation="2.94336" result="effect1_foregroundBlur_3_1873"/>
</filter>
<filter id="filter9_f_3_1873" x="536.073" y="540.449" width="98.5887" height="93.4974" filterUnits="userSpaceOnUse" color-interpolation-filters="sRGB">
<feFlood flood-opacity="0" result="BackgroundImageFix"/>
<feBlend mode="normal" in="SourceGraphic" in2="BackgroundImageFix" result="shape"/>
<feGaussianBlur stdDeviation="3.06149" result="effect1_foregroundBlur_3_1873"/>
</filter>
<filter id="filter10_f_3_1873" x="459.747" y="624.944" width="102.911" height="65.4009" filterUnits="userSpaceOnUse" color-interpolation-filters="sRGB">
<feFlood flood-opacity="0" result="BackgroundImageFix"/>
<feBlend mode="normal" in="SourceGraphic" in2="BackgroundImageFix" result="shape"/>
<feGaussianBlur stdDeviation="3.27806" result="effect1_foregroundBlur_3_1873"/>
</filter>
<filter id="filter11_f_3_1873" x="289.226" y="437.321" width="116.798" height="125.355" filterUnits="userSpaceOnUse" color-interpolation-filters="sRGB">
<feFlood flood-opacity="0" result="BackgroundImageFix"/>
<feBlend mode="normal" in="SourceGraphic" in2="BackgroundImageFix" result="shape"/>
<feGaussianBlur stdDeviation="3.47494" result="effect1_foregroundBlur_3_1873"/>
</filter>
<filter id="filter12_f_3_1873" x="209.769" y="522.819" width="65.3642" height="43.3137" filterUnits="userSpaceOnUse" color-interpolation-filters="sRGB">
<feFlood flood-opacity="0" result="BackgroundImageFix"/>
<feBlend mode="normal" in="SourceGraphic" in2="BackgroundImageFix" result="shape"/>
<feGaussianBlur stdDeviation="3.24853" result="effect1_foregroundBlur_3_1873"/>
</filter>
<filter id="filter13_f_3_1873" x="212.135" y="530.632" width="119.414" height="57.3294" filterUnits="userSpaceOnUse" color-interpolation-filters="sRGB">
<feFlood flood-opacity="0" result="BackgroundImageFix"/>
<feBlend mode="normal" in="SourceGraphic" in2="BackgroundImageFix" result="shape"/>
<feGaussianBlur stdDeviation="3.24853" result="effect1_foregroundBlur_3_1873"/>
</filter>
<radialGradient id="paint0_radial_3_1873" cx="0" cy="0" r="1" gradientUnits="userSpaceOnUse" gradientTransform="translate(433.925 433.925) rotate(90) scale(433.925)">
<stop stop-color="#0439C7"/>
<stop offset="1" stop-color="#02122B" stop-opacity="0"/>
</radialGradient>
<radialGradient id="paint1_radial_3_1873" cx="0" cy="0" r="1" gradientUnits="userSpaceOnUse" gradientTransform="translate(112.616 112.616) rotate(90) scale(112.616)">
<stop stop-color="#0439C7"/>
<stop offset="1" stop-color="#02122B" stop-opacity="0"/>
</radialGradient>
<radialGradient id="paint2_radial_3_1873" cx="0" cy="0" r="1" gradientUnits="userSpaceOnUse" gradientTransform="translate(112.616 112.616) rotate(90) scale(112.616)">
<stop stop-color="#0439C7"/>
<stop offset="1" stop-color="#02122B" stop-opacity="0"/>
</radialGradient>
<radialGradient id="paint3_radial_3_1873" cx="0" cy="0" r="1" gradientUnits="userSpaceOnUse" gradientTransform="translate(449.569 548.415) rotate(90) scale(221.687 253.412)">
<stop stop-color="#4C78B7"/>
<stop offset="1" stop-color="white" stop-opacity="0"/>
</radialGradient>
<linearGradient id="paint4_linear_3_1873" x1="648.281" y1="253.556" x2="380.273" y2="481.152" gradientUnits="userSpaceOnUse">
<stop stop-color="#0E284D"/>
<stop offset="0.333333" stop-color="#294772"/>
<stop offset="0.666667" stop-color="#377CDD"/>
<stop offset="1" stop-color="#34E6BF"/>
</linearGradient>
<linearGradient id="paint5_linear_3_1873" x1="648.281" y1="253.556" x2="380.273" y2="481.152" gradientUnits="userSpaceOnUse">
<stop stop-color="#0E284D"/>
<stop offset="0.333333" stop-color="#294772"/>
<stop offset="0.666667" stop-color="#377CDD"/>
<stop offset="1" stop-color="#34E6BF"/>
</linearGradient>
<linearGradient id="paint6_linear_3_1873" x1="478.811" y1="413.037" x2="512.015" y2="462.755" gradientUnits="userSpaceOnUse">
<stop stop-color="#03FFCF"/>
<stop offset="1" stop-color="#2CFFFC"/>
</linearGradient>
<linearGradient id="paint7_linear_3_1873" x1="513.895" y1="397.917" x2="555.427" y2="423.432" gradientUnits="userSpaceOnUse">
<stop stop-color="#02E6BA"/>
<stop offset="1" stop-color="#2CFFFC"/>
</linearGradient>
<linearGradient id="paint8_linear_3_1873" x1="555.232" y1="351.028" x2="458.06" y2="434.052" gradientUnits="userSpaceOnUse">
<stop stop-color="#0E284D"/>
<stop offset="0.333333" stop-color="#294772"/>
<stop offset="0.666667" stop-color="#377CDD"/>
<stop offset="1" stop-color="#34E6BF"/>
</linearGradient>
<linearGradient id="paint9_linear_3_1873" x1="641.069" y1="321.712" x2="442.756" y2="365.121" gradientUnits="userSpaceOnUse">
<stop stop-color="#0E284D"/>
<stop offset="0.333333" stop-color="#294772"/>
<stop offset="0.666667" stop-color="#377CDD"/>
<stop offset="0.890329" stop-color="#34E6BF"/>
</linearGradient>
<linearGradient id="paint10_linear_3_1873" x1="511.81" y1="421.973" x2="511.81" y2="320.621" gradientUnits="userSpaceOnUse">
<stop stop-color="#03FFCF"/>
<stop offset="0.26" stop-color="#235F87"/>
<stop offset="0.4587" stop-color="#1C3F72"/>
<stop offset="0.715" stop-color="#162561" stop-opacity="0"/>
<stop offset="1" stop-color="#02122A" stop-opacity="0"/>
</linearGradient>
<linearGradient id="paint11_linear_3_1873" x1="622.985" y1="425.067" x2="538.208" y2="497.061" gradientUnits="userSpaceOnUse">
<stop stop-color="#0E284D"/>
<stop offset="0.333333" stop-color="#294772"/>
<stop offset="0.666667" stop-color="#377CDD"/>
<stop offset="1" stop-color="#34E6BF"/>
</linearGradient>
<linearGradient id="paint12_linear_3_1873" x1="622.976" y1="440.679" x2="548.247" y2="524.214" gradientUnits="userSpaceOnUse">
<stop stop-color="#0E284D"/>
<stop offset="0.333333" stop-color="#294772"/>
<stop offset="0.666667" stop-color="#377CDD"/>
<stop offset="1" stop-color="#34E6BF"/>
</linearGradient>
<linearGradient id="paint13_linear_3_1873" x1="546.555" y1="449.385" x2="579.76" y2="499.103" gradientUnits="userSpaceOnUse">
<stop stop-color="#03FFCF"/>
<stop offset="1" stop-color="#2CFFFC"/>
</linearGradient>
<linearGradient id="paint14_linear_3_1873" x1="581.639" y1="434.265" x2="623.172" y2="459.779" gradientUnits="userSpaceOnUse">
<stop stop-color="#02E6BA"/>
<stop offset="1" stop-color="#2CFFFC"/>
</linearGradient>
<linearGradient id="paint15_linear_3_1873" x1="622.976" y1="387.376" x2="525.805" y2="470.4" gradientUnits="userSpaceOnUse">
<stop stop-color="#0E284D"/>
<stop offset="0.333333" stop-color="#294772"/>
<stop offset="0.666667" stop-color="#377CDD"/>
<stop offset="1" stop-color="#34E6BF"/>
</linearGradient>
<linearGradient id="paint16_linear_3_1873" x1="708.812" y1="358.048" x2="510.499" y2="401.457" gradientUnits="userSpaceOnUse">
<stop stop-color="#0E284D"/>
<stop offset="0.333333" stop-color="#294772"/>
<stop offset="0.666667" stop-color="#377CDD"/>
<stop offset="0.890329" stop-color="#34E6BF"/>
</linearGradient>
<linearGradient id="paint17_linear_3_1873" x1="579.54" y1="458.248" x2="579.54" y2="357.051" gradientUnits="userSpaceOnUse">
<stop stop-color="#03FFCF"/>
<stop offset="0.26" stop-color="#235F87"/>
<stop offset="0.4587" stop-color="#1C3F72"/>
<stop offset="0.715" stop-color="#162561" stop-opacity="0"/>
<stop offset="1" stop-color="#02122A" stop-opacity="0"/>
</linearGradient>
<linearGradient id="paint18_linear_3_1873" x1="487.497" y1="425.067" x2="402.719" y2="497.061" gradientUnits="userSpaceOnUse">
<stop stop-color="#0E284D"/>
<stop offset="0.333333" stop-color="#294772"/>
<stop offset="0.666667" stop-color="#377CDD"/>
<stop offset="1" stop-color="#34E6BF"/>
</linearGradient>
<linearGradient id="paint19_linear_3_1873" x1="487.487" y1="440.679" x2="412.758" y2="524.214" gradientUnits="userSpaceOnUse">
<stop stop-color="#0E284D"/>
<stop offset="0.333333" stop-color="#294772"/>
<stop offset="0.666667" stop-color="#377CDD"/>
<stop offset="1" stop-color="#34E6BF"/>
</linearGradient>
<linearGradient id="paint20_linear_3_1873" x1="411.066" y1="449.385" x2="444.271" y2="499.103" gradientUnits="userSpaceOnUse">
<stop stop-color="#03FFCF"/>
<stop offset="1" stop-color="#2CFFFC"/>
</linearGradient>
<linearGradient id="paint21_linear_3_1873" x1="446.151" y1="434.265" x2="487.683" y2="459.779" gradientUnits="userSpaceOnUse">
<stop stop-color="#02E6BA"/>
<stop offset="1" stop-color="#2CFFFC"/>
</linearGradient>
<linearGradient id="paint22_linear_3_1873" x1="487.487" y1="387.376" x2="390.315" y2="470.4" gradientUnits="userSpaceOnUse">
<stop stop-color="#0E284D"/>
<stop offset="0.333333" stop-color="#294772"/>
<stop offset="0.666667" stop-color="#377CDD"/>
<stop offset="1" stop-color="#34E6BF"/>
</linearGradient>
<linearGradient id="paint23_linear_3_1873" x1="573.322" y1="358.046" x2="375.01" y2="401.455" gradientUnits="userSpaceOnUse">
<stop stop-color="#0E284D"/>
<stop offset="0.333333" stop-color="#294772"/>
<stop offset="0.666667" stop-color="#377CDD"/>
<stop offset="0.890329" stop-color="#34E6BF"/>
</linearGradient>
<linearGradient id="paint24_linear_3_1873" x1="444.086" y1="458.248" x2="444.086" y2="357.051" gradientUnits="userSpaceOnUse">
<stop stop-color="#03FFCF"/>
<stop offset="0.26" stop-color="#235F87"/>
<stop offset="0.4587" stop-color="#1C3F72"/>
<stop offset="0.715" stop-color="#162561" stop-opacity="0"/>
<stop offset="1" stop-color="#02122A" stop-opacity="0"/>
</linearGradient>
<linearGradient id="paint25_linear_3_1873" x1="555.241" y1="469.954" x2="470.463" y2="541.948" gradientUnits="userSpaceOnUse">
<stop stop-color="#0E284D"/>
<stop offset="0.333333" stop-color="#294772"/>
<stop offset="0.666667" stop-color="#377CDD"/>
<stop offset="1" stop-color="#34E6BF"/>
</linearGradient>
<linearGradient id="paint26_linear_3_1873" x1="555.232" y1="485.562" x2="480.503" y2="569.097" gradientUnits="userSpaceOnUse">
<stop stop-color="#0E284D"/>
<stop offset="0.333333" stop-color="#294772"/>
<stop offset="0.666667" stop-color="#377CDD"/>
<stop offset="1" stop-color="#34E6BF"/>
</linearGradient>
<linearGradient id="paint27_linear_3_1873" x1="478.811" y1="494.268" x2="512.015" y2="543.986" gradientUnits="userSpaceOnUse">
<stop stop-color="#03FFCF"/>
<stop offset="1" stop-color="#2CFFFC"/>
</linearGradient>
<linearGradient id="paint28_linear_3_1873" x1="513.895" y1="479.148" x2="555.427" y2="504.662" gradientUnits="userSpaceOnUse">
<stop stop-color="#02E6BA"/>
<stop offset="1" stop-color="#2CFFFC"/>
</linearGradient>
<linearGradient id="paint29_linear_3_1873" x1="555.232" y1="432.259" x2="458.06" y2="515.282" gradientUnits="userSpaceOnUse">
<stop stop-color="#0E284D"/>
<stop offset="0.333333" stop-color="#294772"/>
<stop offset="0.666667" stop-color="#377CDD"/>
<stop offset="1" stop-color="#34E6BF"/>
</linearGradient>
<linearGradient id="paint30_linear_3_1873" x1="641.069" y1="402.946" x2="442.756" y2="446.356" gradientUnits="userSpaceOnUse">
<stop stop-color="#0E284D"/>
<stop offset="0.333333" stop-color="#294772"/>
<stop offset="0.666667" stop-color="#377CDD"/>
<stop offset="0.890329" stop-color="#34E6BF"/>
</linearGradient>
<linearGradient id="paint31_linear_3_1873" x1="511.81" y1="503.204" x2="511.81" y2="401.852" gradientUnits="userSpaceOnUse">
<stop stop-color="#03FFCF"/>
<stop offset="0.26" stop-color="#235F87"/>
<stop offset="0.4587" stop-color="#1C3F72"/>
<stop offset="0.715" stop-color="#162561" stop-opacity="0"/>
<stop offset="1" stop-color="#02122A" stop-opacity="0"/>
</linearGradient>
<linearGradient id="paint32_linear_3_1873" x1="378.227" y1="351.075" x2="293.45" y2="423.069" gradientUnits="userSpaceOnUse">
<stop stop-color="#0E284D"/>
<stop offset="0.333333" stop-color="#294772"/>
<stop offset="0.666667" stop-color="#377CDD"/>
<stop offset="1" stop-color="#34E6BF"/>
</linearGradient>
<linearGradient id="paint33_linear_3_1873" x1="378.227" y1="351.075" x2="293.45" y2="423.069" gradientUnits="userSpaceOnUse">
<stop stop-color="#0E284D"/>
<stop offset="0.333333" stop-color="#294772"/>
<stop offset="0.666667" stop-color="#377CDD"/>
<stop offset="1" stop-color="#34E6BF"/>
</linearGradient>
<linearGradient id="paint34_linear_3_1873" x1="378.172" y1="347.373" x2="263.614" y2="424.448" gradientUnits="userSpaceOnUse">
<stop stop-color="#0E284D"/>
<stop offset="0.333333" stop-color="#294772"/>
<stop offset="0.666667" stop-color="#377CDD"/>
<stop offset="1" stop-color="#34E6BF"/>
</linearGradient>
<linearGradient id="paint35_linear_3_1873" x1="377.967" y1="312.072" x2="292.169" y2="385.177" gradientUnits="userSpaceOnUse">
<stop stop-color="#0E284D"/>
<stop offset="0.333333" stop-color="#294772"/>
<stop offset="0.666667" stop-color="#377CDD"/>
<stop offset="1" stop-color="#34E6BF"/>
</linearGradient>
<linearGradient id="paint36_linear_3_1873" x1="298.636" y1="410.382" x2="296.986" y2="407.526" gradientUnits="userSpaceOnUse">
<stop stop-color="#103DB5"/>
<stop offset="0.6426" stop-color="#6BABFD"/>
</linearGradient>
<linearGradient id="paint37_linear_3_1873" x1="634.109" y1="468.454" x2="523.025" y2="533.422" gradientUnits="userSpaceOnUse">
<stop stop-color="#0E284D"/>
<stop offset="0.333333" stop-color="#294772"/>
<stop offset="0.666667" stop-color="#377CDD"/>
<stop offset="1" stop-color="#34E6BF"/>
</linearGradient>
<linearGradient id="paint38_linear_3_1873" x1="634.109" y1="468.454" x2="523.025" y2="533.422" gradientUnits="userSpaceOnUse">
<stop stop-color="#0E284D"/>
<stop offset="0.333333" stop-color="#294772"/>
<stop offset="0.666667" stop-color="#377CDD"/>
<stop offset="1" stop-color="#34E6BF"/>
</linearGradient>
<linearGradient id="paint39_linear_3_1873" x1="554.632" y1="578.274" x2="469.855" y2="650.268" gradientUnits="userSpaceOnUse">
<stop stop-color="#0E284D"/>
<stop offset="0.333333" stop-color="#294772"/>
<stop offset="0.666667" stop-color="#377CDD"/>
<stop offset="1" stop-color="#34E6BF"/>
</linearGradient>
<linearGradient id="paint40_linear_3_1873" x1="554.632" y1="578.274" x2="469.855" y2="650.268" gradientUnits="userSpaceOnUse">
<stop stop-color="#0E284D"/>
<stop offset="0.333333" stop-color="#294772"/>
<stop offset="0.666667" stop-color="#377CDD"/>
<stop offset="1" stop-color="#34E6BF"/>
</linearGradient>
<linearGradient id="paint41_linear_3_1873" x1="555.364" y1="576.74" x2="444.7" y2="654.228" gradientUnits="userSpaceOnUse">
<stop stop-color="#0E284D"/>
<stop offset="0.333333" stop-color="#294772"/>
<stop offset="0.666667" stop-color="#377CDD"/>
<stop offset="1" stop-color="#34E6BF"/>
</linearGradient>
<linearGradient id="paint42_linear_3_1873" x1="555.16" y1="541.439" x2="469.362" y2="614.544" gradientUnits="userSpaceOnUse">
<stop stop-color="#0E284D"/>
<stop offset="0.333333" stop-color="#294772"/>
<stop offset="0.666667" stop-color="#377CDD"/>
<stop offset="1" stop-color="#34E6BF"/>
</linearGradient>
<linearGradient id="paint43_linear_3_1873" x1="475.827" y1="639.753" x2="474.178" y2="636.897" gradientUnits="userSpaceOnUse">
<stop stop-color="#103DB5"/>
<stop offset="0.6426" stop-color="#6BABFD"/>
</linearGradient>
<linearGradient id="paint44_linear_3_1873" x1="198.537" y1="529.329" x2="308.755" y2="625.342" gradientUnits="userSpaceOnUse">
<stop stop-color="#0E284D"/>
<stop offset="0.333333" stop-color="#294772"/>
<stop offset="0.666667" stop-color="#377CDD"/>
<stop offset="1" stop-color="#34E6BF"/>
</linearGradient>
<linearGradient id="paint45_linear_3_1873" x1="198.537" y1="529.329" x2="308.755" y2="625.342" gradientUnits="userSpaceOnUse">
<stop stop-color="#0E284D"/>
<stop offset="0.333333" stop-color="#294772"/>
<stop offset="0.666667" stop-color="#377CDD"/>
<stop offset="1" stop-color="#34E6BF"/>
</linearGradient>
<linearGradient id="paint46_linear_3_1873" x1="267.779" y1="498.453" x2="218.576" y2="540.478" gradientUnits="userSpaceOnUse">
<stop stop-color="#0E284D"/>
<stop offset="0.333333" stop-color="#294772"/>
<stop offset="0.666667" stop-color="#377CDD"/>
<stop offset="1" stop-color="#34E6BF"/>
</linearGradient>
<linearGradient id="paint47_linear_3_1873" x1="121.607" y1="571.748" x2="193.302" y2="720.689" gradientUnits="userSpaceOnUse">
<stop stop-color="#34E6BF"/>
<stop offset="0.333333" stop-color="#377CDD"/>
<stop offset="0.666667" stop-color="#294772"/>
<stop offset="1" stop-color="#0E284D"/>
</linearGradient>
<linearGradient id="paint48_linear_3_1873" x1="121.607" y1="571.748" x2="193.302" y2="720.689" gradientUnits="userSpaceOnUse">
<stop stop-color="#34E6BF"/>
<stop offset="0.333333" stop-color="#377CDD"/>
<stop offset="0.666667" stop-color="#294772"/>
<stop offset="1" stop-color="#0E284D"/>
</linearGradient>
<linearGradient id="paint49_linear_3_1873" x1="267.779" y1="498.453" x2="218.576" y2="540.478" gradientUnits="userSpaceOnUse">
<stop stop-color="#0E284D"/>
<stop offset="0.333333" stop-color="#294772"/>
<stop offset="0.666667" stop-color="#377CDD"/>
<stop offset="1" stop-color="#34E6BF"/>
</linearGradient>
<linearGradient id="paint50_linear_3_1873" x1="272.33" y1="525.042" x2="216.265" y2="511.199" gradientUnits="userSpaceOnUse">
<stop stop-color="#0E284D"/>
<stop offset="0.333333" stop-color="#294772"/>
<stop offset="0.666667" stop-color="#377CDD"/>
<stop offset="1" stop-color="#34E6BF"/>
</linearGradient>
<linearGradient id="paint51_linear_3_1873" x1="229.158" y1="469.631" x2="315.868" y2="573.214" gradientUnits="userSpaceOnUse">
<stop stop-color="#34E6BF"/>
<stop offset="0.333333" stop-color="#377CDD"/>
<stop offset="0.666667" stop-color="#294772"/>
<stop offset="1" stop-color="#0E284D"/>
</linearGradient>
<linearGradient id="paint52_linear_3_1873" x1="195.988" y1="470.806" x2="325.327" y2="472.795" gradientUnits="userSpaceOnUse">
<stop stop-color="#34E6BF"/>
<stop offset="0.333333" stop-color="#377CDD"/>
<stop offset="0.666667" stop-color="#294772"/>
<stop offset="1" stop-color="#0E284D"/>
</linearGradient>
</defs>
</svg>
