<svg width="538" height="523" viewBox="0 0 538 523" fill="none" xmlns="http://www.w3.org/2000/svg">
<g opacity="0.5" filter="url(#filter0_f_3_1498)">
<ellipse cx="338.5" cy="339" rx="338.5" ry="339" transform="matrix(-1 0 0 1 726 46)" fill="url(#paint0_radial_3_1498)"/>
</g>
<path d="M363.676 609C479.352 548.484 739.218 393.37 742 393.37M311.865 579.09C427.542 518.574 687.407 363.46 690.189 363.46M260.054 549.18C375.731 488.664 635.596 333.55 638.378 333.55M208.244 519.27C323.92 458.754 583.786 303.64 586.567 303.64M156.433 489.36C272.109 428.845 531.975 273.73 534.756 273.73M104.622 459.45C220.298 398.935 480.164 243.82 482.946 243.82M52.8109 429.54C168.487 369.025 428.353 213.91 431.135 213.91M1 399.63C116.676 339.115 376.542 184 379.324 184M379.324 609C263.648 548.484 3.78179 393.37 1 393.37M431.135 579.09C315.458 518.574 55.5927 363.46 52.8109 363.46M482.946 549.18C367.269 488.664 107.404 333.55 104.622 333.55M534.756 519.27C419.08 458.754 159.214 303.64 156.433 303.64M586.567 489.36C470.891 428.845 211.025 273.73 208.244 273.73M638.378 459.45C522.702 398.935 262.836 243.82 260.054 243.82M690.189 429.54C574.513 369.025 314.647 213.91 311.865 213.91M742 399.63C626.324 339.115 366.458 184 363.676 184" stroke="url(#paint1_radial_3_1498)" stroke-opacity="0.6" stroke-width="0.327076" stroke-linecap="round"/>
<path d="M415.5 354L501.211 402.832C506.811 406.023 506.963 414.041 501.487 417.441L412.866 472.466" stroke="url(#paint2_linear_3_1498)" stroke-width="3.97753"/>
<path d="M457.016 317.414H249.619V324.726C249.619 329.601 252.942 334.476 259.368 338.242L330.051 379.013C343.125 386.546 364.175 386.546 377.026 379.013L447.266 338.242C453.692 334.476 457.016 329.601 457.016 324.726V317.414Z" fill="#10305D"/>
<path d="M447.267 303.678C460.34 311.212 460.34 323.399 447.489 330.933L377.248 371.703C364.397 379.237 343.347 379.237 330.274 371.703L259.369 330.933C246.296 323.399 246.296 311.212 259.147 303.678L329.387 262.908C342.239 255.374 363.289 255.374 376.362 262.908L447.267 303.678Z" fill="#0C254A"/>
<path d="M416.023 302.623C424.665 307.72 424.665 315.696 416.245 320.793L369.27 348.047C360.629 353.143 346.669 353.143 337.806 348.047L290.61 320.793C281.969 315.696 281.969 307.72 290.61 302.623L337.585 275.369C346.226 270.273 360.186 270.273 368.827 275.369L416.023 302.623Z" fill="#BCD0F1"/>
<path d="M422.642 284.773H284.156V311.806C284.156 315.13 286.372 318.453 290.803 320.891L337.999 348.145C346.641 353.241 360.822 353.241 369.463 348.145L416.438 320.891C420.648 318.453 422.864 315.13 422.864 311.806V284.773H422.642Z" fill="#10305D"/>
<path d="M416.023 275.588C424.665 280.684 424.665 288.661 416.245 293.757L369.27 321.012C360.629 326.108 346.669 326.108 337.806 321.012L290.61 293.757C281.969 288.661 281.969 280.684 290.61 275.588L337.585 248.334C346.226 243.238 360.186 243.238 368.827 248.334L416.023 275.588Z" fill="#071D40"/>
<path d="M353.095 244.562V245.67C358.856 245.67 364.174 247 368.162 249.216L415.359 276.47C419.125 278.686 421.341 281.566 421.341 284.668C421.341 287.77 419.347 290.651 415.359 292.645L368.606 320.121C364.617 322.558 359.299 323.666 353.538 323.666C347.777 323.666 342.459 322.336 338.471 320.121L291.275 292.867C287.508 290.651 285.292 287.77 285.292 284.668C285.292 281.566 287.286 278.686 291.275 276.47L338.249 249.216C342.238 246.778 347.556 245.67 353.317 245.67V244.562M353.095 244.562C347.334 244.562 341.795 245.892 337.363 248.329L290.61 275.583C281.969 280.68 281.969 288.657 290.61 293.753L337.806 321.007C342.238 323.444 347.777 324.774 353.538 324.774C359.299 324.774 364.839 323.444 369.27 321.007L416.245 293.753C424.886 288.657 424.886 280.68 416.023 275.583L368.827 248.329C364.617 245.892 358.856 244.562 353.095 244.562Z" fill="#244C85"/>
<g opacity="0.5">
<path d="M353.316 254.756C357.747 254.756 361.736 255.642 364.838 257.636L400.512 278.243C403.614 280.016 405.165 282.231 405.165 284.669C405.165 287.106 403.614 289.322 400.512 291.094L365.059 311.701C361.957 313.474 357.969 314.582 353.537 314.582C349.106 314.582 345.117 313.695 342.015 311.701L306.341 291.094C303.239 289.322 301.688 287.106 301.688 284.669C301.688 282.231 303.239 280.016 306.341 278.243L341.794 257.636C344.896 255.864 348.884 254.756 353.316 254.756ZM353.316 254.312C349.106 254.312 344.674 255.199 341.572 257.193L306.12 277.8C299.472 281.567 299.694 287.771 306.12 291.538L341.794 312.144C345.117 314.139 349.327 315.025 353.759 315.025C357.969 315.025 362.4 314.139 365.724 312.144L401.177 291.538C407.602 287.771 407.602 281.567 401.177 277.8L365.502 257.193C361.736 255.199 357.526 254.312 353.316 254.312Z" fill="#244C85"/>
</g>
<path d="M373.924 326.775C372.816 327.44 372.151 328.769 372.151 330.098V336.303C372.151 337.411 373.038 338.075 374.146 337.411L409.82 316.804C410.928 316.139 411.592 314.81 411.592 313.48V307.276C411.592 306.168 410.706 305.503 409.598 306.168L373.924 326.775Z" fill="#15D7AC"/>
<path d="M372.374 336.082L408.048 315.475C409.156 314.811 409.82 313.481 409.82 312.152V305.947C410.707 305.504 411.593 305.947 411.593 307.055V313.259C411.593 314.367 410.707 315.918 409.82 316.583L374.146 337.19C373.038 337.855 372.152 337.411 372.374 336.082C372.152 336.082 372.152 336.082 372.374 336.082Z" fill="#1964BA"/>
<path d="M298.588 317.248L300.139 316.361C300.361 316.14 300.582 315.697 300.582 315.253C300.582 314.145 299.696 312.816 298.81 312.151C298.367 311.93 297.923 311.93 297.48 311.93L295.929 312.816L298.588 317.248Z" fill="url(#paint3_linear_3_1498)"/>
<path d="M298.385 317.227C299.021 316.862 298.995 315.619 298.325 314.451C297.655 313.284 296.596 312.633 295.959 312.999C295.322 313.364 295.349 314.607 296.019 315.774C296.688 316.942 297.748 317.592 298.385 317.227Z" fill="#2185F8"/>
<path d="M297.943 316.456C298.368 316.213 298.367 315.413 297.941 314.67C297.515 313.928 296.825 313.523 296.4 313.766C295.976 314.01 295.977 314.809 296.403 315.552C296.829 316.295 297.519 316.7 297.943 316.456Z" fill="#FFE100"/>
<path d="M305.9 321.459L307.451 320.572C307.673 320.351 307.894 319.907 307.894 319.464C307.894 318.356 307.008 317.027 306.122 316.362C305.679 316.141 305.235 316.141 304.792 316.141L303.241 317.027L305.9 321.459Z" fill="url(#paint4_linear_3_1498)"/>
<path d="M305.716 321.411C306.352 321.045 306.326 319.803 305.656 318.635C304.986 317.468 303.927 316.817 303.29 317.182C302.653 317.548 302.68 318.79 303.35 319.958C304.019 321.126 305.079 321.776 305.716 321.411Z" fill="#2185F8"/>
<path d="M305.274 320.644C305.698 320.4 305.697 319.601 305.271 318.858C304.845 318.115 304.155 317.71 303.731 317.954C303.306 318.197 303.307 318.997 303.733 319.74C304.16 320.483 304.849 320.887 305.274 320.644Z" fill="#FFE100"/>
<path d="M372.153 329.875C372.153 328.767 373.039 327.216 373.925 326.551L409.599 305.944C410.043 305.723 410.486 305.723 410.707 305.723L419.57 308.603C420.014 308.825 420.235 309.268 420.235 309.933V317.688C420.235 319.017 419.349 320.79 418.019 321.455L378.578 345.164C377.692 345.607 376.806 345.164 376.584 344.72C374.812 342.505 372.374 336.965 372.374 336.965C372.374 336.965 371.931 336.744 371.931 335.857L372.153 329.875Z" fill="url(#paint5_linear_3_1498)"/>
<path d="M312.834 479.125L312.806 484.004C312.806 485.314 313.46 486.514 314.661 487.168L418.425 547.07C420.935 548.489 423.99 548.489 426.499 547.07L476.363 518.265C477.781 517.501 478.545 515.974 478.436 514.446L478.082 509.731L421.917 500.807L312.834 479.125Z" fill="#10305D"/>
<path d="M314.551 481.929L418.97 542.158C421.152 543.467 423.88 543.467 426.062 542.158L476.58 513.025C478.653 511.825 478.653 508.77 476.58 507.57L371.288 446.795C369.433 445.704 367.251 445.704 365.396 446.795L314.551 476.146C312.259 477.455 312.259 480.619 314.551 481.929Z" fill="#244C85"/>
<path d="M317.387 480.071L419.406 539.536C421.588 540.846 424.425 540.846 426.607 539.536L473.634 512.259C474.943 511.495 474.943 509.64 473.634 508.876L370.524 448.647C369.215 447.883 367.687 447.883 366.378 448.647L354.921 455.303C354.157 455.739 354.048 456.721 354.594 457.376C355.03 457.812 354.921 458.576 354.376 458.904L338.118 468.505C337.245 469.051 336.045 469.16 335.063 468.833L334.408 468.614C333.426 468.287 332.335 468.396 331.353 468.942L317.387 477.016C316.187 477.78 316.187 479.416 317.387 480.071Z" fill="#0B1B36"/>
<path fill-rule="evenodd" clip-rule="evenodd" d="M325.073 490.87C325.197 490.655 325.47 490.581 325.685 490.704L335.177 496.16C335.392 496.283 335.466 496.557 335.343 496.771C335.219 496.986 334.946 497.06 334.731 496.937L325.238 491.481C325.024 491.358 324.95 491.084 325.073 490.87Z" fill="#FFE100"/>
<path d="M347.563 433.269C344.87 433.153 342.268 433.637 340.366 434.753L340.365 434.754L289.56 464.052C287.905 465.046 287.041 466.342 287.041 467.593C287.041 469.178 288.237 470.983 290.656 472.318L290.659 472.319L292.438 473.336H292.438L409.798 541.161C412.008 542.412 414.769 543.125 417.461 543.24C420.155 543.356 422.757 542.871 424.658 541.756L424.659 541.755L472.586 514.15L475.463 512.458H475.464C477.113 511.468 477.898 510.173 477.898 508.915C477.898 507.325 476.782 505.52 474.363 504.102L355.226 435.346C353.015 434.095 350.255 433.384 347.563 433.269Z" fill="#1E4780" stroke="#4C78B7" stroke-width="0.425075"/>
<path d="M424.722 539.348L471.001 512.629C474.852 510.406 474.369 506.522 469.922 503.955L355.31 437.784C350.864 435.217 344.137 434.938 340.287 437.161L294.008 463.88C290.157 466.103 290.64 469.987 295.087 472.554L409.698 538.725C414.145 541.293 420.871 541.572 424.722 539.348Z" fill="#162D55"/>
<path d="M298.245 472.244L410.293 536.935C411.612 537.697 413.226 538.205 414.912 538.417C418.066 538.883 421.659 538.417 424.225 536.935L466.831 512.336C470.644 510.135 470.645 506.494 466.831 504.293L354.783 439.602C353.244 438.713 351.336 438.204 349.43 438.035C346.35 437.696 343.198 438.247 340.851 439.602L298.245 464.2C294.359 466.444 294.359 470 298.245 472.244Z" fill="#162D55"/>
<path d="M303.285 458.512L306.217 460.205C308.05 461.264 310.984 461.264 312.744 460.248L337.53 445.937C339.363 444.879 339.363 443.185 337.53 442.127L334.598 440.434L303.285 458.512Z" fill="#1E4780"/>
<g opacity="0.05">
<path d="M349.499 501.818L394.377 527.728L394.452 462.487L354.781 439.582C353.241 438.694 351.334 438.185 349.427 438.016L349.499 501.818Z" fill="white" fill-opacity="0.5"/>
<path d="M402.663 532.522L410.29 536.926C411.609 537.687 413.223 538.195 414.909 538.408L414.984 474.351L402.665 467.238L402.663 532.522Z" fill="white" fill-opacity="0.5"/>
</g>
<path d="M286.828 467.605V479.037C286.828 480.73 288.099 482.509 290.554 483.947L409.694 552.704C411.895 554.059 414.774 554.737 417.483 554.821C420.193 554.991 422.818 554.483 424.766 553.381L475.572 523.999C477.265 522.983 478.112 521.628 478.112 520.274V508.927C478.112 510.282 477.265 511.637 475.572 512.653L472.693 514.347L424.766 541.951C422.819 543.051 420.193 543.56 417.484 543.39C414.774 543.305 411.895 542.627 409.694 541.358L292.333 473.532L290.554 472.516C288.099 471.161 286.828 469.299 286.828 467.605Z" fill="#1E4780"/>
<path fill-rule="evenodd" clip-rule="evenodd" d="M306.61 486.974C306.817 486.615 307.275 486.491 307.635 486.698L318.309 492.915C318.668 493.121 318.792 493.58 318.585 493.939C318.379 494.298 317.92 494.422 317.561 494.216L306.887 487.999C306.528 487.792 306.404 487.333 306.61 486.974Z" fill="#2CFFFC"/>
<path fill-rule="evenodd" clip-rule="evenodd" d="M320.66 495.216C320.866 494.857 321.325 494.733 321.684 494.94L332.358 501.157C332.718 501.363 332.841 501.822 332.635 502.181C332.428 502.54 331.97 502.664 331.611 502.458L320.937 496.241C320.577 496.034 320.453 495.576 320.66 495.216Z" fill="#2CFFFC"/>
<defs>
<filter id="filter0_f_3_1498" x="3.2903" y="0.290302" width="768.419" height="769.419" filterUnits="userSpaceOnUse" color-interpolation-filters="sRGB">
<feFlood flood-opacity="0" result="BackgroundImageFix"/>
<feBlend mode="normal" in="SourceGraphic" in2="BackgroundImageFix" result="shape"/>
<feGaussianBlur stdDeviation="22.8548" result="effect1_foregroundBlur_3_1498"/>
</filter>
<radialGradient id="paint0_radial_3_1498" cx="0" cy="0" r="1" gradientUnits="userSpaceOnUse" gradientTransform="translate(338.5 339) rotate(90) scale(339 338.5)">
<stop stop-color="#0439C7"/>
<stop offset="1" stop-color="#02122B" stop-opacity="0"/>
</radialGradient>
<radialGradient id="paint1_radial_3_1498" cx="0" cy="0" r="1" gradientUnits="userSpaceOnUse" gradientTransform="translate(371.5 396.5) rotate(90) scale(182.59 208.68)">
<stop stop-color="#4C78B7"/>
<stop offset="1" stop-color="white" stop-opacity="0"/>
</radialGradient>
<linearGradient id="paint2_linear_3_1498" x1="435.018" y1="483.462" x2="397.412" y2="301.278" gradientUnits="userSpaceOnUse">
<stop stop-color="#34E6BF"/>
<stop offset="0.333333" stop-color="#377CDD"/>
<stop offset="0.666667" stop-color="#294772"/>
<stop offset="1" stop-color="#191A1A"/>
</linearGradient>
<linearGradient id="paint3_linear_3_1498" x1="299.998" y1="316.446" x2="297.539" y2="312.186" gradientUnits="userSpaceOnUse">
<stop stop-color="#103DB5"/>
<stop offset="0.6426" stop-color="#6BABFD"/>
</linearGradient>
<linearGradient id="paint4_linear_3_1498" x1="307.266" y1="320.607" x2="304.807" y2="316.348" gradientUnits="userSpaceOnUse">
<stop stop-color="#103DB5"/>
<stop offset="0.6426" stop-color="#6BABFD"/>
</linearGradient>
<linearGradient id="paint5_linear_3_1498" x1="388.589" y1="315.044" x2="400.789" y2="330.059" gradientUnits="userSpaceOnUse">
<stop stop-color="#0CFFFC" stop-opacity="0.6"/>
<stop offset="1" stop-color="white" stop-opacity="0"/>
</linearGradient>
</defs>
</svg>
