<svg width="640" height="525" viewBox="0 0 640 525" fill="none" xmlns="http://www.w3.org/2000/svg">
<g opacity="0.5" filter="url(#filter0_f_3_1582)">
<ellipse cx="396.466" cy="396.952" rx="396.466" ry="396.952" transform="matrix(-1 0 0 1 834.251 -40.25)" fill="url(#paint0_radial_3_1582)"/>
</g>
<g opacity="0.5" filter="url(#filter1_f_3_1582)">
<circle cx="96.9782" cy="96.9782" r="96.9782" transform="matrix(-1 0 0 1 694.903 371.762)" fill="url(#paint1_radial_3_1582)"/>
</g>
<g opacity="0.5" filter="url(#filter2_f_3_1582)">
<circle cx="101.836" cy="101.836" r="101.836" transform="matrix(-1 0 0 1 502.89 417.824)" fill="url(#paint2_radial_3_1582)"/>
</g>
<path d="M432.203 636.072C544.532 577.319 796.877 426.722 799.579 426.722M381.891 607.033C494.22 548.28 746.566 397.683 749.267 397.683M331.579 577.994C443.908 519.241 696.254 368.644 698.955 368.644M281.268 548.955C393.597 490.202 645.943 339.605 648.644 339.605M230.956 519.916C343.285 461.163 595.631 310.566 598.332 310.566M180.645 490.877C292.973 432.124 545.319 281.527 548.021 281.527M130.333 461.838C242.662 403.085 495.008 252.488 497.709 252.488M80.0215 432.799C192.35 374.046 444.696 223.449 447.397 223.449M447.397 636.072C335.069 577.319 82.7228 426.722 80.0215 426.722M497.709 607.033C385.38 548.28 133.034 397.683 130.333 397.683M548.021 577.994C435.692 519.241 183.346 368.644 180.645 368.644M598.332 548.955C486.003 490.202 233.658 339.605 230.956 339.605M648.644 519.916C536.315 461.163 283.969 310.566 281.268 310.566M698.955 490.877C586.627 432.124 334.281 281.527 331.579 281.527M749.267 461.838C636.938 403.085 384.592 252.488 381.891 252.488M799.579 432.799C687.25 374.046 434.904 223.449 432.203 223.449" stroke="url(#paint3_radial_3_1582)" stroke-opacity="0.6" stroke-width="0.337662" stroke-linecap="round"/>
<path d="M410.874 322.74C414.207 320.7 418.402 320.701 421.733 322.744L518.539 379.277C519.738 383.474 521.737 392.87 514.018 397.453L446.975 435.448C443.789 437.239 435.755 437.261 432.582 435.448L341.837 383.047C334.974 379.125 334.285 364.612 341.028 360.486L410.874 322.74Z" fill="#1E4780"/>
<path d="M410.937 317.258C414.231 315.242 418.376 315.243 421.668 317.262L514.292 374.048C520.872 378.082 520.796 387.616 514.272 391.577L513.957 391.761L446.514 429.756C444.948 430.636 442.417 431.089 439.873 431.092C437.328 431.095 434.801 430.648 433.242 429.757L341.896 377.355C335.114 373.48 334.968 363.752 341.63 359.674L410.937 317.258Z" fill="#1E4780" stroke="#4C78B7" stroke-width="0.244271"/>
<path d="M455.512 401.091C456.017 400.754 456.662 400.968 456.859 401.092L461.955 404.3C462.353 404.552 462.342 405.154 461.934 405.39L458.206 407.49C457.869 407.827 457.046 407.601 456.859 407.49L451.779 404.514C451.374 404.276 451.366 403.677 451.763 403.426L455.512 401.091Z" fill="#2CFFFC"/>
<path d="M455.705 392.052C456.21 391.715 456.856 391.929 457.052 392.053L469.7 399.643C470.099 399.895 470.088 400.496 469.68 400.732L465.952 402.833C465.615 403.17 464.792 402.943 464.605 402.833L451.972 395.475C451.568 395.237 451.559 394.638 451.957 394.387L455.705 392.052Z" fill="#2CFFFC"/>
<path d="M463.61 387.459C464.115 387.121 464.761 387.335 464.957 387.459L477.606 395.049C478.005 395.301 477.993 395.902 477.586 396.139L473.857 398.239C473.52 398.576 472.697 398.349 472.51 398.239L459.878 390.881C459.473 390.643 459.464 390.045 459.862 389.794L463.61 387.459Z" fill="#2CFFFC"/>
<path d="M478.748 387.115C479.254 386.778 479.899 386.991 480.096 387.115L485.191 390.324C485.59 390.576 485.579 391.177 485.171 391.413L481.443 393.514C481.106 393.851 480.283 393.624 480.096 393.514L475.016 390.538C474.611 390.299 474.602 389.701 475 389.45L478.748 387.115Z" fill="#2CFFFC"/>
<path d="M486.494 382.458C487 382.121 487.645 382.335 487.842 382.459L492.937 385.668C493.336 385.92 493.325 386.521 492.917 386.757L489.189 388.858C488.852 389.194 488.029 388.968 487.842 388.858L482.762 385.881C482.357 385.643 482.349 385.045 482.746 384.794L486.494 382.458Z" fill="#2CFFFC"/>
<path d="M494.241 377.791C494.746 377.453 495.391 377.667 495.588 377.791L500.684 381C501.082 381.252 501.071 381.853 500.663 382.089L496.935 384.19C496.598 384.526 495.775 384.3 495.588 384.19L490.508 381.213C490.103 380.975 490.095 380.377 490.492 380.126L494.241 377.791Z" fill="#2CFFFC"/>
<path d="M447.766 396.22C448.272 395.883 448.917 396.097 449.114 396.221L454.209 399.429C454.608 399.682 454.597 400.283 454.189 400.519L450.461 402.62C450.124 402.956 449.301 402.73 449.114 402.62L444.034 399.643C443.629 399.405 443.621 398.806 444.018 398.556L447.766 396.22Z" fill="#2CFFFC"/>
<path d="M471.003 382.244C471.508 381.907 472.153 382.12 472.35 382.244L477.446 385.453C477.845 385.705 477.834 386.306 477.426 386.542L473.697 388.643C473.36 388.98 472.537 388.753 472.35 388.643L467.27 385.667C466.866 385.428 466.857 384.83 467.254 384.579L471.003 382.244Z" fill="#2CFFFC"/>
<path d="M478.748 377.587C479.254 377.25 479.899 377.464 480.096 377.588L485.191 380.796C485.59 381.049 485.579 381.65 485.171 381.886L481.443 383.987C481.106 384.323 480.283 384.097 480.096 383.987L475.016 381.01C474.611 380.772 474.602 380.173 475 379.923L478.748 377.587Z" fill="#2CFFFC"/>
<path d="M486.494 372.927C487 372.59 487.645 372.804 487.842 372.928L492.937 376.136C493.336 376.388 493.325 376.99 492.917 377.226L489.189 379.326C488.852 379.663 488.029 379.437 487.842 379.326L482.762 376.35C482.357 376.112 482.349 375.513 482.746 375.262L486.494 372.927Z" fill="#2CFFFC"/>
<path d="M440.019 391.349C440.525 391.012 441.17 391.225 441.367 391.35L446.462 394.558C446.861 394.81 446.85 395.411 446.442 395.648L442.714 397.748C442.377 398.085 441.554 397.858 441.367 397.748L436.287 394.772C435.882 394.534 435.873 393.935 436.271 393.684L440.019 391.349Z" fill="#2CFFFC"/>
<path d="M447.766 386.689C448.272 386.352 448.917 386.565 449.114 386.689L454.209 389.898C454.608 390.15 454.597 390.751 454.189 390.988L450.461 393.088C450.124 393.425 449.301 393.198 449.114 393.088L444.034 390.112C443.629 389.873 443.621 389.275 444.018 389.024L447.766 386.689Z" fill="#2CFFFC"/>
<path d="M455.512 382.037C456.017 381.7 456.662 381.913 456.859 382.037L461.955 385.246C462.353 385.498 462.342 386.099 461.934 386.335L458.206 388.436C457.869 388.773 457.046 388.546 456.859 388.436L451.779 385.459C451.374 385.221 451.366 384.623 451.763 384.372L455.512 382.037Z" fill="#2CFFFC"/>
<path d="M463.257 377.369C463.762 377.032 464.407 377.245 464.604 377.369L469.7 380.578C470.099 380.83 470.087 381.431 469.68 381.667L465.951 383.768C465.614 384.105 464.791 383.878 464.604 383.768L459.524 380.792C459.119 380.553 459.111 379.955 459.508 379.704L463.257 377.369Z" fill="#2CFFFC"/>
<path d="M471.003 372.708C471.508 372.371 472.153 372.585 472.35 372.709L477.446 375.918C477.845 376.17 477.834 376.771 477.426 377.007L473.697 379.108C473.36 379.444 472.537 379.218 472.35 379.108L467.27 376.131C466.866 375.893 466.857 375.295 467.254 375.044L471.003 372.708Z" fill="#2CFFFC"/>
<path d="M478.748 368.048C479.254 367.711 479.899 367.925 480.096 368.049L485.191 371.257C485.59 371.509 485.579 372.111 485.171 372.347L481.443 374.447C481.106 374.784 480.283 374.558 480.096 374.447L475.016 371.471C474.611 371.233 474.602 370.634 475 370.383L478.748 368.048Z" fill="#2CFFFC"/>
<path d="M408.943 372.15C409.448 371.813 410.094 372.026 410.29 372.15L438.716 389.689C439.115 389.941 439.104 390.542 438.696 390.779L434.968 392.879C434.631 393.216 433.808 392.989 433.621 392.879L405.211 375.573C404.806 375.334 404.797 374.736 405.195 374.485L408.943 372.15Z" fill="#2CFFFC"/>
<path d="M440.019 381.822C440.525 381.485 441.17 381.698 441.367 381.822L446.462 385.031C446.861 385.283 446.85 385.884 446.442 386.12L442.714 388.221C442.377 388.558 441.554 388.331 441.367 388.221L436.287 385.245C435.882 385.006 435.873 384.408 436.271 384.157L440.019 381.822Z" fill="#2CFFFC"/>
<path d="M447.766 377.162C448.272 376.825 448.917 377.038 449.114 377.162L454.209 380.371C454.608 380.623 454.597 381.224 454.189 381.46L450.461 383.561C450.124 383.898 449.301 383.671 449.114 383.561L444.034 380.584C443.629 380.346 443.621 379.748 444.018 379.497L447.766 377.162Z" fill="#2CFFFC"/>
<path d="M455.512 372.501C456.017 372.164 456.662 372.378 456.859 372.502L461.955 375.71C462.353 375.963 462.342 376.564 461.934 376.8L458.206 378.901C457.869 379.237 457.046 379.011 456.859 378.901L451.779 375.924C451.374 375.686 451.366 375.087 451.763 374.837L455.512 372.501Z" fill="#2CFFFC"/>
<path d="M463.257 367.841C463.762 367.504 464.407 367.718 464.604 367.842L469.7 371.05C470.099 371.302 470.087 371.904 469.68 372.14L465.951 374.24C465.614 374.577 464.791 374.351 464.604 374.24L459.524 371.264C459.119 371.026 459.111 370.427 459.508 370.176L463.257 367.841Z" fill="#2CFFFC"/>
<path d="M471.003 363.177C471.508 362.84 472.153 363.054 472.35 363.178L477.446 366.386C477.845 366.638 477.834 367.24 477.426 367.476L473.697 369.576C473.36 369.913 472.537 369.687 472.35 369.576L467.27 366.6C466.866 366.362 466.857 365.763 467.254 365.512L471.003 363.177Z" fill="#2CFFFC"/>
<path d="M432.274 376.951C432.779 376.614 433.424 376.827 433.621 376.951L438.717 380.16C439.116 380.412 439.105 381.013 438.697 381.249L434.968 383.35C434.631 383.687 433.808 383.46 433.621 383.35L428.541 380.374C428.137 380.135 428.128 379.537 428.525 379.286L432.274 376.951Z" fill="#2CFFFC"/>
<path d="M440.019 372.287C440.525 371.95 441.17 372.163 441.367 372.287L446.462 375.496C446.861 375.748 446.85 376.349 446.442 376.585L442.714 378.686C442.377 379.023 441.554 378.796 441.367 378.686L436.287 375.709C435.882 375.471 435.873 374.873 436.271 374.622L440.019 372.287Z" fill="#2CFFFC"/>
<path d="M447.766 367.626C448.272 367.289 448.917 367.503 449.114 367.627L454.209 370.835C454.608 371.088 454.597 371.689 454.189 371.925L450.461 374.026C450.124 374.362 449.301 374.136 449.114 374.026L444.034 371.049C443.629 370.811 443.621 370.212 444.018 369.962L447.766 367.626Z" fill="#2CFFFC"/>
<path d="M455.512 362.97C456.017 362.633 456.662 362.847 456.859 362.971L461.955 366.179C462.353 366.431 462.342 367.033 461.934 367.269L458.206 369.369C457.869 369.706 457.046 369.48 456.859 369.369L451.779 366.393C451.374 366.155 451.366 365.556 451.763 365.305L455.512 362.97Z" fill="#2CFFFC"/>
<path d="M463.257 358.31C463.762 357.973 464.407 358.186 464.604 358.311L469.7 361.519C470.099 361.771 470.087 362.372 469.68 362.609L465.951 364.709C465.614 365.046 464.791 364.819 464.604 364.709L459.524 361.733C459.119 361.494 459.111 360.896 459.508 360.645L463.257 358.31Z" fill="#2CFFFC"/>
<path d="M424.529 372.08C425.034 371.743 425.679 371.956 425.876 372.08L430.972 375.289C431.371 375.541 431.359 376.142 430.952 376.378L427.223 378.479C426.886 378.815 426.063 378.589 425.876 378.479L420.796 375.502C420.391 375.264 420.383 374.666 420.78 374.415L424.529 372.08Z" fill="#2CFFFC"/>
<path d="M432.274 367.419C432.779 367.082 433.424 367.296 433.621 367.42L438.717 370.628C439.116 370.881 439.105 371.482 438.697 371.718L434.968 373.819C434.631 374.155 433.808 373.929 433.621 373.819L428.541 370.842C428.137 370.604 428.128 370.005 428.525 369.755L432.274 367.419Z" fill="#2CFFFC"/>
<path d="M440.019 362.759C440.525 362.422 441.17 362.636 441.367 362.76L446.462 365.968C446.861 366.22 446.85 366.822 446.442 367.058L442.714 369.158C442.377 369.495 441.554 369.269 441.367 369.158L436.287 366.182C435.882 365.944 435.873 365.345 436.271 365.094L440.019 362.759Z" fill="#2CFFFC"/>
<path d="M447.766 358.099C448.272 357.762 448.917 357.975 449.114 358.099L454.209 361.308C454.608 361.56 454.597 362.161 454.189 362.398L450.461 364.498C450.124 364.835 449.301 364.608 449.114 364.498L444.034 361.522C443.629 361.283 443.621 360.685 444.018 360.434L447.766 358.099Z" fill="#2CFFFC"/>
<path d="M455.512 353.443C456.017 353.106 456.662 353.319 456.859 353.443L461.955 356.652C462.353 356.904 462.342 357.505 461.934 357.742L458.206 359.842C457.869 360.179 457.046 359.952 456.859 359.842L451.779 356.866C451.374 356.627 451.366 356.029 451.763 355.778L455.512 353.443Z" fill="#2CFFFC"/>
<path d="M416.781 367.205C417.286 366.868 417.932 367.081 418.128 367.205L423.224 370.414C423.623 370.666 423.612 371.267 423.204 371.503L419.475 373.604C419.139 373.94 418.315 373.714 418.128 373.604L413.049 370.627C412.644 370.389 412.635 369.791 413.033 369.54L416.781 367.205Z" fill="#2CFFFC"/>
<path d="M424.529 362.544C425.034 362.207 425.679 362.421 425.876 362.545L430.972 365.753C431.371 366.006 431.359 366.607 430.952 366.843L427.223 368.944C426.886 369.28 426.063 369.054 425.876 368.944L420.796 365.967C420.391 365.729 420.383 365.13 420.78 364.88L424.529 362.544Z" fill="#2CFFFC"/>
<path d="M432.274 357.888C432.779 357.551 433.424 357.764 433.621 357.889L438.717 361.097C439.116 361.349 439.105 361.951 438.697 362.187L434.968 364.287C434.631 364.624 433.808 364.398 433.621 364.287L428.541 361.311C428.137 361.073 428.128 360.474 428.525 360.223L432.274 357.888Z" fill="#2CFFFC"/>
<path d="M440.019 353.228C440.525 352.891 441.17 353.104 441.367 353.229L446.462 356.437C446.861 356.689 446.85 357.29 446.442 357.527L442.714 359.627C442.377 359.964 441.554 359.737 441.367 359.627L436.287 356.651C435.882 356.412 435.873 355.814 436.271 355.563L440.019 353.228Z" fill="#2CFFFC"/>
<path d="M447.766 348.568C448.272 348.231 448.917 348.444 449.114 348.568L454.209 351.777C454.608 352.029 454.597 352.63 454.189 352.867L450.461 354.967C450.124 355.304 449.301 355.077 449.114 354.967L444.034 351.991C443.629 351.752 443.621 351.154 444.018 350.903L447.766 348.568Z" fill="#2CFFFC"/>
<path d="M401.29 366.998C401.796 366.661 402.441 366.874 402.637 366.998L407.733 370.207C408.132 370.459 408.121 371.06 407.713 371.296L403.985 373.397C403.648 373.733 402.825 373.507 402.637 373.397L397.558 370.42C397.153 370.182 397.144 369.584 397.542 369.333L401.29 366.998Z" fill="#2CFFFC"/>
<path d="M409.036 362.333C409.541 361.996 410.187 362.21 410.383 362.334L415.479 365.543C415.878 365.795 415.867 366.396 415.459 366.632L411.73 368.733C411.393 369.069 410.57 368.843 410.383 368.733L405.304 365.756C404.899 365.518 404.89 364.92 405.288 364.669L409.036 362.333Z" fill="#2CFFFC"/>
<path d="M416.781 357.677C417.286 357.34 417.932 357.554 418.128 357.678L423.224 360.886C423.623 361.138 423.612 361.74 423.204 361.976L419.475 364.076C419.139 364.413 418.315 364.187 418.128 364.076L413.049 361.1C412.644 360.862 412.635 360.263 413.033 360.012L416.781 357.677Z" fill="#2CFFFC"/>
<path d="M424.529 353.021C425.034 352.684 425.679 352.897 425.876 353.021L430.972 356.23C431.371 356.482 431.359 357.083 430.952 357.32L427.223 359.42C426.886 359.757 426.063 359.53 425.876 359.42L420.796 356.444C420.391 356.205 420.383 355.607 420.78 355.356L424.529 353.021Z" fill="#2CFFFC"/>
<path d="M432.274 348.357C432.779 348.02 433.424 348.233 433.621 348.357L438.717 351.566C439.116 351.818 439.105 352.419 438.697 352.656L434.968 354.756C434.631 355.093 433.808 354.866 433.621 354.756L428.541 351.78C428.137 351.541 428.128 350.943 428.525 350.692L432.274 348.357Z" fill="#2CFFFC"/>
<path d="M440.019 343.701C440.525 343.364 441.17 343.577 441.367 343.701L446.462 346.91C446.861 347.162 446.85 347.763 446.442 347.999L442.714 350.1C442.377 350.437 441.554 350.21 441.367 350.1L436.287 347.124C435.882 346.885 435.873 346.287 436.271 346.036L440.019 343.701Z" fill="#2CFFFC"/>
<path d="M393.544 362.13C394.049 361.793 394.694 362.007 394.891 362.131L399.987 365.339C400.386 365.591 400.375 366.193 399.967 366.429L396.238 368.53C395.901 368.866 395.078 368.64 394.891 368.53L389.811 365.553C389.407 365.315 389.398 364.716 389.795 364.466L393.544 362.13Z" fill="#2CFFFC"/>
<path d="M409.036 352.802C409.541 352.465 410.187 352.679 410.383 352.803L415.479 356.011C415.878 356.263 415.867 356.865 415.459 357.101L411.73 359.201C411.393 359.538 410.57 359.312 410.383 359.201L405.304 356.225C404.899 355.987 404.89 355.388 405.288 355.137L409.036 352.802Z" fill="#2CFFFC"/>
<path d="M416.781 348.146C417.286 347.809 417.932 348.022 418.128 348.146L423.224 351.355C423.623 351.607 423.612 352.208 423.204 352.445L419.475 354.545C419.139 354.882 418.315 354.655 418.128 354.545L413.049 351.569C412.644 351.33 412.635 350.732 413.033 350.481L416.781 348.146Z" fill="#2CFFFC"/>
<path d="M424.529 343.494C425.034 343.157 425.679 343.37 425.876 343.494L430.972 346.703C431.371 346.955 431.359 347.556 430.952 347.792L427.223 349.893C426.886 350.23 426.063 350.003 425.876 349.893L420.796 346.917C420.391 346.678 420.383 346.08 420.78 345.829L424.529 343.494Z" fill="#2CFFFC"/>
<path d="M432.274 338.83C432.779 338.493 433.424 338.706 433.621 338.83L438.717 342.039C439.116 342.291 439.105 342.892 438.697 343.128L434.968 345.229C434.631 345.565 433.808 345.339 433.621 345.229L428.541 342.252C428.137 342.014 428.128 341.416 428.525 341.165L432.274 338.83Z" fill="#2CFFFC"/>
<path d="M385.798 357.251C386.303 356.914 386.949 357.128 387.145 357.252L392.241 360.46C392.64 360.713 392.629 361.314 392.221 361.55L388.492 363.651C388.156 363.987 387.332 363.761 387.145 363.651L382.066 360.674C381.661 360.436 381.652 359.837 382.05 359.587L385.798 357.251Z" fill="#2CFFFC"/>
<path d="M416.781 338.615C417.286 338.278 417.932 338.491 418.128 338.615L423.224 341.824C423.623 342.076 423.612 342.677 423.204 342.914L419.475 345.014C419.139 345.351 418.315 345.124 418.128 345.014L413.049 342.038C412.644 341.799 412.635 341.201 413.033 340.95L416.781 338.615Z" fill="#2CFFFC"/>
<path d="M424.529 333.958C425.034 333.621 425.679 333.835 425.876 333.959L430.972 337.168C431.371 337.42 431.359 338.021 430.952 338.257L427.223 340.358C426.886 340.694 426.063 340.468 425.876 340.358L420.796 337.381C420.391 337.143 420.383 336.545 420.78 336.294L424.529 333.958Z" fill="#2CFFFC"/>
<path d="M378.052 352.384C378.557 352.047 379.203 352.261 379.399 352.385L384.495 355.593C384.894 355.845 384.883 356.447 384.475 356.683L380.746 358.783C380.41 359.12 379.586 358.894 379.399 358.783L374.32 355.807C373.915 355.569 373.906 354.97 374.304 354.719L378.052 352.384Z" fill="#2CFFFC"/>
<path d="M385.798 347.72C386.303 347.383 386.949 347.597 387.145 347.721L407.214 360.197C407.613 360.449 407.602 361.051 407.194 361.287L403.466 363.387C403.129 363.724 402.306 363.498 402.118 363.387L382.066 351.143C381.661 350.905 381.652 350.306 382.05 350.055L385.798 347.72Z" fill="#2CFFFC"/>
<path d="M393.544 343.068C394.049 342.731 394.694 342.944 394.891 343.068L407.414 350.808C407.813 351.06 407.801 351.662 407.394 351.898L403.665 353.998C403.328 354.335 402.505 354.109 402.318 353.998L389.811 346.491C389.407 346.252 389.398 345.654 389.795 345.403L393.544 343.068Z" fill="#2CFFFC"/>
<path d="M401.29 338.408C401.796 338.071 402.441 338.284 402.638 338.408L415.341 346.108C415.74 346.36 415.728 346.962 415.321 347.198L411.592 349.298C411.255 349.635 410.432 349.409 410.245 349.298L397.558 341.831C397.153 341.592 397.144 340.994 397.542 340.743L401.29 338.408Z" fill="#2CFFFC"/>
<path d="M409.036 333.744C409.541 333.407 410.187 333.62 410.383 333.744L415.479 336.953C415.878 337.205 415.867 337.806 415.459 338.042L411.73 340.143C411.393 340.48 410.57 340.253 410.383 340.143L405.304 337.167C404.899 336.928 404.89 336.33 405.288 336.079L409.036 333.744Z" fill="#2CFFFC"/>
<path d="M416.781 329.087C417.286 328.75 417.932 328.964 418.128 329.088L423.224 332.296C423.623 332.549 423.612 333.15 423.204 333.386L419.475 335.487C419.139 335.823 418.315 335.597 418.128 335.487L413.049 332.51C412.644 332.272 412.635 331.673 413.033 331.423L416.781 329.087Z" fill="#2CFFFC"/>
<path d="M455.512 400.697C456.017 400.36 456.663 400.573 456.859 400.697L461.955 403.906C462.354 404.158 462.343 404.759 461.935 404.995L458.206 407.096C457.87 407.433 457.046 407.206 456.859 407.096L451.78 404.12C451.375 403.881 451.366 403.283 451.764 403.032L455.512 400.697Z" fill="#4C78B7"/>
<path d="M455.705 391.658C456.211 391.321 456.856 391.534 457.053 391.658L469.701 399.248C470.1 399.5 470.089 400.102 469.681 400.338L465.952 402.438C465.615 402.775 464.792 402.549 464.605 402.438L451.973 395.081C451.568 394.842 451.559 394.244 451.957 393.993L455.705 391.658Z" fill="#4C78B7"/>
<path d="M463.61 387.064C464.115 386.727 464.761 386.94 464.957 387.064L477.606 394.654C478.005 394.907 477.993 395.508 477.586 395.744L473.857 397.845C473.52 398.181 472.697 397.955 472.51 397.845L459.878 390.487C459.473 390.248 459.464 389.65 459.862 389.399L463.61 387.064Z" fill="#4C78B7"/>
<path d="M478.749 386.72C479.254 386.383 479.9 386.597 480.096 386.721L485.192 389.929C485.591 390.181 485.58 390.783 485.172 391.019L481.443 393.119C481.106 393.456 480.283 393.23 480.096 393.119L475.016 390.143C474.612 389.905 474.603 389.306 475.001 389.055L478.749 386.72Z" fill="#4C78B7"/>
<path d="M486.495 382.064C487 381.727 487.646 381.94 487.842 382.064L492.938 385.273C493.337 385.525 493.326 386.126 492.918 386.363L489.189 388.463C488.852 388.8 488.029 388.573 487.842 388.463L482.763 385.487C482.358 385.248 482.349 384.65 482.747 384.399L486.495 382.064Z" fill="#4C78B7"/>
<path d="M494.241 377.396C494.746 377.059 495.391 377.272 495.588 377.396L500.684 380.605C501.082 380.857 501.071 381.458 500.663 381.695L496.935 383.795C496.598 384.132 495.775 383.905 495.588 383.795L490.508 380.819C490.103 380.58 490.095 379.982 490.492 379.731L494.241 377.396Z" fill="#4C78B7"/>
<path d="M447.767 395.822C448.272 395.485 448.918 395.698 449.114 395.822L454.21 399.031C454.609 399.283 454.598 399.884 454.19 400.12L450.461 402.221C450.124 402.558 449.301 402.331 449.114 402.221L444.035 399.245C443.63 399.006 443.621 398.408 444.019 398.157L447.767 395.822Z" fill="#4C78B7"/>
<path d="M471.003 381.849C471.508 381.512 472.153 381.725 472.35 381.85L477.446 385.058C477.845 385.31 477.834 385.911 477.426 386.148L473.697 388.248C473.36 388.585 472.537 388.358 472.35 388.248L467.27 385.272C466.866 385.034 466.857 384.435 467.254 384.184L471.003 381.849Z" fill="#4C78B7"/>
<path d="M478.749 377.189C479.254 376.852 479.9 377.065 480.096 377.189L485.192 380.398C485.591 380.65 485.58 381.251 485.172 381.488L481.443 383.588C481.106 383.925 480.283 383.698 480.096 383.588L475.016 380.612C474.612 380.373 474.603 379.775 475.001 379.524L478.749 377.189Z" fill="#4C78B7"/>
<path d="M486.495 372.533C487 372.196 487.646 372.409 487.842 372.533L492.938 375.742C493.337 375.994 493.326 376.595 492.918 376.831L489.189 378.932C488.852 379.269 488.029 379.042 487.842 378.932L482.763 375.956C482.358 375.717 482.349 375.119 482.747 374.868L486.495 372.533Z" fill="#4C78B7"/>
<path d="M440.019 390.955C440.525 390.618 441.17 390.831 441.367 390.955L446.462 394.164C446.861 394.416 446.85 395.017 446.442 395.253L442.714 397.354C442.377 397.69 441.554 397.464 441.367 397.354L436.287 394.377C435.882 394.139 435.873 393.541 436.271 393.29L440.019 390.955Z" fill="#4C78B7"/>
<path d="M447.767 386.294C448.272 385.957 448.918 386.171 449.114 386.295L454.21 389.503C454.609 389.756 454.598 390.357 454.19 390.593L450.461 392.694C450.124 393.03 449.301 392.804 449.114 392.694L444.035 389.717C443.63 389.479 443.621 388.88 444.019 388.63L447.767 386.294Z" fill="#4C78B7"/>
<path d="M455.512 381.642C456.017 381.305 456.663 381.518 456.859 381.643L461.955 384.851C462.354 385.103 462.343 385.704 461.935 385.941L458.206 388.041C457.87 388.378 457.046 388.151 456.859 388.041L451.78 385.065C451.375 384.827 451.366 384.228 451.764 383.977L455.512 381.642Z" fill="#4C78B7"/>
<path d="M463.257 376.978C463.762 376.641 464.407 376.854 464.604 376.979L469.7 380.187C470.099 380.439 470.087 381.04 469.68 381.277L465.951 383.377C465.614 383.714 464.791 383.487 464.604 383.377L459.524 380.401C459.119 380.162 459.111 379.564 459.508 379.313L463.257 376.978Z" fill="#4C78B7"/>
<path d="M471.003 372.314C471.508 371.977 472.153 372.19 472.35 372.314L477.446 375.523C477.845 375.775 477.834 376.376 477.426 376.613L473.697 378.713C473.36 379.05 472.537 378.823 472.35 378.713L467.27 375.737C466.866 375.498 466.857 374.9 467.254 374.649L471.003 372.314Z" fill="#4C78B7"/>
<path d="M478.749 367.654C479.254 367.317 479.9 367.53 480.096 367.654L485.192 370.863C485.591 371.115 485.58 371.716 485.172 371.952L481.443 374.053C481.106 374.39 480.283 374.163 480.096 374.053L475.016 371.077C474.612 370.838 474.603 370.24 475.001 369.989L478.749 367.654Z" fill="#4C78B7"/>
<path d="M408.943 371.755C409.448 371.418 410.094 371.632 410.29 371.756L438.716 389.295C439.115 389.547 439.104 390.148 438.696 390.384L434.968 392.485C434.631 392.821 433.808 392.595 433.621 392.485L405.211 375.178C404.806 374.94 404.797 374.341 405.195 374.091L408.943 371.755Z" fill="#4C78B7"/>
<path d="M440.019 381.427C440.525 381.09 441.17 381.304 441.367 381.428L446.462 384.636C446.861 384.888 446.85 385.49 446.442 385.726L442.714 387.826C442.377 388.163 441.554 387.937 441.367 387.826L436.287 384.85C435.882 384.612 435.873 384.013 436.271 383.762L440.019 381.427Z" fill="#4C78B7"/>
<path d="M447.767 376.767C448.272 376.43 448.918 376.643 449.114 376.768L454.21 379.976C454.609 380.228 454.598 380.829 454.19 381.066L450.461 383.166C450.124 383.503 449.301 383.276 449.114 383.166L444.035 380.19C443.63 379.952 443.621 379.353 444.019 379.102L447.767 376.767Z" fill="#4C78B7"/>
<path d="M455.512 372.107C456.017 371.77 456.663 371.983 456.859 372.107L461.955 375.316C462.354 375.568 462.343 376.169 461.935 376.406L458.206 378.506C457.87 378.843 457.046 378.616 456.859 378.506L451.78 375.53C451.375 375.291 451.366 374.693 451.764 374.442L455.512 372.107Z" fill="#4C78B7"/>
<path d="M463.257 367.447C463.762 367.11 464.407 367.323 464.604 367.447L469.7 370.656C470.099 370.908 470.087 371.509 469.68 371.745L465.951 373.846C465.614 374.183 464.791 373.956 464.604 373.846L459.524 370.87C459.119 370.631 459.111 370.033 459.508 369.782L463.257 367.447Z" fill="#4C78B7"/>
<path d="M471.003 362.783C471.508 362.446 472.153 362.659 472.35 362.783L477.446 365.992C477.845 366.244 477.834 366.845 477.426 367.081L473.697 369.182C473.36 369.519 472.537 369.292 472.35 369.182L467.27 366.206C466.866 365.967 466.857 365.369 467.254 365.118L471.003 362.783Z" fill="#4C78B7"/>
<path d="M432.274 376.552C432.779 376.215 433.425 376.429 433.621 376.553L438.717 379.761C439.116 380.013 439.105 380.615 438.697 380.851L434.969 382.951C434.632 383.288 433.809 383.062 433.621 382.951L428.542 379.975C428.137 379.737 428.128 379.138 428.526 378.887L432.274 376.552Z" fill="#4C78B7"/>
<path d="M440.019 371.892C440.525 371.555 441.17 371.768 441.367 371.893L446.462 375.101C446.861 375.353 446.85 375.954 446.442 376.191L442.714 378.291C442.377 378.628 441.554 378.401 441.367 378.291L436.287 375.315C435.882 375.077 435.873 374.478 436.271 374.227L440.019 371.892Z" fill="#4C78B7"/>
<path d="M447.767 367.232C448.272 366.895 448.918 367.108 449.114 367.232L454.21 370.441C454.609 370.693 454.598 371.294 454.19 371.531L450.461 373.631C450.124 373.968 449.301 373.741 449.114 373.631L444.035 370.655C443.63 370.416 443.621 369.818 444.019 369.567L447.767 367.232Z" fill="#4C78B7"/>
<path d="M455.512 362.576C456.017 362.239 456.663 362.452 456.859 362.576L461.955 365.785C462.354 366.037 462.343 366.638 461.935 366.874L458.206 368.975C457.87 369.312 457.046 369.085 456.859 368.975L451.78 365.999C451.375 365.76 451.366 365.162 451.764 364.911L455.512 362.576Z" fill="#4C78B7"/>
<path d="M463.257 357.916C463.762 357.578 464.407 357.792 464.604 357.916L469.7 361.125C470.099 361.377 470.087 361.978 469.68 362.214L465.951 364.315C465.614 364.651 464.791 364.425 464.604 364.315L459.524 361.338C459.119 361.1 459.111 360.502 459.508 360.251L463.257 357.916Z" fill="#4C78B7"/>
<path d="M424.529 371.685C425.034 371.348 425.68 371.561 425.876 371.686L430.972 374.894C431.371 375.146 431.36 375.747 430.952 375.984L427.223 378.084C426.887 378.421 426.063 378.194 425.876 378.084L420.797 375.108C420.392 374.869 420.383 374.271 420.781 374.02L424.529 371.685Z" fill="#4C78B7"/>
<path d="M432.274 367.025C432.779 366.688 433.425 366.901 433.621 367.025L438.717 370.234C439.116 370.486 439.105 371.087 438.697 371.324L434.969 373.424C434.632 373.761 433.809 373.534 433.621 373.424L428.542 370.448C428.137 370.209 428.128 369.611 428.526 369.36L432.274 367.025Z" fill="#4C78B7"/>
<path d="M440.019 362.365C440.525 362.028 441.17 362.241 441.367 362.365L446.462 365.574C446.861 365.826 446.85 366.427 446.442 366.663L442.714 368.764C442.377 369.101 441.554 368.874 441.367 368.764L436.287 365.788C435.882 365.549 435.873 364.951 436.271 364.7L440.019 362.365Z" fill="#4C78B7"/>
<path d="M447.767 357.704C448.272 357.367 448.918 357.581 449.114 357.705L454.21 360.913C454.609 361.165 454.598 361.767 454.19 362.003L450.461 364.103C450.124 364.44 449.301 364.214 449.114 364.103L444.035 361.127C443.63 360.889 443.621 360.29 444.019 360.039L447.767 357.704Z" fill="#4C78B7"/>
<path d="M455.512 353.048C456.017 352.711 456.663 352.925 456.859 353.049L461.955 356.257C462.354 356.509 462.343 357.111 461.935 357.347L458.206 359.447C457.87 359.784 457.046 359.558 456.859 359.447L451.78 356.471C451.375 356.233 451.366 355.634 451.764 355.383L455.512 353.048Z" fill="#4C78B7"/>
<path d="M416.781 366.81C417.286 366.473 417.932 366.686 418.128 366.811L423.224 370.019C423.623 370.271 423.612 370.872 423.204 371.109L419.475 373.209C419.139 373.546 418.315 373.319 418.128 373.209L413.049 370.233C412.644 369.994 412.635 369.396 413.033 369.145L416.781 366.81Z" fill="#4C78B7"/>
<path d="M424.529 362.15C425.034 361.813 425.68 362.026 425.876 362.15L430.972 365.359C431.371 365.611 431.36 366.212 430.952 366.449L427.223 368.549C426.887 368.886 426.063 368.659 425.876 368.549L420.797 365.573C420.392 365.334 420.383 364.736 420.781 364.485L424.529 362.15Z" fill="#4C78B7"/>
<path d="M432.274 357.494C432.779 357.157 433.425 357.37 433.621 357.494L438.717 360.703C439.116 360.955 439.105 361.556 438.697 361.792L434.969 363.893C434.632 364.23 433.809 364.003 433.621 363.893L428.542 360.917C428.137 360.678 428.128 360.08 428.526 359.829L432.274 357.494Z" fill="#4C78B7"/>
<path d="M440.019 352.83C440.525 352.493 441.17 352.706 441.367 352.83L446.462 356.039C446.861 356.291 446.85 356.892 446.442 357.128L442.714 359.229C442.377 359.565 441.554 359.339 441.367 359.229L436.287 356.252C435.882 356.014 435.873 355.416 436.271 355.165L440.019 352.83Z" fill="#4C78B7"/>
<path d="M447.767 348.173C448.272 347.836 448.918 348.05 449.114 348.174L454.21 351.382C454.609 351.634 454.598 352.236 454.19 352.472L450.461 354.572C450.124 354.909 449.301 354.683 449.114 354.572L444.035 351.596C443.63 351.358 443.621 350.759 444.019 350.508L447.767 348.173Z" fill="#4C78B7"/>
<path d="M401.29 366.603C401.796 366.266 402.441 366.479 402.637 366.604L407.733 369.812C408.132 370.064 408.121 370.665 407.713 370.902L403.985 373.002C403.648 373.339 402.825 373.112 402.637 373.002L397.558 370.026C397.153 369.787 397.144 369.189 397.542 368.938L401.29 366.603Z" fill="#4C78B7"/>
<path d="M409.036 361.939C409.541 361.602 410.187 361.815 410.383 361.939L415.479 365.148C415.878 365.4 415.867 366.001 415.459 366.238L411.73 368.338C411.393 368.675 410.57 368.448 410.383 368.338L405.304 365.362C404.899 365.123 404.89 364.525 405.288 364.274L409.036 361.939Z" fill="#4C78B7"/>
<path d="M416.781 357.279C417.286 356.942 417.932 357.155 418.128 357.279L423.224 360.488C423.623 360.74 423.612 361.341 423.204 361.577L419.475 363.678C419.139 364.015 418.315 363.788 418.128 363.678L413.049 360.702C412.644 360.463 412.635 359.865 413.033 359.614L416.781 357.279Z" fill="#4C78B7"/>
<path d="M424.529 352.626C425.034 352.289 425.68 352.503 425.876 352.627L430.972 355.835C431.371 356.088 431.36 356.689 430.952 356.925L427.223 359.026C426.887 359.362 426.063 359.136 425.876 359.026L420.797 356.049C420.392 355.811 420.383 355.212 420.781 354.962L424.529 352.626Z" fill="#4C78B7"/>
<path d="M432.274 347.962C432.779 347.625 433.425 347.839 433.621 347.963L438.717 351.171C439.116 351.424 439.105 352.025 438.697 352.261L434.969 354.362C434.632 354.698 433.809 354.472 433.621 354.362L428.542 351.385C428.137 351.147 428.128 350.548 428.526 350.298L432.274 347.962Z" fill="#4C78B7"/>
<path d="M440.019 343.306C440.525 342.969 441.17 343.182 441.367 343.307L446.462 346.515C446.861 346.767 446.85 347.369 446.442 347.605L442.714 349.705C442.377 350.042 441.554 349.816 441.367 349.705L436.287 346.729C435.882 346.491 435.873 345.892 436.271 345.641L440.019 343.306Z" fill="#4C78B7"/>
<path d="M393.544 361.736C394.049 361.399 394.695 361.612 394.891 361.736L399.987 364.945C400.386 365.197 400.375 365.798 399.967 366.035L396.239 368.135C395.902 368.472 395.079 368.245 394.891 368.135L389.812 365.159C389.407 364.92 389.398 364.322 389.796 364.071L393.544 361.736Z" fill="#4C78B7"/>
<path d="M409.036 352.408C409.541 352.071 410.187 352.284 410.383 352.408L415.479 355.617C415.878 355.869 415.867 356.47 415.459 356.706L411.73 358.807C411.393 359.144 410.57 358.917 410.383 358.807L405.304 355.831C404.899 355.592 404.89 354.994 405.288 354.743L409.036 352.408Z" fill="#4C78B7"/>
<path d="M416.781 347.751C417.286 347.414 417.932 347.628 418.128 347.752L423.224 350.96C423.623 351.213 423.612 351.814 423.204 352.05L419.475 354.151C419.139 354.487 418.315 354.261 418.128 354.151L413.049 351.174C412.644 350.936 412.635 350.337 413.033 350.087L416.781 347.751Z" fill="#4C78B7"/>
<path d="M424.529 343.099C425.034 342.762 425.68 342.975 425.876 343.1L430.972 346.308C431.371 346.56 431.36 347.161 430.952 347.398L427.223 349.498C426.887 349.835 426.063 349.608 425.876 349.498L420.797 346.522C420.392 346.284 420.383 345.685 420.781 345.434L424.529 343.099Z" fill="#4C78B7"/>
<path d="M432.274 338.435C432.779 338.098 433.425 338.311 433.621 338.436L438.717 341.644C439.116 341.896 439.105 342.497 438.697 342.734L434.969 344.834C434.632 345.171 433.809 344.944 433.621 344.834L428.542 341.858C428.137 341.619 428.128 341.021 428.526 340.77L432.274 338.435Z" fill="#4C78B7"/>
<path d="M385.798 356.857C386.303 356.52 386.949 356.733 387.145 356.857L392.241 360.066C392.64 360.318 392.629 360.919 392.221 361.156L388.492 363.256C388.156 363.593 387.332 363.366 387.145 363.256L382.066 360.28C381.661 360.041 381.652 359.443 382.05 359.192L385.798 356.857Z" fill="#4C78B7"/>
<path d="M416.781 338.22C417.286 337.883 417.932 338.097 418.128 338.221L423.224 341.429C423.623 341.682 423.612 342.283 423.204 342.519L419.475 344.62C419.139 344.956 418.315 344.73 418.128 344.62L413.049 341.643C412.644 341.405 412.635 340.806 413.033 340.556L416.781 338.22Z" fill="#4C78B7"/>
<path d="M424.529 333.564C425.034 333.227 425.68 333.44 425.876 333.564L430.972 336.773C431.371 337.025 431.36 337.626 430.952 337.863L427.223 339.963C426.887 340.3 426.063 340.073 425.876 339.963L420.797 336.987C420.392 336.748 420.383 336.15 420.781 335.899L424.529 333.564Z" fill="#4C78B7"/>
<path d="M378.052 351.99C378.557 351.653 379.203 351.866 379.399 351.99L384.495 355.199C384.894 355.451 384.883 356.052 384.475 356.288L380.746 358.389C380.41 358.726 379.586 358.499 379.399 358.389L374.32 355.413C373.915 355.174 373.906 354.576 374.304 354.325L378.052 351.99Z" fill="#4C78B7"/>
<path d="M385.798 347.326C386.303 346.989 386.949 347.202 387.145 347.326L407.214 359.803C407.613 360.055 407.602 360.656 407.194 360.892L403.466 362.993C403.129 363.33 402.306 363.103 402.118 362.993L382.066 350.749C381.661 350.51 381.652 349.912 382.05 349.661L385.798 347.326Z" fill="#4C78B7"/>
<path d="M393.544 342.673C394.049 342.336 394.695 342.55 394.891 342.674L407.414 350.414C407.813 350.666 407.802 351.267 407.394 351.503L403.665 353.604C403.329 353.941 402.505 353.714 402.318 353.604L389.812 346.096C389.407 345.858 389.398 345.259 389.796 345.009L393.544 342.673Z" fill="#4C78B7"/>
<path d="M401.29 338.013C401.796 337.676 402.441 337.89 402.638 338.014L415.341 345.714C415.74 345.966 415.728 346.567 415.321 346.803L411.592 348.904C411.255 349.241 410.432 349.014 410.245 348.904L397.558 341.436C397.153 341.198 397.144 340.599 397.542 340.348L401.29 338.013Z" fill="#4C78B7"/>
<path d="M409.036 333.349C409.541 333.012 410.187 333.225 410.383 333.35L415.479 336.558C415.878 336.81 415.867 337.411 415.459 337.648L411.73 339.748C411.393 340.085 410.57 339.858 410.383 339.748L405.304 336.772C404.899 336.534 404.89 335.935 405.288 335.684L409.036 333.349Z" fill="#4C78B7"/>
<path d="M416.781 328.693C417.286 328.356 417.932 328.569 418.128 328.693L423.224 331.902C423.623 332.154 423.612 332.755 423.204 332.992L419.475 335.092C419.139 335.429 418.315 335.202 418.128 335.092L413.049 332.116C412.644 331.877 412.635 331.279 413.033 331.028L416.781 328.693Z" fill="#4C78B7"/>
<path d="M392.301 375.712C394.587 374.177 397.509 375.149 398.398 375.714L421.461 390.331C423.267 391.479 423.217 394.218 421.371 395.295L404.495 404.864C402.971 406.398 399.245 405.366 398.398 404.864L375.408 391.305C373.576 390.219 373.537 387.493 375.337 386.35L392.301 375.712Z" fill="#4C78B7"/>
<path d="M417.13 229.183C417.687 221.282 426.498 216.868 433.145 221.161L521.87 279.436H521.871C524.944 281.42 526.75 284.875 526.629 288.535L523.967 368.688V368.691C523.967 373.972 522.554 377.612 520.319 379.421C518.096 381.221 515.017 381.236 511.604 379.179L416.351 321.012V321.011L416.041 320.816C412.882 318.758 411.074 315.138 411.341 311.354L417.13 229.183Z" fill="#1E4780" stroke="#4C78B7" stroke-width="0.244271"/>
<mask id="mask0_3_1582" style="mask-type:alpha" maskUnits="userSpaceOnUse" x="417" y="226" width="104" height="147">
<path d="M417.613 310.064C417.365 313.566 419.106 316.91 422.119 318.721L506.811 370.27C513.541 373.475 517.966 375.274 517.966 360.884L520.333 289.852C520.442 286.571 518.305 284.3 515.54 282.52L436.654 230.877C425.872 222.977 422.76 227.948 422.76 237.241L417.613 310.064Z" fill="#162D55"/>
</mask>
<g mask="url(#mask0_3_1582)">
<path d="M417.613 310.064C417.365 313.566 419.106 316.91 422.119 318.721L506.811 370.27C513.541 373.475 517.966 375.274 517.966 360.884L520.333 289.852C520.442 286.571 518.305 284.3 515.54 282.52L436.654 230.877C425.872 222.977 422.76 227.948 422.76 237.241L417.613 310.064Z" fill="#162D55"/>
<path opacity="0.2" d="M521.975 381.859C518.681 383.875 514.535 383.874 511.243 381.855L418.619 325.069C412.039 321.035 412.116 311.501 418.64 307.54L418.955 307.356L486.397 269.361C487.964 268.481 490.495 268.028 493.039 268.025C495.584 268.023 498.111 268.469 499.67 269.36L591.016 321.762C597.798 325.637 597.944 335.366 591.281 339.443L521.975 381.859Z" fill="#1E4780" stroke="#4C78B7" stroke-width="0.244271"/>
<g opacity="0.2">
<path d="M477.4 298.413C476.894 298.75 476.249 298.536 476.052 298.412L470.957 295.204C470.558 294.951 470.569 294.35 470.977 294.114L474.705 292.013C475.042 291.677 475.865 291.903 476.052 292.013L481.132 294.99C481.537 295.228 481.546 295.827 481.148 296.077L477.4 298.413Z" fill="#4C78B7"/>
<path d="M477.206 307.452C476.701 307.789 476.056 307.575 475.859 307.451L463.211 299.861C462.812 299.609 462.823 299.008 463.231 298.771L466.96 296.671C467.296 296.334 468.119 296.561 468.307 296.671L480.939 304.029C481.343 304.267 481.352 304.866 480.955 305.116L477.206 307.452Z" fill="#4C78B7"/>
<path d="M469.301 312.045C468.796 312.382 468.151 312.169 467.954 312.045L455.306 304.455C454.907 304.203 454.918 303.602 455.326 303.365L459.055 301.265C459.392 300.928 460.215 301.155 460.402 301.265L473.034 308.623C473.439 308.861 473.447 309.459 473.05 309.71L469.301 312.045Z" fill="#4C78B7"/>
<path d="M454.163 312.389C453.658 312.726 453.012 312.513 452.816 312.389L447.72 309.18C447.321 308.928 447.332 308.327 447.74 308.09L451.469 305.99C451.805 305.653 452.628 305.88 452.816 305.99L457.895 308.966C458.3 309.205 458.309 309.803 457.911 310.054L454.163 312.389Z" fill="#4C78B7"/>
<path d="M446.417 317.045C445.911 317.382 445.266 317.169 445.07 317.045L439.974 313.836C439.575 313.584 439.586 312.983 439.994 312.747L443.722 310.646C444.059 310.31 444.882 310.536 445.07 310.646L450.149 313.623C450.554 313.861 450.563 314.459 450.165 314.71L446.417 317.045Z" fill="#4C78B7"/>
<path d="M438.671 321.713C438.166 322.05 437.52 321.837 437.324 321.713L432.228 318.504C431.829 318.252 431.84 317.651 432.248 317.415L435.977 315.314C436.314 314.977 437.137 315.204 437.324 315.314L442.403 318.291C442.808 318.529 442.817 319.127 442.419 319.378L438.671 321.713Z" fill="#4C78B7"/>
<path d="M485.146 303.288C484.641 303.625 483.996 303.411 483.799 303.287L478.703 300.079C478.304 299.826 478.315 299.225 478.723 298.989L482.452 296.888C482.789 296.552 483.612 296.778 483.799 296.888L488.879 299.865C489.283 300.103 489.292 300.702 488.894 300.952L485.146 303.288Z" fill="#4C78B7"/>
<path d="M461.909 317.26C461.404 317.597 460.758 317.384 460.562 317.26L455.466 314.051C455.067 313.799 455.078 313.198 455.486 312.962L459.215 310.861C459.551 310.524 460.375 310.751 460.562 310.861L465.641 313.837C466.046 314.076 466.055 314.674 465.657 314.925L461.909 317.26Z" fill="#4C78B7"/>
<path d="M454.163 321.92C453.658 322.257 453.012 322.044 452.816 321.92L447.72 318.711C447.321 318.459 447.332 317.858 447.74 317.622L451.469 315.521C451.805 315.185 452.628 315.411 452.816 315.521L457.895 318.498C458.3 318.736 458.309 319.334 457.911 319.585L454.163 321.92Z" fill="#4C78B7"/>
<path d="M446.417 326.577C445.911 326.914 445.266 326.7 445.07 326.576L439.974 323.368C439.575 323.116 439.586 322.514 439.994 322.278L443.722 320.178C444.059 319.841 444.882 320.067 445.07 320.178L450.149 323.154C450.554 323.392 450.563 323.991 450.165 324.242L446.417 326.577Z" fill="#4C78B7"/>
<path d="M492.893 308.155C492.388 308.492 491.742 308.278 491.546 308.154L486.45 304.946C486.051 304.694 486.062 304.092 486.47 303.856L490.198 301.756C490.535 301.419 491.358 301.645 491.546 301.756L496.625 304.732C497.03 304.97 497.039 305.569 496.641 305.82L492.893 308.155Z" fill="#4C78B7"/>
<path d="M485.146 312.815C484.641 313.152 483.996 312.939 483.799 312.814L478.703 309.606C478.304 309.354 478.315 308.753 478.723 308.516L482.452 306.416C482.789 306.079 483.612 306.306 483.799 306.416L488.879 309.392C489.283 309.631 489.292 310.229 488.894 310.48L485.146 312.815Z" fill="#4C78B7"/>
<path d="M477.4 317.467C476.894 317.804 476.249 317.591 476.052 317.467L470.957 314.258C470.558 314.006 470.569 313.405 470.977 313.169L474.705 311.068C475.042 310.731 475.865 310.958 476.052 311.068L481.132 314.044C481.537 314.283 481.546 314.881 481.148 315.132L477.4 317.467Z" fill="#4C78B7"/>
<path d="M469.655 322.131C469.15 322.468 468.504 322.255 468.308 322.131L463.212 318.922C462.813 318.67 462.824 318.069 463.232 317.833L466.961 315.732C467.297 315.395 468.121 315.622 468.308 315.732L473.387 318.708C473.792 318.947 473.801 319.545 473.403 319.796L469.655 322.131Z" fill="#4C78B7"/>
<path d="M461.909 326.795C461.404 327.132 460.758 326.919 460.562 326.795L455.466 323.586C455.067 323.334 455.078 322.733 455.486 322.497L459.215 320.396C459.551 320.06 460.375 320.286 460.562 320.396L465.641 323.373C466.046 323.611 466.055 324.209 465.657 324.46L461.909 326.795Z" fill="#4C78B7"/>
<path d="M454.163 331.456C453.658 331.793 453.012 331.579 452.816 331.455L447.72 328.247C447.321 327.994 447.332 327.393 447.74 327.157L451.469 325.056C451.805 324.72 452.628 324.946 452.816 325.056L457.895 328.033C458.3 328.271 458.309 328.87 457.911 329.12L454.163 331.456Z" fill="#4C78B7"/>
<path d="M523.968 327.354C523.463 327.691 522.818 327.478 522.621 327.353L494.195 309.815C493.796 309.563 493.807 308.961 494.215 308.725L497.944 306.625C498.281 306.288 499.104 306.515 499.291 306.625L527.701 323.931C528.106 324.17 528.114 324.768 527.717 325.019L523.968 327.354Z" fill="#4C78B7"/>
<path d="M492.893 317.682C492.388 318.019 491.742 317.806 491.546 317.682L486.45 314.473C486.051 314.221 486.062 313.62 486.47 313.383L490.198 311.283C490.535 310.946 491.358 311.173 491.546 311.283L496.625 314.259C497.03 314.498 497.039 315.096 496.641 315.347L492.893 317.682Z" fill="#4C78B7"/>
<path d="M485.146 322.342C484.641 322.679 483.996 322.466 483.799 322.342L478.703 319.133C478.304 318.881 478.315 318.28 478.723 318.044L482.452 315.943C482.789 315.606 483.612 315.833 483.799 315.943L488.879 318.919C489.283 319.158 489.292 319.756 488.894 320.007L485.146 322.342Z" fill="#4C78B7"/>
<path d="M477.4 327.002C476.894 327.339 476.249 327.126 476.052 327.002L470.957 323.793C470.558 323.541 470.569 322.94 470.977 322.704L474.705 320.603C475.042 320.267 475.865 320.493 476.052 320.603L481.132 323.58C481.537 323.818 481.546 324.416 481.148 324.667L477.4 327.002Z" fill="#4C78B7"/>
<path d="M469.655 331.663C469.15 332 468.504 331.786 468.308 331.662L463.212 328.454C462.813 328.201 462.824 327.6 463.232 327.364L466.961 325.263C467.297 324.927 468.121 325.153 468.308 325.263L473.387 328.24C473.792 328.478 473.801 329.077 473.403 329.327L469.655 331.663Z" fill="#4C78B7"/>
<path d="M461.909 336.327C461.404 336.664 460.758 336.45 460.562 336.326L455.466 333.118C455.067 332.866 455.078 332.264 455.486 332.028L459.215 329.928C459.551 329.591 460.375 329.817 460.562 329.928L465.641 332.904C466.046 333.142 466.055 333.741 465.657 333.992L461.909 336.327Z" fill="#4C78B7"/>
<path d="M500.638 322.557C500.133 322.894 499.488 322.681 499.291 322.557L494.195 319.348C493.796 319.096 493.808 318.495 494.215 318.258L497.944 316.158C498.281 315.821 499.104 316.048 499.291 316.158L504.371 319.134C504.776 319.373 504.784 319.971 504.387 320.222L500.638 322.557Z" fill="#4C78B7"/>
<path d="M492.893 327.217C492.388 327.554 491.742 327.341 491.546 327.217L486.45 324.008C486.051 323.756 486.062 323.155 486.47 322.919L490.198 320.818C490.535 320.481 491.358 320.708 491.546 320.818L496.625 323.794C497.03 324.033 497.039 324.631 496.641 324.882L492.893 327.217Z" fill="#4C78B7"/>
<path d="M485.146 331.877C484.641 332.214 483.996 332.001 483.799 331.877L478.703 328.668C478.304 328.416 478.315 327.815 478.723 327.579L482.452 325.478C482.789 325.142 483.612 325.368 483.799 325.478L488.879 328.455C489.283 328.693 489.292 329.291 488.894 329.542L485.146 331.877Z" fill="#4C78B7"/>
<path d="M477.4 336.534C476.894 336.871 476.249 336.657 476.052 336.533L470.957 333.325C470.558 333.073 470.569 332.471 470.977 332.235L474.705 330.135C475.042 329.798 475.865 330.024 476.052 330.135L481.132 333.111C481.537 333.349 481.546 333.948 481.148 334.199L477.4 336.534Z" fill="#4C78B7"/>
<path d="M469.655 341.194C469.15 341.531 468.504 341.318 468.308 341.193L463.212 337.985C462.813 337.733 462.824 337.131 463.232 336.895L466.961 334.795C467.297 334.458 468.121 334.684 468.308 334.795L473.387 337.771C473.792 338.009 473.801 338.608 473.403 338.859L469.655 341.194Z" fill="#4C78B7"/>
<path d="M508.383 327.424C507.878 327.761 507.232 327.548 507.036 327.424L501.94 324.215C501.541 323.963 501.552 323.362 501.96 323.126L505.689 321.025C506.026 320.688 506.849 320.915 507.036 321.025L512.115 324.001C512.52 324.24 512.529 324.838 512.131 325.089L508.383 327.424Z" fill="#4C78B7"/>
<path d="M500.638 332.084C500.133 332.422 499.488 332.208 499.291 332.084L494.195 328.875C493.796 328.623 493.808 328.022 494.215 327.786L497.944 325.685C498.281 325.349 499.104 325.575 499.291 325.685L504.371 328.662C504.776 328.9 504.784 329.498 504.387 329.749L500.638 332.084Z" fill="#4C78B7"/>
<path d="M492.893 336.745C492.388 337.082 491.742 336.868 491.546 336.744L486.45 333.536C486.051 333.284 486.062 332.682 486.47 332.446L490.198 330.345C490.535 330.009 491.358 330.235 491.546 330.345L496.625 333.322C497.03 333.56 497.039 334.159 496.641 334.409L492.893 336.745Z" fill="#4C78B7"/>
<path d="M485.146 341.405C484.641 341.742 483.996 341.529 483.799 341.405L478.703 338.196C478.304 337.944 478.315 337.343 478.723 337.106L482.452 335.006C482.789 334.669 483.612 334.896 483.799 335.006L488.879 337.982C489.283 338.221 489.292 338.819 488.894 339.07L485.146 341.405Z" fill="#4C78B7"/>
<path d="M477.4 346.061C476.894 346.398 476.249 346.185 476.052 346.061L470.957 342.852C470.558 342.6 470.569 341.999 470.977 341.762L474.705 339.662C475.042 339.325 475.865 339.552 476.052 339.662L481.132 342.638C481.537 342.877 481.546 343.475 481.148 343.726L477.4 346.061Z" fill="#4C78B7"/>
<path d="M516.131 332.299C515.625 332.636 514.98 332.423 514.783 332.299L509.688 329.09C509.289 328.838 509.3 328.237 509.708 328.001L513.436 325.9C513.773 325.563 514.596 325.79 514.783 325.9L519.863 328.876C520.268 329.115 520.276 329.713 519.879 329.964L516.131 332.299Z" fill="#4C78B7"/>
<path d="M508.383 336.959C507.878 337.297 507.232 337.083 507.036 336.959L501.94 333.75C501.541 333.498 501.552 332.897 501.96 332.661L505.689 330.56C506.026 330.224 506.849 330.45 507.036 330.56L512.115 333.537C512.52 333.775 512.529 334.373 512.131 334.624L508.383 336.959Z" fill="#4C78B7"/>
<path d="M500.638 341.616C500.133 341.953 499.488 341.739 499.291 341.615L494.195 338.407C493.796 338.155 493.808 337.553 494.215 337.317L497.944 335.217C498.281 334.88 499.104 335.106 499.291 335.217L504.371 338.193C504.776 338.431 504.784 339.03 504.387 339.281L500.638 341.616Z" fill="#4C78B7"/>
<path d="M492.893 346.28C492.388 346.617 491.742 346.403 491.546 346.279L486.45 343.071C486.051 342.819 486.062 342.217 486.47 341.981L490.198 339.881C490.535 339.544 491.358 339.77 491.546 339.881L496.625 342.857C497.03 343.095 497.039 343.694 496.641 343.945L492.893 346.28Z" fill="#4C78B7"/>
<path d="M485.146 350.936C484.641 351.273 483.996 351.06 483.799 350.936L478.703 347.727C478.304 347.475 478.315 346.874 478.723 346.637L482.452 344.537C482.789 344.2 483.612 344.427 483.799 344.537L488.879 347.513C489.283 347.752 489.292 348.35 488.894 348.601L485.146 350.936Z" fill="#4C78B7"/>
<path d="M523.877 337.17C523.372 337.507 522.726 337.294 522.53 337.17L517.434 333.961C517.035 333.709 517.046 333.108 517.454 332.872L521.183 330.771C521.52 330.435 522.343 330.661 522.53 330.771L527.61 333.748C528.014 333.986 528.023 334.584 527.625 334.835L523.877 337.17Z" fill="#4C78B7"/>
<path d="M516.131 341.831C515.625 342.168 514.98 341.954 514.783 341.83L509.688 338.622C509.289 338.369 509.3 337.768 509.708 337.532L513.436 335.431C513.773 335.095 514.596 335.321 514.783 335.431L519.863 338.408C520.268 338.646 520.276 339.245 519.879 339.495L516.131 341.831Z" fill="#4C78B7"/>
<path d="M508.383 346.483C507.878 346.82 507.232 346.607 507.036 346.482L501.94 343.274C501.541 343.022 501.552 342.421 501.96 342.184L505.689 340.084C506.026 339.747 506.849 339.974 507.036 340.084L512.115 343.06C512.52 343.298 512.529 343.897 512.131 344.148L508.383 346.483Z" fill="#4C78B7"/>
<path d="M500.638 351.147C500.133 351.484 499.488 351.271 499.291 351.146L494.195 347.938C493.796 347.686 493.808 347.085 494.215 346.848L497.944 344.748C498.281 344.411 499.104 344.638 499.291 344.748L504.371 347.724C504.776 347.963 504.784 348.561 504.387 348.812L500.638 351.147Z" fill="#4C78B7"/>
<path d="M492.893 355.803C492.388 356.14 491.742 355.927 491.546 355.803L486.45 352.594C486.051 352.342 486.062 351.741 486.47 351.505L490.198 349.404C490.535 349.067 491.358 349.294 491.546 349.404L496.625 352.38C497.03 352.619 497.039 353.217 496.641 353.468L492.893 355.803Z" fill="#4C78B7"/>
<path d="M523.877 346.702C523.372 347.039 522.726 346.825 522.53 346.701L517.434 343.493C517.035 343.241 517.046 342.639 517.454 342.403L521.183 340.303C521.52 339.966 522.343 340.192 522.53 340.303L527.61 343.279C528.014 343.517 528.023 344.116 527.625 344.367L523.877 346.702Z" fill="#4C78B7"/>
<path d="M516.131 351.358C515.625 351.695 514.98 351.482 514.783 351.357L509.688 348.149C509.289 347.897 509.3 347.296 509.708 347.059L513.436 344.959C513.773 344.622 514.596 344.849 514.783 344.959L519.863 347.935C520.268 348.173 520.276 348.772 519.879 349.023L516.131 351.358Z" fill="#4C78B7"/>
<path d="M508.383 356.01C507.878 356.347 507.232 356.134 507.036 356.01L501.94 352.801C501.541 352.549 501.552 351.948 501.96 351.712L505.689 349.611C506.026 349.274 506.849 349.501 507.036 349.611L512.115 352.587C512.52 352.826 512.529 353.424 512.131 353.675L508.383 356.01Z" fill="#4C78B7"/>
<path d="M500.638 360.674C500.133 361.011 499.488 360.798 499.291 360.674L494.195 357.465C493.796 357.213 493.808 356.612 494.215 356.376L497.944 354.275C498.281 353.938 499.104 354.165 499.291 354.275L504.371 357.251C504.776 357.49 504.784 358.088 504.387 358.339L500.638 360.674Z" fill="#4C78B7"/>
<path d="M516.131 360.889C515.625 361.226 514.98 361.013 514.783 360.888L509.688 357.68C509.289 357.428 509.3 356.827 509.708 356.59L513.436 354.49C513.773 354.153 514.596 354.38 514.783 354.49L519.863 357.466C520.268 357.704 520.276 358.303 519.879 358.554L516.131 360.889Z" fill="#4C78B7"/>
<path d="M508.383 365.545C507.878 365.882 507.232 365.669 507.036 365.545L501.94 362.336C501.541 362.084 501.552 361.483 501.96 361.247L505.689 359.146C506.026 358.81 506.849 359.036 507.036 359.146L512.115 362.123C512.52 362.361 512.529 362.959 512.131 363.21L508.383 365.545Z" fill="#4C78B7"/>
<path d="M531.622 361.096C531.117 361.433 530.471 361.22 530.275 361.096L517.572 353.396C517.173 353.144 517.184 352.542 517.592 352.306L521.32 350.206C521.657 349.869 522.48 350.095 522.667 350.206L535.354 357.673C535.759 357.912 535.768 358.51 535.37 358.761L531.622 361.096Z" fill="#4C78B7"/>
<path d="M523.877 365.76C523.372 366.097 522.726 365.884 522.53 365.76L517.434 362.551C517.035 362.299 517.046 361.698 517.454 361.462L521.183 359.361C521.52 359.024 522.343 359.251 522.53 359.361L527.61 362.337C528.014 362.576 528.023 363.174 527.625 363.425L523.877 365.76Z" fill="#4C78B7"/>
<path d="M516.131 370.417C515.625 370.754 514.98 370.54 514.783 370.416L509.688 367.207C509.289 366.955 509.3 366.354 509.708 366.118L513.436 364.017C513.773 363.681 514.596 363.907 514.783 364.017L519.863 366.994C520.268 367.232 520.276 367.83 519.879 368.081L516.131 370.417Z" fill="#4C78B7"/>
</g>
<path opacity="0.2" d="M540.609 323.405C538.323 324.941 535.401 323.969 534.512 323.403L511.449 308.786C509.643 307.638 509.693 304.899 511.54 303.822L528.415 294.254C529.939 292.719 533.665 293.751 534.512 294.254L557.502 307.812C559.334 308.898 559.373 311.624 557.574 312.767L540.609 323.405Z" fill="#4C78B7"/>
<path d="M466.019 282.074L459.861 278.506L460.081 277.149L466.24 280.717L466.019 282.074Z" fill="#33E6BF"/>
<path d="M469.179 283.918L466.961 282.633L467.181 281.276L469.399 282.561L469.179 283.918Z" fill="#33E6BF"/>
<path d="M471.627 285.324L470.12 284.451L470.34 283.094L471.847 283.967L471.627 285.324Z" fill="#33E6BF"/>
<path d="M462.715 283.547L459.359 281.603L459.579 280.246L462.935 282.19L462.715 283.547Z" fill="#33E6BF"/>
<path d="M467.768 286.484L463.655 284.102L463.876 282.744L467.988 285.127L467.768 286.484Z" fill="#33E6BF"/>
<path d="M470.216 287.906L468.709 287.033L468.929 285.676L470.436 286.549L470.216 287.906Z" fill="#33E6BF"/>
<path d="M472.546 289.254L471.039 288.381L471.259 287.024L472.766 287.897L472.546 289.254Z" fill="#33E6BF"/>
<path d="M461.283 286.121L458.855 284.714L459.075 283.357L461.503 284.764L461.283 286.121Z" fill="#33E6BF"/>
<path d="M463.054 287.145L462.225 286.664L462.445 285.306L463.274 285.787L463.054 287.145Z" fill="#33E6BF"/>
<path d="M465.503 288.555L463.996 287.682L464.216 286.324L465.723 287.197L465.503 288.555Z" fill="#33E6BF"/>
<path d="M467.315 293.004L458.353 287.812L458.573 286.455L467.535 291.647L467.315 293.004Z" fill="#33E6BF"/>
<path d="M470.474 294.824L468.257 293.54L468.477 292.182L470.694 293.467L470.474 294.824Z" fill="#33E6BF"/>
<path d="M460.28 292.312L457.851 290.906L458.071 289.549L460.5 290.955L460.28 292.312Z" fill="#33E6BF"/>
<path d="M465.976 295.625L461.219 292.869L461.439 291.511L466.196 294.268L465.976 295.625Z" fill="#33E6BF"/>
<path d="M468.425 297.035L466.918 296.162L467.138 294.805L468.645 295.678L468.425 297.035Z" fill="#33E6BF"/>
<path d="M462.317 296.883L457.349 294.005L457.569 292.647L462.537 295.525L462.317 296.883Z" fill="#33E6BF"/>
<path d="M466.85 299.512L463.257 297.43L463.477 296.073L467.07 298.154L466.85 299.512Z" fill="#33E6BF"/>
<path d="M470.219 301.461L467.791 300.053L468.011 298.696L470.439 300.103L470.219 301.461Z" fill="#33E6BF"/>
<path d="M458.523 298.086L456.845 297.114L457.066 295.756L458.743 296.729L458.523 298.086Z" fill="#33E6BF"/>
<path d="M461.683 299.914L459.466 298.629L459.686 297.272L461.903 298.557L461.683 299.914Z" fill="#33E6BF"/>
<path d="M466.197 302.531L462.624 300.462L462.844 299.104L466.417 301.174L466.197 302.531Z" fill="#33E6BF"/>
<path d="M461.483 303.188L456.344 300.209L456.563 298.852L461.703 301.83L461.483 303.188Z" fill="#33E6BF"/>
<path d="M467.24 306.531L462.425 303.741L462.645 302.384L467.46 305.174L467.24 306.531Z" fill="#33E6BF"/>
<path d="M469.688 307.945L468.182 307.072L468.402 305.715L469.908 306.588L469.688 307.945Z" fill="#33E6BF"/>
<path d="M472.036 309.309L470.53 308.436L470.75 307.078L472.256 307.951L472.036 309.309Z" fill="#33E6BF"/>
<path d="M458.92 305.098L455.84 303.314L456.06 301.956L459.14 303.74L458.92 305.098Z" fill="#33E6BF"/>
<path d="M475.82 287.764L480.091 290.238L480.311 288.881L476.04 286.407L475.82 287.764Z" fill="#33E6BF"/>
<path d="M476.232 291.388L479.588 293.332L479.808 291.975L476.452 290.031L476.232 291.388Z" fill="#33E6BF"/>
<path d="M476.657 295.019L479.085 296.426L479.306 295.069L476.877 293.661L476.657 295.019Z" fill="#33E6BF"/>
<path d="M475.051 297.485L478.583 299.531L478.803 298.174L475.271 296.128L475.051 297.485Z" fill="#33E6BF"/>
<path d="M475.653 301.218L478.082 302.625L478.302 301.267L475.873 299.861L475.653 301.218Z" fill="#33E6BF"/>
<path d="M474.498 303.95L477.578 305.734L477.798 304.377L474.718 302.593L474.498 303.95Z" fill="#33E6BF"/>
<path d="M475.396 307.864L477.074 308.836L477.294 307.479L475.616 306.507L475.396 307.864Z" fill="#33E6BF"/>
<path d="M473.32 310.042L476.572 311.926L476.792 310.569L473.54 308.684L473.32 310.042Z" fill="#33E6BF"/>
<path d="M472.99 313.247L476.069 315.031L476.29 313.674L473.211 311.89L472.99 313.247Z" fill="#33E6BF"/>
<path d="M461.171 306.402L459.862 305.643L460.082 304.286L461.391 305.044L461.171 306.402Z" fill="#33E6BF"/>
<path d="M465.059 308.656L462.112 306.948L462.332 305.591L465.279 307.299L465.059 308.656Z" fill="#33E6BF"/>
<path d="M466.036 319.082L461.062 316.2L461.282 314.842L466.256 317.725L466.036 319.082Z" fill="#33E6BF"/>
<path d="M469.443 321.059L467.483 319.923L467.703 318.566L469.663 319.701L469.443 321.059Z" fill="#33E6BF"/>
<path d="M446.695 262.554C447.154 262.25 447.786 262.154 448.672 262.397C449.563 262.642 450.683 263.224 452.072 264.235L452.086 264.245L493.162 290.959L493.164 290.96C494.577 291.863 495.571 292.956 495.52 294.488L494.287 331.232V331.242C494.287 333.093 494.143 334.397 493.884 335.29C493.625 336.182 493.266 336.618 492.868 336.811C492.462 337.007 491.935 336.992 491.251 336.795C490.572 336.599 489.797 336.243 488.92 335.828L444.84 309.173L444.838 309.172C443.366 308.293 442.518 306.671 442.639 304.975L445.318 267.305L445.319 267.294V267.283C445.319 266.095 445.42 265.064 445.649 264.248C445.879 263.43 446.227 262.864 446.695 262.554Z" stroke="#33E6BF" stroke-width="0.605326"/>
</g>
<g filter="url(#filter3_f_3_1582)">
<path d="M593.764 478.072L481.605 412.899M399.879 496.002L512.135 430.995" stroke="url(#paint4_linear_3_1582)" stroke-width="1.42441"/>
</g>
<path d="M593.764 478.072L481.605 412.899M399.879 496.002L512.135 430.995" stroke="url(#paint5_linear_3_1582)" stroke-width="1.42441"/>
<g filter="url(#filter4_f_3_1582)">
<path d="M565.232 444.233C563.152 444.006 561.056 444.382 559.531 445.258L529.142 462.714C527.875 463.442 527.408 464.282 527.408 464.972C527.408 465.661 527.875 466.501 529.142 467.229L609.062 513.135C609.911 513.623 610.972 513.959 612.099 514.101L612.106 514.102L612.113 514.103C614.249 514.416 616.647 514.091 618.312 513.135L648.702 495.679C649.932 494.972 650.396 494.128 650.396 493.422C650.397 492.716 649.933 491.871 648.702 491.164L568.783 445.258C567.793 444.689 566.535 444.349 565.247 444.235L565.239 444.234L565.232 444.233Z" stroke="url(#paint6_linear_3_1582)" stroke-width="1.37665"/>
</g>
<path d="M565.232 444.233C563.152 444.006 561.056 444.382 559.531 445.258L529.142 462.714C527.875 463.442 527.408 464.282 527.408 464.972C527.408 465.661 527.875 466.501 529.142 467.229L609.062 513.135C609.911 513.623 610.972 513.959 612.099 514.101L612.106 514.102L612.113 514.103C614.249 514.416 616.647 514.091 618.312 513.135L648.702 495.679C649.932 494.972 650.396 494.128 650.396 493.422C650.397 492.716 649.933 491.871 648.702 491.164L568.783 445.258C567.793 444.689 566.535 444.349 565.247 444.235L565.239 444.234L565.232 444.233Z" stroke="url(#paint7_linear_3_1582)" stroke-width="1.37665"/>
<g filter="url(#filter5_f_3_1582)">
<path d="M369.627 477.855C367.312 477.598 364.975 478.024 363.271 479.019L363.264 479.022L363.256 479.027L317.6 504.191C316.197 505.015 315.652 505.981 315.652 506.804C315.652 507.63 316.2 508.599 317.614 509.425L317.62 509.429L400.942 559.272C401.892 559.826 403.074 560.205 404.326 560.365L404.333 560.366L404.341 560.368C406.717 560.723 409.389 560.357 411.251 559.27L411.263 559.263L459.415 532.357C460.785 531.555 461.328 530.582 461.328 529.74C461.328 528.897 460.784 527.922 459.409 527.119L459.41 527.118L373.598 479.024L373.587 479.019C372.479 478.371 371.075 477.986 369.642 477.857L369.635 477.856L369.627 477.855Z" stroke="url(#paint8_linear_3_1582)" stroke-width="1.37665"/>
</g>
<path d="M369.627 477.855C367.312 477.598 364.975 478.024 363.271 479.019L363.264 479.022L363.256 479.027L317.6 504.191C316.197 505.015 315.652 505.981 315.652 506.804C315.652 507.63 316.2 508.599 317.614 509.425L317.615 509.426L401.776 558.849C402.727 559.404 403.911 559.785 405.166 559.945L405.174 559.946L405.181 559.947C407.557 560.302 410.23 559.936 412.092 558.849L412.103 558.843L459.42 532.354C460.787 531.553 461.328 530.581 461.328 529.74C461.328 528.897 460.784 527.922 459.409 527.119L459.41 527.118L373.598 479.024L373.587 479.019C372.479 478.371 371.075 477.986 369.642 477.857L369.635 477.856L369.627 477.855Z" stroke="url(#paint9_linear_3_1582)" stroke-width="1.37665"/>
<path d="M568.536 429.418C566.841 429.346 565.204 429.649 564.007 430.352L564.006 430.353L532.038 448.787C530.996 449.413 530.453 450.229 530.453 451.017C530.453 452.014 531.206 453.149 532.728 453.989L532.729 453.99L533.849 454.63L607.696 497.308C609.087 498.095 610.824 498.544 612.518 498.616C614.213 498.689 615.85 498.384 617.046 497.682H617.047L647.205 480.312H647.206L649.015 479.247H649.014C650.053 478.624 650.547 477.809 650.547 477.018C650.547 476.08 649.929 475.023 648.598 474.159L648.323 473.989L573.357 430.726L573.358 430.725C571.967 429.937 570.229 429.49 568.536 429.418Z" fill="#1E4780" stroke="#4C78B7" stroke-width="0.267472"/>
<path d="M617.088 496.158L646.208 479.346C648.631 477.947 648.327 475.503 645.529 473.888L573.411 432.25C570.613 430.635 566.381 430.459 563.958 431.859L534.838 448.671C532.415 450.07 532.718 452.514 535.516 454.129L607.634 495.766C610.432 497.382 614.665 497.557 617.088 496.158Z" fill="#162D55"/>
<path d="M537.503 453.938L608.008 494.644C608.838 495.124 609.854 495.443 610.914 495.577C612.899 495.87 615.16 495.577 616.774 494.644L643.584 479.166C645.983 477.781 645.983 475.49 643.584 474.105L573.079 433.399C572.111 432.839 570.91 432.52 569.711 432.413C567.773 432.2 565.789 432.546 564.313 433.399L537.503 448.877C535.058 450.289 535.058 452.527 537.503 453.938Z" fill="#162D55"/>
<path d="M540.674 445.297L542.519 446.363C543.673 447.029 545.519 447.029 546.626 446.39L562.222 437.385C563.376 436.719 563.376 435.653 562.222 434.987L560.377 433.922L540.674 445.297Z" fill="#1E4780"/>
<g opacity="0.05">
<path d="M569.756 472.545L597.994 488.849L598.042 447.797L573.079 433.384C572.11 432.825 570.91 432.505 569.71 432.398L569.756 472.545Z" fill="white" fill-opacity="0.5"/>
<path d="M603.209 491.868L608.008 494.639C608.838 495.118 609.854 495.438 610.914 495.571L610.961 455.264L603.21 450.789L603.209 491.868Z" fill="white" fill-opacity="0.5"/>
</g>
<path d="M530.319 451.012V458.205C530.319 459.27 531.119 460.389 532.663 461.295L607.63 504.559C609.016 505.412 610.827 505.838 612.532 505.891C614.237 505.998 615.889 505.678 617.114 504.985L649.083 486.497C650.149 485.857 650.682 485.005 650.682 484.153V477.012C650.682 477.865 650.149 478.718 649.083 479.357L647.272 480.423L617.115 497.793C615.889 498.485 614.237 498.805 612.532 498.698C610.827 498.645 609.016 498.218 607.631 497.419L533.783 454.741L532.664 454.102C531.119 453.249 530.319 452.077 530.319 451.012Z" fill="#1E4780"/>
<path d="M530.319 451.012V458.205C530.319 459.27 531.119 460.389 532.663 461.295L607.63 504.559C609.016 505.412 610.827 505.838 612.532 505.891C614.237 505.998 615.889 505.678 617.114 504.985L649.083 486.497C650.149 485.857 650.682 485.005 650.682 484.153V477.012C650.682 477.865 650.149 478.718 649.083 479.357L647.272 480.423L617.115 497.793C615.889 498.485 614.237 498.805 612.532 498.698C610.827 498.645 609.016 498.218 607.631 497.419L533.783 454.741L532.664 454.102C531.119 453.249 530.319 452.077 530.319 451.012Z" fill="url(#paint10_linear_3_1582)"/>
<path d="M373.442 460.211C371.6 460.121 369.818 460.442 368.513 461.197L368.509 461.199L319.741 487.668C318.607 488.341 318.012 489.223 318.007 490.079C318.001 491.163 318.811 492.402 320.46 493.325L320.462 493.326L321.675 494.028L401.672 540.898C403.179 541.763 405.064 542.261 406.904 542.351C408.746 542.441 410.528 542.121 411.833 541.365L411.837 541.364L458.625 516.044L460.602 514.896C461.734 514.226 462.276 513.344 462.281 512.484C462.288 511.396 461.532 510.157 459.884 509.177L459.883 509.178L378.675 461.664L378.674 461.665C377.167 460.8 375.282 460.3 373.442 460.211Z" fill="#1E4780" stroke="#4C78B7" stroke-width="0.290753"/>
<path d="M412.307 539.613L457.549 514.987C460.192 513.482 459.877 510.824 456.846 509.05L378.722 463.323C375.691 461.549 371.091 461.33 368.448 462.836L323.207 487.461C320.564 488.966 320.878 491.625 323.909 493.399L402.033 539.126C405.064 540.9 409.664 541.118 412.307 539.613Z" fill="#162D55"/>
<path d="M339.549 486.674L415.925 531.378C416.825 531.904 417.927 532.258 419.079 532.41C421.234 532.742 423.693 532.438 425.455 531.435L454.697 514.783C457.314 513.292 457.329 510.802 454.73 509.281L378.354 464.577C377.304 463.963 376.002 463.607 374.698 463.483C372.593 463.239 370.434 463.603 368.824 464.52L339.582 481.172C336.915 482.691 336.9 485.123 339.549 486.674Z" fill="#162D55"/>
<path d="M338.62 478.963L340.605 480.156C341.847 480.901 343.853 480.936 345.069 480.262L362.189 470.767C363.455 470.065 363.475 468.907 362.233 468.161L360.248 466.969L338.62 478.963Z" fill="#1E4780"/>
<g opacity="0.05">
<path d="M371.034 518.892L401.624 536.797L405.395 480.383L378.353 464.555C377.303 463.941 376.001 463.585 374.698 463.461L371.034 518.892Z" fill="white" fill-opacity="0.5"/>
<path d="M407.96 538.181L410.552 537.723L413.231 536.452L416.336 534.778L419.624 488.223L411.226 483.489L407.96 538.181Z" fill="white" fill-opacity="0.5"/>
</g>
<path d="M317.796 490.107L317.75 497.926C317.743 499.084 318.605 500.306 320.278 501.3L401.489 548.814C402.989 549.75 404.956 550.225 406.808 550.294C408.661 550.421 410.459 550.084 411.795 549.339L460.64 522.769C461.802 522.081 462.387 521.157 462.393 520.231L462.439 512.47C462.433 513.397 461.848 514.32 460.686 515.008L458.71 516.155L411.842 541.52C410.506 542.265 408.708 542.602 406.855 542.475C405.002 542.406 403.036 541.93 401.535 541.053L321.538 494.183L320.325 493.481C318.651 492.544 317.789 491.265 317.796 490.107Z" fill="#1E4780"/>
<path d="M317.796 490.107L317.75 497.926C317.743 499.084 318.605 500.306 320.278 501.3L401.489 548.814C402.989 549.75 404.956 550.225 406.808 550.294C408.661 550.421 410.459 550.084 411.795 549.339L460.64 522.769C461.802 522.081 462.387 521.157 462.393 520.231L462.439 512.47C462.433 513.397 461.848 514.32 460.686 515.008L458.71 516.155L411.842 541.52C410.506 542.265 408.708 542.602 406.855 542.475C405.002 542.406 403.036 541.93 401.535 541.053L321.538 494.183L320.325 493.481C318.651 492.544 317.789 491.265 317.796 490.107Z" fill="url(#paint11_linear_3_1582)"/>
<defs>
<filter id="filter0_f_3_1582" x="-4.39134" y="-85.9597" width="884.352" height="885.324" filterUnits="userSpaceOnUse" color-interpolation-filters="sRGB">
<feFlood flood-opacity="0" result="BackgroundImageFix"/>
<feBlend mode="normal" in="SourceGraphic" in2="BackgroundImageFix" result="shape"/>
<feGaussianBlur stdDeviation="22.8548" result="effect1_foregroundBlur_3_1582"/>
</filter>
<filter id="filter1_f_3_1582" x="463.308" y="334.123" width="269.233" height="269.233" filterUnits="userSpaceOnUse" color-interpolation-filters="sRGB">
<feFlood flood-opacity="0" result="BackgroundImageFix"/>
<feBlend mode="normal" in="SourceGraphic" in2="BackgroundImageFix" result="shape"/>
<feGaussianBlur stdDeviation="18.8192" result="effect1_foregroundBlur_3_1582"/>
</filter>
<filter id="filter2_f_3_1582" x="259.694" y="378.301" width="282.719" height="282.719" filterUnits="userSpaceOnUse" color-interpolation-filters="sRGB">
<feFlood flood-opacity="0" result="BackgroundImageFix"/>
<feBlend mode="normal" in="SourceGraphic" in2="BackgroundImageFix" result="shape"/>
<feGaussianBlur stdDeviation="19.7619" result="effect1_foregroundBlur_3_1582"/>
</filter>
<filter id="filter3_f_3_1582" x="395.605" y="408.366" width="202.433" height="92.1697" filterUnits="userSpaceOnUse" color-interpolation-filters="sRGB">
<feFlood flood-opacity="0" result="BackgroundImageFix"/>
<feBlend mode="normal" in="SourceGraphic" in2="BackgroundImageFix" result="shape"/>
<feGaussianBlur stdDeviation="1.95856" result="effect1_foregroundBlur_3_1582"/>
</filter>
<filter id="filter4_f_3_1582" x="522.803" y="439.563" width="132.199" height="79.26" filterUnits="userSpaceOnUse" color-interpolation-filters="sRGB">
<feFlood flood-opacity="0" result="BackgroundImageFix"/>
<feBlend mode="normal" in="SourceGraphic" in2="BackgroundImageFix" result="shape"/>
<feGaussianBlur stdDeviation="1.95856" result="effect1_foregroundBlur_3_1582"/>
</filter>
<filter id="filter5_f_3_1582" x="311.047" y="473.177" width="154.887" height="91.9275" filterUnits="userSpaceOnUse" color-interpolation-filters="sRGB">
<feFlood flood-opacity="0" result="BackgroundImageFix"/>
<feBlend mode="normal" in="SourceGraphic" in2="BackgroundImageFix" result="shape"/>
<feGaussianBlur stdDeviation="1.95856" result="effect1_foregroundBlur_3_1582"/>
</filter>
<radialGradient id="paint0_radial_3_1582" cx="0" cy="0" r="1" gradientUnits="userSpaceOnUse" gradientTransform="translate(396.466 396.952) rotate(90) scale(396.952 396.466)">
<stop stop-color="#0439C7"/>
<stop offset="1" stop-color="#02122B" stop-opacity="0"/>
</radialGradient>
<radialGradient id="paint1_radial_3_1582" cx="0" cy="0" r="1" gradientUnits="userSpaceOnUse" gradientTransform="translate(96.9782 96.9782) rotate(90) scale(96.9782)">
<stop stop-color="#0439C7"/>
<stop offset="1" stop-color="#02122B" stop-opacity="0"/>
</radialGradient>
<radialGradient id="paint2_radial_3_1582" cx="0" cy="0" r="1" gradientUnits="userSpaceOnUse" gradientTransform="translate(101.836 101.836) rotate(90) scale(101.836)">
<stop stop-color="#0439C7"/>
<stop offset="1" stop-color="#02122B" stop-opacity="0"/>
</radialGradient>
<radialGradient id="paint3_radial_3_1582" cx="0" cy="0" r="1" gradientUnits="userSpaceOnUse" gradientTransform="translate(439.8 429.761) rotate(90) scale(231.843 265.021)">
<stop stop-color="#4C78B7"/>
<stop offset="1" stop-color="white" stop-opacity="0"/>
</radialGradient>
<linearGradient id="paint4_linear_3_1582" x1="493.765" y1="536.989" x2="749.486" y2="366.889" gradientUnits="userSpaceOnUse">
<stop stop-color="#34E6BF"/>
<stop offset="0.333333" stop-color="#377CDD"/>
<stop offset="0.666667" stop-color="#294772"/>
<stop offset="1" stop-color="#0E284D"/>
</linearGradient>
<linearGradient id="paint5_linear_3_1582" x1="493.765" y1="536.989" x2="749.486" y2="366.889" gradientUnits="userSpaceOnUse">
<stop stop-color="#34E6BF"/>
<stop offset="0.333333" stop-color="#377CDD"/>
<stop offset="0.666667" stop-color="#294772"/>
<stop offset="1" stop-color="#0E284D"/>
</linearGradient>
<linearGradient id="paint6_linear_3_1582" x1="590.863" y1="550.133" x2="401.039" y2="455.899" gradientUnits="userSpaceOnUse">
<stop stop-color="#34E6BF"/>
<stop offset="0.333333" stop-color="#377CDD"/>
<stop offset="0.666667" stop-color="#294772"/>
<stop offset="1" stop-color="#0E284D"/>
</linearGradient>
<linearGradient id="paint7_linear_3_1582" x1="590.863" y1="550.133" x2="401.039" y2="455.899" gradientUnits="userSpaceOnUse">
<stop stop-color="#34E6BF"/>
<stop offset="0.333333" stop-color="#377CDD"/>
<stop offset="0.666667" stop-color="#294772"/>
<stop offset="1" stop-color="#0E284D"/>
</linearGradient>
<linearGradient id="paint8_linear_3_1582" x1="397.993" y1="597.298" x2="186.305" y2="493.947" gradientUnits="userSpaceOnUse">
<stop stop-color="#34E6BF"/>
<stop offset="0.333333" stop-color="#377CDD"/>
<stop offset="0.666667" stop-color="#294772"/>
<stop offset="1" stop-color="#0E284D"/>
</linearGradient>
<linearGradient id="paint9_linear_3_1582" x1="397.993" y1="597.298" x2="186.305" y2="493.947" gradientUnits="userSpaceOnUse">
<stop stop-color="#34E6BF"/>
<stop offset="0.333333" stop-color="#377CDD"/>
<stop offset="0.666667" stop-color="#294772"/>
<stop offset="1" stop-color="#0E284D"/>
</linearGradient>
<linearGradient id="paint10_linear_3_1582" x1="512.757" y1="472.01" x2="632.086" y2="523.687" gradientUnits="userSpaceOnUse">
<stop stop-color="#0E284D"/>
<stop offset="0.333333" stop-color="#294772"/>
<stop offset="0.666667" stop-color="#377CDD"/>
<stop offset="1" stop-color="#34E6BF"/>
</linearGradient>
<linearGradient id="paint11_linear_3_1582" x1="298.675" y1="512.527" x2="428.053" y2="569.473" gradientUnits="userSpaceOnUse">
<stop stop-color="#0E284D"/>
<stop offset="0.333333" stop-color="#294772"/>
<stop offset="0.666667" stop-color="#377CDD"/>
<stop offset="1" stop-color="#34E6BF"/>
</linearGradient>
</defs>
</svg>
