<svg width="19" height="19" viewBox="0 0 19 19" fill="none" xmlns="http://www.w3.org/2000/svg">
<g clip-path="url(#clip0_2084_274)">
<path d="M13.7969 3.25781H5.20312C4.31466 3.25781 3.5918 3.98067 3.5918 4.86914V13.4629C3.5918 14.3514 4.31466 15.0742 5.20312 15.0742H13.7969C14.6853 15.0742 15.4082 14.3514 15.4082 13.4629V4.86914C15.4082 3.98067 14.6853 3.25781 13.7969 3.25781ZM9.5 12.9258C7.42709 12.9258 5.74023 11.2389 5.74023 9.16602C5.74023 7.09311 7.42709 5.40625 9.5 5.40625C11.5729 5.40625 13.2598 7.09311 13.2598 9.16602C13.2598 11.2389 11.5729 12.9258 9.5 12.9258ZM13.2598 6.48047C12.6675 6.48047 12.1855 5.99847 12.1855 5.40625C12.1855 4.81403 12.6675 4.33203 13.2598 4.33203C13.852 4.33203 14.334 4.81403 14.334 5.40625C14.334 5.99847 13.852 6.48047 13.2598 6.48047Z" fill="white"/>
<path d="M9.5 6.48438C8.01931 6.48438 6.81445 7.68923 6.81445 9.16992C6.81445 10.6506 8.01931 11.8555 9.5 11.8555C10.9807 11.8555 12.1855 10.6506 12.1855 9.16992C12.1855 7.68923 10.9807 6.48438 9.5 6.48438Z" fill="white"/>
<path d="M15.9455 0H3.05485C1.57416 0 0.333496 1.24067 0.333496 2.72135V15.612C0.333496 17.0927 1.57416 18.3333 3.05485 18.3333H15.9455C17.4262 18.3333 18.6668 17.0927 18.6668 15.612V2.72135C18.6668 1.24067 17.4262 0 15.9455 0ZM16.4826 13.4635C16.4826 14.9442 15.2777 16.1491 13.797 16.1491H5.20329C3.7226 16.1491 2.51774 14.9442 2.51774 13.4635V4.86979C2.51774 3.3891 3.7226 2.18424 5.20329 2.18424H13.797C15.2777 2.18424 16.4826 3.3891 16.4826 4.86979V13.4635Z" fill="white"/>
</g>
<defs>
<clipPath id="clip0_2084_274">
<rect width="18.3333" height="18.3333" fill="white" transform="translate(0.333496)"/>
</clipPath>
</defs>
</svg>
