<svg width="16" height="18" viewBox="0 0 16 18" fill="none" xmlns="http://www.w3.org/2000/svg">
<path d="M13.7609 13.5253C13.9246 13.1741 14 12.6819 14 12C14 9.56506 12.8783 8.16028 11.9771 7.03125C11.4314 6.34753 11 5.80737 11 5.25L11.0007 5.07532C11.0066 4.04004 11.0187 1.88525 9.87427 0.734253C9.38977 0.247192 8.75916 0 8 0C6.42456 0 5.375 0.765381 5.375 4.5C5.375 5.52795 4.9425 6.36987 4.48474 7.26123C4.28406 7.65198 4.07642 8.05627 3.90247 8.48364C3.55603 9.33545 2.75 11.4203 2.75 12.375C2.75 12.4358 2.76465 12.4955 2.79285 12.5493L5.44714 17.6107C5.50427 17.7195 5.61304 17.7905 5.73499 17.8059C5.75 17.8077 5.76501 17.8088 5.78003 17.8088C5.8866 17.8088 5.99097 17.762 6.06274 17.6818C6.22937 17.4961 7.33386 17.25 8 17.25H10.5441C10.6418 17.25 10.7356 17.2119 10.8055 17.1438L13.8865 14.1438C14.0352 13.9991 14.0381 13.7618 13.8938 13.6135C13.855 13.5736 13.8096 13.5443 13.7609 13.5253Z" fill="#1A1A1A"/>
<path opacity="0.2" d="M4.48474 7.44873C4.9425 6.55737 5.375 5.71545 5.375 4.6875C5.375 0.952881 6.42456 0.1875 8 0.1875C8.75915 0.1875 9.38977 0.434692 9.87427 0.921753C10.8746 1.92778 10.9913 3.70042 11.0009 4.82236C11.0015 3.72198 10.9358 1.8019 9.87427 0.734253C9.38977 0.247192 8.75915 0 8 0C6.42456 0 5.375 0.765381 5.375 4.5C5.375 5.52795 4.9425 6.36987 4.48474 7.26123C4.28406 7.65198 4.07642 8.05627 3.90247 8.48364C3.55603 9.33545 2.75 11.4203 2.75 12.375C2.75 12.3921 2.75975 12.4071 2.76204 12.4239C2.82558 11.4218 3.57082 9.48665 3.90247 8.67114C4.07642 8.24377 4.28406 7.83948 4.48474 7.44873Z" fill="white"/>
<path d="M13.8938 13.801C13.9403 13.8489 13.9659 13.9068 13.9819 13.9671C14.0131 13.8447 13.9882 13.7106 13.8938 13.6135C13.8711 13.5902 13.8426 13.5781 13.8161 13.562C13.7978 13.6124 13.7821 13.6672 13.7609 13.7128C13.8096 13.7318 13.855 13.7611 13.8938 13.801Z" fill="#0099D8"/>
<path opacity="0.2" d="M11 5.4375C11 5.99487 11.4314 6.53503 11.9771 7.21875C12.8699 8.3373 13.9758 9.72968 13.9963 12.1232C13.9969 12.0807 14 12.0441 14 12C14 9.56506 12.8783 8.16028 11.9771 7.03125C11.4327 6.34918 11.0028 5.80994 11.0007 5.25403V5.26282L11 5.4375Z" fill="white"/>
<path d="M11 5.25003L11.0007 5.25406C11.0015 5.12556 11.0022 4.98082 11.0009 4.82239C11.0008 4.90831 11.0011 5.00037 11.0007 5.07535L11 5.25003Z" fill="#0099D8"/>
<path d="M11.0971 12.6088C11.0881 10.7829 10.84 8.72884 9.39712 5.77942C8.68305 6.26222 7.37224 6.64413 7.21477 6.64413C6.93086 6.64413 6.311 6.44147 5.85558 6.03942C5.66835 6.59176 5.40916 7.10317 5.15204 7.60401C4.95868 7.98011 4.75873 8.36939 4.5976 8.76636C4.14432 9.88001 3.62668 11.3461 3.52222 12.1252C3.83945 12.3366 4.06068 12.7941 4.30499 13.3052C4.55804 13.8347 4.84479 14.4349 5.21429 14.6924C5.89046 15.1632 6.24101 15.8346 6.33289 16.4448C6.59019 16.4704 6.91452 16.4927 7.28302 16.4927C8.19795 16.4927 9.43836 16.3069 10.3559 15.75C10.4074 14.7579 10.5817 13.1667 11.0971 12.6088Z" fill="white"/>
<path d="M13.9963 12.1232C13.9871 12.7382 13.914 13.1968 13.7609 13.5253C13.7811 13.5332 13.7973 13.5504 13.8161 13.5619C13.9388 13.2238 14 12.7809 14 12.1875C14 12.1649 13.9965 12.1456 13.9963 12.1232Z" fill="#0099D8"/>
<path opacity="0.1" d="M6.33278 16.4448C6.59008 16.4704 6.91441 16.4927 7.28291 16.4927C8.19784 16.4927 9.43824 16.3069 10.3558 15.75V15.5625C9.43824 16.1194 8.19784 16.3052 7.28291 16.3052C6.91441 16.3052 6.53343 16.2795 6.27612 16.2539" fill="black"/>
<path opacity="0.3" d="M10.8079 16.9563C10.7379 17.0244 10.6442 17.0625 10.5464 17.0625H8.00232C7.33618 17.0625 6.23169 17.3086 6.06506 17.4943C5.99329 17.5745 5.88892 17.6214 5.78235 17.6214C5.76733 17.6214 5.75232 17.6203 5.7373 17.6184C5.61536 17.603 5.50659 17.532 5.44946 17.4232L2.79517 12.3618C2.77489 12.3231 2.77022 12.2794 2.76436 12.2365C2.76152 12.2811 2.75232 12.3343 2.75232 12.375C2.75232 12.4358 2.76697 12.4955 2.79517 12.5493L5.44946 17.6107C5.50659 17.7195 5.61536 17.7905 5.7373 17.8059C5.75232 17.8078 5.76733 17.8089 5.78235 17.8089C5.88892 17.8089 5.99329 17.762 6.06506 17.6818C6.23169 17.4961 7.33618 17.25 8.00232 17.25H10.5464C10.6442 17.25 10.7379 17.2119 10.8079 17.1438L13.8888 14.1438C13.9895 14.0458 14.0177 13.9061 13.9842 13.7796C13.9677 13.8442 13.9402 13.9064 13.8888 13.9563L10.8079 16.9563Z" fill="black"/>
<path d="M14.6947 14.3057C14.5394 14.2039 14.3787 14.0984 14.2651 13.9849C14.1988 13.9186 14.2292 13.6121 14.2454 13.4473C14.2765 13.1309 14.3087 12.8042 14.0959 12.5695C14.0157 12.4808 13.8685 12.375 13.625 12.375C13.4243 12.375 13.2778 12.5339 13.269 12.7343C13.2688 12.7397 13.271 12.7446 13.271 12.75H11.75C11.75 12.5427 11.5823 12.375 11.375 12.375C10.2628 12.375 10.25 16.4586 10.2456 16.548C10.2247 16.7717 10.1757 17.2965 10.5115 17.6649C10.714 17.8872 11.0044 18 11.375 18C12.3484 18 12.8204 17.4983 13.2767 17.0134C13.3536 16.9314 13.4324 16.8479 13.5151 16.7651C13.7052 16.5751 14.0769 16.4396 14.405 16.3198C14.9434 16.1232 15.5 15.9199 15.5 15.375C15.5 14.8341 15.0536 14.5411 14.6947 14.3057Z" fill="#FDB515"/>
<path d="M5.21423 14.6924C4.84473 14.4349 4.55798 13.8347 4.30493 13.3052C3.97021 12.605 3.68091 12 3.125 12C2.42334 12 2.2699 12.6306 2.18787 12.9694C2.16516 13.0627 2.13074 13.2034 2.12744 13.2198C2.07178 13.2543 1.8623 13.2957 1.72388 13.3231C1.26611 13.4139 0.5 13.5656 0.5 14.25C0.5 14.4492 0.529663 14.6184 0.562256 14.7946C0.620117 15.1066 0.674683 15.401 0.512085 16.0312C0.504028 16.0616 0.5 16.0935 0.5 16.125C0.5 17.0266 1.90039 17.1434 2.73718 17.213C2.87634 17.2247 2.99207 17.2335 3.06641 17.2452C3.18176 17.2635 3.42346 17.3749 3.6571 17.4825C4.15698 17.7133 4.77917 18 5.375 18C5.80347 18 6.14624 17.7231 6.29199 17.2595C6.51868 16.537 6.21838 15.3915 5.21423 14.6924Z" fill="#FDB515"/>
<path opacity="0.2" d="M1.66484 13.5106C1.80803 13.4832 2.02478 13.4418 2.08237 13.4073C2.08575 13.3909 2.12137 13.2502 2.14485 13.1569C2.22972 12.8181 2.38847 12.1875 3.1144 12.1875C3.68953 12.1875 3.98886 12.7925 4.33516 13.4927C4.59695 14.0222 4.89363 14.6224 5.27591 14.8799C5.65672 15.1361 5.9377 15.4529 6.13184 15.7863C5.94681 15.3852 5.65068 14.9962 5.21425 14.6924C4.84474 14.4349 4.558 13.8347 4.30495 13.3052C3.97023 12.605 3.68092 12 3.12502 12C2.42336 12 2.26991 12.6306 2.18788 12.9694C2.16518 13.0627 2.13075 13.2034 2.12746 13.2198C2.07179 13.2543 1.86232 13.2957 1.72389 13.3231C1.32632 13.402 0.697586 13.5277 0.538696 14.0076C0.787125 13.68 1.31328 13.578 1.66484 13.5106Z" fill="white"/>
<path d="M13.6249 11.625C13.5531 11.625 13.4898 11.6505 13.4328 11.6855L10.9288 7.58812C10.6554 6.8156 10.3056 5.99611 9.8332 5.07825C9.73871 4.89478 9.51276 4.8219 9.32819 4.91638C9.14435 5.01123 9.07184 5.23755 9.16669 5.42175C10.8597 8.71179 10.9999 10.7655 11.0007 12.7291C10.9963 12.8079 10.9695 13.5103 11.3735 13.9376C11.5668 14.142 11.8265 14.25 12.1249 14.25L12.2571 14.2507C12.2993 14.2511 12.3417 14.2515 12.385 14.2515C12.7662 14.2515 13.1785 14.2225 13.5012 13.9025C13.8461 13.5604 13.9999 12.9738 13.9999 12C13.9999 11.7927 13.8322 11.625 13.6249 11.625Z" fill="#1A1A1A"/>
<path opacity="0.3" d="M13.5012 13.715C13.1786 14.0351 12.7663 14.064 12.385 14.064C12.3418 14.064 12.2993 14.0636 12.2572 14.0633L12.125 14.0625C11.8266 14.0625 11.5669 13.9545 11.3736 13.7502C11.0711 13.4302 11.0101 12.9562 11.0004 12.7051C11.0004 12.713 11.0007 12.7212 11.0007 12.7292C10.9964 12.8079 10.9696 13.5103 11.3736 13.9377C11.5669 14.142 11.8266 14.25 12.125 14.25L12.2572 14.2508C12.2993 14.2511 12.3418 14.2515 12.385 14.2515C12.7663 14.2515 13.1786 14.2226 13.5012 13.9025C13.8462 13.5605 14 12.9738 14 12C14 11.988 13.9942 11.9778 13.9931 11.9661C13.9762 12.8412 13.8262 13.3929 13.5012 13.715Z" fill="black"/>
<path d="M8.75 2.28113C8.31531 2.28113 8 2.74768 8 3.39075C8 4.03345 8.31531 4.5 8.75 4.5C9.18469 4.5 9.5 4.03345 9.5 3.39075C9.5 2.74768 9.18469 2.28113 8.75 2.28113Z" fill="white"/>
<path d="M8.75005 4.332C8.9381 4.332 9.09055 4.03382 9.09055 3.666C9.09055 3.29818 8.9381 3 8.75005 3C8.56199 3 8.40955 3.29818 8.40955 3.666C8.40955 4.03382 8.56199 4.332 8.75005 4.332Z" fill="black"/>
<path d="M6.5 2.28113C6.06531 2.28113 5.75 2.74768 5.75 3.39075C5.75 4.03345 6.06531 4.5 6.5 4.5C6.93469 4.5 7.25 4.03345 7.25 3.39075C7.25 2.74768 6.93469 2.28113 6.5 2.28113Z" fill="white"/>
<path d="M9.35136 5.80688C8.62906 6.27632 7.36906 6.64413 7.21466 6.64413C6.93076 6.64413 6.3109 6.44148 5.85547 6.03943L10.9416 11.1256C10.8209 9.67357 10.4401 8.02182 9.35136 5.80688Z" fill="url(#paint0_linear_3_1272)"/>
<path d="M6.50001 4.3065C6.68433 4.3065 6.83376 4.01403 6.83376 3.65325C6.83376 3.29247 6.68433 3 6.50001 3C6.31568 3 6.16626 3.29247 6.16626 3.65325C6.16626 4.01403 6.31568 4.3065 6.50001 4.3065Z" fill="black"/>
<path d="M7.69861 3.75732C7.67444 3.75256 7.64954 3.75 7.625 3.75C6.8186 3.75 5.375 4.50623 5.375 5.25C5.375 5.95276 6.79333 6.75 7.25 6.75C7.47156 6.75 9.875 5.91541 9.875 5.25C9.875 4.26892 8.20911 3.8595 7.69861 3.75732Z" fill="#FDB515"/>
<path d="M7.69861 3.75732C7.67444 3.75256 7.64954 3.75 7.625 3.75C6.8186 3.75 5.375 4.50623 5.375 5.25C5.375 5.95276 6.79333 6.75 7.25 6.75C7.47156 6.75 9.875 5.91541 9.875 5.25C9.875 4.26892 8.20911 3.8595 7.69861 3.75732Z" fill="#FDB515"/>
<path opacity="0.1" d="M14.4051 16.1324C14.077 16.2521 13.7052 16.3876 13.5152 16.5777C13.4324 16.6604 13.3537 16.7439 13.2768 16.826C12.8205 17.3108 12.3484 17.8125 11.375 17.8125C11.0044 17.8125 10.714 17.6997 10.5115 17.4774C10.2917 17.2363 10.2422 16.9339 10.2364 16.6871C10.2202 16.9461 10.2295 17.3555 10.5115 17.6649C10.714 17.8872 11.0044 18 11.375 18C12.3484 18 12.8205 17.4983 13.2768 17.0135C13.3537 16.9314 13.4324 16.8479 13.5152 16.7652C13.7052 16.5751 14.077 16.4396 14.4051 16.3199C14.9434 16.1232 15.5 15.92 15.5 15.375C15.5 15.3478 15.4871 15.3282 15.4849 15.3022C15.4099 15.7597 14.9026 15.9506 14.4051 16.1324Z" fill="black"/>
<path opacity="0.1" d="M6.29199 17.072C6.14624 17.5356 5.80347 17.8125 5.375 17.8125C4.77917 17.8125 4.15698 17.5257 3.6571 17.295C3.42346 17.1873 3.18176 17.076 3.06641 17.0577C2.99207 17.046 2.87634 17.0372 2.73718 17.0255C1.9268 16.9581 0.599335 16.8398 0.51561 16.0139C0.513962 16.0204 0.513779 16.0247 0.512085 16.0312C0.504028 16.0616 0.5 16.0935 0.5 16.125C0.5 17.0266 1.90039 17.1434 2.73718 17.213C2.87634 17.2247 2.99207 17.2335 3.06641 17.2452C3.18176 17.2635 3.42346 17.3748 3.6571 17.4825C4.15698 17.7132 4.77917 18 5.375 18C5.80347 18 6.14624 17.7231 6.29199 17.2595C6.35127 17.0705 6.37224 16.8519 6.35626 16.6207C6.35219 16.7813 6.33475 16.9357 6.29199 17.072Z" fill="black"/>
<path opacity="0.1" d="M7.24181 6.5625C6.82144 6.5625 5.61336 5.90158 5.37601 5.24551C5.37601 5.24702 5.375 5.24849 5.375 5.25C5.375 5.95276 6.79333 6.75 7.25 6.75C7.47156 6.75 9.875 5.91541 9.875 5.25C9.875 5.23549 9.86713 5.22382 9.86639 5.20953C9.51048 5.851 7.44862 6.5625 7.24181 6.5625Z" fill="black"/>
<path d="M14.6947 14.3057C14.5394 14.2039 14.3787 14.0984 14.2651 13.9849C14.1989 13.9186 14.2292 13.6121 14.2454 13.4473C14.2765 13.1309 14.3087 12.8042 14.0959 12.5695C14.0688 12.5394 14.0254 12.5112 13.9784 12.4847C13.9312 13.1675 13.7828 13.6232 13.5012 13.9025C13.1786 14.2225 12.7662 14.2515 12.385 14.2515C12.3418 14.2515 12.2993 14.2511 12.2572 14.2507L12.125 14.25C11.8265 14.25 11.5669 14.142 11.3735 13.9376L13.9391 16.5032C14.0889 16.4362 14.2513 16.376 14.405 16.3198C14.9434 16.1232 15.5 15.9199 15.5 15.375C15.5 14.8341 15.0536 14.5412 14.6947 14.3057Z" fill="url(#paint1_linear_3_1272)"/>
<path d="M14.6947 14.3057C14.5394 14.2039 14.3787 14.0984 14.2651 13.9849C14.1989 13.9186 14.2292 13.6121 14.2454 13.4473C14.2765 13.1309 14.3087 12.8042 14.0959 12.5695C14.0703 12.5412 14.0249 12.5139 13.9847 12.4861C13.9947 12.3357 14 12.1744 14 12C14 9.56506 12.8783 8.16028 11.9771 7.03125C11.4314 6.34753 11 5.80737 11 5.25L11.0007 5.07532C11.0066 4.04004 11.0187 1.88525 9.87427 0.734253C9.38977 0.247192 8.75916 0 8 0C6.42456 0 5.375 0.765381 5.375 4.5C5.375 5.52795 4.9425 6.36987 4.48474 7.26123C4.28406 7.65198 4.07642 8.05627 3.90247 8.48364C3.58839 9.25589 2.90285 11.0331 2.77637 12.0713C2.37102 12.2419 2.25378 12.6972 2.18787 12.9694C2.16516 13.0627 2.13074 13.2034 2.12744 13.2198C2.07178 13.2543 1.8623 13.2957 1.72388 13.3231C1.26611 13.4139 0.5 13.5656 0.5 14.25C0.5 14.4492 0.529663 14.6184 0.562256 14.7946C0.620117 15.1066 0.674683 15.401 0.512085 16.0312C0.504028 16.0616 0.5 16.0935 0.5 16.125C0.5 17.0266 1.90039 17.1434 2.73718 17.213C2.87634 17.2247 2.99207 17.2335 3.06641 17.2452C3.18176 17.2635 3.42346 17.3749 3.6571 17.4825C4.15698 17.7133 4.77917 18 5.375 18C5.63144 18 5.8503 17.8909 6.02145 17.7119C6.03455 17.7008 6.05121 17.6947 6.06274 17.6818C6.22937 17.4961 7.33386 17.25 8 17.25H10.2955C10.3368 17.3946 10.3964 17.5387 10.5115 17.6649C10.714 17.8872 11.0044 18 11.375 18C12.3484 18 12.8204 17.4983 13.2767 17.0134C13.3536 16.9314 13.4324 16.8479 13.5151 16.7651C13.7052 16.5751 14.0769 16.4396 14.405 16.3198C14.9434 16.1232 15.5 15.9199 15.5 15.375C15.5 14.8341 15.0536 14.5411 14.6947 14.3057Z" fill="url(#paint2_linear_3_1272)"/>
<defs>
<linearGradient id="paint0_linear_3_1272" x1="6.7872" y1="5.10752" x2="11.8737" y2="10.1933" gradientUnits="userSpaceOnUse">
<stop stop-opacity="0.1"/>
<stop offset="1" stop-opacity="0"/>
</linearGradient>
<linearGradient id="paint1_linear_3_1272" x1="12.3965" y1="12.915" x2="15.3192" y2="15.8378" gradientUnits="userSpaceOnUse">
<stop stop-opacity="0.1"/>
<stop offset="1" stop-opacity="0"/>
</linearGradient>
<linearGradient id="paint2_linear_3_1272" x1="2.93375" y1="7.545" x2="16.3145" y2="13.7842" gradientUnits="userSpaceOnUse">
<stop stop-color="white" stop-opacity="0.2"/>
<stop offset="1" stop-color="white" stop-opacity="0"/>
</linearGradient>
</defs>
</svg>
