<svg width="53" height="81" viewBox="0 0 53 81" fill="none" xmlns="http://www.w3.org/2000/svg">
<path opacity="0.5" d="M28.4038 77.6751L47.692 57.6777C49.0807 56.2383 48.3896 54.6199 46.1479 54.0624C43.9072 53.5053 40.965 54.2204 39.5771 55.6595L20.2888 75.6569C18.9002 77.0962 19.5913 78.7147 21.8329 79.2722C24.0736 79.8293 27.0159 79.1142 28.4038 77.6751Z" fill="#1C1C1C" fill-opacity="0.26"/>
<path d="M38.2861 20.7266L46.2848 48.5578L46.2835 48.5589C46.4493 49.164 46.2477 49.8453 45.6253 50.4901L26.337 70.4874C24.9491 71.9266 22.0068 72.6417 19.7662 72.0846C18.5095 71.7718 17.7404 71.1255 17.5527 70.3644L9.55204 42.5264L38.2861 20.7266Z" fill="url(#paint0_linear_54_34688)"/>
<path opacity="0.3" d="M24.7642 71.5423C23.2759 72.2262 21.3508 72.4776 19.7672 72.0834C18.5105 71.7706 17.7414 71.1243 17.5537 70.3632L9.55304 42.5252L15.0942 38.3218L15.208 38.2891L24.7649 71.5421L24.7642 71.5423Z" fill="#1C1C1C" fill-opacity="0.26"/>
<path d="M18.3394 42.6555L37.6276 22.6582C39.0163 21.2188 38.3251 19.6004 36.0835 19.0428C33.8428 18.4858 30.9005 19.2008 29.5126 20.64L10.2244 40.6373C8.83571 42.0767 9.52684 43.6951 11.7685 44.2527C14.0092 44.8098 16.9514 44.0947 18.3394 42.6555Z" fill="url(#paint1_linear_54_34688)"/>
<path d="M15.5152 41.5248C16.6186 41.2077 17.2568 40.0558 16.9395 38.9517L13.3857 26.5864C12.1736 22.3689 13.7232 16.1379 16.7701 12.9793L21.1961 8.39054C22.3653 7.17823 23.5747 6.61689 24.5133 6.85056C25.4518 7.08424 26.2571 8.14602 26.7224 9.76488L30.2762 22.1302C30.5935 23.2343 31.7452 23.8718 32.8493 23.5545C33.9534 23.2372 34.5909 22.0855 34.2736 20.9813L30.7196 8.61527C29.8198 5.48456 27.9722 3.42504 25.5171 2.81457C23.062 2.2041 20.4644 3.15872 18.2033 5.50319L13.7773 10.0919C9.69139 14.3283 7.76396 22.0778 9.38977 27.7348L12.9436 40.1001C13.2594 41.2046 14.4111 41.8421 15.5152 41.5248Z" fill="url(#paint2_linear_54_34688)"/>
<defs>
<linearGradient id="paint0_linear_54_34688" x1="30.2812" y1="4.9882" x2="-1.31753" y2="20.2185" gradientUnits="userSpaceOnUse">
<stop stop-color="#81F8DE"/>
<stop offset="1" stop-color="#2155DF"/>
</linearGradient>
<linearGradient id="paint1_linear_54_34688" x1="40.0926" y1="27.0015" x2="7.75931" y2="36.2941" gradientUnits="userSpaceOnUse">
<stop stop-color="#A6FBE8"/>
<stop offset="1" stop-color="#4879FD"/>
</linearGradient>
<linearGradient id="paint2_linear_54_34688" x1="43.8689" y1="10.1049" x2="-11.0598" y2="36.6342" gradientUnits="userSpaceOnUse">
<stop stop-color="#33E6BF"/>
<stop offset="0.873" stop-color="#0439C7"/>
</linearGradient>
</defs>
</svg>
