<svg width="181" height="52" viewBox="0 0 181 52" fill="none" xmlns="http://www.w3.org/2000/svg">
<path d="M173.719 52H7.28153C3.62156 52 0.624023 49.0734 0.624023 45.5V6.5C0.624023 2.92663 3.62156 2.74817e-06 7.28153 2.74817e-06H173.719C177.379 2.74817e-06 180.377 2.92663 180.377 6.5V45.5C180.377 49.0734 177.379 52 173.719 52Z" fill="black"/>
<path d="M173.719 1.04162C176.802 1.04162 179.31 3.4905 179.31 6.5V45.5C179.31 48.5095 176.802 50.9584 173.719 50.9584H7.28153C4.1991 50.9584 1.69089 48.5095 1.69089 45.5V6.5C1.69089 3.4905 4.1991 1.04162 7.28153 1.04162H173.719ZM173.719 2.74817e-06H7.28153C3.62156 2.74817e-06 0.624023 2.92663 0.624023 6.5V45.5C0.624023 49.0734 3.62156 52 7.28153 52H173.719C177.379 52 180.377 49.0734 180.377 45.5V6.5C180.377 2.92663 177.379 2.74817e-06 173.719 2.74817e-06Z" fill="#A6A6A6"/>
<path d="M63.7601 13.3162C63.7601 14.4017 63.4272 15.2711 62.7715 15.9195C62.0175 16.6881 61.0355 17.0748 59.8322 17.0748C58.6821 17.0748 57.7001 16.6816 56.8946 15.9065C56.0873 15.12 55.6846 14.1547 55.6846 12.9993C55.6846 11.844 56.0873 10.8787 56.8946 10.0987C57.7001 9.31708 58.6821 8.92383 59.8322 8.92383C60.4047 8.92383 60.9507 9.0392 61.4716 9.2537C61.9909 9.46983 62.4136 9.76233 62.7199 10.1231L62.0242 10.8088C61.4899 10.193 60.7626 9.88908 59.8322 9.88908C58.9934 9.88908 58.266 10.1751 57.6485 10.752C57.0377 11.3305 56.7315 12.0796 56.7315 12.9993C56.7315 13.9191 57.0377 14.6747 57.6485 15.2532C58.266 15.8236 58.9934 16.1161 59.8322 16.1161C60.7226 16.1161 61.4716 15.8236 62.0625 15.2467C62.4519 14.8648 62.6733 14.3383 62.7315 13.6656H59.8322V12.7263H63.7002C63.7468 12.9295 63.7601 13.1261 63.7601 13.3162Z" fill="white" stroke="white" stroke-width="0.16" stroke-miterlimit="10"/>
<path d="M69.897 10.0604H66.2637V12.5304H69.5392V13.4696H66.2637V15.9396H69.897V16.8967H65.2351V9.10324H69.897V10.0604Z" fill="white" stroke="white" stroke-width="0.16" stroke-miterlimit="10"/>
<path d="M74.2269 16.8967H73.1983V10.0604H70.9697V9.10324H76.4572V10.0604H74.2269V16.8967Z" fill="white" stroke="white" stroke-width="0.16" stroke-miterlimit="10"/>
<path d="M80.4287 16.8967V9.10324H81.4556V16.8967H80.4287Z" fill="white" stroke="white" stroke-width="0.16" stroke-miterlimit="10"/>
<path d="M86.0081 16.8967H84.9879V10.0604H82.751V9.10324H88.2451V10.0604H86.0081V16.8967Z" fill="white" stroke="white" stroke-width="0.16" stroke-miterlimit="10"/>
<path d="M98.6342 15.8935C97.8469 16.6816 96.8716 17.0748 95.7082 17.0748C94.5382 17.0748 93.5628 16.6816 92.7756 15.8935C91.99 15.107 91.5989 14.1417 91.5989 12.9993C91.5989 11.857 91.99 10.8917 92.7756 10.1052C93.5628 9.31708 94.5382 8.92383 95.7082 8.92383C96.865 8.92383 97.8403 9.31708 98.6275 10.1117C99.4198 10.9047 99.8109 11.8635 99.8109 12.9993C99.8109 14.1417 99.4198 15.107 98.6342 15.8935ZM93.5362 15.2402C94.1287 15.8236 94.8494 16.1161 95.7082 16.1161C96.5604 16.1161 97.2877 15.8236 97.8736 15.2402C98.4644 14.6568 98.764 13.9077 98.764 12.9993C98.764 12.091 98.4644 11.3418 97.8736 10.7585C97.2877 10.1751 96.5604 9.88258 95.7082 9.88258C94.8494 9.88258 94.1287 10.1751 93.5362 10.7585C92.9454 11.3418 92.6458 12.091 92.6458 12.9993C92.6458 13.9077 92.9454 14.6568 93.5362 15.2402Z" fill="white" stroke="white" stroke-width="0.16" stroke-miterlimit="10"/>
<path d="M101.253 16.8967V9.10324H102.501L106.383 15.1645H106.427L106.383 13.6662V9.10324H107.409V16.8967H106.338L102.273 10.5365H102.228L102.273 12.0412V16.8967H101.253Z" fill="white" stroke="white" stroke-width="0.16" stroke-miterlimit="10"/>
<path d="M91.3458 28.2783C88.2184 28.2783 85.6636 30.602 85.6636 33.8081C85.6636 36.9883 88.2184 39.3364 91.3458 39.3364C94.4798 39.3364 97.0346 36.9883 97.0346 33.8081C97.0346 30.602 94.4798 28.2783 91.3458 28.2783ZM91.3458 37.1589C89.6298 37.1589 88.1535 35.776 88.1535 33.8081C88.1535 31.8143 89.6298 30.4558 91.3458 30.4558C93.0618 30.4558 94.5447 31.8143 94.5447 33.8081C94.5447 35.776 93.0618 37.1589 91.3458 37.1589ZM78.9479 28.2783C75.8138 28.2783 73.2657 30.602 73.2657 33.8081C73.2657 36.9883 75.8138 39.3364 78.9479 39.3364C82.0802 39.3364 84.63 36.9883 84.63 33.8081C84.63 30.602 82.0802 28.2783 78.9479 28.2783ZM78.9479 37.1589C77.2302 37.1589 75.7489 35.776 75.7489 33.8081C75.7489 31.8143 77.2302 30.4558 78.9479 30.4558C80.6638 30.4558 82.1401 31.8143 82.1401 33.8081C82.1401 35.776 80.6638 37.1589 78.9479 37.1589ZM64.1948 29.9731V32.3229H69.9419C69.7738 33.6359 69.3244 34.6011 68.6354 35.2739C67.7965 36.0864 66.49 36.9883 64.1948 36.9883C60.658 36.9883 57.8885 34.2014 57.8885 30.7483C57.8885 27.2951 60.658 24.5083 64.1948 24.5083C66.1072 24.5083 67.4986 25.2379 68.5255 26.1836L70.2215 24.5278C68.7852 23.1888 66.8745 22.1601 64.1948 22.1601C59.3449 22.1601 55.2688 26.013 55.2688 30.7483C55.2688 35.4835 59.3449 39.3364 64.1948 39.3364C66.8162 39.3364 68.7852 38.4979 70.3331 36.9249C71.9192 35.3763 72.4135 33.1988 72.4135 31.4405C72.4135 30.8945 72.3669 30.3924 72.2837 29.9731H64.1948ZM124.522 31.7948C124.054 30.5581 122.611 28.2783 119.672 28.2783C116.759 28.2783 114.334 30.5191 114.334 33.8081C114.334 36.9054 116.734 39.3364 119.951 39.3364C122.553 39.3364 124.054 37.7878 124.672 36.8859L122.741 35.6298C122.097 36.5495 121.22 37.1589 119.951 37.1589C118.691 37.1589 117.788 36.595 117.209 35.4835L124.783 32.4236L124.522 31.7948ZM116.799 33.6359C116.734 31.5039 118.495 30.4119 119.757 30.4119C120.745 30.4119 121.584 30.8945 121.864 31.5851L116.799 33.6359ZM110.643 39H113.132V22.75H110.643V39ZM106.565 29.51H106.482C105.922 28.8633 104.856 28.2783 103.504 28.2783C100.668 28.2783 98.0749 30.7093 98.0749 33.826C98.0749 36.9249 100.668 39.3364 103.504 39.3364C104.856 39.3364 105.922 38.7465 106.482 38.0803H106.565V38.8733C106.565 40.9874 105.408 42.1233 103.542 42.1233C102.021 42.1233 101.077 41.0508 100.688 40.1489L98.5226 41.0313C99.1467 42.497 100.799 44.3008 103.542 44.3008C106.462 44.3008 108.925 42.6238 108.925 38.5434V28.6146H106.565V29.51ZM103.717 37.1589C102.001 37.1589 100.565 35.7565 100.565 33.826C100.565 31.8776 102.001 30.4558 103.717 30.4558C105.408 30.4558 106.741 31.8776 106.741 33.826C106.741 35.7565 105.408 37.1589 103.717 37.1589ZM136.179 22.75H130.224V39H132.707V32.8429H136.179C138.937 32.8429 141.642 30.8945 141.642 27.7956C141.642 24.6984 138.93 22.75 136.179 22.75ZM136.244 30.5825H132.707V25.0104H136.244C138.098 25.0104 139.157 26.5135 139.157 27.7956C139.157 29.0534 138.098 30.5825 136.244 30.5825ZM151.595 28.2474C149.8 28.2474 147.935 29.0209 147.167 30.7353L149.371 31.6371C149.845 30.7353 150.717 30.4428 151.639 30.4428C152.928 30.4428 154.234 31.1984 154.254 32.5325V32.7031C153.805 32.4496 152.843 32.0743 151.659 32.0743C149.286 32.0743 146.868 33.3499 146.868 35.7305C146.868 37.908 148.812 39.3104 150.997 39.3104C152.668 39.3104 153.59 38.5743 154.169 37.7179H154.254V38.974H156.653V32.7405C156.653 29.8594 154.449 28.2474 151.595 28.2474ZM151.295 37.1524C150.483 37.1524 149.351 36.7591 149.351 35.776C149.351 34.5183 150.762 34.0356 151.984 34.0356C153.077 34.0356 153.59 34.2713 154.254 34.5816C154.059 36.0864 152.733 37.1524 151.295 37.1524ZM165.391 28.6033L162.536 35.6476H162.451L159.5 28.6033H156.822L161.256 38.4475L158.726 43.9254H161.321L168.153 28.6033H165.391ZM143.006 39H145.496V22.75H143.006V39Z" fill="white"/>
<path d="M14.5188 9.79947C14.1277 10.1992 13.9014 10.8216 13.9014 11.6276V40.3771C13.9014 41.1831 14.1277 41.8055 14.5188 42.2052L14.6154 42.293L31.116 26.1892V25.809L14.6154 9.70522L14.5188 9.79947Z" fill="url(#paint0_linear_3_1200)"/>
<path d="M36.6103 31.5607L31.1162 26.1901V25.8099L36.617 20.4392L36.7401 20.5091L43.2545 24.128C45.1136 25.155 45.1136 26.845 43.2545 27.8785L36.7401 31.4909L36.6103 31.5607Z" fill="url(#paint1_linear_3_1200)"/>
<path d="M36.7396 31.4902L31.1157 25.9994L14.5186 42.2055C15.136 42.8392 16.143 42.9156 17.2881 42.2819L36.7396 31.4902Z" fill="url(#paint2_linear_3_1200)"/>
<path d="M36.7396 20.5091L17.2881 9.71751C16.143 9.09025 15.136 9.16663 14.5186 9.80038L31.1157 26L36.7396 20.5091Z" fill="url(#paint3_linear_3_1200)"/>
<defs>
<linearGradient id="paint0_linear_3_1200" x1="29.6509" y1="40.6765" x2="7.84008" y2="18.3371" gradientUnits="userSpaceOnUse">
<stop stop-color="#00A0FF"/>
<stop offset="0.0066" stop-color="#00A1FF"/>
<stop offset="0.2601" stop-color="#00BEFF"/>
<stop offset="0.5122" stop-color="#00D2FF"/>
<stop offset="0.7604" stop-color="#00DFFF"/>
<stop offset="1" stop-color="#00E3FF"/>
</linearGradient>
<linearGradient id="paint1_linear_3_1200" x1="45.6754" y1="25.9982" x2="13.4572" y2="25.9982" gradientUnits="userSpaceOnUse">
<stop stop-color="#FFE000"/>
<stop offset="0.4087" stop-color="#FFBD00"/>
<stop offset="0.7754" stop-color="#FFA500"/>
<stop offset="1" stop-color="#FF9C00"/>
</linearGradient>
<linearGradient id="paint2_linear_3_1200" x1="33.6815" y1="23.0144" x2="4.1042" y2="-7.27957" gradientUnits="userSpaceOnUse">
<stop stop-color="#FF3A44"/>
<stop offset="1" stop-color="#C31162"/>
</linearGradient>
<linearGradient id="paint3_linear_3_1200" x1="10.3407" y1="51.7709" x2="23.5483" y2="38.2434" gradientUnits="userSpaceOnUse">
<stop stop-color="#32A071"/>
<stop offset="0.0685" stop-color="#2DA771"/>
<stop offset="0.4762" stop-color="#15CF74"/>
<stop offset="0.8009" stop-color="#06E775"/>
<stop offset="1" stop-color="#00F076"/>
</linearGradient>
</defs>
</svg>
