<svg width="39" height="40" viewBox="0 0 39 40" fill="none" xmlns="http://www.w3.org/2000/svg">
<path d="M19.0698 23.251L2.95375 32.6161L0.585938 30.239L14.7139 20.7083L19.0698 23.251Z" fill="url(#paint0_linear_2026_147)"/>
<path d="M19.4341 23.8844L3.29751 33.2139L4.16417 36.4611L19.4494 28.943L19.4341 23.8844Z" fill="url(#paint1_linear_2026_147)"/>
<path d="M20.0747 23.8844L36.2112 33.2138L35.3446 36.4611L20.0593 28.943L20.0747 23.8844Z" fill="url(#paint2_linear_2026_147)"/>
<path d="M20.439 23.251L36.555 32.6161L38.9228 30.2389L24.7949 20.7083L20.439 23.251Z" fill="url(#paint3_linear_2026_147)"/>
<path d="M20.0747 22.5589L20.0542 3.86438L23.2887 2.99426L24.446 20.043L20.0747 22.5589Z" fill="url(#paint4_linear_2026_147)"/>
<path d="M19.3462 22.5589L19.3667 3.86438L16.1322 2.99426L14.9748 20.043L19.3462 22.5589Z" fill="url(#paint5_linear_2026_147)"/>
<defs>
<linearGradient id="paint0_linear_2026_147" x1="19.7544" y1="2.99426" x2="19.7544" y2="36.4611" gradientUnits="userSpaceOnUse">
<stop stop-color="#33E6BF"/>
<stop offset="1" stop-color="#0439C7"/>
</linearGradient>
<linearGradient id="paint1_linear_2026_147" x1="19.7544" y1="2.99426" x2="19.7544" y2="36.4611" gradientUnits="userSpaceOnUse">
<stop stop-color="#33E6BF"/>
<stop offset="1" stop-color="#0439C7"/>
</linearGradient>
<linearGradient id="paint2_linear_2026_147" x1="19.7544" y1="2.99426" x2="19.7544" y2="36.4611" gradientUnits="userSpaceOnUse">
<stop stop-color="#33E6BF"/>
<stop offset="1" stop-color="#0439C7"/>
</linearGradient>
<linearGradient id="paint3_linear_2026_147" x1="19.7544" y1="2.99426" x2="19.7544" y2="36.4611" gradientUnits="userSpaceOnUse">
<stop stop-color="#33E6BF"/>
<stop offset="1" stop-color="#0439C7"/>
</linearGradient>
<linearGradient id="paint4_linear_2026_147" x1="19.7544" y1="2.99426" x2="19.7544" y2="36.4611" gradientUnits="userSpaceOnUse">
<stop stop-color="#33E6BF"/>
<stop offset="1" stop-color="#0439C7"/>
</linearGradient>
<linearGradient id="paint5_linear_2026_147" x1="19.7544" y1="2.99426" x2="19.7544" y2="36.4611" gradientUnits="userSpaceOnUse">
<stop stop-color="#33E6BF"/>
<stop offset="1" stop-color="#0439C7"/>
</linearGradient>
</defs>
</svg>
