<svg width="182" height="52" viewBox="0 0 182 52" fill="none" xmlns="http://www.w3.org/2000/svg">
<path d="M174.595 52H8.1575C4.49754 52 1.5 49.0734 1.5 45.5V6.5C1.5 2.92663 4.49754 2.74817e-06 8.1575 2.74817e-06H174.595C178.255 2.74817e-06 181.253 2.92663 181.253 6.5V45.5C181.253 49.0734 178.255 52 174.595 52Z" fill="black"/>
<path d="M173.595 1.04162C176.677 1.04162 179.186 3.4905 179.186 6.5V45.5C179.186 48.5095 176.677 50.9584 173.595 50.9584H7.1575C4.07508 50.9584 1.56686 48.5095 1.56686 45.5V6.5C1.56686 3.4905 4.07508 1.04162 7.1575 1.04162H173.595ZM173.595 2.74817e-06H7.1575C3.49754 2.74817e-06 0.5 2.92663 0.5 6.5V45.5C0.5 49.0734 3.49754 52 7.1575 52H173.595C177.255 52 180.253 49.0734 180.253 45.5V6.5C180.253 2.92663 177.255 2.74817e-06 173.595 2.74817e-06Z" fill="#A6A6A6"/>
<path d="M71.056 7.6L67.372 16H66.184L62.488 7.6H63.784L66.808 14.5L69.856 7.6H71.056ZM72.8109 9.64H73.9629V16H72.8109V9.64ZM73.3869 8.416C73.1629 8.416 72.9749 8.344 72.8229 8.2C72.6789 8.056 72.6069 7.88 72.6069 7.672C72.6069 7.464 72.6789 7.288 72.8229 7.144C72.9749 6.992 73.1629 6.916 73.3869 6.916C73.6109 6.916 73.7949 6.988 73.9389 7.132C74.0909 7.268 74.1669 7.44 74.1669 7.648C74.1669 7.864 74.0909 8.048 73.9389 8.2C73.7949 8.344 73.6109 8.416 73.3869 8.416ZM82.7505 12.856C82.7505 12.944 82.7425 13.06 82.7265 13.204H77.5665C77.6385 13.764 77.8825 14.216 78.2985 14.56C78.7225 14.896 79.2465 15.064 79.8705 15.064C80.6305 15.064 81.2425 14.808 81.7065 14.296L82.3425 15.04C82.0545 15.376 81.6945 15.632 81.2625 15.808C80.8385 15.984 80.3625 16.072 79.8345 16.072C79.1625 16.072 78.5665 15.936 78.0465 15.664C77.5265 15.384 77.1225 14.996 76.8345 14.5C76.5545 14.004 76.4145 13.444 76.4145 12.82C76.4145 12.204 76.5505 11.648 76.8225 11.152C77.1025 10.656 77.4825 10.272 77.9625 10C78.4505 9.72 78.9985 9.58 79.6065 9.58C80.2145 9.58 80.7545 9.72 81.2265 10C81.7065 10.272 82.0785 10.656 82.3425 11.152C82.6145 11.648 82.7505 12.216 82.7505 12.856ZM79.6065 10.552C79.0545 10.552 78.5905 10.72 78.2145 11.056C77.8465 11.392 77.6305 11.832 77.5665 12.376H81.6465C81.5825 11.84 81.3625 11.404 80.9865 11.068C80.6185 10.724 80.1585 10.552 79.6065 10.552ZM94.6969 9.64L92.3209 16H91.2169L89.3809 11.176L87.5209 16H86.4169L84.0529 9.64H85.1449L86.9929 14.704L88.9129 9.64H89.8849L91.7689 14.728L93.6649 9.64H94.6969ZM100.769 9.64H101.921V16H100.769V9.64ZM101.345 8.416C101.121 8.416 100.933 8.344 100.781 8.2C100.637 8.056 100.565 7.88 100.565 7.672C100.565 7.464 100.637 7.288 100.781 7.144C100.933 6.992 101.121 6.916 101.345 6.916C101.569 6.916 101.753 6.988 101.897 7.132C102.049 7.268 102.125 7.44 102.125 7.648C102.125 7.864 102.049 8.048 101.897 8.2C101.753 8.344 101.569 8.416 101.345 8.416ZM108.536 15.628C108.368 15.772 108.16 15.884 107.912 15.964C107.664 16.036 107.408 16.072 107.144 16.072C106.504 16.072 106.008 15.9 105.656 15.556C105.304 15.212 105.128 14.72 105.128 14.08V10.588H104.048V9.64H105.128V8.248H106.28V9.64H108.104V10.588H106.28V14.032C106.28 14.376 106.364 14.64 106.532 14.824C106.708 15.008 106.956 15.1 107.276 15.1C107.628 15.1 107.928 15 108.176 14.8L108.536 15.628ZM117.556 16.072C116.924 16.072 116.356 15.932 115.852 15.652C115.348 15.372 114.952 14.988 114.664 14.5C114.384 14.004 114.244 13.444 114.244 12.82C114.244 12.196 114.384 11.64 114.664 11.152C114.952 10.656 115.348 10.272 115.852 10C116.356 9.72 116.924 9.58 117.556 9.58C118.188 9.58 118.752 9.72 119.248 10C119.752 10.272 120.144 10.656 120.424 11.152C120.712 11.64 120.856 12.196 120.856 12.82C120.856 13.444 120.712 14.004 120.424 14.5C120.144 14.988 119.752 15.372 119.248 15.652C118.752 15.932 118.188 16.072 117.556 16.072ZM117.556 15.064C117.964 15.064 118.328 14.972 118.648 14.788C118.976 14.596 119.232 14.332 119.416 13.996C119.6 13.652 119.692 13.26 119.692 12.82C119.692 12.38 119.6 11.992 119.416 11.656C119.232 11.312 118.976 11.048 118.648 10.864C118.328 10.68 117.964 10.588 117.556 10.588C117.148 10.588 116.78 10.68 116.452 10.864C116.132 11.048 115.876 11.312 115.684 11.656C115.5 11.992 115.408 12.38 115.408 12.82C115.408 13.26 115.5 13.652 115.684 13.996C115.876 14.332 116.132 14.596 116.452 14.788C116.78 14.972 117.148 15.064 117.556 15.064ZM126.685 9.58C127.493 9.58 128.133 9.816 128.605 10.288C129.085 10.752 129.325 11.436 129.325 12.34V16H128.173V12.472C128.173 11.856 128.025 11.392 127.729 11.08C127.433 10.768 127.009 10.612 126.457 10.612C125.833 10.612 125.341 10.796 124.981 11.164C124.621 11.524 124.441 12.044 124.441 12.724V16H123.289V9.64H124.393V10.6C124.625 10.272 124.937 10.02 125.329 9.844C125.729 9.668 126.181 9.58 126.685 9.58Z" fill="white"/>
<path d="M79.132 25.6L72.466 41H68.946L62.302 25.6H66.152L70.838 36.6L75.59 25.6H79.132ZM92.3516 29.164V41H89.0956V39.592C88.6409 40.1053 88.0983 40.5013 87.4676 40.78C86.8369 41.044 86.1549 41.176 85.4216 41.176C83.8669 41.176 82.6349 40.7287 81.7256 39.834C80.8163 38.9393 80.3616 37.612 80.3616 35.852V29.164H83.7936V35.346C83.7936 37.2527 84.5929 38.206 86.1916 38.206C87.0129 38.206 87.6729 37.942 88.1716 37.414C88.6703 36.8713 88.9196 36.072 88.9196 35.016V29.164H92.3516ZM96.1911 24.676H99.6231V41H96.1911V24.676ZM111.962 40.428C111.624 40.6773 111.206 40.868 110.708 41C110.224 41.1173 109.71 41.176 109.168 41.176C107.76 41.176 106.667 40.8167 105.89 40.098C105.127 39.3793 104.746 38.3233 104.746 36.93V32.068H102.92V29.428H104.746V26.546H108.178V29.428H111.126V32.068H108.178V36.886C108.178 37.3847 108.302 37.7733 108.552 38.052C108.816 38.316 109.182 38.448 109.652 38.448C110.194 38.448 110.656 38.3013 111.038 38.008L111.962 40.428ZM114.548 29.164H117.98V41H114.548V29.164ZM116.264 27.514C115.634 27.514 115.12 27.3307 114.724 26.964C114.328 26.5973 114.13 26.1427 114.13 25.6C114.13 25.0573 114.328 24.6027 114.724 24.236C115.12 23.8693 115.634 23.686 116.264 23.686C116.895 23.686 117.408 23.862 117.804 24.214C118.2 24.566 118.398 25.006 118.398 25.534C118.398 26.106 118.2 26.5827 117.804 26.964C117.408 27.3307 116.895 27.514 116.264 27.514ZM145.064 25.6L140.026 41H136.198L132.81 30.572L129.312 41H125.506L120.446 25.6H124.142L127.618 36.424L131.248 25.6H134.548L138.068 36.512L141.654 25.6H145.064ZM158.185 35.126C158.185 35.17 158.163 35.478 158.119 36.05H149.165C149.326 36.7833 149.708 37.3627 150.309 37.788C150.91 38.2133 151.658 38.426 152.553 38.426C153.169 38.426 153.712 38.338 154.181 38.162C154.665 37.9713 155.112 37.678 155.523 37.282L157.349 39.262C156.234 40.538 154.606 41.176 152.465 41.176C151.13 41.176 149.95 40.9193 148.923 40.406C147.896 39.878 147.104 39.152 146.547 38.228C145.99 37.304 145.711 36.2553 145.711 35.082C145.711 33.9233 145.982 32.882 146.525 31.958C147.082 31.0193 147.838 30.2933 148.791 29.78C149.759 29.252 150.837 28.988 152.025 28.988C153.184 28.988 154.232 29.2373 155.171 29.736C156.11 30.2347 156.843 30.9533 157.371 31.892C157.914 32.816 158.185 33.894 158.185 35.126ZM152.047 31.584C151.27 31.584 150.617 31.804 150.089 32.244C149.561 32.684 149.238 33.2853 149.121 34.048H154.951C154.834 33.3 154.511 32.706 153.983 32.266C153.455 31.8113 152.81 31.584 152.047 31.584ZM168.126 28.988C169.226 28.988 170.223 29.2447 171.118 29.758C172.027 30.2567 172.738 30.968 173.252 31.892C173.765 32.8013 174.022 33.8647 174.022 35.082C174.022 36.2993 173.765 37.37 173.252 38.294C172.738 39.2033 172.027 39.9147 171.118 40.428C170.223 40.9267 169.226 41.176 168.126 41.176C166.498 41.176 165.258 40.6627 164.408 39.636V41H161.13V24.676H164.562V30.418C165.427 29.4647 166.615 28.988 168.126 28.988ZM167.532 38.36C168.412 38.36 169.13 38.0667 169.688 37.48C170.26 36.8787 170.546 36.0793 170.546 35.082C170.546 34.0847 170.26 33.2927 169.688 32.706C169.13 32.1047 168.412 31.804 167.532 31.804C166.652 31.804 165.926 32.1047 165.354 32.706C164.796 33.2927 164.518 34.0847 164.518 35.082C164.518 36.0793 164.796 36.8787 165.354 37.48C165.926 38.0667 166.652 38.36 167.532 38.36Z" fill="white"/>
<path d="M52.5861 8H13.8995C13.1292 8 12.5049 8.62456 12.5049 9.39466V32.4098C12.5049 33.1801 13.1292 33.8045 13.8995 33.8045H52.5858C53.3562 33.8045 53.9805 33.1801 53.9805 32.4098V9.39466C53.9807 8.62456 53.3562 8 52.5861 8Z" fill="#CBF0FF"/>
<path d="M51.3009 9.5293H15.1847C14.6797 9.5293 14.27 9.93875 14.27 10.444V31.3621C14.27 31.8674 14.6795 32.2769 15.1847 32.2769H51.3009C51.8059 32.2769 52.2156 31.8674 52.2156 31.3621V10.444C52.2154 9.93898 51.8059 9.5293 51.3009 9.5293Z" fill="#02247F"/>
<path d="M55.9856 38.5098H10.5V38.9265C10.5 40.6234 11.8757 41.9992 13.5726 41.9992H52.9129C54.6098 41.9992 55.9853 40.6234 55.9853 38.9265V38.5098H55.9856Z" fill="#92BFF8"/>
<path opacity="0.53" d="M55.9856 38.5098H10.5V38.9265C10.5 40.6234 11.8757 41.9992 13.5726 41.9992H52.9129C54.6098 41.9992 55.9853 40.6234 55.9853 38.9265V38.5098H55.9856Z" fill="#02247F"/>
<path d="M52.8141 33.8047H13.6714L10.5 38.47H55.9856L52.8141 33.8047Z" fill="#92BFF8"/>
<path d="M51.6688 34.875H14.8167L13.2129 37.1159H53.2724L51.6688 34.875Z" fill="white"/>
<path d="M37.9347 40.2379H28.5514C27.597 40.2379 26.8232 39.4642 26.8232 38.5098H39.6626C39.6629 39.4642 38.8891 40.2379 37.9347 40.2379Z" fill="#02247F"/>
<path d="M34.4882 8.58789H30.3211C30.2009 8.58789 30.1035 8.68529 30.1035 8.80551C30.1035 8.92572 30.2009 9.02313 30.3211 9.02313H34.4882C34.6085 9.02313 34.7059 8.92572 34.7059 8.80551C34.7061 8.68529 34.6085 8.58789 34.4882 8.58789Z" fill="#02247F"/>
<path d="M36.3825 8.806C36.3825 8.60138 36.2167 8.43555 36.0121 8.43555C35.8075 8.43555 35.6418 8.60138 35.6418 8.806C35.6418 9.01038 35.8077 9.17622 36.0121 9.17622C36.2165 9.17622 36.3825 9.01061 36.3825 8.806Z" fill="#02247F"/>
<path d="M33.0374 21.888L27.101 25.3241L26.2288 24.4519L31.4329 20.955L33.0374 21.888Z" fill="url(#paint0_linear_3_1377)"/>
<path d="M33.1716 22.1204L27.2276 25.5434L27.5468 26.7349L33.1773 23.9764L33.1716 22.1204Z" fill="url(#paint1_linear_3_1377)"/>
<path d="M33.4076 22.1204L39.3516 25.5434L39.0324 26.7349L33.4019 23.9764L33.4076 22.1204Z" fill="url(#paint2_linear_3_1377)"/>
<path d="M33.5418 21.888L39.4783 25.3241L40.3505 24.4519L35.1463 20.955L33.5418 21.888Z" fill="url(#paint3_linear_3_1377)"/>
<path d="M33.4076 21.634L33.4001 14.7748L34.5915 14.4556L35.0178 20.7109L33.4076 21.634Z" fill="url(#paint4_linear_3_1377)"/>
<path d="M33.1392 21.634L33.1468 14.7748L31.9554 14.4556L31.529 20.7109L33.1392 21.634Z" fill="url(#paint5_linear_3_1377)"/>
<path d="M33.0374 21.888L27.101 25.3241L26.2288 24.4519L31.4329 20.955L33.0374 21.888Z" stroke="url(#paint6_linear_3_1377)"/>
<path d="M33.1716 22.1204L27.2276 25.5434L27.5468 26.7349L33.1773 23.9764L33.1716 22.1204Z" stroke="url(#paint7_linear_3_1377)"/>
<path d="M33.4076 22.1204L39.3516 25.5434L39.0324 26.7349L33.4019 23.9764L33.4076 22.1204Z" stroke="url(#paint8_linear_3_1377)"/>
<path d="M33.5418 21.888L39.4783 25.3241L40.3505 24.4519L35.1463 20.955L33.5418 21.888Z" stroke="url(#paint9_linear_3_1377)"/>
<path d="M33.4076 21.634L33.4001 14.7748L34.5915 14.4556L35.0178 20.7109L33.4076 21.634Z" stroke="url(#paint10_linear_3_1377)"/>
<path d="M33.1392 21.634L33.1468 14.7748L31.9554 14.4556L31.529 20.7109L33.1392 21.634Z" stroke="url(#paint11_linear_3_1377)"/>
<g opacity="0.6">
<path d="M27.5054 27.5512L33.2735 24.7617L39.0416 27.5512" stroke="#0439C7"/>
<path d="M27.5054 27.5512L33.2735 24.7617L39.0416 27.5512" stroke="url(#paint12_linear_3_1377)"/>
</g>
<g opacity="0.6">
<path d="M25.3779 24.0526L30.6733 20.4593L31.146 14.0293" stroke="#0439C7"/>
<path d="M25.3779 24.0526L30.6733 20.4593L31.146 14.0293" stroke="url(#paint13_linear_3_1377)"/>
</g>
<g opacity="0.6">
<path d="M35.4011 13.9824L35.8739 20.4125L41.1692 24.053" stroke="#0439C7"/>
<path d="M35.4011 13.9824L35.8739 20.4125L41.1692 24.053" stroke="url(#paint14_linear_3_1377)"/>
</g>
<path opacity="0.4" d="M27.5051 28.4965L33.2732 25.707L39.0414 28.4965" stroke="url(#paint15_linear_3_1377)"/>
<g opacity="0.4">
<path d="M24.4319 23.4842L29.7272 19.891L30.2 13.4609" stroke="#0439C7"/>
<path d="M24.4319 23.4842L29.7272 19.891L30.2 13.4609" stroke="url(#paint16_linear_3_1377)"/>
</g>
<g opacity="0.4">
<path d="M36.2993 13.8867L36.8194 19.844L42.1147 23.4845" stroke="#0439C7"/>
<path d="M36.2993 13.8867L36.8194 19.844L42.1147 23.4845" stroke="url(#paint17_linear_3_1377)"/>
</g>
<path opacity="0.2" d="M27.5055 29.395L33.2736 26.6055L39.0417 29.395" stroke="url(#paint18_linear_3_1377)"/>
<g opacity="0.2">
<path d="M23.4865 22.7284L28.7818 19.1351L29.2546 12.7051" stroke="#0439C7"/>
<path d="M23.4865 22.7284L28.7818 19.1351L29.2546 12.7051" stroke="url(#paint19_linear_3_1377)"/>
</g>
<g opacity="0.2">
<path d="M37.2924 12.7051L37.7652 19.1351L43.0605 22.7756" stroke="#0439C7"/>
<path d="M37.2924 12.7051L37.7652 19.1351L43.0605 22.7756" stroke="url(#paint20_linear_3_1377)"/>
</g>
<defs>
<linearGradient id="paint0_linear_3_1377" x1="33.2896" y1="14.4556" x2="33.2896" y2="26.7349" gradientUnits="userSpaceOnUse">
<stop stop-color="#33E6BF"/>
<stop offset="1" stop-color="#0439C7"/>
</linearGradient>
<linearGradient id="paint1_linear_3_1377" x1="33.2896" y1="14.4556" x2="33.2896" y2="26.7349" gradientUnits="userSpaceOnUse">
<stop stop-color="#33E6BF"/>
<stop offset="1" stop-color="#0439C7"/>
</linearGradient>
<linearGradient id="paint2_linear_3_1377" x1="33.2896" y1="14.4556" x2="33.2896" y2="26.7349" gradientUnits="userSpaceOnUse">
<stop stop-color="#33E6BF"/>
<stop offset="1" stop-color="#0439C7"/>
</linearGradient>
<linearGradient id="paint3_linear_3_1377" x1="33.2896" y1="14.4556" x2="33.2896" y2="26.7349" gradientUnits="userSpaceOnUse">
<stop stop-color="#33E6BF"/>
<stop offset="1" stop-color="#0439C7"/>
</linearGradient>
<linearGradient id="paint4_linear_3_1377" x1="33.2896" y1="14.4556" x2="33.2896" y2="26.7349" gradientUnits="userSpaceOnUse">
<stop stop-color="#33E6BF"/>
<stop offset="1" stop-color="#0439C7"/>
</linearGradient>
<linearGradient id="paint5_linear_3_1377" x1="33.2896" y1="14.4556" x2="33.2896" y2="26.7349" gradientUnits="userSpaceOnUse">
<stop stop-color="#33E6BF"/>
<stop offset="1" stop-color="#0439C7"/>
</linearGradient>
<linearGradient id="paint6_linear_3_1377" x1="33.2896" y1="14.4556" x2="33.2896" y2="26.7349" gradientUnits="userSpaceOnUse">
<stop stop-color="#33E6BF"/>
<stop offset="1" stop-color="#0439C7"/>
</linearGradient>
<linearGradient id="paint7_linear_3_1377" x1="33.2896" y1="14.4556" x2="33.2896" y2="26.7349" gradientUnits="userSpaceOnUse">
<stop stop-color="#33E6BF"/>
<stop offset="1" stop-color="#0439C7"/>
</linearGradient>
<linearGradient id="paint8_linear_3_1377" x1="33.2896" y1="14.4556" x2="33.2896" y2="26.7349" gradientUnits="userSpaceOnUse">
<stop stop-color="#33E6BF"/>
<stop offset="1" stop-color="#0439C7"/>
</linearGradient>
<linearGradient id="paint9_linear_3_1377" x1="33.2896" y1="14.4556" x2="33.2896" y2="26.7349" gradientUnits="userSpaceOnUse">
<stop stop-color="#33E6BF"/>
<stop offset="1" stop-color="#0439C7"/>
</linearGradient>
<linearGradient id="paint10_linear_3_1377" x1="33.2896" y1="14.4556" x2="33.2896" y2="26.7349" gradientUnits="userSpaceOnUse">
<stop stop-color="#33E6BF"/>
<stop offset="1" stop-color="#0439C7"/>
</linearGradient>
<linearGradient id="paint11_linear_3_1377" x1="33.2896" y1="14.4556" x2="33.2896" y2="26.7349" gradientUnits="userSpaceOnUse">
<stop stop-color="#33E6BF"/>
<stop offset="1" stop-color="#0439C7"/>
</linearGradient>
<linearGradient id="paint12_linear_3_1377" x1="33.3208" y1="26.2747" x2="33.0844" y2="14.502" gradientUnits="userSpaceOnUse">
<stop stop-color="#0439C7"/>
<stop offset="1" stop-color="#33E6BF"/>
</linearGradient>
<linearGradient id="paint13_linear_3_1377" x1="23.2031" y1="24.9467" x2="22.4645" y2="14.1365" gradientUnits="userSpaceOnUse">
<stop stop-color="#0439C7"/>
<stop offset="1" stop-color="#33E6BF"/>
</linearGradient>
<linearGradient id="paint14_linear_3_1377" x1="33.2263" y1="24.9513" x2="32.4808" y2="14.0906" gradientUnits="userSpaceOnUse">
<stop stop-color="#0439C7"/>
<stop offset="1" stop-color="#33E6BF"/>
</linearGradient>
<linearGradient id="paint15_linear_3_1377" x1="33.1787" y1="25.7543" x2="33.0368" y2="13.4616" gradientUnits="userSpaceOnUse">
<stop stop-color="#0439C7"/>
<stop offset="1" stop-color="#33E6BF"/>
</linearGradient>
<linearGradient id="paint16_linear_3_1377" x1="22.257" y1="24.3783" x2="21.5185" y2="13.5681" gradientUnits="userSpaceOnUse">
<stop stop-color="#0439C7"/>
<stop offset="1" stop-color="#33E6BF"/>
</linearGradient>
<linearGradient id="paint17_linear_3_1377" x1="34.1066" y1="24.3406" x2="33.4346" y2="13.9847" gradientUnits="userSpaceOnUse">
<stop stop-color="#0439C7"/>
<stop offset="1" stop-color="#33E6BF"/>
</linearGradient>
<linearGradient id="paint18_linear_3_1377" x1="33.1791" y1="26.6527" x2="33.0372" y2="14.36" gradientUnits="userSpaceOnUse">
<stop stop-color="#0439C7"/>
<stop offset="1" stop-color="#33E6BF"/>
</linearGradient>
<linearGradient id="paint19_linear_3_1377" x1="21.3116" y1="23.6225" x2="20.573" y2="12.8123" gradientUnits="userSpaceOnUse">
<stop stop-color="#0439C7"/>
<stop offset="1" stop-color="#33E6BF"/>
</linearGradient>
<linearGradient id="paint20_linear_3_1377" x1="35.1175" y1="23.674" x2="34.372" y2="12.8133" gradientUnits="userSpaceOnUse">
<stop stop-color="#0439C7"/>
<stop offset="1" stop-color="#33E6BF"/>
</linearGradient>
</defs>
</svg>
