<svg width="329" height="281" viewBox="0 0 329 281" fill="none" xmlns="http://www.w3.org/2000/svg">
<path d="M160.559 154.413L61.3836 211.818L46.8125 197.247L133.753 138.828L160.559 154.413Z" fill="url(#paint0_linear_3_1408)"/>
<path d="M162.8 158.296L63.499 215.482L68.8323 235.386L162.895 189.303L162.8 158.296Z" fill="url(#paint1_linear_3_1408)"/>
<path d="M166.743 158.296L266.044 215.482L260.711 235.386L166.648 189.303L166.743 158.296Z" fill="url(#paint2_linear_3_1408)"/>
<path d="M168.984 154.413L268.159 211.817L282.731 197.247L195.79 138.827L168.984 154.413Z" fill="url(#paint3_linear_3_1408)"/>
<path d="M166.743 150.171L166.617 35.5805L186.521 30.2471L193.643 134.749L166.743 150.171Z" fill="url(#paint4_linear_3_1408)"/>
<path d="M162.259 150.171L162.386 35.5805L142.481 30.2471L135.359 134.749L162.259 150.171Z" fill="url(#paint5_linear_3_1408)"/>
<path d="M160.559 154.413L61.3836 211.818L46.8125 197.247L133.753 138.828L160.559 154.413Z" stroke="url(#paint6_linear_3_1408)"/>
<path d="M162.8 158.296L63.499 215.482L68.8323 235.386L162.895 189.303L162.8 158.296Z" stroke="url(#paint7_linear_3_1408)"/>
<path d="M166.743 158.296L266.044 215.482L260.711 235.386L166.648 189.303L166.743 158.296Z" stroke="url(#paint8_linear_3_1408)"/>
<path d="M168.984 154.413L268.159 211.817L282.731 197.247L195.79 138.827L168.984 154.413Z" stroke="url(#paint9_linear_3_1408)"/>
<path d="M166.743 150.171L166.617 35.5805L186.521 30.2471L193.643 134.749L166.743 150.171Z" stroke="url(#paint10_linear_3_1408)"/>
<path d="M162.259 150.171L162.386 35.5805L142.481 30.2471L135.359 134.749L162.259 150.171Z" stroke="url(#paint11_linear_3_1408)"/>
<g opacity="0.6">
<path d="M68.1387 249.012L164.501 202.41L260.864 249.012" stroke="#0439C7"/>
<path d="M68.1387 249.012L164.501 202.41L260.864 249.012" stroke="url(#paint12_linear_3_1408)"/>
</g>
<g opacity="0.6">
<path d="M32.5947 190.563L121.059 130.534L128.957 23.1133" stroke="#0439C7"/>
<path d="M32.5947 190.563L121.059 130.534L128.957 23.1133" stroke="url(#paint13_linear_3_1408)"/>
</g>
<g opacity="0.6">
<path d="M200.044 22.3242L207.943 129.745L296.407 190.564" stroke="#0439C7"/>
<path d="M200.044 22.3242L207.943 129.745L296.407 190.564" stroke="url(#paint14_linear_3_1408)"/>
</g>
<path opacity="0.4" d="M68.1377 264.812L164.5 218.211L260.863 264.812" stroke="url(#paint15_linear_3_1408)"/>
<g opacity="0.4">
<path d="M16.7969 181.086L105.261 121.057L113.159 13.6367" stroke="#0439C7"/>
<path d="M16.7969 181.086L105.261 121.057L113.159 13.6367" stroke="url(#paint16_linear_3_1408)"/>
</g>
<g opacity="0.4">
<path d="M215.051 20.7461L223.739 120.268L312.203 181.087" stroke="#0439C7"/>
<path d="M215.051 20.7461L223.739 120.268L312.203 181.087" stroke="url(#paint17_linear_3_1408)"/>
</g>
<path opacity="0.2" d="M68.1377 279.82L164.5 233.219L260.863 279.82" stroke="url(#paint18_linear_3_1408)"/>
<g opacity="0.2">
<path d="M1 168.45L89.464 108.421L97.3626 1" stroke="#0439C7"/>
<path d="M1 168.45L89.464 108.421L97.3626 1" stroke="url(#paint19_linear_3_1408)"/>
</g>
<g opacity="0.2">
<path d="M231.638 1L239.536 108.421L328 169.24" stroke="#0439C7"/>
<path d="M231.638 1L239.536 108.421L328 169.24" stroke="url(#paint20_linear_3_1408)"/>
</g>
<defs>
<linearGradient id="paint0_linear_3_1408" x1="164.772" y1="30.2471" x2="164.772" y2="235.386" gradientUnits="userSpaceOnUse">
<stop stop-color="#33E6BF"/>
<stop offset="1" stop-color="#0439C7"/>
</linearGradient>
<linearGradient id="paint1_linear_3_1408" x1="164.772" y1="30.2471" x2="164.772" y2="235.386" gradientUnits="userSpaceOnUse">
<stop stop-color="#33E6BF"/>
<stop offset="1" stop-color="#0439C7"/>
</linearGradient>
<linearGradient id="paint2_linear_3_1408" x1="164.772" y1="30.2471" x2="164.772" y2="235.386" gradientUnits="userSpaceOnUse">
<stop stop-color="#33E6BF"/>
<stop offset="1" stop-color="#0439C7"/>
</linearGradient>
<linearGradient id="paint3_linear_3_1408" x1="164.772" y1="30.2471" x2="164.772" y2="235.386" gradientUnits="userSpaceOnUse">
<stop stop-color="#33E6BF"/>
<stop offset="1" stop-color="#0439C7"/>
</linearGradient>
<linearGradient id="paint4_linear_3_1408" x1="164.772" y1="30.2471" x2="164.772" y2="235.386" gradientUnits="userSpaceOnUse">
<stop stop-color="#33E6BF"/>
<stop offset="1" stop-color="#0439C7"/>
</linearGradient>
<linearGradient id="paint5_linear_3_1408" x1="164.772" y1="30.2471" x2="164.772" y2="235.386" gradientUnits="userSpaceOnUse">
<stop stop-color="#33E6BF"/>
<stop offset="1" stop-color="#0439C7"/>
</linearGradient>
<linearGradient id="paint6_linear_3_1408" x1="164.772" y1="30.2471" x2="164.772" y2="235.386" gradientUnits="userSpaceOnUse">
<stop stop-color="#33E6BF"/>
<stop offset="1" stop-color="#0439C7"/>
</linearGradient>
<linearGradient id="paint7_linear_3_1408" x1="164.772" y1="30.2471" x2="164.772" y2="235.386" gradientUnits="userSpaceOnUse">
<stop stop-color="#33E6BF"/>
<stop offset="1" stop-color="#0439C7"/>
</linearGradient>
<linearGradient id="paint8_linear_3_1408" x1="164.772" y1="30.2471" x2="164.772" y2="235.386" gradientUnits="userSpaceOnUse">
<stop stop-color="#33E6BF"/>
<stop offset="1" stop-color="#0439C7"/>
</linearGradient>
<linearGradient id="paint9_linear_3_1408" x1="164.772" y1="30.2471" x2="164.772" y2="235.386" gradientUnits="userSpaceOnUse">
<stop stop-color="#33E6BF"/>
<stop offset="1" stop-color="#0439C7"/>
</linearGradient>
<linearGradient id="paint10_linear_3_1408" x1="164.772" y1="30.2471" x2="164.772" y2="235.386" gradientUnits="userSpaceOnUse">
<stop stop-color="#33E6BF"/>
<stop offset="1" stop-color="#0439C7"/>
</linearGradient>
<linearGradient id="paint11_linear_3_1408" x1="164.772" y1="30.2471" x2="164.772" y2="235.386" gradientUnits="userSpaceOnUse">
<stop stop-color="#33E6BF"/>
<stop offset="1" stop-color="#0439C7"/>
</linearGradient>
<linearGradient id="paint12_linear_3_1408" x1="165.291" y1="227.686" x2="161.342" y2="31.0112" gradientUnits="userSpaceOnUse">
<stop stop-color="#0439C7"/>
<stop offset="1" stop-color="#33E6BF"/>
</linearGradient>
<linearGradient id="paint13_linear_3_1408" x1="-3.7387" y1="205.5" x2="-16.0771" y2="24.9043" gradientUnits="userSpaceOnUse">
<stop stop-color="#0439C7"/>
<stop offset="1" stop-color="#33E6BF"/>
</linearGradient>
<linearGradient id="paint14_linear_3_1408" x1="163.711" y1="205.571" x2="151.256" y2="24.1316" gradientUnits="userSpaceOnUse">
<stop stop-color="#0439C7"/>
<stop offset="1" stop-color="#33E6BF"/>
</linearGradient>
<linearGradient id="paint15_linear_3_1408" x1="162.921" y1="219.001" x2="160.551" y2="13.638" gradientUnits="userSpaceOnUse">
<stop stop-color="#0439C7"/>
<stop offset="1" stop-color="#33E6BF"/>
</linearGradient>
<linearGradient id="paint16_linear_3_1408" x1="-19.5365" y1="196.023" x2="-31.8749" y2="15.4277" gradientUnits="userSpaceOnUse">
<stop stop-color="#0439C7"/>
<stop offset="1" stop-color="#33E6BF"/>
</linearGradient>
<linearGradient id="paint17_linear_3_1408" x1="178.42" y1="195.39" x2="167.193" y2="22.3823" gradientUnits="userSpaceOnUse">
<stop stop-color="#0439C7"/>
<stop offset="1" stop-color="#33E6BF"/>
</linearGradient>
<linearGradient id="paint18_linear_3_1408" x1="162.921" y1="234.009" x2="160.551" y2="28.6458" gradientUnits="userSpaceOnUse">
<stop stop-color="#0439C7"/>
<stop offset="1" stop-color="#33E6BF"/>
</linearGradient>
<linearGradient id="paint19_linear_3_1408" x1="-35.3334" y1="183.387" x2="-47.6718" y2="2.791" gradientUnits="userSpaceOnUse">
<stop stop-color="#0439C7"/>
<stop offset="1" stop-color="#33E6BF"/>
</linearGradient>
<linearGradient id="paint20_linear_3_1408" x1="195.304" y1="184.247" x2="182.85" y2="2.80742" gradientUnits="userSpaceOnUse">
<stop stop-color="#0439C7"/>
<stop offset="1" stop-color="#33E6BF"/>
</linearGradient>
</defs>
</svg>
