<svg width="19" height="19" viewBox="0 0 19 19" fill="none" xmlns="http://www.w3.org/2000/svg">
<g clip-path="url(#clip0_2084_269)">
<path d="M10.4462 8.85626L14.5718 14.7574H12.8786L9.512 9.94207V9.94177L9.01774 9.23488L5.08496 3.60938H6.77814L9.95189 8.14938L10.4462 8.85626Z" fill="white"/>
<path d="M17.0189 0H2.64746C1.55344 0 0.666504 0.886933 0.666504 1.98096V16.3524C0.666504 17.4464 1.55344 18.3333 2.64746 18.3333H17.0189C18.1129 18.3333 18.9998 17.4464 18.9998 16.3524V1.98096C18.9998 0.886933 18.1129 0 17.0189 0ZM12.3601 15.547L8.95326 10.5888L4.68788 15.547H3.58549L8.46377 9.87669L3.58549 2.7769H7.30625L10.5323 7.47199L14.5713 2.7769H15.6737L11.0219 8.18426H11.0216L16.0808 15.547H12.3601Z" fill="white"/>
</g>
<defs>
<clipPath id="clip0_2084_269">
<rect width="18.3333" height="18.3333" fill="white" transform="translate(0.666504)"/>
</clipPath>
</defs>
</svg>
