<svg preserveAspectRatio="none" width="100%" height="100%" overflow="visible" style="display: block;" viewBox="0 0 28.7543 28.7543" fill="none" xmlns="http://www.w3.org/2000/svg">
<g id="Layer_1">
<path id="Vector" d="M14.3772 28.7543C22.3175 28.7543 28.7543 22.3175 28.7543 14.3772C28.7543 6.43688 22.3175 0 14.3772 0C6.43688 0 0 6.43688 0 14.3772C0 22.3175 6.43688 28.7543 14.3772 28.7543Z" fill="#988430"/>
<path id="Vector_2" d="M14.3774 28.2928C22.0634 28.2928 28.2941 22.0621 28.2941 14.3761C28.2941 6.69019 22.0634 0.459498 14.3774 0.459498C6.69147 0.459498 0.460774 6.69019 0.460774 14.3761C0.460774 22.0621 6.69147 28.2928 14.3774 28.2928Z" fill="#7A6A2A"/>
<path id="Vector_3" d="M14.3765 28.0025C21.9005 28.0025 27.9999 21.9031 27.9999 14.379C27.9999 6.85503 21.9005 0.755619 14.3765 0.755619C6.85248 0.755619 0.753066 6.85503 0.753066 14.379C0.753066 21.9031 6.85248 28.0025 14.3765 28.0025Z" fill="#BA9F33"/>
<path id="Vector_4" fill-rule="evenodd" clip-rule="evenodd" d="M6.28515 12.8321C6.20372 12.7577 6.11769 12.6832 6.03855 12.6088C5.95942 12.5344 5.87814 12.4599 5.79671 12.3855L5.55471 12.1555C5.51515 12.1159 5.47328 12.0811 5.43372 12.0414C5.39415 12.0066 5.34768 11.967 5.30812 11.932C4.98699 11.6273 4.66402 11.3226 4.34734 11.0177C4.67537 11.3179 4.9965 11.6158 5.32453 11.9204L5.43847 12.0345C5.47804 12.0739 5.5199 12.1089 5.55947 12.1484L5.80131 12.3717C5.88274 12.4461 5.96188 12.5206 6.04331 12.6018C6.12474 12.6829 6.20387 12.7576 6.2853 12.8318L6.28515 12.8321ZM2.02322 12.7861C2.02322 12.7861 3.19103 12.9069 3.76106 12.9884C4.28906 13.0629 5.94087 13.3164 5.94087 13.3164L2.02322 12.7861ZM2.02322 12.7861C2.35125 12.814 2.67928 12.8488 3.00731 12.8838C3.17477 12.9 3.33534 12.9186 3.4959 12.9348L3.74235 12.9629C3.82378 12.9744 3.90291 12.9861 3.98434 12.9977L4.96153 13.1535L5.44997 13.235C5.61054 13.2629 5.7711 13.2932 5.93857 13.3212C5.778 13.3049 5.61054 13.2816 5.44997 13.2583L4.96153 13.1885L3.98434 13.0443C3.90291 13.0327 3.82378 13.0163 3.74235 13.0048L3.49575 12.9764C3.33518 12.9601 3.16772 12.9368 3.00716 12.9181C2.67913 12.8787 2.3511 12.8367 2.02307 12.7856L2.02322 12.7861ZM5.82462 13.6207C5.82462 13.6207 4.57768 13.9372 4.15656 14.0582C3.7425 14.1721 2.4885 14.5537 2.4885 14.5537L5.82447 13.6208L5.82462 13.6207Z" fill="#CFB66C"/>
<path id="Vector_5" fill-rule="evenodd" clip-rule="evenodd" d="M5.82449 13.6318C5.54768 13.7132 5.27241 13.7923 4.99161 13.8669L4.15873 14.0902C3.88192 14.1716 3.60665 14.2507 3.33061 14.3321L2.91654 14.4461C2.77929 14.4857 2.63974 14.5205 2.49788 14.5602C2.63498 14.5142 2.77469 14.4671 2.91194 14.4275L3.32601 14.295C3.60281 14.2088 3.87809 14.1274 4.15413 14.0414C4.43554 13.9716 4.7125 13.8971 4.99391 13.8296C5.26137 13.7621 5.54293 13.6948 5.82449 13.6319V13.6318ZM2.66305 15.3325C2.80015 15.2813 4.38217 14.5439 4.74977 14.3717C4.9338 14.2855 5.4687 14.0957 5.4687 14.0957L2.66305 15.3325Z" fill="#CFB66C"/>
<path id="Vector_6" fill-rule="evenodd" clip-rule="evenodd" d="M2.66396 15.3251C2.78481 15.2791 2.89891 15.2228 3.01515 15.1693L3.35944 15.0087L4.05046 14.6761C4.2805 14.5668 4.50409 14.4461 4.74133 14.3433C4.86233 14.2923 4.98333 14.2504 5.10417 14.2108L5.2882 14.1527C5.35092 14.1364 5.4092 14.1177 5.47223 14.1015C5.24219 14.2108 5.00004 14.3039 4.7697 14.4108C4.53967 14.5249 4.30442 14.618 4.06702 14.7203L3.3645 15.0296C3.12863 15.1251 2.8986 15.2274 2.66381 15.3251H2.66396ZM2.81732 15.9692C2.81732 15.9692 4.25028 15.1294 4.74348 14.8595C5.00173 14.7154 5.83691 14.3011 5.83691 14.3011L2.81732 15.9692Z" fill="#CFB66C"/>
<path id="Vector_7" fill-rule="evenodd" clip-rule="evenodd" d="M2.81698 15.9784C3.05882 15.8294 3.30542 15.6782 3.55201 15.5247L3.92007 15.3013C4.04567 15.2269 4.16667 15.1571 4.29472 15.0828C4.42032 15.0082 4.54132 14.9338 4.66922 14.8641C4.7301 14.8265 4.7939 14.7938 4.85999 14.7664L5.05537 14.6687C5.31362 14.5431 5.57187 14.415 5.84408 14.3057C5.59748 14.4617 5.34383 14.5943 5.09033 14.7314C4.96473 14.8012 4.83668 14.8641 4.71108 14.9338C4.58548 15.0036 4.46449 15.0782 4.33643 15.1456C4.21083 15.22 4.08984 15.2898 3.96194 15.3573L3.58269 15.5643L2.81728 15.9784H2.81698ZM5.82491 14.494C5.82491 14.494 4.93391 15.178 4.64545 15.3967C4.35698 15.6154 3.50785 16.2296 3.50785 16.2296L5.82491 14.494Z" fill="#CFB66C"/>
<path id="Vector_8" fill-rule="evenodd" clip-rule="evenodd" d="M10.9389 20.0141L10.4829 19.151L10.7481 18.0715L12.6394 17.3411L11.8345 15.6895L12.2323 14.0214L12.9791 12.5277L15.287 12.1649L16.9828 10.548L20.6446 10.8248L21.3634 14.7402L19.9792 19.6698L19.1907 22.222L15.9941 22.343L14.5099 21.3147L12.7721 20.5887L10.9389 20.0141Z" fill="#E2CC85"/>
<path id="Vector_9" fill-rule="evenodd" clip-rule="evenodd" d="M16.5462 19.9791C16.5462 19.9791 16.104 20.1816 15.35 20.1349C15.1318 19.8419 13.6034 19.7046 13.6034 19.7046C13.6034 19.7046 13.4126 19.6465 13.0752 19.7861C12.7357 19.9241 12.4146 19.9071 12.1145 19.9814C11.8143 20.0558 11.5164 19.6651 11.2863 19.5836C11.0563 19.4976 10.7513 19.2906 10.7513 19.2906L10.1072 19.2277L8.81377 18.681L6.75895 16.6338L6.20058 17.508L6.02836 18.5897L6.6496 19.8716L8.32226 21.3954L11.5838 22.2235L13.5171 21.6539L15.9389 20.6303L16.5462 19.979V19.9791Z" fill="#F1D789"/>
<path id="Vector_10" fill-rule="evenodd" clip-rule="evenodd" d="M4.95824 12.7442L5.37231 11.4904L5.86565 10.6807L7.45443 10.548L6.97749 11.9393L5.64927 14.303L6.20058 16.413L5.22355 16.9014L4.92328 16.4409L4.68143 15.3847L4.66518 14.1982L4.95824 12.7442Z" fill="#F4ECB4"/>
<path id="Vector_11" fill-rule="evenodd" clip-rule="evenodd" d="M6.7403 19.8965L6.43558 19.4708C6.43558 19.4708 6.35415 19.2684 6.40077 19.0915C6.44678 18.9124 6.44019 18.9008 6.41703 18.8333C6.39387 18.7658 6.19834 18.5332 6.21 18.333C6.2215 18.1306 6.19374 18.0631 6.3425 17.9027C6.49831 17.7469 6.45184 17.477 6.45184 17.477L6.65427 17.6026L6.70028 17.5328C6.70028 17.5328 6.77466 17.5909 6.77466 17.6817C6.79091 17.5561 6.72343 16.9744 6.87694 16.8419C7.03045 16.7094 7.30266 17.463 7.30266 17.463L7.1352 16.3696L6.70473 15.2484L5.93932 14.2248L5.89332 13.0964V12.9987C5.89332 12.9987 5.54198 13.5385 5.44429 13.9648C5.37451 14.2579 5.54198 14.6138 5.50716 15.0349C5.4791 15.4538 5.44429 15.4211 5.54658 15.587C5.64887 15.753 5.89792 16.0942 5.80023 16.3408C5.7142 16.5526 5.42098 16.4037 5.42098 16.4037C5.42098 16.4037 5.36286 16.5757 5.28372 16.6386C5.25581 16.5363 5.2256 16.4711 5.16978 16.4086C5.16503 16.4481 5.15352 16.5017 5.15352 16.5017C5.15352 16.5017 5.1023 16.3411 5.05108 16.1387C4.98146 15.8689 4.90693 15.513 4.83945 15.3222C4.81154 15.4315 4.74176 15.7642 4.74176 15.7642L4.78133 16.2761L4.9721 16.9786L5.15613 17.4387L5.33525 18.0016L5.49091 18.3798L5.61651 18.6683L5.72585 19.3174L6.25386 19.8756L6.53542 20.0014L6.74 19.8967L6.7403 19.8965Z" fill="#F3E19D"/>
<path id="Vector_12" fill-rule="evenodd" clip-rule="evenodd" d="M5.23426 11.7237C5.23426 11.7237 4.85501 12.3678 4.74582 13.0171C4.63663 13.6664 4.53879 14.3525 4.6078 15.2365C4.67758 16.1276 4.81023 16.6742 4.91727 17.0651C5.1013 17.7143 5.57793 18.6169 5.57793 18.6169L5.59419 18.582C5.51407 18.4301 5.45013 18.2702 5.40341 18.105C5.34054 17.8584 5.31723 17.5654 5.2591 17.4327C5.20788 17.3002 5.12185 17.1861 5.07998 17.0232C5.04042 16.8674 5.03398 16.6208 4.91252 16.4371C4.8613 16.3626 4.79842 16.1672 4.77986 15.9718C4.75655 15.6786 4.79152 15.3506 4.76361 15.0808C4.71239 14.6318 4.67758 14.3271 4.72404 14.092C4.77051 13.8569 5.01266 13.1895 5.16157 12.659C5.25926 12.3193 5.20098 12.0332 5.3801 11.7377C5.55922 11.4446 5.66872 11.1863 5.70813 11.0072C5.75414 10.8444 5.23365 11.7237 5.23365 11.7237H5.23426Z" fill="#F2E8B0"/>
<path id="Vector_13" fill-rule="evenodd" clip-rule="evenodd" d="M7.03274 11.467C7.03274 11.467 6.83736 11.5253 6.74427 11.6276C6.65119 11.7253 6.61162 11.8067 6.48602 11.9719C6.36042 12.137 6.35337 12.272 6.25093 12.479C6.14864 12.6815 5.9229 12.9862 5.89499 13.0955C5.86708 13.2049 5.82061 13.7166 5.76249 13.9586C5.71127 14.2006 5.82061 14.4984 5.82061 14.4984L5.95311 14.4704C5.95311 14.4704 5.95311 14.6426 6.08576 14.759C6.21826 14.8729 6.24157 14.3727 6.24157 14.3727L6.73707 12.7L7.48376 12.1929L7.56519 11.7834L7.03243 11.467H7.03274Z" fill="#F5EEC0"/>
<path id="Vector_14" fill-rule="evenodd" clip-rule="evenodd" d="M7.39491 12.2189C7.39491 12.2189 7.04357 12.242 6.87151 12.3678C6.80173 12.4188 6.77382 12.4607 6.69944 12.5236C6.56219 12.6375 6.42248 12.7423 6.35516 12.8916C6.28062 13.0404 6.19919 13.2661 6.14337 13.6918C6.12006 13.871 6.12006 14.0361 6.1038 14.1804C6.08049 14.3758 6.04568 14.5316 6.06424 14.6405C6.08755 14.8638 6.31789 14.9802 6.34028 15.2337L6.81722 14.9918L7.26625 13.2213L8.22012 12.6233L7.68031 12.0184L7.3943 12.2178L7.39491 12.2189Z" fill="#E6DB9D"/>
<path id="Vector_15" fill-rule="evenodd" clip-rule="evenodd" d="M4.87976 24.1419C4.88176 24.1244 4.88375 24.1069 4.88575 24.089C4.95537 23.4909 4.96718 23.0376 5.01824 22.7537C5.09262 22.3513 5.14384 22.2016 5.13219 22.0511C5.11593 21.8092 5.09738 21.6324 5.12069 21.4462C5.1555 21.1996 5.3975 20.9066 5.39059 20.7041C5.38584 20.5436 5.30441 20.439 5.23463 20.3413C5.16485 20.2436 5.10903 20.1622 5.10903 20.1622C5.10903 20.1622 5.58597 19.8341 5.58137 18.5127C5.59111 18.5154 5.60048 18.5193 5.60928 18.5243L5.84422 19.1919L6.00479 19.3872L6.62128 20.5365L7.41459 21.3067L8.587 22.0952L9.3222 22.8953L9.39657 25.0286L8.4358 26.2756L8.27845 26.5605C7.0284 25.9329 5.8821 25.1172 4.87961 24.1418L4.87976 24.1419Z" fill="#E5CB7A"/>
<path id="Vector_16" fill-rule="evenodd" clip-rule="evenodd" d="M7.81401 26.1783C7.81401 26.1783 7.83027 25.9132 8.04896 25.741C8.08392 25.7991 8.10708 25.8551 8.10018 25.8968C8.13974 25.8272 8.41655 25.3804 9.0424 25.264C9.66825 25.1501 9.81946 24.6942 9.81946 24.6942L11.1477 23.4868L12.6668 22.0886L14.514 21.4395L15.3773 21.2277C15.3773 21.2277 15.3935 21.2906 15.361 21.4301C15.5214 21.4186 15.8773 21.3372 16.2472 21.2068C16.3962 21.1487 16.5359 21.1254 16.6102 21.2022C16.7196 21.3045 16.7358 21.5465 16.7427 21.6907C16.9219 21.6511 17.1289 21.479 17.2948 21.4953C17.5601 21.5232 17.7951 21.835 18.065 21.835C18.4209 21.835 18.5813 21.6163 18.8304 21.4441C18.9793 21.3418 19.1932 21.214 19.3142 21.1277C19.6027 20.9159 22.6549 19.983 22.6549 19.983L23.7251 20.0528L23.8973 21.2021L23.8053 24.2063C23.7939 24.2172 23.7826 24.2286 23.7711 24.2395L18.9054 26.7807L12.1608 27.8147C10.6499 27.5678 9.19197 27.0663 7.84898 26.3315L7.81447 26.1782L7.81401 26.1783Z" fill="#D8C173"/>
<path id="Vector_17" fill-rule="evenodd" clip-rule="evenodd" d="M5.28805 24.5261C5.3839 24.3257 5.47009 24.1581 5.48527 24.0981C5.49723 24.219 5.51916 24.4841 5.56333 24.766C5.4706 24.6871 5.37884 24.6071 5.28805 24.526V24.5261Z" fill="#F1D789"/>
<path id="Vector_18" fill-rule="evenodd" clip-rule="evenodd" d="M10.2147 27.3563L11.087 27.1137L11.1614 27.137C11.1614 27.137 11.2009 27.1603 11.2009 27.2393C11.3103 27.1766 11.4034 27.1881 11.4708 27.1464C11.5056 27.2207 11.5405 27.4673 11.6941 27.4976C11.8545 27.5325 12.0267 27.4278 12.2013 27.2953C12.3733 27.158 12.5693 26.9858 12.7176 26.916C12.772 27.0161 12.8202 27.1194 12.8619 27.2253C13.0573 27.0695 13.397 26.4368 13.8808 26.4483C14.0207 26.1178 14.2543 25.8356 14.5528 25.6364C15.0019 25.3317 15.2833 25.3084 15.6346 25.3363C15.7742 25.155 15.9461 25.0012 16.1418 24.8827C16.1999 24.906 16.3605 25.0037 16.5606 24.9106C16.763 24.8176 16.9909 24.457 17.291 24.4105C17.4527 24.3882 17.6172 24.4228 17.7563 24.5082C17.7563 24.5082 18.6304 23.6403 19.2336 23.3519C19.2103 23.2821 19.1638 23.0192 19.8709 22.4376C19.9105 22.4725 19.8826 22.5702 19.9105 22.5756C19.922 22.5756 20.0945 22.5012 20.3129 22.3336C20.5828 22.1313 20.9061 21.9195 21.1015 21.8614C21.4695 21.7521 21.86 21.9753 21.86 21.9753C21.8932 21.9521 21.9302 21.9347 21.9693 21.9241C22.0622 21.9079 22.1297 21.8962 22.1809 21.8781C22.1763 21.9991 22.2438 22.2061 22.1809 22.3853C22.2538 22.4262 22.3309 22.459 22.411 22.4829C22.3716 22.569 22.2854 22.7877 22.1412 22.8924C22.2621 22.9505 22.2783 23.018 22.4505 23.0764C22.3808 23.1741 22.2665 23.3417 22.2156 23.4445C22.1644 23.5538 21.9805 24.0075 21.8991 24.1795C21.813 24.3518 21.6968 24.6681 21.6408 24.7316C21.5848 24.7951 21.3826 25.0642 21.2268 25.1967C21.3648 25.1455 21.9294 24.9735 22.169 24.9083C22.0977 25.0129 21.7362 25.5492 21.3887 26.0649C19.7249 27.0622 17.8676 27.6934 15.9406 27.9164C14.0137 28.1395 12.0613 27.9494 10.2136 27.3586L10.2147 27.3563Z" fill="#E0CD81"/>
<path id="Vector_19" fill-rule="evenodd" clip-rule="evenodd" d="M7.45264 12.1635C7.45264 12.1635 7.25036 12.1635 7.2108 12.1914C7.17123 12.2193 7.41323 12.2776 7.48761 12.3055C7.56198 12.3334 7.72255 12.4613 7.76441 12.5637C7.80398 12.6614 9.21839 13.2313 9.21839 13.2313L10.2187 13.1801L10.5636 12.7036L9.90757 12.129L10.3676 10.7727L9.7582 10.8704L8.29257 11.7445L7.55738 12.0261L7.45264 12.1635Z" fill="#DFC57C"/>
<path id="Vector_20" fill-rule="evenodd" clip-rule="evenodd" d="M9.64869 12.6049C9.66315 12.6284 9.68352 12.6476 9.70774 12.6606C9.73197 12.6737 9.7592 12.6801 9.78671 12.6793C9.99374 12.6793 10.1844 12.7305 10.2635 12.8351C10.3962 13.0028 10.7637 13.5378 10.7637 13.5378L11.6431 13.8542L11.6998 12.8187L10.7391 12.1512L9.64562 12.5536V12.6048H9.64808L9.64869 12.6049Z" fill="#E5CC7C"/>
<path id="Vector_21" fill-rule="evenodd" clip-rule="evenodd" d="M9.47811 12.9824C9.47811 12.9824 9.63852 12.9941 9.84095 12.9196C10.0434 12.845 10.376 12.6846 10.5203 12.7475C10.7226 12.8335 10.6807 13.1034 10.8996 13.3456C11.0321 13.4945 11.2741 13.4899 11.4113 13.6505C11.5486 13.811 12.0208 13.7365 12.0208 13.7365L12.1999 14.7026L11.4811 15.624L11.246 16.7685H10.274L9.38609 16.4162L8.94872 15.3581L9.16741 14.288L9.47811 12.9824Z" fill="#D2C281"/>
<path id="Vector_22" fill-rule="evenodd" clip-rule="evenodd" d="M11.3585 13.038C11.3826 13.0454 11.4076 13.0494 11.4328 13.0497C11.4049 13.073 11.3467 13.124 11.37 13.2567C11.3933 13.3893 11.4676 13.5568 11.4049 13.6591C11.455 13.7138 11.4923 13.779 11.5143 13.8499C11.5538 13.964 11.5655 14.0686 11.8236 14.085C11.7863 14.1079 11.752 14.1352 11.7213 14.1664C11.7213 14.1664 11.9004 14.3222 11.9912 14.4664C12.0841 14.4624 12.3307 14.3857 12.3307 14.3857L12.382 14.4207L12.4913 14.3747C12.4913 14.3747 12.389 14.3351 12.4634 14.0862C12.5332 13.8675 12.596 13.8792 12.6014 13.8629C12.6068 13.8466 12.6526 13.6163 12.6526 13.5232C12.6874 13.4024 12.7154 13.0348 12.7154 13.0348L12.641 12.2229L12.2223 11.9693L11.8819 11.6406L11.5607 12.2454L11.3493 12.4563L11.333 12.9797L11.3585 13.038Z" fill="#E2C270"/>
<path id="Vector_23" fill-rule="evenodd" clip-rule="evenodd" d="M12.3643 12.3579C12.3643 12.3579 12.4387 12.5696 12.4668 12.7324C12.4767 12.7008 12.4821 12.6679 12.483 12.6348C12.483 12.6348 12.5411 12.9559 12.5526 13.0885C12.576 13.0838 12.5986 13.0769 12.6039 13.1C12.6091 13.1232 12.6621 13.3816 12.6499 13.5258C12.7467 13.3659 12.8808 13.2319 13.0406 13.135C13.1337 13.0767 13.2431 13.014 13.3571 13.0093C13.5363 13.0047 13.6665 13.1233 13.8806 13.1233C14.3969 13.1233 14.8646 12.7441 15.2089 12.6279C15.4624 12.5417 15.6811 12.4789 15.8346 12.3392C15.9092 12.2765 16.0418 12.137 16.1627 11.9298C16.3232 11.6537 16.4907 11.4134 16.6583 11.3832C16.5825 11.3971 16.5053 11.4026 16.4283 11.3995C16.4283 11.3995 16.4795 11.3482 16.5663 11.2785C16.6531 11.2087 16.7571 11.1227 16.9058 11.1227C17.1711 11.1227 17.3036 11.1621 17.4525 11.1621C17.6014 11.1575 17.6875 11.1227 17.6875 11.1227C17.6875 11.1227 17.8434 11.232 18.1946 11.232C18.546 11.2366 18.7809 11.2668 18.9648 11.2832C19.1487 11.2996 19.765 11.232 19.9418 11.2372C20.0571 11.2417 20.1703 11.2694 20.2746 11.3186L19.7046 9.6624L17.657 7.87273L16.4379 8.73582L14.5627 10.6109L12.7482 11.2832L12.3689 11.7089V12.3579H12.3643Z" fill="#CCB360"/>
<path id="Vector_24" fill-rule="evenodd" clip-rule="evenodd" d="M16.4356 11.4055C16.4356 11.4055 16.4869 11.3544 16.5727 11.2846C16.6586 11.2148 16.7637 11.1286 16.9124 11.1286C17.1776 11.1286 17.3102 11.1682 17.4591 11.1682C17.608 11.1636 17.6941 11.1286 17.6941 11.1286C17.6941 11.1286 17.8502 11.2378 18.2012 11.2378C18.5526 11.2424 18.7875 11.2726 18.9714 11.2889C19.1553 11.3052 19.7716 11.2378 19.9484 11.2429C20.0637 11.2472 20.1768 11.2749 20.2811 11.3243L20.0228 10.5775L19.7228 10.0076L18.8666 9.06999C18.8666 9.06999 17.8392 8.46515 17.8313 8.46055C17.8267 8.45595 17.4754 8.36286 17.4754 8.36286L16.5448 8.92583L15.7004 11.1104L15.6842 11.5705L16.2308 11.8287C16.368 11.5987 16.5194 11.4147 16.6612 11.3913C16.5332 11.4053 16.4355 11.4053 16.4355 11.4053L16.4356 11.4055Z" fill="#D5B457"/>
<path id="Vector_25" fill-rule="evenodd" clip-rule="evenodd" d="M16.4248 11.5658C16.3434 11.5704 16.2761 11.5542 16.2574 11.496C16.1876 11.3007 16.1318 11.2727 16.0733 11.2727C16.0149 11.2727 15.9361 11.3983 15.8893 11.4098C15.8425 11.4213 15.787 11.2657 15.787 11.2657L15.7358 11.2424C15.7358 11.2424 15.4357 11.4378 15.2241 11.6681C15.0124 11.8984 14.6657 12.2893 14.5099 12.359C14.3541 12.4286 13.8188 12.4521 13.6357 12.4916C13.4526 12.5312 13.2496 12.6638 13.2217 12.6941C13.1938 12.7243 13.3033 12.7568 13.3195 12.787C13.3358 12.8149 13.1402 12.8032 13.124 12.833C13.1125 12.8563 13.17 12.9888 13.1985 13.0563C13.2484 13.0315 13.3032 13.018 13.3589 13.0167C13.5381 13.0121 13.6684 13.1308 13.8823 13.1308C14.3988 13.1308 14.8664 12.7516 15.2107 12.6352C15.4644 12.5491 15.6831 12.4863 15.8366 12.3467C15.9109 12.284 16.0436 12.1443 16.1646 11.9372C16.2529 11.7954 16.3391 11.6627 16.4253 11.565L16.4248 11.5658Z" fill="#D2B257"/>
<path id="Vector_26" fill-rule="evenodd" clip-rule="evenodd" d="M9.01677 23.0812C9.01677 23.0812 8.97076 22.909 8.54443 22.4647C8.42343 22.3391 8.34906 22.2347 8.26762 22.16C8.06519 21.9691 7.94649 21.918 7.80234 21.8086C7.48596 21.5737 7.14168 21.5737 6.87653 21.2852C6.61137 20.9968 6.30236 20.4456 6.08766 19.8823C5.87603 19.3194 5.81775 19.1402 5.81775 19.124C5.81775 19.1077 5.87603 18.9984 5.95041 19.0146C6.02478 19.0309 6.02478 19.1751 6.04349 19.21C6.08055 19.2671 6.12258 19.3208 6.16909 19.3704C6.27844 19.4962 6.43425 19.6465 6.51338 19.8707C6.49712 19.6799 6.43195 19.4683 6.43195 19.4683C6.43195 19.4683 6.84141 19.7265 7.19029 19.9963C7.54163 20.2662 7.68579 20.3593 7.78838 20.5313C7.89098 20.7034 8.13267 21.1572 8.24845 21.2898C8.36424 21.4225 9.95071 21.9226 9.95071 21.9226L10.7054 22.4853L11.08 23.3065L10.7868 23.7665L10.2238 23.8875L9.30953 23.4781L9.01677 23.081V23.0812Z" fill="#D2B159"/>
<path id="Vector_27" fill-rule="evenodd" clip-rule="evenodd" d="M6.98692 20.2477C6.98692 20.2477 7.17769 20.5524 7.64298 20.8409C8.06179 21.0945 8.72475 21.3249 9.31579 21.4621C9.65532 21.5435 9.99501 21.6063 10.2997 21.611C11.121 21.6225 11.6862 21.3877 12.3866 21.3109C12.7659 21.2713 13.2311 21.2411 13.715 21.1269C14.3361 20.978 14.7037 20.8104 15.2039 20.5748C15.5668 20.4073 15.8995 20.2817 16.1693 20.1212C16.5485 19.8979 16.8254 19.649 17.1465 19.5746C17.1069 19.6839 17.065 19.8793 16.7487 20.0818C16.9161 20.077 17.1465 20.0655 17.1465 20.0655C17.1465 20.0655 16.9232 20.198 16.53 20.4958C16.288 20.6798 15.967 20.9913 15.639 21.1983C15.4272 21.331 15.1969 21.4284 15.0457 21.5078C14.6776 21.7103 14.5291 21.8125 14.2873 22.0599C14.3733 22.0553 14.3804 22.0599 14.3804 22.0599C14.3804 22.0599 14.0755 22.0995 13.857 22.2157C13.811 22.2157 13.7312 22.1995 13.5917 22.239C13.4823 22.2738 13.338 22.3531 13.1893 22.3948C12.9775 22.4577 12.9079 22.4298 12.9079 22.4298L12.9427 22.4996C12.9427 22.4996 12.6666 22.4948 12.5746 22.5042C12.5909 22.5088 12.5863 22.5158 12.5863 22.5158C12.5701 22.5185 12.5545 22.524 12.5403 22.5321C12.496 22.5608 12.4473 22.582 12.3961 22.5948C12.3682 22.5994 12.3449 22.5994 12.3099 22.6065C12.3216 22.6344 12.4124 22.7905 12.4542 22.8825C12.4194 22.9058 11.8959 23.3013 11.8959 23.3013C11.9121 23.3269 11.9254 23.3542 11.9354 23.3828C11.9517 23.4338 11.9587 23.5084 11.975 23.5432C12.0144 23.6129 12.0377 23.6246 12.0377 23.6246C12.0377 23.6246 11.975 23.6363 11.8655 23.6642C11.7726 23.6875 11.6585 23.7269 11.4974 23.7502C11.448 23.7566 11.3983 23.7605 11.3485 23.7619C11.3718 23.8131 11.4741 24.0084 11.2857 24.234C11.0972 24.4596 11.0391 24.4924 10.9809 24.6366C10.9517 24.6145 10.9205 24.595 10.8878 24.5783C10.8251 24.5504 10.7389 24.5087 10.7087 24.4527C10.6911 24.5273 10.6678 24.6004 10.639 24.6714C10.5808 24.8272 10.4948 24.9809 10.4785 25.0971C10.4157 25.0274 10.2994 24.8901 10.1389 24.918C9.97829 24.9459 9.85039 25.1646 9.82248 25.2275C9.82248 25.1879 9.79457 25.1577 9.78767 25.2042C9.78292 25.2554 9.69458 25.7903 9.20139 26.2231C9.19679 26.1137 9.19679 25.8717 9.18513 25.7928C9.13912 25.8388 9.08284 25.9067 8.74776 26.051C8.41973 26.1952 8.47172 26.3395 8.47172 26.3395C8.47172 26.3395 8.44381 26.1094 8.62063 25.8671C8.79975 25.6253 8.90909 25.5112 8.90909 25.4926C8.9062 25.4737 8.89813 25.456 8.88578 25.4414C8.86247 25.4181 8.816 25.3902 8.816 25.3716C8.84391 25.3601 9.12072 25.2275 9.10447 24.9528C9.08821 24.7064 8.98362 24.5783 8.90909 24.4877C8.89759 24.476 9.01859 24.39 9.00218 24.3621C8.99052 24.3458 8.84177 24.2363 8.82306 24.1781C8.82745 24.1433 8.83526 24.109 8.84637 24.0758C8.86262 24.0246 8.87428 23.9896 8.86968 23.9548C8.85802 23.8967 8.79515 23.7361 8.77659 23.7198C8.79285 23.7244 8.90909 23.7198 8.90909 23.7198C8.90909 23.7198 8.81616 23.5709 8.79975 23.5011C8.78334 23.4314 8.74853 23.2475 8.72997 23.2127C8.76954 23.2173 8.86722 23.2242 8.86722 23.2127C8.87198 23.1777 8.78119 23.1196 8.82122 23.0747C8.84913 23.0793 8.90265 23.1026 8.95372 23.1678C8.92581 23.0932 8.87934 22.9491 8.7815 22.8909C8.8275 22.8747 8.98393 22.8327 9.12118 22.9141C9.25844 22.9955 9.30521 23.1095 9.30521 23.1095C9.30521 23.1095 9.38664 23.1724 9.51239 23.2654C9.65655 23.3794 9.84027 23.5415 10.1335 23.6562C10.1964 23.6912 10.3568 23.6912 10.4732 23.6678C10.5239 23.6558 10.5724 23.6362 10.6173 23.6097C10.6335 23.6002 10.6507 23.5924 10.6685 23.5864C10.6435 23.5362 10.6148 23.488 10.5825 23.4421C10.6221 23.4421 10.6685 23.4469 10.6685 23.4469C10.6685 23.4469 10.6965 23.384 10.5709 23.2628C10.5988 23.2349 10.6337 23.2168 10.6337 23.1697C10.5942 23.1651 10.5244 23.107 10.5081 23.0837C10.5313 23.0675 10.5663 23.0139 10.6058 22.9977C10.5709 22.9698 10.4848 22.8534 10.4453 22.8419C10.4831 22.8278 10.5196 22.8107 10.5546 22.7906C10.5546 22.7906 10.3592 22.7394 10.2964 22.6976C10.2335 22.6516 10.1405 22.572 10.0847 22.5487C10.0264 22.5253 9.92416 22.5138 9.88229 22.4672C9.9217 22.4789 9.98458 22.4672 10.0312 22.4672C10.066 22.4672 10.0824 22.4718 10.0939 22.4718C10.0893 22.4556 10.0893 22.4206 10.1801 22.4091C10.2238 22.4025 10.2662 22.3892 10.3057 22.3695C10.3057 22.3695 10.2195 22.3649 10.1217 22.2718C10.0238 22.1788 9.94256 22.1044 9.88674 22.0927C9.82862 22.0811 9.71927 22.1323 9.6518 22.1275C9.55871 22.116 9.51914 22.0694 9.51914 22.0694C9.51914 22.0694 9.20982 22.0973 8.52355 21.6787C7.93022 21.3157 7.67196 20.9947 7.67196 20.9947C7.61644 20.9745 7.56276 20.9496 7.51155 20.9202C7.28826 20.8039 6.97879 20.5619 6.98815 20.2454L6.98692 20.2477Z" fill="#C2A44D"/>
<path id="Vector_28" fill-rule="evenodd" clip-rule="evenodd" d="M15.5451 6.29417C15.5989 6.31165 15.6467 6.3439 15.6831 6.38725C15.7924 6.51285 15.8622 6.75009 15.6133 7.00375C15.711 7.03856 15.7513 7.04975 15.8366 7.03856C15.7506 7.141 15.5552 7.35969 15.5435 7.55046C15.5319 7.70627 15.6296 7.75289 15.6296 7.75289C15.6296 7.75289 15.4807 7.92496 15.4738 8.21296C15.5441 8.13366 15.621 8.0605 15.7038 7.99428C15.876 7.85702 16.1132 7.70121 16.2738 7.60352C16.2716 7.64447 16.2771 7.68546 16.2901 7.72437C16.2901 7.72437 16.59 7.47777 16.8422 7.58727C16.9561 7.63849 16.9049 7.7989 16.9049 7.7989C16.9049 7.7989 17.0608 7.74078 17.1702 7.85012C17.2795 7.95946 17.4341 8.24149 17.5134 8.35083C17.5482 8.40205 17.639 8.49974 17.7319 8.65095C17.8589 8.86265 17.9649 9.08623 18.0485 9.31851C18.0531 9.19751 18.0833 9.00919 18.4277 9.12773C18.772 9.24873 19.1627 9.50238 19.4908 10.0019C19.8188 10.5013 19.9001 11.0652 20.0652 11.2799C20.2327 11.487 20.4049 11.8313 20.4166 11.9756C20.4282 12.1199 20.3654 12.585 20.7096 13.8436C20.8073 13.4528 20.9562 12.585 20.9562 12.585L21.0377 11.8196L21.1308 9.45132L18.6577 7.3968L16.7245 5.99389L15.4659 6.11489L15.5449 6.29401L15.5451 6.29417Z" fill="#CAA13E"/>
<path id="Vector_29" fill-rule="evenodd" clip-rule="evenodd" d="M20.1403 9.80917C20.1403 9.80917 20.1053 9.57913 19.5238 9.18808C18.9421 8.80192 18.4885 8.80192 18.0698 8.47389C17.7487 8.21564 17.4138 7.6223 17.1957 7.42693C16.9839 7.23385 16.9491 6.67548 16.9491 6.67548L17.6633 6.07739L18.7254 4.54214L19.6233 3.55345L20.0536 4.15154L20.6517 4.85407L20.9844 6.26387L21.1054 8.32744L20.1392 9.80932L20.1403 9.80917Z" fill="#B59544"/>
<path id="Vector_30" fill-rule="evenodd" clip-rule="evenodd" d="M20.859 12.2781C20.8766 11.9652 20.8379 11.6516 20.7449 11.3523C20.5915 10.8754 20.2564 10.0286 20.1008 9.71141C20.0379 9.36007 20.0845 9.33216 20.152 9.29259C20.2195 9.25303 20.4731 9.10857 20.6121 8.60172C20.751 8.09488 21.1821 8.07832 21.1821 8.07832L21.4472 7.88294L21.8498 8.89019L22.201 9.7999L22.3103 10.4955L22.3918 11.0887L22.201 12.3427L21.2589 13.1941L20.8588 12.2781H20.859Z" fill="#C89D3A"/>
<path id="Vector_31" fill-rule="evenodd" clip-rule="evenodd" d="M7.71318 26.2535V26.2277C7.73276 26.2155 7.75004 26.1999 7.76425 26.1817C7.7805 26.1584 7.79231 26.1305 7.80381 26.1236C7.82712 26.1119 7.93647 26.0776 7.99459 26.0886C8.05271 26.0997 8.20637 26.163 8.28781 26.1584C8.45527 26.1538 8.65065 26.0257 8.96012 26.084C9.42541 26.17 9.53475 26.4864 9.80466 26.6655C9.98868 26.7913 10.1792 26.7353 10.2071 26.7353H10.2698C10.2814 26.7353 10.3675 26.6376 10.4141 26.6424C10.5072 26.647 10.5164 26.7238 10.5745 26.7284C10.7118 26.7447 10.9771 26.6586 11.1097 26.6936C11.1491 26.7059 11.1848 26.7276 11.214 26.7567C11.2431 26.7858 11.2648 26.8216 11.2772 26.8609C11.3051 26.947 11.2818 27.0563 11.2143 27.1192C11.0702 27.2517 10.9329 27.3774 10.905 27.4872C10.9405 27.5143 10.9746 27.5432 11.0071 27.5737C9.85606 27.2804 8.74858 26.837 7.71318 26.2549V26.2535Z" fill="#CEB052"/>
<path id="Vector_32" fill-rule="evenodd" clip-rule="evenodd" d="M20.0992 21.618C20.0992 21.618 20.462 21.1342 20.5878 20.8945C20.7134 20.6474 20.19 17.5189 20.19 17.5189L21.2416 14.0736L21.2135 12.9523C21.2135 12.9523 21.2647 11.917 21.3857 11.468C21.53 11.7262 21.979 12.038 22.0767 12.2032C22.1227 11.8866 22.279 11.2191 22.2559 10.5072C22.3419 10.6397 22.5489 11.9728 22.5489 11.9728L22.7559 12.8707L23.0259 13.8246L23.326 14.832L23.5051 15.5276L23.6074 15.6951L23.6936 15.9881L23.775 16.3047L24.0099 17.0468L24.148 17.6562L24.2573 18.7613C24.2811 18.8459 24.2982 18.9323 24.3085 19.0195C24.3131 19.1405 24.2923 19.2103 24.2923 19.2313C24.2923 19.2523 24.3318 19.4965 24.3156 19.6804C24.2923 19.8644 24.2923 20.0084 24.148 20.1404C24.0037 20.2725 23.913 21.0616 23.913 21.0616L23.6548 20.8896C23.6548 20.8896 23.706 20.6545 23.585 20.4405C23.464 20.2266 23.2291 20.1823 23.0964 20.2173C22.9639 20.2452 22.6987 20.2869 22.6126 20.3614C22.5311 20.4358 22.3311 20.6661 22.1473 20.7709C21.9172 20.9089 21.5424 20.9198 21.3425 20.9663C21.14 21.0123 20.9167 21.1503 20.6816 21.3105C20.4973 21.4299 20.3027 21.5325 20.1001 21.6172L20.0992 21.618Z" fill="#CCA847"/>
<path id="Vector_33" fill-rule="evenodd" clip-rule="evenodd" d="M20.0992 26.6882C20.0992 26.6882 20.1145 26.6982 20.1441 26.7144C21.7969 25.9401 23.2779 24.8424 24.4995 23.4863C24.4861 23.0155 24.4688 22.5329 24.4498 22.3541C24.4104 21.9748 24.4383 21.5886 24.4266 21.3654C24.415 21.1421 24.2894 20.2324 24.2312 19.9974C24.1684 19.7625 24.0472 19.6461 24.0288 19.6461C24.0126 19.6508 23.9147 20.0882 23.9147 20.1982C23.9147 20.3081 23.8914 20.5728 23.8914 20.6403C23.8751 20.6355 23.8682 20.5943 23.8682 20.5774C23.8449 20.6355 23.817 20.738 23.8054 20.7496C23.7937 20.7613 23.8216 20.6519 23.8054 20.6286C23.7891 20.6053 23.7594 20.617 23.7658 20.5589C23.7686 20.5244 23.774 20.4902 23.7821 20.4566C23.7821 20.4566 23.7123 20.5589 23.6612 20.8194C23.61 21.0777 23.61 21.0847 23.5914 21.1079C23.5752 21.1359 23.4821 21.2289 23.4773 21.2638C23.4727 21.3266 23.5635 21.3894 23.5704 21.4243C23.575 21.4825 23.489 21.7523 23.4611 21.8843C23.4332 22.0164 23.4448 22.2751 23.4151 22.4077C23.3918 22.5287 23.3691 22.5985 23.2895 22.6496C23.3476 22.6612 23.4034 22.6775 23.4034 22.6775C23.4034 22.6775 23.4849 23.0218 23.2778 23.315C23.2034 23.4173 23.1849 23.4639 23.1058 23.557C22.9498 23.729 22.8288 23.925 22.8171 24.0525C22.8091 24.0149 22.8037 23.9767 22.8009 23.9384C22.8009 23.9384 22.559 24.2199 22.4566 24.3805C22.3241 24.5875 22.1402 24.5759 22.0885 24.6271C22.0369 24.6783 22.0257 24.7713 22.0425 24.8458C21.9965 24.8573 21.91 24.8737 21.8518 25.0528C21.8238 25.1458 21.7541 25.2368 21.6447 25.2994C21.5354 25.362 21.4027 25.3808 21.3353 25.3971C21.3934 25.4134 21.4167 25.4134 21.4446 25.4319C21.4098 25.49 21.2492 25.5808 21.0701 25.6972C20.891 25.8066 20.8048 25.967 20.7606 26.0717C20.7146 26.1694 20.6467 26.2323 20.5373 26.2439C20.5833 26.2719 20.6514 26.3369 20.6862 26.3579C20.635 26.3695 20.5482 26.3695 20.3932 26.5022C20.2303 26.6371 20.1745 26.6767 20.1 26.6884L20.0992 26.6882Z" fill="#C39D3C"/>
<path id="Vector_34" fill-rule="evenodd" clip-rule="evenodd" d="M16.8631 27.7685C16.9521 27.706 17.0486 27.6549 17.1503 27.6162C17.5131 27.472 17.897 27.4441 18.0482 27.3976C18.1925 27.3516 18.3064 27.2881 18.4856 27.2533C18.4808 27.2941 18.4768 27.3325 18.4725 27.3686C17.9445 27.5347 17.4067 27.6682 16.8623 27.7685H16.8631Z" fill="#D2BA6B"/>
<path id="Vector_35" fill-rule="evenodd" clip-rule="evenodd" d="M23.5553 18.2235C23.5553 18.2235 23.4809 18.6259 23.3483 18.8796C23.2156 19.1332 23.0722 19.4844 23.0722 19.4844C23.0731 19.4053 23.0824 19.3265 23.1001 19.2493C22.9327 19.347 22.5255 19.5821 22.41 19.6867C22.3007 19.7844 22.1168 19.9566 22.0703 20.038C22.1797 19.7171 22.2936 19.4286 22.3123 19.296C22.1449 19.417 21.3631 20.0614 20.9561 20.4871L19.6881 21.513C19.5418 21.592 19.3911 21.6625 19.2368 21.7244C19.0182 21.8173 18.76 21.8964 18.5692 21.971C18.6204 21.8337 18.7017 21.7125 18.8158 21.5963C18.9368 21.4824 19.2996 21.0892 19.3555 20.9062C19.4067 20.7154 19.4183 20.6015 19.3509 20.4409C19.288 20.4572 19.1438 20.4642 19.0461 20.4921C18.9485 20.52 18.8437 20.6246 18.8437 20.6246C18.8437 20.6246 18.9181 20.1989 19.0787 19.7965C18.9577 19.8011 18.7506 19.8359 18.7506 19.8359C18.7506 19.8359 19.0391 19.3521 19.5327 19.0149C19.3816 19.047 19.2336 19.0929 19.0908 19.152C18.8023 19.273 18.4859 19.4521 18.251 19.5498C18.3835 19.3657 19.3141 18.0377 19.8678 16.7999C20.4199 15.5646 20.6262 15.2483 20.7472 14.5853C20.8099 14.2573 20.7932 13.7725 20.8099 13.3384C20.8262 12.9079 20.8797 12.5217 20.8449 12.2635C20.989 12.4426 21.5288 12.9475 21.5474 14.0759C21.5636 15.2041 21.031 16.728 20.4656 17.5491C20.6036 17.5886 20.9613 17.6353 21.3287 16.997C21.6962 16.3587 21.6917 16.1805 21.8244 15.9152C21.8406 16.0479 21.8359 16.0943 21.8359 16.0943C21.8359 16.0943 22.3711 15.4453 22.6246 14.6287C22.6758 14.98 22.827 15.2895 22.5896 15.9339C22.378 16.5154 22.1012 16.6575 22.1012 16.6575C22.1012 16.6575 22.2384 16.6341 22.4407 16.5131C22.4757 16.5992 22.4688 16.6972 22.5269 16.7318C22.585 16.7665 22.6641 16.8249 22.6758 16.8807C22.7385 16.7877 22.8362 16.669 22.8666 16.5806C22.8433 16.7647 22.827 17.5693 22.9126 17.9788C23.0918 17.9625 23.2756 17.9509 23.4012 17.6274C23.3151 17.944 23.3151 18.1346 23.3733 18.4045C23.4686 18.3395 23.5547 18.2231 23.5547 18.2231L23.5553 18.2235Z" fill="#C0993A"/>
<path id="Vector_36" fill-rule="evenodd" clip-rule="evenodd" d="M17.5112 5.40914C17.5112 5.40914 17.3321 5.48352 17.0274 5.48352C16.7622 5.48352 16.8366 5.38123 16.4225 5.38123C15.7852 5.38123 13.5587 5.74929 13.1678 5.74407C12.9142 5.73947 14.0239 5.85341 14.0239 5.85341L16.8599 5.89298L17.4298 5.84697L17.6416 5.41604L17.5112 5.40914Z" fill="#A88F33"/>
<path id="Vector_37" fill-rule="evenodd" clip-rule="evenodd" d="M10.1568 10.9479C10.1568 10.9479 9.79377 11.2247 9.64026 11.4365C9.48675 11.6483 9.40532 11.7877 9.2308 11.9599C9.27177 11.9615 9.3127 11.956 9.3518 11.9437C9.3518 11.9437 9.3518 11.9897 9.32389 12.0018C9.34801 11.9991 9.37242 12.0018 9.39535 12.0098C9.41828 12.0177 9.43913 12.0307 9.45639 12.0478C9.40517 12.0757 9.26561 12.2154 9.37496 12.3806C9.45639 12.5062 9.62861 12.5177 9.62861 12.5177C9.62861 12.5177 9.58904 12.6318 9.75421 12.6201C10.1101 12.6039 10.508 12.4479 10.6917 12.4875C10.8757 12.5335 10.9803 12.5503 11.1105 12.7761C11.2485 12.9994 11.3687 13.0343 11.3687 13.0343C11.3687 13.0343 11.4502 12.8271 11.4316 12.5178C11.4984 12.3511 11.5354 12.1739 11.541 11.9944L11.42 11.1034L10.892 10.4357L10.208 10.815L10.1568 10.9475V10.9479Z" fill="#E3C571"/>
<path id="Vector_38" fill-rule="evenodd" clip-rule="evenodd" d="M10.8071 10.8098C10.8071 10.8098 10.8584 10.9308 11.0724 10.9423C11.0491 10.9936 11.0491 11.0006 11.0562 11.04C11.0608 11.0796 11.0677 11.1377 11.0677 11.1377C11.0913 11.1263 11.1126 11.1107 11.1306 11.0917C11.1422 11.1429 11.1189 11.2242 11.1306 11.2825C11.1378 11.3179 11.1495 11.3523 11.1654 11.3848C11.1688 11.3768 11.1727 11.3691 11.177 11.3616C11.1816 11.35 11.223 11.4872 11.3376 11.5916C11.3375 11.5756 11.3414 11.5598 11.3491 11.5456C11.3509 11.5748 11.3605 11.603 11.377 11.6271C11.3684 11.623 11.3606 11.6175 11.3538 11.6108C11.3538 11.6108 11.3654 11.9789 11.4282 12.1692C11.4387 12.1569 11.4481 12.1436 11.4561 12.1296C11.4561 12.1181 11.4515 12.2321 11.4399 12.3136C11.4236 12.3951 11.4353 12.509 11.4353 12.509C11.4772 12.476 11.5233 12.4486 11.5724 12.4276C11.6422 12.3995 11.7564 12.3135 11.826 12.1227C11.8664 12.0147 11.8976 11.9034 11.9191 11.7901C11.9416 11.8334 11.9571 11.88 11.9651 11.9281C11.9699 11.9862 12.0792 11.956 12.0792 11.956L12.1025 11.7024L12.2406 11.1277L12.3662 10.7718L12.971 9.82973L14.0638 8.98811L15.0177 9.2068L15.8225 8.11337L14.436 7.28049L13.1239 7.41774L11.9331 9.06709L10.9794 10.5631L10.8071 10.8097V10.8098Z" fill="#D8B65B"/>
<path id="Vector_39" fill-rule="evenodd" clip-rule="evenodd" d="M17.6771 8.42535C17.6771 8.42535 17.5957 8.44161 17.3608 8.56337C17.1258 8.68514 16.963 8.72378 16.8722 8.9029C16.7814 9.08202 16.7745 9.22403 16.7745 9.22403C16.7745 9.22403 16.935 9.15425 17.0281 9.13094C17.1258 9.10779 17.2352 9.11469 17.2235 9.15425C17.2123 9.18138 17.1968 9.20651 17.1775 9.22863C17.1775 9.22863 17.3615 9.22403 17.3566 9.31482C17.3517 9.4056 17.3218 9.50559 17.287 9.54976C17.252 9.59577 17.1079 9.66386 17.0916 9.71738C17.0521 9.82672 17.1079 9.83132 17.0869 9.91966C17.0706 10.0058 16.9939 10.1733 16.7426 10.4664C16.4843 10.7596 16.3745 10.9666 16.3745 10.9666C16.3745 10.9666 16.2489 10.7317 16.1837 10.5292C16.1377 10.5524 15.8907 10.6897 15.8907 10.6897L15.3184 8.69602L15.3299 8.56337C15.3299 8.56337 15.3811 8.50065 15.3927 8.38425C15.3067 8.35634 15.295 8.33303 15.1809 8.22384C15.0669 8.11465 14.9739 7.98184 14.7833 7.89106C14.7554 7.83983 14.7204 7.77021 14.5809 7.74215C14.4413 7.71408 14.3576 7.69108 14.3576 7.69108C14.3576 7.69108 14.432 7.66301 14.4669 7.60489C14.3807 7.61655 14.3111 7.64446 14.1226 7.63986C13.9319 7.6351 13.9109 7.6282 13.8063 7.64446C13.7017 7.66071 13.5762 7.70733 13.5295 7.54677C13.4782 7.5072 13.3689 7.54217 13.2758 7.67927C13.1827 7.81637 13.1502 7.92587 12.9711 7.97939C12.9585 8.05835 12.9308 8.13415 12.8896 8.20268C12.8384 8.28886 12.757 8.3749 12.6477 8.50279C12.4754 8.70523 12.5033 9.03786 12.2288 9.29151C11.952 9.54501 12.2748 8.58883 12.2748 8.58883L12.7168 7.53067L13.9754 6.29998L15.9296 6.16748L16.1204 7.17963L17.0743 7.50766L17.6768 8.42658L17.6771 8.42535Z" fill="#D3AE4D"/>
<path id="Vector_40" fill-rule="evenodd" clip-rule="evenodd" d="M17.9882 8.65517L17.167 7.4711L16.5923 7.02897C16.5923 7.02897 16.1829 6.27538 16.155 6.25207C16.1316 6.23581 15.7455 6.19395 15.4989 6.17769L15.5449 6.29164C15.5987 6.30912 15.6465 6.34137 15.6829 6.38472C15.7923 6.51032 15.862 6.74757 15.6131 7.00122C15.7108 7.03603 15.7512 7.04722 15.8364 7.03603C15.7504 7.13847 15.555 7.35716 15.5434 7.54793C15.5317 7.70374 15.6294 7.75021 15.6294 7.75021C15.6294 7.75021 15.4805 7.92243 15.4736 8.21028C15.5439 8.13098 15.6209 8.05782 15.7036 7.99159C15.8758 7.85357 16.1131 7.69838 16.2736 7.60069C16.2715 7.64168 16.277 7.68272 16.2899 7.72169C16.2899 7.72169 16.5899 7.47509 16.842 7.58443C16.9559 7.63565 16.9047 7.79622 16.9047 7.79622C16.9047 7.79622 17.0607 7.7381 17.17 7.84744C17.2794 7.95678 17.4352 8.23819 17.5143 8.34769C17.5491 8.39891 17.6399 8.4966 17.7328 8.64765C17.8598 8.85939 17.9658 9.08302 18.0494 9.31537C18.054 9.22228 18.0727 9.09208 18.2334 9.09208L17.9891 8.65471L17.9882 8.65517Z" fill="#CAA13E"/>
<path id="Vector_41" fill-rule="evenodd" clip-rule="evenodd" d="M5.67638 12.01C5.67638 12.01 5.61826 11.8657 5.67638 11.5843C5.7345 11.3029 5.82529 11.1702 5.8555 10.7562C5.88571 10.3421 6.15562 9.82561 6.15562 9.82561L6.90231 9.48608L7.43047 9.63023L7.58628 10.3375L6.91857 10.7056C6.91857 10.7056 6.88375 10.8614 6.69528 10.987C6.5068 11.1126 6.24625 11.2103 6.18353 11.3383C6.14603 11.4167 6.11867 11.4996 6.1021 11.5849C6.1021 11.5849 5.91132 11.5453 5.79738 11.6709C5.67638 11.799 5.68098 11.9129 5.67638 12.0106V12.01Z" fill="#F4EFC8"/>
<path id="Vector_42" fill-rule="evenodd" clip-rule="evenodd" d="M7.18415 11.8284C7.18415 11.8284 7.12127 11.8679 7.07481 11.9664C7.0288 11.892 6.91884 11.4499 6.91424 11.0521C6.90964 10.6543 6.88587 10.5557 6.97788 10.4186C7.0699 10.2815 7.43075 10.137 7.37952 9.89009C7.3283 9.65515 7.11422 9.55746 6.85136 9.62494C6.66734 9.67095 6.53039 10.0623 6.33961 10.2577C6.19531 10.4066 6.02324 10.3833 5.97677 10.4647C5.9139 10.5741 5.97202 10.6834 5.95346 10.7532C5.94871 10.7765 5.89059 10.9021 5.78584 11.0533C5.57421 11.358 5.21597 11.7885 5.16935 12.1746C5.18561 11.956 5.1741 11.9514 5.23223 11.7094L5.19726 11.6512L5.4273 10.8975L5.57621 10.2764L5.90899 9.23633L6.49512 8.17327L7.06514 7.53576L7.65833 7.57533L7.7281 8.46633L8.06779 10.1391L8.78197 11.0185L7.63732 11.7888L7.18369 11.8284H7.18415Z" fill="#EBCC73"/>
<path id="Vector_43" fill-rule="evenodd" clip-rule="evenodd" d="M7.54027 12.1501C7.54027 12.1501 7.44258 12.1734 7.40762 12.1548C7.37265 12.1363 7.338 12.1153 7.3495 12.0919C7.361 12.0686 7.42388 12.0292 7.42388 12.0105C7.42517 11.9936 7.41982 11.9769 7.40897 11.9638C7.39812 11.9508 7.38261 11.9425 7.36575 11.9407C7.31223 11.9338 7.29598 11.9686 7.29598 11.9686C7.29598 11.9686 7.24476 11.9292 7.20304 11.9226C7.22772 11.9196 7.25256 11.918 7.27742 11.9179C7.21313 11.8888 7.14493 11.8692 7.07499 11.8598C7.13311 11.8249 7.24721 11.7225 7.32159 11.7225C7.39596 11.7225 7.44258 11.711 7.43093 11.6714C7.41927 11.6319 7.36115 11.5737 7.29843 11.5504C7.32159 11.5225 7.338 11.4807 7.28217 11.3664C7.2239 11.2525 7.24721 11.1756 7.26592 11.1479C7.28217 11.1129 7.3403 11.0502 7.36821 11.0106C7.39612 10.9711 7.41943 10.9175 7.46589 10.8896C7.48921 10.8734 7.56358 10.8436 7.63811 10.8152C7.71955 10.7873 7.78702 10.7524 7.83349 10.7873C7.88471 10.8221 7.8614 10.8688 7.8614 10.8688C7.8614 10.8688 8.02197 10.8105 8.16612 10.885C8.31043 10.9546 8.66177 10.999 8.66177 10.999L8.78767 11.2526L7.9548 11.9668L7.61051 12.139L7.54073 12.1505L7.54027 12.1501Z" fill="#E5C66B"/>
<path id="Vector_44" fill-rule="evenodd" clip-rule="evenodd" d="M8.69523 10.9778C8.69523 10.9778 8.43698 11.15 8.37885 11.2128C8.41367 11.2175 8.47179 11.2408 8.44848 11.2756C8.42057 11.3105 8.2531 11.4315 8.16001 11.5456C8.06233 11.6595 7.96924 11.8038 7.93673 11.8736C7.90192 11.9363 7.63661 12.1202 7.54597 12.1433C7.73675 12.1433 8.1206 11.9084 8.26476 11.9084C8.26016 11.9782 8.30432 12.0573 8.38576 12.0642C8.46719 12.0711 8.70213 12.1154 9.0185 11.92C9.33488 11.7293 9.23029 11.5873 9.36279 11.4943C9.61644 11.3267 9.71873 11.1778 9.85829 11.0849C9.99784 10.9919 10.0701 10.9708 10.0701 10.9708C10.0701 10.9708 10.0747 10.901 10.1161 10.908C10.1274 10.9093 10.1382 10.9137 10.1472 10.9207C10.1562 10.9277 10.1632 10.937 10.1673 10.9476C10.1673 10.9476 10.4093 10.7754 10.7194 10.7289C10.7121 10.7257 10.7064 10.7199 10.7031 10.7127C10.7031 10.7127 10.7263 10.701 10.731 10.6894C10.731 10.6894 10.7473 10.6661 10.7589 10.6777C10.7706 10.6894 10.7869 10.7754 10.8102 10.8104C10.8614 10.787 10.9591 10.5684 10.9591 10.5684L11.1942 9.89605V9.28185L11.0101 9.31682L9.62994 9.90295L8.7923 10.7708L8.69462 10.9778H8.69523Z" fill="#E6BD62"/>
<path id="Vector_45" fill-rule="evenodd" clip-rule="evenodd" d="M12.6696 7.9676C12.7443 7.94949 12.8158 7.92045 12.882 7.88142C12.8541 7.95595 12.8541 8.03738 12.7331 8.2142C12.6121 8.39102 12.6075 8.41663 12.5098 8.60035C12.4121 8.79113 12.4005 9.06564 12.3074 9.18648C12.3491 9.16621 12.3939 9.15289 12.4399 9.14707C12.4399 9.14707 12.3469 9.2285 12.3074 9.31453C12.2678 9.40057 12.198 9.57969 12.026 9.68918C11.8539 9.79868 11.6351 9.8683 11.4001 10.1266C11.165 10.3801 10.9232 10.7012 10.802 10.8167C10.8649 10.7073 10.9509 10.4886 10.9742 10.3445C10.9976 10.2003 10.9695 10.0279 11.0091 9.83733C11.0486 9.6467 11.0486 9.5093 11.2391 9.17651C11.4296 8.84373 11.7556 7.68757 11.7556 7.68757L12.4581 7.46429L12.6699 7.96684L12.6696 7.9676Z" fill="#B6933F"/>
<path id="Vector_46" fill-rule="evenodd" clip-rule="evenodd" d="M12.1621 7.53541C12.1621 7.53541 11.9505 7.84013 11.8924 8.11004C11.8342 8.37994 11.8876 8.35663 11.8528 8.48929C11.832 8.57017 11.832 8.655 11.8528 8.73588C11.9261 8.61781 12.0264 8.51887 12.1455 8.44727C12.3457 8.32642 12.5085 8.24024 12.6056 8.13795C12.7033 8.0286 12.7847 7.84948 12.9964 7.71223C12.9103 7.70057 12.7893 7.66101 12.7663 7.66622C12.8525 7.56853 13.1106 7.41962 13.3712 7.2405C13.6294 7.05648 13.6132 6.98225 14.032 6.79853C13.8947 6.82184 13.8296 6.78688 13.7155 6.79853C13.7615 6.70084 13.9225 6.65422 14.0835 6.49381C14.2445 6.3334 13.9812 6.096 13.9812 6.096L12.7544 6.8381L12.1612 7.53602L12.1621 7.53541Z" fill="#C49937"/>
<path id="Vector_47" fill-rule="evenodd" clip-rule="evenodd" d="M8.83257 6.98412L8.86048 6.76083L9.21182 6.19786L9.57941 5.20917V3.85748L9.5515 3.07582L9.60963 2.56392L9.65379 2.40121L9.70041 2.33833L10.0004 2.49414L10.4146 3.05712L10.4542 4.14365L10.0516 5.85817L8.90235 7.11217L8.83257 6.98412Z" fill="#DFC068"/>
<path id="Vector_48" fill-rule="evenodd" clip-rule="evenodd" d="M9.74824 2.28283C9.74824 2.28283 9.56422 2.28759 9.52496 3.05299C9.4857 3.81839 9.46668 4.2208 9.43877 4.60005C9.41086 4.9793 9.34584 5.20949 9.31317 5.43293C9.28051 5.65637 9.26195 5.96094 9.15736 6.14711C9.11135 6.23314 9.01305 6.50305 8.78271 6.70548C8.52446 6.92877 8.13861 7.08473 8.08018 7.09639C7.97774 7.11954 7.45894 7.17077 7.24731 7.28716C7.17293 7.32673 7.04487 7.3732 6.90302 7.50585C6.62146 7.75935 6.24696 8.21298 5.97705 8.75969C5.56299 9.57632 5.14893 11.8817 5.14893 11.8817L5.24202 11.7259C5.24202 11.7259 5.25367 11.5189 5.4607 11.1559C5.66313 10.793 5.60501 10.3859 5.88642 9.69026C5.99576 9.42511 6.13302 9.08082 6.30048 8.7876C6.56579 8.31066 6.88676 7.9012 7.21019 7.67792C7.7382 7.31507 8.31988 7.23594 8.31988 7.23594L8.94573 6.82188C8.94573 6.82188 9.05507 6.61025 9.19938 6.36825C9.40166 6.02872 9.65945 5.64947 9.71573 5.09815C9.80192 4.28153 9.59473 3.74647 9.60639 3.26263C9.61804 2.77879 9.62264 2.42285 9.72049 2.33666C9.81833 2.25047 9.7484 2.28314 9.7484 2.28314L9.74824 2.28283Z" fill="#A88F33"/>
<path id="Vector_49" fill-rule="evenodd" clip-rule="evenodd" d="M9.7474 5.9244C9.7474 5.9244 10.0234 5.24503 10.1498 4.64249C10.1731 4.5215 10.2196 4.40065 10.2312 4.30296C10.2894 3.73294 10.3056 3.49799 10.2312 3.18622C10.1731 2.95619 9.94983 2.74885 9.83343 2.58813C9.71949 2.42051 9.66597 2.35809 9.68928 2.32282C9.71259 2.28755 9.80322 2.22989 9.89156 2.23679C9.98545 2.23952 10.0778 2.26132 10.163 2.30087C10.2482 2.34042 10.3245 2.39688 10.3872 2.46682C10.5663 2.67386 10.7082 3.37654 10.7082 3.37654L10.8574 4.30373L11.2366 5.47154L9.74771 5.92532L9.7474 5.9244Z" fill="#C99E3D"/>
<path id="Vector_50" fill-rule="evenodd" clip-rule="evenodd" d="M12.3424 5.22413C12.3424 5.22413 12.2912 5.24729 12.1983 5.22413C12.2022 5.26211 12.1957 5.30045 12.1792 5.33492C12.1628 5.36939 12.1372 5.39866 12.1052 5.41951C12.0075 5.37994 11.093 5.45908 11.093 5.45908C11.093 5.45908 10.6673 5.38454 10.5347 4.82157C10.4417 4.44692 10.6044 3.93057 10.5509 3.59089C10.4695 3.09064 10.3555 2.99279 10.3439 2.83714C10.3322 2.68148 10.3206 2.64176 10.3206 2.54407C10.2694 2.53242 10.2392 2.51616 10.1881 2.51616C10.1764 2.47016 10.1996 2.42998 10.1485 2.34854C10.1764 2.3602 10.3672 2.38351 10.5905 2.59514C10.7745 2.76736 10.7745 2.83008 10.8023 2.86505C10.8371 2.89986 11.1187 3.14109 11.2396 3.38155C11.3606 3.62202 11.5956 4.3888 11.6491 4.5144C11.6654 4.56562 11.7003 4.61684 11.7871 4.73308C11.9221 4.9007 12.1198 5.17782 12.3431 5.22383L12.3424 5.22413Z" fill="#B58634"/>
<path id="Vector_51" fill-rule="evenodd" clip-rule="evenodd" d="M10.8339 2.87952C10.9749 3.10718 11.1015 3.3434 11.213 3.5868C11.3503 3.89612 11.4317 4.14977 11.6039 4.3568C11.5109 4.08705 11.3457 3.55659 11.248 3.36811C11.1387 3.16875 10.9154 2.95405 10.8339 2.87967V2.87952Z" fill="#A88F33"/>
<path id="Vector_52" fill-rule="evenodd" clip-rule="evenodd" d="M9.25245 6.69861C9.25245 6.69861 9.0175 6.75673 8.58013 6.98707C8.43582 7.06145 8.29872 7.12417 8.16607 7.18245C7.82148 7.33826 7.45189 7.48226 7.15867 7.5617C7.18198 7.58961 7.19348 7.60111 7.19348 7.60111C7.19348 7.60111 7.19348 7.71521 7.25636 7.78023C7.22155 7.8152 6.75611 8.13157 6.89352 9.19004C6.98645 9.15523 7.09579 9.10861 7.11205 9.10861C7.14011 9.11336 7.14701 9.19004 7.18183 9.19004C7.21664 9.19004 7.33074 9.14403 7.45173 8.98761C7.44713 9.05048 7.37736 9.68323 7.75185 10.109C7.82163 10.0275 7.99845 9.75761 7.99845 9.75761L8.00305 9.67158C8.00305 9.67158 8.01931 9.37146 8.11715 9.09695C8.21499 8.82244 8.40561 8.62001 8.40561 8.62001L9.40105 7.19855L9.25214 6.69846L9.25245 6.69861Z" fill="#E6C367"/>
<path id="Vector_53" fill-rule="evenodd" clip-rule="evenodd" d="M8.32131 8.78698C8.27573 8.81919 8.22552 8.84427 8.1724 8.86136C8.15614 8.80324 8.13283 8.60311 8.27008 8.40773C8.43065 8.17264 8.78184 7.86792 8.87952 7.62562C8.9424 7.46965 8.91449 7.0789 9.47286 6.57865C10.0312 6.0784 10.2498 5.90634 10.2498 5.90634L11.1524 5.45271L12.2621 5.89008L11.7108 8.05087L11.2828 9.06303L9.58052 8.74205L8.32115 8.78698H8.32131Z" fill="#DCBA5A"/>
<path id="Vector_54" fill-rule="evenodd" clip-rule="evenodd" d="M8.97042 8.19807L9.1822 7.93292V7.74444C9.1822 7.74444 9.41715 7.68157 9.67064 7.42331C9.92414 7.16506 10.2755 6.66957 10.585 6.69978C10.8944 6.73474 10.9246 7.37209 10.9363 7.55137C10.948 7.73064 10.9875 8.13749 11.0502 8.35633C11.12 8.57502 10.2965 9.40315 10.2965 9.40315L9.7372 9.82886L8.97042 8.19807Z" fill="#E9CE77"/>
<path id="Vector_55" fill-rule="evenodd" clip-rule="evenodd" d="M9.62648 10.4028C9.62648 10.4028 9.7987 10.1329 9.67249 10.0748C9.74686 9.90729 9.88412 9.73047 9.88412 9.73047C9.88412 9.73047 9.98181 9.48862 10.2982 9.1908C10.6146 8.89299 10.8101 8.69516 10.8613 8.49518C10.8929 8.36485 10.9101 8.23145 10.9125 8.09737C10.9467 8.12531 10.9833 8.1502 11.0219 8.17175C11.0731 8.19506 11.3149 8.39504 11.2801 8.7976C11.2453 9.20016 11.0961 9.36762 11.0961 9.36762C11.0961 9.36762 10.9519 9.51178 10.8497 9.58631C10.7402 9.66069 10.7007 9.74672 10.5169 9.75378C10.5358 9.73875 10.557 9.72694 10.5797 9.71881C10.5797 9.71881 10.389 9.69565 10.2865 9.78859C10.1841 9.88152 9.96632 10.1678 9.85697 10.254C9.74763 10.3238 9.62694 10.4029 9.62694 10.4029L9.62648 10.4028Z" fill="#CDAE50"/>
<path id="Vector_56" fill-rule="evenodd" clip-rule="evenodd" d="M17.3617 5.88175C17.0869 5.78158 16.798 5.72507 16.5057 5.71429C16.0171 5.69803 15.3029 5.72594 14.6027 5.73054C13.8489 5.73514 13.165 5.47229 12.2158 5.42582C12.06 5.33273 11.6637 4.92557 10.4268 5.78866C10.5011 5.78406 11.3248 5.59789 11.6108 5.95628C11.8993 6.31222 11.8179 6.91706 11.7785 7.06122C11.7039 7.38234 11.4619 7.84993 11.3644 8.17796C11.2669 8.50599 11.2899 8.67836 11.2201 8.9084C11.1503 9.13843 10.9968 9.25268 11.0874 9.51783C11.2084 9.44346 11.2715 9.44346 11.4736 8.98983C11.6757 8.5362 11.6341 8.21277 11.9692 7.82892C12.2973 7.44277 12.8434 6.91461 13.051 6.78195C13.2587 6.6493 14.9074 5.79326 16.6337 6.60989C17.0501 6.56572 17.3619 5.8816 17.3619 5.8816L17.3617 5.88175Z" fill="#D2A83E"/>
<path id="Vector_57" fill-rule="evenodd" clip-rule="evenodd" d="M11.1225 5.57102C11.1208 5.55353 11.117 5.53633 11.111 5.5198C11.0949 5.48577 11.0737 5.45439 11.0482 5.42671C11.0482 5.42671 10.6387 5.35233 10.4317 5.37549C10.0687 5.41505 9.74064 5.86408 9.58713 6.09442C9.43362 6.32476 9.24285 6.68055 9.03581 6.86443C9.03808 6.84651 9.03395 6.82837 9.02416 6.8132C9.02416 6.8132 9.03581 6.82946 9.01266 6.85277C8.9895 6.87608 8.98935 6.88758 9.001 6.89878L9.03597 6.93359C9.04747 6.93359 9.3686 6.78928 9.80597 6.38151C10.2713 5.95579 10.6272 5.73741 10.8134 5.66257C10.9127 5.62038 11.0164 5.58966 11.1227 5.57102H11.1225Z" fill="#C29637"/>
<path id="Vector_58" fill-rule="evenodd" clip-rule="evenodd" d="M19.0657 3.81894C19.0657 3.81894 18.9912 3.91187 18.8981 4.01431C18.6911 4.233 18.4212 4.47944 18.1908 4.7331C17.9723 4.97509 17.7257 5.16357 17.4488 5.47994C17.1718 5.79632 16.8507 6.1475 16.7694 6.24994C16.695 6.35239 16.6369 6.51985 16.6369 6.60589C16.5973 6.57797 16.5509 6.54776 16.5509 6.54776C16.5704 6.58429 16.5938 6.61863 16.6206 6.65021C16.6788 6.73164 16.7694 6.83423 16.816 6.8968C16.8732 6.97646 16.9143 7.06653 16.9369 7.16196C16.9648 7.16656 17.1439 7.20152 17.3673 6.83393C17.5908 6.46633 17.8837 6.06392 17.8837 6.06392L18.349 5.3729L18.6422 4.78677L19.0102 4.13071L19.0662 3.81894H19.0657Z" fill="#AC8132"/>
<path id="Vector_59" fill-rule="evenodd" clip-rule="evenodd" d="M19.5422 3.33902C19.5422 3.33902 19.2606 3.56905 19.1513 3.70707C19.042 3.84509 18.7832 4.20732 18.7832 4.20732L18.8763 4.19567L19.3487 3.777L19.5327 3.44897L19.5421 3.33963L19.5422 3.33902Z" fill="#A88F33"/>
<path id="Vector_60" fill-rule="evenodd" clip-rule="evenodd" d="M19.4559 21.8325C19.4559 21.8325 19.4513 21.6417 19.5583 21.5278C19.6676 21.4137 19.9444 21.2462 20.2144 20.618C20.4843 19.9899 20.5143 19.848 20.5143 19.848C20.5143 19.848 20.0305 20.2621 19.7322 20.3598C19.802 20.2155 19.8415 20.1132 19.8765 20.0387C19.8369 20.0038 19.6695 19.9643 19.6532 19.9457C19.7462 19.8526 19.7974 19.6246 19.9859 19.4734C20.2278 19.2894 20.6698 18.9731 21.0133 18.6913C21.3569 18.4094 22.0322 17.7538 22.1184 17.563C22.1697 17.6374 22.1812 17.6839 22.1812 17.6839C22.1812 17.6839 21.8416 18.126 21.6648 18.4074C21.5088 18.6494 21.5205 18.7867 21.5205 18.7867L21.8416 18.6486C21.8416 18.6486 21.9346 18.9929 21.5136 19.5165C21.6976 19.4467 21.7718 19.4886 21.8764 19.4303C21.7042 19.5398 21.467 19.6887 21.2437 20.098C21.025 20.5075 20.7272 20.9844 20.2248 21.2821C19.7362 21.5961 19.4546 21.8311 19.4546 21.8311L19.4559 21.8325Z" fill="#A67A2E"/>
<path id="Vector_61" fill-rule="evenodd" clip-rule="evenodd" d="M18.1946 6.12307C18.1946 6.12307 18.0039 6.52073 17.976 6.8302C17.9714 6.90473 17.9526 6.96285 17.9526 7.04889C17.948 7.32569 17.9689 7.63517 17.9066 7.77932C17.8833 7.7212 17.8717 7.68164 17.8484 7.65848C17.8136 7.75617 17.7507 8.06089 17.6995 8.17483C17.6763 8.10045 17.6251 7.8422 17.6298 7.53748C17.6346 7.23276 17.6413 7.17449 17.6413 7.11176C17.6298 7.2047 17.567 7.33045 17.5436 7.40483C17.5088 7.3421 17.4693 7.26067 17.4226 7.19319C17.3947 7.2392 17.3599 7.30714 17.3297 7.3421C17.325 7.31419 17.3135 7.23966 17.3064 7.13507C17.3018 7.01407 17.2947 6.85826 17.3018 6.8256C17.3133 6.76288 17.4111 6.51628 17.6182 6.29054C17.8648 6.02063 18.1184 5.50198 18.1928 5.34141C18.2672 5.18085 18.5836 4.51329 18.5836 4.51329H18.8256L18.4742 5.3135C18.4742 5.3135 18.2626 5.75088 18.1532 5.91159C18.0439 6.07231 17.8136 6.53284 17.7111 6.71196C17.7855 6.61427 17.8484 6.56305 17.9229 6.46997C17.995 6.40479 18.195 6.12338 18.195 6.12338L18.1946 6.12307Z" fill="#8C6228"/>
<path id="Vector_62" fill-rule="evenodd" clip-rule="evenodd" d="M19.5466 3.31873C19.5071 3.44039 19.4446 3.55336 19.3626 3.65151C19.2182 3.82373 18.9088 4.05392 18.7577 4.23764C18.6197 4.41676 18.3437 4.90536 18.4691 5.48459C18.5151 5.35899 18.6018 5.11009 18.8321 4.82853C19.0624 4.54696 19.309 4.22369 19.4302 3.97249C19.551 3.71884 19.5673 3.51886 19.5673 3.51886L19.6133 3.46074L19.5854 3.32809L19.5458 3.31873H19.5466Z" fill="#CBA94C"/>
<path id="Vector_63" fill-rule="evenodd" clip-rule="evenodd" d="M24.2569 18.7451C24.2569 18.7451 24.1638 18.4916 24.1359 18.2613C24.108 18.0309 24.1819 17.9852 24.0964 17.7216C24.0451 17.561 23.9522 17.5836 23.9289 17.561C23.9056 17.5385 23.8893 17.2959 23.8939 17.1632C23.8985 17.0306 23.8893 16.8585 23.866 16.784C23.8312 16.7561 23.8079 16.7328 23.7567 16.5607C23.6985 16.3885 23.6706 16.3024 23.6427 16.2514C23.6148 16.2003 23.5332 16.1537 23.5332 16.1025C23.5332 16 23.6263 15.9466 23.6263 15.9184C23.6217 15.8603 23.5519 15.9069 23.5332 15.8905C23.5101 15.8626 23.5915 15.6951 23.5613 15.6718C23.5496 15.6603 23.4682 15.758 23.4472 15.7301C23.4239 15.702 23.396 15.4252 23.3541 15.2415C23.3147 15.0624 23.2727 14.9322 23.2681 14.8787C23.2635 14.8275 22.9469 13.9248 22.8703 13.7061C22.8085 13.5213 22.7565 13.3334 22.7145 13.1431C22.6911 13.0338 22.6749 12.8104 22.6632 12.8337C22.6516 12.857 22.6586 12.9709 22.6399 12.9663C22.6237 12.9616 22.5655 12.5639 22.547 12.501C22.5307 12.4382 22.4329 12.225 22.409 12.0707C22.3857 11.9148 22.3346 11.5076 22.2996 11.2308C22.2647 10.954 22.2484 10.84 22.2484 10.7707C22.2541 10.6012 22.2448 10.4315 22.2205 10.2636C22.1745 9.97035 22.0825 9.6144 22.0018 9.40753C21.846 9.01662 21.4318 8.01628 21.3577 7.76738C21.3577 7.7045 21.4391 7.73947 21.4391 7.73947C21.4391 7.73947 21.6414 8.24662 21.7903 8.63737C21.9346 9.02828 22.0719 9.37256 22.1069 9.40753C22.1348 9.44234 22.3535 9.82619 22.4511 10.4543C22.5488 11.0825 22.5836 11.6617 22.6419 12.0479C22.6698 12.2319 22.6931 12.4271 22.7513 12.6225C22.814 12.8343 22.9117 13.053 23.0397 13.3879C23.1491 13.6695 23.2305 13.9044 23.2747 14.1068C23.3259 14.3651 23.3259 14.5605 23.3561 14.6885C23.3842 14.7979 23.4259 15.0164 23.5237 15.3326C23.6216 15.6488 23.7656 16.0561 23.8633 16.3096C24.0542 16.8168 24.1393 17.2402 24.1681 17.466C24.1936 17.6986 24.2798 18.5036 24.2565 18.7454L24.2569 18.7451Z" fill="#A88F33"/>
<path id="Vector_64" fill-rule="evenodd" clip-rule="evenodd" d="M19.5577 3.29054L19.546 3.31845C19.546 3.31845 19.5808 3.33011 19.5739 3.37673C19.5744 3.44051 19.5705 3.50426 19.5623 3.56751C19.5508 3.64894 19.5275 3.71166 19.5229 3.76288C19.5229 3.87222 19.5391 3.99782 19.3848 4.3096C19.3388 4.39563 19.3105 4.47001 19.2872 4.52123C19.229 4.64683 19.2174 4.66554 19.1662 4.72366C19.2476 4.67765 19.5408 4.49363 19.6896 4.52123C19.5873 4.57935 19.4313 4.69345 19.3336 4.84236C19.3569 4.84696 19.4546 4.86567 19.6097 4.84236C19.8679 4.80279 20.1564 4.7097 20.4099 4.72826C20.6868 4.74452 20.5775 4.39563 20.5775 4.39563L20.2579 3.6931L19.6531 3.26754L19.5577 3.2907V3.29054Z" fill="#BE9C44"/>
<path id="Vector_65" fill-rule="evenodd" clip-rule="evenodd" d="M21.1355 8.55762C21.1355 8.55762 20.8656 8.28771 20.7563 7.36144C20.6469 6.43087 20.6703 5.06109 20.6703 5.06109L20.4516 4.52603C20.4516 4.52603 20.4056 4.17009 20.291 4.03759C20.1764 3.90509 19.9515 3.68165 19.849 3.5723C19.7466 3.46296 19.6303 3.31405 19.5606 3.29074C19.5954 3.23262 19.7513 2.90459 20.3491 2.89999C20.9469 2.89539 21.1312 3.22802 21.1937 3.34902C21.2561 3.47001 21.5379 3.99311 21.6425 4.98993C21.7402 5.98552 21.745 6.06005 21.7287 6.40434C21.7171 6.59511 21.6542 7.03709 21.5447 7.50927C21.4447 7.90953 21.3354 8.35626 21.1352 8.55854L21.1355 8.55762Z" fill="#A17C34"/>
<path id="Vector_66" fill-rule="evenodd" clip-rule="evenodd" d="M20.2891 9.35461C20.379 9.3611 20.4689 9.34082 20.5473 9.29633C20.6334 9.29173 20.9452 9.3313 21.1847 9.02658C21.2009 9.0962 21.243 9.28483 21.1335 9.4523C21.1917 9.39402 21.2778 9.37086 21.2894 9.35461C21.294 9.44064 21.3755 9.70579 21.0312 10.3502C21.1241 10.2479 21.2335 10.2525 21.3311 10.2409C21.3359 10.3619 21.4009 10.7689 21.2289 10.9877C21.1149 11.1366 20.9287 11.09 20.9287 11.09C20.9315 11.0575 20.9315 11.0248 20.9287 10.9923C20.9241 10.9294 20.9008 10.8667 20.9172 10.8248C20.8273 10.7837 20.7453 10.727 20.6752 10.6572C20.4728 10.4664 20.21 10.1409 20.1914 9.89887C20.1681 9.62896 20.4101 9.57084 20.4101 9.57084C20.3898 9.55271 20.3725 9.53149 20.3589 9.50797C20.3472 9.46855 20.3356 9.40568 20.2891 9.35461Z" fill="#8C6228"/>
<path id="Vector_67" fill-rule="evenodd" clip-rule="evenodd" d="M18.4951 6.41445C18.4951 6.41445 18.4835 6.39819 18.4208 6.47257C18.4324 6.39819 18.4441 6.32826 18.4487 6.26079C18.4784 6.19832 18.5168 6.14038 18.5628 6.08872C18.5278 6.15834 18.5045 6.22122 18.5045 6.22122C18.5045 6.22122 18.5907 6.06066 18.7163 5.96297C18.8023 5.89319 18.9116 5.86068 18.9581 5.7955C19.0093 5.72573 18.9977 5.71407 19.0093 5.70242C19.0093 5.70242 19.1234 5.62804 19.298 5.4092C19.3211 5.38129 19.3561 5.35108 19.3794 5.32317C19.4188 5.30691 19.5119 5.26504 19.6212 5.20907C19.7353 5.14635 19.8632 5.06031 19.9424 5.02504C20.0982 4.95526 20.2635 4.96232 20.3402 4.85282C20.3983 4.83656 20.461 4.66205 20.4495 4.51329C20.5355 4.5481 20.9775 4.82261 21.1289 5.42285C21.2382 5.84856 21.0427 6.50462 20.9613 6.82115C20.8798 7.13768 20.8683 7.37247 20.7542 7.51662C20.6099 7.70755 20.1448 7.97669 20.0307 8.10996C19.933 8.2193 19.6399 8.49611 19.6514 8.69609C19.6631 8.845 19.8468 8.92612 19.8865 8.95434C19.9263 8.98256 19.9259 9.01722 20.0005 9.00035C20.075 8.98348 20.1028 8.94913 20.1331 8.94913C20.1679 8.95373 20.1679 8.96078 20.1842 8.96078C20.196 8.96043 20.2077 8.95884 20.2192 8.95603C20.2192 8.95603 20.2075 9.16781 19.712 9.23207C19.6771 9.23682 19.6422 9.24833 19.5979 9.25538C19.6562 9.22747 19.691 9.22747 19.7539 9.14144C19.6841 9.12978 19.484 9.11813 19.4328 9.10187C19.449 9.07396 19.5025 8.99943 19.5467 8.96462C19.5863 8.9298 19.5421 8.91861 19.5073 8.93671C19.4473 8.97748 19.3898 9.02173 19.3351 9.06921C19.2769 9.12043 19.2257 9.1902 19.1326 9.25323C19.1047 9.16015 19.1093 8.98333 19.2188 8.85543C19.1908 8.86003 19.1372 8.94146 19.0862 8.9252C19.0769 8.84035 19.0824 8.75453 19.1024 8.67155C19.1303 8.56681 19.2815 8.38309 19.2815 8.38309L20.012 7.07787L20.1678 6.08918L18.4951 6.41414V6.41445Z" fill="#92723A"/>
<path id="Vector_68" fill-rule="evenodd" clip-rule="evenodd" d="M18.4543 6.47334C18.4543 6.47334 18.4147 6.50125 18.4938 6.55477C18.4822 6.57103 18.4543 6.62915 18.4193 6.66872C18.3799 6.71472 18.3379 6.74325 18.3216 6.78281C18.2868 6.86424 18.2589 6.92007 18.2589 6.95503C18.2589 6.99 18.2472 7.21328 18.1496 7.35744C18.1146 7.40866 18.075 7.49469 18.0471 7.55282C17.989 7.6551 17.9378 7.73684 17.9261 7.78285C17.903 7.86428 17.8867 8.08757 17.8867 8.08757C17.8867 8.08757 17.9379 8.02469 17.9565 8.00154C17.9284 8.05966 17.8982 8.12238 17.854 8.169C17.882 8.14569 17.9634 8.08757 18.1006 7.96657C18.2914 7.80616 18.5892 7.53625 18.9522 7.32247C18.8427 7.36204 18.7498 7.36204 18.6754 7.3737C18.7335 7.31557 19.2569 6.70138 19.5315 6.64326C19.5481 6.62212 19.5564 6.59559 19.5548 6.56873L19.3197 6.54557L18.8427 6.64786L18.7731 6.2798L18.4543 6.47288V6.47334Z" fill="#B18E3E"/>
<path id="Vector_69" fill-rule="evenodd" clip-rule="evenodd" d="M19.2134 8.56724C19.2134 8.56724 19.1505 8.62996 19.0924 8.78593C19.0477 8.7392 19.0093 8.68676 18.9783 8.62996C18.8923 8.48581 18.7598 8.30193 18.4503 8.40668C18.4457 8.30899 18.4387 8.25777 18.4503 8.18799C18.5015 8.17649 18.6573 8.05089 18.8132 7.86701C18.9227 7.74142 19.0249 7.59711 19.0947 7.41339C19.1407 7.37842 19.2203 7.3203 19.3248 7.25282C19.4737 7.15053 19.6528 7.01083 19.6807 6.85502C19.6109 6.88293 19.462 6.9527 19.2386 6.9412C19.3248 6.90164 19.4573 6.85977 19.441 6.68755C19.476 6.66424 19.5039 6.64798 19.5039 6.64798C19.4777 6.63924 19.4501 6.63529 19.4224 6.63633C19.4177 6.62007 19.4108 6.59692 19.3712 6.60842C19.3317 6.61992 19.3252 6.62007 19.32 6.63633C19.3037 6.64108 19.2502 6.63633 19.2107 6.66439C19.1711 6.69246 19.0617 6.78524 19.0199 6.80149C19.0361 6.77358 19.0593 6.73187 19.0593 6.73187C19.0593 6.73187 18.9453 6.74337 18.8639 6.77788C18.715 6.8291 18.5429 6.92219 18.3684 7.01282C18.3847 6.98491 18.3917 6.96681 18.4032 6.9616C18.4147 6.95638 18.4428 6.9501 18.4428 6.94534C18.4428 6.94059 18.4313 6.89934 18.4382 6.88262C18.4904 6.77209 18.5519 6.66624 18.6222 6.56625C18.7037 6.45675 18.7199 6.30094 18.7199 6.30094L19.0759 6.12182L20.0762 5.89178L20.7254 5.93135L20.6439 6.38038L20.2605 7.16434L19.9325 7.87852L19.5579 8.31604L19.2136 8.56724H19.2134Z" fill="#543E26"/>
<path id="Vector_70" fill-rule="evenodd" clip-rule="evenodd" d="M20.8359 6.6261C20.8359 6.6261 20.445 7.10994 20.3357 7.18447C20.4054 7.03556 20.8359 6.14916 20.9917 5.90257C20.9569 5.87465 20.9103 5.87465 21.0196 5.4425C20.9267 5.66103 20.894 5.77513 20.8174 5.83325C20.7407 5.89137 20.7312 5.87281 20.6793 5.87281C20.6891 5.85511 20.6932 5.83479 20.6908 5.81469C20.6908 5.81469 20.3628 5.77513 20.1388 5.77513C19.9147 5.77513 19.4712 5.89612 19.2244 5.99381C19.0291 6.07524 18.9197 6.07524 18.85 6.12631C18.7802 6.18443 18.7406 6.24731 18.7056 6.26357C18.6777 6.27982 18.5452 6.32169 18.5149 6.36586C18.487 6.41186 18.4405 6.46354 18.4405 6.4752C18.4405 6.48685 18.4288 6.50326 18.4638 6.49145C18.4753 6.48685 18.5615 6.44023 18.6592 6.38211C18.7917 6.30773 18.9522 6.2217 19.0686 6.17048C19.4013 6.03783 19.506 6.06114 19.6548 6.03323C19.8106 6.00531 20.034 5.94014 20.1828 5.94014C20.3317 5.93554 20.6132 5.94014 20.6784 5.95179C20.6505 5.9751 20.6272 6.00301 20.6389 6.1007C20.6389 6.12861 20.6155 6.15882 20.5928 6.2263C20.5232 6.41708 20.3906 6.73345 20.3168 6.89402C20.2145 7.11255 20.0983 7.29642 20.0408 7.41037C19.9833 7.52431 19.8567 7.82443 19.7314 7.98499C19.6062 8.14556 19.5407 8.24325 19.5014 8.27821C19.4622 8.31318 19.1803 8.52005 19.2013 8.59459C19.2525 8.57833 19.5759 8.45657 19.8107 8.19218C20.0455 7.92779 20.0923 7.76646 20.276 7.62215C20.4597 7.47784 20.604 7.236 20.6901 7.03602C20.7622 6.84985 20.7459 6.79173 20.8365 6.62656L20.8359 6.6261Z" fill="#806031"/>
<path id="Vector_71" fill-rule="evenodd" clip-rule="evenodd" d="M12.4105 10.2429C12.4105 10.2429 12.3593 10.4545 12.2429 10.5592C12.1289 10.6617 11.9265 10.75 11.9033 10.9222C11.8754 11.0943 12.1058 11.1805 12.1058 11.1805C12.1058 11.1805 11.98 11.3875 11.98 11.5433C11.98 11.7039 11.9754 11.7341 11.9917 11.8876C11.9732 11.8995 11.9575 11.9152 11.9457 11.9336C11.9457 11.9336 11.9572 12.0825 12.0713 12.1755C12.1854 12.2684 12.2829 12.3244 12.341 12.3011C12.3499 12.32 12.3577 12.3395 12.3643 12.3593C12.3643 12.3593 12.4505 12.1407 12.5086 11.9499C12.5668 11.7545 12.618 11.7823 12.6411 11.5194C12.6643 11.2566 12.9172 10.8052 12.9172 10.8052L13.0897 10.4195L12.8083 10.2009L12.4105 10.2427V10.2429Z" fill="#B6903C"/>
<path id="Vector_72" fill-rule="evenodd" clip-rule="evenodd" d="M12.9353 10.6195C12.8772 10.6791 12.8237 10.7428 12.775 10.8103C12.7006 10.9127 12.6425 11.0057 12.5332 11.0454C12.4238 11.0851 12.3541 11.0848 12.361 11.1943C12.3679 11.3038 12.4703 11.3501 12.5284 11.4059C12.5913 11.464 12.6425 11.5617 12.6146 11.6712C12.6494 11.655 12.7123 11.6363 12.7704 11.5107C12.8285 11.3851 13.2351 10.6197 13.2351 10.6197H12.9353V10.6195Z" fill="#685026"/>
<path id="Vector_73" fill-rule="evenodd" clip-rule="evenodd" d="M14.5378 8.85221C14.5378 8.85221 14.5726 8.75927 14.5378 8.6918C14.5028 8.62202 14.2912 8.59871 14.1865 8.51958C14.0771 8.43814 13.9445 8.38156 13.8351 8.41729C13.8514 8.37772 13.9166 8.29154 13.863 8.27298C13.8118 8.25672 13.6212 8.34276 13.57 8.38232C13.5188 8.42189 13.4024 8.46836 13.3792 8.49642C13.356 8.52448 13.3163 8.57785 13.293 8.55454C13.2697 8.53829 13.2582 8.49642 13.2186 8.51958C13.1791 8.54273 12.9886 8.6987 12.9535 8.78948C12.9184 8.88027 12.8394 9.0827 12.6021 9.31289C12.3649 9.54308 12.2625 9.69214 12.3322 9.77817C12.402 9.86421 12.4347 9.80148 12.4463 9.87586C12.4553 9.94888 12.4514 10.0229 12.4347 10.0945C12.4068 10.2155 12.3603 10.3295 12.423 10.3528C12.5836 10.404 12.7396 10.3068 12.7744 10.3365C12.8441 10.3993 12.7348 10.625 12.9 10.6692C13.0676 10.7152 13.2327 10.6296 13.2327 10.6296L13.8422 10.3016L14.4285 9.99226L14.7284 9.39892L14.5676 8.90343L14.5369 8.85221H14.5378Z" fill="#D4B968"/>
<path id="Vector_74" fill-rule="evenodd" clip-rule="evenodd" d="M13.9621 10.2653C13.9621 10.2653 13.8597 10.1095 13.9854 9.97207C14.1112 9.83466 14.2901 9.77669 14.3599 9.69066C14.3466 9.67427 14.3288 9.66217 14.3087 9.65585C14.355 9.57296 14.4257 9.50631 14.5111 9.46492C14.4763 9.43011 14.4297 9.40219 14.3786 9.40219C14.2645 9.40219 14.1946 9.47197 14.09 9.47197C13.9877 9.47197 13.9761 9.42075 13.9761 9.42075C13.9761 9.42075 14.1483 9.4045 14.1319 9.32766C14.1156 9.24623 14.0859 9.24623 14.0859 9.24623C14.0859 9.24623 14.4185 9.10821 14.4766 9.0346C14.5348 8.96099 14.5279 8.87404 14.5395 8.83922C14.5789 8.83922 14.8093 8.71822 14.9023 8.76945C14.9954 8.82067 14.9303 8.96022 14.9303 8.96022C14.9303 8.96022 15.212 8.74844 15.3555 8.54079C15.4811 8.55245 15.5395 8.45476 15.6316 8.45476C15.7457 8.45476 15.9248 8.61057 15.9596 8.9432C15.9829 9.13397 16.0177 9.24332 15.9829 9.5807C15.9666 9.77148 15.9712 10.1788 16.0289 10.3809C16.0683 10.5415 16.1614 10.5252 16.1614 10.5252C16.1471 10.5742 16.1188 10.6178 16.08 10.6508C16.0171 10.7089 16.0102 10.8626 16.0171 10.9207C16.0264 10.9632 16.038 11.0052 16.0521 11.0463C16.0521 11.0463 15.9777 11.1324 15.959 11.1906C15.9427 11.2488 15.866 11.2883 15.8101 11.2883C15.7541 11.2883 15.7822 11.2836 15.7078 11.2883C15.6334 11.2931 15.6101 11.3046 15.5635 11.2883C15.5168 11.2721 15.482 11.2534 15.5007 11.1043C15.517 10.9554 14.9261 10.6088 14.9261 10.6088L13.96 10.2645L13.9621 10.2653Z" fill="#CCA849"/>
<path id="Vector_75" fill-rule="evenodd" clip-rule="evenodd" d="M12.8539 11.7458C12.8539 11.7458 13.0656 12.0274 13.9357 12.0274C14.3498 12.0274 14.4941 11.9878 14.5798 11.9645C14.6729 11.9412 15.0218 11.8041 15.3731 11.3899C15.6895 11.0154 15.6197 10.8618 15.6197 10.8618L15.4357 10.8339L14.8376 10.9154L13.0679 11.6691L12.8532 11.7458H12.8539Z" fill="#585136"/>
<path id="Vector_76" fill-rule="evenodd" clip-rule="evenodd" d="M13.5035 11.8056C13.5035 11.8056 12.7498 11.9732 12.7498 11.4963C12.7498 11.031 13.2151 10.5424 13.3315 10.4564C13.4525 10.3702 13.7409 10.2723 13.7409 10.2723H14.4366L14.5691 10.6237L14.5109 11.382L13.5035 11.8054V11.8056Z" fill="#252211"/>
<path id="Vector_77" fill-rule="evenodd" clip-rule="evenodd" d="M14.1986 10.4116C14.1986 10.4116 14.0544 10.2789 13.7264 10.4576C13.3984 10.6363 13.1331 11.0097 13.1168 11.3488C13.1006 11.6487 13.3634 11.8722 13.7729 11.8838C14.0776 11.8953 14.2615 11.8605 14.3546 11.8378C14.3313 11.8099 14.2103 11.6587 14.2103 11.6587L14.1988 10.4118L14.1986 10.4116Z" fill="#C3B378"/>
<path id="Vector_78" fill-rule="evenodd" clip-rule="evenodd" d="M14.0564 10.4937C14.0564 10.4937 14.0215 10.4658 13.9183 10.5216C13.8323 10.5677 13.7067 10.6893 13.609 10.7753C13.5461 10.8265 13.5066 10.8497 13.471 10.8892C13.3267 11.0615 13.2057 11.343 13.2756 11.4826C13.3456 11.6221 13.5757 11.7827 14.162 11.6734L14.0547 10.4939L14.0564 10.4937Z" fill="#E6D89C"/>
<path id="Vector_79" fill-rule="evenodd" clip-rule="evenodd" d="M13.865 10.7811C13.865 10.7811 13.7719 10.9255 13.7719 11.1558C13.7719 11.3907 13.9046 11.7652 14.3932 11.7931C14.7677 11.8165 15.0189 11.2535 15.2911 11.0348C15.4981 10.8673 15.6237 10.8626 15.6237 10.8626C15.6237 10.8626 15.4121 10.6325 14.8468 10.3346C14.2884 10.0345 13.6626 9.99489 13.3229 10.4556C13.4834 10.4439 14.0023 10.3113 14.0023 10.3113L14.2559 10.3927L13.865 10.7813V10.7811Z" fill="#252211"/>
<path id="Vector_80" fill-rule="evenodd" clip-rule="evenodd" d="M14.5959 11.0796C14.5796 11.0448 14.568 10.9982 14.6355 10.9867C14.7029 10.9752 14.7331 10.9819 14.7565 11.0327C14.7798 11.0834 14.8025 11.1258 14.768 11.1468C14.7331 11.1653 14.6424 11.1468 14.5957 11.0793L14.5959 11.0796ZM14.4865 10.7516C14.4865 10.7516 14.4632 10.7678 14.4749 10.7353C14.4795 10.6959 14.5099 10.626 14.5842 10.6424C14.6586 10.6588 14.6425 10.7401 14.6302 10.7634C14.618 10.7867 14.5559 10.8261 14.5092 10.8094C14.5033 10.8079 14.4979 10.805 14.4933 10.801C14.4887 10.7969 14.4851 10.7919 14.4828 10.7862C14.4806 10.7806 14.4797 10.7745 14.4802 10.7684C14.4807 10.7623 14.4827 10.7564 14.4859 10.7513L14.4865 10.7516Z" fill="#6F674D"/>
<path id="Vector_81" fill-rule="evenodd" clip-rule="evenodd" d="M8.18927 10.9012C8.18927 10.9012 8.3733 11.0393 8.58708 11.0339C8.79871 11.0291 9.07092 10.8106 9.19652 10.6709C9.2709 10.5895 9.33454 10.5034 9.40355 10.436C9.46182 10.3778 9.50124 10.3499 9.52915 10.3104C9.56871 10.2644 9.61058 10.1779 9.63159 10.1498C9.58037 10.1894 9.50599 10.2593 9.42916 10.3058C9.35478 10.3518 9.19422 10.4383 9.12904 10.4616C9.06632 10.4849 8.41486 10.8296 8.41486 10.8296L8.18927 10.9012Z" fill="#AC924C"/>
<path id="Vector_82" fill-rule="evenodd" clip-rule="evenodd" d="M8.47008 9.18126C8.47008 9.18126 8.57236 9.11149 8.77019 9.06717C8.96097 9.02116 9.34482 8.98573 9.34482 8.98573L9.6612 9.12375L9.78679 9.60069L9.55676 10.0963L9.2637 10.2804L8.93091 9.74531L8.47084 9.18218L8.47008 9.18126Z" fill="#9F8E57"/>
<path id="Vector_83" fill-rule="evenodd" clip-rule="evenodd" d="M8.05626 9.61743L7.94676 9.69917C7.94676 9.69917 7.97482 9.64795 7.99798 9.49214C8.02114 9.33633 8.14229 8.95708 8.31911 8.73839C8.49593 8.5197 8.49133 8.53136 8.49133 8.53136C8.47506 8.52838 8.45834 8.52891 8.44229 8.5329C8.42624 8.5369 8.41122 8.54426 8.39824 8.55452C8.42155 8.50299 8.57046 8.31896 8.71937 8.22695C8.86828 8.13493 8.9264 8.10595 9.08221 8.18094C9.23802 8.25593 9.27759 8.29488 9.39168 8.29028C9.50578 8.28568 9.60332 8.16469 9.60332 8.16469C9.60332 8.16469 9.62663 8.23906 9.54059 8.41128C9.45456 8.5835 9.11488 8.93469 9.11488 8.93469L8.40759 9.41853L8.05626 9.61789V9.61743Z" fill="#EAC970"/>
<path id="Vector_84" fill-rule="evenodd" clip-rule="evenodd" d="M8.57918 9.12312C8.57918 9.12312 9.09109 9.1929 9.2469 9.04874C9.2515 9.065 9.27021 9.065 9.27021 9.07665C9.26895 9.08544 9.26486 9.09357 9.25855 9.09981C9.2755 9.0971 9.29261 9.09557 9.30977 9.09521C9.33026 9.10131 9.35134 9.10521 9.37265 9.10686C9.38981 9.10649 9.40693 9.1049 9.42387 9.10211C9.42225 9.11367 9.41832 9.12479 9.41232 9.1348C9.40631 9.14482 9.39835 9.15352 9.3889 9.16038C9.41222 9.16038 9.43491 9.16498 9.43491 9.18354C9.43491 9.2021 9.43951 9.25807 9.4116 9.26973C9.38848 9.27612 9.36387 9.27444 9.34182 9.26497C9.34367 9.30902 9.35563 9.35205 9.37679 9.39073C9.4228 9.47676 9.52094 9.57475 9.65283 9.54654C9.65283 9.54654 9.72246 9.714 9.42939 10.0862C9.38998 10.1374 9.34796 10.2072 9.29689 10.2653C9.27671 10.3093 9.26129 10.3553 9.25088 10.4026C9.25088 10.4026 9.74653 10.2118 9.88839 9.77672C10.0327 9.33935 10.0606 8.90903 10.0327 8.50662C10.0279 8.39253 10.0094 8.31125 9.98147 8.25297C9.9117 8.10866 9.71617 8.13197 9.63719 8.21341C9.52309 8.3275 9.33232 8.61121 9.06716 8.80659C8.79726 9.00197 8.78575 9.03663 8.57857 9.12312H8.57918Z" fill="#D7BC6B"/>
<path id="Vector_85" fill-rule="evenodd" clip-rule="evenodd" d="M7.96587 9.76151C7.96587 9.76151 7.86818 9.81963 7.81696 10.0375C7.76574 10.2608 7.86297 10.533 7.91925 10.6191C7.97553 10.7051 8.10328 10.9402 8.36828 10.9519C8.43387 10.9515 8.49873 10.9381 8.55906 10.9123C8.65157 10.8699 8.73834 10.8159 8.81731 10.7517C8.93141 10.6657 9.02434 10.5913 9.01268 10.5843C8.98477 10.5726 8.31016 10.0142 8.31016 10.0142L8.05651 9.73114L7.96572 9.76181L7.96587 9.76151Z" fill="#585136"/>
<path id="Vector_86" fill-rule="evenodd" clip-rule="evenodd" d="M8.60324 10.6846C8.60324 10.6846 8.7405 10.6731 8.82193 10.6219C8.90336 10.5707 8.34499 10.0171 8.34499 10.0171L8.38456 10.6151L8.60324 10.6846Z" fill="#453A25"/>
<path id="Vector_87" fill-rule="evenodd" clip-rule="evenodd" d="M8.0099 9.71632C8.0099 9.71632 7.94013 9.84897 7.94013 9.88393C7.92847 9.99788 7.96344 10.3561 7.99135 10.4701C8.01926 10.5911 8.17047 10.7748 8.366 10.7748C8.48684 10.7748 8.65446 10.7004 8.65446 10.6818C8.65446 10.6585 8.48224 10.6358 8.43578 10.5492C8.40787 10.5032 8.39621 10.3888 8.38977 10.2732C8.38517 10.1988 8.38517 10.1173 8.41308 10.0891C8.47596 10.0193 8.48746 9.81922 8.48746 9.81922L8.71074 9.40439H8.41707L8.06573 9.62307L8.0099 9.71632Z" fill="#84754B"/>
<path id="Vector_88" fill-rule="evenodd" clip-rule="evenodd" d="M7.92378 9.83959C7.92378 9.83959 8.15382 9.53487 8.36116 9.46494C8.56849 9.39501 8.66128 9.43702 8.66128 9.43702L8.54028 9.7465L8.36806 9.93727L8.37971 10.035C8.37971 10.035 8.35165 10.2932 8.52387 10.4723C8.69609 10.6515 8.82399 10.6446 8.89852 10.6446C8.97305 10.6446 9.18698 10.5817 9.29632 10.3234C9.39401 10.0816 9.47545 9.77134 9.28007 9.46034C9.08914 9.15086 8.75191 9.1389 8.68673 9.1389C8.62156 9.1389 8.10981 9.16451 7.92378 9.83913V9.83959Z" fill="#252211"/>
<path id="Vector_89" fill-rule="evenodd" clip-rule="evenodd" d="M13.8292 10.8825C13.7432 10.8429 13.8246 10.6011 13.9106 10.5266C13.9967 10.452 14.106 10.3662 14.2969 10.3543C14.3666 10.3497 14.434 10.3939 14.4225 10.4405C14.4063 10.5266 14.2853 10.6476 14.1759 10.7336C14.0247 10.8523 13.9269 10.9267 13.8292 10.8825Z" fill="#F7F7E7"/>
<path id="Vector_90" fill-rule="evenodd" clip-rule="evenodd" d="M9.17804 9.55784C9.24092 9.55324 9.32235 9.60385 9.3386 9.67194C9.35486 9.74632 9.29904 9.89523 9.17804 9.89523C9.08035 9.89523 9.02913 9.77423 9.02913 9.73942C9.03023 9.71079 9.03823 9.68286 9.05244 9.65799C9.05704 9.65093 9.0687 9.5695 9.17804 9.55784Z" fill="#F8F6DE"/>
<path id="Vector_91" fill-rule="evenodd" clip-rule="evenodd" d="M8.27124 9.60861C8.27124 9.60861 8.11068 9.68299 8.0363 9.83864C7.98315 9.95359 7.96707 10.0822 7.99029 10.2067C8.00195 10.2648 8.06007 10.409 8.09963 10.4602C8.1392 10.5114 8.19272 10.5464 8.23229 10.5416C8.27185 10.5369 8.35313 10.4323 8.35313 10.3696C8.35313 10.3068 8.35789 10.0415 8.43457 9.89723C8.50204 9.75307 8.2717 9.60876 8.2717 9.60876L8.27124 9.60861Z" fill="#D4C38B"/>
<path id="Vector_92" fill-rule="evenodd" clip-rule="evenodd" d="M8.29351 9.59621C8.2656 9.61246 8.21913 9.63577 8.23063 9.66599C8.24229 9.6939 8.33998 9.71199 8.37494 9.78008C8.41451 9.84986 8.41451 9.92424 8.40285 9.9592C8.43324 9.94477 8.46082 9.92503 8.48429 9.90093C8.53551 9.84281 8.59823 9.76383 8.65175 9.76383C8.68672 9.76383 8.72153 9.78008 8.75419 9.78008C8.80541 9.78008 8.85648 9.76383 8.86354 9.71031C8.87504 9.64053 8.76585 9.57765 8.70297 9.58931C8.71463 9.5433 8.73088 9.47536 8.67966 9.42874C8.62844 9.38212 8.46803 9.46371 8.43306 9.48702C8.3981 9.51033 8.29351 9.59636 8.29351 9.59636V9.59621Z" fill="#E2D59D"/>
<path id="Vector_93" fill-rule="evenodd" clip-rule="evenodd" d="M11.9903 14.4891L12.3346 14.3874L12.4323 14.4572C12.4323 14.4572 12.5019 14.6061 12.6114 14.6246C12.5765 14.699 12.4857 14.7626 12.4904 14.8154C12.4952 14.8682 12.5417 14.9085 12.5417 14.9085C12.5417 14.9085 12.2322 15.4202 12.8418 15.936C12.6975 15.9941 12.5137 16.074 12.4161 16.12C12.4857 16.1363 12.6346 16.166 12.6975 16.2225C12.7603 16.2789 12.7603 16.2968 12.8185 16.3318C12.8766 16.3668 12.9114 16.4132 12.8999 16.4341C12.8603 16.4108 12.7277 16.3411 12.7045 16.4062C12.6814 16.4712 12.1299 16.4457 12.1299 16.4457L11.1993 16.6249C11.1993 16.6249 11.2341 16.5318 11.1365 16.4457C11.0225 16.3434 10.883 16.4503 10.734 16.3364C10.5387 16.1875 10.5316 16.0153 10.4689 15.9502C10.5316 15.9107 10.6597 15.8526 10.9644 15.8122C10.9527 15.7889 10.9132 15.7191 10.9365 15.6564C10.9644 15.575 11.0806 15.5238 11.0458 15.4264C11.097 15.4147 11.1202 15.4147 11.2482 15.2542C11.3692 15.0936 11.4436 15.0588 11.5367 15.0471C11.6298 15.0355 11.6856 15.0471 11.8578 14.8866C11.9787 14.7726 11.9393 14.6749 11.9393 14.6749C11.9393 14.6749 12.0183 14.6493 11.9905 14.4888L11.9903 14.4891Z" fill="#CBAC5A"/>
<path id="Vector_94" fill-rule="evenodd" clip-rule="evenodd" d="M10.973 14.5439C10.9776 14.5206 10.9963 14.509 11.1219 14.5206C11.2475 14.5323 12.0431 14.4462 12.2595 14.4346C12.4782 14.4183 13.2482 14.4298 13.6228 14.509C13.9975 14.5881 14.3766 14.6812 14.5603 14.7277C14.7443 14.7789 14.8023 14.7973 14.7952 14.8206C14.7906 14.8439 14.7492 14.8666 14.7254 14.8602C14.7023 14.8556 14.0927 14.6694 13.9044 14.6301C13.7161 14.5909 13.0644 14.4858 12.7082 14.4921C12.3756 14.4969 12.2429 14.4875 11.9615 14.52C11.6799 14.555 11.2147 14.6014 11.0751 14.5829C10.9371 14.5666 10.9656 14.5666 10.9727 14.5433L10.973 14.5439Z" fill="#D6BC6F"/>
<path id="Vector_95" fill-rule="evenodd" clip-rule="evenodd" d="M12.846 16.3567C12.846 16.3567 13.323 16.6149 13.4952 16.9313C13.6208 17.1663 13.4208 17.2827 13.4208 17.2827C13.4208 17.2827 13.6907 17.2827 13.6558 17.4316C13.6395 17.5245 13.1905 17.7757 12.8904 17.9083C12.5856 18.041 12.5973 18.0341 12.4484 18.0573C12.3041 18.0806 11.9086 18.0113 11.8271 18.127C11.7457 18.2428 11.7811 18.3621 11.8038 18.3807C11.8271 18.3969 12.0156 18.4203 12.0156 18.4203C12.0156 18.4203 11.9761 18.5296 11.5853 18.5413C11.1946 18.5529 11.0967 18.5807 11.0734 18.6227C11.0501 18.6621 11.1478 18.6389 11.3271 18.6687C11.5062 18.6966 11.7574 18.7147 11.7574 18.7147C11.7574 18.7147 11.6759 18.7845 11.4643 18.8403C11.2223 18.903 10.8431 18.9613 10.7291 19.0311C10.7872 19.0706 10.8734 19.1288 10.9131 19.1334C10.8155 19.1567 10.678 19.2079 10.6549 19.2265C10.6897 19.2498 10.7363 19.2777 10.7363 19.2777C10.7363 19.2777 10.5408 19.5126 10.4268 19.5709C10.3129 19.6292 9.65685 19.9337 9.4311 19.8756C8.86813 19.7267 8.79836 19.1102 8.6611 19.0637C8.45407 18.994 8.35638 19.1334 8.17251 19.0357C8.25394 18.9776 8.29826 18.9427 8.38429 18.9032C8.29121 18.8572 7.80967 18.5518 7.80967 18.5518C7.75931 18.4421 7.70342 18.3349 7.6422 18.2309C7.54911 18.0703 7.41217 17.8562 7.30942 17.6677C7.08613 17.2537 7.07448 17.0629 6.87204 16.828C6.90701 16.7819 7.02785 16.7884 7.02785 16.7884L8.72398 17.3468L11.7315 17.4339L12.5136 16.3173L12.8462 16.3568L12.846 16.3567Z" fill="#DFC677"/>
<path id="Vector_96" fill-rule="evenodd" clip-rule="evenodd" d="M8.39094 18.0715C8.40909 18.0917 8.43024 18.1089 8.45366 18.1227C8.51194 18.1623 8.59797 18.2089 8.65609 18.2785C8.6794 18.2437 8.73753 18.1808 8.84012 18.2785C8.94272 18.3762 9.07016 18.3066 9.14944 18.3297C9.23087 18.3578 9.23547 18.3693 9.23547 18.3693C9.23547 18.3693 9.28148 18.3297 9.38438 18.2879C9.44726 18.2645 9.52164 18.2483 9.60307 18.2251C9.67745 18.2089 9.75888 18.1856 9.81486 18.1856C9.86608 18.2204 10.0498 18.4156 10.7873 18.1274C11.4829 17.8575 11.6433 17.8273 11.7597 17.869C11.7714 17.8411 11.783 17.7876 11.9622 17.7947C11.9622 17.7203 11.8132 17.4666 11.8132 17.4666L10.992 17.1852H10.5428L9.19591 17.4318L8.44952 17.8577L8.3914 18.0724L8.39094 18.0715Z" fill="#C4A859"/>
<path id="Vector_97" fill-rule="evenodd" clip-rule="evenodd" d="M7.94165 17.5998C7.94165 17.5998 7.95791 17.7254 8.14408 17.8581C8.32811 17.9906 8.38593 18.0697 8.38593 18.0697C8.38593 18.0697 8.42089 18.0237 8.4488 17.9768C8.47671 17.9255 8.50002 17.8674 8.54649 17.8512C8.63958 17.8116 8.85121 17.886 8.89783 17.8743C8.9374 17.8628 8.92574 17.7814 8.96761 17.7814C9.0653 17.7766 9.12802 17.8441 9.16298 17.8441C9.19795 17.8441 9.28383 17.8395 9.29548 17.821C9.30714 17.8024 9.31174 17.6092 9.44439 17.5161C9.5887 17.4138 9.76552 17.458 9.81245 17.4813C9.81245 17.5161 9.81705 17.6023 9.91014 17.6069C10.0032 17.6115 10.0124 17.5952 10.0942 17.6231C10.1759 17.651 10.2733 17.6185 10.3175 17.7556C10.357 17.7441 10.4501 17.7325 10.4268 17.5998C10.4728 17.565 10.513 17.5417 10.6108 17.4044C10.6341 17.3696 10.6735 17.3301 10.7039 17.2788C10.7853 17.2788 10.883 17.2626 11.0132 17.3765C10.9737 17.4044 10.9504 17.4225 10.9389 17.4509C10.9729 17.4846 11.004 17.5212 11.0318 17.5602C11.0668 17.6063 11.0901 17.6627 11.1342 17.6743C11.2319 17.7023 11.3925 17.6627 11.5716 17.6743C11.7438 17.686 11.888 17.7487 11.9509 17.7883C11.9742 17.7768 11.9742 17.772 12.0323 17.7837C12.0904 17.7953 12.1346 17.7999 12.0719 17.7256C12.1067 17.7418 12.1462 17.7768 12.1812 17.7418C12.2162 17.7069 12.2439 17.6558 12.3416 17.6441C12.4393 17.6325 12.4743 17.6487 12.5138 17.5464C12.565 17.4208 12.3882 17.4208 12.3882 17.4208C12.3882 17.4208 12.4697 17.3463 12.5604 17.2486C12.6698 17.1463 12.7954 17.0137 12.8256 16.8508C12.8768 16.5507 12.5838 16.5113 12.5838 16.5113L11.1623 16.9487L9.42446 16.8625L7.94257 17.6L7.94165 17.5998Z" fill="#927D49"/>
<path id="Vector_98" fill-rule="evenodd" clip-rule="evenodd" d="M6.66469 13.487C6.66469 13.487 6.61868 13.5452 6.59031 13.6824C6.56194 13.8197 6.57406 13.8034 6.55075 13.9011C6.52744 13.9988 6.24112 14.9712 6.34847 15.2992C6.45582 15.6273 6.64169 15.7483 6.75793 16.0134C6.78124 16.0715 6.80394 16.1065 6.81605 16.1577C6.85562 16.3298 6.82081 16.4625 6.86727 16.6347C6.88353 16.6928 6.92555 16.7603 6.98827 16.83C7.12629 16.9742 7.35127 17.1115 7.44834 17.2091C7.58544 17.3535 7.78097 17.6467 8.02987 17.6744C8.16252 17.6907 8.351 17.6349 8.50681 17.5419C8.64483 17.4557 8.7301 17.3349 8.87486 17.2659C8.97715 17.2147 9.0865 17.1961 9.18418 17.1728C9.38661 17.1332 9.57049 17.1268 9.67983 17.1495C9.8473 17.1845 10.2428 17.3055 10.462 17.3055C10.6332 17.3027 10.8035 17.2793 10.9691 17.2357C11.3017 17.138 11.7041 16.9704 11.9694 16.896C12.1253 16.85 12.2509 16.8379 12.3789 16.81C12.5976 16.7587 12.7813 16.689 12.8861 16.5563C12.8163 16.4749 12.7302 16.3493 12.2648 16.3539C11.7368 16.3655 11.1272 16.6586 10.8271 16.7052C10.527 16.7518 10.3968 16.7912 10.0617 16.6703C9.7332 16.548 9.72231 16.4672 9.72231 16.4672C9.72231 16.4672 9.37741 16.226 9.2331 15.611C9.0888 14.9961 9.23311 14.548 9.60776 14.1221C9.70544 14.0127 9.68213 13.915 9.68213 13.915C9.68213 13.915 9.92873 13.5824 9.86125 13.271C9.78688 12.9615 9.30994 13.0244 9.30994 13.0244L6.66484 13.487H6.66469Z" fill="#6E6342"/>
<path id="Vector_99" fill-rule="evenodd" clip-rule="evenodd" d="M7.06238 14.5201C7.04187 14.5587 7.03222 14.6021 7.03446 14.6457C7.03907 14.7085 7.05777 14.7899 7.2461 14.9738C7.40666 15.1342 7.3717 15.3133 7.3717 15.3133C7.3717 15.3133 7.45251 15.3295 7.67181 15.227C7.84403 15.1455 7.90185 15.2898 7.90185 15.2898C7.95198 15.2635 8.00632 15.2462 8.06241 15.2386C8.11324 15.2339 8.16243 15.2182 8.20657 15.1926C8.20657 15.1926 8.409 15.3996 8.58582 15.4973C8.74638 15.5835 8.83947 15.6416 8.9186 15.5835C8.99298 15.5323 8.99298 15.4275 8.98823 15.3811C8.96977 15.3382 8.94641 15.2976 8.9186 15.2601C8.86738 15.1857 8.78595 15.0995 8.78058 15.03C8.76893 14.8696 8.90158 14.6787 8.87352 14.6322C8.84545 14.5858 8.74102 14.5741 8.48276 14.6672C8.21531 14.7555 7.0613 14.5206 7.0613 14.5206L7.06238 14.5201Z" fill="#39331F"/>
<path id="Vector_100" fill-rule="evenodd" clip-rule="evenodd" d="M7.67252 15.5515C7.67252 15.5515 7.54002 15.4259 7.58649 14.8163C7.64274 14.8155 7.69891 14.821 7.75395 14.8326C7.75395 14.8326 7.82619 15.3049 7.67252 15.5515Z" fill="#292311"/>
<path id="Vector_101" fill-rule="evenodd" clip-rule="evenodd" d="M6.72824 13.0221C6.74673 13.0084 6.76388 12.993 6.77946 12.9761C6.73346 13.0621 6.52106 13.4064 6.69328 13.9485C6.8655 14.4882 7.29811 14.8906 7.83088 14.9093C8.36364 14.928 8.64367 14.6673 8.96387 14.2766C9.08947 14.1208 9.23378 13.9252 9.36168 13.7927C9.55246 13.5855 9.70137 13.5274 9.70137 13.3274C9.70137 12.918 9.28255 12.7341 8.66606 12.5504C8.04956 12.3667 7.49349 12.3894 7.20503 12.5151C6.92362 12.6522 6.80262 12.7965 6.72809 13.0223L6.72824 13.0221Z" fill="#252211"/>
<path id="Vector_102" fill-rule="evenodd" clip-rule="evenodd" d="M8.70794 15.7438L8.75395 15.7205C8.75395 15.7205 8.76545 15.5364 8.83998 15.5413C8.91436 15.553 8.94933 15.6508 8.94227 15.6856C8.93767 15.7205 8.91911 15.7787 8.84458 15.7717C8.7469 15.774 8.70748 15.7438 8.70748 15.7438H8.70794Z" fill="#3F3824"/>
<path id="Vector_103" fill-rule="evenodd" clip-rule="evenodd" d="M8.50071 14.9614C8.50071 14.9614 8.54672 14.9452 8.603 15.001C8.649 15.001 8.84959 14.9777 8.91247 15.0172C8.97535 15.0568 8.9939 15.0916 8.9939 15.0916C8.9939 15.0916 8.75896 15.1428 8.63091 15.0916C8.50071 15.0474 8.50071 14.9614 8.50071 14.9614Z" fill="#2D2815"/>
<path id="Vector_104" fill-rule="evenodd" clip-rule="evenodd" d="M9.53647 15.0005C9.53647 14.9889 9.41087 14.9029 9.27822 14.8748C9.25491 14.8702 9.25015 14.8865 9.23221 14.8865C9.22055 14.8818 9.21595 14.8469 9.21595 14.8469L9.1405 14.8866C9.1405 14.8866 9.12885 14.9029 9.16841 14.9326C9.20322 14.9605 9.2615 14.9838 9.27776 15.0303C9.29401 15.0768 9.29401 15.093 9.30107 15.1001C9.30567 15.1047 9.3871 15.1001 9.42666 15.0768C9.46623 15.0535 9.54076 15.0154 9.53601 15.0001L9.53647 15.0005Z" fill="#82764F"/>
<path id="Vector_105" fill-rule="evenodd" clip-rule="evenodd" d="M8.36158 15.4643C8.36158 15.4643 8.38474 15.3038 8.5407 15.2968C8.70111 15.2851 8.73148 15.4409 8.73148 15.4409L8.63839 15.534C8.63839 15.5317 8.56861 15.434 8.36235 15.4643H8.36158Z" fill="#2D2816"/>
<path id="Vector_106" fill-rule="evenodd" clip-rule="evenodd" d="M9.37361 14.7796C9.37361 14.7796 9.28742 14.8727 9.0968 14.9006C9.08054 14.8773 9.04558 14.8308 9.0968 14.7564C9.14802 14.682 9.20614 14.6587 9.26427 14.6819C9.28991 14.686 9.31383 14.6974 9.33321 14.7148C9.35258 14.7321 9.3666 14.7546 9.37361 14.7796Z" fill="#574F35"/>
<path id="Vector_107" fill-rule="evenodd" clip-rule="evenodd" d="M9.7246 14.888C9.72936 14.8647 9.7131 14.8601 9.7246 14.8484C9.73611 14.8368 9.79914 14.8136 9.81079 14.8251C9.81539 14.8299 9.81079 14.8484 9.81079 14.8711C9.81079 14.8938 9.81079 14.9171 9.79914 14.9338C9.78288 14.9571 9.73641 14.9688 9.7131 14.9619C9.68979 14.955 9.68519 14.9223 9.68519 14.9159C9.69669 14.9113 9.7246 14.8996 9.7246 14.888ZM10.1218 14.6368C10.1218 14.6251 10.1614 14.6018 10.1847 14.6018C10.2195 14.6018 10.2195 14.6297 10.2242 14.6368C10.2357 14.6414 10.2357 14.632 10.2474 14.653C10.2591 14.674 10.2755 14.7112 10.2637 14.7345C10.2518 14.7578 10.2055 14.7739 10.194 14.7693C10.1778 14.7576 10.1266 14.653 10.1218 14.6368Z" fill="#82764F"/>
<path id="Vector_108" fill-rule="evenodd" clip-rule="evenodd" d="M9.32142 14.9491C9.32142 14.9491 9.37264 14.9606 9.44242 15.0189C9.41911 15.0352 9.38415 15.0537 9.38415 15.0537C9.38415 15.0537 9.37954 15.0002 9.32142 14.949V14.9491Z" fill="#6E6342"/>
<path id="Vector_109" fill-rule="evenodd" clip-rule="evenodd" d="M9.20711 14.438C9.19546 14.4265 9.24192 14.3986 9.26983 14.4032C9.29774 14.4078 9.3094 14.4265 9.33961 14.4311C9.36982 14.4357 9.37458 14.4194 9.38562 14.4078C9.39666 14.3961 9.43684 14.4032 9.44374 14.4078C9.44804 14.4129 9.45193 14.4183 9.4554 14.424C9.45588 14.4152 9.45819 14.4065 9.46217 14.3986C9.46616 14.3907 9.47173 14.3837 9.47855 14.378C9.48748 14.3715 9.49777 14.367 9.50866 14.365C9.51954 14.363 9.53075 14.3634 9.54143 14.3664C9.54603 14.3826 9.56934 14.4407 9.56474 14.4524C9.56014 14.464 9.49036 14.4804 9.47855 14.4686C9.49021 14.4967 9.54143 14.5548 9.54833 14.5663C9.55523 14.5778 9.49711 14.6059 9.47395 14.6013C9.44144 14.599 9.24131 14.4826 9.2065 14.4384L9.20711 14.438ZM9.51183 14.0518C9.50752 14.0401 9.49928 14.0302 9.48852 14.0239C9.47226 14.0193 9.41874 14.0239 9.41874 14.0518C9.41874 14.0797 9.46475 14.2358 9.51643 14.3171C9.57471 14.3986 9.61412 14.4659 9.65368 14.4846C9.66611 14.4902 9.68021 14.491 9.69316 14.4867C9.70611 14.4823 9.71693 14.4733 9.72346 14.4613C9.72806 14.4496 9.73972 14.3636 9.73512 14.1612C9.73052 13.9587 9.72346 13.7634 9.71181 13.7517C9.70015 13.74 9.65368 13.7402 9.63743 13.7634C9.62117 13.7865 9.51643 14.017 9.51168 14.0518H9.51183Z" fill="#585136"/>
<path id="Vector_110" fill-rule="evenodd" clip-rule="evenodd" d="M9.30548 15.243C9.30548 15.243 9.22405 15.1917 9.14491 15.2267C9.07054 15.2617 9.07514 15.3989 9.07514 15.3989C9.09187 15.4055 9.10995 15.4078 9.1278 15.4058C9.14566 15.4038 9.16275 15.3974 9.17758 15.3873C9.2288 15.3524 9.29382 15.2943 9.30548 15.2431V15.243Z" fill="#574F35"/>
<path id="Vector_111" fill-rule="evenodd" clip-rule="evenodd" d="M9.45805 15.4156C9.45345 15.3696 9.41205 15.3696 9.41205 15.3458C9.4149 15.3344 9.42148 15.3244 9.43074 15.3172C9.44 15.31 9.4514 15.3062 9.46311 15.3062C9.48642 15.3062 9.50912 15.3341 9.53765 15.3522C9.56556 15.3685 9.60742 15.3982 9.61202 15.4337C9.61662 15.4691 9.56602 15.5662 9.50973 15.5662C9.45345 15.5662 9.47017 15.4614 9.45851 15.415L9.45805 15.4156ZM9.90708 15.3527C9.90708 15.3527 9.81399 15.3806 9.82089 15.3527C9.8278 15.3248 9.84896 15.3179 9.87917 15.3179C9.89452 15.3018 9.91517 15.2919 9.93729 15.2898C9.94995 15.2892 9.96238 15.2934 9.9721 15.3015C9.9721 15.3015 10.035 15.2736 10.0535 15.2898C10.0721 15.3061 10.0583 15.3061 10.0698 15.3248C10.0844 15.3456 10.094 15.3694 10.0979 15.3946C10.0979 15.4131 10.0281 15.4527 9.9721 15.4458C9.90708 15.4318 9.91858 15.3644 9.90708 15.3527ZM10.449 15.248C10.449 15.248 10.477 15.2642 10.4538 15.2829C10.4375 15.2992 10.3561 15.3289 10.2862 15.3341C10.2164 15.3341 10.1537 15.3456 10.1537 15.3225C10.1537 15.2993 10.2118 15.2527 10.2466 15.2411C10.2536 15.2323 10.2625 15.2253 10.2726 15.2204C10.2826 15.2156 10.2937 15.2131 10.3049 15.2131C10.3328 15.2131 10.442 15.2015 10.4724 15.1969C10.5003 15.1921 10.5236 15.2084 10.5072 15.2317C10.5003 15.248 10.449 15.248 10.449 15.248ZM10.6096 14.5296C10.6096 14.5296 10.5746 14.604 10.5352 14.604C10.4957 14.5994 10.4957 14.5878 10.4957 14.5761C10.4957 14.5598 10.5352 14.518 10.5305 14.5063C10.519 14.5063 10.4909 14.5063 10.4957 14.4784C10.4957 14.4551 10.5352 14.4272 10.57 14.4324C10.5963 14.4108 10.6291 14.3985 10.6631 14.3976C10.7027 14.3976 10.7375 14.4091 10.7375 14.4324C10.7375 14.4557 10.6915 14.5068 10.6746 14.5186C10.6561 14.5372 10.6328 14.5493 10.6096 14.5301V14.5296ZM10.0791 15.9045C10.0791 15.9045 10.0331 15.9092 10.0331 15.9324C10.0331 15.944 10.0446 15.944 10.0611 15.9371C10.0705 15.9366 10.0799 15.935 10.089 15.9324C10.0936 15.9371 10.0936 15.9603 10.1285 15.9603C10.1572 15.9564 10.1849 15.9469 10.21 15.9324C10.2379 15.9209 10.2612 15.9091 10.2612 15.8864C10.2495 15.8468 10.2262 15.8281 10.1914 15.8281C10.1736 15.827 10.1558 15.831 10.1402 15.8398C10.1402 15.8398 10.1285 15.8165 10.089 15.8398C10.0494 15.8631 10.054 15.8631 10.0657 15.8747C10.0865 15.8933 10.0796 15.9054 10.0796 15.9054L10.0791 15.9045ZM9.81629 16.1465C9.81629 16.1348 9.87442 16.1115 9.89067 16.1186C9.90693 16.1232 9.95339 16.2115 9.95339 16.2209C9.95339 16.2325 9.89527 16.2604 9.87196 16.2604C9.84865 16.2604 9.80924 16.2209 9.80924 16.2144C9.80924 16.2098 9.83715 16.2029 9.83715 16.1982C9.84405 16.1867 9.81629 16.1586 9.81629 16.1469V16.1465ZM9.63227 15.8068C9.64392 15.8022 9.64392 15.7905 9.66018 15.7789C9.66527 15.7755 9.67106 15.7733 9.67713 15.7725C9.68319 15.7717 9.68935 15.7723 9.69514 15.7743C9.69925 15.767 9.70492 15.7606 9.71177 15.7558C9.71861 15.7509 9.72645 15.7477 9.73471 15.7462C9.76262 15.7416 9.78593 15.7462 9.78072 15.7579C9.78072 15.7928 9.80403 15.816 9.80403 15.8439C9.80403 15.8718 9.78777 15.9068 9.72965 15.9301C9.67153 15.9463 9.59239 15.9463 9.58074 15.9417C9.56908 15.9371 9.55743 15.8905 9.56908 15.8672C9.58074 15.8439 9.61325 15.8184 9.63196 15.8068H9.63227Z" fill="#82764F"/>
<path id="Vector_112" fill-rule="evenodd" clip-rule="evenodd" d="M9.70646 15.8271C9.70646 15.8271 9.6669 15.8505 9.6669 15.8621C9.66339 15.8734 9.66183 15.8851 9.6623 15.8969C9.6623 15.9038 9.71352 15.8923 9.72042 15.8853C9.72272 15.8807 9.70646 15.8393 9.70646 15.8271Z" fill="#6E6342"/>
<path id="Vector_113" fill-rule="evenodd" clip-rule="evenodd" d="M9.36157 15.7168C9.38472 15.7215 9.42429 15.7168 9.4545 15.7284C9.47781 15.7401 9.49407 15.7634 9.47076 15.7913C9.44745 15.8192 9.42475 15.8611 9.37307 15.854C9.31495 15.8494 9.25912 15.8192 9.25912 15.7959C9.25815 15.7812 9.26011 15.7664 9.2649 15.7524C9.2697 15.7384 9.27722 15.7255 9.28704 15.7145C9.31035 15.6959 9.32185 15.7076 9.36141 15.7168H9.36157Z" fill="#585136"/>
<path id="Vector_114" fill-rule="evenodd" clip-rule="evenodd" d="M9.33243 15.7455C9.33243 15.7455 9.25805 15.8036 9.23934 15.8316C9.21603 15.8596 9.10209 16.0037 9.06727 16.0339C9.07884 16.0135 9.09202 15.9941 9.10669 15.9758C9.06068 16.0052 9.02619 16.0496 9.009 16.1014C8.98109 16.1876 9.16496 16.2341 9.28581 16.269C9.40665 16.304 9.45343 16.315 9.45343 16.315C9.40893 16.2482 9.37074 16.1773 9.33933 16.1034C9.29332 15.994 9.26955 15.9824 9.29976 15.9312C9.32307 15.88 9.35804 15.8451 9.35804 15.8056C9.34408 15.7688 9.33243 15.7455 9.33243 15.7455Z" fill="#574F35"/>
<path id="Vector_115" fill-rule="evenodd" clip-rule="evenodd" d="M6.68089 15.9339C6.69783 15.937 6.71518 15.937 6.73211 15.9339C6.76693 15.9291 7.12992 15.7959 7.50917 15.8198C7.79308 15.837 8.07449 15.8832 8.34895 15.9578C8.82589 16.0834 9.41907 16.3323 9.80293 16.4743C9.90522 16.5137 10.0054 16.5837 10.079 16.6114C10.3722 16.7255 10.3837 16.7255 10.5559 16.7557C10.7583 16.7837 10.9654 16.7162 11.1818 16.6697C11.4469 16.6114 11.9005 16.5835 12.2983 16.5254C12.427 16.5076 12.5539 16.4788 12.6776 16.4394C12.6776 16.4394 12.3612 16.7557 11.6027 16.8697C11.2961 16.9162 10.9846 16.9202 10.6769 16.8813C10.4349 16.858 10.2745 16.8231 10.1535 16.7883C10.0162 16.7487 9.73468 16.6439 9.3881 16.5582C9.1461 16.4953 8.87619 16.4489 8.56687 16.3908C7.80377 16.251 6.97565 16.0906 6.68059 15.9348L6.68089 15.9339Z" fill="#252211"/>
<g id="Vector_116">
</g>
<path id="Vector_117" fill-rule="evenodd" clip-rule="evenodd" d="M5.82539 14.4997C5.64136 14.6555 5.44614 14.8044 5.25552 14.9486L4.68089 15.3901C4.48551 15.5343 4.29474 15.6832 4.09921 15.8275C3.90368 15.9718 3.70846 16.1089 3.50112 16.2415C3.68515 16.0857 3.88037 15.9414 4.07574 15.7996C4.27112 15.6577 4.4737 15.5186 4.66218 15.3748L5.23681 14.9326C5.43448 14.7885 5.62526 14.6396 5.82539 14.5V14.4997ZM4.80879 16.1282C4.80879 16.1282 5.01582 15.956 5.27407 15.7141C5.59505 15.4142 5.98825 15.0302 6.11385 14.9605L4.80864 16.1284L4.80879 16.1282Z" fill="#CFB66C"/>
<path id="Vector_118" fill-rule="evenodd" clip-rule="evenodd" d="M4.80941 16.1216C4.91185 16.0193 5.0212 15.9193 5.13054 15.8214L5.298 15.6773C5.34923 15.6313 5.4075 15.5796 5.45857 15.5284C5.56086 15.4261 5.661 15.3166 5.76329 15.212C5.81399 15.1594 5.86759 15.1097 5.92385 15.0631C5.95198 15.0382 5.98322 15.0171 6.01679 15.0002C6.04485 14.984 6.07506 14.9542 6.11447 14.949C6.09132 14.984 6.06341 15.0002 6.0401 15.0304C6.01219 15.0537 5.98888 15.0816 5.96572 15.1048C5.9145 15.156 5.85638 15.2025 5.80515 15.2491C5.69581 15.3422 5.58187 15.4331 5.47252 15.5305C5.36318 15.6279 5.26089 15.733 5.15139 15.8306C5.03285 15.9308 4.92351 16.0285 4.80941 16.122V16.1216ZM6.20066 15.191C6.20066 15.191 5.44231 15.9332 5.28635 16.0541L6.20066 15.191Z" fill="#CFB66C"/>
<path id="Vector_119" fill-rule="evenodd" clip-rule="evenodd" d="M6.19981 15.1941C6.13159 15.273 6.05845 15.3476 5.98082 15.4173L5.75078 15.636C5.67641 15.7104 5.60648 15.7849 5.5275 15.8593C5.44607 15.9291 5.37169 15.9973 5.2855 16.0618L5.50879 15.8431C5.58332 15.7687 5.66475 15.706 5.74388 15.6314L5.96717 15.4127C6.04385 15.3361 6.11838 15.2615 6.19981 15.1941ZM6.23462 15.5965C6.16472 15.7916 6.08235 15.982 5.98803 16.1665C5.79265 16.5574 5.49959 17.0458 5.37153 17.2949L6.23462 15.5965Z" fill="#CFB66C"/>
<path id="Vector_120" fill-rule="evenodd" clip-rule="evenodd" d="M6.23436 15.5923C6.23436 15.6783 6.21105 15.7529 6.18314 15.8272C6.15593 15.9017 6.12491 15.9747 6.09021 16.0459C6.05524 16.1157 6.01567 16.1902 5.97611 16.2577C5.93654 16.3252 5.89008 16.3948 5.85511 16.4647L5.62017 16.8788C5.53874 17.0168 5.4596 17.1556 5.37357 17.2883C5.43169 17.1394 5.51083 16.9998 5.58536 16.8625C5.66679 16.7245 5.74117 16.5865 5.81539 16.4437C5.85163 16.3726 5.88424 16.2996 5.91308 16.2252C5.94789 16.1507 5.9827 16.0809 6.01077 16.0134C6.04558 15.939 6.07349 15.8691 6.10846 15.8018C6.14787 15.7295 6.18053 15.6598 6.23405 15.5923H6.23436Z" fill="#CFB66C"/>
<path id="Vector_121" fill-rule="evenodd" clip-rule="evenodd" d="M7.06282 17.5018C7.06282 17.5018 6.83279 17.8065 6.85579 18.1926C6.91851 17.9904 6.99765 17.6809 7.06282 17.5018ZM7.28151 17.8072C7.28151 17.8072 7.20008 18.6354 7.1326 19.0425C7.22799 18.5719 7.24654 18.6114 7.28151 17.8072ZM8.80526 19.0915C8.80526 19.0915 8.46098 20.1036 8.45392 20.3849C8.52845 20.0956 8.67261 19.5047 8.80526 19.0907V19.0915Z" fill="#DEC270"/>
<path id="Vector_122" fill-rule="evenodd" clip-rule="evenodd" d="M9.60989 17.4303C9.60989 17.4303 10.1683 18.3515 10.5871 19.1378C10.4737 18.7421 10.213 18.0164 9.60989 17.4303Z" fill="#CBAF59"/>
<path id="Vector_123" fill-rule="evenodd" clip-rule="evenodd" d="M11.1109 18.7986C11.4175 19.3405 11.6939 19.8989 11.939 20.4712C11.8926 20.0757 11.7668 19.3988 11.1109 18.7986Z" fill="#E3C677"/>
<path id="Vector_124" fill-rule="evenodd" clip-rule="evenodd" d="M15.5209 20.1477C15.6138 20.0896 15.7977 19.7731 15.9582 19.6941C16.1186 19.6127 16.2396 19.5964 16.3839 19.4358C16.5281 19.2682 16.568 19.1659 16.884 19.0334C17.3262 18.8425 17.0221 18.5959 17.0221 18.5959C17.0708 18.5481 17.1228 18.5038 17.1779 18.4634C17.292 18.3774 17.4245 18.2726 17.413 18.0887C17.3967 17.7794 17.3386 17.3304 17.0849 17.0698C17.3315 17.0186 17.8037 16.9838 18.0971 16.9094C18.4366 16.8233 18.5926 16.7023 18.5926 16.7023C18.5926 16.7023 18.3972 16.3696 18.7136 16.0347C19.03 15.6998 19.2882 15.4996 19.479 15.125C19.2603 15.0971 18.9269 14.9808 18.0761 15.3041C18.122 15.3257 18.1663 15.3506 18.2087 15.3785C18.2087 15.3785 17.6853 15.5228 17.4946 15.6834C17.1618 15.9648 17.1199 16.1951 16.7594 16.3673C16.3988 16.5395 16.0358 16.4929 15.7359 16.6325C15.4359 16.772 15.3916 16.8907 15.2821 16.9419C15.3054 16.9699 15.2775 17.0163 15.3216 17.0559C15.2937 17.0955 15.1309 17.3606 14.9657 17.3606C14.982 17.4235 15.1215 17.47 15.1215 17.47C15.1215 17.47 15.0192 17.5445 14.7587 17.563C14.8912 17.7011 15.0169 17.8515 15.3635 18.0702C15.3356 18.1283 15.2192 18.2145 15.2658 18.3238C15.317 18.4332 15.4498 18.5821 15.98 18.7031C15.7101 18.7146 15.3939 18.7775 14.9678 18.7194C14.5421 18.6681 14.4724 18.6379 14.2095 18.7031C14.2374 18.731 14.3118 18.731 14.377 18.8054C14.3072 18.81 13.8698 18.7542 13.7209 18.9497C13.5651 19.152 13.4976 19.4848 13.5093 19.708C13.4278 19.7476 13.3487 19.8174 13.3883 19.9617C13.4278 20.106 13.6349 20.1525 13.7675 20.2431C13.9 20.3408 13.9117 20.3756 14.0374 20.3524C14.1699 20.3245 14.3653 20.192 14.4794 20.192C14.5935 20.192 14.6748 20.2781 14.6748 20.2781C14.6748 20.2781 14.9843 20.1292 15.0145 20.1571C15.0424 20.185 15.0191 20.3641 15.0493 20.392C15.08 20.413 15.4285 20.206 15.5216 20.1477H15.5209Z" fill="#ECD592"/>
<path id="Vector_125" fill-rule="evenodd" clip-rule="evenodd" d="M22.2851 10.8323C20.8311 7.07754 17.2368 6.38191 17.2368 6.38191H6.98197L7.02153 10.2065H9.06378V18.7467H6.98181V22.5644H16.9529C19.356 22.5644 21.2823 20.1495 21.2823 20.1495C24.3671 15.7713 22.285 10.8323 22.285 10.8323H22.2851ZM17.0064 17.5765C17.0064 17.5765 16.2243 18.7049 15.3733 18.7049H13.6711L13.6307 10.2158H15.8153C15.8153 10.2158 16.8275 10.4275 17.5346 12.4304C17.5346 12.4304 18.4721 15.2982 17.0064 17.5765Z" fill="white" fill-opacity="0.8"/>
</g>
</svg>
